<?xml version="1.0" encoding="utf-8"?>
<!-- Generator: Adobe Illustrator 26.0.1, SVG Export Plug-In . SVG Version: 6.00 Build 0)  -->
<svg version="1.1" id="Layer_1" xmlns="http://www.w3.org/2000/svg" xmlns:xlink="http://www.w3.org/1999/xlink" x="0px" y="0px"
	 viewBox="0 0 1062.7 537.9" style="enable-background:new 0 0 1062.7 537.9;" xml:space="preserve">
<style type="text/css">
	.st0{fill:none;stroke:#FFFFFF;stroke-width:14;stroke-miterlimit:10;}
	.st1{display:none;fill:#FFFFFF;}
	.st2{opacity:0.5;}
	.st3{fill:#FFFFFF;}
	.st4{opacity:0.8;fill:#FFFFFF;enable-background:new    ;}
	.st5{opacity:0.9;fill:#FFFFFF;enable-background:new    ;}
	.st6{opacity:0.7;fill:#FFFFFF;enable-background:new    ;}
	.st7{opacity:0.6;fill:#FFFFFF;enable-background:new    ;}
	.st8{fill:#010101;}
	.st9{display:none;fill:url(#SVGID_1_);}
</style>
<g id="Layer_2_00000050632484307949838190000018239862166222465469_">
</g>
<g id="Layer_3">
	<path class="st0" d="M606.6,455c0,0-15.7-8.5-35.2-19.5c-3.3-1.9-14.5-5.5-17.9-7.5c-0.2-0.1-17.2-9.3-38.2-22.5
		c-35.3-22.1-88.9-44-111.1-52.5c-4.8-1.8-9.5-4.1-13.9-6.7c-20.3-12-91.5-49.8-156.1-88.6c-85.6-51.4-160.9-86.8-160.9-86.8
		c-3.4-2-6.2-5.1-8.1-8.8c-4-8.1-7.5-21.7,11.2-26.4c4.3-1.1,8.7-1.3,13.1-1l112.6,11.7c0,0,18.2,0.5,58.4,9.6
		c11.3,2.6,38,14.7,48.3,20.3c22.4,12.1,36.7,23.6,68,16c21.4-5.2,34-26.4,44-46c5.4-10.6,5.7-10.4,7.3-14
		c5.4-12.1,15.8-21,27.9-23.7c4.4-1,9.7-1.5,15.8-2c44.6-4.3,71.4-2.1,83.1,0.6c19.1,4.3,17.5,4.9,16,39.9
		c-1.8,43-7.6,201.4-8.6,232.6c-0.2,6.6,4.1,12.6,10.5,14.3c4.4,1.1,9.6,1.3,18.2-0.5c23.7-4.8,54.6-15.7,68.9-21.2
		c15.8-6.1,17.7-11.2,20.3-49.2c4.1-59.8,5.5-70.8,7.6-108.6c0.4-7.9,11.2-14.4,38.5-12.2c27.5,2.2,33.7,5.3,33,28.2
		c-0.2,6.5-1,17.5-1.2,27.1c-0.2,11.3,6.9,19.7,16.8,20.4c17.4,1.2,38.7-3,48.9-7.6c20.9-9.4,42.4-43.3,47.1-51.7
		c4.6-8.1,12.4-14.2,33.5-96.6c2.4-9.4,6.4-18.3,12.1-26.1c8.2-11.3,21.3-22.2,38.9-15.5c31.9,12.2,40.6,24.4,18.6,58.2
		c-2.6,4-24.3,37.8-23.6,36.8c1.6-2.4-29.8,43.3-37.2,53.7c-14.5,20.5-47.1,50.8-50.8,54.6c-40.3,40-46.1,42.5-78.1,67.2
		c-3.5,2.7-51,35.8-60,41.5c-14.8,9.4-36.7,18.7-46.7,20.3c-49.7,7.8-54.1-0.1-57.1,18.2C617.5,449.4,618.5,462.1,606.6,455z"/>
	<path class="st0" d="M396.6,350.6"/>
</g>
<g id="Layer_1_00000150073475011130890970000017859925792089930915_">
	<path class="st1" d="M616.3,463.9L616.3,463.9c-4.1,0-8.6-1.8-13-3.7c-0.1-0.1-0.2-0.1-0.3-0.2l-80.3-43.4l-71.1-32.5l-0.4-0.2
		L71.7,173.3c-1.8-0.8-8.9-4.1-11.3-10.7c-1.4-3.9-0.9-8.3,1.3-11.8c2.6-4.9,7.7-7.9,13.2-7.8c4.4,0.2,8.6,1.4,12.3,3.7L128,170
		c0.3,0.1,0.7,0.1,1,0.1c0.9,0,2.2-0.3,3.5-2.6c4.4-7.7,12.5-18.1,12.9-18.5c1-1.3,2.5-2,4.1-1.9c0.8,0,76.6,2.1,92,2.2
		c16.3,0.1,47.3,8.8,67.9,19c6.1,3,11.5,5.9,16.2,8.4c14.7,7.7,23.5,12.4,33.3,12.4c5.5,0,11.6-1.5,19.2-4.8
		c24.4-10.6,28.1-17.9,32.1-25.6l0.9-1.6c4.8-9.3,18.7-34.2,22.8-41c5.9-9.8,17.2-14.8,33.6-14.8c1.1,0,2.3,0,3.5,0.1
		c17,0.7,61.3,1.6,79.1,1.6l6.6-0.1h1.1c9.2,0,20.1,4.8,20.1,28c0,13.5-4.1,138.9-6.4,206.3l-1.4,42.2c-0.1,3.9,0.8,5.4,1.7,6.2
		c2.3,2.4,8.1,3.7,17.2,3.7c5.9,0,11.7-1.1,17.1-3.4c0.2-0.1,0.4-0.2,0.6-0.2l61.5-21.9c1.4-0.4,5.6-1.7,5.8-15.1l2.5-105.4
		c0-0.5,0.1-0.9,0.2-1.4l9.9-30.9c1.8-5,6.9-10.3,16-10.3c2,0,4,0.2,5.9,0.7c4.3,0.9,13.2,2.4,21.8,3.7c14,2.2,22.7,3.6,25.9,4.7
		c9,3,12.1,7.9,11.2,29.7l-0.6,11c-0.6,9.2-1.1,18,1.2,18.3c6.2,1,30.7,1.2,41.2,1.3l6.6,0.1c2.5,0,4.5-0.6,11.7-8.4l4.8-5.2
		l29.8-32.5c0.5-0.6,2.3-3.7,3.6-15.7c0.5-4.6,5-110.3,5.2-125.7c0.1-16.9,14.5-16.9,19.3-16.9h5c4.5,0,20.7,2.2,48,6.7
		c8,1.3,13.2,7.3,12.6,14.6c-0.8,9.4,0.7,16.2,3.7,17.4c1.2,0.5,2.5,1,3.9,1.5c8.5,3.2,19.2,7.1,22.4,14.7c1.3,3.3,1.2,7-0.3,10.2
		c-7.8,17.1-66.2,99.7-68.7,103.2l-0.3,0.4c-1.5,1.8-37.5,43.1-59.4,63c-74.4,67.4-144.6,110-170.6,118.7c-20.4,6.8-39.4,8-50.8,8.7
		l-3.2,0.2c-4.1,0.3-4.1,0.7-4.2,4.9c0,1.3-0.1,2.6-0.3,3.8c-0.7,3.8-1,10.5-1.3,16.9l-0.2,4C625.8,460.3,622,464,616.3,463.9
		L616.3,463.9z M607.6,451c2.1,0.9,6.1,2.6,8.4,2.8l0,0l0.2-3.9c0.3-6.8,0.7-13.8,1.5-18.2c0.1-0.8,0.2-1.6,0.2-2.5
		c0.2-4.4,0.5-13.7,13.6-14.6l3.2-0.2c10.9-0.7,29-1.9,48.2-8.2c19.8-6.6,86.7-43.8,167-116.6c20.8-18.8,55.7-58.8,58.4-61.9
		c3.3-4.7,60.3-85.4,67.6-101.3c0.4-0.6,0.5-1.4,0.2-2.2c-1.5-3.6-10.9-7.1-16.6-9.2c-1.5-0.5-2.8-1-4.1-1.5
		c-5.5-2.2-11.6-8.7-10.1-27.6c0.2-2.3-2-3.5-4.1-3.8c-25.6-4.1-42.5-6.5-46.4-6.5h-5c-7.4,0-9.2,1.3-9.2,6.9
		c-0.1,15.8-4.6,121.3-5.2,126.7c-1.2,11-3,17.5-5.8,20.9c-2.3,2.9-16.2,17.9-30.2,33l-4.8,5.2c-7.6,8.2-12.1,11.8-19.7,11.6
		c-1,0-3.2,0-6.1-0.1c-18.6-0.2-36.6-0.5-42.7-1.5c-11.2-1.8-10.6-13.2-9.6-28.9l0.6-10.8c0.4-9.2,0-15-1.1-17.6
		c-0.4-1-0.6-1.2-3.2-2s-14.6-2.8-24.3-4.3l-22.4-3.8c-1.2-0.3-2.5-0.4-3.8-0.4c-4.7,0-6.2,2.5-6.5,3.6c-1.2,3.5-8.3,25.6-9.6,29.8
		l-2.5,104.6c-0.3,20.9-9.9,23.7-13,24.6c-4.9,1.5-41.7,14.7-60.6,21.6c-6.7,2.9-14,4.4-21.3,4.4c-12.5-0.1-20-2.2-24.4-6.8
		c-3.2-3.3-4.7-7.7-4.5-13.5l1.4-42.3l6.4-205.9c0-17.9-7-17.9-10-17.9H557c-1.4,0.1-3.7,0.1-7,0.1c-17.9,0-62.4-0.9-79.5-1.6
		c-1,0-2.1-0.1-3.1-0.1c-12.5,0-20.9,3.4-24.9,10s-17.9,31.4-22.5,40.3l-0.8,1.6c-4.6,9-9.3,18.3-37.1,30.3
		c-8.9,3.8-16.2,5.6-23.2,5.6c-12.2,0-22.5-5.4-38-13.6l-16-8.2c-19-9.5-48.7-17.9-63.4-18c-13.9-0.1-76.2-1.8-89.6-2.2
		c-3.8,4.9-7.3,10-10.5,15.3c-3.8,6.7-9.4,7.7-12.3,7.7c-1.7,0-3.5-0.3-5.1-1l-0.5-0.2L82,155.3c-2.2-1.3-4.6-2-7.1-2.2
		c-1.9-0.1-3.6,0.9-4.4,2.6c-1.1,2-0.8,3-0.6,3.4c0.8,2.3,4.3,4.3,5.8,4.9c0.2,0.1,0.4,0.2,0.6,0.3l379.5,210.8l71.4,32.6L607.6,451
		z M578,88.7h-2.7v-2.9h8.7v2.9h-2.9v8.1H578V88.7z M590.2,85.8v11h-3.1v-8l-1.8,0.6l-0.7-2.6l3.1-1H590.2z M433.2,84.2h-2.7v-2.9
		h8.7v2.9h-2.9v8.1h-3.2v-8.1H433.2z M448.3,89.7v2.7h-8.2v-1.1c0-0.8,0.3-1.7,0.8-2.3c0.6-0.8,1.4-1.5,2.2-2l1-0.7
		c0.2-0.1,0.4-0.3,0.6-0.4c0.1-0.1,0.2-0.2,0.3-0.4c0.1-0.1,0.1-0.3,0.1-0.4c0-0.3-0.1-0.5-0.2-0.7c-0.2-0.2-0.4-0.3-0.7-0.2
		c-0.6,0-1,0.4-1,1.3h-3.1c-0.1-1.1,0.3-2.2,1.1-3.1c1.7-1.4,4.2-1.5,6-0.2c1,1,1.3,2.5,0.9,3.8c-0.1,0.4-0.3,0.7-0.5,1
		c-0.3,0.3-0.6,0.6-0.9,0.8l-1.2,0.9l-0.9,0.6c-0.2,0.2-0.5,0.3-0.7,0.5L448.3,89.7z M365.5,216.7h-2.7v-2.9h8.7v2.9h-2.9v8.1h-3.2
		v-8.1H365.5z M379,219.2c0.5,0.2,0.9,0.6,1.2,1c0.3,0.5,0.4,1,0.4,1.5c0,0.9-0.4,1.8-1.2,2.4c-0.4,0.3-0.8,0.5-1.3,0.7
		s-1.1,0.2-1.7,0.2c-1.1,0.1-2.2-0.3-3-1c-0.8-0.8-1.2-1.8-1.2-2.9h3c0,0.3,0.1,0.6,0.3,0.9c0.2,0.2,0.5,0.3,0.8,0.3
		s0.6-0.1,0.8-0.3c0.2-0.2,0.3-0.4,0.3-0.7s-0.1-0.5-0.3-0.7c-0.2-0.2-0.5-0.3-0.8-0.2h-1.1v-2.2h1c0.7,0,1.1-0.3,1.1-0.9
		c0-0.3-0.1-0.5-0.3-0.7c-0.2-0.2-0.5-0.3-0.8-0.2c-0.3,0-0.6,0.1-0.8,0.3c-0.2,0.2-0.3,0.5-0.3,0.8h-2.9c0-0.5,0.1-1.1,0.4-1.6
		c0.2-0.5,0.5-0.9,0.9-1.2s0.8-0.6,1.3-0.8c1.1-0.3,2.2-0.3,3.3,0c0.4,0.1,0.9,0.3,1.2,0.6c0.3,0.3,0.6,0.6,0.8,1
		c0.2,0.4,0.3,0.8,0.3,1.3C380.5,217.8,379.9,218.8,379,219.2L379,219.2z M263.8,129.9h-2.7V127h8.7v2.9h-2.9v8.1h-3.2v-8.1H263.8z
		 M278.8,136.4h-1.2v1.7h-3.1v-1.7h-4.9V134l4.6-6.9h3.4v6.8h1.2V136.4z M272.6,133.8h2.2v-3.5L272.6,133.8z M144.4,126.8h-2.7v-2.9
		h8.7v2.9h-2.9v8.1h-3.2L144.4,126.8L144.4,126.8z M156.5,127.6c0.5,0,1,0.1,1.4,0.3s0.8,0.4,1.1,0.8c0.3,0.3,0.6,0.7,0.7,1.2
		c0.2,0.5,0.3,1,0.3,1.5s-0.1,1.1-0.3,1.6s-0.5,0.9-0.9,1.2s-0.8,0.6-1.3,0.8c-0.6,0.2-1.2,0.3-1.8,0.3c-1.1,0.1-2.1-0.3-2.9-1
		c-0.8-0.7-1.2-1.7-1.2-2.8h3c0,0.3,0.2,0.5,0.4,0.7s0.5,0.3,0.7,0.3c0.3,0,0.6-0.1,0.9-0.4c0.2-0.3,0.3-0.6,0.3-0.9
		c0-0.3-0.1-0.6-0.3-0.9c-0.2-0.2-0.5-0.4-0.8-0.4c-0.2,0-0.4,0-0.6,0.1c-0.2,0.1-0.3,0.2-0.4,0.4H152v-6.5h7.6v2.7H155v1.4
		C155.3,127.7,155.9,127.6,156.5,127.6L156.5,127.6z M117,139.4h-2.7v-2.9h8.7v2.9h-2.9v8.1H117V139.4z"/>
	<g class="st2">
		<path class="st3" d="M458,195.7c-1.1,0.1-2.2-0.3-3-1s-1.2-1.8-1.2-2.8h1.5c0,0.7,0.3,1.4,0.8,1.9s1.2,0.7,1.9,0.7
			c0.7,0,1.4-0.2,1.9-0.6c0.5-0.4,0.7-1,0.7-1.6c0-0.4-0.1-0.9-0.4-1.2c-0.4-0.4-0.9-0.7-1.4-0.9l-1.8-0.7c-0.8-0.3-1.5-0.7-2.1-1.4
			c-0.4-0.6-0.7-1.3-0.6-2.1c0-0.9,0.4-1.7,1-2.3c0.4-0.3,0.8-0.5,1.2-0.6c0.5-0.2,1-0.2,1.5-0.2c1-0.1,2,0.3,2.8,0.9
			c0.7,0.7,1.1,1.6,1.1,2.5h-1.5c0-0.6-0.3-1.2-0.7-1.6c-0.5-0.4-1.1-0.6-1.7-0.6s-1.2,0.2-1.7,0.5c-0.4,0.3-0.7,0.8-0.6,1.4
			c0,0.5,0.1,1,0.4,1.3c0.4,0.4,0.9,0.7,1.4,0.9l1.8,0.7c0.8,0.3,1.5,0.7,2,1.3c0.4,0.6,0.7,1.3,0.6,2c0,0.5-0.1,1-0.3,1.4
			c-0.2,0.4-0.5,0.8-0.8,1.1c-0.4,0.3-0.8,0.5-1.3,0.7C459.1,195.7,458.6,195.7,458,195.7L458,195.7z M464.7,183.1h7.1v1.3h-5.7v4
			h5.5v1.3h-5.5v4.5h5.9v1.3h-7.4L464.7,183.1z M480.3,195.7c-0.9,0-1.7-0.2-2.5-0.5c-1.5-0.6-2.8-1.8-3.4-3.4
			c-0.7-1.6-0.7-3.5,0-5.1c0.6-1.5,1.8-2.8,3.4-3.4c0.8-0.3,1.7-0.5,2.5-0.5c0.7,0,1.5,0.1,2.2,0.3c0.6,0.2,1.3,0.5,1.8,0.9
			s1,0.9,1.3,1.5c0.4,0.6,0.6,1.2,0.7,1.9h-1.5c-0.1-0.5-0.3-1-0.6-1.4c-0.5-0.8-1.4-1.4-2.3-1.7c-1.2-0.4-2.4-0.3-3.5,0.1
			c-0.6,0.3-1.1,0.6-1.6,1.1c-0.4,0.5-0.8,1-1,1.6c-0.3,0.6-0.4,1.3-0.4,2s0.1,1.4,0.4,2c0.2,0.6,0.6,1.1,1,1.6s1,0.8,1.6,1.1
			s1.3,0.4,2,0.4c1,0,2-0.3,2.9-0.9c0.8-0.6,1.4-1.5,1.6-2.4h1.5c-0.1,0.7-0.4,1.3-0.7,1.9c-0.3,0.6-0.8,1.1-1.3,1.5
			s-1.2,0.7-1.8,0.9C481.7,195.6,481,195.7,480.3,195.7L480.3,195.7z M491.2,184.4h-3.7v-1.3h8.9v1.3h-3.8v11.1h-1.4V184.4z
			 M503.9,195.7c-0.9,0-1.7-0.2-2.5-0.5c-0.7-0.3-1.4-0.8-2-1.4c-0.6-0.6-1-1.3-1.4-2c-0.7-1.6-0.7-3.4,0-5.1
			c0.6-1.5,1.8-2.8,3.4-3.4c0.8-0.3,1.7-0.5,2.5-0.5c0.9,0,1.7,0.2,2.5,0.5c1.5,0.6,2.8,1.8,3.4,3.4c0.7,1.6,0.7,3.4,0,5.1
			c-0.3,0.7-0.8,1.4-1.3,2c-0.6,0.6-1.2,1-2,1.4C505.7,195.6,504.8,195.7,503.9,195.7L503.9,195.7z M503.9,194.4
			c0.7,0,1.3-0.1,2-0.4c1.2-0.5,2.1-1.5,2.6-2.7c0.2-0.6,0.4-1.3,0.4-2s-0.1-1.4-0.4-2c-0.2-0.6-0.6-1.1-1-1.6s-1-0.8-1.6-1.1
			c-1.3-0.5-2.7-0.5-3.9,0c-0.6,0.2-1.1,0.6-1.6,1.1c-0.4,0.5-0.8,1-1,1.6c-0.3,0.6-0.4,1.3-0.4,2s0.1,1.4,0.4,2
			C500.1,193.2,501.9,194.4,503.9,194.4L503.9,194.4z M513,183.1h3.8c1,0,2.1,0.3,2.9,1c0.7,0.7,1.1,1.7,1,2.6
			c0,0.8-0.2,1.7-0.7,2.3s-1.2,1.1-2,1.2l3.5,5.2h-1.7l-3.4-5.1h-2v5.1H513V183.1z M516.8,189.1c0.7,0,1.3-0.2,1.8-0.6
			c0.5-0.5,0.7-1.1,0.7-1.8c0-0.6-0.2-1.3-0.7-1.7s-1.2-0.7-1.8-0.6h-2.4v4.7L516.8,189.1z M531.8,183.1v12.4h-1.4v-10.9l-2.4,0.7
			l-0.3-1.3l2.9-1L531.8,183.1z"/>
		<path class="st3" d="M767.9,123.1c-1.1,0.1-2.2-0.3-3-1s-1.2-1.8-1.2-2.8h1.5c0,0.7,0.3,1.4,0.8,1.9s1.2,0.7,1.9,0.7
			s1.4-0.2,1.9-0.6s0.7-1,0.7-1.6c0-0.4-0.1-0.9-0.4-1.2c-0.4-0.4-0.9-0.7-1.4-0.9l-1.8-0.7c-0.8-0.3-1.5-0.7-2.1-1.4
			c-0.4-0.6-0.7-1.3-0.7-2.1c0-0.4,0.1-0.9,0.3-1.3s0.4-0.7,0.8-1c0.4-0.3,0.8-0.5,1.2-0.6c0.5-0.2,1-0.2,1.5-0.2
			c1-0.1,2,0.3,2.8,0.9c0.7,0.6,1.1,1.5,1.1,2.5h-1.5c0-0.6-0.3-1.2-0.7-1.6c-0.5-0.4-1.1-0.6-1.7-0.6c-0.6,0-1.2,0.1-1.7,0.5
			c-0.4,0.3-0.7,0.8-0.7,1.4c0,0.5,0.1,1,0.4,1.3c0.4,0.4,0.9,0.7,1.5,0.9l1.8,0.7c0.8,0.3,1.5,0.7,2,1.3c0.4,0.6,0.7,1.3,0.6,2
			c0,0.5-0.1,1-0.3,1.4s-0.5,0.8-0.8,1.1c-0.4,0.3-0.8,0.6-1.3,0.7C769,123.1,768.5,123.1,767.9,123.1L767.9,123.1z M774.6,110.5
			h7.2v1.3H776v4h5.5v1.2H776v4.5h6v1.3h-7.3L774.6,110.5z M790.2,123.1c-0.9,0-1.7-0.2-2.5-0.5c-1.5-0.6-2.8-1.8-3.4-3.4
			c-0.6-1.6-0.6-3.4,0-5.1c0.3-0.7,0.8-1.4,1.3-2c0.6-0.6,1.3-1,2-1.3c0.8-0.3,1.7-0.5,2.5-0.5c0.7,0,1.5,0.1,2.2,0.3
			c0.6,0.2,1.3,0.5,1.8,0.9c1.1,0.8,1.8,2,2.1,3.4h-1.5c-0.1-0.5-0.3-0.9-0.6-1.4c-0.3-0.4-0.6-0.8-1-1.1c-0.4-0.3-0.8-0.5-1.3-0.7
			s-1-0.2-1.6-0.2c-0.7,0-1.4,0.1-2,0.4c-0.6,0.2-1.1,0.6-1.6,1.1c-0.4,0.5-0.8,1-1,1.6c-0.5,1.3-0.5,2.7,0,4c0.2,0.6,0.6,1.1,1,1.6
			s1,0.8,1.6,1.1c0.6,0.3,1.3,0.4,2,0.4c1,0,2-0.3,2.9-0.9c0.8-0.6,1.4-1.5,1.6-2.4h1.5c-0.1,0.7-0.4,1.3-0.7,1.9s-0.8,1.1-1.3,1.5
			s-1.1,0.7-1.8,0.9C791.6,123,790.9,123.1,790.2,123.1L790.2,123.1z M801.1,111.8h-3.7v-1.3h8.9v1.3h-3.8v11.1h-1.4V111.8z
			 M813.8,123.1c-0.9,0-1.7-0.2-2.5-0.5c-0.7-0.3-1.4-0.8-2-1.4s-1-1.3-1.3-2c-0.7-1.6-0.7-3.4,0-5.1c0.3-0.7,0.8-1.4,1.3-2
			c0.6-0.6,1.3-1,2-1.3c1.6-0.7,3.4-0.7,5.1,0c0.7,0.3,1.4,0.8,2,1.3c0.6,0.6,1,1.3,1.3,2c0.7,1.6,0.7,3.4,0,5.1
			c-0.3,0.7-0.8,1.4-1.3,2c-0.6,0.6-1.2,1-2,1.4C815.5,122.9,814.7,123.1,813.8,123.1L813.8,123.1z M813.8,121.7
			c0.7,0,1.4-0.1,2-0.4c1.2-0.5,2.1-1.5,2.6-2.7c0.2-0.6,0.4-1.3,0.4-2s-0.1-1.4-0.4-2c-0.2-0.6-0.6-1.1-1-1.6s-1-0.8-1.5-1.1
			c-0.6-0.3-1.3-0.4-2-0.4s-1.3,0.1-2,0.4c-0.6,0.2-1.1,0.6-1.6,1.1c-0.4,0.5-0.8,1-1,1.6c-0.3,0.6-0.4,1.3-0.4,2s0.1,1.4,0.4,2
			c0.2,0.6,0.6,1.1,1,1.6s1,0.8,1.6,1.1C812.5,121.6,813.1,121.7,813.8,121.7L813.8,121.7z M822.9,110.5h3.8c1,0,2.1,0.3,2.9,1
			c0.7,0.7,1.1,1.7,1,2.7c0,0.8-0.2,1.7-0.7,2.3c-0.5,0.6-1.2,1.1-2,1.2l3.5,5.2h-1.7l-3.4-5.1h-2v5.1h-1.4L822.9,110.5z
			 M826.7,116.5c0.7,0,1.3-0.2,1.8-0.6c0.9-1,0.9-2.5,0-3.5c-0.5-0.4-1.2-0.6-1.8-0.6h-2.3v4.7H826.7z M844.2,116.3
			c0.6,0.2,1.1,0.6,1.5,1.2c0.4,0.5,0.5,1.2,0.5,1.8c0,0.5-0.1,1-0.3,1.5s-0.5,0.9-0.9,1.2c-0.4,0.3-0.8,0.6-1.3,0.8
			c-0.5,0.2-1.1,0.3-1.7,0.3c-0.6,0-1.1-0.1-1.6-0.3c-0.5-0.2-0.9-0.4-1.3-0.8c-0.4-0.3-0.6-0.8-0.8-1.2c-0.2-0.5-0.3-1.1-0.3-1.6
			h1.5c0,0.7,0.3,1.4,0.7,1.9c0.5,0.5,1.1,0.7,1.8,0.7c0.4,0,0.8-0.1,1.1-0.2s0.6-0.3,0.9-0.5c0.2-0.2,0.4-0.5,0.5-0.8
			s0.2-0.7,0.2-1c0-0.6-0.2-1.3-0.7-1.7c-0.6-0.4-1.3-0.7-2-0.6h-1.2v-1.3h1.3c0.6,0,1.2-0.2,1.7-0.5c0.4-0.4,0.6-1,0.6-1.5
			c0-0.6-0.2-1.1-0.6-1.5c-0.5-0.4-1.1-0.6-1.7-0.5c-0.6,0-1.2,0.2-1.7,0.6c-0.4,0.4-0.7,0.9-0.7,1.5h-1.4c0-0.5,0.1-0.9,0.3-1.4
			c0.2-0.4,0.5-0.8,0.8-1.1c0.4-0.3,0.8-0.5,1.2-0.7c0.5-0.2,1-0.3,1.5-0.3s1,0.1,1.5,0.2c0.4,0.1,0.8,0.4,1.2,0.7
			c0.3,0.3,0.6,0.6,0.8,1s0.3,0.9,0.3,1.3c0,0.6-0.1,1.1-0.4,1.6C845.1,115.6,844.7,116,844.2,116.3L844.2,116.3z"/>
		<path class="st3" d="M347.1,419.4c-1.1,0.1-2.2-0.3-3-1s-1.2-1.8-1.2-2.8h1.5c0,0.7,0.3,1.4,0.8,1.9s1.2,0.7,1.9,0.7
			c0.7,0,1.4-0.2,1.9-0.6s0.7-1,0.7-1.6c0-0.5-0.1-0.9-0.4-1.2c-0.4-0.4-0.9-0.7-1.4-0.9l-1.8-0.7c-0.8-0.3-1.5-0.7-2.1-1.4
			c-0.4-0.6-0.7-1.3-0.6-2.1c0-0.4,0.1-0.9,0.3-1.3c0.2-0.4,0.4-0.7,0.8-1s0.8-0.5,1.2-0.6c0.5-0.2,1-0.2,1.5-0.2
			c1-0.1,2,0.3,2.7,0.9s1.1,1.6,1.1,2.5h-1.5c0-0.6-0.3-1.2-0.7-1.6c-0.5-0.4-1.1-0.6-1.7-0.6s-1.2,0.2-1.7,0.5
			c-0.4,0.3-0.7,0.8-0.6,1.4c0,0.5,0.1,1,0.4,1.3c0.4,0.4,0.9,0.7,1.5,0.9l1.8,0.7c0.8,0.3,1.5,0.7,2,1.3c0.4,0.6,0.7,1.3,0.6,2
			c0,0.5-0.1,1-0.3,1.4c-0.2,0.4-0.5,0.8-0.8,1.1c-0.4,0.3-0.8,0.5-1.3,0.7C348.2,419.4,347.7,419.4,347.1,419.4L347.1,419.4z
			 M353.8,406.8h7.2v1.3h-5.7v4h5.5v1.3h-5.5v4.5h5.9v1.3h-7.4V406.8z M369.4,419.4c-0.9,0-1.7-0.2-2.6-0.5c-0.7-0.3-1.4-0.8-2-1.3
			c-0.6-0.6-1-1.3-1.4-2c-0.7-1.6-0.7-3.5,0-5.1c0.3-0.7,0.8-1.4,1.4-2s1.3-1,2-1.3c0.8-0.3,1.7-0.5,2.5-0.5c0.7,0,1.5,0.1,2.2,0.3
			c0.6,0.2,1.3,0.5,1.8,0.9s1,0.9,1.3,1.5c0.4,0.6,0.6,1.2,0.7,1.9h-1.5c-0.1-0.5-0.3-0.9-0.6-1.4c-0.3-0.4-0.6-0.7-1-1
			s-0.8-0.5-1.3-0.7c-1.8-0.6-3.8-0.1-5.1,1.2c-0.5,0.5-0.8,1-1,1.6c-0.3,0.6-0.4,1.3-0.4,2s0.1,1.4,0.4,2c0.2,0.6,0.6,1.1,1,1.6
			c0.9,0.9,2.2,1.5,3.5,1.5c1,0,2-0.3,2.9-0.9c0.8-0.6,1.4-1.5,1.6-2.4h1.5c-0.1,0.7-0.4,1.3-0.7,1.9c-0.3,0.6-0.8,1.1-1.3,1.5
			s-1.2,0.7-1.8,0.9C370.8,419.4,370.1,419.4,369.4,419.4L369.4,419.4z M380.4,408.1h-3.7v-1.3h8.9v1.3h-3.8v11.1h-1.4V408.1z
			 M393,419.4c-0.9,0-1.7-0.2-2.5-0.5c-0.7-0.3-1.4-0.8-2-1.4s-1-1.3-1.4-2c-0.6-1.6-0.6-3.4,0-5.1c0.3-0.7,0.8-1.4,1.4-2
			s1.3-1,2-1.3c1.6-0.7,3.4-0.7,5.1,0c0.7,0.3,1.4,0.8,2,1.3c0.6,0.6,1,1.3,1.4,2c0.7,1.6,0.7,3.4,0,5.1c-0.3,0.7-0.8,1.4-1.4,2
			s-1.3,1-2,1.4C394.7,419.2,393.9,419.4,393,419.4L393,419.4z M393,418c2,0,3.8-1.2,4.5-3.1c0.2-0.6,0.4-1.3,0.4-2s-0.1-1.4-0.4-2
			c-0.2-0.6-0.6-1.1-1-1.6s-1-0.8-1.5-1.1c-1.3-0.5-2.6-0.5-3.9,0c-0.6,0.2-1.1,0.6-1.6,1.1c-0.9,1-1.4,2.3-1.4,3.6
			c0,0.7,0.1,1.4,0.4,2C389.2,416.8,391,418,393,418L393,418z M402.1,406.8h3.9c1,0,2.1,0.3,2.9,1c0.7,0.7,1.1,1.7,1,2.6
			c0,0.8-0.2,1.7-0.7,2.3c-0.5,0.6-1.2,1.1-2,1.2l3.5,5.2H409l-3.4-5.1h-2v5.1h-1.4L402.1,406.8z M405.9,412.8
			c0.7,0,1.3-0.2,1.8-0.6c0.5-0.5,0.7-1.1,0.7-1.8c0-0.6-0.2-1.3-0.6-1.7c-0.5-0.4-1.2-0.7-1.9-0.6h-2.3v4.7H405.9z M425.4,417.9
			v1.3h-8.1v-0.7c0-0.6,0.1-1.2,0.3-1.7c0.2-0.5,0.5-0.9,0.8-1.3s0.7-0.7,1.1-1l1.1-0.8l1.4-0.9c0.3-0.2,0.6-0.5,0.9-0.8
			c0.2-0.2,0.4-0.5,0.5-0.8s0.2-0.7,0.2-1c0.1-0.7-0.2-1.3-0.7-1.8c-0.4-0.4-1-0.6-1.6-0.6c-0.7,0-1.3,0.2-1.8,0.7s-0.7,1.2-0.7,1.9
			h-1.5c0-0.6,0.1-1.1,0.3-1.6c0.2-0.5,0.4-0.9,0.8-1.2c0.3-0.3,0.8-0.6,1.2-0.8c0.5-0.2,1.1-0.3,1.6-0.3s1,0.1,1.5,0.2
			c0.4,0.2,0.9,0.4,1.2,0.7c0.3,0.3,0.6,0.7,0.8,1.2c0.2,0.5,0.3,1,0.3,1.5s-0.1,1-0.2,1.4c-0.2,0.4-0.4,0.8-0.7,1.1
			c-0.3,0.3-0.7,0.7-1.1,0.9l-1.4,0.9l-1.1,0.8c-0.3,0.2-0.6,0.5-0.9,0.8c-0.2,0.2-0.4,0.5-0.6,0.8s-0.3,0.7-0.3,1L425.4,417.9z"/>
	</g>
	<path class="st3" d="M616.1,384.2c-3.8,0-17.4-0.6-26.1-9.3c-5.3-5.2-7.7-12.4-7.3-21.3l7.5-230.5c0-0.6-0.6-15.6-29.2-17.5
		c-0.8-0.1-1.5-0.8-1.4-1.6c0.1-0.8,0.8-1.5,1.6-1.4c31.5,2,32,19.8,32,20.5l-7.5,230.6c-0.3,8,1.8,14.5,6.5,19.1
		c9.1,9.1,24.7,8.5,24.9,8.5c0.8,0,1.5,0.6,1.6,1.4s-0.6,1.5-1.4,1.6l0,0C617,384.2,616.7,384.2,616.1,384.2L616.1,384.2z"/>
	<path class="st4" d="M537.5,262.3L531,268l-0.3,4.3l6.5-5.7l5.7,6.5l0.3-4.3L537.5,262.3L537.5,262.3z"/>
	<path class="st5" d="M537.9,255l-6.5,5.7l-0.3,4.3l6.5-5.7l5.7,6.5l0.3-4.3L537.9,255L537.9,255z"/>
	<path class="st3" d="M538.4,247.7l-6.5,5.7l-0.3,4.3l6.5-5.7l5.7,6.5l0.2-4.3L538.4,247.7L538.4,247.7z"/>
	<path class="st6" d="M530.6,274.9l-0.2,4.3l6.5-5.7l5.7,6.5l0.2-4.3l-5.7-6.5L530.6,274.9z"/>
	<path class="st7" d="M530.2,281.7L530,286l6.5-5.7l5.7,6.5l0.3-4.3l-5.7-6.5L530.2,281.7L530.2,281.7z"/>
	<path class="st8" d="M550.4,303.8l-4.3-0.3l0.3-4.3l4.3,0.3L550.4,303.8z"/>
	<path class="st3" d="M550.8,299.6l-4.3-0.3l0.3-4.3l4.3,0.3L550.8,299.6z"/>
	<path class="st8" d="M551,295.2l-4.3-0.3l0.3-4.3l4.3,0.3L551,295.2z"/>
	<path class="st3" d="M546.2,303.6l-4.3-0.3l0.3-4.3l4.3,0.3L546.2,303.6z M546.7,295l-4.3-0.3l0.3-4.3l4.3,0.3L546.7,295z"/>
	<g>
		<path class="st8" d="M546.5,299.3l-4.3-0.3l0.3-4.3l4.3,0.3L546.5,299.3z"/>
		<path class="st8" d="M541.9,303.3l-4.3-0.3l0.3-4.3l4.3,0.3L541.9,303.3z"/>
	</g>
	<path class="st3" d="M542.2,299l-4.3-0.3l0.3-4.3l4.3,0.3L542.2,299z"/>
	<path class="st8" d="M542.4,294.7l-4.3-0.3l0.3-4.3l4.3,0.3L542.4,294.7z"/>
	<path class="st3" d="M537.6,303.1l-4.3-0.3l0.3-4.3l4.3,0.3L537.6,303.1z M538.2,294.4l-4.3-0.3l0.3-4.3l4.3,0.3L538.2,294.4z"/>
	<path class="st8" d="M537.9,298.8l-4.3-0.3l0.3-4.3l4.3,0.3L537.9,298.8z M533.4,303l-4.3-0.3l0.3-4.3l4.3,0.3L533.4,303z"/>
	<path class="st3" d="M533.7,298.6l-4.3-0.3l0.3-4.3l4.3,0.3L533.7,298.6z"/>
	<path class="st8" d="M533.9,294.3l-4.3-0.3l0.3-4.3l4.3,0.2L533.9,294.3z"/>
	
		<linearGradient id="SVGID_1_" gradientUnits="userSpaceOnUse" x1="214.6" y1="405.9" x2="602.2" y2="405.9" gradientTransform="matrix(1 0 0 1 0 -56)">
		<stop  offset="0" style="stop-color:#001A30;stop-opacity:0"/>
		<stop  offset="1" style="stop-color:#001A30"/>
	</linearGradient>
	<path class="st9" d="M596.5,457l-0.9-0.5l5.7-10.5l0.9,0.5L596.5,457z M594.8,456l-0.9-0.5l5.7-10.5l0.9,0.5L594.8,456z M593,455
		l-0.9-0.5l5.7-10.5l0.9,0.5L593,455z M591.3,454l-0.9-0.5l5.7-10.5l0.9,0.5L591.3,454z M589.5,453.1l-0.9-0.5l5.7-10.5l0.9,0.5
		L589.5,453.1z M587.7,452.1l-0.9-0.5l5.7-10.5l0.9,0.5L587.7,452.1z M586,451.1l-0.9-0.5l5.7-10.5l0.9,0.5L586,451.1z M584.2,450.2
		l-0.9-0.5l5.7-10.5l0.9,0.5L584.2,450.2z M582.5,449.2l-0.9-0.5l5.7-10.5l0.9,0.5L582.5,449.2z M580.7,448.2l-0.9-0.5l5.7-10.6
		l0.9,0.5L580.7,448.2z M579,447.2l-0.9-0.5l5.7-10.5l0.9,0.5L579,447.2z M577.2,446.2l-0.9-0.5l5.7-10.3l0.9,0.5L577.2,446.2z
		 M575.4,445.3l-0.9-0.5l5.7-10.5l0.9,0.5L575.4,445.3z M573.7,444.3l-0.9-0.5l5.7-10.5l0.9,0.5L573.7,444.3z M571.9,443.3l-0.9-0.5
		l5.7-10.5l0.9,0.5L571.9,443.3z M570.2,442.3l-0.9-0.5l5.7-10.2l0.9,0.5L570.2,442.3z M568.4,441.4l-0.9-0.5l5.7-10.5l0.9,0.5
		L568.4,441.4z M566.6,440.4l-0.9-0.5l5.7-10.5l0.9,0.5L566.6,440.4z M564.9,439.4L564,439l5.7-10.5l0.9,0.5L564.9,439.4z
		 M563.1,438.5l-0.9-0.5l5.7-10.6l0.9,0.5L563.1,438.5z M561.4,437.5l-0.9-0.5l5.7-10.5l0.9,0.5L561.4,437.5z M559.6,436.5l-0.9-0.5
		l5.7-10.1l0.9,0.5L559.6,436.5z M557.9,435.5L557,435l5.7-10.1l0.9,0.5L557.9,435.5z M556.1,434.5l-0.9-0.5l5.7-10.5l0.9,0.5
		L556.1,434.5z M554.3,433.6l-0.9-0.5l5.7-10.5l0.9,0.5L554.3,433.6z M552.6,432.6l-0.9-0.5l5.7-10.5l0.9,0.5L552.6,432.6z
		 M550.8,431.7l-0.9-0.5l5.7-10.5l0.9,0.5L550.8,431.7z M549.1,430.7l-0.9-0.5l5.7-10.5l0.9,0.5L549.1,430.7z M547.3,429.7l-0.9-0.5
		l5.7-10.5l0.9,0.5L547.3,429.7z M545.5,428.8l-0.9-0.5l5.7-10.5l0.9,0.5L545.5,428.8z M543.8,427.8l-0.9-0.5l5.7-10.5l0.9,0.5
		L543.8,427.8z M542,426.8l-0.9-0.5l5.7-10.6l0.9,0.5L542,426.8z M540.3,425.9l-0.9-0.5l5.7-10.5l0.9,0.5L540.3,425.9z M538.5,424.9
		l-0.9-0.5l5.7-10.5l0.9,0.5L538.5,424.9z M536.8,424l-0.9-0.5l5.7-10.5l0.9,0.5L536.8,424z M535,423l-0.9-0.5l5.7-10.5l0.9,0.5
		L535,423z M533.2,422l-0.9-0.5L538,411l0.9,0.5L533.2,422z M531.5,421.1l-0.9-0.5l5.7-10.5l0.9,0.5L531.5,421.1z M529.7,420.1
		l-0.9-0.5l5.7-10.5l0.9,0.5L529.7,420.1z M528,419.1l-0.9-0.5l5.7-10.5l0.9,0.5L528,419.1z M526.7,418.4l-0.9-0.4l4.8-11l0.9,0.4
		L526.7,418.4z M524.8,417.6l-0.9-0.4l4.8-11l0.9,0.4L524.8,417.6z M523,416.8l-0.9-0.4l4.8-11l0.9,0.4L523,416.8z M521.2,416
		l-0.9-0.4l4.8-11l0.9,0.4L521.2,416z M519.3,415.2l-0.9-0.4l4.8-11l0.9,0.4L519.3,415.2z M517.5,414.4l-0.9-0.4l4.8-11l0.9,0.4
		L517.5,414.4z M515.6,413.6l-0.9-0.4l4.8-11l0.9,0.4L515.6,413.6z M513.8,412.8l-0.9-0.4l4.8-11l0.9,0.4L513.8,412.8z M512,412
		l-0.9-0.4l4.8-11l0.9,0.4L512,412z M510.1,411.2l-0.9-0.4l4.8-11l0.9,0.4L510.1,411.2z M508.3,410.4l-0.9-0.4l4.8-11l0.9,0.4
		L508.3,410.4z M506.5,409.6l-0.9-0.4l4.8-11l0.9,0.4L506.5,409.6z M504.6,408.8l-0.9-0.4l4.8-11l0.9,0.4L504.6,408.8z M502.8,408
		l-0.9-0.4l4.8-11l0.9,0.4L502.8,408z M501,408l-0.9-0.4l4.8-11l0.9,0.4L501,408z M499.2,407.2l-0.9-0.4l4.8-11l0.9,0.4L499.2,407.2
		z M497.3,406.4l-0.9-0.4l4.8-11l0.9,0.4L497.3,406.4z M495.5,405.6l-0.9-0.4l4.8-11l0.9,0.4L495.5,405.6z M493.7,404.8l-0.9-0.4
		l4.8-11l0.9,0.4L493.7,404.8z M491.8,404l-0.9-0.4l4.8-11l0.9,0.4L491.8,404z M490,403.2l-0.9-0.4l4.8-11l0.9,0.4L490,403.2z
		 M488.1,402.4l-0.9-0.4l4.8-11l0.9,0.4L488.1,402.4z M486.3,401.6l-0.9-0.4l4.7-11l0.9,0.4L486.3,401.6z M484.5,400.8l-0.9-0.4
		l4.8-11l0.9,0.4L484.5,400.8z M482.6,400l-0.9-0.4l4.8-11l0.9,0.4L482.6,400z M480.8,399.2l-0.9-0.4l4.7-11l0.9,0.4L480.8,399.2z
		 M479,398.4l-1-0.4l4.8-11l0.9,0.4L479,398.4z M477.1,397.6l-0.9-0.4l4.8-11l0.9,0.4L477.1,397.6z M475.3,396.8l-0.9-0.4l4.7-11
		l0.9,0.4L475.3,396.8z M473.5,396l-0.9-0.4l4.8-11l0.9,0.4L473.5,396z M471.6,395.2l-0.9-0.4l4.8-11l0.9,0.4L471.6,395.2z
		 M469.8,394.4l-0.9-0.4l4.8-11l0.9,0.4L469.8,394.4z M468,393.6l-0.9-0.4l4.8-11l0.9,0.4L468,393.6z M466.1,392.8l-0.9-0.4l4.8-11
		l0.9,0.4L466.1,392.8z M464.3,392l-0.9-0.4l4.8-11l0.9,0.4L464.3,392z M462.4,391.2l-0.9-0.4l4.8-11l0.9,0.4L462.4,391.2z
		 M460.6,390.4l-0.9-0.4l4.8-11l0.9,0.4L460.6,390.4z M458.8,389.6l-0.9-0.4l4.8-11l0.9,0.4L458.8,389.6z M456.9,388.8l-0.9-0.4
		l4.8-11l0.9,0.4L456.9,388.8z M455.1,388l-1.5-0.7l4.4-7.9l1.2-2.7l0.3,0.1l0.4,0.1L455.1,388z M452.7,386.8l-0.9-0.5l5.9-10.5
		l0.9,0.5L452.7,386.8z M451,385.8l-0.9-0.5l5.9-10.4l0.9,0.5L451,385.8z M449.2,384.8l-0.9-0.5l5.9-10.5l0.9,0.5L449.2,384.8z
		 M447.5,383.8l-0.9-0.5l5.9-10.5l0.9,0.5L447.5,383.8z M445.8,382.8l-0.9-0.5l5.9-10.5l0.9,0.5L445.8,382.8z M444,381.8l-0.9-0.5
		L449,371l0.9,0.5L444,381.8z M442.3,380.8l-0.9-0.5l5.9-10.5l0.9,0.5L442.3,380.8z M440.5,379.8l-0.9-0.5l5.9-10.5l0.9,0.5
		L440.5,379.8z M438.8,378.8l-0.9-0.5l5.9-10.5l0.9,0.5L438.8,378.8z M437,377.8l-0.9-0.5l5.8-10.2l0.9,0.5L437,377.8z M435.3,376.8
		l-0.9-0.5l5.9-10.5l0.9,0.5L435.3,376.8z M433.5,375.8l-0.9-0.5l5.9-10.5l0.9,0.5L433.5,375.8z M431.8,374.8l-0.9-0.5l5.9-10.5
		l0.9,0.5L431.8,374.8z M430.1,373.8l-0.9-0.5l5.9-10.5l0.9,0.5L430.1,373.8z M428.3,372.8l-0.9-0.5l5.9-10.5l0.9,0.5L428.3,372.8z
		 M426.6,371.8l-0.9-0.5l5.9-10.5l0.9,0.5L426.6,371.8z M424.8,370.8l-0.9-0.5l5.9-10.5l0.9,0.5L424.8,370.8z M423.1,369.8l-0.9-0.5
		l5.9-10.5l0.9,0.5L423.1,369.8z M421.3,368.8l-0.9-0.5l5.9-10.5l0.9,0.5L421.3,368.8z M419.6,367.8l-0.9-0.5l5.9-10.5l0.9,0.5
		L419.6,367.8z M417.8,366.8H417l5.9-10.5l0.9,0.5L417.8,366.8z M416.1,365.8l-0.9-0.5l5.9-10.5l0.9,0.5L416.1,365.8z M414.4,364.8
		l-0.9-0.5l5.9-10.5l0.9,0.5L414.4,364.8z M412.6,363.8l-0.9-0.5l5.9-10.5l0.9,0.5L412.6,363.8z M410.9,362.8l-0.9-0.5l5.9-10.5
		l0.9,0.5L410.9,362.8z M409.1,361.8l-0.9-0.5l5.9-10.5l0.9,0.5L409.1,361.8z M407.4,360.8l-0.9-0.5l5.9-10.5l0.9,0.5L407.4,360.8z
		 M405.6,359.8l-0.9-0.5l5.9-10.5l0.9,0.5L405.6,359.8z M403.9,358.8l-0.9-0.5l5.9-10.5l0.9,0.5L403.9,358.8z M402.1,357.8l-0.9-0.5
		l5.9-10.5l0.9,0.5L402.1,357.8z M400.4,356.8l-0.9-0.5l5.9-10.5l0.9,0.5L400.4,356.8z M398.7,355.8l-0.9-0.5l5.9-10.5l0.9,0.5
		L398.7,355.8z M396.9,354.8l-0.9-0.5l5.9-10.5l0.9,0.5L396.9,354.8z M395.2,353.8l-0.9-0.5l5.9-10.5l0.9,0.5L395.2,353.8z
		 M393.4,352.8l-0.9-0.5l5.9-10.5l0.9,0.5L393.4,352.8z M391.7,351.8l-0.9-0.5l5.9-10.5l0.9,0.5L391.7,351.8z M389.9,350.8l-0.9-0.5
		l5.9-10.5l0.9,0.5L389.9,350.8z M388.2,349.8l-0.9-0.5l5.9-10.5l0.9,0.5L388.2,349.8z M386.4,348.8l-0.9-0.5l5.9-10.5l0.9,0.5
		L386.4,348.8z M384.7,347.8l-0.9-0.5l5.9-10.5l0.9,0.5L384.7,347.8z M383,346.8l-0.9-0.5l5.9-9.6l0.9,0.5L383,346.8z M381.2,345.8
		l-0.9-0.5l5.9-9.5l0.9,0.5L381.2,345.8z M379.5,344.8l-0.9-0.5l5.9-9.5l0.9,0.5L379.5,344.8z M377.7,343.8l-0.9-0.5l5.9-9.5
		l0.9,0.5L377.7,343.8z M376,343.8l-0.9-0.5L381,333l0.9,0.5L376,343.8z M374.3,342.8l-0.9-0.5l5.9-10.5l0.9,0.5L374.3,342.8z
		 M372.5,341.8l-0.9-0.5l5.9-10.5l0.9,0.5L372.5,341.8z M370.8,340.8l-0.9-0.5l5.9-10.5l0.9,0.5L370.8,340.8z M369,339.8l-0.9-0.5
		l5.9-10.4l0.9,0.5L369,339.8z M367.3,338.8l-0.9-0.5l5.9-10.5l0.9,0.5L367.3,338.8z M365.5,337.8l-0.9-0.5l5.9-10.5l0.9,0.5
		L365.5,337.8z M363.8,336.8l-0.9-0.5l5.9-10.5l0.9,0.5L363.8,336.8z M362,335.8l-0.9-0.5L367,325l0.9,0.5L362,335.8z M360.3,334.8
		l-0.9-0.5l5.9-10.5l0.9,0.5L360.3,334.8z M358.6,333.8l-0.9-0.5l5.9-10.5l0.9,0.5L358.6,333.8z M356.8,332.8l-0.9-0.5l5.9-10.5
		l0.9,0.5L356.8,332.8z M355.1,331.8l-0.9-0.5l5.8-10.2l0.9,0.5L355.1,331.8z M353.3,330.8l-0.9-0.5l5.9-10.5l0.9,0.5L353.3,330.8z
		 M351.6,329.8l-0.9-0.5l5.9-10.5l0.9,0.5L351.6,329.8z M349.8,328.8l-0.9-0.5l5.9-10.5l0.9,0.5L349.8,328.8z M348.1,327.8l-0.9-0.5
		l5.9-10.5l0.9,0.5L348.1,327.8z M346.3,326.8l-0.9-0.5l5.9-10.5l0.9,0.5L346.3,326.8z M344.6,325.8l-0.9-0.5l5.9-10.5l0.9,0.5
		L344.6,325.8z M342.9,324.8l-0.9-0.5l5.9-10.5l0.9,0.5L342.9,324.8z M341.1,323.8l-0.9-0.5l5.9-10.5l0.9,0.5L341.1,323.8z
		 M339.4,322.8l-0.9-0.5l5.9-10.5l0.9,0.5L339.4,322.8z M337.6,321.8l-0.9-0.5l5.9-10.5l0.9,0.5L337.6,321.8z M335.9,320.8H335
		l5.9-10.5l0.9,0.5L335.9,320.8z M334.1,319.8l-0.9-0.5l5.9-10.5l0.9,0.5L334.1,319.8z M332.4,318.8l-0.9-0.5l5.9-10.5l0.9,0.5
		L332.4,318.8z M330.6,317.8l-0.9-0.5l5.9-10.5l0.9,0.5L330.6,317.8z M328.9,316.8l-0.9-0.5l5.9-10.5l0.9,0.5L328.9,316.8z
		 M327.2,315.8l-0.9-0.5l5.9-10.5l0.9,0.5L327.2,315.8z M325.4,314.8l-0.9-0.5l5.9-10.5l0.9,0.5L325.4,314.8z M323.7,313.8l-0.9-0.5
		l5.9-10.5l0.9,0.5L323.7,313.8z M321.9,312.8l-0.9-0.5l5.9-10.5l0.9,0.5L321.9,312.8z M320.2,311.8l-0.9-0.5l5.9-10.5l0.9,0.5
		L320.2,311.8z M318.4,310.8l-0.9-0.5l5.9-10.5l0.9,0.5L318.4,310.8z M316.7,309.8l-0.9-0.5l5.9-10.5l0.9,0.5L316.7,309.8z
		 M314.9,308.8l-0.9-0.5l5.9-10.5l0.9,0.5L314.9,308.8z M313.2,307.8l-0.9-0.5l5.9-10.5l0.9,0.5L313.2,307.8z M311.5,306.8l-0.9-0.5
		l5.9-10.5l0.9,0.5L311.5,306.8z M309.7,305.8l-0.9-0.5l5.9-10.5l0.9,0.5L309.7,305.8z M308,304.8l-0.9-0.5l5.9-9.6l0.9,0.5
		L308,304.8z M306.2,303.8l-0.9-0.5l5.9-10.5l0.9,0.5L306.2,303.8z M304.5,302.8l-0.9-0.5l5.9-10.5l0.9,0.5L304.5,302.8z
		 M302.7,301.8l-0.9-0.5l5.9-10.5l0.9,0.5L302.7,301.8z M301,300.8l-0.9-0.5l5.9-9.3l0.9,0.5L301,300.8z M299.2,299.8l-0.9-0.5
		l5.9-9.5l0.9,0.5L299.2,299.8z M297.5,298.8l-0.9-0.5l5.9-9.5l0.9,0.5L297.5,298.8z M295.8,297.8l-0.9-0.5l5.8-9.5l0.9,0.5
		L295.8,297.8z M294,297.8l-0.9-0.5L299,287l0.9,0.5L294,297.8z M292.3,296.8l-0.9-0.5l5.9-10.5l0.9,0.5L292.3,296.8z M290.5,295.8
		l-0.9-0.5l5.9-10.5l0.9,0.5L290.5,295.8z M288.8,294.8l-0.9-0.5l5.9-10.5l0.9,0.5L288.8,294.8z M287,293.8l-0.9-0.5l5.9-10.4
		l0.9,0.5L287,293.8z M285.3,292.8l-0.9-0.5l5.9-10.5l0.9,0.5L285.3,292.8z M283.5,291.8l-0.9-0.5l5.9-10.5l0.9,0.5L283.5,291.8z
		 M281.8,290.8l-0.9-0.5l5.9-10.5l0.9,0.5L281.8,290.8z M280.1,289.8l-0.9-0.5L285,279l0.9,0.5L280.1,289.8z M278.3,288.8l-0.9-0.5
		l5.9-10.5l0.9,0.5L278.3,288.8z M276.6,287.8l-0.9-0.5l5.9-10.5l0.9,0.5L276.6,287.8z M274.8,286.8l-0.9-0.5l5.9-10.5l0.9,0.5
		L274.8,286.8z M273.1,285.8l-0.9-0.5l5.9-10.5l0.9,0.5L273.1,285.8z M271.3,284.8l-0.9-0.5l5.9-10.5l0.9,0.5L271.3,284.8z
		 M269.6,283.8l-0.9-0.5l5.9-10.5l0.9,0.5L269.6,283.8z M267.8,282.8l-0.9-0.5l5.9-10.5l0.9,0.5L267.8,282.8z M266.1,281.8l-0.9-0.5
		l5.9-10.5l0.9,0.5L266.1,281.8z M264.4,280.8l-0.9-0.5l5.9-10.5l0.9,0.5L264.4,280.8z M262.6,279.8l-0.9-0.5l5.9-10.5l0.9,0.5
		L262.6,279.8z M260.9,278.8l-0.9-0.5l5.9-10.5l0.9,0.5L260.9,278.8z M259.1,277.8l-0.9-0.5l5.9-10.5l0.9,0.5L259.1,277.8z
		 M257.4,276.8l-0.9-0.5l5.9-10.5l0.9,0.5L257.4,276.8z M255.6,275.8l-0.9-0.5l5.9-10.5l0.9,0.5L255.6,275.8z M253.9,274.8H253
		l5.9-10.5l0.9,0.5L253.9,274.8z M252.1,273.8l-0.9-0.5l5.9-10.5l0.9,0.5L252.1,273.8z M250.4,272.8l-0.9-0.5l5.9-10.5l0.9,0.5
		L250.4,272.8z M248.7,271.8l-0.9-0.5l5.9-10.5l0.9,0.5L248.7,271.8z M246.9,270.8l-0.9-0.5l5.9-10.5l0.9,0.5L246.9,270.8z
		 M245.2,269.8l-0.9-0.5l5.9-10.5l0.9,0.5L245.2,269.8z M243.4,268.8l-0.9-0.5l5.9-10.5l0.9,0.5L243.4,268.8z M241.7,267.8l-0.9-0.5
		l5.9-10.5l0.9,0.5L241.7,267.8z M239.9,266.8l-0.9-0.5l5.9-10.5l0.9,0.5L239.9,266.8z M238.2,265.8l-0.9-0.5l5.9-10.5l0.9,0.5
		L238.2,265.8z M236.4,264.8l-0.9-0.5l5.9-10.5l0.9,0.5L236.4,264.8z M234.7,263.8l-0.9-0.5l5.9-10.5l0.9,0.5L234.7,263.8z
		 M233,262.8l-0.9-0.5l5.9-10.5l0.9,0.5L233,262.8z M231.2,261.8l-0.9-0.5l5.9-10.5l0.9,0.5L231.2,261.8z M229.5,260.8l-0.9-0.5
		l5.9-10.5l0.9,0.5L229.5,260.8z M227.7,259.8l-0.9-0.5l5.9-10.5l0.9,0.5L227.7,259.8z M226,258.8l-0.9-0.5l5.9-9.6l0.9,0.5
		L226,258.8z M224.2,257.8l-0.9-0.5l5.9-10.5l0.9,0.5L224.2,257.8z M222.5,256.8l-0.9-0.5l5.9-10.5l0.9,0.5L222.5,256.8z
		 M220.7,255.8l-0.9-0.5l5.9-9.5l0.9,0.5L220.7,255.8z M219,254.8l-0.9-0.5l5.9-9.3l0.9,0.5L219,254.8z M217.3,253.8l-0.9-0.5
		l5.9-9.5l0.9,0.5L217.3,253.8z M215.5,252.8l-0.9-0.5l5.9-9.5l0.9,0.5L215.5,252.8z"/>
	<polygon class="st3" points="527.7,381.1 525.1,381.1 525.1,378.2 533.8,378.2 533.8,381.1 530.9,381.1 530.9,389.2 527.8,389.2 	
		"/>
	<polygon class="st3" points="539.9,378.2 539.9,389.2 536.8,389.2 536.8,381.2 535,381.8 534.3,379.2 537.4,378.2 	"/>
	<path class="st3" d="M549.7,383.9c-0.2-0.4-0.4-0.8-0.7-1.2c-0.6-0.7-1.4-1.1-2.3-1.3l2.1-3.3h-3.6l-2.5,3.7l-0.6,1
		c-0.2,0.3-0.3,0.5-0.4,0.8c-0.1,0.2-0.2,0.5-0.2,0.7s-0.1,0.5-0.1,0.7c0,1.1,0.4,2.2,1.2,3c0.4,0.4,0.8,0.7,1.3,0.9
		c0.5,0.2,1.1,0.3,1.7,0.3c0.6,0,1.1-0.1,1.7-0.3c0.5-0.2,1-0.5,1.3-0.9c0.4-0.4,0.7-0.8,0.9-1.3s0.3-1.1,0.3-1.6
		C549.9,384.9,549.8,384.4,549.7,383.9z M546.5,386.3c-0.2,0.2-0.6,0.4-0.9,0.4c-0.3,0-0.7-0.1-0.9-0.4s-0.4-0.6-0.3-0.9
		c0-0.3,0.1-0.7,0.3-0.9c0.2-0.2,0.6-0.4,0.9-0.4c0,0,0,0,0.1,0c0.7,0,1.2,0.6,1.2,1.3C546.9,385.7,546.8,386,546.5,386.3z"/>
	<polygon class="st3" points="610.6,472.1 607.9,472.1 607.9,469.2 616.6,469.2 616.6,472.1 613.7,472.1 613.7,480.2 610.6,480.2 	
		"/>
	<path class="st3" d="M626.5,474.9c-0.2-0.4-0.4-0.8-0.7-1.2c-0.6-0.7-1.4-1.1-2.3-1.3l2.1-3.3H622l-2.5,3.7l-0.6,1
		c-0.2,0.3-0.3,0.5-0.4,0.8c-0.1,0.2-0.2,0.5-0.2,0.7s-0.1,0.5-0.1,0.7c0,1.1,0.4,2.2,1.2,3c0.4,0.4,0.8,0.7,1.3,0.9
		c0.5,0.2,1.1,0.3,1.7,0.3c0.6,0,1.1-0.1,1.7-0.3c0.5-0.2,1-0.5,1.3-0.9c0.4-0.4,0.7-0.8,0.9-1.3s0.3-1.1,0.3-1.6
		C626.7,475.8,626.6,475.4,626.5,474.9z M623.3,477.3c-0.2,0.2-0.6,0.4-0.9,0.4c-0.3,0-0.7-0.1-0.9-0.4s-0.4-0.6-0.3-0.9
		c0-0.3,0.1-0.7,0.3-0.9c0.2-0.2,0.6-0.4,0.9-0.4c0,0,0,0,0.1,0c0.7,0,1.2,0.6,1.2,1.3C623.7,476.7,623.6,477,623.3,477.3z"/>
	<polygon class="st3" points="693.3,364 690.6,364 690.6,361.1 699.3,361.1 699.3,364 696.4,364 696.4,372.1 693.3,372.1 	"/>
	<polygon class="st3" points="705.4,361.1 705.4,372.1 702.3,372.1 702.3,364.1 700.5,364.7 699.8,362.1 702.9,361.1 	"/>
	<path class="st3" d="M712.3,364.8c0.5,0,1,0.1,1.4,0.3c0.4,0.2,0.8,0.4,1.1,0.8c0.3,0.3,0.6,0.7,0.7,1.2c0.4,1,0.4,2.1,0,3.1
		c-0.2,0.5-0.5,0.9-0.9,1.2c-0.4,0.3-0.9,0.6-1.3,0.8c-0.6,0.2-1.2,0.3-1.8,0.3c-1.1,0.1-2.1-0.3-2.9-1c-0.8-0.7-1.2-1.7-1.2-2.8h3
		c0,0.3,0.2,0.5,0.4,0.7s0.5,0.3,0.7,0.3c0.3,0,0.6-0.1,0.8-0.4c0.2-0.2,0.3-0.6,0.3-0.9s-0.1-0.6-0.3-0.9c-0.2-0.2-0.5-0.4-0.8-0.4
		c-0.2,0-0.4,0-0.6,0.1c-0.2,0.1-0.3,0.2-0.4,0.4h-2.9v-6.5h7.6v2.7h-4.6v1.4C711.1,364.9,711.7,364.8,712.3,364.8L712.3,364.8z"/>
	<polygon class="st3" points="31.1,141.4 28.5,141.4 28.5,138.6 37.2,138.6 37.2,141.4 34.3,141.4 34.3,149.6 31.1,149.6 	"/>
	<path class="st3" d="M43.2,142.3c0.5,0,1,0.1,1.4,0.3s0.8,0.4,1.1,0.8c0.3,0.3,0.6,0.7,0.7,1.2c0.4,1,0.4,2.1,0,3.1
		c-0.2,0.5-0.5,0.9-0.9,1.2s-0.9,0.6-1.3,0.8c-0.6,0.2-1.2,0.3-1.8,0.3c-1.1,0.1-2.1-0.3-2.9-1c-0.8-0.7-1.2-1.7-1.2-2.8h3
		c0,0.3,0.2,0.5,0.4,0.7s0.5,0.3,0.7,0.3c0.3,0,0.6-0.1,0.8-0.4c0.2-0.2,0.3-0.6,0.3-0.9c0-0.3-0.1-0.6-0.3-0.9
		c-0.2-0.2-0.5-0.4-0.8-0.4c-0.2,0-0.4,0-0.6,0.1c-0.2,0.1-0.3,0.2-0.4,0.4h-2.9v-6.5h7.6v2.7h-4.6v1.4
		C42.1,142.4,42.6,142.3,43.2,142.3L43.2,142.3z"/>
	<polygon class="st3" points="576.5,88.7 573.8,88.7 573.8,85.9 582.5,85.9 582.5,88.7 579.7,88.7 579.7,96.8 576.5,96.8 	"/>
	<polygon class="st3" points="588.6,85.9 588.6,96.9 585.5,96.9 585.5,88.9 583.7,89.4 583,86.8 586.1,85.8 	"/>
	<polygon class="st3" points="659.2,185.3 656.5,185.3 656.5,182.5 665.2,182.5 665.2,185.3 662.3,185.3 662.3,193.4 659.2,193.4 	
		"/>
	<polygon class="st3" points="671.3,182.5 671.3,193.4 668.2,193.4 668.2,185.4 666.3,186 665.7,183.4 668.8,182.4 	"/>
	<path class="st3" d="M680.9,189.3v-6.8h-3.4l-4.6,6.9v2.4h4.9v1.6h3.1v-1.6h1.2v-2.5L680.9,189.3L680.9,189.3z M678.1,189.2h-2.2
		l2.2-3.5V189.2z"/>
	<polygon class="st3" points="284.8,141.5 282.1,141.5 282.1,138.6 290.8,138.6 290.8,141.5 287.9,141.5 287.9,149.6 284.8,149.6 	
		"/>
	<path class="st3" d="M300,145.4v-6.8h-3.4l-4.6,6.9v2.4h4.9v1.6h3.1v-1.6h1.2v-2.5L300,145.4L300,145.4z M297.2,145.4H295l2.2-3.5
		V145.4z"/>
	<polygon class="st3" points="768.6,194.7 765.9,194.7 765.9,191.8 774.6,191.8 774.6,194.7 771.8,194.7 771.8,202.8 768.6,202.8 	
		"/>
	<polygon class="st3" points="780.8,191.8 780.8,202.8 777.7,202.8 777.7,194.8 775.9,195.4 775.2,192.7 778.3,191.8 	"/>
	<path class="st3" d="M789,197.2c0.5,0.2,0.9,0.6,1.2,1c0.3,0.5,0.4,1,0.4,1.5c0,0.9-0.4,1.8-1.2,2.4c-0.4,0.3-0.8,0.5-1.3,0.7
		s-1.1,0.2-1.7,0.2c-1.1,0.1-2.2-0.3-3-1c-0.8-0.8-1.2-1.8-1.2-2.9h3c0,0.3,0.1,0.6,0.3,0.9c0.2,0.2,0.5,0.3,0.8,0.3
		s0.6-0.1,0.8-0.3s0.3-0.4,0.3-0.7s-0.1-0.5-0.3-0.7s-0.5-0.3-0.8-0.2h-1.1v-2.2h1c0.7,0,1.1-0.3,1.1-0.9c0-0.3-0.1-0.5-0.3-0.7
		s-0.5-0.3-0.8-0.2c-0.3,0-0.6,0.1-0.8,0.3s-0.3,0.5-0.3,0.8h-2.9c0-0.5,0.1-1.1,0.4-1.6c0.2-0.5,0.5-0.9,0.8-1.2
		c0.4-0.3,0.8-0.6,1.3-0.8c1.1-0.3,2.2-0.3,3.3,0c0.4,0.1,0.9,0.4,1.2,0.6c0.3,0.3,0.6,0.6,0.8,1s0.3,0.8,0.3,1.3
		C790.5,195.8,789.9,196.8,789,197.2z"/>
	<polygon class="st3" points="407.3,198 404.6,198 404.6,195.1 413.3,195.1 413.3,198 410.5,198 410.5,206.1 407.3,206.1 	"/>
	<path class="st3" d="M421.8,200.5c0.5,0.2,0.9,0.6,1.2,1c0.3,0.5,0.4,1,0.4,1.5c0,0.9-0.4,1.8-1.2,2.4c-0.4,0.3-0.8,0.5-1.3,0.7
		s-1.1,0.2-1.7,0.2c-1.1,0.1-2.2-0.3-3-1c-0.8-0.8-1.2-1.8-1.2-2.9h3c0,0.3,0.1,0.6,0.3,0.9c0.2,0.2,0.5,0.3,0.8,0.3
		s0.6-0.1,0.8-0.3c0.2-0.2,0.3-0.4,0.3-0.7s-0.1-0.5-0.3-0.7c-0.2-0.2-0.5-0.3-0.8-0.2H418v-2.2h1c0.7,0,1.1-0.3,1.1-0.9
		c0-0.3-0.1-0.5-0.3-0.7c-0.2-0.2-0.5-0.3-0.8-0.2c-0.3,0-0.6,0.1-0.8,0.3c-0.2,0.2-0.3,0.5-0.3,0.8H415c0-0.5,0.1-1.1,0.4-1.6
		c0.2-0.5,0.5-0.9,0.8-1.2c0.4-0.3,0.8-0.6,1.3-0.8c1.1-0.3,2.2-0.3,3.3,0c0.4,0.1,0.9,0.4,1.2,0.6c0.3,0.3,0.6,0.6,0.8,1
		c0.2,0.4,0.3,0.8,0.3,1.3C423.3,199.1,422.7,200,421.8,200.5z"/>
	<polygon class="st3" points="725.8,279.4 723.1,279.4 723.1,276.6 731.8,276.6 731.8,279.4 729,279.4 729,287.6 725.8,287.6 	"/>
	<polygon class="st3" points="738,276.6 738,287.6 734.9,287.6 734.9,279.6 733.1,280.1 732.4,277.5 735.4,276.5 	"/>
	<path class="st3" d="M747.9,284.9v2.6h-8.2v-1.1c0-0.8,0.3-1.7,0.8-2.3c0.6-0.8,1.4-1.4,2.2-1.9l1-0.7c0.2-0.1,0.4-0.3,0.6-0.5
		c0.1-0.1,0.2-0.2,0.3-0.4c0.1-0.1,0.1-0.3,0.1-0.4c0-0.3-0.1-0.5-0.2-0.7c-0.2-0.2-0.4-0.3-0.7-0.2c-0.6,0-0.9,0.4-0.9,1.3h-3.1
		c-0.1-1.1,0.3-2.2,1.1-3.1c1.7-1.4,4.2-1.5,6-0.2c0.7,0.7,1.1,1.6,1,2.6c0,0.4-0.1,0.8-0.2,1.2c-0.1,0.4-0.3,0.7-0.6,1
		s-0.6,0.6-0.9,0.8l-1.2,0.9l-0.9,0.6c-0.3,0.2-0.5,0.3-0.7,0.5L747.9,284.9z"/>
	<polygon class="st3" points="808.2,243.3 805.5,243.3 805.5,240.4 814.2,240.4 814.2,243.3 811.3,243.3 811.3,251.4 808.2,251.4 	
		"/>
	<polygon class="st3" points="820.3,240.4 820.3,251.4 817.2,251.4 817.2,243.4 815.4,244 814.7,241.3 817.8,240.3 	"/>
	<polygon class="st3" points="827.1,240.4 827.1,251.4 823.9,251.4 823.9,243.4 822.1,244 821.4,241.3 824.5,240.3 	"/>
	<polygon class="st3" points="891.4,69.1 888.7,69.1 888.7,66.3 897.4,66.3 897.4,69.1 894.6,69.1 894.6,77.3 891.4,77.3 	"/>
	<polygon class="st3" points="903.6,66.3 903.6,77.3 900.5,77.3 900.5,69.3 898.7,69.8 898,67.2 901,66.3 	"/>
	<path class="st3" d="M916.5,69.5c-0.3-0.7-0.7-1.3-1.2-1.8s-1.2-0.9-1.9-1.2c-0.8-0.3-1.6-0.4-2.4-0.4c-0.8,0-1.6,0.1-2.4,0.4
		c-0.7,0.3-1.3,0.7-1.9,1.2c-0.5,0.5-0.9,1.1-1.2,1.8c-0.6,1.5-0.6,3.1,0,4.6c0.3,0.7,0.7,1.3,1.2,1.8s1.2,0.9,1.9,1.2
		c0.8,0.3,1.6,0.4,2.4,0.4c0.8,0,1.6-0.1,2.4-0.4c0.7-0.3,1.3-0.7,1.9-1.2c0.5-0.5,0.9-1.1,1.2-1.8c0.3-0.7,0.4-1.5,0.4-2.3
		C916.9,71,916.8,70.2,916.5,69.5z M913.5,72.9c-0.1,0.3-0.3,0.6-0.5,0.9s-0.5,0.5-0.8,0.6s-0.7,0.2-1.1,0.2l0,0l0,0l0,0
		c-0.4,0-0.7-0.1-1.1-0.2c-0.3-0.1-0.6-0.3-0.8-0.6c-0.2-0.3-0.4-0.6-0.6-0.9c-0.1-0.4-0.2-0.8-0.2-1.1c0-0.4,0.1-0.8,0.2-1.1
		c0.1-0.3,0.3-0.6,0.6-0.9c0.2-0.3,0.5-0.5,0.8-0.6s0.7-0.2,1.1-0.2c0.4,0,0.7,0.1,1.1,0.2c0.3,0.1,0.6,0.3,0.8,0.6
		c0.2,0.3,0.4,0.6,0.6,0.9c0.1,0.4,0.2,0.7,0.2,1.1C913.7,72.1,913.7,72.5,913.5,72.9z"/>
	<polygon class="st3" points="1007.6,105.6 1004.9,105.6 1004.9,102.7 1013.6,102.7 1013.6,105.6 1010.7,105.6 1010.7,113.7 
		1007.6,113.7 	"/>
	<path class="st3" d="M1021.6,103.7c-0.4-0.4-0.8-0.7-1.3-0.9c-0.5-0.2-1.1-0.3-1.7-0.3c-0.6,0-1.1,0.1-1.7,0.3
		c-1,0.4-1.8,1.2-2.3,2.2c-0.2,0.5-0.3,1.1-0.3,1.6s0.1,0.9,0.2,1.4c0.2,0.4,0.4,0.8,0.7,1.1c0.3,0.3,0.6,0.6,1,0.8
		c0.4,0.2,0.8,0.4,1.3,0.4l-2.1,3.3h3.6l2.5-3.7l0.6-1c0.2-0.3,0.3-0.5,0.4-0.8c0.1-0.2,0.2-0.5,0.2-0.7s0.1-0.5,0.1-0.7
		C1022.9,105.6,1022.4,104.5,1021.6,103.7z M1019.5,107.5c-0.2,0.2-0.6,0.4-0.9,0.4c0,0,0,0-0.1,0c-0.7,0-1.2-0.6-1.2-1.3
		c0-0.3,0.1-0.7,0.4-0.9c0.2-0.2,0.6-0.4,0.9-0.4c0.3,0,0.7,0.1,0.9,0.4c0.2,0.2,0.4,0.6,0.3,0.9
		C1019.9,106.9,1019.7,107.3,1019.5,107.5z"/>
	<polygon class="st3" points="691,426.5 688.3,426.5 688.3,423.7 697,423.7 697,426.5 694.2,426.5 694.2,434.7 691,434.7 	"/>
	<path class="st3" d="M705,428.9L705,428.9c0.9-0.5,1.4-1.4,1.3-2.4c0-0.4-0.1-0.9-0.3-1.3s-0.5-0.7-0.8-1c-0.4-0.3-0.8-0.5-1.3-0.6
		c-0.6-0.1-1.1-0.2-1.7-0.2c-0.6,0-1.1,0.1-1.7,0.2c-0.5,0.1-0.9,0.3-1.3,0.6c-0.3,0.3-0.6,0.6-0.8,1s-0.3,0.8-0.3,1.3
		s0.1,1,0.3,1.4s0.6,0.8,1,1c-0.5,0.2-0.9,0.6-1.1,1.1c-0.3,0.5-0.4,1-0.4,1.6c0,0.9,0.4,1.8,1.1,2.4c0.9,0.6,2,0.9,3.1,0.9
		c0.6,0,1.2-0.1,1.8-0.2c0.5-0.1,0.9-0.4,1.3-0.7c0.4-0.3,0.7-0.6,0.8-1c0.2-0.4,0.3-0.9,0.3-1.4C706.6,430.5,706,429.4,705,428.9z
		 M701.5,426.1c0.2-0.2,0.5-0.3,0.8-0.3s0.6,0.1,0.8,0.3c0.2,0.2,0.3,0.5,0.3,0.7c0,0.1,0,0.1,0,0.2c-0.1,0.6-0.6,1-1.2,1
		c-0.6-0.1-1-0.6-1-1.2C701.1,426.5,701.2,426.3,701.5,426.1z M703.1,432.3c-0.2,0.2-0.5,0.3-0.9,0.3l0,0c-0.3,0-0.6-0.1-0.8-0.3
		c-0.2-0.2-0.4-0.5-0.3-0.8c0-0.3,0.1-0.6,0.3-0.9c0.2-0.2,0.5-0.4,0.9-0.3c0.3,0,0.6,0.1,0.8,0.3c0.2,0.2,0.3,0.5,0.3,0.9
		C703.4,431.7,703.3,432,703.1,432.3z"/>
	<polygon class="st3" points="599.2,411.8 596.5,411.8 596.5,409 605.2,409 605.2,411.8 602.4,411.8 602.4,420 599.2,420 	"/>
	<polygon class="st3" points="613.9,409 613.9,411.6 609.9,420 606.6,420 610.7,411.8 606.1,411.8 606.1,409 	"/>
	<polygon class="st3" points="418.5,93.1 415.9,93.1 415.9,90.3 424.6,90.3 424.6,93.1 421.7,93.1 421.7,101.3 418.5,101.3 	"/>
	<path class="st3" d="M433.7,98.6v2.7h-8.2v-1.2c0-0.8,0.3-1.7,0.8-2.3c0.6-0.8,1.4-1.4,2.2-2l1-0.7c0.2-0.1,0.4-0.3,0.6-0.5
		c0.1-0.1,0.2-0.2,0.3-0.4c0.1-0.1,0.1-0.3,0.1-0.4c0-0.3-0.1-0.5-0.2-0.7c-0.2-0.2-0.4-0.2-0.7-0.2c-0.6,0-1,0.4-1,1.2h-3.1
		c-0.1-1.1,0.3-2.2,1.1-3.1c1.7-1.4,4.2-1.5,6-0.2c1,1,1.3,2.5,0.8,3.8c-0.1,0.4-0.3,0.7-0.5,1c-0.3,0.3-0.6,0.6-0.9,0.8l-1.2,0.9
		l-0.9,0.6c-0.3,0.2-0.5,0.3-0.7,0.5L433.7,98.6z"/>
</g>
<g id="Layer_4">
</g>
</svg>
