<svg xmlns="http://www.w3.org/2000/svg" viewBox="0 0 1062.67 537.87"><style><![CDATA[.I{fill:#fff}.J{opacity:.3}.K{fill:#010101}]]></style><g class="I"><path d="M536.23 109h-2.66v-2.85h8.7V109h-2.88v8.13h-3.16zm12.14-2.82v11h-3.1v-8l-1.8.56-.7-2.63 3.1-.94zM704.7 374H702v-2.86h8.7V374h-2.87v8.13h-3.17zm15.12 5.47v2.66h-8.2V381a3.75 3.75 0 0 1 .8-2.34 8.89 8.89 0 0 1 2.2-2l1-.65a6.9 6.9 0 0 0 .6-.46 1.45 1.45 0 0 0 .29-.37 1.14 1.14 0 0 0 .08-.43 1 1 0 0 0-.91-.96c-.63 0-.95.42-.95 1.25h-3.08a4.14 4.14 0 0 1 1.11-3.06 4.88 4.88 0 0 1 6-.17 3.3 3.3 0 0 1 1 2.61 3.36 3.36 0 0 1-.19 1.2 3.07 3.07 0 0 1-.55 1 5.55 5.55 0 0 1-.89.84l-1.25.86-.93.6a4.85 4.85 0 0 0-.71.53zm75.96 93.15h-2.66v-2.86h8.7v2.86h-2.88v8.12h-3.16zm13.48 2.5a2.94 2.94 0 0 1 1.24 1 2.73 2.73 0 0 1 .42 1.52 2.92 2.92 0 0 1-1.16 2.38 4 4 0 0 1-1.31.67 5.52 5.52 0 0 1-1.67.24 4.2 4.2 0 0 1-3-1 4.08 4.08 0 0 1-1.16-2.93h3a1.23 1.23 0 0 0 .31.86 1 1 0 0 0 .78.31 1.21 1.21 0 0 0 .82-.27.9.9 0 0 0 .31-.72.87.87 0 0 0-.3-.7 1.21 1.21 0 0 0-.83-.25h-1.1V474h1c.73 0 1.1-.3 1.1-.9a.85.85 0 0 0-.28-.67 1.15 1.15 0 0 0-.77-.25 1.08 1.08 0 0 0-.79.3 1.11 1.11 0 0 0-.32.8h-2.9a4.36 4.36 0 0 1 .36-1.57 3.32 3.32 0 0 1 .85-1.19 3.73 3.73 0 0 1 1.3-.75 5.55 5.55 0 0 1 3.26 0 3.59 3.59 0 0 1 1.23.64 2.8 2.8 0 0 1 .78 1 3 3 0 0 1 .28 1.29 2.49 2.49 0 0 1-1.44 2.43zM458.32 435.1h-2.66v-2.86h8.7v2.86h-2.87v8.12h-3.17zm15.02 6.47h-1.2v1.66H469v-1.66h-4.88v-2.4l4.6-6.92h3.4V439h1.2zm-6.2-2.57h2.2v-3.46zm3.66-73.37h-2.66v-2.85h8.7v2.85H474v8.13h-3.17zm12.12.83a3.67 3.67 0 0 1 1.42.27 3.27 3.27 0 0 1 1.12.76 3.68 3.68 0 0 1 .73 1.17 4.14 4.14 0 0 1 .26 1.48 3.83 3.83 0 0 1-.31 1.57 3.51 3.51 0 0 1-.86 1.22 4.07 4.07 0 0 1-1.35.77 5.37 5.37 0 0 1-1.76.27 4.22 4.22 0 0 1-2.94-1 3.74 3.74 0 0 1-1.17-2.76h3a1.19 1.19 0 0 0 .37.72 1.07 1.07 0 0 0 .74.27 1.09 1.09 0 0 0 .85-.35 1.25 1.25 0 0 0 .33-.9 1.21 1.21 0 0 0-.34-.88 1.12 1.12 0 0 0-.84-.35 1.16 1.16 0 0 0-.57.15 1.32 1.32 0 0 0-.44.41h-2.86v-6.5h7.56v2.66h-4.62v1.4a3.71 3.71 0 0 1 1.68-.37zm146.93-.83h-2.66v-2.85h8.7v2.85H633v8.13h-3.16zm11.35.44a3.67 3.67 0 0 1 1.27.43 3.83 3.83 0 0 1 1 .83 3.78 3.78 0 0 1 .67 1.15 3.92 3.92 0 0 1 .23 1.38 4 4 0 0 1-.33 1.62 4.14 4.14 0 0 1-2.26 2.17 4.26 4.26 0 0 1-1.68.32 4.38 4.38 0 0 1-1.66-.32 4.3 4.3 0 0 1-1.34-.89 4.37 4.37 0 0 1-.89-1.33 4.29 4.29 0 0 1-.32-1.65 4.2 4.2 0 0 1 .06-.72 6.38 6.38 0 0 1 .21-.73 7.52 7.52 0 0 1 .4-.81l.63-1 2.5-3.73h3.64zm-1.08 5.1a1.23 1.23 0 0 0 .9-.37 1.27 1.27 0 0 0 .36-.92 1.25 1.25 0 0 0-.37-.88 1.22 1.22 0 0 0-.9-.36 1.18 1.18 0 0 0-.88.36 1.25 1.25 0 0 0-.36.92 1.27 1.27 0 0 0 .36.92 1.18 1.18 0 0 0 .89.33zm-64.92-121.9h-2.66v-2.85h8.7v2.85h-2.87v8.13h-3.17zm14.72-2.85V249l-4 8.4h-3.38l4.1-8.2h-4.6v-2.8zm-124.4 16h-2.66v-2.86h8.7v2.86h-2.88v8.13h-3.16zm14 2.38a2.8 2.8 0 0 1 1.55 2.66 3.15 3.15 0 0 1-.29 1.36 2.85 2.85 0 0 1-.85 1 4.21 4.21 0 0 1-1.36.66 6.2 6.2 0 0 1-1.79.24 5 5 0 0 1-3.14-.88 2.9 2.9 0 0 1-1.14-2.42 3.07 3.07 0 0 1 .39-1.59 2.84 2.84 0 0 1 1.11-1.03 2.71 2.71 0 0 1-1-1 2.64 2.64 0 0 1-.34-1.36 2.69 2.69 0 0 1 1.11-2.25 4.08 4.08 0 0 1 1.29-.63 5.84 5.84 0 0 1 1.68-.22 6 6 0 0 1 1.69.22 4.08 4.08 0 0 1 1.29.63 2.82 2.82 0 0 1 .81 1 2.79 2.79 0 0 1 .29 1.27 2.74 2.74 0 0 1-.34 1.36 2.79 2.79 0 0 1-.96.98zm-2.74 3.64a1.17 1.17 0 0 0 .85-.31 1.05 1.05 0 0 0 .34-.82 1.12 1.12 0 0 0-1.18-1.17 1.13 1.13 0 0 0-1.2 1.19 1 1 0 0 0 .33.81 1.23 1.23 0 0 0 .86.3zm0-6.77a1.12 1.12 0 0 0-.78.28.93.93 0 0 0-.31.73 1 1 0 0 0 .3.77 1.09 1.09 0 0 0 1.86-.77 1 1 0 0 0-1.06-1.01zM209.2 274.33h-2.66v-2.85h8.7v2.85h-2.87v8.13h-3.17zm9.97 4.83a3.35 3.35 0 0 1-1.26-.42 3.91 3.91 0 0 1-1-.83 4 4 0 0 1-.67-1.15 4.16 4.16 0 0 1-.23-1.38 4 4 0 0 1 .33-1.62 4.29 4.29 0 0 1 .91-1.3 4.15 4.15 0 0 1 1.35-.88 4.52 4.52 0 0 1 1.68-.32 4.2 4.2 0 0 1 1.66.33 4.13 4.13 0 0 1 1.34.89 4.37 4.37 0 0 1 .89 1.33 4.12 4.12 0 0 1 .33 1.65 4.18 4.18 0 0 1-.07.72 3.61 3.61 0 0 1-.21.72 6.18 6.18 0 0 1-.4.83q-.26.43-.63 1l-2.5 3.74H217zm1.08-5.1a1.19 1.19 0 0 0-.9.37 1.25 1.25 0 0 0-.36.92 1.23 1.23 0 0 0 1.26 1.27 1.2 1.2 0 0 0 .89-.36 1.24 1.24 0 0 0 .35-.91 1.28 1.28 0 0 0-.35-.92 1.17 1.17 0 0 0-.89-.37zm-108.72-81.4h-2.66v-2.86h8.7v2.86h-2.87v8.12h-3.17zm12.14-2.87v11h-3.1v-8l-1.8.55-.7-2.62 3.08-.95zm7.5 11.2a6.49 6.49 0 0 1-2.37-.43 5.78 5.78 0 0 1-1.81-1.17 5.38 5.38 0 0 1-1.21-1.81 6.34 6.34 0 0 1 0-4.59 5.24 5.24 0 0 1 1.21-1.8 5.78 5.78 0 0 1 1.86-1.18 6.9 6.9 0 0 1 4.74 0 5.57 5.57 0 0 1 1.86 1.18 5.1 5.1 0 0 1 1.21 1.8 6.21 6.21 0 0 1 0 4.59 5.24 5.24 0 0 1-1.21 1.81 5.57 5.57 0 0 1-1.86 1.18 6.49 6.49 0 0 1-2.42.42zm0-2.86a2.65 2.65 0 0 0 1.07-.21 2.43 2.43 0 0 0 .85-.6 3 3 0 0 0 .55-.9 3.05 3.05 0 0 0 .2-1.15 2.93 2.93 0 0 0-.2-1.12 2.9 2.9 0 0 0-.56-.91 2.65 2.65 0 0 0-.85-.59 2.52 2.52 0 0 0-1.06-.22 2.58 2.58 0 0 0-1.08.22 2.55 2.55 0 0 0-.85.59 2.73 2.73 0 0 0-.56.91 2.94 2.94 0 0 0-.21 1.12 3.06 3.06 0 0 0 .21 1.15 2.68 2.68 0 0 0 .56.9 2.43 2.43 0 0 0 .85.6 2.74 2.74 0 0 0 1.1.22zM781 503.6c-29.52 0-58.53-4.95-86.66-9.75l-27.95-4.6c-45.5-6.9-90.5-12.65-133.72-17.07-24.38-2.5-49.37-3.82-73.53-5.1l-32-1.8c-7.15-.44-11.94-2.88-14.24-7.23s-1.6-9.6 2-15.66c17-28.4 38.07-46.24 64.52-54.56 17.82-5.6 35.15-5 55.68-2.38l81.46 10.92c11.7 1.53 24.16-2.15 34.2-10.1 10.33-8.17 17-19.87 18.2-32.08a52.09 52.09 0 0 0-7.25-33.33l-3.26-5.4-35.28-59.56a48 48 0 0 0-39.47-24.61c-16.7-.78-32 7-42.12 21.43s-21.3 28.92-39.4 37.06c-17 7.64-35.76 11.55-59 12.3l-149.57 5.5-64.83 2.52c-5.87.26-11.95.52-18 .52a42.87 42.87 0 0 1-6.74-.49 27.11 27.11 0 0 1-16.1-6.75c-5.57-4.47-9.36-11-11-18.78-.2-.44-.36-.82-.47-1.1l-1.7-4.43c-1.23-3.3-3.24-8.83-5.78-16.34-4.24-12.54-10.58-32.47-16.75-56.3a8.38 8.38 0 0 1-.32-2.16 16 16 0 0 1 5.6-12.38l4.9-3.72c1.93-1.57 4.16-3.2 6.64-4.84a126 126 0 0 1 13.95-8.66 186 186 0 0 1 21.11-9.41h.07l.18-.07.32-.1A314.27 314.27 0 0 1 241 154.21l6.24-1.84 300.3-87.9c4.7-1.4 14.9-1.43 20.05 8.36l42.3 58.27c11.2 14.47 22.6 30.32 34.9 48.46a15.86 15.86 0 0 1 .72 1.05 2.2 2.2 0 0 1 .18.28c8.6 12.72 17.82 26.8 29 44.3s20.3 36.4 29.15 54.7l14 28.2c3.56 6.9 6.9 13.9 10.15 20.76 9.2 19.44 17.88 37.8 32 53l64.2 67.25q8.75 9 17.47 18.08c3.35 3.48 7 6.84 10.93 10.4l6.05 5.6a6 6 0 0 1-2.5 10.16A283 283 0 0 1 790 503.43q-4.53.17-9 .16zm-357.4-51.2a10.7 10.7 0 0 0 4.27.89l31.86 1.8c24.3 1.3 49.44 2.63 74.1 5.15 43.42 4.44 88.6 10.2 134.3 17.15l28.17 4.6c30.4 5.2 61.85 10.55 93.26 9.43a273.58 273.58 0 0 0 52.81-6.93c-3.24-3-6.35-5.88-9.3-9q-8.72-9-17.45-18.07l-64.36-67.4c-15.44-16.58-24.93-36.66-34.12-56.07l-9.94-20.33c-4.92-9.42-9.62-19.13-14.16-28.53-8.7-18-17.7-36.6-28.47-53.47l-29-44.35a2.9 2.9 0 0 1-.19-.29l-.46-.67c-12.22-18-23.52-33.7-34.57-48l-.1-.15-42.62-58.72a6.11 6.11 0 0 1-.54-.88 5.07 5.07 0 0 0-6.23-2.57l-306.9 89.84a302.17 302.17 0 0 0-35.15 10.46l-.3.12a173.24 173.24 0 0 0-19.88 8.84 116 116 0 0 0-12.67 7.9l-.14.1c-2.22 1.47-4.18 2.9-5.84 4.25a1.56 1.56 0 0 1-.2.16q-2.43 1.83-4.85 3.67a5.2 5.2 0 0 0-1 2.23c10.7 41.3 22.37 72.3 24 76.2a6.11 6.11 0 0 1 .54 1.31v.16a2.59 2.59 0 0 1 .09.4c1.05 5.4 3.38 9.56 6.94 12.4l.2.17a15.48 15.48 0 0 0 8.64 3.89 5.71 5.71 0 0 1 1.1.07 32.51 32.51 0 0 0 5.29.41c5.8 0 11.74-.26 17.5-.5l6.05-.25 58.83-2.28 149.65-5.5c21.6-.68 38.9-4.26 54.43-11.24 15.35-6.9 25.08-19.54 34.5-33 12.3-17.57 32-27.5 52.5-26.54a60 60 0 0 1 49.34 30.66c11.37 19.93 23.44 39.94 35.12 59.3l3.26 5.4c7.53 12.48 10.45 25.8 8.92 40.75-1.58 15.42-9.85 30.1-22.7 40.27-12.56 9.94-28.3 14.53-43.2 12.6l-81.43-10.9c-19-2.44-34.82-3-50.56 1.9-23.84 7.5-42.2 23.16-57.8 49.28a10.65 10.65 0 0 0-1.54 3.87zM163.66 202.6zm0 0h0zm0 0h0zm0 0h0zm0 0h0zm1.23-1.12h0zm-3.65-4.76h0z"/><path d="M193.35 294.07a1.5 1.5 0 0 1-1.48-1.26l-10.17-63.74c-.48-1.14-1.62-4.85.84-10.55 5.68-13.16 29-33.9 107.64-58a1 1 0 0 1 .25-.06c6.32-1.46 251.68-71.3 254.17-72.02a1.4 1.4 0 0 1 .41-.06c.82 0 9.37 1.17 55.07 41.87a1.5 1.5 0 1 1-2 2.24c-41.14-36.64-51.48-40.65-53-41.07l-253.34 71.83a6.77 6.77 0 0 1-.68.16h0c-81.68 25-101.32 46-105.77 56.3-2.25 5.2-.85 8.15-.8 8.28a1.63 1.63 0 0 1 .16.56l10.18 63.8a1.5 1.5 0 0 1-1.25 1.72z"/></g><path d="M724.23 246.77a4.25 4.25 0 0 1-3-1.05 3.9 3.9 0 0 1-1.23-2.82h1.46a2.72 2.72 0 0 0 .83 1.88 2.68 2.68 0 0 0 1.93.71 3 3 0 0 0 1.94-.57 1.88 1.88 0 0 0 .72-1.56 1.77 1.77 0 0 0-.42-1.24 3.74 3.74 0 0 0-1.43-.86l-1.78-.7a4.75 4.75 0 0 1-2.09-1.37 3.26 3.26 0 0 1-.64-2.07 3 3 0 0 1 1.05-2.29 3.62 3.62 0 0 1 1.2-.64 4.7 4.7 0 0 1 1.54-.23 4 4 0 0 1 2.75.9 3.54 3.54 0 0 1 1.13 2.51h-1.46a2.27 2.27 0 0 0-.69-1.57 2.46 2.46 0 0 0-1.73-.57 2.64 2.64 0 0 0-1.69.51 1.61 1.61 0 0 0-.65 1.35 2 2 0 0 0 .44 1.33 3.69 3.69 0 0 0 1.44.92l1.83.7a4.66 4.66 0 0 1 2 1.3 3 3 0 0 1 .62 2 3.52 3.52 0 0 1-.28 1.44 3.17 3.17 0 0 1-.82 1.1 3.8 3.8 0 0 1-1.29.69 5.63 5.63 0 0 1-1.68.19zm6.7-12.6h7.15v1.3h-5.7v4h5.53v1.3h-5.53v4.52h5.9v1.3h-7.35zm15.56 12.6a6.66 6.66 0 0 1-2.55-.49 6.44 6.44 0 0 1-2-1.35 6 6 0 0 1-1.34-2 6.83 6.83 0 0 1 0-5.08 6.14 6.14 0 0 1 1.34-2 6.37 6.37 0 0 1 2-1.35 6.71 6.71 0 0 1 2.54-.48 7 7 0 0 1 2.18.33 5.82 5.82 0 0 1 1.8.94 5.57 5.57 0 0 1 2 3.37H751a4.2 4.2 0 0 0-.61-1.36 3.74 3.74 0 0 0-1-1 4.5 4.5 0 0 0-1.31-.67 5.25 5.25 0 0 0-1.56-.23 4.85 4.85 0 0 0-1.95.39 4.76 4.76 0 0 0-1.57 1.07 5 5 0 0 0-1 1.6 5.45 5.45 0 0 0 0 4 4.86 4.86 0 0 0 1 1.6 4.61 4.61 0 0 0 1.57 1.07 4.85 4.85 0 0 0 1.95.39 4.68 4.68 0 0 0 2.86-.89 4.31 4.31 0 0 0 1.6-2.43h1.55a5.52 5.52 0 0 1-.74 1.92 5.28 5.28 0 0 1-1.31 1.47 5.82 5.82 0 0 1-1.8.94 6.73 6.73 0 0 1-2.17.24zm10.96-11.3h-3.66v-1.3h8.88v1.3h-3.78v11.1h-1.44zm12.67 11.3a6.64 6.64 0 0 1-2.54-.49 6.3 6.3 0 0 1-3.39-3.39 6.8 6.8 0 0 1 0-5.07 6.17 6.17 0 0 1 1.35-2 6.33 6.33 0 0 1 2-1.35 6.73 6.73 0 0 1 2.55-.48 6.59 6.59 0 0 1 2.53.48 6.33 6.33 0 0 1 2 1.35 6.14 6.14 0 0 1 1.34 2 6.8 6.8 0 0 1 0 5.07 6.18 6.18 0 0 1-3.37 3.39 6.59 6.59 0 0 1-2.47.49zm0-1.35a4.85 4.85 0 0 0 2-.39 4.71 4.71 0 0 0 1.57-1.07 4.88 4.88 0 0 0 1-1.61 5.54 5.54 0 0 0 .37-2 5.26 5.26 0 0 0-.38-2 5.12 5.12 0 0 0-1-1.6 4.55 4.55 0 0 0-1.56-1.06 5 5 0 0 0-2-.38 5.11 5.11 0 0 0-2 .38 4.41 4.41 0 0 0-1.55 1.06 5 5 0 0 0-1 1.6 5.26 5.26 0 0 0-.38 2 5.54 5.54 0 0 0 .37 2 4.75 4.75 0 0 0 1 1.61 4.57 4.57 0 0 0 1.56 1.07 4.93 4.93 0 0 0 2 .39zm9.1-11.26h3.85a4 4 0 0 1 2.87 1 3.43 3.43 0 0 1 1 2.64 3.63 3.63 0 0 1-.73 2.33 3.53 3.53 0 0 1-2 1.25l3.53 5.2h-1.72l-3.37-5.08h-2v5.08h-1.44zm3.76 6a2.6 2.6 0 0 0 1.83-.62 2.26 2.26 0 0 0 .66-1.74 2.22 2.22 0 0 0-.65-1.71 2.56 2.56 0 0 0-1.84-.61h-2.34v4.68zm15.08-6v12.4h-1.44v-10.93l-2.36.74-.35-1.25 2.9-1z" opacity=".5" class="I"/><path d="M566.57 519.3a4.26 4.26 0 0 1-3-1 3.92 3.92 0 0 1-1.23-2.83h1.46a2.74 2.74 0 0 0 .83 1.88 2.68 2.68 0 0 0 1.93.72 3 3 0 0 0 1.94-.57 1.89 1.89 0 0 0 .72-1.57 1.77 1.77 0 0 0-.42-1.23 3.77 3.77 0 0 0-1.42-.87l-1.8-.68a4.84 4.84 0 0 1-2.09-1.37 3.27 3.27 0 0 1-.64-2.08 3 3 0 0 1 .28-1.29 2.8 2.8 0 0 1 .77-1 3.63 3.63 0 0 1 1.2-.65 5 5 0 0 1 1.55-.23 3.93 3.93 0 0 1 2.74.91 3.52 3.52 0 0 1 1.13 2.5h-1.46a2.27 2.27 0 0 0-.69-1.56 2.4 2.4 0 0 0-1.72-.58 2.67 2.67 0 0 0-1.7.51 1.64 1.64 0 0 0-.64 1.36 2 2 0 0 0 .43 1.32 3.55 3.55 0 0 0 1.45.92l1.82.7a4.7 4.7 0 0 1 2 1.3 3 3 0 0 1 .61 2 3.56 3.56 0 0 1-.28 1.44 3 3 0 0 1-.82 1.09 3.8 3.8 0 0 1-1.29.69 5.63 5.63 0 0 1-1.67.17zm6.7-12.6h7.15v1.3h-5.7v4h5.53v1.3h-5.53v4.5h5.92v1.3h-7.36zm15.58 12.6a6.49 6.49 0 0 1-2.56-.49 6.1 6.1 0 0 1-2-1.34 6.17 6.17 0 0 1-1.35-2 6.85 6.85 0 0 1 0-5.09 6.12 6.12 0 0 1 1.35-2 6.33 6.33 0 0 1 2-1.35 6.73 6.73 0 0 1 2.55-.49 7 7 0 0 1 2.17.33 6.15 6.15 0 0 1 1.8.94 5.8 5.8 0 0 1 1.32 1.47 5.58 5.58 0 0 1 .73 1.91h-1.55a4.46 4.46 0 0 0-.6-1.37 4.25 4.25 0 0 0-2.3-1.7 4.91 4.91 0 0 0-1.56-.23 4.82 4.82 0 0 0-4.56 3.06 5.22 5.22 0 0 0-.38 2 5.33 5.33 0 0 0 .38 2 5 5 0 0 0 1 1.6 4.88 4.88 0 0 0 3.52 1.46 4.62 4.62 0 0 0 2.86-.9 4.26 4.26 0 0 0 1.6-2.42h1.55a5.71 5.71 0 0 1-.73 1.92 5.64 5.64 0 0 1-1.32 1.47 5.71 5.71 0 0 1-1.8.94 7 7 0 0 1-2.12.28zM599.8 508h-3.67v-1.3H605v1.3h-3.78v11.1h-1.43zm12.67 11.3a6.46 6.46 0 0 1-2.54-.49 6 6 0 0 1-2-1.35 6.34 6.34 0 0 1-1.36-2 6.8 6.8 0 0 1 0-5.07 6.2 6.2 0 0 1 3.38-3.37 6.73 6.73 0 0 1 2.55-.49 6.59 6.59 0 0 1 2.5.47 6.2 6.2 0 0 1 3.38 3.37 6.93 6.93 0 0 1 0 5.07 6.48 6.48 0 0 1-1.35 2 6 6 0 0 1-2 1.35 6.41 6.41 0 0 1-2.56.51zm0-1.34a4.85 4.85 0 0 0 1.95-.39 4.76 4.76 0 0 0 2.6-2.68 5.37 5.37 0 0 0 .37-2 5.22 5.22 0 0 0-.38-2 4.84 4.84 0 0 0-1-1.6 4.55 4.55 0 0 0-1.56-1.06 4.85 4.85 0 0 0-1.95-.38 4.93 4.93 0 0 0-2 .38 4.41 4.41 0 0 0-1.55 1.06 5 5 0 0 0-1 1.6 5.22 5.22 0 0 0-.37 2 5.37 5.37 0 0 0 .37 2 4.78 4.78 0 0 0 2.59 2.68 4.93 4.93 0 0 0 1.93.43zm9.1-11.26h3.86a4.06 4.06 0 0 1 2.86 1 3.43 3.43 0 0 1 1 2.65 3.7 3.7 0 0 1-.72 2.33 3.55 3.55 0 0 1-2 1.24l3.52 5.22h-1.72L625 514h-2v5.1h-1.44zm3.76 6a2.58 2.58 0 0 0 1.83-.62 2.63 2.63 0 0 0 0-3.46 2.63 2.63 0 0 0-1.85-.61H623v4.7zm19.52 5.1v1.3h-8.07v-.74a4.33 4.33 0 0 1 .32-1.7 5.4 5.4 0 0 1 .82-1.33 6.17 6.17 0 0 1 1.1-1l1.13-.77 1.38-.86a5.6 5.6 0 0 0 .94-.73 2.42 2.42 0 0 0 .52-.78 2.57 2.57 0 0 0 .17-1 2.25 2.25 0 0 0-.67-1.79 2.28 2.28 0 0 0-1.6-.59 2.31 2.31 0 0 0-1.78.71 2.58 2.58 0 0 0-.67 1.87H637a4.35 4.35 0 0 1 .29-1.61 3.65 3.65 0 0 1 .79-1.25 3.43 3.43 0 0 1 1.23-.79 4.3 4.3 0 0 1 1.6-.28 4.72 4.72 0 0 1 1.53.25 3.22 3.22 0 0 1 2 1.89 4 4 0 0 1 .28 1.53 3.59 3.59 0 0 1-.25 1.41 3.47 3.47 0 0 1-.71 1.09 6.65 6.65 0 0 1-1.09.91l-1.36.88-1.15.78a6.75 6.75 0 0 0-.88.75 4.52 4.52 0 0 0-.6.82 3.29 3.29 0 0 0-.32 1z" opacity=".5" class="I"/><path d="M276.66 265.1a4.29 4.29 0 0 1-3-1 3.94 3.94 0 0 1-1.23-2.83h1.46a2.72 2.72 0 0 0 .83 1.88 2.68 2.68 0 0 0 1.93.72 3 3 0 0 0 1.94-.57 1.91 1.91 0 0 0 .72-1.57 1.77 1.77 0 0 0-.42-1.24 3.87 3.87 0 0 0-1.43-.86l-1.78-.68a4.76 4.76 0 0 1-2.09-1.38 3.24 3.24 0 0 1-.64-2.07 3 3 0 0 1 .27-1.29 3.08 3.08 0 0 1 .78-1 3.62 3.62 0 0 1 1.2-.64 5 5 0 0 1 1.55-.23 4 4 0 0 1 2.74.9 3.54 3.54 0 0 1 1.13 2.51h-1.46a2.27 2.27 0 0 0-.69-1.57 2.45 2.45 0 0 0-1.72-.57 2.65 2.65 0 0 0-1.7.51 1.64 1.64 0 0 0-.65 1.35 2 2 0 0 0 .44 1.33 3.69 3.69 0 0 0 1.44.92l1.83.7a4.76 4.76 0 0 1 2 1.3 3 3 0 0 1 .61 2 3.52 3.52 0 0 1-.28 1.44 3.08 3.08 0 0 1-.82 1.1 3.8 3.8 0 0 1-1.29.69 5.63 5.63 0 0 1-1.67.15zm6.7-12.6h7.15v1.3h-5.7v4h5.53v1.3h-5.53v4.52h5.92v1.3h-7.36zM299 265.1a6.49 6.49 0 0 1-2.56-.49 6.12 6.12 0 0 1-2-1.35 6 6 0 0 1-1.35-2 6.85 6.85 0 0 1 0-5.09 6 6 0 0 1 1.35-2 6.14 6.14 0 0 1 2-1.34 6.55 6.55 0 0 1 2.55-.49 7 7 0 0 1 2.17.33 5.82 5.82 0 0 1 1.8.94 5.64 5.64 0 0 1 1.32 1.47 5.53 5.53 0 0 1 .73 1.9h-1.55a4.51 4.51 0 0 0-.6-1.36 4.08 4.08 0 0 0-1-1 4.5 4.5 0 0 0-1.31-.67 5.25 5.25 0 0 0-1.56-.23 4.85 4.85 0 0 0-1.99.27 5 5 0 0 0-2.57 2.67 5.45 5.45 0 0 0 0 4 4.82 4.82 0 0 0 4.56 3.06 4.62 4.62 0 0 0 2.86-.89 4.29 4.29 0 0 0 1.6-2.42H305a5.57 5.57 0 0 1-2.05 3.39 6 6 0 0 1-1.8.94 7 7 0 0 1-2.15.36zm10.9-11.3h-3.66v-1.3h8.88v1.3h-3.78v11.1h-1.44zm12.66 11.3a6.46 6.46 0 0 1-2.54-.49 6.22 6.22 0 0 1-3.39-3.39 6.8 6.8 0 0 1 0-5.07 6.33 6.33 0 0 1 1.35-2 6.14 6.14 0 0 1 2-1.34 6.55 6.55 0 0 1 2.55-.49 6.41 6.41 0 0 1 2.53.49 6.06 6.06 0 0 1 3.37 3.37 6.8 6.8 0 0 1 0 5.07 6.1 6.1 0 0 1-3.37 3.39 6.41 6.41 0 0 1-2.5.46zm0-1.35a5 5 0 0 0 1.95-.38 4.73 4.73 0 0 0 2.6-2.69 5.32 5.32 0 0 0 .37-2 5.21 5.21 0 0 0-1.41-3.6 4.69 4.69 0 0 0-1.56-1.06 5 5 0 0 0-1.95-.38 5.11 5.11 0 0 0-2 .38 4.55 4.55 0 0 0-1.55 1.06 5.09 5.09 0 0 0-1.41 3.6 5.52 5.52 0 0 0 .36 2 4.8 4.8 0 0 0 1 1.62 4.87 4.87 0 0 0 1.56 1.07 5.11 5.11 0 0 0 2.04.38zm9.1-11.25h3.85a4 4 0 0 1 2.87 1 3.44 3.44 0 0 1 1 2.64 3.65 3.65 0 0 1-.73 2.34 3.52 3.52 0 0 1-2 1.24l3.52 5.22h-1.72l-3.37-5.1h-2v5.1h-1.44zm3.76 6a2.55 2.55 0 0 0 1.83-.62 2.26 2.26 0 0 0 .66-1.74 2.23 2.23 0 0 0-.64-1.71 2.6 2.6 0 0 0-1.85-.61h-2.34v4.68zm17.58-.14a3.14 3.14 0 0 1 1.44 1.15 3.26 3.26 0 0 1 .51 1.84 3.54 3.54 0 0 1-1.18 2.69 4.12 4.12 0 0 1-1.32.78 4.72 4.72 0 0 1-1.67.29 4.67 4.67 0 0 1-1.62-.27 3.51 3.51 0 0 1-1.26-.77 3.58 3.58 0 0 1-.82-1.24 4.64 4.64 0 0 1-.33-1.63h1.45a2.66 2.66 0 0 0 .73 1.86 2.43 2.43 0 0 0 1.82.7 3.48 3.48 0 0 0 1.1-.17 2.58 2.58 0 0 0 .86-.49 2.09 2.09 0 0 0 .55-.76 2.37 2.37 0 0 0 .2-1 2.11 2.11 0 0 0-.72-1.7 3.05 3.05 0 0 0-2-.61h-1.24v-1.3h1.22a2.52 2.52 0 0 0 1.71-.53 2 2 0 0 0 .59-1.55 1.91 1.91 0 0 0-.59-1.5 2.35 2.35 0 0 0-1.65-.55 2.49 2.49 0 0 0-1.72.58 2 2 0 0 0-.7 1.51h-1.44a3.42 3.42 0 0 1 .34-1.38 3.36 3.36 0 0 1 .82-1.08 3.88 3.88 0 0 1 1.22-.71 4.24 4.24 0 0 1 1.53-.26 4.51 4.51 0 0 1 1.51.24 3.31 3.31 0 0 1 1.16.67 3.06 3.06 0 0 1 .75 1 3.34 3.34 0 0 1 .27 1.36 3.18 3.18 0 0 1-.4 1.63 3 3 0 0 1-1.12 1.19z" opacity=".5" class="I"/><path d="M122.35 145.93h2.7a2.87 2.87 0 0 1 2 .68 2.44 2.44 0 0 1 .74 1.87 2.52 2.52 0 0 1-.52 1.64 2.46 2.46 0 0 1-1.42.88l2.48 3.68h-1.2l-2.38-3.6h-1.42v3.6h-1zm2.65 4.23a1.81 1.81 0 0 0 1.28-.44 1.57 1.57 0 0 0 .47-1.23 1.6 1.6 0 0 0-.45-1.21 1.87 1.87 0 0 0-1.3-.43h-1.65v3.3zm5.05-4.23h5v.92h-4v2.8H135v.92h-3.9v3.2h4.17v.92h-5.2zm7.05 0h2.66a5.8 5.8 0 0 1 2 .31 4.35 4.35 0 0 1 1.51.89 3.93 3.93 0 0 1 1 1.37 4.46 4.46 0 0 1 .34 1.79 4.53 4.53 0 0 1-.34 1.79 3.88 3.88 0 0 1-1 1.38 4.35 4.35 0 0 1-1.52.9 5.78 5.78 0 0 1-1.95.32h-2.66zm2.66 7.83a4.57 4.57 0 0 0 1.52-.25 3.27 3.27 0 0 0 1.95-1.81 4 4 0 0 0 0-2.82 3.07 3.07 0 0 0-.76-1.08 3.46 3.46 0 0 0-1.18-.7 4.59 4.59 0 0 0-1.53-.25h-1.65v6.9zm15.02-3.76a2.2 2.2 0 0 1 1 .85 2.6 2.6 0 0 1 .36 1.4 2.2 2.2 0 0 1-.78 1.79 3.19 3.19 0 0 1-2.11.65H150v-8.75h3.14a2.9 2.9 0 0 1 1.91.57 2 2 0 0 1 .69 1.59 2.06 2.06 0 0 1-.96 1.9zm-3.78-3.16v2.77h2.05a1.78 1.78 0 0 0 1.22-.37 1.31 1.31 0 0 0 .42-1c0-.9-.53-1.37-1.58-1.37zm2.18 6.93a2.08 2.08 0 0 0 1.42-.43 1.53 1.53 0 0 0 .49-1.22 1.43 1.43 0 0 0-.52-1.18 2.29 2.29 0 0 0-1.46-.42H151v3.25zm8 1.05a3.61 3.61 0 0 1-1.35-.24 3 3 0 0 1-1-.71 3.09 3.09 0 0 1-.66-1.11 4.53 4.53 0 0 1-.23-1.47v-5.36h1v5.4a2.76 2.76 0 0 0 .6 1.87 2 2 0 0 0 1.65.7 2.1 2.1 0 0 0 1.65-.68 2.78 2.78 0 0 0 .59-1.89v-5.4h1v5.36a4.53 4.53 0 0 1-.23 1.47 3.22 3.22 0 0 1-.65 1.11 2.92 2.92 0 0 1-1 .71 3.61 3.61 0 0 1-1.37.24zm5.62-8.9h1v7.83h3.63v.92h-4.63zm6.2 0h1v7.83h3.62v.92H173zm-42.14 15.6v8.75h-1v-7.16l-2.77 7.16h-1l-2.77-7.16v7.16h-1v-8.75h1.44l2.82 7.37 2.8-7.37zm6.4 8.9a4.6 4.6 0 0 1-1.79-.34 4.38 4.38 0 0 1-2.39-2.39 4.75 4.75 0 0 1 0-3.58 4.34 4.34 0 0 1 2.38-2.38 4.69 4.69 0 0 1 1.8-.34 4.6 4.6 0 0 1 1.79.34 4.53 4.53 0 0 1 1.43 1 4.42 4.42 0 0 1 .95 1.43 4.88 4.88 0 0 1 0 3.58 4.4 4.4 0 0 1-2.38 2.39 4.6 4.6 0 0 1-1.79.29zm0-.95a3.54 3.54 0 0 0 1.38-.27 3.36 3.36 0 0 0 1.83-1.89 3.9 3.9 0 0 0 .26-1.42 3.65 3.65 0 0 0-.27-1.41 3.44 3.44 0 0 0-.73-1.13 3.22 3.22 0 0 0-1.09-.75 3.79 3.79 0 0 0-2.76 0 3.36 3.36 0 0 0-1.1.75 3.6 3.6 0 0 0-.73 1.13 3.84 3.84 0 0 0-.26 1.41 3.7 3.7 0 0 0 .26 1.42 3.23 3.23 0 0 0 .73 1.14 3.36 3.36 0 0 0 1.1.75 3.54 3.54 0 0 0 1.38.27zm11.2-3.87a2.1 2.1 0 0 1 1 .85 2.6 2.6 0 0 1 .36 1.4 2.22 2.22 0 0 1-.77 1.79 3.21 3.21 0 0 1-2.11.65h-3.28v-8.75h3.15a2.92 2.92 0 0 1 1.91.57 2 2 0 0 1 .69 1.59 2 2 0 0 1-.95 1.9zm-3.77-3.15v2.77h2.06a1.75 1.75 0 0 0 1.21-.37 1.28 1.28 0 0 0 .43-1c0-.9-.53-1.37-1.6-1.37zm2.2 6.93a2.1 2.1 0 0 0 1.42-.43 1.53 1.53 0 0 0 .49-1.22 1.44 1.44 0 0 0-.53-1.18 2.29 2.29 0 0 0-1.46-.42h-2.1v3.25zm4.83-7.85h1v8.75h-1zm3.47 0h1v7.83h3.63v.92h-4.63zm6.18 0h5.05v.92h-4v2.8h3.9v.92h-3.9v3.2h4.17v.92h-5.2z" class="I J"/><path d="M554.24 193.82l-2.56 8.75h-1.16l-1.94-7.22-1.92 7.22h-1.17l-2.56-8.75H544l2.06 7.37 1.9-7.37h1.17l1.9 7.4 2.07-7.4zm5.13 8.88a3.4 3.4 0 0 1-1.34-.25 2.89 2.89 0 0 1-1-.7 3.18 3.18 0 0 1-.65-1.12 4.45 4.45 0 0 1-.23-1.47v-5.35h1v5.4a2.78 2.78 0 0 0 .61 1.88 2 2 0 0 0 1.64.7 2.1 2.1 0 0 0 1.65-.68 2.79 2.79 0 0 0 .6-1.9v-5.4h1v5.35a4.45 4.45 0 0 1-.23 1.47 3.18 3.18 0 0 1-.65 1.12 2.86 2.86 0 0 1-1 .7 3.44 3.44 0 0 1-1.4.25zm-1.28-9.94a.73.73 0 0 1-.51-.2.64.64 0 0 1-.21-.49.65.65 0 0 1 .21-.49.73.73 0 0 1 .51-.2.72.72 0 0 1 .51.19.69.69 0 0 1 .2.5.64.64 0 0 1-.21.49.72.72 0 0 1-.5.2zm2.6 0a.69.69 0 0 1-.51-.21.63.63 0 0 1-.21-.48.7.7 0 0 1 .72-.7.66.66 0 0 1 .51.2.65.65 0 0 1 .2.5.66.66 0 0 1-.2.49.73.73 0 0 1-.51.2zm4.3 1.06h2.72a2.87 2.87 0 0 1 2 .68 2.44 2.44 0 0 1 .74 1.87A2.59 2.59 0 0 1 570 198a2.46 2.46 0 0 1-1.42.88l2.48 3.68h-1.2l-2.42-3.56H566v3.6h-1zm2.65 4.22a1.81 1.81 0 0 0 1.29-.43 1.6 1.6 0 0 0 .47-1.23 1.57 1.57 0 0 0-.46-1.21 1.79 1.79 0 0 0-1.3-.43H566V198zm6.55-3.3h-2.58v-.92h6.26v.92h-2.66v7.83h-1zm5.37-.92h1v3.6h4.46v-3.6h1v8.75h-1v-4.23h-4.46v4.23h-1zm17.36 8.75l-3.84-4.36v4.36h-1v-8.75h1v3.85l3.64-3.85H598l-3.87 4.08 4.1 4.67zm5.75.13a3.42 3.42 0 0 1-1.35-.25 2.86 2.86 0 0 1-1-.7 3.05 3.05 0 0 1-.66-1.12 4.45 4.45 0 0 1-.23-1.47v-5.35h1v5.4a2.77 2.77 0 0 0 .6 1.88 2 2 0 0 0 1.65.7 2.1 2.1 0 0 0 1.65-.68 2.79 2.79 0 0 0 .59-1.9v-5.4h1v5.35a4.45 4.45 0 0 1-.23 1.47 3.18 3.18 0 0 1-.65 1.12 2.77 2.77 0 0 1-1 .7 3.42 3.42 0 0 1-1.37.25zm5.62-8.88h2.7a2.87 2.87 0 0 1 2 .68 2.44 2.44 0 0 1 .74 1.87 2.54 2.54 0 0 1-.52 1.64 2.46 2.46 0 0 1-1.42.88l2.48 3.68h-1.2l-2.33-3.57h-1.42v3.6h-1zM611 198a1.8 1.8 0 0 0 1.28-.43 1.57 1.57 0 0 0 .47-1.23 1.6 1.6 0 0 0-.45-1.21 1.82 1.82 0 0 0-1.3-.43h-1.65v3.3zm11.12-4.18l-3.12 8.75h-1.1l-3.14-8.75h1.1l2.6 7.44 2.58-7.44zm1.68 0h5.05v.92h-4v2.8h3.9v.92h-3.9v3.2H629v.92h-5.2z" class="I J"/><path d="M902.45 492.72h2.72a2.87 2.87 0 0 1 2 .68 2.44 2.44 0 0 1 .74 1.87 2.52 2.52 0 0 1-.52 1.64 2.46 2.46 0 0 1-1.42.88l2.48 3.68h-1.2l-2.37-3.6h-1.42v3.6h-1zm2.66 4.23a1.81 1.81 0 0 0 1.28-.44 1.57 1.57 0 0 0 .47-1.23 1.6 1.6 0 0 0-.45-1.21 1.87 1.87 0 0 0-1.3-.43h-1.65V497zm5.05-4.23h5.05v.92h-4v2.8h3.9v.92h-3.9v3.2h4.17v.92h-5.2zm15.54 0v8.75h-1v-7.16l-2.77 7.16H921l-2.77-7.16v7.16h-1v-8.75h1.44l2.82 7.37 2.8-7.37zm5.6 8.88a3.59 3.59 0 0 1-1.34-.24 2.88 2.88 0 0 1-1-.71 3.09 3.09 0 0 1-.66-1.11 4.53 4.53 0 0 1-.23-1.47v-5.36h1v5.4a2.79 2.79 0 0 0 .6 1.88 2.07 2.07 0 0 0 1.64.69A2.1 2.1 0 0 0 933 500a2.83 2.83 0 0 0 .59-1.89v-5.4h1v5.36a4.53 4.53 0 0 1-.23 1.47 3.22 3.22 0 0 1-.65 1.11 2.79 2.79 0 0 1-1 .71 3.62 3.62 0 0 1-1.4.25zm7.96 0a3 3 0 0 1-2.13-.73 2.79 2.79 0 0 1-.86-2h1a1.94 1.94 0 0 0 .59 1.33 1.88 1.88 0 0 0 1.36.51 2.13 2.13 0 0 0 1.37-.41 1.31 1.31 0 0 0 .51-1.1 1.21 1.21 0 0 0-.3-.87 2.65 2.65 0 0 0-1-.61l-1.27-.48a3.38 3.38 0 0 1-1.46-1 2.28 2.28 0 0 1-.46-1.46 2.17 2.17 0 0 1 .2-.92 2.06 2.06 0 0 1 .54-.7 2.57 2.57 0 0 1 .85-.46 3.42 3.42 0 0 1 1.09-.16 2.8 2.8 0 0 1 1.94.64A2.49 2.49 0 0 1 942 495h-1a1.59 1.59 0 0 0-.49-1.1 1.7 1.7 0 0 0-1.21-.4 1.9 1.9 0 0 0-1.2.35 1.17 1.17 0 0 0-.45 1 1.4 1.4 0 0 0 .3.93 2.56 2.56 0 0 0 1 .65l1.3.5a3.29 3.29 0 0 1 1.44.92 2.13 2.13 0 0 1 .43 1.38 2.37 2.37 0 0 1-.2 1 2 2 0 0 1-.58.78 2.55 2.55 0 0 1-.91.48 3.68 3.68 0 0 1-1.16.12z" class="I J"/><path d="M385.33 492.42a3 3 0 0 1-2.12-.74 2.74 2.74 0 0 1-.87-2h1a1.86 1.86 0 0 0 1.95 1.83 2.1 2.1 0 0 0 1.36-.4 1.34 1.34 0 0 0 .51-1.11 1.29 1.29 0 0 0-.29-.87 2.84 2.84 0 0 0-1-.61l-1.26-.48a3.28 3.28 0 0 1-1.47-1 2.3 2.3 0 0 1-.46-1.46 2.13 2.13 0 0 1 .2-.91 2 2 0 0 1 .55-.71 2.41 2.41 0 0 1 .84-.45 3.41 3.41 0 0 1 1.09-.17 2.83 2.83 0 0 1 1.94.64 2.45 2.45 0 0 1 .79 1.77h-1a1.64 1.64 0 0 0-.49-1.11 1.73 1.73 0 0 0-1.22-.4 1.86 1.86 0 0 0-1.19.36 1.13 1.13 0 0 0-.46.95 1.38 1.38 0 0 0 .31.94 2.53 2.53 0 0 0 1 .65l1.3.5a3.31 3.31 0 0 1 1.43.92 2.13 2.13 0 0 1 .44 1.38 2.58 2.58 0 0 1-.2 1 2.21 2.21 0 0 1-.58.77 2.65 2.65 0 0 1-.91.49 4.09 4.09 0 0 1-1.18.23zm8.67 0a4.66 4.66 0 0 1-1.8-.35 4.28 4.28 0 0 1-2.37-2.38 4.62 4.62 0 0 1-.35-1.8 4.56 4.56 0 0 1 .35-1.78 4.26 4.26 0 0 1 2.38-2.38 4.64 4.64 0 0 1 1.79-.35 4.82 4.82 0 0 1 1.54.24 3.93 3.93 0 0 1 1.27.66 4.37 4.37 0 0 1 .93 1 4.17 4.17 0 0 1 .52 1.35h-1.1a2.8 2.8 0 0 0-.43-1 3 3 0 0 0-.69-.74 3.2 3.2 0 0 0-.92-.47 4 4 0 0 0-1.1-.16 3.31 3.31 0 0 0-1.38.28 3.51 3.51 0 0 0-1.11.75 3.7 3.7 0 0 0 0 5.08 3.71 3.71 0 0 0 1.11.76 3.47 3.47 0 0 0 1.38.27 3.25 3.25 0 0 0 2-.63 3 3 0 0 0 1.13-1.71h1.1a4.17 4.17 0 0 1-.52 1.35 4.05 4.05 0 0 1-.93 1 3.93 3.93 0 0 1-1.27.66 4.82 4.82 0 0 1-1.53.35zm6.18-8.9h1v3.6h4.46v-3.6h1v8.75h-1v-4.23h-4.46v4.23h-1zm8.94 0h1v7.82h3.63v.93h-4.64zm9.78 8.9a4.61 4.61 0 0 1-1.79-.35 4.41 4.41 0 0 1-1.44-.95 4.68 4.68 0 0 1-.95-5 4.34 4.34 0 0 1 2.38-2.38 4.69 4.69 0 0 1 1.8-.35 4.56 4.56 0 0 1 1.78.35 4.34 4.34 0 0 1 2.38 2.38 4.73 4.73 0 0 1 0 3.57 4.41 4.41 0 0 1-.95 1.44 4.26 4.26 0 0 1-1.43.95 4.56 4.56 0 0 1-1.78.34zm0-.95a3.39 3.39 0 0 0 3.21-2.17 3.86 3.86 0 0 0 .26-1.42 3.6 3.6 0 0 0-.27-1.4 3.49 3.49 0 0 0-.73-1.13 3.22 3.22 0 0 0-1.09-.75 3.54 3.54 0 0 0-1.38-.27 3.47 3.47 0 0 0-1.38.27 3.26 3.26 0 0 0-1.1.75 3.49 3.49 0 0 0-.73 1.13 3.6 3.6 0 0 0-.26 1.4 3.66 3.66 0 0 0 .26 1.42 3.35 3.35 0 0 0 .72 1.14 3.59 3.59 0 0 0 1.11.76 3.47 3.47 0 0 0 1.38.27zm8.73.95a3 3 0 0 1-2.12-.74 2.77 2.77 0 0 1-.87-2h1a1.86 1.86 0 0 0 1.95 1.83 2.15 2.15 0 0 0 1.37-.4 1.36 1.36 0 0 0 .5-1.11 1.29 1.29 0 0 0-.29-.87 2.84 2.84 0 0 0-1-.61l-1.26-.48a3.34 3.34 0 0 1-1.47-1 2.29 2.29 0 0 1-.45-1.46 2.12 2.12 0 0 1 .19-.91 2 2 0 0 1 .55-.71 2.41 2.41 0 0 1 .84-.45 3.46 3.46 0 0 1 1.09-.17 2.82 2.82 0 0 1 1.94.64 2.45 2.45 0 0 1 .79 1.77h-1a1.64 1.64 0 0 0-.49-1.11 1.73 1.73 0 0 0-1.22-.4 1.86 1.86 0 0 0-1.19.36 1.16 1.16 0 0 0-.46.95 1.44 1.44 0 0 0 .31.94 2.53 2.53 0 0 0 1 .65l1.3.5a3.31 3.31 0 0 1 1.43.92 2.13 2.13 0 0 1 .44 1.38 2.58 2.58 0 0 1-.2 1 2.21 2.21 0 0 1-.58.77 2.65 2.65 0 0 1-.91.49 4.09 4.09 0 0 1-1.18.23zm7.05 0a3 3 0 0 1-2.13-.74 2.77 2.77 0 0 1-.86-2h1a1.86 1.86 0 0 0 1.95 1.83 2.12 2.12 0 0 0 1.36-.4 1.34 1.34 0 0 0 .51-1.11 1.24 1.24 0 0 0-.3-.87 2.78 2.78 0 0 0-1-.61l-1.26-.48a3.28 3.28 0 0 1-1.47-1 2.24 2.24 0 0 1-.46-1.46 2.13 2.13 0 0 1 .2-.91 2.1 2.1 0 0 1 .54-.71 2.56 2.56 0 0 1 .85-.45 3.41 3.41 0 0 1 1.09-.17 2.83 2.83 0 0 1 1.94.64 2.49 2.49 0 0 1 .79 1.77h-1a1.59 1.59 0 0 0-.48-1.11 1.73 1.73 0 0 0-1.22-.4 1.9 1.9 0 0 0-1.2.36 1.15 1.15 0 0 0-.45.95 1.38 1.38 0 0 0 .31.94 2.53 2.53 0 0 0 1 .65l1.28.5a3.29 3.29 0 0 1 1.44.92 2.13 2.13 0 0 1 .43 1.38 2.41 2.41 0 0 1-.2 1 2 2 0 0 1-.58.77 2.56 2.56 0 0 1-.91.49 4 4 0 0 1-1.17.23zm12.75-4.42v2.34a4 4 0 0 1-1.64 1.58 4.83 4.83 0 0 1-2.26.53 5.08 5.08 0 0 1-1.89-.35 4.42 4.42 0 0 1-1.49-.95 4.31 4.31 0 0 1-1-1.43 4.72 4.72 0 0 1-.34-1.82 4.62 4.62 0 0 1 .34-1.8 4.3 4.3 0 0 1 1-1.41 4.54 4.54 0 0 1 1.44-.94 4.91 4.91 0 0 1 1.82-.34 5 5 0 0 1 1.37.19 4 4 0 0 1 1.14.55 3.55 3.55 0 0 1 .87.86 4 4 0 0 1 .56 1.15h-1.12a2.79 2.79 0 0 0-1.1-1.33 3.24 3.24 0 0 0-1.74-.47 3.57 3.57 0 0 0-1.4.27 3.47 3.47 0 0 0-1.1.73 3.39 3.39 0 0 0-.73 1.12 3.86 3.86 0 0 0-.26 1.42 3.77 3.77 0 0 0 .27 1.44 3.42 3.42 0 0 0 .75 1.15 3.21 3.21 0 0 0 1.15.74 4 4 0 0 0 1.48.27 3.93 3.93 0 0 0 1.61-.33 3 3 0 0 0 1.27-1.05v-1.22h-2.94v-.9zm6.15 4.42a4.61 4.61 0 0 1-1.79-.35 4.26 4.26 0 0 1-1.43-.95 4.43 4.43 0 0 1-1-1.44 4.86 4.86 0 0 1 0-3.57 4.42 4.42 0 0 1 1-1.43 4.21 4.21 0 0 1 1.44-.95 4.75 4.75 0 0 1 3.58 0 4.26 4.26 0 0 1 1.43.95 4.42 4.42 0 0 1 .95 1.43 4.63 4.63 0 0 1-.95 5 4.26 4.26 0 0 1-1.43.95 4.61 4.61 0 0 1-1.8.36zm0-.95a3.36 3.36 0 0 0 2.48-1 3.23 3.23 0 0 0 .73-1.14 3.86 3.86 0 0 0 .26-1.42 3.6 3.6 0 0 0-.27-1.4 3.47 3.47 0 0 0-.72-1.13 3.36 3.36 0 0 0-1.1-.75 3.66 3.66 0 0 0-2.76 0 3.36 3.36 0 0 0-1.1.75 3.47 3.47 0 0 0-.72 1.13 3.6 3.6 0 0 0-.27 1.4 3.86 3.86 0 0 0 .26 1.42 3.23 3.23 0 0 0 .73 1.14 3.36 3.36 0 0 0 2.48 1zm6.42-7.94h1v7.82h3.62v.93H460zm6.2 0h2.67a5.84 5.84 0 0 1 2 .31 4.42 4.42 0 0 1 1.51.88 4 4 0 0 1 1 1.37 4.75 4.75 0 0 1 0 3.58 4 4 0 0 1-1 1.39 4.51 4.51 0 0 1-1.52.9 5.68 5.68 0 0 1-1.94.32h-2.67zm2.67 7.82a4.61 4.61 0 0 0 1.52-.24 3.68 3.68 0 0 0 1.18-.71 3.24 3.24 0 0 0 .76-1.1 3.63 3.63 0 0 0 .27-1.42 3.55 3.55 0 0 0-.27-1.41 3.18 3.18 0 0 0-.75-1.08 3.37 3.37 0 0 0-1.18-.69 4.39 4.39 0 0 0-1.53-.25h-1.66v6.9z" class="I J"/><path d="M613.58 49.67a4.62 4.62 0 0 1-1.8-.34A4.34 4.34 0 0 1 609.4 47a4.91 4.91 0 0 1 0-3.59 4.42 4.42 0 0 1 1-1.43 4.35 4.35 0 0 1 1.44-1 4.6 4.6 0 0 1 1.79-.34 5.12 5.12 0 0 1 1.54.23 4.31 4.31 0 0 1 1.26.66 4 4 0 0 1 1.45 2.38h-1.1a3.21 3.21 0 0 0-.43-1 3 3 0 0 0-1.62-1.2 3.5 3.5 0 0 0-1.09-.16 3.47 3.47 0 0 0-1.38.27 3.3 3.3 0 0 0-1.11.75 3.6 3.6 0 0 0-.73 1.13 3.84 3.84 0 0 0 0 2.83 3.6 3.6 0 0 0 .73 1.13 3.3 3.3 0 0 0 1.11.75 3.47 3.47 0 0 0 1.38.27 3.25 3.25 0 0 0 2-.63 3 3 0 0 0 1.13-1.71h1.1a3.92 3.92 0 0 1-.52 1.36 4 4 0 0 1-.93 1 4.31 4.31 0 0 1-1.26.66 5.12 5.12 0 0 1-1.58.31zm10.86-2.37h-4l-.84 2.22h-1.08l3.34-8.75H623l3.32 8.75h-1.06zm-3.62-.9h3.3l-1.65-4.5zm9.38 3.27a3 3 0 0 1-2.13-.73 2.79 2.79 0 0 1-.86-2h1a1.93 1.93 0 0 0 .58 1.33 1.9 1.9 0 0 0 1.37.51 2.12 2.12 0 0 0 1.36-.41 1.32 1.32 0 0 0 .51-1.1 1.25 1.25 0 0 0-.29-.87 2.93 2.93 0 0 0-1-.62l-1.26-.48a3.35 3.35 0 0 1-1.47-1 2.29 2.29 0 0 1-.46-1.47 2.13 2.13 0 0 1 .2-.91 2.2 2.2 0 0 1 .54-.71 2.75 2.75 0 0 1 .85-.45 3.42 3.42 0 0 1 1.09-.16 2.83 2.83 0 0 1 1.94.63A2.53 2.53 0 0 1 633 43h-1a1.56 1.56 0 0 0-.48-1.1 1.73 1.73 0 0 0-1.22-.41 1.86 1.86 0 0 0-1.19.36 1.15 1.15 0 0 0-.46 1 1.36 1.36 0 0 0 .31.93 2.43 2.43 0 0 0 1 .65l1.28.5a3.28 3.28 0 0 1 1.44.91 2.14 2.14 0 0 1 .43 1.39 2.37 2.37 0 0 1-.2 1 2.1 2.1 0 0 1-.57.78 2.73 2.73 0 0 1-.91.48 3.78 3.78 0 0 1-1.22.18zm6.3-7.97h-2.58v-.92h6.26v.92h-2.66v7.83h-1zm5.4-.92h2.7a2.87 2.87 0 0 1 2 .68 2.44 2.44 0 0 1 .74 1.87 2.59 2.59 0 0 1-.51 1.64 2.52 2.52 0 0 1-1.43.88l2.48 3.68h-1.2l-2.38-3.6h-1.42v3.6h-1zm2.65 4.22a1.81 1.81 0 0 0 1.28-.44 1.57 1.57 0 0 0 .47-1.23 1.6 1.6 0 0 0-.45-1.21 1.87 1.87 0 0 0-1.3-.43h-1.65V45zm8.88 4.67a4.6 4.6 0 0 1-1.79-.34 4.43 4.43 0 0 1-1.44-1 4.53 4.53 0 0 1-1-1.43 4.75 4.75 0 0 1 0-3.58 4.26 4.26 0 0 1 1-1.43 4.42 4.42 0 0 1 1.43-1 4.69 4.69 0 0 1 1.8-.34 4.55 4.55 0 0 1 1.78.34 4.42 4.42 0 0 1 1.43 1 4.26 4.26 0 0 1 1 1.43 4.75 4.75 0 0 1 0 3.58 4.36 4.36 0 0 1-1 1.43 4.29 4.29 0 0 1-1.43 1 4.55 4.55 0 0 1-1.78.34zm0-1a3.54 3.54 0 0 0 1.38-.27 3.36 3.36 0 0 0 1.1-.75 3.54 3.54 0 0 0 .73-1.14 3.91 3.91 0 0 0 .26-1.43 3.64 3.64 0 0 0-1-2.53 3.22 3.22 0 0 0-1.09-.75 3.53 3.53 0 0 0-1.38-.26 3.46 3.46 0 0 0-1.38.26 3.26 3.26 0 0 0-1.1.75 3.57 3.57 0 0 0-1 2.53 3.71 3.71 0 0 0 .26 1.43 3.35 3.35 0 0 0 .72 1.14 3.4 3.4 0 0 0 1.11.75 3.47 3.47 0 0 0 1.39.32zm6.42-7.9h1v7.83h3.63v.92h-4.64zm9.75 0h5v.92h-4v2.8h3.9v.92h-3.9v3.2h4.18v.92h-5.18zm7.03 0h2.67a5.8 5.8 0 0 1 2 .31 4.29 4.29 0 0 1 1.51.89 4 4 0 0 1 1 1.37 4.45 4.45 0 0 1 .34 1.78 4.55 4.55 0 0 1-.34 1.8 3.9 3.9 0 0 1-1 1.38 4.31 4.31 0 0 1-1.51.9 5.78 5.78 0 0 1-2 .32h-2.67zm2.67 7.83a4.61 4.61 0 0 0 1.52-.25 3.41 3.41 0 0 0 1.18-.71 3.15 3.15 0 0 0 .76-1.1 3.84 3.84 0 0 0 0-2.83 3 3 0 0 0-.75-1.07 3.39 3.39 0 0 0-1.18-.7 4.63 4.63 0 0 0-1.53-.25h-1.65v6.9zm14.7-3.38v2.34a4.14 4.14 0 0 1-1.64 1.58 4.82 4.82 0 0 1-2.26.52 5 5 0 0 1-1.89-.34 4.58 4.58 0 0 1-1.49-.95 4.11 4.11 0 0 1-1-1.44 4.68 4.68 0 0 1-.34-1.82 4.53 4.53 0 0 1 .34-1.79 4.24 4.24 0 0 1 1-1.42 4.43 4.43 0 0 1 1.44-.94 4.87 4.87 0 0 1 1.82-.33 4.61 4.61 0 0 1 1.36.19 3.69 3.69 0 0 1 1.15.54 3.59 3.59 0 0 1 .87.87 3.91 3.91 0 0 1 .56 1.14h-1.12a2.89 2.89 0 0 0-1.1-1.33 3.24 3.24 0 0 0-1.75-.46 3.55 3.55 0 0 0-1.39.26 3.49 3.49 0 0 0-1.1.74 3.25 3.25 0 0 0-.73 1.11 3.9 3.9 0 0 0-.26 1.42 3.86 3.86 0 0 0 .27 1.45 3.26 3.26 0 0 0 .74 1.14 3.41 3.41 0 0 0 1.16.75 4.14 4.14 0 0 0 1.48.26 4.09 4.09 0 0 0 1.61-.32 3.06 3.06 0 0 0 1.27-1.06v-1.2h-2.94v-.92zm2.2-4.45h5v.92h-4v2.8h3.9v.92h-3.9v3.2h4.17v.92h-5.17z" class="I J"/><path d="M334.54 118.32l-1.56-5.5 5.5-1.57 1.57 5.5z" class="K"/><path d="M340.05 116.76l-1.57-5.5 5.5-1.56 1.57 5.5z" class="I"/><path d="M345.55 115.2l-1.57-5.5 5.5-1.57 1.56 5.5z" class="K"/><path d="M333 112.88l-1.56-5.5 5.5-1.57 1.56 5.5zm11-3.14l-1.57-5.5 5.5-1.57 1.57 5.5z" class="I"/><path d="M338.5 111.35l-1.57-5.5 5.5-1.57 1.56 5.5zm-7.06-3.95l-1.57-5.5 5.5-1.57 1.57 5.5z" class="K"/><path d="M336.94 105.85l-1.57-5.5 5.5-1.57 1.57 5.5z" class="I"/><path d="M342.45,104.28l-1.57-5.5,5.5-1.57,1.57,5.5Z" class="K"/><path d="M329.88 102l-1.56-5.5 5.5-1.57 1.57 5.5zm11.02-3.17l-1.57-5.5 5.5-1.56 1.56 5.5z" class="I"/><path d="M335.4 100.44l-1.57-5.5 5.5-1.56 1.57 5.5zm-7.23-3.78l-1.57-5.5 5.5-1.57 1.57 5.5z" class="K"/><path d="M333.67 95.1l-1.57-5.5 5.5-1.6 1.57 5.5z" class="I"/><path d="M339.17,93.53,337.6,88l5.5-1.56,1.58,5.5Z" class="K"/><g class="I"><path d="M386.34 89.05l-11.26-6.3-6.25 1.76 11.26 6.3-6.32 11.3 6.24-1.76 6.33-11.3z" opacity=".8"/><path d="M396.8 85.98l-11.25-6.3-6.25 1.76 11.26 6.3-6.33 11.3 6.25-1.76 6.32-11.3z" opacity=".9"/><path d="M407.45 83.02l-11.26-6.3-6.24 1.77 11.26 6.3-6.33 11.3 6.25-1.77 6.32-11.3z"/><path d="M365.23 85.53l-6.25 1.77 11.26 6.3-6.33 11.3 6.25-1.77 6.32-11.3-11.25-6.3z" opacity=".7"/><path d="M355.37 88.3l-6.24 1.77 11.25 6.3-6.32 11.3 6.24-1.76 6.33-11.3-11.26-6.3z" opacity=".6"/><g class="J"><path d="M183.9 330.94h2.72a2.87 2.87 0 0 1 2 .68 2.44 2.44 0 0 1 .74 1.87 2.52 2.52 0 0 1-.52 1.64 2.46 2.46 0 0 1-1.42.88l2.48 3.68h-1.2l-2.37-3.6h-1.42v3.6h-1zm2.66 4.23a1.81 1.81 0 0 0 1.28-.44 1.57 1.57 0 0 0 .47-1.23 1.6 1.6 0 0 0-.45-1.21 1.87 1.87 0 0 0-1.3-.43h-1.65v3.3zm5.06-4.23h1v8.75h-1zm9.98 0v8.75h-1.1l-4.38-7.1v7.1h-1v-8.75h1.17l4.3 7v-7zm2.45 0h2.67a6.06 6.06 0 0 1 2 .31 4.44 4.44 0 0 1 1.51.89 4.06 4.06 0 0 1 1 1.37 4.88 4.88 0 0 1 0 3.58 4 4 0 0 1-1 1.39 4.44 4.44 0 0 1-1.51.89 5.78 5.78 0 0 1-1.95.32h-2.67zm2.67 7.83a4.37 4.37 0 0 0 1.52-.25 3.27 3.27 0 0 0 1.18-.71 3.15 3.15 0 0 0 .76-1.1 3.82 3.82 0 0 0 0-2.82 3.18 3.18 0 0 0-.75-1.08 3.55 3.55 0 0 0-1.18-.7 4.63 4.63 0 0 0-1.53-.25h-1.65v6.9zm8.28-6.9h-2.6v-.92h6.27v.92H216v7.83h-1z"/><path d="M698 410.4h2.72a2.82 2.82 0 0 1 2 .68 2.4 2.4 0 0 1 .74 1.86 2.56 2.56 0 0 1-.52 1.65 2.46 2.46 0 0 1-1.42.88l2.48 3.67h-1.2l-2.38-3.58H699v3.58h-1zm2.66 4.22a1.8 1.8 0 0 0 1.28-.43 1.62 1.62 0 0 0 .47-1.23 1.58 1.58 0 0 0-.45-1.21 1.82 1.82 0 0 0-1.3-.43H699v3.3zm9.92 2.3h-4l-.84 2.22h-1.07l3.34-8.74h1.1l3.33 8.74h-1.07zM707 416h3.3l-1.65-4.5zm9.92 3.3a3.4 3.4 0 0 1-1.34-.25 2.8 2.8 0 0 1-1-.71 3.22 3.22 0 0 1-.65-1.11 4.45 4.45 0 0 1-.23-1.47v-5.35h1v5.4a2.78 2.78 0 0 0 .61 1.88 2.32 2.32 0 0 0 3.29 0 2.75 2.75 0 0 0 .6-1.89v-5.38h1v5.35a4.45 4.45 0 0 1-.23 1.47 3.22 3.22 0 0 1-.65 1.11 2.76 2.76 0 0 1-1 .71 3.44 3.44 0 0 1-1.4.25zm9.58 0a4.62 4.62 0 0 1-1.8-.35 4.36 4.36 0 0 1-1.43-.95 4.42 4.42 0 0 1-.95-1.43 4.62 4.62 0 0 1-.34-1.8 4.55 4.55 0 0 1 .34-1.78 4.42 4.42 0 0 1 .95-1.43 4.3 4.3 0 0 1 1.44-.95 4.61 4.61 0 0 1 1.79-.35 4.82 4.82 0 0 1 1.54.24 3.88 3.88 0 0 1 1.26.66 4 4 0 0 1 .93 1 3.69 3.69 0 0 1 .52 1.35h-1.1a3 3 0 0 0-1.12-1.74 3.33 3.33 0 0 0-.92-.47 4 4 0 0 0-1.1-.16 3.47 3.47 0 0 0-1.38.27 3.56 3.56 0 0 0-2.11 3.29 3.64 3.64 0 0 0 1 2.55 3.59 3.59 0 0 0 1.11.76 3.47 3.47 0 0 0 1.38.27 3.25 3.25 0 0 0 2-.63 3 3 0 0 0 1.13-1.71h1.1a3.76 3.76 0 0 1-.52 1.35 3.95 3.95 0 0 1-2.19 1.7 4.82 4.82 0 0 1-1.53.31zm6.17-8.9h1v3.6h4.46v-3.6h1v8.74h-1v-4.22h-4.46v4.22h-1z"/></g></g></svg>