<?xml version="1.0" encoding="utf-8"?>
<!-- Generator: Adobe Illustrator 26.0.1, SVG Export Plug-In . SVG Version: 6.00 Build 0)  -->
<svg version="1.1" id="Layer_1" xmlns="http://www.w3.org/2000/svg" xmlns:xlink="http://www.w3.org/1999/xlink" x="0px" y="0px"
	 viewBox="0 0 1062.7 537.9" style="enable-background:new 0 0 1062.7 537.9;" xml:space="preserve">
<style type="text/css">
	.st0{fill:#FFFFFF;}
	.st1{opacity:0.5;fill:#FFFFFF;enable-background:new    ;}
	.st2{opacity:0.8;fill:#FFFFFF;enable-background:new    ;}
	.st3{opacity:0.9;fill:#FFFFFF;enable-background:new    ;}
	.st4{opacity:0.7;fill:#FFFFFF;enable-background:new    ;}
	.st5{opacity:0.6;fill:#FFFFFF;enable-background:new    ;}
	.st6{fill:#010101;}
	.st7{fill:#FFFFFF;stroke:#FFFFFF;stroke-width:3;stroke-miterlimit:10;}
</style>
<g>
	<path class="st0" d="M389.4,481.6h-2.7v-2.9h8.7v2.9h-2.9v8.1h-3.2V481.6z M401.6,478.8v11h-3.1v-8l-1.8,0.5l-0.7-2.6l3.1-1
		L401.6,478.8z M403.8,392.6h-2.7v-2.9h8.7v2.9H407v8.1h-3.2V392.6z M419,398v2.7h-8.2v-1.1c0-0.8,0.3-1.7,0.8-2.3
		c0.6-0.8,1.4-1.4,2.2-2l1-0.6c0.2-0.1,0.4-0.3,0.6-0.5c0.1-0.1,0.2-0.2,0.3-0.4c0.1-0.1,0.1-0.3,0.1-0.4c0-0.3-0.1-0.5-0.2-0.7
		c-0.2-0.2-0.4-0.3-0.7-0.2c-0.6,0-1,0.4-1,1.3h-3.1c-0.1-1.1,0.3-2.2,1.1-3.1c1.7-1.4,4.2-1.5,6-0.2c0.7,0.7,1.1,1.6,1,2.6
		c0,0.4-0.1,0.8-0.2,1.2c-0.1,0.3-0.3,0.7-0.5,1c-0.3,0.3-0.6,0.6-0.9,0.8c-0.4,0.3-0.8,0.6-1.2,0.9l-0.9,0.6
		c-0.3,0.2-0.5,0.3-0.7,0.5L419,398z M118,389.2h-2.7v-2.9h8.7v2.9h-2.9v8.1H118L118,389.2z M131.5,391.7c0.5,0.2,0.9,0.6,1.2,1
		c0.3,0.5,0.4,1,0.4,1.5c0,0.9-0.4,1.8-1.2,2.4c-0.4,0.3-0.8,0.5-1.3,0.7c-0.5,0.2-1.1,0.2-1.7,0.2c-1.1,0.1-2.2-0.3-3-1
		c-0.8-0.8-1.2-1.8-1.2-2.9h3c0,0.3,0.1,0.6,0.3,0.9c0.2,0.2,0.5,0.3,0.8,0.3c0.3,0,0.6-0.1,0.8-0.3c0.4-0.4,0.4-1,0-1.4
		c0,0,0,0,0,0c-0.2-0.2-0.5-0.3-0.8-0.2h-1.1v-2.2h1c0.7,0,1.1-0.3,1.1-0.9c0-0.3-0.1-0.5-0.3-0.7c-0.2-0.2-0.5-0.3-0.8-0.2
		c-0.3,0-0.6,0.1-0.8,0.3c-0.2,0.2-0.3,0.5-0.3,0.8h-2.9c0-0.5,0.1-1.1,0.4-1.6c0.2-0.5,0.5-0.9,0.9-1.2c0.4-0.3,0.8-0.6,1.3-0.8
		c0.5-0.2,1.1-0.3,1.7-0.3c0.5,0,1.1,0.1,1.6,0.2c0.4,0.1,0.9,0.3,1.2,0.6c0.3,0.3,0.6,0.6,0.8,1c0.2,0.4,0.3,0.8,0.3,1.3
		C133,390.3,132.4,391.3,131.5,391.7L131.5,391.7z M190.1,317.1h-2.7v-2.9h8.7v2.9h-2.9v8.1h-3.2V317.1z M205.1,323.5h-1.2v1.7h-3.1
		v-1.7h-4.9v-2.4l4.6-6.9h3.4v6.8h1.2L205.1,323.5z M198.9,321h2.2v-3.5L198.9,321z M80.2,275.9h-2.7v-2.9h8.7v2.9h-2.9v8.1h-3.2
		V275.9z M92.3,276.7c0.5,0,1,0.1,1.4,0.3c0.4,0.2,0.8,0.4,1.1,0.8c0.3,0.3,0.6,0.7,0.7,1.2c0.2,0.5,0.3,1,0.3,1.5
		c0,0.5-0.1,1.1-0.3,1.6c-0.2,0.5-0.5,0.9-0.8,1.2c-0.4,0.3-0.9,0.6-1.3,0.8c-0.6,0.2-1.2,0.3-1.8,0.3c-1.1,0.1-2.1-0.3-2.9-1
		c-0.8-0.7-1.2-1.7-1.2-2.8h3c0,0.3,0.2,0.5,0.4,0.7c0.2,0.2,0.5,0.3,0.7,0.3c0.3,0,0.6-0.1,0.8-0.4c0.2-0.2,0.3-0.6,0.3-0.9
		c0-0.3-0.1-0.6-0.3-0.9c-0.2-0.2-0.5-0.4-0.8-0.4c-0.2,0-0.4,0-0.6,0.1c-0.2,0.1-0.3,0.2-0.4,0.4h-2.9V273h7.6v2.7h-4.6v1.4
		C91.2,276.9,91.8,276.7,92.3,276.7L92.3,276.7z M132,88.4h-2.7v-2.9h8.7v2.9h-2.9v8.1H132L132,88.4z M143.3,88.9
		c0.4,0.1,0.9,0.2,1.3,0.4c0.4,0.2,0.7,0.5,1,0.8c0.3,0.3,0.5,0.7,0.7,1.2c0.2,0.4,0.2,0.9,0.2,1.4c0,0.6-0.1,1.1-0.3,1.6
		c-0.2,0.5-0.5,0.9-0.9,1.3c-0.4,0.4-0.8,0.7-1.4,0.9c-0.5,0.2-1.1,0.3-1.7,0.3c-0.6,0-1.1-0.1-1.7-0.3c-0.5-0.2-1-0.5-1.3-0.9
		c-0.4-0.4-0.7-0.8-0.9-1.3c-0.2-0.5-0.3-1.1-0.3-1.7c0-0.2,0-0.5,0.1-0.7c0-0.2,0.1-0.5,0.2-0.7c0.1-0.3,0.2-0.6,0.4-0.8l0.6-1
		l2.5-3.7h3.6L143.3,88.9z M142.2,94c0.3,0,0.7-0.1,0.9-0.4c0.2-0.2,0.4-0.6,0.4-0.9c0-0.7-0.5-1.2-1.2-1.3c0,0,0,0-0.1,0
		c-0.3,0-0.7,0.1-0.9,0.4c-0.2,0.2-0.4,0.6-0.4,0.9c0,0.3,0.1,0.7,0.4,0.9C141.5,93.9,141.9,94,142.2,94z M267.7,35.4H265v-2.9h8.7
		v2.9h-2.9v8.1h-3.1V35.4z M281.7,37.8c1,0.5,1.6,1.5,1.5,2.7c0,0.5-0.1,0.9-0.3,1.4c-0.2,0.4-0.5,0.7-0.9,1
		c-0.4,0.3-0.9,0.5-1.4,0.7c-0.6,0.2-1.2,0.2-1.8,0.2c-1.1,0.1-2.2-0.2-3.1-0.9c-0.7-0.6-1.1-1.5-1.1-2.4c0-0.6,0.1-1.1,0.4-1.6
		c0.3-0.5,0.7-0.8,1.1-1.1c-0.4-0.2-0.8-0.6-1-1c-0.2-0.4-0.4-0.9-0.3-1.4c0-0.9,0.4-1.7,1.1-2.2c0.4-0.3,0.8-0.5,1.3-0.6
		c0.5-0.2,1.1-0.2,1.7-0.2c0.6,0,1.1,0.1,1.7,0.2c0.5,0.1,0.9,0.3,1.3,0.6c0.3,0.3,0.6,0.6,0.8,1c0.2,0.4,0.3,0.8,0.3,1.3
		c0,0.5-0.1,0.9-0.3,1.4C282.4,37.2,282.1,37.5,281.7,37.8z M279,41.4c0.3,0,0.6-0.1,0.9-0.3c0.2-0.2,0.3-0.5,0.3-0.8
		c0-0.7-0.5-1.2-1.2-1.2c-0.7,0-1.2,0.5-1.2,1.2l0,0c0,0.3,0.1,0.6,0.3,0.8C278.3,41.3,278.6,41.4,279,41.4L279,41.4z M279,34.7
		c-0.3,0-0.6,0.1-0.8,0.3c-0.2,0.2-0.3,0.5-0.3,0.7c0,0.3,0.1,0.6,0.3,0.8c0.4,0.4,1.1,0.4,1.5,0c0.2-0.2,0.3-0.5,0.3-0.8
		C280,35.1,279.6,34.7,279,34.7C279,34.6,279,34.6,279,34.7L279,34.7z M630.1,296.9h-2.7V294h8.7v2.9h-2.9v8.1h-3.2V296.9z
		 M640.1,301.7c-0.9-0.1-1.7-0.6-2.3-1.3c-0.3-0.3-0.5-0.7-0.7-1.1c-0.2-0.4-0.2-0.9-0.2-1.4c0-0.6,0.1-1.1,0.3-1.6
		c0.2-0.5,0.5-0.9,0.9-1.3c0.4-0.4,0.9-0.7,1.4-0.9c0.5-0.2,1.1-0.3,1.7-0.3c0.6,0,1.1,0.1,1.7,0.3c0.5,0.2,0.9,0.5,1.3,0.9
		c0.4,0.4,0.7,0.8,0.9,1.3c0.2,0.5,0.3,1.1,0.3,1.6c0,0.2,0,0.5-0.1,0.7c0,0.2-0.1,0.5-0.2,0.7c-0.1,0.3-0.2,0.6-0.4,0.8
		c-0.2,0.3-0.4,0.6-0.6,1l-2.5,3.7H638L640.1,301.7z M641.2,296.6c-0.3,0-0.7,0.1-0.9,0.4c-0.5,0.5-0.5,1.3,0,1.8
		c0.2,0.2,0.6,0.4,0.9,0.4c0.3,0,0.7-0.1,0.9-0.4c0.5-0.5,0.5-1.3,0-1.8C641.8,296.7,641.5,296.6,641.2,296.6z M628.5,215.4h-2.7
		v-2.9h8.7v2.9h-2.9v8.1h-3.2V215.4z M640.6,212.6v11h-3.1v-8l-1.8,0.6l-0.7-2.6l3.1-0.9L640.6,212.6z M648.1,223.7
		c-0.8,0-1.6-0.1-2.4-0.4c-0.7-0.3-1.3-0.7-1.9-1.2c-0.5-0.5-0.9-1.1-1.2-1.8c-0.6-1.5-0.6-3.1,0-4.6c0.3-0.7,0.7-1.3,1.2-1.8
		c0.5-0.5,1.1-0.9,1.8-1.2c1.5-0.6,3.2-0.6,4.7,0c0.7,0.3,1.3,0.7,1.9,1.2c0.5,0.5,0.9,1.1,1.2,1.8c0.6,1.5,0.6,3.1,0,4.6
		c-0.3,0.7-0.7,1.3-1.2,1.8c-0.5,0.5-1.2,0.9-1.9,1.2C649.7,223.6,648.9,223.7,648.1,223.7L648.1,223.7z M648.1,220.9
		c0.4,0,0.7-0.1,1.1-0.2c0.3-0.1,0.6-0.3,0.8-0.6c0.2-0.3,0.4-0.6,0.6-0.9c0.1-0.4,0.2-0.8,0.2-1.1c0-0.4-0.1-0.8-0.2-1.1
		c-0.1-0.3-0.3-0.6-0.6-0.9c-0.2-0.3-0.5-0.5-0.8-0.6c-0.7-0.3-1.5-0.3-2.1,0c-0.3,0.1-0.6,0.3-0.9,0.6c-0.2,0.3-0.4,0.6-0.6,0.9
		c-0.1,0.4-0.2,0.7-0.2,1.1c0,0.4,0.1,0.8,0.2,1.1c0.1,0.3,0.3,0.6,0.6,0.9c0.2,0.3,0.5,0.5,0.9,0.6
		C647.4,220.8,647.8,220.9,648.1,220.9L648.1,220.9z M932.1,304.6h-2.7v-2.9h8.7v2.9h-2.9v8.1h-3.2L932.1,304.6z M944.3,301.7v11
		h-3.1v-8l-1.8,0.5l-0.7-2.6l3.1-1L944.3,301.7z M951,301.7v11h-3.1v-8l-1.8,0.5l-0.7-2.6l3.1-1L951,301.7z M853.7,430.6H851v-2.9
		h8.7v2.9h-2.9v8.1h-3.2L853.7,430.6z M865.8,427.8v11h-3.1v-8l-1.8,0.5l-0.7-2.6l3.1-1L865.8,427.8z M875.7,436.1v2.7h-8.2v-1.1
		c0-0.8,0.3-1.7,0.8-2.3c0.6-0.8,1.4-1.4,2.2-2l1-0.7c0.2-0.1,0.4-0.3,0.6-0.4c0.1-0.1,0.2-0.2,0.3-0.4c0.1-0.1,0.1-0.3,0.1-0.4
		c0-0.3-0.1-0.5-0.2-0.7c-0.2-0.2-0.4-0.3-0.7-0.2c-0.6,0-0.9,0.4-0.9,1.3h-3.1c-0.1-1.1,0.3-2.2,1.1-3.1c0.8-0.8,2-1.2,3.1-1.1
		c1-0.1,2.1,0.3,2.9,0.9c0.7,0.7,1.1,1.6,1,2.6c0,0.4-0.1,0.8-0.2,1.2c-0.1,0.4-0.3,0.7-0.5,1c-0.3,0.3-0.6,0.6-0.9,0.9l-1.2,0.9
		l-0.9,0.6c-0.2,0.2-0.5,0.3-0.7,0.5L875.7,436.1z M751.3,366.2h-2.7v-2.9h8.7v2.9h-2.9v8.1h-3.2L751.3,366.2z M763.4,363.3v11h-3.1
		v-8l-1.8,0.6l-0.7-2.6l3.1-1L763.4,363.3z M771.7,368.7c0.5,0.2,0.9,0.6,1.2,1c0.3,0.5,0.4,1,0.4,1.5c0,0.9-0.4,1.8-1.2,2.4
		c-0.4,0.3-0.8,0.5-1.3,0.7c-0.5,0.2-1.1,0.2-1.7,0.2c-1.1,0.1-2.2-0.3-3-1c-0.8-0.8-1.2-1.8-1.2-2.9h3c0,0.3,0.1,0.6,0.3,0.9
		c0.2,0.2,0.5,0.3,0.8,0.3c0.3,0,0.6-0.1,0.8-0.3c0.2-0.2,0.3-0.4,0.3-0.7c0-0.3-0.1-0.5-0.3-0.7c-0.2-0.2-0.5-0.3-0.8-0.2h-1.1
		v-2.2h1c0.7,0,1.1-0.3,1.1-0.9c0-0.3-0.1-0.5-0.3-0.7c-0.2-0.2-0.5-0.3-0.8-0.2c-0.3,0-0.6,0.1-0.8,0.3c-0.2,0.2-0.3,0.5-0.3,0.8
		h-2.9c0-0.5,0.2-1.1,0.4-1.6c0.2-0.5,0.5-0.9,0.9-1.2c0.4-0.3,0.8-0.6,1.3-0.8c1.1-0.3,2.2-0.3,3.3,0c0.4,0.1,0.9,0.3,1.2,0.6
		c0.3,0.3,0.6,0.6,0.8,1c0.2,0.4,0.3,0.8,0.3,1.3C773.2,367.3,772.6,368.2,771.7,368.7L771.7,368.7z M756.1,471.9h-2.7v-2.9h8.7v2.9
		h-2.9v8.1h-3.1V471.9z M768.2,469.1v11h-3.1v-8l-1.8,0.6l-0.7-2.6l3.1-1L768.2,469.1z M778.9,478.4h-1.2v1.7h-3.1v-1.7h-4.9V476
		l4.6-6.9h3.4v6.8h1.2L778.9,478.4z M772.7,475.8h2.2v-3.5L772.7,475.8z"/>
	<path class="st1" d="M81.7,411.2h3.8c1,0,2.1,0.3,2.9,1c0.7,0.7,1.1,1.7,1,2.6c0,0.5-0.1,1-0.3,1.5c-0.2,0.4-0.4,0.8-0.8,1.2
		c-0.4,0.3-0.8,0.6-1.2,0.7c-0.5,0.2-1.1,0.3-1.6,0.3h-2.3v5.1h-1.5V411.2z M85.5,417.2c0.7,0,1.3-0.2,1.8-0.6c0.9-1,0.9-2.5,0-3.5
		c-0.5-0.4-1.2-0.7-1.8-0.6h-2.3v4.7H85.5z M91.9,411.2h1.4v12.4h-1.4V411.2z M109.3,424.8v1.3l-8.6-2.5c-0.7-0.2-1.4-0.5-2-0.9
		c-0.6-0.4-1.1-0.9-1.5-1.4c-0.4-0.5-0.8-1.1-1-1.8c-0.2-0.7-0.3-1.4-0.3-2.1c0-3.6,2.9-6.5,6.5-6.4c0.9,0,1.7,0.2,2.5,0.5
		c3.1,1.3,4.7,4.8,3.6,8c-0.2,0.6-0.6,1.2-1,1.8c-0.4,0.5-0.9,1-1.5,1.3c-0.6,0.4-1.2,0.7-1.9,0.8L109.3,424.8z M97.5,417.4
		c0,0.7,0.1,1.4,0.4,2c0.2,0.6,0.6,1.1,1,1.6c1.4,1.4,3.6,1.9,5.5,1.1c0.6-0.3,1.1-0.6,1.6-1.1c0.4-0.5,0.8-1,1-1.6
		c0.3-0.6,0.4-1.3,0.4-2c0-0.7-0.1-1.4-0.4-2c-0.2-0.6-0.6-1.1-1-1.6c-2-1.9-5.1-1.9-7.1,0c-0.4,0.5-0.8,1-1,1.6
		C97.6,416,97.5,416.7,97.5,417.4L97.5,417.4z M116,423.8c-0.7,0-1.3-0.1-1.9-0.4c-0.6-0.2-1.1-0.6-1.5-1c-0.4-0.5-0.7-1-0.9-1.6
		c-0.2-0.7-0.3-1.4-0.3-2.1v-7.6h1.4v7.6c0,1,0.3,1.9,0.9,2.7c1.3,1.3,3.3,1.3,4.6,0c0,0,0,0,0,0c0.6-0.8,0.9-1.7,0.8-2.7v-7.6h1.4
		v7.6c0,0.7-0.1,1.4-0.3,2.1c-0.2,0.6-0.5,1.1-0.9,1.6c-0.4,0.4-0.9,0.8-1.4,1C117.3,423.7,116.7,423.8,116,423.8z M124,411.2h7.2
		v1.3h-5.7v4h5.5v1.3h-5.5v4.5h5.9v1.3H124L124,411.2z M136.5,412.5h-3.7v-1.4h8.8v1.3h-3.8v11.1h-1.4L136.5,412.5z M318,461.6h1.2
		c1.3,0,1.9-0.6,1.9-1.7v-9.4h1.4v9.5c0.1,0.8-0.2,1.6-0.8,2.2c-0.6,0.5-1.5,0.8-2.3,0.8H318L318,461.6z M331.6,463.1
		c-0.9,0-1.7-0.2-2.5-0.5c-0.7-0.3-1.4-0.8-2-1.4c-0.6-0.6-1-1.3-1.4-2c-0.7-1.6-0.7-3.4,0-5.1c0.3-0.7,0.8-1.4,1.4-2
		c0.6-0.6,1.3-1,2-1.3c1.6-0.7,3.4-0.7,5.1,0c0.7,0.3,1.4,0.8,2,1.3c0.6,0.6,1,1.3,1.4,2c0.6,1.6,0.6,3.4,0,5.1
		c-0.3,0.7-0.8,1.4-1.4,2c-0.6,0.6-1.3,1-2,1.4C333.3,462.9,332.5,463.1,331.6,463.1L331.6,463.1z M331.6,461.7c0.7,0,1.3-0.1,2-0.4
		c1.2-0.5,2.1-1.5,2.6-2.7c0.5-1.3,0.5-2.7,0-4c-0.2-0.6-0.6-1.1-1-1.6c-0.4-0.5-1-0.8-1.6-1.1c-0.6-0.3-1.3-0.4-2-0.4
		c-0.7,0-1.4,0.1-2,0.4c-0.6,0.2-1.1,0.6-1.5,1.1c-0.9,1-1.4,2.3-1.4,3.6c0,0.7,0.1,1.4,0.4,2c0.5,1.2,1.4,2.2,2.6,2.7
		C330.3,461.6,330.9,461.7,331.6,461.7z M349.9,450.4v12.4h-1.6l-6.2-10.1v10.1h-1.5v-12.4h1.7l6.1,9.9v-9.9H349.9z M353.4,450.4
		h7.2v1.3h-5.7v4h5.5v1.3h-5.5v4.5h5.9v1.3h-7.4L353.4,450.4z M366.7,463c-1.1,0.1-2.2-0.3-3-1c-0.8-0.7-1.2-1.8-1.2-2.8h1.5
		c0,0.7,0.3,1.4,0.8,1.9c0.5,0.5,1.2,0.7,1.9,0.7c0.7,0,1.4-0.2,1.9-0.6c0.5-0.4,0.7-1,0.7-1.6c0-0.4-0.1-0.9-0.4-1.2
		c-0.4-0.4-0.9-0.7-1.4-0.9l-1.8-0.7c-0.8-0.3-1.5-0.7-2.1-1.4c-0.4-0.6-0.7-1.3-0.6-2.1c0-0.4,0.1-0.9,0.3-1.3
		c0.2-0.4,0.4-0.7,0.8-1c0.4-0.3,0.8-0.5,1.2-0.6c0.5-0.2,1-0.2,1.5-0.2c1-0.1,2,0.3,2.8,0.9c0.7,0.7,1.1,1.6,1.1,2.5h-1.5
		c0-0.6-0.3-1.2-0.7-1.6c-0.5-0.4-1.1-0.6-1.7-0.6c-0.6,0-1.2,0.2-1.7,0.5c-0.4,0.3-0.7,0.8-0.6,1.4c0,0.5,0.1,1,0.4,1.3
		c0.4,0.4,0.9,0.7,1.5,0.9l1.8,0.7c0.8,0.3,1.5,0.7,2,1.3c0.4,0.6,0.7,1.3,0.6,2c0,0.5-0.1,1-0.3,1.4c-0.2,0.4-0.4,0.8-0.8,1.1
		c-0.4,0.3-0.8,0.5-1.3,0.7C367.8,463,367.3,463.1,366.7,463L366.7,463z M931.8,340.5h-5.6l-1.2,3.1h-1.5l4.7-12.4h1.5l4.7,12.4H933
		L931.8,340.5z M926.7,339.3h4.7l-2.3-6.4L926.7,339.3z M940,343.9c-1.1,0.1-2.2-0.3-3-1c-0.8-0.7-1.2-1.8-1.2-2.8h1.5
		c0,0.7,0.3,1.4,0.8,1.9c0.5,0.5,1.2,0.7,1.9,0.7c0.7,0,1.4-0.2,1.9-0.6c0.5-0.4,0.7-1,0.7-1.6c0-0.4-0.1-0.9-0.4-1.2
		c-0.4-0.4-0.9-0.7-1.4-0.9l-1.8-0.7c-0.8-0.3-1.5-0.7-2.1-1.4c-0.4-0.6-0.7-1.3-0.7-2.1c0-0.4,0.1-0.9,0.3-1.3
		c0.2-0.4,0.4-0.7,0.8-1c0.4-0.3,0.8-0.5,1.2-0.6c0.5-0.2,1-0.2,1.5-0.2c1-0.1,2,0.3,2.7,0.9c0.7,0.6,1.1,1.5,1.1,2.5h-1.5
		c0-0.6-0.3-1.1-0.7-1.6c-0.5-0.4-1.1-0.6-1.7-0.6c-0.6,0-1.2,0.2-1.7,0.5c-0.4,0.3-0.7,0.8-0.6,1.4c0,0.5,0.1,0.9,0.4,1.3
		c0.4,0.4,0.9,0.7,1.5,0.9l1.8,0.7c0.8,0.3,1.5,0.7,2,1.3c0.4,0.6,0.7,1.3,0.6,2c0,0.5-0.1,1-0.3,1.4c-0.2,0.4-0.5,0.8-0.8,1.1
		c-0.4,0.3-0.8,0.5-1.3,0.7C941.1,343.9,940.5,343.9,940,343.9L940,343.9z M952.3,343.9c-0.9,0-1.7-0.2-2.6-0.5
		c-0.7-0.3-1.4-0.8-2-1.3c-0.6-0.6-1-1.3-1.3-2c-0.7-1.6-0.7-3.5,0-5.1c0.6-1.5,1.8-2.7,3.4-3.4c0.8-0.3,1.7-0.5,2.5-0.5
		c0.7,0,1.5,0.1,2.2,0.3c0.6,0.2,1.3,0.5,1.8,0.9c0.5,0.4,1,0.9,1.3,1.5c0.4,0.6,0.6,1.2,0.7,1.9h-1.5c-0.1-0.5-0.3-0.9-0.6-1.4
		c-0.5-0.8-1.4-1.4-2.3-1.7c-0.5-0.2-1-0.2-1.5-0.2c-0.7,0-1.4,0.1-2,0.4c-0.6,0.2-1.1,0.6-1.6,1.1c-0.5,0.5-0.8,1-1,1.6
		c-0.3,0.6-0.4,1.3-0.4,2c0,0.7,0.1,1.4,0.4,2c0.2,0.6,0.6,1.1,1,1.6c0.4,0.5,1,0.8,1.6,1.1c0.6,0.3,1.3,0.4,2,0.4
		c1,0,2-0.3,2.8-0.9c0.8-0.6,1.4-1.4,1.6-2.4h1.5c-0.1,0.7-0.4,1.3-0.7,1.9c-0.4,0.6-0.8,1.1-1.3,1.5c-0.5,0.4-1.1,0.7-1.8,0.9
		C953.8,343.8,953,343.9,952.3,343.9L952.3,343.9z M967.7,340.5h-5.6l-1.2,3.1h-1.5l4.7-12.4h1.6l4.7,12.4h-1.5L967.7,340.5z
		 M962.6,339.3h4.7l-2.3-6.4L962.6,339.3z M972.8,331.3h3.8c1,0,2.1,0.3,2.9,1c0.7,0.7,1.1,1.7,1,2.6c0,0.8-0.2,1.7-0.7,2.3
		c-0.5,0.6-1.2,1.1-2,1.2l3.5,5.2h-1.7l-3.4-5.1h-2v5.1h-1.4V331.3z M976.5,337.3c0.7,0,1.3-0.2,1.8-0.6c0.9-1,0.9-2.5,0-3.5
		c-0.5-0.4-1.2-0.7-1.8-0.6h-2.3v4.7L976.5,337.3z M983.7,331.3h1.4v12.4h-1.4L983.7,331.3z M894.8,423.8c-1.1,0.1-2.2-0.3-3-1
		c-0.8-0.7-1.2-1.8-1.2-2.8h1.5c0,0.7,0.3,1.4,0.8,1.9c0.5,0.5,1.2,0.7,1.9,0.7c0.7,0,1.4-0.2,1.9-0.6c0.5-0.4,0.7-1,0.7-1.6
		c0-0.4-0.1-0.9-0.4-1.2c-0.4-0.4-0.9-0.7-1.4-0.9l-1.8-0.7c-0.8-0.3-1.5-0.7-2.1-1.4c-0.4-0.6-0.7-1.3-0.6-2.1c0-0.9,0.4-1.7,1-2.3
		c0.4-0.3,0.8-0.5,1.2-0.6c0.5-0.2,1-0.2,1.5-0.2c1-0.1,2,0.3,2.7,0.9c0.7,0.7,1.1,1.6,1.1,2.5h-1.5c0-0.6-0.3-1.2-0.7-1.6
		c-0.5-0.4-1.1-0.6-1.7-0.6c-0.6,0-1.2,0.1-1.7,0.5c-0.4,0.3-0.7,0.8-0.7,1.4c0,0.5,0.1,1,0.4,1.3c0.4,0.4,0.9,0.7,1.4,0.9l1.8,0.7
		c0.8,0.3,1.5,0.7,2,1.3c0.4,0.6,0.7,1.3,0.6,2c0,0.5-0.1,1-0.3,1.4c-0.2,0.4-0.5,0.8-0.8,1.1c-0.4,0.3-0.8,0.5-1.3,0.7
		C896,423.8,895.4,423.8,894.8,423.8L894.8,423.8z M903.8,412.5h-3.7v-1.3h8.9v1.3h-3.8v11.1h-1.4L903.8,412.5z M911.4,411.2h7.2
		v1.3h-5.7v4h5.5v1.3h-5.5v4.5h5.9v1.3h-7.4L911.4,411.2z M936.7,411.2l-3.6,12.4h-1.6l-2.8-10.2l-2.7,10.2h-1.7l-3.6-12.4h1.6
		l2.9,10.5l2.7-10.5h1.7l2.7,10.5l2.9-10.5L936.7,411.2z M945.4,420.5h-5.6l-1.2,3.1h-1.5l4.7-12.5h1.5l4.7,12.4h-1.5L945.4,420.5z
		 M940.2,419.2h4.7l-2.3-6.4L940.2,419.2z M950.5,411.2h3.8c1,0,2.1,0.3,2.9,1c0.7,0.7,1.1,1.7,1,2.6c0,0.8-0.2,1.7-0.7,2.3
		c-0.5,0.6-1.2,1.1-2,1.2l3.5,5.2h-1.7l-3.4-5.1h-2v5.1h-1.4V411.2z M954.2,417.2c0.7,0,1.3-0.2,1.8-0.6c0.9-1,0.9-2.5,0-3.5
		c-0.5-0.4-1.2-0.7-1.8-0.6h-2.3v4.7L954.2,417.2z M963.5,412.5h-3.7v-1.3h8.9v1.3h-3.8v11.1h-1.4L963.5,412.5z M671.5,388.1h3.8
		c1.1-0.1,2.1,0.3,2.9,1c0.7,0.7,1.1,1.7,1,2.6c0,0.5-0.1,1-0.3,1.5c-0.2,0.4-0.4,0.8-0.8,1.2c-0.3,0.3-0.8,0.6-1.2,0.8
		c-0.5,0.2-1.1,0.3-1.6,0.3h-2.4v5.1h-1.4L671.5,388.1z M675.2,394.1c0.7,0,1.3-0.2,1.8-0.6c0.5-0.5,0.7-1.1,0.7-1.7
		c0-0.6-0.2-1.3-0.7-1.7c-0.5-0.4-1.2-0.7-1.8-0.6h-2.3v4.7L675.2,394.1z M681.7,388.1h3.9c1-0.1,2.1,0.3,2.9,1
		c0.7,0.7,1.1,1.7,1,2.6c0,0.8-0.2,1.7-0.7,2.3c-0.5,0.6-1.2,1.1-2,1.2l3.5,5.2h-1.7l-3.4-5.1h-2v5.1h-1.4L681.7,388.1z
		 M685.4,394.1c0.7,0,1.3-0.2,1.8-0.6c0.5-0.5,0.7-1.1,0.7-1.7c0-0.6-0.2-1.3-0.6-1.7c-0.5-0.4-1.2-0.7-1.8-0.6h-2.4v4.7
		L685.4,394.1z M698,400.7c-0.9,0-1.7-0.2-2.5-0.5c-0.7-0.3-1.4-0.8-2-1.4c-0.6-0.6-1-1.2-1.3-2c-0.7-1.6-0.7-3.4,0-5.1
		c0.6-1.5,1.8-2.8,3.4-3.4c1.6-0.7,3.4-0.7,5.1,0c0.7,0.3,1.4,0.8,2,1.3c0.6,0.6,1,1.2,1.3,2c0.7,1.6,0.7,3.4,0,5.1
		c-0.3,0.8-0.8,1.4-1.3,2c-0.6,0.6-1.2,1-2,1.4C699.8,400.5,698.9,400.7,698,400.7z M698,399.3c0.7,0,1.4-0.1,2-0.4
		c0.6-0.2,1.1-0.6,1.6-1.1c0.4-0.5,0.8-1,1-1.6c0.2-0.6,0.4-1.3,0.4-2c0-0.7-0.1-1.4-0.4-2c-0.2-0.6-0.6-1.1-1-1.6
		c-0.4-0.5-1-0.8-1.5-1.1c-0.6-0.3-1.3-0.4-2-0.4c-0.7,0-1.4,0.1-2,0.4c-0.6,0.2-1.1,0.6-1.6,1.1c-0.4,0.5-0.8,1-1,1.6
		c-0.3,0.6-0.4,1.3-0.4,2c0,0.7,0.1,1.4,0.4,2c0.2,0.6,0.6,1.1,1,1.6c0.4,0.5,1,0.8,1.6,1.1C696.6,399.2,697.3,399.4,698,399.3z
		 M710.4,400.7c-1.1,0.1-2.2-0.3-3-1c-0.8-0.7-1.2-1.8-1.2-2.8h1.5c0,1.5,1.2,2.6,2.7,2.6c0,0,0.1,0,0.1,0c0.7,0,1.4-0.2,1.9-0.6
		c0.5-0.4,0.7-1,0.7-1.6c0-0.5-0.1-0.9-0.4-1.2c-0.4-0.4-0.9-0.7-1.4-0.9l-1.8-0.7c-0.8-0.3-1.5-0.7-2.1-1.4
		c-0.4-0.6-0.7-1.3-0.6-2.1c0-0.4,0.1-0.9,0.3-1.3c0.2-0.4,0.4-0.7,0.8-1c0.4-0.3,0.8-0.5,1.2-0.6c0.5-0.2,1-0.2,1.5-0.2
		c1-0.1,2,0.3,2.8,0.9c0.7,0.7,1.1,1.6,1.1,2.5h-1.5c0-0.6-0.3-1.2-0.7-1.6c-0.5-0.4-1.1-0.6-1.7-0.6c-0.6,0-1.2,0.2-1.7,0.5
		c-0.4,0.3-0.7,0.8-0.7,1.4c0,0.5,0.1,1,0.4,1.3c0.4,0.4,0.9,0.7,1.5,0.9l1.8,0.7c0.8,0.3,1.5,0.7,2,1.3c0.4,0.6,0.7,1.3,0.6,2
		c0,0.5-0.1,1-0.3,1.4c-0.2,0.4-0.5,0.8-0.8,1.1c-0.4,0.3-0.8,0.6-1.3,0.7C711.5,400.7,711,400.7,710.4,400.7L710.4,400.7z
		 M719.3,389.4h-3.7v-1.3h8.9v1.3h-3.8v11.1h-1.4L719.3,389.4z M427.7,169c-0.9,0-1.7-0.2-2.6-0.5c-0.7-0.3-1.4-0.8-2-1.3
		c-0.6-0.6-1-1.3-1.4-2c-0.7-1.6-0.7-3.5,0-5.1c0.3-0.7,0.8-1.4,1.4-2c0.6-0.6,1.3-1,2-1.3c0.8-0.3,1.7-0.5,2.6-0.5
		c0.7,0,1.5,0.1,2.2,0.3c0.6,0.2,1.3,0.5,1.8,0.9c0.5,0.4,1,0.9,1.3,1.5c0.4,0.6,0.6,1.2,0.7,1.9h-1.5c-0.1-0.5-0.3-0.9-0.6-1.4
		c-0.5-0.8-1.4-1.4-2.3-1.7c-0.5-0.2-1-0.2-1.6-0.2c-0.7,0-1.3,0.1-2,0.4c-1.2,0.5-2.1,1.5-2.6,2.7c-0.5,1.3-0.5,2.7,0,4
		c0.5,1.2,1.4,2.2,2.6,2.7c0.6,0.3,1.3,0.4,2,0.4c1,0,2-0.3,2.9-0.9c0.8-0.6,1.4-1.5,1.6-2.4h1.5c-0.1,0.7-0.4,1.3-0.7,1.9
		c-0.3,0.6-0.8,1.1-1.3,1.5c-0.5,0.4-1.2,0.7-1.8,0.9C429.1,168.9,428.4,169,427.7,169L427.7,169z M436.4,156.4h1.4v11.1h5.1v1.3
		h-6.6L436.4,156.4z M452.2,165.6h-5.6l-1.2,3.1h-1.5l4.7-12.4h1.5l4.7,12.4h-1.5L452.2,165.6z M447,164.3h4.7l-2.3-6.4L447,164.3z
		 M457.2,156.4h3.9c1,0,2.1,0.3,2.9,1c0.7,0.7,1.1,1.7,1,2.6c0,0.8-0.2,1.7-0.7,2.3c-0.5,0.6-1.2,1.1-2,1.2l3.5,5.2H464l-3.3-5.1h-2
		v5.1h-1.4L457.2,156.4z M461,162.4c0.7,0,1.3-0.2,1.8-0.6c0.9-1,0.9-2.5,0-3.5c-0.5-0.4-1.2-0.7-1.9-0.6h-2.3v4.7L461,162.4z
		 M475,168.8l-5.4-6.2v6.2h-1.4v-12.4h1.4v5.5l5.2-5.5h1.8l-5.5,5.8l5.8,6.6L475,168.8z"/>
	<g>
		<path class="st2" d="M535.7,494.6l10.4,10.5l7.4,0l-10.4-10.5l10.5-10.4l-7.4,0L535.7,494.6L535.7,494.6z"/>
		<path class="st3" d="M523.2,494.7l10.4,10.5l7.4,0l-10.4-10.5l10.5-10.4l-7.4,0L523.2,494.7L523.2,494.7z"/>
		<path class="st0" d="M510.6,494.5L521,505l7.4,0L518,494.6l10.5-10.4l-7.4,0L510.6,494.5z"/>
		<path class="st4" d="M557.8,505.2l7.4,0l-10.4-10.5l10.5-10.4l-7.4,0l-10.5,10.4L557.8,505.2L557.8,505.2z"/>
		<path class="st5" d="M569.6,505.2l7.4,0l-10.4-10.5l10.5-10.4l-7.4,0l-10.5,10.4L569.6,505.2L569.6,505.2z"/>
	</g>
	<path class="st6" d="M602.3,473.4v6.5h-6.5v-6.5H602.3z"/>
	<path class="st0" d="M595.8,473.4v6.5h-6.5v-6.5H595.8z"/>
	<path class="st6" d="M589.3,473.3v6.5l-6.5,0v-6.5L589.3,473.3z"/>
	<path class="st0" d="M602.3,479.8v6.5h-6.5v-6.5H602.3z M589.3,479.8v6.5h-6.5v-6.5H589.3z"/>
	<path class="st6" d="M595.8,479.7v6.5h-6.5v-6.5H595.8z M602.2,486.3v6.5h-6.5v-6.5H602.2z"/>
	<path class="st0" d="M595.8,486.2v6.5h-6.5v-6.5H595.8z"/>
	<path class="st6" d="M589.3,486.2v6.5h-6.5v-6.5H589.3z"/>
	<path class="st0" d="M602.2,492.7v6.5l-6.5,0v-6.5L602.2,492.7z M589.2,492.6v6.5h-6.5v-6.5H589.2z"/>
	<path class="st6" d="M595.7,492.6v6.5h-6.5v-6.5H595.7z M602.4,499v6.5h-6.5V499H602.4z"/>
	<path class="st0" d="M595.9,499v6.5l-6.5,0V499L595.9,499z"/>
	<path class="st6" d="M589.4,499v6.5h-6.5V499H589.4z"/>
	<path class="st0" d="M468.8,456.6c1.5-0.5,46.9-15,56.8-15.4c8.5-0.4,136.5-3.8,163.4-3.8l13.2,0.1c18.8,0.2,32.4,0.4,37.2-4.8
		c6.2-6.7,10.3-17.5,10.3-27.6c0-4.4,1-7.7,3.1-9.7c1.2-1.2,2.8-1.9,4.5-2v2.4c-0.2,0-5.2,0.1-5.2,9.3c0,10.7-4.3,22.2-10.9,29.2
		c-5.6,6-18.9,5.8-39,5.6l-13.2-0.1c-26.8,0-154.7,3.5-163.2,3.8c-9.6,0.4-55.8,15.2-56.2,15.3L468.8,456.6z"/>
	<g>
		<path class="st7" d="M427.9,467.4c-6,0-11.3-3.8-13.4-9.5c-11.6-31.8-34.8-35.3-47.6-34.6l-3.2,0.2c-14.6,0.9-48.8,3-87.1,1.1
			c-47.9-2.4-87.1-10.3-116.5-23.3c-3.9-1.7-6.7-5-7.9-9.1c-1.2-4.1-0.5-8.5,1.9-12.1l21.6-32.3c1.4-2.1,1.1-4.9-0.7-6.7l-52.8-51.9
			c-5.4-5.3-8-12.6-7.3-20.1l4.9-50.4l0.1-0.4c0.3-1,7.3-24.1,14.5-39.3c1-2,1.9-4,2.9-6.1c6.1-12.4,13-26.5,16.9-54.2
			c0.1-0.9,0.2-1.8,0.3-2.8c0-0.4,0.1-0.9,0.1-1.3c0.1-1.5,0.8-3.6,3.1-5.6c4.8-4,15.3-5.1,31.9-3.3c1.2-0.2,9.9-2.8,39.1-29.1
			l0.3-0.2l0.3-0.2c0.5-0.3,11.6-7.4,28.8-10c15.8-2.4,39.8-1.2,64.7,18c8,5.8,14.6,9.9,20.4,13.6c13.5,8.5,23.2,14.6,34.9,31.3
			c16.3,23.1,23,37.8,31,60.1c7.9,22.1,34,75.8,104.2,97.2c5.2,1.6,42.1,3.7,89.7-3.1c7.9-1.1,15-5.3,19.9-11.8
			c4.5-6,9.5-13.6,14.8-22.7c2.9-5,7.8-8.3,13.4-9.2c11.7-1.7,27.2-2.9,50.6-4.6c13.8-1,30.9-2.3,51.5-4c2.3-0.3,20.7-2.2,52.1,14.6
			c4.3,2.3,9.2,4.9,14.6,7.7c60.1,31.7,91.2,49.4,95,57.9l0.2,0.4l0.1,0.4c1.3,6.2-4.7,16-14.7,31.5c-5.1,7.9-10.4,16.1-12.8,21.9
			l-0.3,0.7c-9,21.1-17.4,38.9-28.3,42.6c-1.1,0.4-2.1,0.8-3,1.1c-9,3.6-14,4.2-50.9-7.6c-15.8-4.2-34.6-8.4-39.6-8.5
			c-0.2,0.9-0.3,2.5-0.2,5.2c0.5,10.7,1.5,36,1.5,36.2l0,0.2l0,0.2c0,0.2-1.2,22-23.2,22.6l-315,9.2
			C428.2,467.4,428.1,467.4,427.9,467.4z M370.3,414.8c14.1,0,26.2,4.8,36,14.4c8.7,8.4,13.6,18.7,16.2,25.9
			c0.9,2.4,3.1,3.9,5.7,3.9l315-9.2l0.1,4.2l-0.1-4.2c13.5-0.4,14.9-12.3,15-14.4c-0.1-2.5-1-25.8-1.5-36
			c-0.3-6.9,0.7-10.9,3.4-12.9c1.3-1,2.7-1.2,3.8-1.1c7.9-0.5,34.9,6.5,43.2,8.7l0.2,0.1c36.1,11.5,39,10.4,45.4,7.8
			c1-0.4,2.1-0.8,3.4-1.3c8.3-2.9,18-25.7,23.3-38l0.3-0.7c2.8-6.5,8.2-15,13.5-23.2c5-7.8,13.3-20.6,13.5-24.6
			c-1.3-1.7-7.1-7.1-33.2-22.1c-18.3-10.5-40.2-22.1-57.8-31.4c-5.4-2.9-10.4-5.5-14.6-7.7c-30.1-16.1-46.9-13.7-47-13.6l-0.3,0
			c-20.7,1.7-37.9,3-51.7,4c-23.2,1.7-38.6,2.9-50,4.6c-3.1,0.5-5.8,2.3-7.4,5.1c-5.5,9.4-10.6,17.3-15.3,23.6
			c-6.3,8.3-15.3,13.6-25.4,15.1c-49.1,7-86.6,4.9-93.3,2.8c-73.8-22.4-101.3-79.1-109.6-102.4c-7.7-21.6-14.2-35.7-29.9-58.1
			c-10.8-15.3-19.4-20.8-32.5-29c-6-3.8-12.7-8-20.9-14l-0.1-0.1c-18-13.9-37.6-19.4-58.1-16.5c-14.1,2-23.9,7.6-25.6,8.6
			c-16,14.5-36.2,31-44.5,31c-0.2,0-0.4,0-0.6,0l0,0c-20.9-2.2-25.3,0.9-25.9,1.5c0,0.3,0,0.6-0.1,0.9c-0.1,1.1-0.2,2.2-0.3,3.4
			c-4.1,29.1-11.4,43.8-17.7,56.8c-1,2-2,4-2.9,5.9c-6.4,13.6-12.9,34.6-13.9,37.7l-4.8,49.5c-0.5,4.9,1.3,9.8,4.8,13.2l52.8,51.9
			c4.7,4.6,5.5,12,1.8,17.5L161,385c-1,1.4-1.2,3.2-0.8,4.9c0.5,1.7,1.7,3,3.2,3.7c44.6,19.7,111.8,26.9,199.8,21.5l3.2-0.2
			C367.7,414.9,369,414.8,370.3,414.8z M162.8,115.8L162.8,115.8L162.8,115.8z"/>
	</g>
</g>
<g>
	<polygon class="st0" points="220.7,113.2 218,113.2 218,110.3 226.7,110.3 226.7,113.2 223.9,113.2 223.9,121.3 220.7,121.3 	"/>
	<polygon class="st0" points="235.4,110.3 235.4,112.9 231.4,121.3 228,121.3 232.1,113.1 227.5,113.1 227.5,110.3 	"/>
</g>
</svg>
