<svg xmlns="http://www.w3.org/2000/svg" viewBox="0 0 1062.67 537.87"><g fill="#fff"><path d="M221.6 478.28a15.24 15.24 0 0 1-8.37-2.51c-10.85-7-79.7-75.73-87.53-83.55l-2.37-2.37 3.3-13.78 14-77.95L187.5 228l146.18-23.2 5.44 28.05 20.55 1.07 13.53 13.53 2.6 50.7c2.05-.3 6.4-1.48 14.6-5.8 25.36-13.4 101.2-43.57 104.4-44.85l.64-.26.48-.07a5.18 5.18 0 0 0 3-2.09c.7-1.36.4-3.74-.84-6.7a10.08 10.08 0 0 1 .64-9.1c2.74-4.76 10.24-11.13 44.12-18.24 17.83-3.75 34.46-5.9 35.16-6l.7-.1.7.07c14.36 1.5 29.36.87 32.23-1.33 3.9-4.54 6.42-7.65 2.4-26.92l-2.1-9.66c-4.17-18.86-6.92-31.32 1-36.33 5.55-3.54 30.48-8 38.9-6.58 11-.33 163.9-21.8 265.14-36.3a12.36 12.36 0 0 1 9.17 1.67c5.8 3.5 9.72 11.45 11.67 23.6l13.63 91.63a11.66 11.66 0 0 1-.5 8.41c-2.18 4.86-7.42 8.45-15.6 10.68-15.8 4.3-385.8 55.63-401.55 57.8h-.12l-27 3.2-117.22 49.7c-.76.38-7.47 3.93-11 10.2-4.34 7.82-15.4 25.3-17.73 29-1.3 3.67-6.63 14.55-25.23 21.06-16.56 5.8-53.22 22.8-60.72 26.3l-31.34 41.9c-1.32 2-8.67 12.7-18.36 14.84a16.26 16.26 0 0 1-3.44.38zm-85-92.17c30.4 30.34 76 74.93 83.16 79.57a3.27 3.27 0 0 0 2.74.5c4.17-.92 9.17-7 10.94-9.76l.26-.38 33.26-44.46 1.36-.64c1.8-.84 44.23-20.75 63.2-27.4 14.58-5.1 17.6-12.9 17.92-13.82l.2-1 .54-.66c.13-.2 13.2-20.74 17.77-29 5.6-10.07 15.95-15.06 16.4-15.27l.22-.1 119-50.43 28.67-3.4 400-57.5c5.56-1.5 7.4-3.3 7.75-3.9l-.15-.3-.14-1L926 115.1c-2-12.1-5.46-15.1-6.5-15.4l-.53.07-132.3 18.74L695 131.07c-40.1 5.33-43.82 5.55-45.78 4.85-4.52-.5-24.26 2.5-29.3 4.72-.8 3.52 1.8 15.25 3.7 23.93l2.13 9.78c4.5 21.54 2.07 28.9-5.1 37.27-2.5 2.9-7.62 6.24-25.35 6.24-7.42 0-14.25-.58-16.45-.8-3.26.43-18.15 2.5-33.54 5.73-27.24 5.72-34.15 10.46-35.76 12 2.36 6.16 2.32 11.56-.1 16.06-3 5.58-8.6 7.46-10.65 8-6.2 2.47-79 31.56-102.83 44.15-14.25 7.52-23 9.12-28.32 5.2a9.52 9.52 0 0 1-3.81-8.49l-2.4-47-7-7-25.32-1.32-5-25.88-129.57 20.53L152 302.7l-13.7 76zM611.67 203.7zm37.76-67.7zm2.65-11.65a6.36 6.36 0 0 1 1.36.39 6.34 6.34 0 0 0-1.36-.44z"/><path d="M862.62 258.1l-8.33-6.22-5.17.74 8.33 6.23-6.25 8.35 5.18-.74 6.24-8.36z" opacity=".8"/><path d="M871.3 256.74l-8.33-6.22-5.17.74 8.32 6.23-6.24 8.36 5.17-.75 6.25-8.36z" opacity=".9"/><path d="M880.12 255.5l-8.32-6.22-5.18.75 8.33 6.22-6.25 8.36 5.18-.75 6.24-8.36z"/><path d="M846.13 253.05l-5.17.74 8.32 6.23-6.25 8.36 5.18-.75 6.25-8.36-8.33-6.22z" opacity=".7"/><path d="M837.97 254.23l-5.18.74 8.33 6.23-6.25 8.36 5.17-.75 6.25-8.36-8.32-6.22z" opacity=".6"/></g><path d="M815.4 274.64l-.73-5.16 5.15-.74.74 5.17z" fill="#010101"/><path d="M820.55 273.9l-.74-5.17 5.2-.74.74 5.16z" fill="#fff"/><path d="M825.7 273.17L825 268l5.16-.74.74 5.16z" fill="#010101"/><path d="M814.67 269.53l-.74-5.16 5.16-.74.73 5.16zm10.33-1.48l-.74-5.15 5.16-.74.74 5.16z" fill="#fff"/><g fill="#010101"><path d="M819.83,268.84l-.74-5.16,5.16-.74.73,5.16Z"/><path d="M813.94 264.4l-.74-5.15 5.15-.74.74 5.16z"/></g><path d="M819.1 263.68l-.74-5.16 5.16-.73.74 5.15z" fill="#fff"/><path d="M824.25,262.94l-.74-5.15,5.16-.74.74,5.16Z" fill="#010101"/><path d="M813.2 259.3l-.73-5.15 5.16-.74.73 5.16zm10.32-1.47l-.74-5.16 5.16-.73.74 5.15z" fill="#fff"/><path d="M818.37 258.6l-.74-5.16 5.16-.73.73 5.16zm-6.07-4.3l-.73-5.16 5.15-.74.74 5.16z" fill="#010101"/><path d="M817.46,253.57l-.74-5.16,5.16-.73.74,5.16Z" fill="#fff"/><path d="M822.62,252.84l-.74-5.16,5.16-.74.74,5.16Z" fill="#010101"/><g fill="#fff"><path d="M982.66 221.6H980v-2.86h8.7v2.86h-2.87v8.13h-3.17zm12.14-2.85v11h-3.1v-8l-1.8.56-.7-2.63 3.08-.95zM929.24 64.83h-2.66V62h8.7v2.86h-2.87V73h-3.17zm15.13 5.47V73h-8.2v-1.17a3.75 3.75 0 0 1 .8-2.34 8.89 8.89 0 0 1 2.2-1.95l1-.65a6.9 6.9 0 0 0 .6-.46 1.16 1.16 0 0 0 .29-.38.9.9 0 0 0 .08-.42 1 1 0 0 0-.24-.73 1 1 0 0 0-.67-.23c-.63 0-1 .42-1 1.25h-3.04a4.14 4.14 0 0 1 1.11-3.06 4.2 4.2 0 0 1 3.08-1.1 4.15 4.15 0 0 1 2.87.93 3.3 3.3 0 0 1 1 2.61 3.36 3.36 0 0 1-.19 1.2 3.19 3.19 0 0 1-.55 1 5.16 5.16 0 0 1-.89.84l-1.24.86-.94.6a4.85 4.85 0 0 0-.71.53zm-372.22 45.97h-2.66v-2.86h8.7v2.86h-2.87v8.13h-3.17zm13.48 2.5a2.82 2.82 0 0 1 1.24 1 2.67 2.67 0 0 1 .43 1.53 2.87 2.87 0 0 1-.31 1.34 2.9 2.9 0 0 1-.85 1 4.1 4.1 0 0 1-1.32.67 5.48 5.48 0 0 1-1.67.24 4.19 4.19 0 0 1-3-1 4 4 0 0 1-1.17-2.93h3a1.26 1.26 0 0 0 .31.86 1 1 0 0 0 .79.31 1.18 1.18 0 0 0 .81-.27 1 1 0 0 0 0-1.42 1.28 1.28 0 0 0-.83-.25H582v-2.2h1c.73 0 1.1-.3 1.1-.9a.83.83 0 0 0-.28-.67 1.12 1.12 0 0 0-.76-.24 1.06 1.06 0 0 0-.79.29 1.08 1.08 0 0 0-.32.8H579a4.36 4.36 0 0 1 .36-1.57 3.53 3.53 0 0 1 .86-1.19 3.86 3.86 0 0 1 1.3-.75 5.2 5.2 0 0 1 1.68-.26 5.29 5.29 0 0 1 1.58.23 3.62 3.62 0 0 1 1.22.64 3 3 0 0 1 1.06 2.29 2.48 2.48 0 0 1-1.43 2.45zm60.47 88.74h-2.66v-2.86h8.7v2.86h-2.87v8.13h-3.17zm15 6.48h-1.2v1.67h-3.1V214h-4.88v-2.4l4.58-6.92h3.4v6.76h1.2zm-6.2-2.56h2.2V208zM337.47 320.78h-2.66v-2.85h8.7v2.85h-2.88v8.13h-3.16zm14.73-2.85v2.6l-4 8.4h-3.38l4.1-8.2h-4.6v-2.8zm29.3-90.13h-2.67v-2.86h8.7v2.86h-2.87v8.13h-3.16zm14 2.38a2.81 2.81 0 0 1 1.55 2.66 3.15 3.15 0 0 1-.29 1.36 2.85 2.85 0 0 1-.85 1 4.21 4.21 0 0 1-1.36.66 6.2 6.2 0 0 1-1.79.24 5 5 0 0 1-3.14-.88 2.9 2.9 0 0 1-1.14-2.42 3.07 3.07 0 0 1 .39-1.59 2.84 2.84 0 0 1 1.15-1.07 2.71 2.71 0 0 1-1-1 2.64 2.64 0 0 1-.34-1.36 2.69 2.69 0 0 1 1.11-2.25 4.08 4.08 0 0 1 1.29-.63 5.84 5.84 0 0 1 1.68-.22 6 6 0 0 1 1.69.22 4.08 4.08 0 0 1 1.29.63 2.82 2.82 0 0 1 .81 1 2.79 2.79 0 0 1 .29 1.27 2.65 2.65 0 0 1-.35 1.36 2.68 2.68 0 0 1-.99 1.02zm-2.74 3.64a1.17 1.17 0 0 0 .85-.31 1.05 1.05 0 0 0 .34-.82 1.19 1.19 0 1 0-2.38.02 1 1 0 0 0 .33.81 1.23 1.23 0 0 0 .86.3zm0-6.77a1.12 1.12 0 0 0-.78.28 1 1 0 0 0-.31.73 1 1 0 0 0 .3.77 1.12 1.12 0 0 0 1.55 0 1 1 0 0 0 .3-.77 1 1 0 0 0-.29-.73 1.06 1.06 0 0 0-.76-.28zm-68.16 39.82H322V264h8.7v2.86h-2.88V275h-3.16zm9.96 4.83a3.68 3.68 0 0 1-1.26-.42 3.57 3.57 0 0 1-1-.84 3.48 3.48 0 0 1-.67-1.15 3.93 3.93 0 0 1-.24-1.38 3.81 3.81 0 0 1 .34-1.61 4.14 4.14 0 0 1 .9-1.31 4.07 4.07 0 0 1 1.36-.87 4.45 4.45 0 0 1 1.68-.32 4.16 4.16 0 0 1 1.65.33 4 4 0 0 1 1.34.89 4.21 4.21 0 0 1 1.22 3 3.23 3.23 0 0 1-.07.71 3.69 3.69 0 0 1-.21.73 6.18 6.18 0 0 1-.4.83q-.26.44-.63 1l-2.5 3.74h-3.63zm1.08-5.1a1.19 1.19 0 0 0-.9.37 1.25 1.25 0 0 0-.36.92 1.23 1.23 0 0 0 1.26 1.27 1.18 1.18 0 0 0 .89-.36 1.26 1.26 0 0 0 .35-.91 1.28 1.28 0 0 0-.35-.92 1.16 1.16 0 0 0-.89-.37zm-49.12-19.5h-2.66v-2.86h8.7v2.86h-2.87v8.12h-3.17zm12.15-2.87v11h-3.1v-8l-1.8.55-.7-2.62 3.08-1zm6.73 0v11h-3.1v-8l-1.8.55-.7-2.62 3.08-1zm45.42-37.7h-2.66v-2.85h8.7v2.85H354v8.13h-3.17zm12.18-2.85v11h-3.1v-8l-1.8.56-.7-2.63 3.08-.94zm7.47 11.2a6.49 6.49 0 0 1-2.37-.42 5.81 5.81 0 0 1-1.86-1.19 5.24 5.24 0 0 1-1.21-1.8 5.93 5.93 0 0 1-.43-2.3 6 6 0 0 1 .43-2.3 5.24 5.24 0 0 1 1.21-1.8 5.76 5.76 0 0 1 1.86-1.17 6.75 6.75 0 0 1 4.74 0 5.55 5.55 0 0 1 1.86 1.17 5.1 5.1 0 0 1 1.21 1.8 6 6 0 0 1 .44 2.3 5.93 5.93 0 0 1-.44 2.3 5.1 5.1 0 0 1-1.21 1.8 5.6 5.6 0 0 1-1.86 1.19 6.49 6.49 0 0 1-2.37.42zm0-2.85a2.66 2.66 0 0 0 1.07-.22 2.41 2.41 0 0 0 .84-.59 2.9 2.9 0 0 0 .56-.91 3.32 3.32 0 0 0 0-2.27 2.85 2.85 0 0 0-.56-.9 2.53 2.53 0 0 0-.85-.6 2.67 2.67 0 0 0-1.06-.21 2.74 2.74 0 0 0-1.08.21 2.43 2.43 0 0 0-.85.6 2.68 2.68 0 0 0-.56.9 3.17 3.17 0 0 0 0 2.27 2.73 2.73 0 0 0 .56.91 2.55 2.55 0 0 0 .85.59 2.74 2.74 0 0 0 1.1.2zm-53.03-33.42h-2.66v-2.86h8.7v2.86h-2.88v8.12h-3.16zm12.14-2.87v11h-3.1v-8l-1.8.55-.7-2.62 3.1-1zm9.9 8.32v2.66h-8.2v-1.12a3.69 3.69 0 0 1 .8-2.34 8.54 8.54 0 0 1 2.2-2l1-.65a5.2 5.2 0 0 0 .59-.45 1.54 1.54 0 0 0 .3-.38 1.08 1.08 0 0 0 .08-.42 1 1 0 0 0-.25-.73.9.9 0 0 0-.67-.24c-.63 0-.94.42-.94 1.26h-3.1a4.1 4.1 0 0 1 1.11-3.06 4.89 4.89 0 0 1 6-.17 3.3 3.3 0 0 1 1 2.61 3.61 3.61 0 0 1-.18 1.2 3.36 3.36 0 0 1-.55 1 4.56 4.56 0 0 1-.9.84l-1.24.86-.94.6a7.71 7.71 0 0 0-.71.53zm-180.8 18.77H156V200h8.7v2.86h-2.87V211h-3.17zm12.15-2.82v11h-3.1v-8l-1.8.56-.7-2.63 3.08-.95zm8.24 5.34a2.88 2.88 0 0 1 1.24 1 2.68 2.68 0 0 1 .42 1.52 3 3 0 0 1-.3 1.34 3.06 3.06 0 0 1-.86 1 4.26 4.26 0 0 1-1.31.67 5.86 5.86 0 0 1-1.67.23 4.21 4.21 0 0 1-3-1 4.08 4.08 0 0 1-1.16-2.93h3a1.26 1.26 0 0 0 .31.87 1.06 1.06 0 0 0 .78.31 1.21 1.21 0 0 0 .82-.27.9.9 0 0 0 .31-.73.88.88 0 0 0-.29-.69 1.26 1.26 0 0 0-.84-.26h-1.1v-2.2h1c.73 0 1.1-.3 1.1-.9a.85.85 0 0 0-.28-.67 1.15 1.15 0 0 0-.77-.24 1.11 1.11 0 0 0-.79.29 1.14 1.14 0 0 0-.32.8h-2.9a4.3 4.3 0 0 1 .36-1.56 3.32 3.32 0 0 1 .85-1.19A3.91 3.91 0 0 1 175 200a5.2 5.2 0 0 1 1.68-.26 5.31 5.31 0 0 1 1.59.23 3.65 3.65 0 0 1 1.22.65 2.72 2.72 0 0 1 .78 1 2.9 2.9 0 0 1 .28 1.29 2.49 2.49 0 0 1-1.49 2.43zm-8.52 106.3h-2.66v-2.85h8.7v2.85h-2.87v8.13h-3.17zm12.16-2.85v11h-3.1v-8l-1.8.56-.7-2.63 3.08-.94zm10.74 9.32h-1.2v1.67h-3.1v-1.67h-4.88v-2.4l4.6-6.9h3.4v6.75h1.2zm-6.18-2.56h2.18v-3.46zM79.54 405.1h-2.66v-2.86h8.7v2.86H82.7v8.13h-3.17zm12.14-2.85v11h-3.1v-8l-1.8.56-.7-2.63 3.1-.95zm6.87 3.7a3.67 3.67 0 0 1 1.42.27 3.13 3.13 0 0 1 1.12.76 3.57 3.57 0 0 1 .73 1.17 4.13 4.13 0 0 1 .26 1.47 4 4 0 0 1-.3 1.58 3.29 3.29 0 0 1-.87 1.21 3.75 3.75 0 0 1-1.35.78 5.33 5.33 0 0 1-1.76.27 4.22 4.22 0 0 1-2.94-1 3.8 3.8 0 0 1-1.17-2.77h3a1.13 1.13 0 0 0 .36.73 1.08 1.08 0 0 0 .75.27 1.1 1.1 0 0 0 .84-.35 1.27 1.27 0 0 0 .33-.91 1.22 1.22 0 0 0-.33-.87 1.15 1.15 0 0 0-.84-.35 1.17 1.17 0 0 0-.58.15 1.22 1.22 0 0 0-.44.41h-2.85v-6.52h7.56v2.66h-4.62v1.4a3.71 3.71 0 0 1 1.68-.37z"/><path d="M209.6 500.07H207v-2.86h8.7v2.86h-2.87v8.13h-3.17zm12.16-2.87v11h-3.1v-8l-1.8.56-.7-2.63 3.08-1zm6.84 3.3a3.62 3.62 0 0 1 1.26.43 3.51 3.51 0 0 1 1 .83 3.78 3.78 0 0 1 .67 1.15 3.93 3.93 0 0 1 .24 1.38 3.81 3.81 0 0 1-.34 1.61 4.14 4.14 0 0 1-.9 1.31 4.07 4.07 0 0 1-1.36.87 4.45 4.45 0 0 1-1.68.32 4.16 4.16 0 0 1-1.65-.33 4 4 0 0 1-1.34-.89 4.21 4.21 0 0 1-1.22-3 3.29 3.29 0 0 1 .07-.71 3.9 3.9 0 0 1 .21-.73 6.1 6.1 0 0 1 .4-.82l.63-1 2.5-3.74h3.63zm-1.08 5.1a1.22 1.22 0 0 0 .9-.36 1.29 1.29 0 0 0 .36-.93 1.23 1.23 0 0 0-1.26-1.27 1.18 1.18 0 0 0-.89.36 1.26 1.26 0 0 0-.35.91 1.33 1.33 0 0 0 .35.93 1.18 1.18 0 0 0 .89.36zm9.54-114.6h-2.66v-2.85h8.7V391h-2.87v8.13h-3.17zm12.14-2.84v11h-3.1v-8l-1.8.55-.7-2.63 3.08-.94zm9.5 0v2.6l-4 8.4h-3.38l4.1-8.2h-4.6v-2.8zm107.45 10.27h-2.66v-2.86h8.7v2.86h-2.87v8.13h-3.17zm12.15-2.86v11h-3.1v-8l-1.8.56-.7-2.63 3.08-.95zm8.76 5.23a2.82 2.82 0 0 1 1.55 2.66 3.23 3.23 0 0 1-.29 1.37 2.82 2.82 0 0 1-.85 1 3.84 3.84 0 0 1-1.36.66 6.2 6.2 0 0 1-1.79.24 5 5 0 0 1-3.14-.88 2.89 2.89 0 0 1-1.14-2.42 3.07 3.07 0 0 1 .39-1.59 3 3 0 0 1 1.15-1.07 2.77 2.77 0 0 1-1-1 2.7 2.7 0 0 1-.34-1.37 2.82 2.82 0 0 1 .28-1.27 2.77 2.77 0 0 1 .83-1 4.08 4.08 0 0 1 1.29-.63 6.21 6.21 0 0 1 1.68-.22 6.35 6.35 0 0 1 1.69.22 4.08 4.08 0 0 1 1.29.63 2.88 2.88 0 0 1 .76 3.62 2.77 2.77 0 0 1-1 1.05zm-2.74 3.64a1.21 1.21 0 0 0 .86-.31 1.06 1.06 0 0 0 .33-.81 1.15 1.15 0 0 0-.33-.85 1.12 1.12 0 0 0-.84-.33 1.18 1.18 0 0 0-.88.34 1.16 1.16 0 0 0-.33.85 1 1 0 0 0 .33.81 1.25 1.25 0 0 0 .86.3zm0-6.77a1.13 1.13 0 0 0-.79.29 1 1 0 0 0-.31.72 1.1 1.1 0 0 0 1.85.78 1 1 0 0 0 .31-.78 1 1 0 0 0-1.04-1.01zm10.52-43.75h-2.66v-2.86h8.7v2.86H398v8.13h-3.17zm12.16-2.86v11h-3.1v-8l-1.8.56-.7-2.63 3.08-.95zm4.7 7.7a3.71 3.71 0 0 1-2.95-2.41 4.16 4.16 0 0 1-.23-1.38 4 4 0 0 1 .33-1.61 4.12 4.12 0 0 1 2.26-2.18 4.26 4.26 0 0 1 1.68-.32 4.2 4.2 0 0 1 1.66.33 4 4 0 0 1 1.34.89 4.15 4.15 0 0 1 1.21 3 4.2 4.2 0 0 1-.06.72 4.84 4.84 0 0 1-.21.73 6.1 6.1 0 0 1-.4.82l-.63 1-2.5 3.74h-3.64zm1.08-5.1a1.22 1.22 0 0 0-.9.36 1.29 1.29 0 0 0-.36.93 1.23 1.23 0 0 0 1.26 1.27 1.2 1.2 0 0 0 .89-.36 1.26 1.26 0 0 0 .33-.86 1.33 1.33 0 0 0-.35-.93 1.2 1.2 0 0 0-.87-.41zm88.9-38.3H499v-2.86h8.7v2.86h-2.87v8.13h-3.17zm15.13 5.46v2.66h-8.2v-1.13a3.75 3.75 0 0 1 .8-2.34 8.89 8.89 0 0 1 2.2-1.95l1-.65a6.53 6.53 0 0 0 .59-.46 1.11 1.11 0 0 0 .3-.38 1.08 1.08 0 0 0 .08-.42 1 1 0 0 0-.91-.96c-.64 0-.95.42-.95 1.26h-3.1a4.14 4.14 0 0 1 1.11-3.07 4.21 4.21 0 0 1 3.09-1.1 4.15 4.15 0 0 1 2.87.93 3.3 3.3 0 0 1 1 2.61 3.6 3.6 0 0 1-.19 1.2 3.28 3.28 0 0 1-.55 1 5.24 5.24 0 0 1-.9.84 21.3 21.3 0 0 1-1.24.86l-.94.6a6.24 6.24 0 0 0-.71.53zm6.86 2.88a6.49 6.49 0 0 1-2.37-.42 5.6 5.6 0 0 1-1.86-1.19 5.26 5.26 0 0 1-1.22-1.8 6.34 6.34 0 0 1 0-4.59 5.21 5.21 0 0 1 1.22-1.81 5.55 5.55 0 0 1 1.86-1.17 6.29 6.29 0 0 1 2.37-.43 6.2 6.2 0 0 1 2.36.43 5.55 5.55 0 0 1 1.86 1.17 5.08 5.08 0 0 1 1.22 1.81 6.34 6.34 0 0 1 0 4.59 5.13 5.13 0 0 1-1.22 1.8 5.6 5.6 0 0 1-1.86 1.19 6.39 6.39 0 0 1-2.36.42zm0-2.86a2.7 2.7 0 0 0 1.08-.21 2.41 2.41 0 0 0 .84-.59 2.9 2.9 0 0 0 .56-.91 3.32 3.32 0 0 0 0-2.27 2.77 2.77 0 0 0-.57-.9 2.43 2.43 0 0 0-.85-.6 2.81 2.81 0 0 0-2.13 0 2.43 2.43 0 0 0-.85.6 2.77 2.77 0 0 0-.57.9 3.32 3.32 0 0 0 0 2.27 2.92 2.92 0 0 0 .57.91 2.55 2.55 0 0 0 .85.59 2.65 2.65 0 0 0 1.08.21zm4.22-73.72h-2.66v-2.86h8.7v2.86h-2.87v8.12h-3.17zm11.35.43a3.41 3.41 0 0 1 1.26.42 3.71 3.71 0 0 1 1 .83 3.63 3.63 0 0 1 .67 1.16 3.83 3.83 0 0 1 .24 1.37 4 4 0 0 1-.33 1.62 4.33 4.33 0 0 1-.91 1.31 4.13 4.13 0 0 1-1.35.87 4.54 4.54 0 0 1-1.69.32 4.16 4.16 0 0 1-1.65-.33 4 4 0 0 1-1.34-.89 4.21 4.21 0 0 1-1.22-3 4 4 0 0 1 .07-.71 3.69 3.69 0 0 1 .21-.73 5.57 5.57 0 0 1 .4-.82l.63-1 2.5-3.74h3.64zm-1.08 5.1a1.19 1.19 0 0 0 .9-.37 1.25 1.25 0 0 0 .36-.92 1.23 1.23 0 0 0-1.26-1.27 1.2 1.2 0 0 0-.89.36 1.26 1.26 0 0 0-.35.91 1.28 1.28 0 0 0 .35.92 1.17 1.17 0 0 0 .89.37z"/></g><path d="M856.5 41.7a4.29 4.29 0 0 1-3-1 3.94 3.94 0 0 1-1.23-2.83h1.46a2.72 2.72 0 0 0 .83 1.88 2.67 2.67 0 0 0 1.93.72 3 3 0 0 0 1.94-.58 1.88 1.88 0 0 0 .72-1.56 1.77 1.77 0 0 0-.42-1.24 4 4 0 0 0-1.43-.86l-1.8-.7a4.69 4.69 0 0 1-2.08-1.37 3.26 3.26 0 0 1-.64-2.07 3 3 0 0 1 .27-1.29 3 3 0 0 1 .78-1 3.62 3.62 0 0 1 1.2-.64 4.7 4.7 0 0 1 1.54-.23 4 4 0 0 1 2.75.9 3.5 3.5 0 0 1 1.12 2.51H859a2.27 2.27 0 0 0-.69-1.57 2.46 2.46 0 0 0-1.73-.57 2.64 2.64 0 0 0-1.69.51 1.63 1.63 0 0 0-.65 1.35 2 2 0 0 0 .44 1.33 3.61 3.61 0 0 0 1.44.92l1.83.7a4.72 4.72 0 0 1 2 1.3 3 3 0 0 1 .62 2 3.52 3.52 0 0 1-.28 1.44 3.08 3.08 0 0 1-.82 1.1 3.8 3.8 0 0 1-1.29.69 5.63 5.63 0 0 1-1.69.15zm6.7-12.6h7.15v1.3h-5.7v4h5.53v1.3h-5.53v4.48h5.9v1.3h-7.35zm15.57 12.6a6.66 6.66 0 0 1-2.55-.49 6.44 6.44 0 0 1-2-1.35 6.1 6.1 0 0 1-1.34-2 6.52 6.52 0 0 1-.49-2.56 6.41 6.41 0 0 1 .49-2.53 6 6 0 0 1 3.38-3.37 6.53 6.53 0 0 1 2.54-.49 7 7 0 0 1 2.18.33 5.94 5.94 0 0 1 1.8.94 5.39 5.39 0 0 1 1.31 1.46 5.47 5.47 0 0 1 .74 1.91h-1.55a4.2 4.2 0 0 0-.61-1.36 3.88 3.88 0 0 0-1-1 4.5 4.5 0 0 0-1.31-.67 5.25 5.25 0 0 0-1.56-.23 4.85 4.85 0 0 0-1.95.39 4.76 4.76 0 0 0-1.57 1.07 5 5 0 0 0-1 1.6 5.45 5.45 0 0 0 0 4 5 5 0 0 0 1 1.61 4.73 4.73 0 0 0 1.56 1.03 4.85 4.85 0 0 0 1.95.39 4.68 4.68 0 0 0 2.86-.89 4.31 4.31 0 0 0 1.6-2.43h1.55a5.69 5.69 0 0 1-2 3.4 6.42 6.42 0 0 1-1.8.94 7 7 0 0 1-2.23.3zm10.95-11.3h-3.67v-1.3h8.9v1.3h-3.78v11.1h-1.44zm12.68 11.3a6.64 6.64 0 0 1-2.54-.49 6.22 6.22 0 0 1-3.39-3.39 6.8 6.8 0 0 1 0-5.07 6.12 6.12 0 0 1 3.38-3.37 6.55 6.55 0 0 1 2.55-.49 6.45 6.45 0 0 1 2.53.49 6.06 6.06 0 0 1 3.37 3.37 6.8 6.8 0 0 1 0 5.07 6.18 6.18 0 0 1-3.37 3.39 6.63 6.63 0 0 1-2.53.49zm0-1.35a4.93 4.93 0 0 0 3.52-1.45 5 5 0 0 0 1-1.62 5.52 5.52 0 0 0 .37-2 5.28 5.28 0 0 0-.38-2 5.12 5.12 0 0 0-1-1.6 4.69 4.69 0 0 0-1.56-1.06 5.22 5.22 0 0 0-3.91 0 4.69 4.69 0 0 0-1.56 1.06 5.12 5.12 0 0 0-1 1.6 5.28 5.28 0 0 0-.38 2 5.52 5.52 0 0 0 .37 2 4.9 4.9 0 0 0 1 1.62 4.69 4.69 0 0 0 1.57 1.09 4.9 4.9 0 0 0 1.96.36zm9.1-11.25h3.85a4 4 0 0 1 2.87 1 3.43 3.43 0 0 1 1 2.64 3.63 3.63 0 0 1-.73 2.33 3.53 3.53 0 0 1-2 1.25l3.5 5.18h-1.7l-3.37-5.08h-2v5.08h-1.44zm3.76 6a2.62 2.62 0 0 0 1.83-.62 2.26 2.26 0 0 0 .66-1.74 2.22 2.22 0 0 0-.65-1.71 2.56 2.56 0 0 0-1.84-.61h-2.34v4.68zm15.07-6v12.4h-1.44V30.57l-2.36.74-.35-1.25 2.9-1z" opacity=".5" fill="#fff"/><path d="M203.67 285.45a4.29 4.29 0 0 1-3-1 3.94 3.94 0 0 1-1.23-2.83h1.46a2.65 2.65 0 0 0 2.76 2.6 3 3 0 0 0 1.94-.57 1.9 1.9 0 0 0 .72-1.57 1.75 1.75 0 0 0-.42-1.23 3.77 3.77 0 0 0-1.42-.87l-1.8-.68a4.76 4.76 0 0 1-2.09-1.38 3.22 3.22 0 0 1-.64-2.07 2.9 2.9 0 0 1 .28-1.29 2.8 2.8 0 0 1 .77-1 3.63 3.63 0 0 1 1.2-.65 5 5 0 0 1 1.55-.23 4 4 0 0 1 2.74.9 3.56 3.56 0 0 1 1.13 2.51h-1.46a2.29 2.29 0 0 0-.69-1.57 2.45 2.45 0 0 0-1.72-.57 2.67 2.67 0 0 0-1.7.51 1.64 1.64 0 0 0-.64 1.36 2 2 0 0 0 .43 1.32 3.66 3.66 0 0 0 1.45.92l1.82.7a4.7 4.7 0 0 1 2 1.3 3 3 0 0 1 .61 2 3.51 3.51 0 0 1-.28 1.43 3.08 3.08 0 0 1-.82 1.1 3.8 3.8 0 0 1-1.29.69 5.63 5.63 0 0 1-1.67.17zm6.7-12.6h7.15v1.3h-5.7v4h5.53v1.3h-5.53v4.52h5.92v1.3h-7.36zm15.62 12.6a6.49 6.49 0 0 1-2.56-.49 6.1 6.1 0 0 1-2-1.34 6.17 6.17 0 0 1-1.35-2 6.85 6.85 0 0 1 0-5.09 6.27 6.27 0 0 1 1.35-2 6.14 6.14 0 0 1 2-1.34 6.55 6.55 0 0 1 2.55-.49 7 7 0 0 1 2.17.33 5.92 5.92 0 0 1 1.8.94 5.8 5.8 0 0 1 1.32 1.47 5.61 5.61 0 0 1 .73 1.9h-1.54a4.79 4.79 0 0 0-.61-1.36 4.25 4.25 0 0 0-2.3-1.7A4.91 4.91 0 0 0 226 274a4.85 4.85 0 0 0-1.95.38 4.81 4.81 0 0 0-2.61 2.68 5.19 5.19 0 0 0-.38 2 5.33 5.33 0 0 0 .38 2 5.08 5.08 0 0 0 1 1.6 5 5 0 0 0 1.57 1.07 4.85 4.85 0 0 0 1.95.39 4.62 4.62 0 0 0 2.86-.9 4.35 4.35 0 0 0 1.61-2.42H232a5.58 5.58 0 0 1-.73 1.91 5.59 5.59 0 0 1-3.12 2.42 7 7 0 0 1-2.15.32zm10.9-11.3h-3.66v-1.3h8.88v1.3h-3.78v11.1h-1.44zm12.67 11.3A6.46 6.46 0 0 1 247 285a6 6 0 0 1-2-1.35 6.34 6.34 0 0 1-1.36-2 6.8 6.8 0 0 1 0-5.07 6.44 6.44 0 0 1 1.35-2 6.14 6.14 0 0 1 2-1.34 6.55 6.55 0 0 1 2.55-.49 6.41 6.41 0 0 1 2.53.49 6.14 6.14 0 0 1 2 1.34 6.25 6.25 0 0 1 1.34 2 6.8 6.8 0 0 1 0 5.07 6.29 6.29 0 0 1-1.34 2 6 6 0 0 1-2 1.35 6.41 6.41 0 0 1-2.5.45zm0-1.34a4.85 4.85 0 0 0 2-.39 4.92 4.92 0 0 0 1.57-1.07 5 5 0 0 0 1-1.61 5.37 5.37 0 0 0 .37-2 5.22 5.22 0 0 0-.38-2 5.16 5.16 0 0 0-1-1.61 4.84 4.84 0 0 0-1.56-1.06 5 5 0 0 0-2-.37 5.1 5.1 0 0 0-2 .37 4.7 4.7 0 0 0-1.55 1.06 5.09 5.09 0 0 0-1.41 3.6 5.57 5.57 0 0 0 .36 2 4.84 4.84 0 0 0 2.6 2.68 4.93 4.93 0 0 0 2 .4zm9.1-11.27h3.85a4.07 4.07 0 0 1 2.87 1 3.46 3.46 0 0 1 1 2.65 3.64 3.64 0 0 1-.73 2.33 3.49 3.49 0 0 1-2 1.24l3.52 5.22h-1.72l-3.37-5.1h-2v5.1h-1.44zm3.76 6a2.59 2.59 0 0 0 1.83-.61 2.3 2.3 0 0 0 .66-1.75 2.25 2.25 0 0 0-.64-1.71 2.63 2.63 0 0 0-1.85-.61h-2.34v4.68zm19.57 5.1v1.3h-8.07v-.74a4.3 4.3 0 0 1 .32-1.7 5.4 5.4 0 0 1 .82-1.33 6.23 6.23 0 0 1 1.1-1l1.13-.76q.8-.5 1.38-.87a5.37 5.37 0 0 0 .93-.72 2.3 2.3 0 0 0 .53-.78 2.63 2.63 0 0 0 .17-1A2.17 2.17 0 0 0 278 274a2.34 2.34 0 0 0-1.78.7 2.62 2.62 0 0 0-.67 1.88h-1.48a4.45 4.45 0 0 1 .29-1.62 3.61 3.61 0 0 1 .79-1.24 3.43 3.43 0 0 1 1.23-.79 4.3 4.3 0 0 1 1.6-.28 4.47 4.47 0 0 1 1.53.25 3.31 3.31 0 0 1 1.2.73 3.23 3.23 0 0 1 .77 1.16 3.9 3.9 0 0 1 .28 1.53 3.59 3.59 0 0 1-.25 1.41 3.66 3.66 0 0 1-.71 1.09 6.65 6.65 0 0 1-1.09.91l-1.36.88-1.15.78a6.06 6.06 0 0 0-.88.75 4.52 4.52 0 0 0-.6.82 3.29 3.29 0 0 0-.32 1z" opacity=".5" fill="#fff"/><path d="M456.76 367.06a4.29 4.29 0 0 1-3-1 3.94 3.94 0 0 1-1.23-2.83H454a2.72 2.72 0 0 0 .83 1.88 2.68 2.68 0 0 0 1.93.72 3 3 0 0 0 1.94-.58 1.88 1.88 0 0 0 .72-1.56 1.77 1.77 0 0 0-.42-1.24 3.87 3.87 0 0 0-1.43-.86l-1.8-.7a4.69 4.69 0 0 1-2.08-1.37 3.26 3.26 0 0 1-.64-2.07 3 3 0 0 1 .27-1.29 3.08 3.08 0 0 1 .78-1 3.62 3.62 0 0 1 1.2-.64 5 5 0 0 1 1.54-.23 4 4 0 0 1 2.75.9 3.54 3.54 0 0 1 1.13 2.51h-1.46a2.27 2.27 0 0 0-.69-1.57 2.46 2.46 0 0 0-1.73-.57 2.64 2.64 0 0 0-1.69.51 1.63 1.63 0 0 0-.65 1.35 2 2 0 0 0 .44 1.33 3.61 3.61 0 0 0 1.44.92l1.83.7a4.72 4.72 0 0 1 2 1.3 3 3 0 0 1 .62 2 3.52 3.52 0 0 1-.28 1.44 3.08 3.08 0 0 1-.82 1.1 3.8 3.8 0 0 1-1.29.69 5.63 5.63 0 0 1-1.69.15zm6.7-12.6h7.15v1.3h-5.7v4h5.53V361h-5.53v4.52h5.9v1.3h-7.35zm15.53 12.6a6.48 6.48 0 0 1-2.55-.49 6.27 6.27 0 0 1-2-1.35 6.1 6.1 0 0 1-1.34-2 6.49 6.49 0 0 1-.49-2.56 6.41 6.41 0 0 1 .49-2.53 6 6 0 0 1 3.38-3.37 6.53 6.53 0 0 1 2.54-.49 7 7 0 0 1 2.18.33 5.82 5.82 0 0 1 1.8.94 5.43 5.43 0 0 1 1.31 1.47 5.35 5.35 0 0 1 .74 1.9h-1.55a4.51 4.51 0 0 0-.6-1.36 4.08 4.08 0 0 0-1-1 4.5 4.5 0 0 0-1.31-.67 5.25 5.25 0 0 0-1.56-.23 4.85 4.85 0 0 0-1.95.39 5 5 0 0 0-1.57 1.07 5.08 5.08 0 0 0-1 1.6 5.45 5.45 0 0 0 0 4 4.82 4.82 0 0 0 4.56 3.06 4.62 4.62 0 0 0 2.86-.89 4.28 4.28 0 0 0 1.6-2.43h1.55a5.69 5.69 0 0 1-2.05 3.4 6 6 0 0 1-1.8.94 7 7 0 0 1-2.24.27zm11-11.3h-3.66v-1.3h8.88v1.3h-3.78v11.1H490zm12.66 11.3a6.46 6.46 0 0 1-2.54-.49 6.22 6.22 0 0 1-3.39-3.39 6.8 6.8 0 0 1 0-5.07 6.12 6.12 0 0 1 3.38-3.37 6.55 6.55 0 0 1 2.55-.49 6.41 6.41 0 0 1 2.53.49 6.06 6.06 0 0 1 3.37 3.37 6.8 6.8 0 0 1 0 5.07 6.18 6.18 0 0 1-3.37 3.39 6.41 6.41 0 0 1-2.53.49zm0-1.35a4.82 4.82 0 0 0 3.52-1.45 4.93 4.93 0 0 0 1-1.62 5.54 5.54 0 0 0 .37-2 5.16 5.16 0 0 0-1.41-3.59 4.69 4.69 0 0 0-1.56-1.06 5.22 5.22 0 0 0-3.91 0 4.69 4.69 0 0 0-1.56 1.06 5.16 5.16 0 0 0-1.41 3.59 5.54 5.54 0 0 0 .37 2 4.8 4.8 0 0 0 1 1.62 4.87 4.87 0 0 0 1.56 1.07 5.07 5.07 0 0 0 2.03.38zm9.1-11.26h3.85a4 4 0 0 1 2.87 1 3.43 3.43 0 0 1 1 2.64 3.65 3.65 0 0 1-.73 2.34 3.51 3.51 0 0 1-2 1.24l3.52 5.22h-1.7l-3.37-5.1h-2v5.1h-1.44zm3.76 6a2.57 2.57 0 0 0 1.83-.62 2.26 2.26 0 0 0 .66-1.74 2.24 2.24 0 0 0-.65-1.71 2.56 2.56 0 0 0-1.84-.61h-2.34v4.68zm17.58-.15a3.1 3.1 0 0 1 1.45 1.15 3.26 3.26 0 0 1 .51 1.84 3.57 3.57 0 0 1-.32 1.5 3.4 3.4 0 0 1-.86 1.19 4.12 4.12 0 0 1-1.32.78 4.76 4.76 0 0 1-1.67.29 4.67 4.67 0 0 1-1.62-.27A3.51 3.51 0 0 1 528 366a3.45 3.45 0 0 1-.82-1.24 4.64 4.64 0 0 1-.33-1.63h1.45a2.66 2.66 0 0 0 .7 1.87 2.43 2.43 0 0 0 1.82.7 3.48 3.48 0 0 0 1.1-.17 2.68 2.68 0 0 0 .86-.49 2.09 2.09 0 0 0 .55-.76 2.37 2.37 0 0 0 .19-1 2.1 2.1 0 0 0-.71-1.7 3 3 0 0 0-2-.61h-1.2v-1.3h1.22a2.49 2.49 0 0 0 1.7-.53 2 2 0 0 0 .6-1.55 1.91 1.91 0 0 0-.59-1.5 2.36 2.36 0 0 0-1.66-.55 2.48 2.48 0 0 0-1.71.58 2 2 0 0 0-.7 1.51H527a3.26 3.26 0 0 1 .33-1.38 3.54 3.54 0 0 1 .83-1.08 3.88 3.88 0 0 1 1.22-.71 4.24 4.24 0 0 1 1.53-.26 4.51 4.51 0 0 1 1.51.24 3.4 3.4 0 0 1 1.16.67 3.06 3.06 0 0 1 .75 1 3.34 3.34 0 0 1 .27 1.36 3.28 3.28 0 0 1-.4 1.63 3 3 0 0 1-1.1 1.2z" opacity=".5" fill="#fff"/><path d="M462.1 223.84h-2.66V221h8.7v2.86h-2.87V232h-3.17zm12.1.83a3.63 3.63 0 0 1 1.42.27 3.13 3.13 0 0 1 1.12.76 3.68 3.68 0 0 1 .73 1.17 4.14 4.14 0 0 1 .26 1.48 4 4 0 0 1-.3 1.57 3.41 3.41 0 0 1-.87 1.22 3.92 3.92 0 0 1-1.34.77 5.44 5.44 0 0 1-1.77.27 4.17 4.17 0 0 1-2.93-1 3.8 3.8 0 0 1-1.18-2.76h3a1.1 1.1 0 0 0 .37.72 1.05 1.05 0 0 0 .74.27 1.09 1.09 0 0 0 .85-.35 1.29 1.29 0 0 0 .32-.9 1.25 1.25 0 0 0-.33-.88 1.12 1.12 0 0 0-.84-.35 1.1 1.1 0 0 0-.57.15 1.23 1.23 0 0 0-.44.41h-2.85V221h7.55v2.66h-4.62v1.4a3.71 3.71 0 0 1 1.68-.4z" fill="#fff"/></svg>