<svg xmlns="http://www.w3.org/2000/svg" xmlns:xlink="http://www.w3.org/1999/xlink" viewBox="0 0 1062.67 537.87"><style><![CDATA[.I{fill:#fff}.J{opacity:.3}.K{fill:#010101}]]></style><g class="I"><path d="M186.7 495.5a8.49 8.49 0 0 1-3.53-.74 10.11 10.11 0 0 1-5.38-7.7c-.76-5.12 1.7-10.43 3.48-14.3l1-2.17 7.25-19.1c5.16-13.84 10-26.9 16.4-40.32 4.18-8.84 9.2-19 15.65-28.2 6-8.52 13.2-16.13 20.14-23.5l10.6-11.5 27.46-31.6c2.1-2.42 4.28-4.78 6.4-7.07 4.5-4.86 8.77-9.45 12.2-14.67a56.47 56.47 0 0 0 4.48-9 67.29 67.29 0 0 1 4.79-9.72c2.9-4.62 6.1-9.45 10.4-13.25 5.32-4.7 11.72-7.84 16.7-10a62 62 0 0 1 11.62-3.46 50.05 50.05 0 0 0 10.79-3.3c4.22-2 7.92-5 11.83-8.08l2.35-1.86c5.27-4.1 10.38-8.72 15.33-13.17l8.77-7.8 5-4.34 20.43-17.35c6.92-5.68 13.43-11 20.18-16 3.45-2.56 6.6-4.85 10-6.95a172.45 172.45 0 0 1 16.22-8.61c8.3-3.9 16.9-7.3 25.23-10.6l18.48-7.55c39.87-17.4 99.9-45.36 135.8-62.07l27.08-12.56c3.16-1.42 6.36-3 9.46-4.48 8.23-4 16.74-8.12 25.87-10.6a28.74 28.74 0 0 1 7.36-1.24 15 15 0 0 1 2.25.16c5 .77 9.1 3.34 11.8 5.2a30.05 30.05 0 0 1 5.61 5.44c.86 1 1.67 1.93 2.5 2.74.42.4.8.8 1.2 1.2a10.94 10.94 0 0 0 1.94 1.74 12.89 12.89 0 0 0 5 1.51 11.55 11.55 0 0 0 4.56-.57A52.87 52.87 0 0 0 762.19 65c2.54-1.42 5.17-2.9 8-4.12l2.22-1a58 58 0 0 1 10.3-3.88 36.92 36.92 0 0 1 8.61-1.33 18.36 18.36 0 0 1 2.91.22 22.41 22.41 0 0 1 11.65 5.38c15 14 31.17 30.58 46.8 46.66l9.47 9.72q1.9 1.94 3.8 3.85c3.86 3.88 7.84 7.9 11.5 12.17l1.1 1.25a30.71 30.71 0 0 1 4.75 6.45c1.66 3.3 3.55 7.7 3.38 12.4a20.4 20.4 0 0 1-3.63 10.23 21.58 21.58 0 0 1-6.51 6.5 24.18 24.18 0 0 1-8.58 3.32 21 21 0 0 1-8.15.11A24.7 24.7 0 0 1 851 169a40.48 40.48 0 0 1-7.13-6.63l-1.85-2c-4.57-4.77-9.43-10.47-14.14-16-4.84-5.68-9.42-11-12.63-14.12-1.4-1.33-5.1-1.72-6.3-1.85a17.65 17.65 0 0 0-6.94.86 39.67 39.67 0 0 0-8.46 4.33c-1.82 1.12-3.7 2.28-5.73 3.3-5.75 2.9-11.65 5.63-17.37 8.28l-3.98 1.84-6.2 2.92c-5.86 2.77-11.9 5.64-18 8.16-9.25 3.8-18.56 7-27.3 10-8.35 2.84-16.9 5.4-25.15 7.9L664 184.12c-1.23.43-2.47.83-3.7 1.23a70.16 70.16 0 0 0-10.51 4 40.45 40.45 0 0 0-9 6.13 23.86 23.86 0 0 0-5.42 6.68c-1.57 3.27-2 7.37-2.4 11a57.8 57.8 0 0 0 0 9.21l.1 2.18a93.29 93.29 0 0 0 1.15 12.33 73.57 73.57 0 0 0 4.25 15.15 44.42 44.42 0 0 0 6.28 11.16 31.88 31.88 0 0 0 6.25 5.39 68.55 68.55 0 0 0 8.31 4.83l1 .52a61.52 61.52 0 0 0 9.06 4.15c8.3 2.75 16.88 4.18 25.94 5.7 5.28.88 10.74 1.8 16.1 3 22.9 5.1 40.32 9.25 56.47 13.45 1.78.46 3.64.9 5.44 1.3a75.71 75.71 0 0 1 14.78 4.47 31.48 31.48 0 0 1 8.89 5.85 27 27 0 0 1 6.46 9.21 27.78 27.78 0 0 1 1.84 11.5 40.51 40.51 0 0 1-1.58 8.67l-.56 2.16a70.37 70.37 0 0 1-2.17 6.94 40.21 40.21 0 0 0-2.47 9.17 23.13 23.13 0 0 0 5 16.88 12.13 12.13 0 0 0 2.78 2.15 152.87 152.87 0 0 0 28 13.54l7.28 2.67c11.55 4.17 23.5 8.47 33.7 15.8a28.37 28.37 0 0 1 8.31 9 22.2 22.2 0 0 1 2.88 10.88c-.06 3.95-1.26 8.05-3.8 12.93-6.56 12.63-12.63 23.43-20.95 35.1a36.83 36.83 0 0 1-9.76 9.29 33.82 33.82 0 0 1-10.83 4.64 46.45 46.45 0 0 1-10.71 1.13c-1.6 0-3.28 0-5.17-.17-10.14-.64-20.15-3-28.6-5.3a144.38 144.38 0 0 1-25.38-9c-10.88-5.2-20.87-12-30-18.5a226.21 226.21 0 0 1-27.41-22.44c-9.3-9.1-17.5-19.4-25.4-29.33l-4.53-5.67c-3.4-4.22-6.56-8.67-9.63-13-3.92-5.5-8-11.2-12.42-16.27l-1.27-1.45c-5.54-6.35-11.27-12.92-18-17.67-5.2-3.67-11.2-6.1-17.53-8.7l-4.52-1.87a205.51 205.51 0 0 0-24.43-9 257.53 257.53 0 0 0-41.82-8.13h-.18a97.92 97.92 0 0 0-10.33-.75 33.7 33.7 0 0 0-5.44.4c-5.17.85-10.22 3.13-14.94 5.4a127.23 127.23 0 0 0-15 9.05c-2.95 2-6 4-9.12 5.85l-9.26 5.68c-8.18 5.08-16.65 10.33-25.58 14.6a156.9 156.9 0 0 1-17.47 6.69l-1.5.5c-5.63 1.9-11.4 3.54-17 5.12l-2.6.75-17.4 5.08c-19.56 5.78-39.8 11.76-46.86 12.2h-.43c-3.4 0-7.5-2.52-9.35-5.72a8.74 8.74 0 0 1-.79-5.76 6.58 6.58 0 0 0 .09-.94 32.1 32.1 0 0 1 .28-3.91 11.55 11.55 0 0 0 0-4.32 3.39 3.39 0 0 0-1.23-1.65 1.79 1.79 0 0 0-1-.16 8.76 8.76 0 0 0-3.91 2.21l-13.56 11.74-19.33 16.44c-29.16 23.42-60.88 47.26-102.85 77.3-1.42 1-2.8 2.12-4.27 3.3-3.7 3-7.54 6-12.3 7.87l-.22.08a16.93 16.93 0 0 1-6.05 1.45zM716.55 61.18a21.27 21.27 0 0 0-5.12.94c-8.36 2.26-16.14 6-24.37 10l-9.67 4.58-27 12.5-136 62.17c-6.2 2.7-12.6 5.22-18.77 7.66-8.2 3.23-16.68 6.58-24.72 10.37a164.69 164.69 0 0 0-15.41 8.18c-3.13 1.9-6.1 4.08-9.38 6.52-6.6 4.9-12.9 10-19.85 15.74S412.63 211.4 406 217.1l-5 4.36c-2.9 2.5-5.8 5.12-8.63 7.66-5 4.55-10.28 9.26-15.8 13.56l-2.3 1.8c-4.1 3.25-8.33 6.6-13.4 9.08a57.48 57.48 0 0 1-12.66 3.95 54 54 0 0 0-10 2.94c-4.4 1.95-10 4.7-14.5 8.62-3.45 3.05-6.14 7.13-8.82 11.4a61.45 61.45 0 0 0-4.16 8.53 64 64 0 0 1-5.21 10.36c-3.83 5.8-8.53 10.88-13.07 15.78l-6.18 6.83-27.5 31.65c-3.52 4-7.23 7.95-10.82 11.75-6.74 7.14-13.7 14.52-19.36 22.53-6.07 8.6-10.88 18.42-14.92 26.94-6.2 13.1-11 26-16.1 39.64l-7.3 19.24c-.3.8-.73 1.7-1.17 2.65-1.26 2.73-3.17 6.85-2.78 9.44a2.56 2.56 0 0 0 .46 1.13 11.42 11.42 0 0 0 3-.89l.22-.08c3.52-1.36 6.68-3.88 10-6.56 1.5-1.2 3-2.42 4.63-3.57 41.83-29.95 73.44-53.7 102.48-77 6.6-5.3 12.64-10.6 19-16.2l13.68-11.84a16.63 16.63 0 0 1 8.2-4.14 10.28 10.28 0 0 1 6.71 1.35 11.77 11.77 0 0 1 4.85 6.2 17.92 17.92 0 0 1 .38 8 25.69 25.69 0 0 0-.23 2.85 15.88 15.88 0 0 1-.15 2.09c0 .2-.06.48-.08.7a4.54 4.54 0 0 0 1.78 1.14c6.1-.42 27.55-6.76 44.8-11.86l17.47-5.1 2.62-.74c5.48-1.56 11.14-3.16 16.57-5l1.5-.5a152.3 152.3 0 0 0 16.54-6.3c8.5-4.06 16.75-9.18 24.74-14.14l9.38-5.75c2.95-1.77 5.9-3.73 8.77-5.64a135.52 135.52 0 0 1 16.07-9.63c5-2.43 11-5.1 17.27-6.14a42.8 42.8 0 0 1 6.82-.51 105.6 105.6 0 0 1 11.25.8h.18a266.73 266.73 0 0 1 43.19 8.57 215.84 215.84 0 0 1 25.46 9.33q2.2.93 4.4 1.83c6.5 2.66 13.24 5.4 19.24 9.64 7.56 5.34 13.63 12.3 19.5 19l1.26 1.44a212.8 212.8 0 0 1 13 16.93c3 4.2 6.1 8.55 9.34 12.6q2.28 2.83 4.54 5.7c7.76 9.74 15.77 19.8 24.7 28.55a218 218 0 0 0 26.39 21.58c8.86 6.3 18.47 12.82 28.76 17.74a137 137 0 0 0 23.91 8.42c8 2.16 17.53 4.44 26.92 5a71.93 71.93 0 0 0 4.63.16 38 38 0 0 0 8.75-.9 25.34 25.34 0 0 0 8.1-3.47 28 28 0 0 0 7.47-7.1c8-11.25 13.93-21.75 20.32-34.06 1.9-3.65 2.8-6.54 2.83-9.1a13.6 13.6 0 0 0-1.82-6.62 19.54 19.54 0 0 0-5.81-6.22c-9.23-6.64-20.6-10.74-31.6-14.7l-7.4-2.7a160.76 160.76 0 0 1-29.57-14.31 19.11 19.11 0 0 1-4.84-4 31.73 31.73 0 0 1-6.93-22.98 47.15 47.15 0 0 1 2.91-11.19c.75-2.12 1.45-4.12 1.94-6.12.18-.77.38-1.54.58-2.3a33.8 33.8 0 0 0 1.32-6.85 19.44 19.44 0 0 0-1.22-7.93 19 19 0 0 0-4.47-6.27 23 23 0 0 0-6.49-4.21c-4-1.85-8.5-2.86-13.2-3.94l-5.7-1.35c-16-4.18-33.37-8.3-56.17-13.4-5.13-1.14-10.48-2-15.64-2.9-9-1.5-18.28-3.06-27.2-6a68.35 68.35 0 0 1-10.36-4.7l-1-.5a75.19 75.19 0 0 1-9.35-5.46 39.45 39.45 0 0 1-7.89-6.95 52.33 52.33 0 0 1-7.55-13.28 82 82 0 0 1-4.77-16.89 100.84 100.84 0 0 1-1.27-13.47l-.1-2.14a64.73 64.73 0 0 1 0-10.6c.44-4.1 1-9.18 3.2-13.78a31.62 31.62 0 0 1 7.32-9.25 48.47 48.47 0 0 1 10.89-7.45 76.67 76.67 0 0 1 11.81-4.58l3.58-1.18c8.66-3 17.55-5.65 26.13-8.24l24.87-7.82c8.6-2.93 17.76-6.1 26.8-9.8 5.93-2.44 11.88-5.25 17.63-8l6.24-2.94 3.95-1.83 17.12-8.16c1.7-.85 3.35-1.86 5.1-2.94a46.46 46.46 0 0 1 10.38-5.2 26.05 26.05 0 0 1 10.4-1.2c3.64.4 8.22 1.2 11.32 4.18 3.52 3.37 8.24 8.9 13.23 14.74 4.63 5.42 9.4 11 13.8 15.6l2 2.16a33.89 33.89 0 0 0 5.59 5.29 16.27 16.27 0 0 0 5.79 2.6 12.61 12.61 0 0 0 4.82-.13 15.53 15.53 0 0 0 5.55-2.09 13.3 13.3 0 0 0 4-3.92 12.69 12.69 0 0 0 2.29-5.94c.1-2.73-1.27-5.84-2.48-8.23a23.53 23.53 0 0 0-3.49-4.61 50.74 50.74 0 0 1-1.2-1.36c-3.47-4-7.34-7.94-11.1-11.72l-3.85-3.9-9.48-9.72C831 96.85 814.87 80.3 800 66.5a13.93 13.93 0 0 0-7.18-3.18 9.26 9.26 0 0 0-1.54-.12 28.77 28.77 0 0 0-6.58 1.09 50.63 50.63 0 0 0-8.7 3.36l-2.3 1a80.24 80.24 0 0 0-7.2 3.75 60.82 60.82 0 0 1-12.64 5.84 20.21 20.21 0 0 1-7.87.86 21.15 21.15 0 0 1-8.39-2.6 17.38 17.38 0 0 1-3.82-3.2c-.3-.32-.62-.64-1-1-1.15-1.1-2.13-2.25-3.1-3.36a23.55 23.55 0 0 0-4-4c-3.2-2.22-5.73-3.4-8.2-3.77a7 7 0 0 0-.93.02z"/><path d="M205.6 463.68a7.47 7.47 0 0 1-3.05-.63 8.35 8.35 0 0 1-3.95-3.69 10.93 10.93 0 0 1-.76-5.39v-.15a57.18 57.18 0 0 1 2.28-12.57l.34-1.32c1.3-5 4.7-14.52 4.86-14.92l1.83.66c0 .1-3.54 9.8-4.8 14.75l-.34 1.32a55.75 55.75 0 0 0-2.21 12.14v.12a9.32 9.32 0 0 0 .54 4.44 6.46 6.46 0 0 0 3 2.8 5.53 5.53 0 0 0 3.37.35 11.22 11.22 0 0 0 4.21-2.4l67.28-52.17 30.84-24.2a31.85 31.85 0 0 0 5.36-6.44 37.61 37.61 0 0 1 4.16-5.33 49.25 49.25 0 0 1 4.9-4.18l2.35-1.9c1.26-1 2.5-2.1 3.74-3.18 2.65-2.27 5.4-4.62 8.26-6.74l1.28-.95a47.39 47.39 0 0 1 8.48-5.46l.44-.2c2.36-1.1 5-2.32 7.8-2.12a10.94 10.94 0 0 1 6.37 2.89 11.42 11.42 0 0 1 3.09 5.22 22.45 22.45 0 0 1 .53 8.4c-.25 3-4.9 10.9-5.43 11.8l-1.68-1c1.37-2.33 5-8.84 5.17-11a20.68 20.68 0 0 0-.46-7.67 9.73 9.73 0 0 0-2.52-4.34 9.06 9.06 0 0 0-5.21-2.4c-2.26-.17-4.6.9-6.84 1.95l-.44.2a47.45 47.45 0 0 0-8.14 5.25l-1.3 1c-2.8 2.07-5.52 4.4-8.14 6.65q-1.87 1.62-3.76 3.2c-.8.66-1.6 1.3-2.4 1.92a47.57 47.57 0 0 0-4.71 4 37.25 37.25 0 0 0-3.95 5.06 32.84 32.84 0 0 1-5.7 6.82c-4.57 3.9-18 14.26-30.9 24.27l-36.93 28.6-30.34 23.56a12.68 12.68 0 0 1-5 2.78 7.86 7.86 0 0 1-1.52.19z"/><path d="M268.76 463.8l8.24 1.02 3.3-2.56-8.24-1.03 1.03-8.27-3.3 2.57-1.03 8.27z" opacity=".8"/><path d="M263.27 468.16l8.24 1.02 3.3-2.56-8.24-1.03 1.03-8.27-3.3 2.56-1.03 8.28z" opacity=".9"/><path d="M257.63 472.5l8.24 1.03 3.3-2.57-8.24-1.02 1.03-8.28-3.3 2.57-1.03 8.27z"/><path d="M282.2 460.77l3.3-2.57-8.24-1.03 1.03-8.27-3.3 2.57-1.03 8.27 8.24 1.03z" opacity=".7"/><path d="M287.4 456.72l3.3-2.57-8.23-1.03 1.03-8.27-3.3 2.57-1.03 8.27 8.24 1.03z" opacity=".6"/></g><path d="M290.55 428l2.55 3.3-3.3 2.56-2.55-3.3z" class="K"/><path d="M287.26 430.57l2.55 3.3-3.3 2.55-2.52-3.3z" class="I"/><path d="M284 433.12l2.55 3.3-3.32 2.6-2.55-3.3z" class="K"/><path d="M293.07 431.27l2.55 3.3-3.28 2.55-2.55-3.3zm-6.57 5.1l2.56 3.28-3.3 2.55-2.55-3.28z" class="I"/><g class="K"><path d="M289.76 433.8l2.55 3.3-3.3 2.55-2.55-3.3z"/><path d="M295.6 434.53l2.55 3.3-3.28 2.55-2.56-3.28z"/></g><path d="M292.3 437.1l2.56 3.28-3.3 2.55-2.58-3.28z" class="I"/><path d="M289 439.64l2.55 3.28-3.3 2.55-2.55-3.28z" class="K"/><path d="M298.13 437.8l2.55 3.3-3.3 2.55-2.55-3.3zm-6.57 5.1l2.55 3.3-3.3 2.56-2.55-3.3z" class="I"/><path d="M294.82 440.32l2.55 3.28-3.28 2.55-2.56-3.3zm5.9.58l2.55 3.28-3.28 2.55-2.55-3.28z" class="K"/><path d="M297.45 443.46l2.55 3.28-3.3 2.55-2.55-3.3z" class="I"/><path d="M294.16 446l2.55 3.28-3.3 2.56-2.56-3.3z" class="K"/><path d="M156.86 504.42h-2.66v-2.85h8.7v2.85H160v8.13h-3.17zm12.14-2.85v11h-3.1v-8l-1.8.56-.7-2.63 3.08-.94zm147.74-191.5h-2.66v-2.85h8.7v2.85h-2.87v8.13h-3.17zm15.13 5.47v2.66h-8.2v-1.12a3.72 3.72 0 0 1 .8-2.35 8.71 8.71 0 0 1 2.2-1.95l1-.65a5.11 5.11 0 0 0 .59-.46 1.35 1.35 0 0 0 .3-.37 1.1 1.1 0 0 0 .08-.43.94.94 0 0 0-.25-.72.9.9 0 0 0-.67-.24c-.63 0-.94.42-.94 1.26h-3.1a4.1 4.1 0 0 1 1.11-3.06 4.91 4.91 0 0 1 6-.18 3.33 3.33 0 0 1 1 2.62 3.69 3.69 0 0 1-.18 1.2 3.36 3.36 0 0 1-.55.95 4.88 4.88 0 0 1-.9.84l-1.24.86-.94.6a7.71 7.71 0 0 0-.71.53zm-34.93-73.88h-2.66v-2.85H303v2.85h-2.9v8.13h-3.16zm13.48 2.53a2.88 2.88 0 0 1 1.24 1 2.73 2.73 0 0 1 .42 1.52 3 3 0 0 1-.3 1.34 3.06 3.06 0 0 1-.86 1 4 4 0 0 1-1.31.67 5.86 5.86 0 0 1-1.67.23 4.21 4.21 0 0 1-3-1 4.06 4.06 0 0 1-1.16-2.93h3a1.26 1.26 0 0 0 .31.87 1 1 0 0 0 .78.31 1.21 1.21 0 0 0 .82-.27.9.9 0 0 0 .31-.73.88.88 0 0 0-.29-.69 1.26 1.26 0 0 0-.84-.25h-1.06v-2.2h1c.73 0 1.1-.3 1.1-.9a.82.82 0 0 0-.28-.67 1.25 1.25 0 0 0-1.56.05 1.11 1.11 0 0 0-.32.8h-2.9a4.36 4.36 0 0 1 .36-1.57 3.32 3.32 0 0 1 .85-1.19 3.73 3.73 0 0 1 1.3-.75 4.94 4.94 0 0 1 1.68-.26 5.32 5.32 0 0 1 1.59.22 3.74 3.74 0 0 1 1.22.65 2.8 2.8 0 0 1 .78 1 2.9 2.9 0 0 1 .28 1.29 2.49 2.49 0 0 1-1.49 2.46zM377 263.48h-2.66v-2.86h8.7v2.86h-2.84v8.13H377zm15 6.46h-1.2v1.67h-3.1v-1.67h-4.88v-2.4l4.58-6.92h3.4v6.76h1.2zm-6.18-2.56h2.2v-3.46zM706.35 32.76h-2.66V29.9h8.7v2.85h-2.87v8.13h-3.17zm12.1.84a3.67 3.67 0 0 1 1.42.27 3.27 3.27 0 0 1 1.12.76 3.68 3.68 0 0 1 .73 1.17 4.14 4.14 0 0 1 .26 1.48 4 4 0 0 1-.3 1.57 3.45 3.45 0 0 1-.87 1.22 3.73 3.73 0 0 1-1.35.77 5.37 5.37 0 0 1-1.76.27 4.22 4.22 0 0 1-2.94-1 3.74 3.74 0 0 1-1.17-2.76h3a1.17 1.17 0 0 0 .37.72 1.07 1.07 0 0 0 .74.27 1.09 1.09 0 0 0 .85-.35 1.25 1.25 0 0 0 .33-.9 1.21 1.21 0 0 0-.34-.88 1.12 1.12 0 0 0-.84-.35 1.16 1.16 0 0 0-.57.15 1.32 1.32 0 0 0-.44.41h-2.84v-6.5h7.56v2.66h-4.62V34a3.71 3.71 0 0 1 1.66-.41zm26 61.98h-2.66v-2.86h8.7v2.86h-2.88v8.13h-3.16zm11.33.42a3.54 3.54 0 0 1 1.26.42 3.76 3.76 0 0 1 1 .84 3.86 3.86 0 0 1 .67 1.15 4.16 4.16 0 0 1 .23 1.38 4 4 0 0 1-.33 1.61 4.33 4.33 0 0 1-.91 1.31 4.13 4.13 0 0 1-1.35.87 4.52 4.52 0 0 1-1.68.32 4.2 4.2 0 0 1-1.66-.33 4.13 4.13 0 0 1-1.34-.89 4.25 4.25 0 0 1-.89-1.33 4.11 4.11 0 0 1-.32-1.65 4 4 0 0 1 .06-.71 4.84 4.84 0 0 1 .21-.73 5.57 5.57 0 0 1 .4-.82l.63-1 2.5-3.74h3.7zm-1.08 5.1a1.19 1.19 0 0 0 .9-.37 1.25 1.25 0 0 0 .36-.92 1.23 1.23 0 0 0-1.26-1.27 1.2 1.2 0 0 0-.89.36 1.26 1.26 0 0 0-.35.91 1.28 1.28 0 0 0 .35.92 1.17 1.17 0 0 0 .89.39zm37.94-69.67H790v-2.85h8.7v2.85h-2.87v8.13h-3.17zm14.72-2.85v2.6l-4 8.4H800l4.1-8.2h-4.6v-2.8zm75.46 156.82h-2.66v-2.85h8.7v2.85H886v8.13h-3.17zm14 2.4a2.81 2.81 0 0 1 1.55 2.66 3.06 3.06 0 0 1-.29 1.37 2.82 2.82 0 0 1-.85 1 4.06 4.06 0 0 1-1.35.67 6.71 6.71 0 0 1-1.8.23 5 5 0 0 1-3.14-.88 2.89 2.89 0 0 1-1.14-2.42 3.07 3.07 0 0 1 .4-1.59 3 3 0 0 1 1.14-1.07 2.58 2.58 0 0 1-1.34-2.35 2.82 2.82 0 0 1 .29-1.27 2.75 2.75 0 0 1 .82-1 4.08 4.08 0 0 1 1.29-.63 6.21 6.21 0 0 1 1.68-.22 6.35 6.35 0 0 1 1.69.22 3.88 3.88 0 0 1 1.29.63 2.85 2.85 0 0 1 .82 1 2.82 2.82 0 0 1 .28 1.27 2.68 2.68 0 0 1-.34 1.37 2.77 2.77 0 0 1-1 1.01zm-2.74 3.64a1.2 1.2 0 0 0 .86-.31 1 1 0 0 0 .33-.81 1.18 1.18 0 0 0-.32-.85 1.15 1.15 0 0 0-.85-.33 1.18 1.18 0 0 0-.88.34 1.16 1.16 0 0 0-.33.85 1 1 0 0 0 .33.81 1.25 1.25 0 0 0 .86.3zm0-6.77a1.13 1.13 0 0 0-.79.29 1 1 0 0 0-.31.72 1 1 0 0 0 1.08 1.08 1.07 1.07 0 0 0 .78-.3 1.06 1.06 0 0 0 .3-.78 1 1 0 0 0-1.04-1.01zm-95.55-36.5h-2.66v-2.85h8.7v2.85h-2.87v8.13h-3.17zm9.95 4.82a3.46 3.46 0 0 1-1.27-.42 4 4 0 0 1-1-.83 3.78 3.78 0 0 1-.67-1.15 3.92 3.92 0 0 1-.23-1.38 4 4 0 0 1 .33-1.62 4.21 4.21 0 0 1 2.26-2.18 4.45 4.45 0 0 1 1.68-.32 4.2 4.2 0 0 1 1.66.33 4.13 4.13 0 0 1 1.34.89 4.15 4.15 0 0 1 1.21 3 4.2 4.2 0 0 1-.06.72 4.84 4.84 0 0 1-.22.72 6 6 0 0 1-.39.83q-.25.43-.63 1l-2.5 3.74h-3.64zm1.08-5.1a1.19 1.19 0 0 0-.9.37 1.25 1.25 0 0 0-.36.92 1.23 1.23 0 0 0 1.26 1.27 1.2 1.2 0 0 0 .89-.36 1.24 1.24 0 0 0 .35-.91 1.28 1.28 0 0 0-.35-.92 1.17 1.17 0 0 0-.89-.36zM593 190.13h-2.66v-2.85H599v2.85h-2.87v8.13H593zm12.12-2.85v11H602v-8l-1.8.55-.7-2.63 3.08-.94zm7.5 11.2a6.43 6.43 0 0 1-2.36-.42 5.45 5.45 0 0 1-1.86-1.19 5.13 5.13 0 0 1-1.22-1.8 6.34 6.34 0 0 1 0-4.59 5.17 5.17 0 0 1 1.22-1.81 5.55 5.55 0 0 1 1.86-1.17 6.72 6.72 0 0 1 4.73 0 5.55 5.55 0 0 1 1.86 1.17 5.31 5.31 0 0 1 1.22 1.81 6.34 6.34 0 0 1 0 4.59 5.26 5.26 0 0 1-1.22 1.8 5.45 5.45 0 0 1-1.86 1.19 6.49 6.49 0 0 1-2.37.42zm0-2.85a2.58 2.58 0 0 0 1.08-.22 2.61 2.61 0 0 0 .84-.59 2.88 2.88 0 0 0 .55-.91 3.17 3.17 0 0 0 0-2.27 2.68 2.68 0 0 0-.56-.9 2.43 2.43 0 0 0-.85-.6 2.64 2.64 0 0 0-1.06-.21 2.74 2.74 0 0 0-1.08.21 2.53 2.53 0 0 0-.85.6 3 3 0 0 0-.56.9 3.32 3.32 0 0 0 0 2.27 3.1 3.1 0 0 0 .56.91 2.65 2.65 0 0 0 .85.59 2.58 2.58 0 0 0 1.1.22zm3.3 88.48h-2.66v-2.86H622v2.86h-2.87v8.13h-3.17zm12.15-2.87v11H625v-8l-1.8.56-.7-2.63 3.08-.95zm6.73 0v11h-3.1v-8l-1.8.56-.7-2.63 3.08-.95zm182.7 27.37h-2.66v-2.86h8.7v2.86h-2.87v8.12h-3.17zm12.14-2.87v11h-3.1v-8l-1.8.55-.7-2.62 3.08-.95zm9.9 8.32v2.66h-8.2v-1.12a3.8 3.8 0 0 1 .8-2.35 8.89 8.89 0 0 1 2.2-1.95l1-.65a5.45 5.45 0 0 0 .6-.45 1.28 1.28 0 0 0 .29-.38.93.93 0 0 0 .08-.42 1 1 0 0 0-.24-.73.93.93 0 0 0-.67-.24c-.63 0-.95.42-.95 1.26h-3.08a4.1 4.1 0 0 1 1.11-3.06 4.88 4.88 0 0 1 5.95-.17 3.3 3.3 0 0 1 1.05 2.61 3.36 3.36 0 0 1-.19 1.2 3.14 3.14 0 0 1-.55.95 4.49 4.49 0 0 1-.89.84l-1.24.86-.94.6a5.69 5.69 0 0 0-.71.53zm-76.23 74.12h-2.66v-2.85h8.7v2.85h-2.88v8.13h-3.16zm12.15-2.85v11h-3.1v-8l-1.8.55-.7-2.63 3.1-.94zm8.25 5.38a2.82 2.82 0 0 1 1.24 1 2.64 2.64 0 0 1 .43 1.52 3 3 0 0 1-.3 1.34 3.17 3.17 0 0 1-.86 1 4.1 4.1 0 0 1-1.32.67 5.81 5.81 0 0 1-1.67.23 4.19 4.19 0 0 1-3-1 4 4 0 0 1-1.17-2.93h3a1.36 1.36 0 0 0 .31.87 1.07 1.07 0 0 0 .79.31 1.17 1.17 0 0 0 .81-.27.9.9 0 0 0 .31-.73.85.85 0 0 0-.29-.69 1.23 1.23 0 0 0-.83-.25H780v-2.2h1c.73 0 1.1-.3 1.1-.9a.84.84 0 0 0-.27-.66 1.12 1.12 0 0 0-.77-.25 1.1 1.1 0 0 0-.79.29 1.14 1.14 0 0 0-.32.8h-2.9a4.82 4.82 0 0 1 .36-1.56 3.34 3.34 0 0 1 .86-1.19 3.81 3.81 0 0 1 1.3-.76 5.2 5.2 0 0 1 1.68-.26 5.29 5.29 0 0 1 1.58.23 3.47 3.47 0 0 1 1.22.65 2.85 2.85 0 0 1 .79 1 3 3 0 0 1 .28 1.29 2.5 2.5 0 0 1-1.41 2.46zm115.7 21.22h-2.66v-2.86h8.7v2.86h-2.87v8.13h-3.17zm12.14-2.86v11h-3.1v-8l-1.8.56-.7-2.63 3.1-.95zm10.76 9.32h-1.2v1.67H918v-1.67h-4.88V416l4.6-6.92h3.4v6.76h1.2zm-6.2-2.56h2.2v-3.46zm-91.37 94.83h-2.67v-2.86h8.7v2.86h-2.87v8.13h-3.16zm12.14-2.85v11h-3.1v-8l-1.8.56-.7-2.63 3.08-.95zm6.87 3.68a3.7 3.7 0 0 1 1.42.27 3.37 3.37 0 0 1 1.12.76 3.49 3.49 0 0 1 .72 1.17 3.94 3.94 0 0 1 .26 1.48 4 4 0 0 1-.3 1.57 3.51 3.51 0 0 1-.86 1.22 4.07 4.07 0 0 1-1.35.77 5.37 5.37 0 0 1-1.75.28 4.22 4.22 0 0 1-2.94-1 3.79 3.79 0 0 1-1.18-2.76h3a1.19 1.19 0 0 0 .37.72 1.07 1.07 0 0 0 .74.27 1.09 1.09 0 0 0 .85-.35 1.35 1.35 0 0 0 0-1.78 1.12 1.12 0 0 0-.84-.35 1.13 1.13 0 0 0-.57.15 1.32 1.32 0 0 0-.44.41h-2.84v-6.52h7.56v2.66h-4.62v1.4a3.71 3.71 0 0 1 1.65-.38zM617.88 371.63h-2.67v-2.86h8.7v2.86H621v8.12h-3.16zm12.12-2.86v11h-3.1v-8l-1.8.55-.7-2.62 3.08-1zm6.86 3.3a3.41 3.41 0 0 1 1.26.42 3.71 3.71 0 0 1 1 .83 3.58 3.58 0 0 1 .67 1.15 3.93 3.93 0 0 1 .24 1.38 3.83 3.83 0 0 1-.34 1.62 4.12 4.12 0 0 1-2.26 2.18 4.45 4.45 0 0 1-1.68.32 4.16 4.16 0 0 1-1.65-.33 4 4 0 0 1-1.34-.89 4.2 4.2 0 0 1-.89-1.33 4.12 4.12 0 0 1-.33-1.65 3.38 3.38 0 0 1 .07-.72 3.61 3.61 0 0 1 .21-.72 5.57 5.57 0 0 1 .4-.82l.63-1 2.5-3.74H639zm-1.08 5.1a1.19 1.19 0 0 0 .9-.37 1.27 1.27 0 0 0-.9-2.19 1.21 1.21 0 0 0-.89.35 1.38 1.38 0 0 0 0 1.84 1.16 1.16 0 0 0 .89.37zm-135.7-70.84h-2.66v-2.86h8.7v2.86h-2.87v8.13h-3.17zm12.14-2.86v11h-3.1v-8l-1.8.56-.7-2.63 3.08-.95zm9.48 0v2.6l-4 8.4h-3.37l4.1-8.2h-4.6v-2.8zM349.8 411.9h-2.66V409h8.7v2.86H353V420h-3.16zm12.13-2.9v11h-3.1v-8l-1.8.55-.7-2.62 3.1-1zm8.77 5.27a2.8 2.8 0 0 1 1.54 2.66 3 3 0 0 1-.29 1.36 2.83 2.83 0 0 1-.85 1 4.25 4.25 0 0 1-1.35.66 6.27 6.27 0 0 1-1.8.24 5 5 0 0 1-3.14-.89 2.86 2.86 0 0 1-1.13-2.41 3.07 3.07 0 0 1 .39-1.59 2.88 2.88 0 0 1 1.14-1.07 2.79 2.79 0 0 1-1-3.62 2.66 2.66 0 0 1 .82-1 3.7 3.7 0 0 1 1.29-.63 5.84 5.84 0 0 1 1.68-.22 5.91 5.91 0 0 1 1.69.22 3.54 3.54 0 0 1 1.29.63 2.71 2.71 0 0 1 1.1 2.25 2.67 2.67 0 0 1-.34 1.36 2.76 2.76 0 0 1-1.04 1.05zm-2.7 3.64a1.24 1.24 0 0 0 .86-.31 1.08 1.08 0 0 0 .33-.82 1.21 1.21 0 0 0-2-.84 1.14 1.14 0 0 0-.34.86 1 1 0 0 0 .34.81 1.21 1.21 0 0 0 .81.3zm0-6.78a1.09 1.09 0 0 0-.78.29.93.93 0 0 0-.31.73 1.08 1.08 0 1 0 2.15 0 1 1 0 0 0-.29-.73 1.08 1.08 0 0 0-.77-.29zm4.6-51.73h-2.66v-2.85h8.7v2.85h-2.88v8.13h-3.16zm12.13-2.85v11h-3.1v-8l-1.8.55-.7-2.63 3.1-.94zm4.72 7.68a3.46 3.46 0 0 1-1.27-.42 3.68 3.68 0 0 1-1-.83 3.78 3.78 0 0 1-.67-1.15 3.93 3.93 0 0 1-.24-1.38 3.83 3.83 0 0 1 .34-1.62 4.09 4.09 0 0 1 .9-1.3 4.37 4.37 0 0 1 1.36-.88 4.44 4.44 0 0 1 1.68-.31 4.2 4.2 0 0 1 1.66.32 4.25 4.25 0 0 1 1.33.89 4 4 0 0 1 .89 1.33 4.12 4.12 0 0 1 .33 1.65 4.2 4.2 0 0 1-.06.72 4.5 4.5 0 0 1-.22.72 6.18 6.18 0 0 1-.4.83l-.63 1-2.45 3.73h-3.64zm1.07-5.1a1.21 1.21 0 0 0-.89.37 1.36 1.36 0 0 0 0 1.84 1.19 1.19 0 0 0 .89.35 1.18 1.18 0 0 0 .89-.35 1.38 1.38 0 0 0 0-1.84 1.19 1.19 0 0 0-.89-.37z" class="I"/><path d="M496.4 432.17a4.29 4.29 0 0 1-3-1 3.94 3.94 0 0 1-1.23-2.83h1.46a2.72 2.72 0 0 0 .83 1.88 2.67 2.67 0 0 0 1.93.72 3 3 0 0 0 1.94-.57 1.91 1.91 0 0 0 .72-1.57 1.77 1.77 0 0 0-.42-1.24 4 4 0 0 0-1.43-.86l-1.8-.7a4.78 4.78 0 0 1-2.08-1.38 3.24 3.24 0 0 1-.64-2.07 3 3 0 0 1 .27-1.29 3.08 3.08 0 0 1 .78-1 3.62 3.62 0 0 1 1.2-.64 5 5 0 0 1 1.54-.23 4 4 0 0 1 2.75.9 3.5 3.5 0 0 1 1.12 2.51h-1.45a2.29 2.29 0 0 0-.69-1.57 2.47 2.47 0 0 0-1.73-.57 2.64 2.64 0 0 0-1.69.51 1.64 1.64 0 0 0-.65 1.35 2 2 0 0 0 .44 1.33 3.61 3.61 0 0 0 1.44.92l1.83.7a4.72 4.72 0 0 1 2 1.3 3 3 0 0 1 .62 2 3.52 3.52 0 0 1-.28 1.44 3.08 3.08 0 0 1-.82 1.1 3.8 3.8 0 0 1-1.29.69 5.63 5.63 0 0 1-1.67.17zm6.7-12.6h7.15v1.3h-5.7v4h5.53v1.3h-5.53v4.52h5.9v1.3h-7.35zm15.58 12.6a6.48 6.48 0 0 1-2.55-.49 6.14 6.14 0 0 1-2-1.34 6.25 6.25 0 0 1-1.34-2 6.85 6.85 0 0 1 0-5.09 6 6 0 0 1 3.38-3.37 6.5 6.5 0 0 1 2.54-.49 7 7 0 0 1 2.18.33 6.17 6.17 0 0 1 1.8.94 5.65 5.65 0 0 1 2.05 3.37h-1.55a4.53 4.53 0 0 0-.61-1.36 4.22 4.22 0 0 0-1-1 4.36 4.36 0 0 0-1.31-.66 5 5 0 0 0-1.56-.24 4.85 4.85 0 0 0-2 .39 4.92 4.92 0 0 0-1.57 1.07 5.08 5.08 0 0 0-1 1.6 5.45 5.45 0 0 0 0 4 5 5 0 0 0 1 1.61 4.92 4.92 0 0 0 1.57 1.07 5 5 0 0 0 2 .38 4.62 4.62 0 0 0 2.86-.89 4.29 4.29 0 0 0 1.6-2.42h1.55a5.59 5.59 0 0 1-.74 1.91 5.47 5.47 0 0 1-1.31 1.48 6.17 6.17 0 0 1-1.8.94 7 7 0 0 1-2.19.26zm10.95-11.3H526v-1.3h8.9v1.3h-3.78V432h-1.44zm12.67 11.3a6.46 6.46 0 0 1-2.54-.49 6.32 6.32 0 0 1-2-1.35 6.67 6.67 0 0 1-1.35-7.11 6.12 6.12 0 0 1 3.38-3.37 6.55 6.55 0 0 1 2.55-.49 6.45 6.45 0 0 1 2.53.49 6.06 6.06 0 0 1 3.37 3.37 6.8 6.8 0 0 1 0 5.07 6.29 6.29 0 0 1-1.34 2 6.17 6.17 0 0 1-2 1.35 6.45 6.45 0 0 1-2.6.53zm0-1.35a4.82 4.82 0 0 0 3.52-1.45 4.93 4.93 0 0 0 1-1.62 5.52 5.52 0 0 0 .37-2 5.21 5.21 0 0 0-1.41-3.6 4.69 4.69 0 0 0-1.56-1.06 5.22 5.22 0 0 0-3.91 0 4.69 4.69 0 0 0-1.56 1.06 5.21 5.21 0 0 0-1.41 3.6 5.52 5.52 0 0 0 .37 2 4.8 4.8 0 0 0 1 1.62 4.87 4.87 0 0 0 1.56 1.07 5.07 5.07 0 0 0 2.03.38zm9.1-11.26h3.85a4 4 0 0 1 2.87 1 3.44 3.44 0 0 1 1 2.64 3.65 3.65 0 0 1-.73 2.34 3.51 3.51 0 0 1-2 1.24l3.52 5.22h-1.7l-3.37-5.1h-2v5.1h-1.43zm3.76 6a2.57 2.57 0 0 0 1.83-.62 2.26 2.26 0 0 0 .66-1.74 2.24 2.24 0 0 0-.65-1.71 2.56 2.56 0 0 0-1.84-.61h-2.34v4.68zm17.58-.14a3.17 3.17 0 0 1 1.45 1.15 3.28 3.28 0 0 1 .51 1.84 3.57 3.57 0 0 1-.32 1.5 3.4 3.4 0 0 1-.86 1.19 4.12 4.12 0 0 1-1.32.78 4.76 4.76 0 0 1-1.67.29 4.67 4.67 0 0 1-1.62-.27 3.51 3.51 0 0 1-1.26-.77 3.45 3.45 0 0 1-.82-1.24 4.64 4.64 0 0 1-.33-1.63h1.5a2.66 2.66 0 0 0 .73 1.86 2.43 2.43 0 0 0 1.82.7 3.21 3.21 0 0 0 1.1-.17 2.68 2.68 0 0 0 .86-.49 2.09 2.09 0 0 0 .55-.76 2.37 2.37 0 0 0 .19-1 2.1 2.1 0 0 0-.71-1.7 3.05 3.05 0 0 0-2-.61h-1.24v-1.3h1.22a2.49 2.49 0 0 0 1.7-.53 2 2 0 0 0 .6-1.55 1.91 1.91 0 0 0-.59-1.5 2.36 2.36 0 0 0-1.66-.55 2.53 2.53 0 0 0-1.71.58 2 2 0 0 0-.7 1.51h-1.44a3.26 3.26 0 0 1 .33-1.38 3.54 3.54 0 0 1 .83-1.08 3.88 3.88 0 0 1 1.22-.71 4.24 4.24 0 0 1 1.53-.26 4.51 4.51 0 0 1 1.51.24 3.4 3.4 0 0 1 1.16.67 3.06 3.06 0 0 1 .75 1.05 3.37 3.37 0 0 1 .27 1.36 3.28 3.28 0 0 1-.4 1.63 3 3 0 0 1-1.18 1.14z" opacity=".5" class="I"/><path d="M412.1 126.7a4.26 4.26 0 0 1-3-1 3.92 3.92 0 0 1-1.23-2.83h1.46a2.74 2.74 0 0 0 .83 1.88 2.68 2.68 0 0 0 1.93.72 3 3 0 0 0 1.94-.57 1.89 1.89 0 0 0 .72-1.57 1.77 1.77 0 0 0-.42-1.23 3.77 3.77 0 0 0-1.42-.87l-1.8-.68a4.84 4.84 0 0 1-2.09-1.37 3.27 3.27 0 0 1-.64-2.08 3 3 0 0 1 .28-1.29 2.89 2.89 0 0 1 .77-1 3.63 3.63 0 0 1 1.2-.65 5 5 0 0 1 1.55-.23 3.93 3.93 0 0 1 2.74.91 3.52 3.52 0 0 1 1.13 2.5h-1.47a2.27 2.27 0 0 0-.69-1.56 2.45 2.45 0 0 0-1.72-.58 2.67 2.67 0 0 0-1.7.51 1.64 1.64 0 0 0-.64 1.36 2 2 0 0 0 .43 1.32 3.45 3.45 0 0 0 1.45.92l1.82.7a4.79 4.79 0 0 1 2 1.3 3 3 0 0 1 .61 2 3.52 3.52 0 0 1-.28 1.44 3 3 0 0 1-.82 1.09 3.8 3.8 0 0 1-1.29.69 5.63 5.63 0 0 1-1.66.17zm6.72-12.6H426v1.3h-5.7v4h5.53v1.3h-5.53v4.5h5.92v1.3h-7.36zm15.58 12.6a6.49 6.49 0 0 1-2.56-.49 6.1 6.1 0 0 1-2-1.34 6.17 6.17 0 0 1-1.35-2 6.85 6.85 0 0 1 0-5.09 6.12 6.12 0 0 1 1.35-2 6.33 6.33 0 0 1 2-1.35 6.73 6.73 0 0 1 2.55-.49 7 7 0 0 1 2.17.33 6.15 6.15 0 0 1 1.8.94 5.8 5.8 0 0 1 1.32 1.47 5.58 5.58 0 0 1 .73 1.91h-1.55a4.46 4.46 0 0 0-.6-1.37 4.25 4.25 0 0 0-2.3-1.7 5.2 5.2 0 0 0-1.56-.23 4.93 4.93 0 0 0-3.52 1.45 5 5 0 0 0-1 1.61 5.22 5.22 0 0 0-.38 2 5.33 5.33 0 0 0 .38 2 5 5 0 0 0 1 1.6 4.88 4.88 0 0 0 3.52 1.46 4.62 4.62 0 0 0 2.86-.9 4.26 4.26 0 0 0 1.6-2.42h1.55a5.71 5.71 0 0 1-.73 1.92 5.64 5.64 0 0 1-1.32 1.47 5.71 5.71 0 0 1-1.8.94 7 7 0 0 1-2.16.28zm10.95-11.3h-3.67v-1.3h8.88v1.3h-3.78v11.1h-1.43zM458 126.7a6.46 6.46 0 0 1-2.54-.49 6 6 0 0 1-2-1.35 6.34 6.34 0 0 1-1.36-2 6.8 6.8 0 0 1 0-5.07 6.2 6.2 0 0 1 3.38-3.37 6.73 6.73 0 0 1 2.55-.49 6.59 6.59 0 0 1 2.53.49 6.2 6.2 0 0 1 3.38 3.37 6.93 6.93 0 0 1 0 5.07 6.48 6.48 0 0 1-1.35 2 6 6 0 0 1-2 1.35 6.41 6.41 0 0 1-2.59.49zm0-1.34a4.85 4.85 0 0 0 2-.37 4.76 4.76 0 0 0 2.6-2.68 5.34 5.34 0 0 0 .37-2 5.22 5.22 0 0 0-.38-2 4.94 4.94 0 0 0-1-1.6 4.55 4.55 0 0 0-1.56-1.06 4.85 4.85 0 0 0-1.95-.38 4.93 4.93 0 0 0-2 .38 4.41 4.41 0 0 0-1.55 1.06 5.14 5.14 0 0 0-1 1.6 5.22 5.22 0 0 0-.37 2 5.34 5.34 0 0 0 .37 2 4.78 4.78 0 0 0 2.59 2.68 4.93 4.93 0 0 0 1.88.37zm9.1-11.26h3.9a4.05 4.05 0 0 1 2.86 1 3.43 3.43 0 0 1 1 2.65 3.7 3.7 0 0 1-.72 2.33 3.5 3.5 0 0 1-2 1.24l3.52 5.22h-1.72l-3.37-5.1h-2v5.1h-1.44zm3.76 6a2.58 2.58 0 0 0 1.83-.62 2.63 2.63 0 0 0 0-3.46 2.63 2.63 0 0 0-1.85-.61h-2.34v4.7zm15.14-6v12.4h-1.44v-10.93l-2.36.74-.35-1.26 2.92-1z" opacity=".5" class="I"/><path d="M759.55 234.55a4.24 4.24 0 0 1-3-1 3.92 3.92 0 0 1-1.23-2.83h1.46a2.65 2.65 0 0 0 2.76 2.6 3 3 0 0 0 1.94-.57 1.89 1.89 0 0 0 .72-1.57 1.77 1.77 0 0 0-.42-1.23 3.74 3.74 0 0 0-1.43-.87l-1.78-.68a4.84 4.84 0 0 1-2.09-1.37 3.27 3.27 0 0 1-.64-2.08 3 3 0 0 1 .28-1.29 2.89 2.89 0 0 1 .77-1 3.63 3.63 0 0 1 1.2-.65 5 5 0 0 1 1.55-.23 3.93 3.93 0 0 1 2.74.91 3.52 3.52 0 0 1 1.13 2.5H762a2.27 2.27 0 0 0-.69-1.56 2.45 2.45 0 0 0-1.72-.58 2.67 2.67 0 0 0-1.7.51 1.65 1.65 0 0 0-.65 1.36 2 2 0 0 0 .44 1.32 3.48 3.48 0 0 0 1.44.92l1.83.7a4.7 4.7 0 0 1 2 1.3 3 3 0 0 1 .61 2 3.52 3.52 0 0 1-.28 1.44 3 3 0 0 1-.82 1.09 3.8 3.8 0 0 1-1.29.69 5.63 5.63 0 0 1-1.62.17zm6.7-12.55h7.15v1.3h-5.7v4h5.53v1.3h-5.53v4.4h5.92v1.3h-7.36zm15.58 12.55a6.49 6.49 0 0 1-2.56-.49 6.1 6.1 0 0 1-2-1.34 6.17 6.17 0 0 1-1.35-2 6.85 6.85 0 0 1 0-5.09 6.12 6.12 0 0 1 1.35-2 6.33 6.33 0 0 1 2-1.35 6.73 6.73 0 0 1 2.55-.49 7 7 0 0 1 2.17.33 6.28 6.28 0 0 1 1.8.94 5.8 5.8 0 0 1 1.32 1.47 5.58 5.58 0 0 1 .73 1.91h-1.55a4.46 4.46 0 0 0-.6-1.37 4.25 4.25 0 0 0-2.3-1.7 5.2 5.2 0 0 0-1.56-.23 4.93 4.93 0 0 0-3.52 1.45 5 5 0 0 0-1 1.61 5.22 5.22 0 0 0-.38 2 5.33 5.33 0 0 0 .38 2 5 5 0 0 0 1 1.6 4.88 4.88 0 0 0 3.52 1.46 4.62 4.62 0 0 0 2.86-.9 4.26 4.26 0 0 0 1.6-2.42h1.55a5.71 5.71 0 0 1-.73 1.92 5.64 5.64 0 0 1-1.32 1.47 5.82 5.82 0 0 1-1.8.94 7 7 0 0 1-2.16.28zm10.94-11.3h-3.66V222H798v1.3h-3.78v11.1h-1.44zm12.67 11.3a6.46 6.46 0 0 1-2.54-.49 6 6 0 0 1-2-1.35 6.34 6.34 0 0 1-1.36-2 6.8 6.8 0 0 1 0-5.07 6.2 6.2 0 0 1 3.38-3.37 6.73 6.73 0 0 1 2.55-.49 6.59 6.59 0 0 1 2.53.49 6.2 6.2 0 0 1 3.38 3.37 6.93 6.93 0 0 1 0 5.07 6.48 6.48 0 0 1-1.35 2 6 6 0 0 1-2 1.35 6.41 6.41 0 0 1-2.59.49zm0-1.34a4.85 4.85 0 0 0 1.95-.39 4.76 4.76 0 0 0 1.57-1.07 4.88 4.88 0 0 0 1-1.61 5.34 5.34 0 0 0 .37-2 5.22 5.22 0 0 0-.38-2 4.94 4.94 0 0 0-1-1.6 4.55 4.55 0 0 0-1.56-1.06 4.85 4.85 0 0 0-1.95-.38 4.93 4.93 0 0 0-2 .38 4.41 4.41 0 0 0-1.55 1.06 5.14 5.14 0 0 0-1 1.6 5.22 5.22 0 0 0-.37 2 5.34 5.34 0 0 0 .37 2 4.78 4.78 0 0 0 2.59 2.68 4.93 4.93 0 0 0 1.96.39zm9.1-11.2h3.86a4.05 4.05 0 0 1 2.86 1 3.46 3.46 0 0 1 1 2.65 3.64 3.64 0 0 1-.73 2.33 3.44 3.44 0 0 1-2 1.24l3.52 5.22h-1.72l-3.34-5.18h-2v5.1h-1.44zm3.76 6a2.58 2.58 0 0 0 1.83-.62 2.63 2.63 0 0 0 0-3.46 2.63 2.63 0 0 0-1.85-.61H816v4.7zm19.52 5v1.3h-8.07v-.74a4.33 4.33 0 0 1 .32-1.7 5.4 5.4 0 0 1 .82-1.33 6.17 6.17 0 0 1 1.1-1l1.13-.77 1.38-.86a5.6 5.6 0 0 0 .94-.73 2.42 2.42 0 0 0 .52-.78 2.57 2.57 0 0 0 .17-1 2.17 2.17 0 0 0-2.27-2.38 2.31 2.31 0 0 0-1.78.71 2.58 2.58 0 0 0-.67 1.87h-1.48a4.35 4.35 0 0 1 .29-1.61 3.65 3.65 0 0 1 .79-1.25 3.43 3.43 0 0 1 1.23-.79 4.3 4.3 0 0 1 1.6-.28 4.72 4.72 0 0 1 1.53.25 3.22 3.22 0 0 1 2 1.89 4 4 0 0 1 .28 1.53 3.59 3.59 0 0 1-.25 1.41 3.66 3.66 0 0 1-.71 1.09 6.65 6.65 0 0 1-1.09.91l-1.36.9-1.15.77a7.63 7.63 0 0 0-.88.75 4.26 4.26 0 0 0-.6.83 3.14 3.14 0 0 0-.32 1z" opacity=".5" class="I"/><path d="M188.22 511.42h1v7.83h3.63v.92h-4.64zm11.1 6.58h-3.95l-.84 2.22h-1.07l3.34-8.75h1.1l3.33 8.75h-1.07zm-3.62-.9h3.3l-1.65-4.5zm13.08 3.2a3 3 0 0 1-2.12-.73 2.8 2.8 0 0 1-.87-2h1a1.93 1.93 0 0 0 .58 1.33 1.9 1.9 0 0 0 1.37.51 2.1 2.1 0 0 0 1.36-.41 1.32 1.32 0 0 0 .51-1.1 1.25 1.25 0 0 0-.29-.87 2.7 2.7 0 0 0-1-.61l-1.26-.5a3.35 3.35 0 0 1-1.47-1 2.34 2.34 0 0 1-.45-1.47 2.12 2.12 0 0 1 .19-.91 2 2 0 0 1 .55-.7 2.43 2.43 0 0 1 .84-.46 3.46 3.46 0 0 1 1.09-.16 2.83 2.83 0 0 1 1.94.63 2.49 2.49 0 0 1 .79 1.77h-1a1.61 1.61 0 0 0-.49-1.1 1.73 1.73 0 0 0-1.22-.41 1.86 1.86 0 0 0-1.19.36 1.15 1.15 0 0 0-.46 1 1.36 1.36 0 0 0 .31.93 2.43 2.43 0 0 0 1 .65l1.3.5a3.3 3.3 0 0 1 1.43.91 2.16 2.16 0 0 1 .44 1.39 2.53 2.53 0 0 1-.2 1 2.24 2.24 0 0 1-.58.78 2.63 2.63 0 0 1-.91.48 3.78 3.78 0 0 1-1.18.18zm8.7 0a4.57 4.57 0 0 1-1.79-.34 4.43 4.43 0 0 1-1.44-1 4.26 4.26 0 0 1-1-1.43 4.75 4.75 0 0 1 0-3.58 4.26 4.26 0 0 1 1-1.43 4.42 4.42 0 0 1 1.43-1 4.65 4.65 0 0 1 1.8-.34 4.55 4.55 0 0 1 1.78.34 4.42 4.42 0 0 1 1.43 1 4.26 4.26 0 0 1 .95 1.43 4.75 4.75 0 0 1 0 3.58 4.4 4.4 0 0 1-2.38 2.39 4.55 4.55 0 0 1-1.78.38zm0-.95a3.45 3.45 0 0 0 1.37-.27 3.3 3.3 0 0 0 1.11-.75 3.54 3.54 0 0 0 .73-1.14 3.9 3.9 0 0 0 .26-1.42 3.65 3.65 0 0 0-.27-1.41 3.6 3.6 0 0 0-.73-1.13 3.26 3.26 0 0 0-1.1-.75 3.77 3.77 0 0 0-2.75 0 3.26 3.26 0 0 0-1.1.75 3.6 3.6 0 0 0-.73 1.13 3.65 3.65 0 0 0-.27 1.41 3.9 3.9 0 0 0 .26 1.42 3.54 3.54 0 0 0 .73 1.14 3.3 3.3 0 0 0 1.11.75 3.47 3.47 0 0 0 1.38.27zm9.53.95a3.59 3.59 0 0 1-1.34-.24 3 3 0 0 1-1-.71 3.09 3.09 0 0 1-.66-1.11 4.53 4.53 0 0 1-.23-1.47v-5.36h1v5.4a2.77 2.77 0 0 0 .61 1.87 2 2 0 0 0 1.64.7 2.1 2.1 0 0 0 1.66-.68 2.83 2.83 0 0 0 .59-1.89v-5.4h1v5.36a4.53 4.53 0 0 1-.23 1.47 3.22 3.22 0 0 1-.65 1.11 2.92 2.92 0 0 1-1 .71 3.62 3.62 0 0 1-1.39.24zm5.66-8.88h2.72a2.87 2.87 0 0 1 2 .68 2.44 2.44 0 0 1 .74 1.87 2.57 2.57 0 0 1-.52 1.64 2.46 2.46 0 0 1-1.42.88l2.48 3.68h-1.2l-2.38-3.6h-1.4v3.6h-1zm2.65 4.23a1.82 1.82 0 0 0 1.29-.44 1.6 1.6 0 0 0 .47-1.23 1.57 1.57 0 0 0-.46-1.21 1.83 1.83 0 0 0-1.3-.43h-1.65v3.3zm8.9 4.65a4.62 4.62 0 0 1-1.8-.34 4.53 4.53 0 0 1-1.43-1 4.42 4.42 0 0 1-1-1.43 4.91 4.91 0 0 1 0-3.59 4.42 4.42 0 0 1 1-1.43 4.46 4.46 0 0 1 1.44-1 4.6 4.6 0 0 1 1.79-.34 5.12 5.12 0 0 1 1.54.23 4.31 4.31 0 0 1 1.26.66 4 4 0 0 1 .93 1 3.84 3.84 0 0 1 .53 1.34h-1.1a3.21 3.21 0 0 0-.43-1 3 3 0 0 0-.69-.73 3.08 3.08 0 0 0-.92-.47 3.61 3.61 0 0 0-1.1-.16 3.47 3.47 0 0 0-1.38.27 3.4 3.4 0 0 0-1.11.75 3.6 3.6 0 0 0-.73 1.13 3.84 3.84 0 0 0 0 2.83 3.6 3.6 0 0 0 .73 1.13 3.4 3.4 0 0 0 1.11.75 3.47 3.47 0 0 0 1.38.27 3.25 3.25 0 0 0 2-.63 3 3 0 0 0 1.13-1.71h1.1a3.94 3.94 0 0 1-.53 1.36 4 4 0 0 1-.93 1 4.31 4.31 0 0 1-1.26.66 5.12 5.12 0 0 1-1.53.45zm6.16-8.88h5v.92h-4v2.8h3.9v.92h-3.9v3.2h4.17v.92h-5.18z" class="I J"/><g class="I J"><path d="M217.47 261.92h5v.93h-4v2.8h3.9v.93h-3.9v3.18h4.17v.92h-5.18zm12.1 6.53h-4l-.83 2.22h-1.08l3.34-8.75h1.1l3.33 8.75h-1.07zm-3.6-.9h3.3l-1.65-4.5z"/><use xlink:href="#B"/><path d="M245.12 261.92h2.7a2.85 2.85 0 0 1 2 .69 2.43 2.43 0 0 1 .73 1.86 2.62 2.62 0 0 1-.51 1.65 2.51 2.51 0 0 1-1.43.87l2.5 3.68h-1.2l-2.38-3.58h-1.42v3.58h-1zm2.65 4.23a1.85 1.85 0 0 0 1.29-.44 1.6 1.6 0 0 0 .46-1.23 1.58 1.58 0 0 0-.45-1.2 1.81 1.81 0 0 0-1.3-.43h-1.65v3.3zm8.88 4.67a4.57 4.57 0 0 1-4.18-6.32 4.28 4.28 0 0 1 2.38-2.37 4.69 4.69 0 0 1 1.8-.35 4.64 4.64 0 0 1 1.79.35 4.23 4.23 0 0 1 2.37 2.37 4.75 4.75 0 0 1 0 3.58 4.26 4.26 0 0 1-2.37 2.39 4.64 4.64 0 0 1-1.79.35zm0-.95a3.39 3.39 0 0 0 3.21-2.17 3.86 3.86 0 0 0 .26-1.42 3.6 3.6 0 0 0-.27-1.4 3.65 3.65 0 0 0-.73-1.14A3.06 3.06 0 0 0 258 263a3.54 3.54 0 0 0-1.38-.27 3.47 3.47 0 0 0-1.38.27 3.1 3.1 0 0 0-1.1.74 3.65 3.65 0 0 0-.73 1.14 3.79 3.79 0 0 0-.26 1.4 3.66 3.66 0 0 0 .26 1.42 3.35 3.35 0 0 0 .72 1.14 3.4 3.4 0 0 0 1.11.75 3.31 3.31 0 0 0 1.41.28z"/><use xlink:href="#B" x="30.29"/><path d="M279.87 266.37v2.34a4.14 4.14 0 0 1-1.64 1.58 4.86 4.86 0 0 1-2.26.53 5.1 5.1 0 0 1-1.9-.35 4.52 4.52 0 0 1-1.49-1 4.29 4.29 0 0 1-1-1.43 4.72 4.72 0 0 1-.35-1.82 4.62 4.62 0 0 1 .35-1.8 4.18 4.18 0 0 1 .95-1.41 4.48 4.48 0 0 1 1.45-.94 5 5 0 0 1 3.18-.15 3.89 3.89 0 0 1 1.14.55 3.59 3.59 0 0 1 .88.86 4 4 0 0 1 .55 1.14h-1.1a2.89 2.89 0 0 0-1.11-1.32 3.19 3.19 0 0 0-1.74-.47 3.52 3.52 0 0 0-1.39.27 3.25 3.25 0 0 0-1.11.73 3.45 3.45 0 0 0-.73 1.12 3.86 3.86 0 0 0-.26 1.42 3.77 3.77 0 0 0 .27 1.44 3.33 3.33 0 0 0 1.91 1.89 4.11 4.11 0 0 0 3.08-.06 3 3 0 0 0 1.27-1.05v-1.2h-2.94v-.92zm2.2-4.45h5.05v.93h-4v2.8h3.9v.93h-3.9v3.18h4.17v.92h-5.2z"/></g><path d="M396.42 245.58h2.7a2.91 2.91 0 0 1 2 .68 2.47 2.47 0 0 1 .73 1.87 2.61 2.61 0 0 1-.51 1.64 2.52 2.52 0 0 1-1.43.88l2.5 3.68h-1.2l-2.38-3.6h-1.42v3.6h-1zm2.65 4.22a1.85 1.85 0 0 0 1.29-.43 1.86 1.86 0 0 0 0-2.44 1.81 1.81 0 0 0-1.3-.43h-1.65v3.3zm9.93 2.3h-4l-.83 2.23h-1.07l3.34-8.75h1.1l3.33 8.75h-1.07zm-3.6-.9h3.3l-1.65-4.5zm7.15-5.62h2.66a5.86 5.86 0 0 1 2 .31 4.42 4.42 0 0 1 1.51.88 4 4 0 0 1 1 1.38 4.42 4.42 0 0 1 .35 1.78 4.55 4.55 0 0 1-.35 1.8 4 4 0 0 1-1 1.38 4.35 4.35 0 0 1-1.52.9 5.78 5.78 0 0 1-2 .32h-2.66zm2.66 7.82a4.63 4.63 0 0 0 1.53-.24 3.51 3.51 0 0 0 1.18-.71 3.24 3.24 0 0 0 .76-1.1 3.59 3.59 0 0 0 .27-1.42 3.55 3.55 0 0 0-.27-1.41 3.07 3.07 0 0 0-.76-1.08 3.24 3.24 0 0 0-1.17-.69 4.4 4.4 0 0 0-1.54-.25h-1.65v6.9zm6.7-7.82h1v8.75h-1zm3.47 0h1v7.82H430v.93h-4.64zm6.2 0h1v7.82h3.63v.93h-4.64zm9.77 8.9a4.6 4.6 0 0 1-1.79-.34 4.29 4.29 0 0 1-1.43-1 4.43 4.43 0 0 1-1-1.44 4.86 4.86 0 0 1 0-3.57 4.42 4.42 0 0 1 1-1.43 4.21 4.21 0 0 1 1.44-.95 4.88 4.88 0 0 1 3.58 0 4.26 4.26 0 0 1 1.43.95 4.42 4.42 0 0 1 .95 1.43 4.63 4.63 0 0 1-.95 5 4.29 4.29 0 0 1-1.43 1 4.6 4.6 0 0 1-1.8.35zm0-.95a3.54 3.54 0 0 0 1.38-.27 3.39 3.39 0 0 0 1.1-.76 3.28 3.28 0 0 0 .73-1.13 3.75 3.75 0 0 0 .26-1.43 3.79 3.79 0 0 0-.26-1.4 3.6 3.6 0 0 0-.73-1.13 3.36 3.36 0 0 0-1.1-.75 3.66 3.66 0 0 0-2.76 0 3.22 3.22 0 0 0-1.09.75 3.44 3.44 0 0 0-.73 1.13 3.6 3.6 0 0 0-.27 1.4 4 4 0 0 0 .26 1.43 3.44 3.44 0 0 0 .73 1.13 3.39 3.39 0 0 0 1.1.76 3.54 3.54 0 0 0 1.38.27zm12.92-7.94v8.75h-1.1l-4.38-7.1v7.1h-1v-8.75h1.17l4.3 7v-7z" class="I J"/><path d="M656.24 99.32h1v7.83h3.63v.92h-4.64zm6.18 0h5.05v.92h-4V103h3.9v1h-3.9v3.2h4.17v.92h-5.2zm9.35 8.88a3 3 0 0 1-2.12-.73 2.76 2.76 0 0 1-.87-2h1a1.93 1.93 0 0 0 .58 1.33 1.9 1.9 0 0 0 1.37.51 2.1 2.1 0 0 0 1.36-.41 1.32 1.32 0 0 0 .51-1.1 1.25 1.25 0 0 0-.29-.87 2.7 2.7 0 0 0-1-.61l-1.26-.48a3.45 3.45 0 0 1-1.47-1 2.34 2.34 0 0 1-.45-1.47 2.12 2.12 0 0 1 .19-.91 2 2 0 0 1 .55-.7 2.43 2.43 0 0 1 .84-.46 3.42 3.42 0 0 1 1.09-.16 2.79 2.79 0 0 1 1.94.64 2.45 2.45 0 0 1 .79 1.76h-1a1.61 1.61 0 0 0-.49-1.1 1.73 1.73 0 0 0-1.22-.41 1.86 1.86 0 0 0-1.19.36 1.15 1.15 0 0 0-.46 1 1.36 1.36 0 0 0 .31.93 2.43 2.43 0 0 0 1 .65l1.3.5a3.39 3.39 0 0 1 1.43.91 2.16 2.16 0 0 1 .44 1.39 2.53 2.53 0 0 1-.2 1 2.24 2.24 0 0 1-.58.78 2.63 2.63 0 0 1-.91.48 3.78 3.78 0 0 1-1.18.17zm12.23 0a4.62 4.62 0 0 1-1.8-.34 4.42 4.42 0 0 1-1.43-1 4.26 4.26 0 0 1-.95-1.43 4.78 4.78 0 0 1 0-3.59 4.26 4.26 0 0 1 .95-1.43 4.42 4.42 0 0 1 1.43-1 4.69 4.69 0 0 1 1.8-.34 5.1 5.1 0 0 1 1.53.23 4.37 4.37 0 0 1 1.27.66 4 4 0 0 1 1.45 2.38h-1.1a3.48 3.48 0 0 0-.43-1 3 3 0 0 0-1.62-1.2 3.75 3.75 0 0 0-2.48.11 3.36 3.36 0 0 0-1.1.75 3.63 3.63 0 0 0-.74 1.13 4 4 0 0 0 0 2.83 3.63 3.63 0 0 0 .74 1.13 3.36 3.36 0 0 0 1.1.75 3.54 3.54 0 0 0 1.38.27 3.25 3.25 0 0 0 2-.63 3 3 0 0 0 1.14-1.71h1.1a4.13 4.13 0 0 1-.52 1.36 4 4 0 0 1-.93 1 4.37 4.37 0 0 1-1.27.66 4.8 4.8 0 0 1-1.52.41zm10.13 0a4.6 4.6 0 0 1-1.79-.34 4.46 4.46 0 0 1-2.39-2.39 4.88 4.88 0 0 1 0-3.58 4.42 4.42 0 0 1 .95-1.43 4.35 4.35 0 0 1 1.44-1 4.88 4.88 0 0 1 3.58 0 4.34 4.34 0 0 1 2.38 2.38 4.88 4.88 0 0 1 0 3.58 4.42 4.42 0 0 1-.95 1.43 4.29 4.29 0 0 1-1.43 1 4.6 4.6 0 0 1-1.79.35zm0-.95a3.54 3.54 0 0 0 1.38-.27 3.36 3.36 0 0 0 1.1-.75 3.23 3.23 0 0 0 .73-1.14 3.7 3.7 0 0 0 .26-1.42 3.84 3.84 0 0 0-.26-1.41 3.79 3.79 0 0 0-.73-1.13 3.36 3.36 0 0 0-1.1-.75 3.79 3.79 0 0 0-2.76 0 3.22 3.22 0 0 0-1.09.75 3.44 3.44 0 0 0-.73 1.13 3.65 3.65 0 0 0-.27 1.41 3.9 3.9 0 0 0 .26 1.42 3.36 3.36 0 0 0 1.83 1.89 3.54 3.54 0 0 0 1.38.27zm14.94-7.93v8.75h-1v-7.16l-2.77 7.16h-.94l-2.77-7.16v7.16h-1v-8.75h1.4l2.82 7.37 2.8-7.37zm7.23 4.06a2.2 2.2 0 0 1 1 .85 2.6 2.6 0 0 1 .36 1.4 2.2 2.2 0 0 1-.78 1.79 3.19 3.19 0 0 1-2.11.65h-3.27v-8.75h3.14a2.9 2.9 0 0 1 1.91.57 2 2 0 0 1 .69 1.59 2.06 2.06 0 0 1-.94 1.9zm-3.77-3.15V103h2.05a1.78 1.78 0 0 0 1.22-.37 1.31 1.31 0 0 0 .42-1c0-.9-.53-1.37-1.58-1.37zm2.18 6.93a2.08 2.08 0 0 0 1.42-.43 1.53 1.53 0 0 0 .49-1.22 1.43 1.43 0 0 0-.52-1.18 2.29 2.29 0 0 0-1.46-.42h-2.1v3.25zm4.85-7.84h5v.92h-4V103h3.9v1h-3.9v3.2h4.18v.92h-5.2zm9.34 8.88a3 3 0 0 1-2.13-.73 2.79 2.79 0 0 1-.86-2h1a1.94 1.94 0 0 0 .59 1.33 1.88 1.88 0 0 0 1.36.51 2.13 2.13 0 0 0 1.37-.41 1.32 1.32 0 0 0 .51-1.1 1.21 1.21 0 0 0-.3-.87 2.65 2.65 0 0 0-1-.61l-1.27-.48a3.47 3.47 0 0 1-1.46-1 2.29 2.29 0 0 1-.46-1.47 2.13 2.13 0 0 1 .2-.91 2.06 2.06 0 0 1 .54-.7 2.57 2.57 0 0 1 .85-.46 3.42 3.42 0 0 1 1.09-.16 2.8 2.8 0 0 1 1.94.64 2.49 2.49 0 0 1 .79 1.76h-1a1.57 1.57 0 0 0-.49-1.1 1.7 1.7 0 0 0-1.21-.41 1.88 1.88 0 0 0-1.2.36 1.17 1.17 0 0 0-.45 1 1.4 1.4 0 0 0 .3.93 2.56 2.56 0 0 0 1 .65l1.3.5a3.37 3.37 0 0 1 1.44.91 2.16 2.16 0 0 1 .43 1.39 2.37 2.37 0 0 1-.2 1 2.13 2.13 0 0 1-.58.78 2.55 2.55 0 0 1-.91.48 3.68 3.68 0 0 1-1.18.17z" class="I J"/><path d="M900.57 167.3h2.72a2.89 2.89 0 0 1 2 .68 2.43 2.43 0 0 1 .73 1.87 2.61 2.61 0 0 1-.51 1.64 2.5 2.5 0 0 1-1.42.88l2.48 3.68h-1.2l-2.36-3.6h-1.42V176h-1zm2.65 4.22a1.81 1.81 0 0 0 1.29-.43 1.83 1.83 0 0 0 0-2.44 1.81 1.81 0 0 0-1.3-.43h-1.65v3.3zm5.06-4.22h1v8.7h-1zm10.06 0l-3.15 8.7h-1.1l-3.1-8.7h1.1l2.6 7.43 2.6-7.43zm5.8 6.5h-3.95l-.84 2.23h-1.08l3.35-8.75h1.1l3.3 8.7h-1zm-3.62-.9h3.3l-1.65-4.5zm14.84-1.17v2.34a4.07 4.07 0 0 1-1.64 1.58 4.86 4.86 0 0 1-2.26.53 5 5 0 0 1-1.89-.34 4.48 4.48 0 0 1-1.49-1 4.31 4.31 0 0 1-1-1.44 4.69 4.69 0 0 1-.35-1.82 4.54 4.54 0 0 1 .35-1.79 4.37 4.37 0 0 1 .95-1.42 4.48 4.48 0 0 1 1.45-.94 4.87 4.87 0 0 1 1.82-.33 5 5 0 0 1 1.36.18 4 4 0 0 1 1.15.55 4.17 4.17 0 0 1 .87.86 4 4 0 0 1 .56 1.15h-1.12a2.8 2.8 0 0 0-1.11-1.33 3.19 3.19 0 0 0-1.74-.47 3.54 3.54 0 0 0-2.5 1 3.37 3.37 0 0 0-.72 1.12 3.7 3.7 0 0 0-.26 1.42 4 4 0 0 0 .26 1.44 3.47 3.47 0 0 0 .75 1.15 3.25 3.25 0 0 0 1.2.83 3.94 3.94 0 0 0 1.48.27 4 4 0 0 0 1.6-.32 3 3 0 0 0 1.27-1.06v-1.2h-2.95v-.93zm2.2-4.43h5.05v.92h-4v2.8h3.9v.92h-3.9v3.18h4.17v.9h-5.2z" class="I J"/><path d="M654.52 228.37h2.7a2.87 2.87 0 0 1 2 .68 2.44 2.44 0 0 1 .74 1.87 2.85 2.85 0 0 1-.2 1.08 2.32 2.32 0 0 1-.55.82 2.44 2.44 0 0 1-.86.53 3.43 3.43 0 0 1-1.15.18h-1.7v3.6h-1zm2.65 4.22a1.8 1.8 0 0 0 1.28-.43 1.57 1.57 0 0 0 .47-1.23 1.6 1.6 0 0 0-.45-1.21 1.87 1.87 0 0 0-1.3-.43h-1.65v3.3zm8.5 4.67a4.57 4.57 0 0 1-1.79-.34 4.43 4.43 0 0 1-1.44-1 4.36 4.36 0 0 1-.95-1.43 4.75 4.75 0 0 1 0-3.58 4.39 4.39 0 0 1 .94-1.43 4.57 4.57 0 0 1 1.44-1 4.65 4.65 0 0 1 1.8-.34 4.55 4.55 0 0 1 1.78.34 4.42 4.42 0 0 1 1.43 1 4.26 4.26 0 0 1 1 1.43 4.75 4.75 0 0 1 0 3.58 4.36 4.36 0 0 1-1 1.43 4.29 4.29 0 0 1-1.43 1 4.55 4.55 0 0 1-1.78.34zm0-.95A3.45 3.45 0 0 0 667 236a3.3 3.3 0 0 0 1.11-.75 3.54 3.54 0 0 0 .73-1.14 3.9 3.9 0 0 0 .26-1.42 3.64 3.64 0 0 0-1-2.54 3.26 3.26 0 0 0-1.1-.75 3.77 3.77 0 0 0-2.75 0 3.26 3.26 0 0 0-1.1.75 3.64 3.64 0 0 0-1 2.54 3.9 3.9 0 0 0 .26 1.42 3.54 3.54 0 0 0 .73 1.14 3.3 3.3 0 0 0 1.11.75 3.47 3.47 0 0 0 1.41.31zm9.56.95a3.59 3.59 0 0 1-1.34-.24 2.89 2.89 0 0 1-1.69-1.83 4.43 4.43 0 0 1-.23-1.46v-5.36h1v5.4a2.77 2.77 0 0 0 .61 1.87 2 2 0 0 0 1.64.7 2.07 2.07 0 0 0 1.65-.68 2.78 2.78 0 0 0 .6-1.89v-5.4h1v5.36a4.43 4.43 0 0 1-.23 1.46 3.18 3.18 0 0 1-.65 1.12 2.92 2.92 0 0 1-1 .71 3.62 3.62 0 0 1-1.36.24zm5.63-8.9h1V232h4.46v-3.6h1v8.75h-1v-4.23h-4.46v4.23h-1zm12.9 8.9a4.6 4.6 0 0 1-1.79-.34 4.43 4.43 0 0 1-1.44-1 4.53 4.53 0 0 1-.95-1.43 4.75 4.75 0 0 1 0-3.58 4.34 4.34 0 0 1 2.38-2.38 4.69 4.69 0 0 1 1.8-.34 4.6 4.6 0 0 1 1.79.34 4.53 4.53 0 0 1 1.43 1 4.24 4.24 0 0 1 .94 1.43 4.75 4.75 0 0 1 0 3.58A4.34 4.34 0 0 1 697 236a4.39 4.39 0 0 1-1.43 1 4.6 4.6 0 0 1-1.82.26zm0-.95a3.54 3.54 0 0 0 1.38-.27 3.36 3.36 0 0 0 1.83-1.89 3.9 3.9 0 0 0 .26-1.42 3.62 3.62 0 0 0-.27-1.41 3.44 3.44 0 0 0-.73-1.13 3.22 3.22 0 0 0-1.09-.75 3.53 3.53 0 0 0-1.38-.26 3.46 3.46 0 0 0-1.38.26 3.36 3.36 0 0 0-1.1.75 3.6 3.6 0 0 0-.73 1.13 3.8 3.8 0 0 0-.26 1.41 3.7 3.7 0 0 0 .26 1.42 3.23 3.23 0 0 0 .73 1.14 3.36 3.36 0 0 0 1.1.75 3.47 3.47 0 0 0 1.38.27zm12.92-7.94v8.75h-1.1l-4.4-7.12v7.1h-1v-8.75h1.17l4.3 7v-7z" class="I J"/><path d="M822.28 335.9h5v.92h-4v3h3.84v.93h-3.82v3.87h-1zm11.3 6.54h-4l-.84 2.22h-1.07l3.34-8.75h1.1l3.33 8.75h-1.07zm-3.62-.9h3.3L831.6 337zm14.84-1.18v2.34a4.08 4.08 0 0 1-1.64 1.58 4.85 4.85 0 0 1-2.26.52 5 5 0 0 1-1.89-.34 4.48 4.48 0 0 1-1.49-.95 4.11 4.11 0 0 1-1-1.44 4.69 4.69 0 0 1-.35-1.82 4.54 4.54 0 0 1 .35-1.79 4.37 4.37 0 0 1 1-1.42 4.3 4.3 0 0 1 1.45-.93 4.68 4.68 0 0 1 1.82-.34 4.61 4.61 0 0 1 1.36.19 3.69 3.69 0 0 1 1.15.54 3.59 3.59 0 0 1 .87.87 3.91 3.91 0 0 1 .56 1.14h-1.12a2.77 2.77 0 0 0-1.11-1.32 3.11 3.11 0 0 0-1.74-.47 3.74 3.74 0 0 0-1.39.26 3.49 3.49 0 0 0-1.1.74 3.07 3.07 0 0 0-.73 1.12 3.61 3.61 0 0 0-.26 1.41 4.06 4.06 0 0 0 .26 1.45 3.33 3.33 0 0 0 1.91 1.89 4.27 4.27 0 0 0 3.09-.06 3.09 3.09 0 0 0 1.26-1v-1.2h-2.93v-.92zm8.7-4.46v8.75h-1.1l-4.4-7.1v7.1h-1v-8.75h1.17l4.3 7v-7zm2.5 0h5v.92h-4v2.8h3.9v.92H857v3.2h4.17v.92H856zm9.3 8.9a3 3 0 0 1-2.13-.73 2.79 2.79 0 0 1-.86-2h1a1.94 1.94 0 0 0 .59 1.33 1.9 1.9 0 0 0 1.36.51 2.13 2.13 0 0 0 1.37-.41 1.32 1.32 0 0 0 .51-1.1 1.21 1.21 0 0 0-.3-.87 2.65 2.65 0 0 0-1-.61l-1.26-.48a3.45 3.45 0 0 1-1.47-1 2.29 2.29 0 0 1-.46-1.47 2.13 2.13 0 0 1 .2-.91 2.06 2.06 0 0 1 .54-.7 2.57 2.57 0 0 1 .85-.46 3.42 3.42 0 0 1 1.09-.16 2.85 2.85 0 0 1 1.94.63 2.53 2.53 0 0 1 .79 1.77h-1a1.56 1.56 0 0 0-.48-1.1 1.73 1.73 0 0 0-1.22-.41 1.9 1.9 0 0 0-1.2.36 1.17 1.17 0 0 0-.45 1 1.4 1.4 0 0 0 .3.93 2.54 2.54 0 0 0 1 .65l1.28.5a3.28 3.28 0 0 1 1.44.91 2.16 2.16 0 0 1 .43 1.39 2.37 2.37 0 0 1-.2 1 2 2 0 0 1-.58.78 2.55 2.55 0 0 1-.91.48 3.68 3.68 0 0 1-1.17.17z" class="I J"/><path d="M516.48 362.34a2.1 2.1 0 0 1 1 .85 2.59 2.59 0 0 1 .36 1.39 2.23 2.23 0 0 1-.77 1.8 3.21 3.21 0 0 1-2.07.62h-3.3v-8.75h3.15a2.92 2.92 0 0 1 1.91.57 2 2 0 0 1 .69 1.59 2 2 0 0 1-.97 1.93zm-3.77-3.15v2.8h2.06a1.75 1.75 0 0 0 1.21-.37 1.28 1.28 0 0 0 .43-1c0-.9-.53-1.37-1.6-1.37zm2.2 6.93a2.1 2.1 0 0 0 1.42-.43 1.53 1.53 0 0 0 .49-1.22 1.44 1.44 0 0 0-.53-1.18 2.29 2.29 0 0 0-1.46-.42h-2.1v3.25zm4.83-7.84h1v7.83h3.63v.9h-4.64zm11.1 6.52h-4l-.83 2.22h-1l3.34-8.75h1.1l3.32 8.75h-1.06zm-3.62-.9h3.3l-1.65-4.5zm13.7-5.62V367h-1.1l-4.38-7.1v7.1h-1v-8.75h1.17l4.3 7v-7zm6.4 8.9a4.62 4.62 0 0 1-1.8-.34 4.53 4.53 0 0 1-1.43-.95 4.42 4.42 0 0 1-1-1.43 4.91 4.91 0 0 1 0-3.59 4.42 4.42 0 0 1 1-1.43 4.46 4.46 0 0 1 1.44-.95 4.6 4.6 0 0 1 1.79-.34 4.82 4.82 0 0 1 1.54.23 4.31 4.31 0 0 1 1.26.66 3.86 3.86 0 0 1 .93 1 3.64 3.64 0 0 1 .52 1.34h-1.1a3.21 3.21 0 0 0-.43-1 2.83 2.83 0 0 0-.69-.73 3.08 3.08 0 0 0-.92-.47 3.61 3.61 0 0 0-1.1-.16 3.47 3.47 0 0 0-1.38.27 3.4 3.4 0 0 0-1.11.75 3.6 3.6 0 0 0-.73 1.13 3.84 3.84 0 0 0 0 2.83 3.6 3.6 0 0 0 .73 1.13 3.4 3.4 0 0 0 1.14.88 3.47 3.47 0 0 0 1.38.27 3.25 3.25 0 0 0 2-.63 3 3 0 0 0 1.13-1.71h1.1a3.62 3.62 0 0 1-.52 1.35 3.9 3.9 0 0 1-.93 1 4.31 4.31 0 0 1-1.26.66 5.12 5.12 0 0 1-1.56.23zm6.17-8.9h1v3.6h4.5v-3.6h1V367h-1v-4.2h-4.46v4.2h-1zm8.94 0h1V367h-1zm12 0V367h-1v-7.16l-2.8 7.16h-.95l-2.77-7.16V367h-1v-8.75h1.44l2.82 7.37 2.8-7.37zm6.4 8.9a4.55 4.55 0 0 1-1.78-.34 4.43 4.43 0 0 1-1.44-1 4.21 4.21 0 0 1-1-1.43 4.75 4.75 0 0 1 0-3.58 4.24 4.24 0 0 1 .94-1.43 4.75 4.75 0 0 1 5-.95 4.34 4.34 0 0 1 2.38 2.38 4.75 4.75 0 0 1 0 3.58 4.53 4.53 0 0 1-1 1.43 4.29 4.29 0 0 1-1.43 1 4.57 4.57 0 0 1-1.67.34zm0-.95a3.47 3.47 0 0 0 1.38-.27 3.3 3.3 0 0 0 1.11-.75 3.54 3.54 0 0 0 .73-1.14 3.9 3.9 0 0 0 .26-1.42 3.64 3.64 0 0 0-1-2.54 3.26 3.26 0 0 0-1.1-.75 3.77 3.77 0 0 0-2.75 0 3.16 3.16 0 0 0-1.1.75 3.64 3.64 0 0 0-1 2.54 3.9 3.9 0 0 0 .26 1.42 3.54 3.54 0 0 0 .73 1.14 3.3 3.3 0 0 0 1.11.75 3.45 3.45 0 0 0 1.37.27zm12.93-7.94V367h-1.1l-4.38-7.1v7.1h-1v-8.75h1.17l4.3 7v-7zm4.24.92h-2.6v-.92h6.27v.92H599v7.8h-1z" class="I J"/><defs ><path id="B" d="M235.93 270.82a3.61 3.61 0 0 1-1.35-.25 2.88 2.88 0 0 1-1-.71 3.09 3.09 0 0 1-.66-1.11 4.45 4.45 0 0 1-.23-1.47v-5.36h1v5.4a2.79 2.79 0 0 0 .6 1.88 2.33 2.33 0 0 0 3.3 0 2.75 2.75 0 0 0 .59-1.89v-5.4h1v5.36a4.45 4.45 0 0 1-.23 1.47 3.22 3.22 0 0 1-.65 1.11 2.79 2.79 0 0 1-1 .71 3.61 3.61 0 0 1-1.37.26z"/></defs></svg>