<?xml version="1.0" encoding="UTF-8"?>
<!DOCTYPE svg PUBLIC "-//W3C//DTD SVG 1.1//EN" "http://www.w3.org/Graphics/SVG/1.1/DTD/svg11.dtd">
<svg xmlns="http://www.w3.org/2000/svg" version="1.1" width="1073px" height="698px" style="shape-rendering:geometricPrecision; text-rendering:geometricPrecision; image-rendering:optimizeQuality; fill-rule:evenodd; clip-rule:evenodd" xmlns:xlink="http://www.w3.org/1999/xlink">
<g><path style="opacity:1" fill="#fefffe" d="M 589.5,14.5 C 625.739,13.5408 661.739,16.0408 697.5,22C 760.855,31.0699 822.855,45.7366 883.5,66C 919.227,77.1 950.06,95.9334 976,122.5C 1041.53,197.595 1066.86,284.595 1052,383.5C 1048.07,400.302 1042.73,416.635 1036,432.5C 1015.12,465.261 987.622,472.094 953.5,453C 923.665,433.913 893.332,415.579 862.5,398C 827.432,378.268 804.266,349.101 793,310.5C 784.561,272.7 792.894,239.034 818,209.5C 823.833,203.667 829.667,197.833 835.5,192C 849.167,182.333 862.833,172.667 876.5,163C 885.531,154.774 889.365,144.608 888,132.5C 884.993,123.495 878.827,117.995 869.5,116C 855.459,114.541 841.793,116.208 828.5,121C 807.222,128.47 787.556,138.803 769.5,152C 754.167,168 738.833,184 723.5,200C 713.846,208.33 702.846,214.33 690.5,218C 660.715,222.181 641.881,209.681 634,180.5C 631.48,165.583 634.48,151.916 643,139.5C 649.781,131.272 654.447,121.939 657,111.5C 659.346,96.3526 653.513,85.8526 639.5,80C 625.543,76.8624 611.543,76.8624 597.5,80C 579.418,82.9025 561.418,86.2359 543.5,90C 513.637,97.3269 490.47,113.827 474,139.5C 457.233,173.89 459.233,207.223 480,239.5C 485.714,248.221 492.548,256.054 500.5,263C 520.554,278.054 540.887,292.721 561.5,307C 616.994,344.581 672.661,381.915 728.5,419C 754.873,439.695 775.707,464.862 791,494.5C 802.027,518.662 806.36,543.995 804,570.5C 802.169,592.488 798.502,614.155 793,635.5C 776.405,673.716 747.572,688.549 706.5,680C 543.429,636.732 380.096,594.399 216.5,553C 179.053,543.074 143.053,529.408 108.5,512C 58.1085,483.765 31.1085,440.598 27.5,382.5C 27.9763,360.617 32.4763,339.617 41,319.5C 45.9391,309.955 50.6058,300.289 55,290.5C 58.8844,279.692 57.8844,269.358 52,259.5C 44,250.833 36,242.167 28,233.5C 12.5676,212.663 10.5676,190.663 22,167.5C 31.2372,155.114 43.0705,145.948 57.5,140C 66.9532,136.071 76.6198,132.738 86.5,130C 187.833,103.333 289.167,76.6667 390.5,50C 455.951,32.273 522.284,20.4397 589.5,14.5 Z M 589.5,24.5 C 635.936,23.7208 681.936,27.8875 727.5,37C 777.059,45.4444 825.726,57.4444 873.5,73C 897.961,81.0648 920.961,92.0648 942.5,106C 976.645,133.747 1002.48,167.914 1020,208.5C 1047.36,268.41 1053.69,330.41 1039,394.5C 1035.18,407.959 1030.18,420.959 1024,433.5C 1006.83,455.331 985.993,459.497 961.5,446C 930.762,426.936 899.762,408.269 868.5,390C 837.036,372.909 815.536,347.409 804,313.5C 794.244,276.94 801.578,244.273 826,215.5C 831.167,210.333 836.333,205.167 841.5,200C 854.833,190.667 868.167,181.333 881.5,172C 895.356,160.135 900.523,145.302 897,127.5C 892.081,115.587 883.248,108.421 870.5,106C 848.035,104.615 826.702,108.948 806.5,119C 777.374,130.806 753.54,149.306 735,174.5C 727.803,182.031 720.303,189.198 712.5,196C 702.401,204.034 690.901,208.534 678,209.5C 659.891,207.402 648.558,197.402 644,179.5C 641.893,168.032 643.893,157.365 650,147.5C 655.465,140.019 660.131,132.019 664,123.5C 672.278,101.332 666.445,84.1651 646.5,72C 634.852,67.7717 622.852,66.4383 610.5,68C 589.092,71.2347 567.758,74.9014 546.5,79C 512.045,86.1555 485.212,104.322 466,133.5C 444.727,177.983 449.727,219.316 481,257.5C 487.198,264.032 493.698,270.199 500.5,276C 573.678,327.507 647.678,377.84 722.5,427C 750.447,448.94 771.614,476.106 786,508.5C 793.258,528.566 795.925,549.233 794,570.5C 792.166,591.835 788.5,612.835 783,633.5C 768.069,666.38 742.902,678.547 707.5,670C 545.757,627.064 383.757,585.064 221.5,544C 185.298,534.156 150.298,521.156 116.5,505C 56.5191,471.537 31.3525,420.704 41,352.5C 45.8421,333.152 53.1754,314.819 63,297.5C 69.5994,282.301 68.5994,267.634 60,253.5C 52,244.833 44,236.167 36,227.5C 15.5699,194.133 22.7366,168.633 57.5,151C 66.2686,147.077 75.2686,143.743 84.5,141C 203.29,109.219 322.29,78.2191 441.5,48C 490.388,36.3508 539.721,28.5175 589.5,24.5 Z"/></g>
</svg>
