<svg xmlns="http://www.w3.org/2000/svg" viewBox="0 0 1062.67 537.87"><style><![CDATA[.I{fill:#fff}.J{opacity:.3}.K{fill:#010101}]]></style><g class="I"><path d="M555.56 473.9c-1.33 0-2.78-.05-4.3-.16-20.34-1.4-25.5-10.54-30.46-19.37-1.06-1.88-2.16-3.82-3.4-5.66l-.1-.14c-5.48-8.75-15.1-23.54-17.5-26s-13.58-8.38-40.18-22.44l-21.2-11.22-137.8-71.97c-18-9.6-78-42.34-93.6-60.74a43.11 43.11 0 0 1-10.48-28.72 38.27 38.27 0 0 1 10-25.25c6.87-7.26 20-14.4 32.78-21.3 8.56-4.63 16.64-9 22.3-13.1 10.92-7.9 42.68-37.1 59.75-52.8l11.25-10.28c3.42-3 4-4.5 4-5.12.06-2-4.2-6.2-6-8-5-5-9.7-9.7-9.64-16.5.06-5.6 3.43-11.32 10.94-18.53 14.57-14 35.52-23.73 50.94-23.73q.8 0 1.6 0c10.3.47 14.2 4 20.63 9.76a150.53 150.53 0 0 0 14.38 11.68l109.86 80.94 8.3 6c17.66 12.6 32.9 23.5 33.5 45.16.24 9-1.27 18.9-2.88 29.44-2.43 16-4.95 32.5-.75 44.57C573 276.3 598.84 306.7 612.7 323l8.58 10.32c6.13 8.08 8.3 15.7 6.32 22-1.82 5.78-6.86 10-15 12.65-4.57 1.47-9.15 2.65-13.58 3.8-10.94 2.82-21.27 5.48-21.13 10.26.14 5.42 10.65 13.1 39.68 18.46l4.25.8c5.47 1 9.8 1.88 13.7 1.88 9.05 0 17.33-4.37 37.46-28.23 19.06-22.6 68.5-78.52 104.58-119.36l43.08-48.9c11.9-13.9 16.43-28.07 12.42-38.88-2.6-7-5.32-7.5-19.28-8.74l-3.68-.34-.68-.06c-16.5-1.56-33.56-3.16-37.4-17.73-2.13-8.08-1.42-20.66 5.17-29.2 5.07-6.6 12.74-9.54 22-8.42 1.78.08 9.12.84 21.76 7.6 2.43 1.3 6 3.07 10.16 5.1 18.56 9.17 49.6 24.5 60.48 38.55l3.24 4.08c10.88 13.58 17.45 21.78 22.6 81.32l7 70.1c3.65 34 6.28 58.52 5.3 68.53-1.6 16.28-7.65 32.6-40.8 41.73-6.76 1.87-13.17 3.88-19.37 5.82-21.17 6.64-43.06 13.5-81 14.95l-20.9.7c-34.58 1.06-55.44 1.7-71.1 11l-5.45 3.3c-9.8 5.94-16.28 9.87-25.06 9.87-5 0-10.67-1.3-18.3-4.2l-8.42-3.35c-10.6-4.3-19.74-8-29.46-8a41.49 41.49 0 0 0-17.12 3.88 52.45 52.45 0 0 0-16.1 10.85c-5.07 4.74-9.45 8.8-21.12 8.8zm-30.66-30.17c1.43 2.13 2.6 4.2 3.74 6.22 4.5 8 7.74 13.74 23.25 14.82 1.3.1 2.54.14 3.67.14 8.14 0 10.44-2.13 15-6.36a61.18 61.18 0 0 1 18.55-12.47 50.37 50.37 0 0 1 20.78-4.65c11.47 0 21.85 4.2 32.84 8.66l8.26 3.28c6.55 2.5 11.2 3.62 15.08 3.62 6.26 0 11.28-3.05 20.4-8.57l5.53-3.33c17.64-10.47 39.38-11.14 75.4-12.24l20.83-.7c36.73-1.4 57.1-7.8 78.65-14.55 6.27-2 12.76-4 19.67-5.9 29.32-8.08 33-21.2 34.25-33.93.9-9.1-1.84-34.52-5.3-66.7l-7-70.27c-4.93-56.8-10.5-63.8-20.67-76.47l-3.33-4.2c-9.6-12.4-40.66-27.74-57.35-36l-10.42-5.25c-11.75-6.3-17.88-6.54-17.94-6.54h-.5c-6.17-.8-10.76.83-13.94 5-4.47 5.8-5.2 15.37-3.6 21.42 2.08 7.92 12.55 9.46 29.53 11.06l.68.06 3.64.34c13.87 1.24 22.24 2 26.9 14.57 5.2 14 .08 31.4-14 47.86-5.36 6.27-22 25.13-43.15 49l-104.46 119.2c-20.06 23.8-30.83 31.42-44.33 31.42-4.78 0-9.7-.94-15.4-2l-4.18-.8c-30.88-5.7-46.7-14.8-47.05-27.06-.33-11.95 13.38-15.48 27.88-19.22 4.3-1.1 8.76-2.25 13.07-3.64 5.2-1.67 8.27-4 9.16-6.8 1.06-3.4-.68-8.32-4.9-13.9-1.38-1.84-4.42-5.4-8.27-9.94-15.25-18-40.77-48-46.83-65.43-4.93-14.18-2.24-31.82.36-48.88 1.54-10.1 3-19.67 2.78-27.83-.47-17.2-12.75-26-29.74-38.1l-8.43-6.1-16.7-12.36-93-68.5a160.16 160.16 0 0 1-15.16-12.31c-5.94-5.34-7.94-7.14-15-7.46h-1.18c-14.82 0-33.7 10.68-44.7 21.23-5.4 5.18-8.15 9.26-8.18 12.14s2.63 5.66 7 10c4.83 4.82 8.8 9.26 8.65 14.66-.15 4.85-3.62 8.57-7 11.57l-11.15 10.18c-18.48 16.86-49.3 45.23-60.6 53.4-6.13 4.44-14.47 9-23.3 13.72-12.1 6.56-24.64 13.34-30.52 19.56-8.9 9.4-11.64 27.3.78 42 11.55 13.65 54.55 39.23 91 58.6l137.8 71.97 21.18 11.2c30.58 16.16 38.8 20.5 42.33 24 3.73 3.84 16.08 23.42 18.63 27.5z"/><path d="M555.9 249.9c-4.48-20.94-6.4-42-7.94-59l-.38-4.15c-1.47-15.9-4.53-17.92-15.94-25.48l-2.14-1.42c-11.84-7.9-97.2-66.1-111.95-77.32-13.8-10.53-19.4-7.38-28.1-.92-4.3 3.2-13.76 11.82-24.7 21.8l-35 31c-19.74 16.3-52.32 32.1-52.64 32.25l-1.2-2.48c.32-.16 32.6-15.8 52.08-31.9 10.2-8.4 23.3-20.36 34.9-30.9 11-10 20.5-18.67 24.92-22 9.5-7.07 16.36-10.53 31.4.93 14.8 11.27 100 69.4 111.8 77.28l2.13 1.42c11.65 7.7 15.57 10.3 17.16 27.5l.38 4.16c1.53 16.88 3.44 37.88 7.9 58.66z"/><path d="M511.4 97.77l-1.24-8.54-3.47-2.6 1.24 8.54-8.57 1.24 3.47 2.6 8.57-1.24z" opacity=".8"/><path d="M517.27 102.06l-1.23-8.53-3.48-2.6 1.23 8.54-8.56 1.24 3.47 2.6 8.57-1.24z" opacity=".9"/><path d="M523.17 106.5l-1.23-8.53-3.48-2.6 1.24 8.53-8.57 1.24 3.48 2.6 8.56-1.24z"/><path d="M504.67 85.13l-3.48-2.6 1.24 8.53-8.57 1.24 3.48 2.6 8.56-1.24-1.23-8.54z" opacity=".7"/><path d="M499.2 81.04l-3.48-2.6 1.23 8.54-8.56 1.24 3.47 2.6 8.57-1.24-1.23-8.53z" opacity=".6"/></g><path d="M469.57,85.77l2.6-3.45,3.46,2.58L473,88.37Z" class="K"/><path d="M473 88.37l2.6-3.47 3.46 2.6-2.57 3.5z" class="I"/><path d="M476.5 91l2.6-3.45 3.45 2.6-2.54 3.4z" class="K"/><path d="M472.14 82.35l2.6-3.46 3.46 2.6-2.6 3.46zm6.92 5.18l2.6-3.46 3.45 2.6-2.6 3.46z" class="I"/><path d="M475.58 85l2.6-3.46 3.47 2.6-2.64 3.43zm-.88-6.08l2.6-3.46 3.45 2.6-2.6 3.46z" class="K"/><path d="M478.17 81.5l2.6-3.46 3.46 2.6-2.58 3.46z" class="I"/><path d="M481.64 84.1l2.58-3.46 3.46 2.6-2.6 3.46z" class="K"/><path d="M477.28 75.5l2.6-3.46 3.46 2.6-2.6 3.46zm6.92 5.17l2.6-3.46 3.46 2.6-2.6 3.45z" class="I"/><path d="M480.72 78.1l2.6-3.46 3.46 2.6-2.6 3.46zM479.7 72l2.6-3.46 3.46 2.6-2.6 3.46z" class="K"/><path d="M483.15 74.62l2.6-3.46 3.45 2.6-2.6 3.46z" class="I"/><path d="M486.6 77.2l2.6-3.46 3.47 2.6-2.6 3.47z" class="K"/><path d="M584.1 158h-2.66v-2.86h8.7V158h-2.87v8.13h-3.17zm12.14-2.9v11h-3.1v-8l-1.8.56-.7-2.63 3.1-.95zm-8.72 93.22h-2.66v-2.86h8.7v2.86h-2.87v8.12h-3.17zm15.13 5.46v2.66h-8.2v-1.12a3.75 3.75 0 0 1 .8-2.34 8.5 8.5 0 0 1 2.2-1.95l1-.66a4.63 4.63 0 0 0 .6-.45 1.28 1.28 0 0 0 .29-.38.93.93 0 0 0 .08-.42 1 1 0 0 0-.24-.73.93.93 0 0 0-.67-.24c-.63 0-1 .42-1 1.26h-3.08a4.1 4.1 0 0 1 1.11-3.06 4.88 4.88 0 0 1 5.95-.17 3.3 3.3 0 0 1 1.05 2.61 3.36 3.36 0 0 1-.19 1.2 3.14 3.14 0 0 1-.55.95 4.23 4.23 0 0 1-.89.84l-1.24.86-.94.6a5.69 5.69 0 0 0-.71.53zm40.25 80.75h-2.66v-2.86H649v2.86h-2.87v8.13h-3.17zm13.5 2.47a2.82 2.82 0 0 1 1.24 1 2.67 2.67 0 0 1 .43 1.53 2.87 2.87 0 0 1-.31 1.34 3 3 0 0 1-.85 1 4.1 4.1 0 0 1-1.32.67 5.48 5.48 0 0 1-1.67.24 4.19 4.19 0 0 1-3-1 4 4 0 0 1-1.17-2.93h3a1.26 1.26 0 0 0 .31.86 1 1 0 0 0 .79.31 1.23 1.23 0 0 0 .81-.26.92.92 0 0 0 .31-.73.89.89 0 0 0-.29-.7 1.28 1.28 0 0 0-.83-.25h-1.06V336h1c.73 0 1.1-.3 1.1-.9a.85.85 0 0 0-.28-.67 1.12 1.12 0 0 0-.76-.24 1.1 1.1 0 0 0-.79.29 1.08 1.08 0 0 0-.32.8h-2.9a4.36 4.36 0 0 1 .36-1.57 3.53 3.53 0 0 1 .86-1.19 3.86 3.86 0 0 1 1.3-.75 5.2 5.2 0 0 1 1.68-.26 5.29 5.29 0 0 1 1.58.23 3.62 3.62 0 0 1 1.22.64 3 3 0 0 1 1.06 2.29 2.48 2.48 0 0 1-1.48 2.33zm-116.16 39.83h-2.67V374h8.7v2.85h-2.88V385h-3.16zm15 6.47H554v1.7h-3.1v-1.7h-4.88v-2.4l4.6-6.92h3.4v6.75h1.2zm-6.18-2.57h2.18v-3.46zm122.07 29.9h-2.66v-2.85h8.7v2.85h-2.87v8.13h-3.17zm12.1.84a3.63 3.63 0 0 1 1.42.27 3.11 3.11 0 0 1 1.12.75 3.68 3.68 0 0 1 .73 1.17 4.18 4.18 0 0 1 .26 1.48 4 4 0 0 1-.3 1.57 3.33 3.33 0 0 1-.87 1.22 3.77 3.77 0 0 1-1.34.77 5.44 5.44 0 0 1-1.77.27 4.22 4.22 0 0 1-2.93-1 3.81 3.81 0 0 1-1.18-2.77h3a1.16 1.16 0 0 0 .36.73 1.21 1.21 0 0 0 1.6-.09 1.29 1.29 0 0 0 .32-.9 1.21 1.21 0 0 0-.33-.87 1.16 1.16 0 0 0-1.41-.21 1.33 1.33 0 0 0-.44.41h-2.84v-6.5h7.55v2.66h-4.62v1.4a3.7 3.7 0 0 1 1.67-.35zM857.52 181h-2.66v-2.86h8.7V181h-2.87v8.13h-3.17zm11.35.45a3.68 3.68 0 0 1 1.26.42 3.57 3.57 0 0 1 1 .84 3.48 3.48 0 0 1 .67 1.15 3.93 3.93 0 0 1 .24 1.38 3.81 3.81 0 0 1-.34 1.61 4.14 4.14 0 0 1-.9 1.31 4.07 4.07 0 0 1-1.36.87 4.45 4.45 0 0 1-1.68.32 4.16 4.16 0 0 1-1.65-.33 4 4 0 0 1-1.34-.89 4.21 4.21 0 0 1-1.22-3 3.23 3.23 0 0 1 .07-.71 3.9 3.9 0 0 1 .21-.73 5.57 5.57 0 0 1 .4-.82l.63-1 2.5-3.74H871zm-1.08 5.1a1.19 1.19 0 0 0 .9-.37 1.25 1.25 0 0 0 .36-.92 1.23 1.23 0 0 0-1.26-1.27 1.18 1.18 0 0 0-.89.36 1.26 1.26 0 0 0-.35.91 1.28 1.28 0 0 0 .35.92 1.16 1.16 0 0 0 .89.37zm-126.4-61.45h-2.66v-2.86h8.7v2.86h-2.87v8.13h-3.17zm14.72-2.85v2.6l-4 8.4h-3.38l4.1-8.2h-4.6v-2.8zm154 23.4h-2.67v-2.86h8.7v2.86h-2.87v8.13h-3.16zm14 2.36a2.81 2.81 0 0 1 1.55 2.66 3.23 3.23 0 0 1-.29 1.37 2.9 2.9 0 0 1-.85 1 4 4 0 0 1-1.36.66 6.2 6.2 0 0 1-1.79.24 5 5 0 0 1-3.14-.88 2.89 2.89 0 0 1-1.14-2.42 3.07 3.07 0 0 1 .39-1.59 2.84 2.84 0 0 1 1.15-1.07 2.71 2.71 0 0 1-1-1 2.64 2.64 0 0 1-.34-1.36 2.69 2.69 0 0 1 1.11-2.25 4.08 4.08 0 0 1 1.29-.63 5.84 5.84 0 0 1 1.68-.22 6 6 0 0 1 1.69.22 4.08 4.08 0 0 1 1.29.63 2.82 2.82 0 0 1 .81 1 2.79 2.79 0 0 1 .29 1.27 2.65 2.65 0 0 1-.35 1.36 2.68 2.68 0 0 1-.99 1.01zm-2.74 3.64a1.19 1.19 0 0 0 .85-.31 1 1 0 0 0 .34-.81 1.13 1.13 0 0 0-.33-.85 1.15 1.15 0 0 0-.85-.33 1.13 1.13 0 0 0-1.2 1.19 1 1 0 0 0 .33.81 1.23 1.23 0 0 0 .86.32zm0-6.77a1.12 1.12 0 0 0-.78.28 1 1 0 0 0-.31.73 1.07 1.07 0 0 0 .3.78 1.15 1.15 0 0 0 1.55 0 1.07 1.07 0 0 0 .3-.78 1 1 0 0 0-.29-.73 1.06 1.06 0 0 0-.76-.26zm21.82 262.33h-2.66v-2.85h8.7v2.85h-2.87v8.13h-3.17zm9.96 4.8a3.46 3.46 0 0 1-1.27-.42 4 4 0 0 1-1-.83 3.78 3.78 0 0 1-.67-1.15 3.92 3.92 0 0 1-.23-1.38 4 4 0 0 1 .33-1.62 4.12 4.12 0 0 1 2.26-2.18 4.45 4.45 0 0 1 1.68-.32 4.2 4.2 0 0 1 1.66.33 4.13 4.13 0 0 1 1.34.89 4.15 4.15 0 0 1 1.21 3 4.2 4.2 0 0 1-.06.72 4.84 4.84 0 0 1-.22.72 6 6 0 0 1-.39.83q-.25.43-.63 1l-2.5 3.74H951zm1.08-5.1a1.19 1.19 0 0 0-.9.37 1.25 1.25 0 0 0-.36.92 1.23 1.23 0 0 0 1.26 1.27 1.21 1.21 0 0 0 .89-.36 1.26 1.26 0 0 0 .35-.91 1.28 1.28 0 0 0-.35-.92 1.19 1.19 0 0 0-.89-.34zM724.3 459.7h-2.66v-2.85h8.7v2.85h-2.88v8.13h-3.16zm12.15-2.85v11h-3.1v-8l-1.8.55-.7-2.62 3.1-.95zm7.55 11.2a6.49 6.49 0 0 1-2.37-.43 5.57 5.57 0 0 1-1.86-1.18 5.4 5.4 0 0 1-1.22-1.81 6.08 6.08 0 0 1-.43-2.3 6.14 6.14 0 0 1 .43-2.29 5.26 5.26 0 0 1 1.22-1.8 5.57 5.57 0 0 1 1.86-1.18 6.49 6.49 0 0 1 2.37-.42 6.39 6.39 0 0 1 2.36.42 5.57 5.57 0 0 1 1.86 1.18 5.13 5.13 0 0 1 1.22 1.8 6.34 6.34 0 0 1 0 4.59 5.26 5.26 0 0 1-1.22 1.81 5.57 5.57 0 0 1-1.86 1.18 6.4 6.4 0 0 1-2.36.43zm0-2.86a2.7 2.7 0 0 0 1.08-.21 2.31 2.31 0 0 0 .84-.6 2.79 2.79 0 0 0 .56-.91 3.29 3.29 0 0 0 0-2.26 2.92 2.92 0 0 0-.57-.91 2.57 2.57 0 0 0-.85-.6 2.81 2.81 0 0 0-2.13 0 2.57 2.57 0 0 0-.85.6 2.73 2.73 0 0 0-.56.91 2.94 2.94 0 0 0-.21 1.12 3 3 0 0 0 .21 1.14 2.63 2.63 0 0 0 .56.91 2.43 2.43 0 0 0 .85.6 2.65 2.65 0 0 0 1.07.21zm-83.42 17.04h-2.66v-2.85h8.7v2.85h-2.88v8.13h-3.16zm12.14-2.85v11h-3.1v-8l-1.8.55-.7-2.63 3.1-.94zm6.74 0v11h-3.1v-8l-1.8.55-.7-2.63 3.1-.94zm-77.6-11.02h-2.66v-2.86h8.7v2.86H605v8.13h-3.17zM614 465.5v11h-3.1v-8l-1.8.56-.7-2.63 3.08-.95zm9.9 8.33v2.66h-8.2v-1.13a3.75 3.75 0 0 1 .8-2.34 9 9 0 0 1 2.21-1.95l1-.65a5.63 5.63 0 0 0 .6-.46 1.16 1.16 0 0 0 .29-.38.93.93 0 0 0 .09-.42 1 1 0 0 0-.25-.73.91.91 0 0 0-.67-.23c-.63 0-1 .4-1 1.25h-3.08a4.14 4.14 0 0 1 1.11-3.06 4.89 4.89 0 0 1 6-.17 3.82 3.82 0 0 1 .85 3.81 3.28 3.28 0 0 1-.54 1 5.24 5.24 0 0 1-.9.84l-1.24.85-.94.62a5.46 5.46 0 0 0-.71.53zm-81-31.83h-2.67v-2.85H549V442h-2.88v8.13h-3.16zm12.15-2.85v11H552v-8l-1.8.55-.7-2.63 3.08-.94zm8.25 5.37a2.88 2.88 0 0 1 1.24 1 2.74 2.74 0 0 1 .43 1.52 3 3 0 0 1-1.16 2.34 4.1 4.1 0 0 1-1.32.67 5.48 5.48 0 0 1-1.67.23 4.19 4.19 0 0 1-3-1 4 4 0 0 1-1.17-2.93h3a1.31 1.31 0 0 0 .31.87 1 1 0 0 0 .79.31 1.2 1.2 0 0 0 .81-.27.9.9 0 0 0 .31-.73.88.88 0 0 0-.29-.69 1.25 1.25 0 0 0-.83-.25h-1.07v-2.2h1c.73 0 1.1-.3 1.1-.9a.82.82 0 0 0-.28-.67 1.07 1.07 0 0 0-.76-.25 1 1 0 0 0-1.11 1.1h-2.9a4.36 4.36 0 0 1 .36-1.57 3.34 3.34 0 0 1 .86-1.19 3.59 3.59 0 0 1 1.29-.75 4.94 4.94 0 0 1 1.68-.26 5.32 5.32 0 0 1 1.59.22 3.74 3.74 0 0 1 1.22.65 3 3 0 0 1 1.06 2.29 2.49 2.49 0 0 1-1.47 2.46zm-94.4-10.02h-2.66v-2.85H475v2.85h-2.88v8.13h-3.16zm12.15-2.85v11H478v-8l-1.8.55-.7-2.63 3.1-.94zM491.8 441h-1.2v1.66h-3.1V441h-4.88v-2.4l4.58-6.92h3.4v6.75h1.2zm-6.2-2.57h2.2v-3.46zM160.82 232.35h-2.66v-2.86h8.7v2.86H164v8.13h-3.17zM173 229.5v11h-3.1v-8l-1.8.56-.7-2.63 3.08-.95zm6.83 3.68a3.63 3.63 0 0 1 1.42.27 3.13 3.13 0 0 1 1.12.76 3.68 3.68 0 0 1 .73 1.17 4.13 4.13 0 0 1 .26 1.47 4 4 0 0 1-.3 1.58 3.29 3.29 0 0 1-.87 1.21 3.79 3.79 0 0 1-1.34.78 5.44 5.44 0 0 1-1.77.27 4.17 4.17 0 0 1-2.93-1 3.8 3.8 0 0 1-1.18-2.76h3a1.13 1.13 0 0 0 .36.72 1.1 1.1 0 0 0 .75.27 1.12 1.12 0 0 0 .85-.35 1.31 1.31 0 0 0 .32-.91 1.24 1.24 0 0 0-.33-.87 1.12 1.12 0 0 0-.84-.35 1.1 1.1 0 0 0-.57.15 1.15 1.15 0 0 0-.44.41h-2.84v-6.52h7.55v2.66h-4.62v1.4a3.71 3.71 0 0 1 1.67-.37zM290 96.9h-2.66V94H296v2.85h-2.87V105H290zm12.14-2.9v11H299v-8l-1.8.55-.67-2.55 3.1-.94zm6.86 3.33a3.68 3.68 0 0 1 2.28 1.26 3.78 3.78 0 0 1 .67 1.15 4.16 4.16 0 0 1 .23 1.38 4 4 0 0 1-.33 1.62 4.14 4.14 0 0 1-2.26 2.17 4.26 4.26 0 0 1-1.68.32 4.38 4.38 0 0 1-1.66-.32 4.3 4.3 0 0 1-1.34-.89 4.37 4.37 0 0 1-.89-1.33 4.15 4.15 0 0 1-.32-1.65 4.2 4.2 0 0 1 .06-.72 4.84 4.84 0 0 1 .21-.73 6 6 0 0 1 .4-.81l.63-1 2.5-3.73h3.64zm-1.08 5.1a1.22 1.22 0 0 0 .9-.36 1.27 1.27 0 0 0 .36-.92 1.25 1.25 0 0 0-.36-.92 1.22 1.22 0 0 0-.9-.36 1.2 1.2 0 0 0-.89.36 1.28 1.28 0 0 0-.35.92 1.3 1.3 0 0 0 .35.92 1.2 1.2 0 0 0 .87.36zM288.3 53.2h-2.66v-2.85h8.7v2.85h-2.88v8.13h-3.16zm12.13-2.85v11h-3.1v-8l-1.8.55-.7-2.63 3.1-.94zm9.47 0v2.6l-4 8.4h-3.38l4.1-8.2H302v-2.8zm96.6-32.27h-2.66v-2.86h8.7v2.86h-2.88v8.13h-3.16zm12.15-2.86v11h-3.1v-8l-1.8.56-.7-2.63 3.1-1zm8.75 5.24a2.8 2.8 0 0 1 1.59 2.66 3.09 3.09 0 0 1-.29 1.37 2.9 2.9 0 0 1-.85 1 4.25 4.25 0 0 1-1.35.66 6.32 6.32 0 0 1-1.8.24 5 5 0 0 1-3.14-.88 2.89 2.89 0 0 1-1.13-2.42 3.07 3.07 0 0 1 .39-1.59 2.88 2.88 0 0 1 1.14-1.07 2.71 2.71 0 0 1-1-1 2.74 2.74 0 0 1-.34-1.36 2.79 2.79 0 0 1 .29-1.27 2.75 2.75 0 0 1 .82-1 4.08 4.08 0 0 1 1.29-.63 5.84 5.84 0 0 1 1.68-.22 5.91 5.91 0 0 1 1.69.22 3.88 3.88 0 0 1 1.29.63 2.85 2.85 0 0 1 .82 1 2.79 2.79 0 0 1 .28 1.27 2.64 2.64 0 0 1-.34 1.36 2.71 2.71 0 0 1-1.04 1.03zm-2.74 3.64a1.2 1.2 0 0 0 .86-.31 1.07 1.07 0 0 0 .33-.81 1.16 1.16 0 0 0-.32-.85 1.15 1.15 0 0 0-.85-.33 1.22 1.22 0 0 0-.88.33 1.18 1.18 0 0 0-.33.86 1 1 0 0 0 .33.81 1.25 1.25 0 0 0 .86.3zm0-6.77a1.12 1.12 0 0 0-.79.28 1 1 0 0 0-.31.73 1 1 0 0 0 .31.77 1 1 0 0 0 .77.31 1 1 0 0 0 1.08-1.08 1 1 0 0 0-1.04-1.01z" class="I"/><path d="M250.6 245.48a4.26 4.26 0 0 1-3-1 3.92 3.92 0 0 1-1.22-2.83h1.45a2.74 2.74 0 0 0 .83 1.88 2.69 2.69 0 0 0 1.94.72 3 3 0 0 0 1.93-.57 1.89 1.89 0 0 0 .72-1.57 1.81 1.81 0 0 0-.41-1.23 3.91 3.91 0 0 0-1.43-.87l-1.8-.68a4.8 4.8 0 0 1-2.08-1.37 3.27 3.27 0 0 1-.65-2.08 3 3 0 0 1 .28-1.29 2.89 2.89 0 0 1 .77-1 3.63 3.63 0 0 1 1.2-.65 5 5 0 0 1 1.55-.23 3.93 3.93 0 0 1 2.74.91 3.52 3.52 0 0 1 1.13 2.5h-1.46a2.27 2.27 0 0 0-.69-1.56 2.43 2.43 0 0 0-1.72-.57 2.67 2.67 0 0 0-1.7.5 1.64 1.64 0 0 0-.64 1.36 2 2 0 0 0 .43 1.32 3.56 3.56 0 0 0 1.45.93l1.82.7a4.61 4.61 0 0 1 2 1.3 3 3 0 0 1 .62 2 3.53 3.53 0 0 1-.29 1.44 2.94 2.94 0 0 1-.82 1.09 3.8 3.8 0 0 1-1.29.69 5.58 5.58 0 0 1-1.67.16zm6.7-12.6h7.15v1.3h-5.7v4h5.53v1.3h-5.53v4.5h5.92v1.3h-7.36zm15.58 12.6a6.74 6.74 0 0 1-2.56-.48 6.2 6.2 0 0 1-3.37-3.38 6.85 6.85 0 0 1 0-5.09 6.2 6.2 0 0 1 3.38-3.37 7 7 0 0 1 4.72-.15 5.71 5.71 0 0 1 1.8.94 5.59 5.59 0 0 1 1.32 1.46 5.8 5.8 0 0 1 .74 1.91h-1.55a4.73 4.73 0 0 0-.61-1.37 4.25 4.25 0 0 0-2.3-1.7 5.19 5.19 0 0 0-1.55-.23 4.9 4.9 0 0 0-2 .39 4.57 4.57 0 0 0-1.56 1.07 4.89 4.89 0 0 0-1.05 1.6 5.22 5.22 0 0 0-.37 2 5.32 5.32 0 0 0 .37 2 5 5 0 0 0 1.05 1.6 4.72 4.72 0 0 0 1.56 1.07 4.9 4.9 0 0 0 2 .39 4.62 4.62 0 0 0 2.85-.9 4.27 4.27 0 0 0 1.61-2.42h1.55a6 6 0 0 1-.74 1.92 5.48 5.48 0 0 1-1.32 1.47 5.71 5.71 0 0 1-1.8.94 7 7 0 0 1-2.17.33zm10.95-11.3h-3.67v-1.3H289v1.3h-3.78v11.1h-1.43zm12.67 11.3a6.59 6.59 0 0 1-2.5-.48 6.23 6.23 0 0 1-2-1.36 6.34 6.34 0 0 1-1.36-2 6.59 6.59 0 0 1-.48-2.53 6.68 6.68 0 0 1 .48-2.54 6.18 6.18 0 0 1 3.39-3.37 6.8 6.8 0 0 1 5.07 0 6.2 6.2 0 0 1 3.38 3.37 6.68 6.68 0 0 1 .49 2.54 6.59 6.59 0 0 1-.49 2.53 6.48 6.48 0 0 1-1.35 2 6.19 6.19 0 0 1-2 1.36 6.59 6.59 0 0 1-2.64.48zm0-1.34a4.85 4.85 0 0 0 1.95-.39 4.66 4.66 0 0 0 1.57-1.07 4.73 4.73 0 0 0 1-1.61 5.34 5.34 0 0 0 .37-2 5.22 5.22 0 0 0-.38-2 4.94 4.94 0 0 0-1-1.6 4.36 4.36 0 0 0-1.56-1.06 5.19 5.19 0 0 0-3.9 0 4.36 4.36 0 0 0-1.56 1.06 4.94 4.94 0 0 0-1 1.6 5 5 0 0 0-.38 2 5.34 5.34 0 0 0 .37 2 4.73 4.73 0 0 0 1 1.61 4.66 4.66 0 0 0 1.57 1.07 4.85 4.85 0 0 0 1.95.39zm9.1-11.26h3.86a4.05 4.05 0 0 1 2.86 1 3.43 3.43 0 0 1 1 2.65 3.7 3.7 0 0 1-.72 2.33 3.5 3.5 0 0 1-2 1.24l3.52 5.22h-1.72l-3.4-5.13h-2v5.1h-1.44zm3.76 6a2.58 2.58 0 0 0 1.83-.62 2.63 2.63 0 0 0 0-3.46 2.63 2.63 0 0 0-1.85-.61H307v4.7zm17.58-.14a3.1 3.1 0 0 1 1.45 1.15 3.3 3.3 0 0 1 .5 1.83 3.64 3.64 0 0 1-.31 1.51 3.52 3.52 0 0 1-.87 1.18 3.92 3.92 0 0 1-1.31.79 4.8 4.8 0 0 1-1.67.28 4.91 4.91 0 0 1-1.62-.26 3.49 3.49 0 0 1-1.27-.78 3.63 3.63 0 0 1-.82-1.23 4.68 4.68 0 0 1-.33-1.63h1.46a2.65 2.65 0 0 0 .72 1.86 2.49 2.49 0 0 0 1.82.7 3.27 3.27 0 0 0 1.11-.18 2.46 2.46 0 0 0 .85-.49 2.08 2.08 0 0 0 .56-.75 2.59 2.59 0 0 0 .19-1 2.09 2.09 0 0 0-.72-1.69 3 3 0 0 0-2-.61h-1.23v-1.3h1.2a2.47 2.47 0 0 0 1.71-.54 2 2 0 0 0 .6-1.54 2 2 0 0 0-.59-1.51 2.39 2.39 0 0 0-1.66-.54 2.57 2.57 0 0 0-1.72.57 2 2 0 0 0-.7 1.51h-1.43a3.18 3.18 0 0 1 .33-1.37 3.33 3.33 0 0 1 .83-1.09 3.83 3.83 0 0 1 1.21-.71 4.47 4.47 0 0 1 1.53-.26 4.57 4.57 0 0 1 1.52.24 3.42 3.42 0 0 1 1.16.68 2.85 2.85 0 0 1 .74 1 3.32 3.32 0 0 1 .27 1.35 3.15 3.15 0 0 1-.4 1.63 3 3 0 0 1-1.12 1.19z" opacity=".5" class="I"/><path d="M828.08 384.48a4.29 4.29 0 0 1-3-1 3.94 3.94 0 0 1-1.23-2.83h1.46a2.72 2.72 0 0 0 .83 1.88 2.68 2.68 0 0 0 1.93.72 3 3 0 0 0 1.94-.58 1.88 1.88 0 0 0 .72-1.56 1.77 1.77 0 0 0-.42-1.24 3.87 3.87 0 0 0-1.43-.86l-1.78-.68a4.76 4.76 0 0 1-2.09-1.38 3.24 3.24 0 0 1-.64-2.07 2.9 2.9 0 0 1 .28-1.29 2.84 2.84 0 0 1 .77-1 3.62 3.62 0 0 1 1.2-.64 4.72 4.72 0 0 1 1.55-.23 4 4 0 0 1 2.74.9 3.54 3.54 0 0 1 1.13 2.51h-1.46a2.27 2.27 0 0 0-.69-1.57 2.45 2.45 0 0 0-1.72-.57 2.67 2.67 0 0 0-1.7.51 1.62 1.62 0 0 0-.64 1.35 2 2 0 0 0 .43 1.33 3.66 3.66 0 0 0 1.45.92l1.82.7a4.7 4.7 0 0 1 2 1.3 3 3 0 0 1 .61 2 3.52 3.52 0 0 1-.28 1.44 3.08 3.08 0 0 1-.82 1.1 3.8 3.8 0 0 1-1.29.69 5.63 5.63 0 0 1-1.67.15zm6.72-12.6h7.15v1.3h-5.7v4h5.53v1.3h-5.53v4.5h5.92v1.3h-7.36zm15.57 12.6a6.49 6.49 0 0 1-2.56-.49 6.23 6.23 0 0 1-3.37-3.37 6.49 6.49 0 0 1-.49-2.56 6.41 6.41 0 0 1 .49-2.53 6.12 6.12 0 0 1 3.38-3.37 6.55 6.55 0 0 1 2.55-.49 7 7 0 0 1 2.17.33 5.71 5.71 0 0 1 1.8.94 5.64 5.64 0 0 1 1.32 1.47 5.53 5.53 0 0 1 .73 1.9h-1.55a4.4 4.4 0 0 0-.6-1.36 4.08 4.08 0 0 0-1-1 4.5 4.5 0 0 0-1.31-.67 5.2 5.2 0 0 0-1.56-.23 4.85 4.85 0 0 0-2 .39 5 5 0 0 0-2.57 2.67 5.45 5.45 0 0 0 0 4 4.82 4.82 0 0 0 4.56 3.06 4.62 4.62 0 0 0 2.86-.89 4.29 4.29 0 0 0 1.6-2.42h1.55a5.57 5.57 0 0 1-2 3.39 5.92 5.92 0 0 1-1.8.94 7 7 0 0 1-2.2.29zm10.95-11.3h-3.67v-1.3h8.88v1.3h-3.78v11.1h-1.43zm12.68 11.3a6.46 6.46 0 0 1-2.54-.49 6.3 6.3 0 0 1-3.39-3.39 6.8 6.8 0 0 1 0-5.07 6.33 6.33 0 0 1 1.35-2 6.14 6.14 0 0 1 2-1.34 6.55 6.55 0 0 1 2.55-.49 6.41 6.41 0 0 1 2.53.49 6.14 6.14 0 0 1 2 1.34 6.33 6.33 0 0 1 1.35 2 6.93 6.93 0 0 1 0 5.07 6.33 6.33 0 0 1-1.35 2 6.19 6.19 0 0 1-2 1.36 6.41 6.41 0 0 1-2.5.52zm0-1.35a5 5 0 0 0 1.95-.38 4.92 4.92 0 0 0 1.57-1.07 5 5 0 0 0 1-1.62 5.55 5.55 0 0 0 0-4 5.05 5.05 0 0 0-1-1.6 4.69 4.69 0 0 0-1.56-1.06 5 5 0 0 0-1.96-.4 5.11 5.11 0 0 0-2 .38 4.55 4.55 0 0 0-1.55 1.06 5 5 0 0 0-1.41 3.6 5.32 5.32 0 0 0 .37 2 4.76 4.76 0 0 0 2.59 2.69 5.11 5.11 0 0 0 2 .4zm9.08-11.26h3.86a4 4 0 0 1 2.86 1 3.44 3.44 0 0 1 1 2.64 3.73 3.73 0 0 1-.72 2.34 3.55 3.55 0 0 1-2 1.24l3.52 5.22h-1.7l-3.37-5.1h-2v5.1h-1.44zm3.76 6a2.54 2.54 0 0 0 1.83-.62 2.26 2.26 0 0 0 .66-1.74 2.22 2.22 0 0 0-.64-1.71 2.58 2.58 0 0 0-1.85-.61h-2.34v4.68zm19.52 5.13v1.3h-8.07v-.74a4.38 4.38 0 0 1 .32-1.71 5.34 5.34 0 0 1 .82-1.32 6.23 6.23 0 0 1 1.1-1l1.13-.76q.8-.5 1.38-.87a5.12 5.12 0 0 0 .94-.73 2.38 2.38 0 0 0 .52-.77 2.63 2.63 0 0 0 .17-1 2.26 2.26 0 0 0-.67-1.79 2.33 2.33 0 0 0-1.6-.59 2.35 2.35 0 0 0-1.78.71 2.62 2.62 0 0 0-.67 1.87h-1.48a4.39 4.39 0 0 1 .29-1.61 3.61 3.61 0 0 1 .79-1.24 3.45 3.45 0 0 1 1.23-.8 4.51 4.51 0 0 1 1.6-.27 4.47 4.47 0 0 1 1.53.25 3.18 3.18 0 0 1 1.2.73 3.15 3.15 0 0 1 .77 1.16 3.9 3.9 0 0 1 .28 1.53 3.59 3.59 0 0 1-.25 1.41 3.49 3.49 0 0 1-.71 1.08 6.69 6.69 0 0 1-1.09.92l-1.36.88-1.15.77a6.79 6.79 0 0 0-.88.76 4.2 4.2 0 0 0-.6.82 3.29 3.29 0 0 0-.32 1z" opacity=".5" class="I"/><path d="M617 237.1a4.24 4.24 0 0 1-3-1 3.92 3.92 0 0 1-1.23-2.83h1.46a2.65 2.65 0 0 0 2.76 2.6 3 3 0 0 0 1.94-.57 1.89 1.89 0 0 0 .72-1.57 1.77 1.77 0 0 0-.42-1.23 3.74 3.74 0 0 0-1.43-.87l-1.8-.68a4.86 4.86 0 0 1-2.08-1.37 3.27 3.27 0 0 1-.64-2.08 3.11 3.11 0 0 1 .27-1.29 3 3 0 0 1 .78-1 3.63 3.63 0 0 1 1.2-.65 5 5 0 0 1 1.54-.23 4 4 0 0 1 2.75.91 3.52 3.52 0 0 1 1.13 2.5h-1.46a2.27 2.27 0 0 0-.69-1.56 2.46 2.46 0 0 0-1.73-.57 2.64 2.64 0 0 0-1.69.5 1.65 1.65 0 0 0-.65 1.36 2 2 0 0 0 .44 1.32 3.51 3.51 0 0 0 1.44.93l1.83.7a4.63 4.63 0 0 1 2 1.3 3 3 0 0 1 .62 2 3.52 3.52 0 0 1-.28 1.44 3 3 0 0 1-.82 1.09 3.8 3.8 0 0 1-1.29.69 5.63 5.63 0 0 1-1.68.16zm6.7-12.6h7.15v1.3h-5.7v4h5.53v1.3h-5.53v4.5h5.9v1.3h-7.35zm15.58 12.6a6.65 6.65 0 0 1-2.55-.48 6.44 6.44 0 0 1-2-1.35 6.14 6.14 0 0 1-1.34-2 6.85 6.85 0 0 1 0-5.09 6.1 6.1 0 0 1 1.34-2 6.37 6.37 0 0 1 2-1.35 7 7 0 0 1 4.72-.15 5.94 5.94 0 0 1 1.8.94 5.57 5.57 0 0 1 2 3.37h-1.55a4.48 4.48 0 0 0-.61-1.37 4.18 4.18 0 0 0-2.29-1.7 5.25 5.25 0 0 0-1.56-.23 4.85 4.85 0 0 0-1.95.39 4.61 4.61 0 0 0-1.57 1.07 4.86 4.86 0 0 0-1 1.6 5.22 5.22 0 0 0-.38 2 5.33 5.33 0 0 0 .38 2 5 5 0 0 0 1 1.6 4.76 4.76 0 0 0 1.57 1.07 4.85 4.85 0 0 0 1.95.39 4.62 4.62 0 0 0 2.86-.9 4.26 4.26 0 0 0 1.6-2.42h1.55a5.52 5.52 0 0 1-.74 1.92 5.28 5.28 0 0 1-1.31 1.47 5.94 5.94 0 0 1-1.8.94 7 7 0 0 1-2.12.28zm10.95-11.3h-3.66v-1.3h8.88v1.3h-3.78v11.1h-1.44zm12.67 11.3a6.64 6.64 0 0 1-2.54-.48 6.34 6.34 0 0 1-2-1.36 6.48 6.48 0 0 1-1.35-2 6.41 6.41 0 0 1-.49-2.53 6.5 6.5 0 0 1 .49-2.54 6.12 6.12 0 0 1 1.35-2 6.33 6.33 0 0 1 2-1.35 6.73 6.73 0 0 1 2.55-.49 6.59 6.59 0 0 1 2.53.49 6.33 6.33 0 0 1 2 1.35 6.1 6.1 0 0 1 1.34 2 6.5 6.5 0 0 1 .49 2.54 6.41 6.41 0 0 1-.49 2.53 6.29 6.29 0 0 1-1.34 2 6.19 6.19 0 0 1-2 1.36 6.59 6.59 0 0 1-2.54.48zm0-1.34a4.8 4.8 0 0 0 4.55-3.07 5.54 5.54 0 0 0 .37-2 5.26 5.26 0 0 0-.38-2 5.12 5.12 0 0 0-1-1.6 4.55 4.55 0 0 0-1.56-1.06 5.22 5.22 0 0 0-3.91 0 4.55 4.55 0 0 0-1.56 1.06 5.12 5.12 0 0 0-1 1.6 5.26 5.26 0 0 0-.38 2 5.54 5.54 0 0 0 .37 2 4.84 4.84 0 0 0 2.6 2.68 4.9 4.9 0 0 0 1.9.39zm9.1-11.26h3.85a4.06 4.06 0 0 1 2.87 1 3.46 3.46 0 0 1 1 2.65 3.64 3.64 0 0 1-.73 2.33 3.46 3.46 0 0 1-2 1.24l3.52 5.22h-1.7l-3.37-5.1h-2v5.1H672zm3.76 6a2.62 2.62 0 0 0 1.83-.62 2.61 2.61 0 0 0 0-3.46 2.6 2.6 0 0 0-1.84-.61h-2.34v4.7zm15.08-6v12.4h-1.44V226l-2.36.74-.35-1.26 2.9-.95z" opacity=".5" class="I"/><path d="M590.66 184.18h-3.95l-.83 2.23h-1.08l3.34-8.75h1.1l3.33 8.75h-1.07zm-3.6-.9h3.3l-1.65-4.5zM599 181.7a2.17 2.17 0 0 1 1 .86 2.57 2.57 0 0 1 .36 1.39 2.24 2.24 0 0 1-.77 1.8 3.21 3.21 0 0 1-2.11.65h-3.28v-8.75h3.15a2.92 2.92 0 0 1 1.91.57 2 2 0 0 1 .69 1.59 2 2 0 0 1-.95 1.89zm-3.77-3.14v2.77h2.06a1.8 1.8 0 0 0 1.21-.37 1.29 1.29 0 0 0 .43-1c0-.9-.53-1.36-1.6-1.36zm2.2 6.93a2.15 2.15 0 0 0 1.42-.43 1.53 1.53 0 0 0 .49-1.22 1.42 1.42 0 0 0-.53-1.18 2.29 2.29 0 0 0-1.46-.42h-2.1v3.25zm9.64-3.8a2.28 2.28 0 0 1 1 .86 2.57 2.57 0 0 1 .36 1.39 2.22 2.22 0 0 1-.78 1.8 3.19 3.19 0 0 1-2.11.65h-3.28v-8.75h3.15a2.92 2.92 0 0 1 1.91.57 2 2 0 0 1 .69 1.59 2 2 0 0 1-.94 1.89zm-3.77-3.14v2.77h2.05a1.83 1.83 0 0 0 1.22-.37 1.31 1.31 0 0 0 .42-1c0-.9-.53-1.36-1.58-1.36zm2.18 6.93a2.13 2.13 0 0 0 1.42-.43 1.53 1.53 0 0 0 .49-1.22 1.42 1.42 0 0 0-.52-1.18 2.29 2.29 0 0 0-1.46-.42h-2.1v3.25zm4.84-7.83h5v.92h-4v2.8h3.9v.92h-3.9v3.2h4.18v.92h-5.2zm10.24 5v3.76h-1v-3.8l-2.93-5h1.17l2.28 4 2.26-4h1.16z" class="I J"/><path d="M495.58 253.05h5v.95h-4v3h3.85v.92h-3.85v3.87h-1zm11.3 6.52h-3.95l-.84 2.22H501l3.35-8.74h1.1l3.33 8.74h-1.07zm-3.62-.9h3.3l-1.65-4.5zm7.2-5.62h2.7a2.82 2.82 0 0 1 2 .68 2.4 2.4 0 0 1 .74 1.86 2.56 2.56 0 0 1-.52 1.65 2.46 2.46 0 0 1-1.42.88l2.48 3.67h-1.2l-2.38-3.58h-1.42v3.58h-1zm2.65 4.22a1.8 1.8 0 0 0 1.28-.43 1.85 1.85 0 0 0 0-2.44 1.82 1.82 0 0 0-1.3-.43h-1.65v3.3zm13.58-4.22v8.74h-1v-7.16l-2.77 7.16H522l-2.77-7.16v7.16h-1v-8.74h1.45l2.82 7.37 2.8-7.37zm-31.1 24.5a4.62 4.62 0 0 1-1.8-.35 4.26 4.26 0 0 1-1.43-.95 4.42 4.42 0 0 1-.95-1.43 4.62 4.62 0 0 1-.34-1.8 4.55 4.55 0 0 1 .34-1.78 4.42 4.42 0 0 1 .95-1.43 4.21 4.21 0 0 1 1.44-.95 4.61 4.61 0 0 1 1.79-.35 4.72 4.72 0 0 1 1.53.24 4 4 0 0 1 2.2 1.69 3.87 3.87 0 0 1 .52 1.35h-1.1a3.23 3.23 0 0 0-.43-1 3 3 0 0 0-.69-.74 3.39 3.39 0 0 0-.93-.47 3.9 3.9 0 0 0-1.1-.16 3.41 3.41 0 0 0-3.21 2.16 3.82 3.82 0 0 0 0 2.82 3.44 3.44 0 0 0 .73 1.13 3.4 3.4 0 0 0 2.48 1 3.28 3.28 0 0 0 2-.63 3 3 0 0 0 1.13-1.71h1.1a4 4 0 0 1-.52 1.35 3.86 3.86 0 0 1-.93 1 3.93 3.93 0 0 1-1.27.66 4.72 4.72 0 0 1-1.51.35zm9.3 0a3.45 3.45 0 0 1-1.35-.25 2.84 2.84 0 0 1-1-.71 3.24 3.24 0 0 1-.66-1.11 4.45 4.45 0 0 1-.22-1.47v-5.35h1V274a2.77 2.77 0 0 0 .6 1.88 2.1 2.1 0 0 0 1.65.69 2.07 2.07 0 0 0 1.65-.68 2.75 2.75 0 0 0 .6-1.89v-5.4h1v5.4a4.2 4.2 0 0 1-.23 1.47 3.07 3.07 0 0 1-.65 1.11 2.72 2.72 0 0 1-1 .71 3.47 3.47 0 0 1-1.39.25zm5.64-8.9h2.7a2.85 2.85 0 0 1 2 .68 2.4 2.4 0 0 1 .73 1.86 2.62 2.62 0 0 1-.51 1.65 2.52 2.52 0 0 1-1.43.88l2.5 3.67h-1.2l-2.33-3.6h-1.42v3.58h-1zm2.65 4.22a1.83 1.83 0 0 0 1.29-.43 1.61 1.61 0 0 0 .46-1.23 1.58 1.58 0 0 0-.45-1.21 1.81 1.81 0 0 0-1.3-.43h-1.65v3.3zm11.17-4.22l-3.15 8.74h-1.1l-3.12-8.74h1.1l2.6 7.43 2.6-7.43zm1.7 0h5v.92h-4v2.8H531v.93h-3.9v3.18h4.17v.92h-5.18z" class="I J"/><path d="M641 311.3l-3.14 8.75h-1.1l-3.13-8.75h1.1l2.58 7.44 2.6-7.44zm1.7 0h1v8.75h-1zm3.46 0h1v7.83h3.62v.92h-4.64zm6.2 0h1v7.83H657v.92h-4.64zm11.1 6.53h-4l-.83 2.22h-1.08l3.34-8.75H662l3.33 8.75h-1.07zm-3.6-.9h3.3l-1.65-4.5zm14.82-1.18v2.34a4.08 4.08 0 0 1-1.64 1.58 4.82 4.82 0 0 1-2.26.52 5.08 5.08 0 0 1-1.89-.34 4.58 4.58 0 0 1-1.49-1 4.35 4.35 0 0 1-1-1.44 4.68 4.68 0 0 1-.34-1.82 4.53 4.53 0 0 1 .34-1.79 4.24 4.24 0 0 1 1-1.42 4.54 4.54 0 0 1 1.44-.94 4.91 4.91 0 0 1 1.82-.33 5 5 0 0 1 1.37.18 4 4 0 0 1 1.14.55 3.59 3.59 0 0 1 .87.87 3.79 3.79 0 0 1 .56 1.14h-1.12a2.89 2.89 0 0 0-1.1-1.33 3.23 3.23 0 0 0-1.74-.46 3.56 3.56 0 0 0-1.4.26 3.33 3.33 0 0 0-1.1.74 3.4 3.4 0 0 0-.73 1.11 3.9 3.9 0 0 0-.26 1.42 3.77 3.77 0 0 0 .27 1.44 3.23 3.23 0 0 0 .75 1.15 3.37 3.37 0 0 0 1.15.75 4.18 4.18 0 0 0 1.48.26 4.09 4.09 0 0 0 1.61-.32 3.06 3.06 0 0 0 1.27-1.06v-1.2h-2.94v-.92zm2.2-4.45h5v.92h-4V315h3.9v.92h-3.9v3.2h4.18v.92h-5.2z" class="I J"/><path d="M691.33 396.43h-4l-.83 2.22h-1.08l3.34-8.74h1.1l3.33 8.74h-1.07zm-3.6-.9H691l-1.65-4.53zm7.2-5.63h1v8.74h-1zm9.98 0v8.74h-1.1l-4.38-7.1v7.1h-1v-8.74h1.17l4.3 7v-7zm4.25.93h-2.58v-.92h6.26v.92h-2.66v7.82h-1zm5.4-.93h2.7a2.82 2.82 0 0 1 2 .68 2.42 2.42 0 0 1 .74 1.86 2.56 2.56 0 0 1-.52 1.65 2.46 2.46 0 0 1-1.42.88l2.48 3.67h-1.2l-2.33-3.58h-1.42v3.58h-1zm2.65 4.22a1.8 1.8 0 0 0 1.28-.43 1.85 1.85 0 0 0 0-2.44 1.82 1.82 0 0 0-1.3-.43h-1.65v3.3zm5.05-4.22h5v.92h-4v2.8h3.9v.93h-3.9v3.18h4.17v.92h-5.2zm7.04 0h5v.92h-4v2.8h3.9v.93h-3.9v3.18h4.17v.92h-5.18z" class="I J"/><path d="M698.66 102.27h1v7.83h3.63v.9h-4.64zm9.2 8.9a3.59 3.59 0 0 1-1.34-.25 3 3 0 0 1-1-.71 3.22 3.22 0 0 1-.65-1.11 4.53 4.53 0 0 1-.23-1.47v-5.36h1v5.4a2.8 2.8 0 0 0 .61 1.88 2.32 2.32 0 0 0 3.29 0 2.78 2.78 0 0 0 .6-1.89v-5.4h1v5.36a4.53 4.53 0 0 1-.23 1.47 3.22 3.22 0 0 1-.65 1.11 2.88 2.88 0 0 1-1 .71 3.62 3.62 0 0 1-1.4.26zm5.64-8.9h5v.93h-4v3h3.84v.92h-3.84V111h-1zm6.66 0h5v.93h-4v3H725v.92h-3.84V111h-1zm6.67 0h1V111h-1zm3.47 0h5.05v.93h-4v2.8h3.9v.92h-3.9v3.2h4.17v.9h-5.22zm7.03 0h1v7.83H742v.9h-4.64zm6.2 0h2.67a5.8 5.8 0 0 1 2 .32 4.27 4.27 0 0 1 1.51.88 4.06 4.06 0 0 1 1 1.37 4.88 4.88 0 0 1 0 3.58 4 4 0 0 1-1 1.39 4.44 4.44 0 0 1-1.51.89 5.54 5.54 0 0 1-1.95.32h-2.67zm2.67 7.83a4.37 4.37 0 0 0 1.52-.25 3.27 3.27 0 0 0 1.18-.71 3.11 3.11 0 0 0 .76-1.09 3.63 3.63 0 0 0 .27-1.42 3.55 3.55 0 0 0-.27-1.41 3.18 3.18 0 0 0-.75-1.08 3.55 3.55 0 0 0-1.18-.7 4.63 4.63 0 0 0-1.53-.24h-1.65v6.9z" class="I J"/><path d="M910.8 121.12l-2.56 8.75h-1.15l-1.94-7.22-1.93 7.22H902l-2.56-8.75h1.1l2 7.37 1.9-7.37h1.17l1.9 7.4 2.07-7.4zm5.67 8.88a4.55 4.55 0 0 1-1.78-.34 4.43 4.43 0 0 1-1.44-1 4.36 4.36 0 0 1-1-1.43 4.75 4.75 0 0 1 0-3.58 4.39 4.39 0 0 1 .94-1.43 4.57 4.57 0 0 1 1.44-1 4.64 4.64 0 0 1 1.79-.34 4.57 4.57 0 0 1 1.79.34 4.42 4.42 0 0 1 1.43 1 4.26 4.26 0 0 1 .95 1.43 4.75 4.75 0 0 1 0 3.58 4.36 4.36 0 0 1-.95 1.43 4.29 4.29 0 0 1-1.43 1 4.57 4.57 0 0 1-1.74.34zm0-.95a3.47 3.47 0 0 0 1.38-.27A3.3 3.3 0 0 0 919 128a3.54 3.54 0 0 0 .73-1.14 3.91 3.91 0 0 0 .26-1.43 3.64 3.64 0 0 0-1-2.53 3.26 3.26 0 0 0-1.1-.75 3.77 3.77 0 0 0-2.75 0 3.26 3.26 0 0 0-1.1.75 3.64 3.64 0 0 0-1 2.53 3.91 3.91 0 0 0 .26 1.43 3.54 3.54 0 0 0 .7 1.14 3.3 3.3 0 0 0 1.11.75 3.45 3.45 0 0 0 1.36.31zm10.38.95a4.6 4.6 0 0 1-1.79-.34 4.43 4.43 0 0 1-1.44-1 4.53 4.53 0 0 1-1-1.43 4.75 4.75 0 0 1 0-3.58 4.34 4.34 0 0 1 2.38-2.38 4.69 4.69 0 0 1 1.8-.34 4.6 4.6 0 0 1 1.79.34 4.53 4.53 0 0 1 1.43 1 4.42 4.42 0 0 1 .95 1.43 4.88 4.88 0 0 1 0 3.58 4.53 4.53 0 0 1-.95 1.43 4.39 4.39 0 0 1-1.43 1 4.6 4.6 0 0 1-1.74.29zm0-.95a3.54 3.54 0 0 0 1.38-.27 3.36 3.36 0 0 0 1.83-1.89 3.91 3.91 0 0 0 .26-1.43 3.6 3.6 0 0 0-.27-1.4 3.44 3.44 0 0 0-.73-1.13 3.22 3.22 0 0 0-1.09-.75 3.79 3.79 0 0 0-2.76 0 3.36 3.36 0 0 0-1.1.75 3.6 3.6 0 0 0-.73 1.13 3.79 3.79 0 0 0-.26 1.4 3.71 3.71 0 0 0 .26 1.43 3.23 3.23 0 0 0 .73 1.14 3.36 3.36 0 0 0 1.1.75 3.54 3.54 0 0 0 1.38.28zm6.42-7.93h2.67a5.8 5.8 0 0 1 2 .31 4.29 4.29 0 0 1 1.51.89 4 4 0 0 1 1 1.37 4.45 4.45 0 0 1 .34 1.78 4.55 4.55 0 0 1-.34 1.8 3.9 3.9 0 0 1-1 1.38 4.31 4.31 0 0 1-1.51.9 5.78 5.78 0 0 1-1.95.32h-2.67zm2.67 7.83a4.61 4.61 0 0 0 1.52-.25 3.41 3.41 0 0 0 1.18-.71 3.15 3.15 0 0 0 .76-1.1 3.84 3.84 0 0 0 0-2.83 3 3 0 0 0-.75-1.07 3.39 3.39 0 0 0-1.18-.7 4.63 4.63 0 0 0-1.53-.25h-1.66V129zm10.63 1.05a4.62 4.62 0 0 1-1.8-.34 4.34 4.34 0 0 1-2.38-2.38 4.91 4.91 0 0 1 0-3.59 4.42 4.42 0 0 1 1-1.43 4.35 4.35 0 0 1 1.44-1 4.6 4.6 0 0 1 1.79-.34 4.72 4.72 0 0 1 1.53.23 4.37 4.37 0 0 1 1.27.66 4 4 0 0 1 1.45 2.38h-1.1a3.48 3.48 0 0 0-.43-1 2.86 2.86 0 0 0-.7-.73 3 3 0 0 0-.92-.47 3.75 3.75 0 0 0-2.48.11 3.36 3.36 0 0 0-1.1.75 3.44 3.44 0 0 0-.73 1.13 3.69 3.69 0 0 0-.27 1.41 3.62 3.62 0 0 0 .27 1.41 3.36 3.36 0 0 0 1.83 1.89 3.54 3.54 0 0 0 1.38.27 3.3 3.3 0 0 0 2-.63 3 3 0 0 0 1.13-1.71h1.1a3.8 3.8 0 0 1-.52 1.35 3.72 3.72 0 0 1-.93 1 4.16 4.16 0 0 1-1.27.67 5 5 0 0 1-1.56.36zm10.1 0a4.55 4.55 0 0 1-1.78-.34 4.44 4.44 0 0 1-2.4-2.39 4.88 4.88 0 0 1 0-3.58 4.42 4.42 0 0 1 1-1.43 4.46 4.46 0 0 1 1.44-1 4.88 4.88 0 0 1 3.58 0 4.34 4.34 0 0 1 2.38 2.38 4.75 4.75 0 0 1 0 3.58 4.53 4.53 0 0 1-1 1.43 4.29 4.29 0 0 1-1.43 1 4.6 4.6 0 0 1-1.79.35zm0-.95a3.47 3.47 0 0 0 1.38-.27 3.3 3.3 0 0 0 1.11-.75 3.54 3.54 0 0 0 .73-1.14 3.91 3.91 0 0 0 .26-1.43 3.64 3.64 0 0 0-1-2.53 3.26 3.26 0 0 0-1.1-.75 3.77 3.77 0 0 0-2.75 0 3.16 3.16 0 0 0-1.1.75 3.64 3.64 0 0 0-1 2.53 3.91 3.91 0 0 0 .26 1.43 3.54 3.54 0 0 0 .73 1.14 3.3 3.3 0 0 0 1.11.75 3.45 3.45 0 0 0 1.37.28zm8-7.05h-2.6v-.92h6.26v.92h-2.66v7.83h-1zm5.38-.88h5v.88h-4v2.8H975v.92h-3.9V129h4.17v.92h-5.18z" class="I J"/><path d="M951.05 393.87a4.62 4.62 0 0 1-1.8-.35 4.42 4.42 0 0 1-1.43-.95 4.26 4.26 0 0 1-1-1.43 4.78 4.78 0 0 1 0-3.59 4.36 4.36 0 0 1 1-1.43 4.42 4.42 0 0 1 1.43-.95 4.88 4.88 0 0 1 1.8-.34 5.1 5.1 0 0 1 1.53.23 4.16 4.16 0 0 1 1.27.67 3.82 3.82 0 0 1 .93 1 4 4 0 0 1 .52 1.35h-1.1a3.14 3.14 0 0 0-.42-1 3 3 0 0 0-.7-.73 3.2 3.2 0 0 0-.92-.47 3.75 3.75 0 0 0-2.48.11 3.5 3.5 0 0 0-1.84 1.89 3.6 3.6 0 0 0-.27 1.4 3.7 3.7 0 0 0 .27 1.42 3.46 3.46 0 0 0 3.22 2.13 3.25 3.25 0 0 0 2-.63 3 3 0 0 0 1.13-1.71h1.1a4.17 4.17 0 0 1-.52 1.35 3.86 3.86 0 0 1-.93 1 4.14 4.14 0 0 1-1.27.66 4.81 4.81 0 0 1-1.52.37zm10.1 0a4.61 4.61 0 0 1-1.79-.35 4.38 4.38 0 0 1-2.39-2.39 4.88 4.88 0 0 1 0-3.58 4.53 4.53 0 0 1 .95-1.43 4.35 4.35 0 0 1 1.44-.95 4.88 4.88 0 0 1 3.58 0 4.42 4.42 0 0 1 1.43.95 4.53 4.53 0 0 1 1 1.43 4.64 4.64 0 0 1-1 5 4.42 4.42 0 0 1-1.43.95 4.61 4.61 0 0 1-1.79.37zm0-.95a3.46 3.46 0 0 0 2.48-1 3.23 3.23 0 0 0 .73-1.14 4 4 0 0 0 0-2.83 3.79 3.79 0 0 0-.73-1.13 3.19 3.19 0 0 0-1.1-.74 3.66 3.66 0 0 0-2.76 0 3.19 3.19 0 0 0-1.1.74 3.58 3.58 0 0 0-.72 1.13 3.69 3.69 0 0 0-.27 1.41 3.9 3.9 0 0 0 .26 1.42 3.42 3.42 0 0 0 3.21 2.17zm6.42-7.92h2.72a2.83 2.83 0 0 1 2 .69 2.4 2.4 0 0 1 .74 1.86 2.85 2.85 0 0 1-.2 1.08 2.27 2.27 0 0 1-1.42 1.35 3.37 3.37 0 0 1-1.14.18h-1.7v3.6h-1zm2.65 4.23a1.82 1.82 0 0 0 1.29-.44 1.6 1.6 0 0 0 .47-1.23 1.53 1.53 0 0 0-.46-1.2 1.79 1.79 0 0 0-1.3-.43h-1.65v3.3zm6.85 4.64a3 3 0 0 1-2.12-.74 2.81 2.81 0 0 1-.87-2h1a1.93 1.93 0 0 0 .59 1.32 1.88 1.88 0 0 0 1.36.51 2.21 2.21 0 0 0 1.37-.4 1.33 1.33 0 0 0 .5-1.11 1.24 1.24 0 0 0-.29-.87 2.62 2.62 0 0 0-1-.61l-1.26-.48a3.49 3.49 0 0 1-1.47-1 2.31 2.31 0 0 1-.45-1.46 2.09 2.09 0 0 1 .19-.91 2 2 0 0 1 .55-.71 2.52 2.52 0 0 1 .82-.41 3.48 3.48 0 0 1 1.1-.16 2.76 2.76 0 0 1 1.93.64 2.46 2.46 0 0 1 .8 1.77h-1a1.6 1.6 0 0 0-.49-1.11 1.7 1.7 0 0 0-1.21-.4 1.92 1.92 0 0 0-1.2.35 1.17 1.17 0 0 0-.45 1 1.45 1.45 0 0 0 .3.94 2.53 2.53 0 0 0 1 .65l1.3.5a3.25 3.25 0 0 1 1.43.92 2.08 2.08 0 0 1 .44 1.38 2.61 2.61 0 0 1-.2 1 2.21 2.21 0 0 1-.58.77 2.73 2.73 0 0 1-.91.49 4 4 0 0 1-1.17.14zm4.74-8.87h5v.93h-4v2.8h3.9v.92h-3.9v3.2H987v.92h-5.18z" class="I J"/><path d="M706.32 474.92v8.75h-1v-7.16l-2.77 7.16h-.95l-2.77-7.16v7.16h-1v-8.75h1.45l2.82 7.38 2.8-7.38zm7.54 6.53h-4l-.84 2.22H708l3.34-8.75h1.1l3.33 8.75h-1.07zm-3.62-.9h3.3l-1.65-4.5zm14.84-1.18v2.34a4.08 4.08 0 0 1-1.64 1.58 4.86 4.86 0 0 1-2.26.53 5 5 0 0 1-1.89-.35 4.32 4.32 0 0 1-1.49-1 4.17 4.17 0 0 1-1-1.43 4.72 4.72 0 0 1-.34-1.82 4.62 4.62 0 0 1 .34-1.8 4.29 4.29 0 0 1 2.4-2.35 4.68 4.68 0 0 1 1.82-.34 4.61 4.61 0 0 1 1.36.19 4 4 0 0 1 1.15.55 3.39 3.39 0 0 1 .87.86 4 4 0 0 1 .56 1.14h-1.12a2.77 2.77 0 0 0-1.11-1.32 3.19 3.19 0 0 0-1.74-.47 3.55 3.55 0 0 0-1.39.27 3.31 3.31 0 0 0-1.1.73 3.15 3.15 0 0 0-.73 1.12 3.66 3.66 0 0 0-.26 1.42 4 4 0 0 0 .26 1.44 3.33 3.33 0 0 0 1.91 1.89 4.14 4.14 0 0 0 3.09-.06 3 3 0 0 0 1.26-1.05v-1.2h-2.93v-.92zm10.22 0v2.34a4.14 4.14 0 0 1-1.64 1.58 4.86 4.86 0 0 1-2.26.53 5.1 5.1 0 0 1-1.9-.35 4.38 4.38 0 0 1-1.48-1 4.17 4.17 0 0 1-1-1.43 4.72 4.72 0 0 1-.35-1.82 4.62 4.62 0 0 1 .35-1.8 4.29 4.29 0 0 1 2.4-2.35 4.68 4.68 0 0 1 1.82-.34 4.61 4.61 0 0 1 1.36.19 4 4 0 0 1 1.15.55 3.73 3.73 0 0 1 .87.86 4 4 0 0 1 .55 1.14h-1.1a2.83 2.83 0 0 0-1.06-1.27 3.19 3.19 0 0 0-1.74-.47 3.52 3.52 0 0 0-1.39.27 3.35 3.35 0 0 0-1.11.73 3.27 3.27 0 0 0-.72 1.12 3.66 3.66 0 0 0-.26 1.42 3.76 3.76 0 0 0 .26 1.44 3.33 3.33 0 0 0 1.91 1.89 3.94 3.94 0 0 0 1.48.27 3.88 3.88 0 0 0 1.6-.33 3 3 0 0 0 1.27-1.05v-1.2h-2.94v-.92zm6.14 4.45a4.58 4.58 0 0 1-3.22-1.3 4.25 4.25 0 0 1-1-1.44 4.43 4.43 0 0 1-.35-1.79 4.38 4.38 0 0 1 .35-1.78 4.28 4.28 0 0 1 .94-1.44 4.54 4.54 0 0 1 1.44-.94 4.75 4.75 0 0 1 3.58 0 4.39 4.39 0 0 1 1.43.94 4.3 4.3 0 0 1 1 1.44 4.56 4.56 0 0 1 .35 1.78 4.61 4.61 0 0 1-.35 1.79 4.32 4.32 0 0 1-2.38 2.39 4.57 4.57 0 0 1-1.79.35zm0-.95a3.51 3.51 0 0 0 2.49-1 3.54 3.54 0 0 0 .73-1.14 3.86 3.86 0 0 0 .26-1.42 3.6 3.6 0 0 0-.27-1.4 3.65 3.65 0 0 0-.73-1.14 3.1 3.1 0 0 0-1.1-.74 3.64 3.64 0 0 0-2.75 0 3.1 3.1 0 0 0-1.1.74 3.65 3.65 0 0 0-.73 1.14 3.6 3.6 0 0 0-.27 1.4 3.86 3.86 0 0 0 .26 1.42 3.54 3.54 0 0 0 .73 1.14 3.51 3.51 0 0 0 2.48 1zm8-7.02h-2.6v-.93h6.27v.93h-2.67v7.82h-1zm7.57 7.97a3 3 0 0 1-2.13-.74 2.77 2.77 0 0 1-.86-2h1a1.88 1.88 0 0 0 .58 1.32 1.9 1.9 0 0 0 1.37.51 2.12 2.12 0 0 0 1.36-.4 1.34 1.34 0 0 0 .51-1.11 1.24 1.24 0 0 0-.3-.87 2.65 2.65 0 0 0-1-.61l-1.26-.48a3.28 3.28 0 0 1-1.47-1 2.26 2.26 0 0 1-.46-1.46 2.09 2.09 0 0 1 .2-.91 2 2 0 0 1 .54-.71 2.57 2.57 0 0 1 .85-.46 3.72 3.72 0 0 1 1.09-.16 2.79 2.79 0 0 1 1.94.64 2.49 2.49 0 0 1 .79 1.77h-1a1.59 1.59 0 0 0-.48-1.11 1.73 1.73 0 0 0-1.22-.4 1.9 1.9 0 0 0-1.2.36 1.14 1.14 0 0 0-.45.95 1.4 1.4 0 0 0 .31.94 2.53 2.53 0 0 0 1 .65l1.28.5a3.29 3.29 0 0 1 1.44.92 2.13 2.13 0 0 1 .43 1.38 2.41 2.41 0 0 1-.2 1 2 2 0 0 1-.58.77 2.73 2.73 0 0 1-.91.49 4 4 0 0 1-1.17.23z" class="I J"/><path d="M618.2 428.44a2.17 2.17 0 0 1 1 .85 2.66 2.66 0 0 1 .35 1.39 2.23 2.23 0 0 1-.77 1.8 3.21 3.21 0 0 1-2.11.65h-3.28v-8.75h3.15a2.92 2.92 0 0 1 1.91.57 2 2 0 0 1 .69 1.59 2 2 0 0 1-.94 1.9zm-3.76-3.15v2.77h2a1.75 1.75 0 0 0 1.21-.37 1.29 1.29 0 0 0 .43-1c0-.9-.53-1.36-1.6-1.36zm2.18 6.93a2.1 2.1 0 0 0 1.42-.43 1.53 1.53 0 0 0 .49-1.22 1.41 1.41 0 0 0-.53-1.18 2.29 2.29 0 0 0-1.46-.42h-2.1v3.25zm4.84-7.84h5v.92h-4v2.8h3.9v.9h-3.9v3.2h4.17v.92h-5.18zm10.98 8.9a4.62 4.62 0 0 1-1.8-.34 4.42 4.42 0 0 1-1.43-.95 4.53 4.53 0 0 1-1-1.43 4.91 4.91 0 0 1 0-3.59 4.42 4.42 0 0 1 1-1.43 4.35 4.35 0 0 1 1.44-.95 4.6 4.6 0 0 1 1.79-.34 4.72 4.72 0 0 1 1.53.23 4.37 4.37 0 0 1 1.27.66 4 4 0 0 1 1.45 2.38h-1.1a3.48 3.48 0 0 0-.43-1 2.7 2.7 0 0 0-.7-.73 3 3 0 0 0-.92-.47 3.75 3.75 0 0 0-2.48.11 3.36 3.36 0 0 0-1.1.75 3.44 3.44 0 0 0-.73 1.13 3.69 3.69 0 0 0-.27 1.41 3.62 3.62 0 0 0 .27 1.41 3.36 3.36 0 0 0 1.83 1.89 3.54 3.54 0 0 0 1.38.27 3.3 3.3 0 0 0 2-.63 3 3 0 0 0 1.15-1.65h1.1a3.8 3.8 0 0 1-.52 1.35 3.72 3.72 0 0 1-.93 1 4.16 4.16 0 0 1-1.24.65 5 5 0 0 1-1.56.27zm11-.14l-3.83-4.36v4.36h-1v-8.75h1v3.85l3.64-3.85h1.23l-3.87 4.08 4.1 4.67zm2.6-8.75h5.05v.92h-4v2.8h3.9v.9h-3.9v3.2h4.17v.92h-5.2zm8.85.92h-2.6v-.92h6.27v.92h-2.67v7.83h-1zm6.97 0h-2.6v-.92h6.27v.92h-2.66v7.83h-1zm7.6 7.97a3 3 0 0 1-2.12-.73 2.84 2.84 0 0 1-.87-2h1a1.9 1.9 0 0 0 .59 1.33 1.87 1.87 0 0 0 1.36.5 2.15 2.15 0 0 0 1.37-.4 1.35 1.35 0 0 0 .5-1.1 1.21 1.21 0 0 0-.29-.87 2.74 2.74 0 0 0-1-.62l-1.26-.48a3.48 3.48 0 0 1-1.47-1 2.34 2.34 0 0 1-.45-1.47 2.12 2.12 0 0 1 .19-.91 2.1 2.1 0 0 1 .55-.71 2.59 2.59 0 0 1 .84-.45 3.48 3.48 0 0 1 1.1-.16 2.8 2.8 0 0 1 1.93.63 2.54 2.54 0 0 1 .8 1.77h-1a1.61 1.61 0 0 0-.49-1.1 1.7 1.7 0 0 0-1.21-.41 1.87 1.87 0 0 0-1.2.36 1.17 1.17 0 0 0-.45 1 1.4 1.4 0 0 0 .3.93 2.43 2.43 0 0 0 1 .65l1.3.5a3.24 3.24 0 0 1 1.43.91 2.14 2.14 0 0 1 .44 1.39 2.53 2.53 0 0 1-.2 1 2.12 2.12 0 0 1-.58.77 2.42 2.42 0 0 1-.91.49 4 4 0 0 1-1.19.18z" class="I J"/><path d="M454.18 460.68a4.62 4.62 0 0 1-1.8-.34A4.34 4.34 0 0 1 450 458a4.91 4.91 0 0 1 0-3.59 4.53 4.53 0 0 1 .95-1.43 4.42 4.42 0 0 1 1.43-.95 4.69 4.69 0 0 1 1.8-.34 5 5 0 0 1 1.53.23 4.16 4.16 0 0 1 1.27.67 3.82 3.82 0 0 1 .93 1 4 4 0 0 1 .52 1.34h-1.1a3.48 3.48 0 0 0-.43-1 2.86 2.86 0 0 0-.7-.73 3 3 0 0 0-.92-.47 3.75 3.75 0 0 0-2.48.11 3.36 3.36 0 0 0-1.1.75 3.68 3.68 0 0 0-.74 1.14 3.79 3.79 0 0 0-.26 1.4 3.9 3.9 0 0 0 .26 1.42 3.63 3.63 0 0 0 .74 1.13 3.36 3.36 0 0 0 1.1.75 3.54 3.54 0 0 0 1.38.27 3.3 3.3 0 0 0 2-.63 3 3 0 0 0 1.13-1.71h1.1a4.13 4.13 0 0 1-.52 1.36 4 4 0 0 1-.93 1 4.37 4.37 0 0 1-1.27.66 4.72 4.72 0 0 1-1.51.3zm6.16-8.88h1v3.6h4.45v-3.6h1v8.75h-1v-4.22h-4.45v4.22h-1zm14.03 6.52h-3.95l-.84 2.22h-1.08l3.35-8.75h1.1l3.33 8.75h-1.07zm-3.62-.9H474l-1.65-4.5zm7.25-5.62h2.7a2.87 2.87 0 0 1 2 .68 2.44 2.44 0 0 1 .74 1.87 2.85 2.85 0 0 1-.2 1.08 2.32 2.32 0 0 1-.55.82 2.44 2.44 0 0 1-.86.53 3.43 3.43 0 0 1-1.15.18H479v3.6h-1zm2.65 4.23a1.81 1.81 0 0 0 1.28-.44 1.57 1.57 0 0 0 .47-1.23 1.6 1.6 0 0 0-.45-1.21 1.87 1.87 0 0 0-1.3-.43H479v3.3zm4.5-4.23h5v.92h-4v2.8h3.9v.92h-3.9v3.2h4.17v.92h-5.18zm7.03 0h1v7.83h3.63v.92h-4.64z" class="I J"/><path d="M214.64 361.84h1v3.6h4.46v-3.6h1v8.75h-1v-4.22h-4.46v4.22h-1zm14.03 6.53h-3.95l-.83 2.22h-1.08l3.34-8.75h1.1l3.33 8.75h-1.07zm-3.6-.9h3.3l-1.66-4.5zm13.7-5.63v8.75h-1.1l-4.38-7.1v7.1h-1v-8.75h1.17l4.3 7v-7zm10.48 4.46v2.34a4.14 4.14 0 0 1-1.64 1.58 4.85 4.85 0 0 1-2.26.52 5.1 5.1 0 0 1-1.9-.34 4.69 4.69 0 0 1-1.49-.95 4.23 4.23 0 0 1-1-1.44 4.69 4.69 0 0 1-.35-1.82 4.57 4.57 0 0 1 .35-1.79 4.22 4.22 0 0 1 .95-1.42 4.3 4.3 0 0 1 1.45-.93 5 5 0 0 1 3.18-.15 3.87 3.87 0 0 1 1.14.54 3.82 3.82 0 0 1 .88.87 4 4 0 0 1 .55 1.14H248a2.89 2.89 0 0 0-1.11-1.32 3.11 3.11 0 0 0-1.74-.47 3.52 3.52 0 0 0-1.39.27 3.25 3.25 0 0 0-1.11.73 3.34 3.34 0 0 0-.73 1.12 4.14 4.14 0 0 0 0 2.86 3.33 3.33 0 0 0 1.91 1.89 4.11 4.11 0 0 0 3.08-.06 3.11 3.11 0 0 0 1.27-1v-1.2h-2.94v-.92zm6.9 2.07h-4l-.83 2.22h-1.08l3.34-8.75h1.1l3.32 8.75H257zm-3.62-.9h3.3l-1.65-4.5zm7.2-5.63h2.72a2.83 2.83 0 0 1 2 .69 2.4 2.4 0 0 1 .74 1.86 2.52 2.52 0 0 1-.52 1.64 2.41 2.41 0 0 1-1.42.88l2.48 3.68h-1.2l-2.36-3.6h-1.4v3.6h-1zm2.66 4.23a1.81 1.81 0 0 0 1.28-.44 1.6 1.6 0 0 0 .47-1.23 1.57 1.57 0 0 0-.46-1.21 1.82 1.82 0 0 0-1.29-.42h-1.66v3.3zm10.94 4.66a3 3 0 0 1-2.13-.73 2.77 2.77 0 0 1-.86-2h1a1.94 1.94 0 0 0 .59 1.33 1.9 1.9 0 0 0 1.36.51 2.13 2.13 0 0 0 1.37-.41 1.31 1.31 0 0 0 .51-1.1 1.23 1.23 0 0 0-.3-.87 2.65 2.65 0 0 0-1-.61l-1.26-.48a3.36 3.36 0 0 1-1.47-1 2.26 2.26 0 0 1-.46-1.46 2.09 2.09 0 0 1 .2-.91 2 2 0 0 1 .54-.71 2.57 2.57 0 0 1 .85-.46 3.42 3.42 0 0 1 1.09-.16 2.8 2.8 0 0 1 1.94.64 2.49 2.49 0 0 1 .79 1.76h-1a1.58 1.58 0 0 0-.48-1.1 1.73 1.73 0 0 0-1.22-.4 2 2 0 0 0-1.2.35 1.17 1.17 0 0 0-.45 1 1.45 1.45 0 0 0 .3.94 2.77 2.77 0 0 0 1 .65l1.28.5a3.29 3.29 0 0 1 1.44.92 2.13 2.13 0 0 1 .43 1.38 2.37 2.37 0 0 1-.2 1 2 2 0 0 1-.58.78 2.73 2.73 0 0 1-.91.49 4 4 0 0 1-1.17.16zm6.3-7.96H277v-.93h6.26v.93h-2.66v7.82h-1zm5.4-.93h2.7a2.83 2.83 0 0 1 2 .69 2.4 2.4 0 0 1 .74 1.86 2.52 2.52 0 0 1-.52 1.64 2.41 2.41 0 0 1-1.42.88l2.48 3.68h-1.2l-2.36-3.6H286v3.6h-1zm2.65 4.23a1.81 1.81 0 0 0 1.28-.44 1.57 1.57 0 0 0 .47-1.23 1.6 1.6 0 0 0-.45-1.21 1.86 1.86 0 0 0-1.3-.42H286v3.3zm9.88 2.3h-3.95l-.83 2.22h-1.08l3.34-8.75h1.1l3.33 8.75h-1.07zm-3.6-.9h3.28l-1.65-4.5zm7.2-5.63h1v8.75h-1zm11.48 4.46v2.34a4.08 4.08 0 0 1-1.64 1.58 4.82 4.82 0 0 1-2.26.52 5.08 5.08 0 0 1-1.89-.34 4.58 4.58 0 0 1-1.49-.95 4.11 4.11 0 0 1-1-1.44 4.68 4.68 0 0 1-.34-1.82 4.57 4.57 0 0 1 .34-1.79 4.28 4.28 0 0 1 2.4-2.35 5 5 0 0 1 3.19-.15 4 4 0 0 1 1.14.54 3.59 3.59 0 0 1 .87.87 4 4 0 0 1 .56 1.14h-1.1a2.81 2.81 0 0 0-1.1-1.32 3.16 3.16 0 0 0-1.75-.47 3.55 3.55 0 0 0-1.39.27 3.31 3.31 0 0 0-1.1.73 3.2 3.2 0 0 0-.73 1.12 4 4 0 0 0 0 2.86 3.26 3.26 0 0 0 .74 1.14 3.51 3.51 0 0 0 1.16.75 4 4 0 0 0 1.48.27 3.93 3.93 0 0 0 1.61-.33 3.11 3.11 0 0 0 1.27-1v-1.2h-2.94v-.92zm2.2-4.46h1v3.6h4.46v-3.6h1v8.75h-1v-4.22h-4.46v4.22h-1zm10.76.93H323v-.93h6.27v.93h-2.67v7.82h-1z" class="I J"/><path d="M134.72 219.1a3 3 0 0 1-2.13-.73 2.77 2.77 0 0 1-.86-2h1a1.94 1.94 0 0 0 .59 1.33 1.88 1.88 0 0 0 1.36.51 2.13 2.13 0 0 0 1.37-.41 1.31 1.31 0 0 0 .51-1.1 1.24 1.24 0 0 0-.3-.87 2.65 2.65 0 0 0-1-.61l-1.27-.48a3.38 3.38 0 0 1-1.46-1 2.26 2.26 0 0 1-.46-1.46 2.09 2.09 0 0 1 .2-.91 2 2 0 0 1 .54-.71 2.57 2.57 0 0 1 .85-.46 3.42 3.42 0 0 1 1.09-.16 2.8 2.8 0 0 1 1.94.64 2.49 2.49 0 0 1 .79 1.76h-1a1.59 1.59 0 0 0-.49-1.1 1.7 1.7 0 0 0-1.21-.4 2 2 0 0 0-1.2.35 1.17 1.17 0 0 0-.45 1 1.45 1.45 0 0 0 .3.94 2.8 2.8 0 0 0 1 .65l1.3.5a3.29 3.29 0 0 1 1.44.92 2.13 2.13 0 0 1 .43 1.38 2.37 2.37 0 0 1-.2 1 2 2 0 0 1-.58.78 2.73 2.73 0 0 1-.91.49 4 4 0 0 1-1.18.16zm6.28-7.96h-2.58v-.93h6.26v.93H142V219h-1zm9 7.96a4.64 4.64 0 0 1-1.79-.34 4.39 4.39 0 0 1-1.43-1 4.29 4.29 0 0 1-1-1.43 4.88 4.88 0 0 1 0-3.58 4.53 4.53 0 0 1 .95-1.43 4.35 4.35 0 0 1 1.44-1 4.88 4.88 0 0 1 3.58 0 4.42 4.42 0 0 1 1.43 1 4.53 4.53 0 0 1 1 1.43 4.88 4.88 0 0 1 0 3.58 4.42 4.42 0 0 1-1 1.43 4.29 4.29 0 0 1-1.43 1 4.6 4.6 0 0 1-1.75.34zm0-.94a3.47 3.47 0 0 0 1.38-.28 3.51 3.51 0 0 0 1.11-.75 3.35 3.35 0 0 0 .72-1.14 3.7 3.7 0 0 0 .26-1.42 3.88 3.88 0 0 0-.26-1.41 3.6 3.6 0 0 0-.73-1.13 3.19 3.19 0 0 0-1.1-.74A3.47 3.47 0 0 0 150 211a3.54 3.54 0 0 0-1.38.27 3.06 3.06 0 0 0-1.09.74 3.6 3.6 0 0 0-.73 1.13 3.69 3.69 0 0 0-.27 1.41 3.9 3.9 0 0 0 .26 1.42 3.36 3.36 0 0 0 1.83 1.89 3.54 3.54 0 0 0 1.38.3zm16.93-7.96l-2.56 8.8h-1.16l-1.93-7.2-1.93 7.2h-1.17l-2.56-8.75h1.1l2.05 7.37 1.9-7.37h1.17l1.9 7.4 2.07-7.4zm2 0h5v.93h-4v2.8h3.9v.92h-3.9V218h4.18v1h-5.2z" class="I J"/><path d="M278.63 74.86l-3.15 8.75h-1.1l-3.13-8.75h1.1L275 82.3l2.6-7.44zm5.8 6.52h-3.95l-.84 2.23h-1.07l3.34-8.75h1.1l3.33 8.75h-1.07zm-3.62-.9h3.3l-1.65-4.5zm7.2-5.62h1v7.83h3.63v.92H288zm6.2 0h5.05v.92h-4v2.8h3.9v.92h-3.9v3.2h4.17v.92h-5.22z" class="I J"/><path d="M361.66 68.76a4.81 4.81 0 0 1-1.8-.34 4.42 4.42 0 0 1-1.43-1 4.53 4.53 0 0 1-.95-1.43 4.62 4.62 0 0 1-.35-1.8 4.57 4.57 0 0 1 .35-1.79 4.34 4.34 0 0 1 2.38-2.38 4.69 4.69 0 0 1 1.8-.35 4.76 4.76 0 0 1 1.53.24 4.14 4.14 0 0 1 1.27.66 3.86 3.86 0 0 1 .93 1 4 4 0 0 1 .52 1.34h-1.1a3.35 3.35 0 0 0-.43-1 2.9 2.9 0 0 0-.7-.74 2.94 2.94 0 0 0-.92-.46 3.57 3.57 0 0 0-1.1-.17 3.46 3.46 0 0 0-2.48 1 3.63 3.63 0 0 0-.74 1.13 3.84 3.84 0 0 0-.26 1.41 3.8 3.8 0 0 0 .26 1.41 3.52 3.52 0 0 0 .74 1.13 3.39 3.39 0 0 0 1.1.76 3.54 3.54 0 0 0 1.38.27 3.3 3.3 0 0 0 2-.63 3 3 0 0 0 1.13-1.71h1.1a4.08 4.08 0 0 1-.52 1.35 3.72 3.72 0 0 1-.93 1 4.16 4.16 0 0 1-1.27.67 5.05 5.05 0 0 1-1.51.43zm6.16-8.9h1v7.82h3.63v.93h-4.64zm9.18 8.9a3.4 3.4 0 0 1-1.34-.25 2.76 2.76 0 0 1-1-.71 2.93 2.93 0 0 1-.66-1.11 4.45 4.45 0 0 1-.23-1.47v-5.35h1v5.4a2.77 2.77 0 0 0 .6 1.88 2 2 0 0 0 1.64.7 2.08 2.08 0 0 0 1.66-.69 2.8 2.8 0 0 0 .59-1.89v-5.4h1v5.35a4.45 4.45 0 0 1-.23 1.47 3 3 0 0 1-.65 1.11 2.68 2.68 0 0 1-1 .71 3.44 3.44 0 0 1-1.38.25zm10.44-4.84a2.21 2.21 0 0 1 1 .86 2.57 2.57 0 0 1 .36 1.39A2.22 2.22 0 0 1 388 68a3.19 3.19 0 0 1-2.11.65h-3.28v-8.78h3.15a2.92 2.92 0 0 1 1.91.57 2 2 0 0 1 .73 1.56 2 2 0 0 1-.96 1.92zm-3.77-3.14v2.77h2.05a1.83 1.83 0 0 0 1.22-.37 1.33 1.33 0 0 0 .42-1c0-.9-.53-1.36-1.6-1.36zm2.18 6.93a2.13 2.13 0 0 0 1.42-.43 1.54 1.54 0 0 0 .49-1.22 1.42 1.42 0 0 0-.52-1.18 2.3 2.3 0 0 0-1.47-.42h-2.1v3.25z" class="I J"/><path d="M716.72 202.06a2.21 2.21 0 0 1 1 .86 2.57 2.57 0 0 1 .36 1.39 2.26 2.26 0 0 1-.77 1.8 3.22 3.22 0 0 1-2.12.65h-3.27V198h3.14a2.93 2.93 0 0 1 1.92.57 2 2 0 0 1 .69 1.58 2.06 2.06 0 0 1-.95 1.91zm-3.72-3.14v2.77h2a1.82 1.82 0 0 0 1.21-.37 1.33 1.33 0 0 0 .43-1c0-.9-.53-1.36-1.6-1.36zm2.2 6.93a2.12 2.12 0 0 0 1.41-.43 1.55 1.55 0 0 0 .5-1.23 1.42 1.42 0 0 0-.53-1.17 2.29 2.29 0 0 0-1.46-.42H713v3.25zM720 198h2.72a2.82 2.82 0 0 1 2 .68 2.42 2.42 0 0 1 .74 1.86 2.56 2.56 0 0 1-.52 1.65 2.46 2.46 0 0 1-1.42.88l2.48 3.68h-1.2l-2.38-3.6H721v3.6h-1zm2.65 4.22a1.81 1.81 0 0 0 1.29-.43 1.6 1.6 0 0 0 .47-1.23 1.55 1.55 0 0 0-.46-1.21 1.79 1.79 0 0 0-1.3-.43H721v3.3zm8.85 4.68a4.56 4.56 0 0 1-1.78-.35 4.35 4.35 0 0 1-2.4-2.39 4.86 4.86 0 0 1 0-3.57 4.32 4.32 0 0 1 2.39-2.38 4.75 4.75 0 0 1 3.58 0 4.26 4.26 0 0 1 1.43.95 4.42 4.42 0 0 1 .95 1.43 4.63 4.63 0 0 1-.95 5 4.26 4.26 0 0 1-1.43 1 4.57 4.57 0 0 1-1.79.31zm0-1a3.4 3.4 0 0 0 2.49-1 3.54 3.54 0 0 0 .73-1.14 3.86 3.86 0 0 0 .26-1.42 3.6 3.6 0 0 0-.27-1.4 3.49 3.49 0 0 0-.73-1.13 3.26 3.26 0 0 0-1.1-.75 3.64 3.64 0 0 0-2.75 0 3.16 3.16 0 0 0-1.1.75 3.49 3.49 0 0 0-.73 1.13 3.6 3.6 0 0 0-.27 1.4 3.86 3.86 0 0 0 .26 1.42 3.54 3.54 0 0 0 .73 1.14 3.4 3.4 0 0 0 2.48 1zm10.38 1a4.61 4.61 0 0 1-1.79-.35 4.41 4.41 0 0 1-1.44-1 4.68 4.68 0 0 1-.95-5 4.34 4.34 0 0 1 2.38-2.38 4.69 4.69 0 0 1 1.8-.35 4.56 4.56 0 0 1 1.78.35 4.34 4.34 0 0 1 2.38 2.38 4.73 4.73 0 0 1 0 3.57 4.41 4.41 0 0 1-.95 1.44 4.26 4.26 0 0 1-1.43 1 4.56 4.56 0 0 1-1.78.34zm0-1a3.39 3.39 0 0 0 3.21-2.17 3.86 3.86 0 0 0 .26-1.42 3.6 3.6 0 0 0-.27-1.4 3.49 3.49 0 0 0-.73-1.13 3.22 3.22 0 0 0-1.09-.75 3.54 3.54 0 0 0-1.38-.27 3.47 3.47 0 0 0-1.38.27 3.26 3.26 0 0 0-1.1.75 3.49 3.49 0 0 0-.73 1.13 3.6 3.6 0 0 0-.26 1.4 3.66 3.66 0 0 0 .26 1.42 3.35 3.35 0 0 0 .72 1.14 3.59 3.59 0 0 0 1.11.76 3.47 3.47 0 0 0 1.38.37zm11.27.86l-3.84-4.36v4.36h-1V198h1v3.84L753 198h1.24l-3.88 4.08 4.1 4.67zm2.6-8.76h1v7.82h3.63v.93h-4.64zm11.1 6.53h-4l-.83 2.23H761l3.34-8.75h1.1l3.33 8.75h-1.07zm-3.6-.9h3.3l-1.66-4.5zm13.7-5.63v8.75h-1.1l-4.38-7.12v7.12h-1V198h1.17l4.3 7v-7zm2.46 0h2.66a5.8 5.8 0 0 1 2 .31 4.33 4.33 0 0 1 1.51.88 3.93 3.93 0 0 1 1 1.37 4.5 4.5 0 0 1 .34 1.79 4.55 4.55 0 0 1-.34 1.8 4.06 4.06 0 0 1-1 1.38 4.51 4.51 0 0 1-1.52.9 5.78 5.78 0 0 1-2 .32h-2.65zm2.66 7.82a4.57 4.57 0 0 0 1.52-.24 3.48 3.48 0 0 0 1.18-.71 3.27 3.27 0 0 0 .77-1.1 3.82 3.82 0 0 0 .26-1.42 3.73 3.73 0 0 0-.26-1.41 3.07 3.07 0 0 0-.76-1.08 3.29 3.29 0 0 0-1.18-.69 4.35 4.35 0 0 0-1.53-.25h-1.65v6.9zm9 1.08a3 3 0 0 1-2.13-.74 2.77 2.77 0 0 1-.86-2h1a1.91 1.91 0 0 0 .59 1.32 1.88 1.88 0 0 0 1.34.52 2.13 2.13 0 0 0 1.37-.4 1.34 1.34 0 0 0 .51-1.11 1.24 1.24 0 0 0-.3-.87 2.78 2.78 0 0 0-1-.61l-1.27-.48a3.3 3.3 0 0 1-1.46-1 2.24 2.24 0 0 1-.46-1.46 2.13 2.13 0 0 1 .2-.91 2.1 2.1 0 0 1 .54-.71 2.56 2.56 0 0 1 .87-.45 3.41 3.41 0 0 1 1.09-.17 2.85 2.85 0 0 1 1.94.64 2.51 2.51 0 0 1 .79 1.77h-1a1.6 1.6 0 0 0-.49-1.11 1.75 1.75 0 0 0-1.21-.4 1.9 1.9 0 0 0-1.2.36 1.15 1.15 0 0 0-.45.95 1.41 1.41 0 0 0 .3.94 2.68 2.68 0 0 0 1 .65l1.3.5a3.29 3.29 0 0 1 1.44.92 2.13 2.13 0 0 1 .43 1.38 2.38 2.38 0 0 1-.2 1 2.09 2.09 0 0 1-.58.77 2.56 2.56 0 0 1-.91.49 4 4 0 0 1-1.18.22z" class="I J"/></svg>