<svg xmlns="http://www.w3.org/2000/svg" viewBox="0 0 1062.67 537.87"><style><![CDATA[.I{fill:#fff}.J{fill:#010101}]]></style><path d="M333 162.77c13.3 0 26.9.44 40.07.87l36.26.86 99.5 1q21.78.28 43.46.53c14.83.17 30.07 1.76 44.8 3.28l22.32 2.14c3.66.3 6.17 3.25 7.63 5.7a17 17 0 0 1 1.84 5.4 10.88 10.88 0 0 0 .91 3 4 4 0 0 0 2.2 1.35 35.66 35.66 0 0 0 6.35.44h3.5c1.16 0 2.43-.06 3.64-.06h.44q8.43 0 16.87.05l24.7-.15 20.45-.47 24.34-.5h11.9l52.7.36h9.37c8.58 0 17.45 0 26.2.7A162.37 162.37 0 0 1 860 191.5c9.95 2.52 19.8 5.9 29.3 9.15l12.12 4.08c2.15.7 4.26 1.52 6.3 2.3a65.32 65.32 0 0 0 9.78 3.23 8.4 8.4 0 0 0 4.79-.19 24.25 24.25 0 0 0 7.4-6.75 19.33 19.33 0 0 0 2.11-4.39 20.83 20.83 0 0 1 3.94-7.15 16 16 0 0 1 10.78-4.66h.26c4.56.1 8.8 3.34 10.4 4.73a21.73 21.73 0 0 1 5.93 8.89 21 21 0 0 1 .94 10.33 48.85 48.85 0 0 1-4.73 13.65c-3.25 6.4-7.43 10.23-11.46 13.94-3.28 3-6.37 5.84-9.07 10.1a57.62 57.62 0 0 1-8.44 9.94l-.66.66c-6.26 6.16-12.72 12.54-19.85 18.05-17.68 13.68-33.48 25-48.28 34.5a9.74 9.74 0 0 1-5.3 1.46 11.07 11.07 0 0 1-4.07-.76 38.46 38.46 0 0 1-7.66-4.51c-2.4-1.7-4.7-3.28-6.9-3.94a13.9 13.9 0 0 0-8.38.72 306.73 306.73 0 0 0-43.34 21.81c-4 2.47-7.47 5.82-11.16 9.37a88.32 88.32 0 0 1-10.74 9.2 57.87 57.87 0 0 1-16.66 7.87c-5.58 1.6-12.07 3.34-18.53 3.34a34.17 34.17 0 0 1-3.24-.15c-12.16-1.17-24.37-4-36.18-6.7l-13.88-3.1c-14.17-3-24.46-4.87-29.78-5.5a10.76 10.76 0 0 0-6 1.29 10.9 10.9 0 0 0-4.28 4.08c-.77 1.5-.82 4.1-.87 6.4v.4a35.21 35.21 0 0 1-1.82 9.73 34.71 34.71 0 0 1-8.86 14 33.54 33.54 0 0 1-14.07 7.37c-1.77.46-3.08.85-4.18 1.17a33.8 33.8 0 0 1-11.2 1.66 63.34 63.34 0 0 1-12.48-1l-3.93-.57-8-1.06-59.25-8.8c-7.44-1.33-14.78-3.35-21.87-5.3l-9.33-2.5-7.6-1.85c-5.92-1.4-12-2.85-18-4.9a420.47 420.47 0 0 1-40-15.83c-9.5-4.42-18.82-9.54-27.82-14.48L371.75 323c-1.73-.9-3.55-1.8-5.3-2.64a106 106 0 0 1-9.96-5.38c-2.9-1.82-5.8-3.85-6.94-7-.88-2.45-.3-4.93.17-6.92a17.27 17.27 0 0 0 .42-2.2c.06-.92.16-1.86.26-2.8a22.61 22.61 0 0 0 .16-5.92A13.86 13.86 0 0 0 348 284a42.81 42.81 0 0 0-9.92-8.31 289.22 289.22 0 0 0-30-17.4c-19.4-9.52-39.84-18.66-60.8-27.17-12.62-5.12-26.47-9.9-41.17-14.23a134.69 134.69 0 0 0-17.91-3.51l-4-.6c-8.52-1.3-17.34-2.65-26-3.15-4.4-.27-9.16-.4-15-.4l-11.6.1-6.63.08c-3.08 0-6.25.2-9.33.36-3.9.2-8 .4-12 .36H103c-2.47 0-5.85 0-8-2.45s-2.17-5.95-2.23-8.8v-.6c-.08-3.05.55-5.3 1.94-6.92a15.92 15.92 0 0 1 8.26-5.13 60 60 0 0 1 12.23-1.18 76.49 76.49 0 0 1 5.44.2 25.45 25.45 0 0 1 6.72 1.7 22.58 22.58 0 0 0 4.19 1.21 108.13 108.13 0 0 0 18.95 1.37 40.89 40.89 0 0 0 8.49-1.56l2.83-.7c4.54-1.07 9.16-2.3 13.62-3.5 6.78-1.8 13.8-3.67 20.84-5 13.1-2.52 26.73-4 39.9-5.5l27.56-3.42c14.1-2.12 28.87-4 43.9-5.66a210.92 210.92 0 0 1 21.29-1.38zm285.66 16.6c-7.36-.58-15-1.37-22.38-2.14-14.56-1.5-29.6-3.07-44.08-3.24l-43.47-.53-99.44-1c-12.1-.07-24.5-.47-36.48-.87l-43.68-.85a203.69 203.69 0 0 0-20.48 1.27c-14.93 1.62-29.6 3.5-43.6 5.62-9.2 1.4-18.68 2.44-27.86 3.46-13 1.45-26.5 2.94-39.27 5.4-6.8 1.3-13.66 3.14-20.3 4.9l-16.55 4.2a47 47 0 0 1-10.2 1.8 115.39 115.39 0 0 1-20.3-1.44 29.26 29.26 0 0 1-5.74-1.6 19.11 19.11 0 0 0-4.64-1.25 66.38 66.38 0 0 0-4.86-.18 52.66 52.66 0 0 0-10.6 1 8.23 8.23 0 0 0-3.77 2.44 5.62 5.62 0 0 0-.13 1.65v.63a23.55 23.55 0 0 0 .25 3.42c.6.07 1.5.07 2 .08h.72c3.7.05 7.65-.15 11.43-.35 3.15-.17 6.42-.34 9.66-.37l6.6-.08 11.72-.1c6 0 10.86.12 15.43.4 9 .53 18 1.9 26.7 3.23l3.93.6a138.4 138.4 0 0 1 19 3.75c14.95 4.4 29.05 9.27 41.9 14.5 21.13 8.58 41.76 17.8 61.3 27.4A297.17 297.17 0 0 1 342.38 269a51 51 0 0 1 11.72 9.92 21.71 21.71 0 0 1 4.26 9.92 28.84 28.84 0 0 1-.09 8.11l-.24 2.5a20.67 20.67 0 0 1-.61 3.47 10.89 10.89 0 0 0-.41 2.46c.2.52 1.45 1.52 3.68 2.93a96.79 96.79 0 0 0 9.36 4.94l5.54 2.76 14.57 7.9c8.9 4.88 18.07 9.94 27.34 14.23a411.89 411.89 0 0 0 39.21 15.53c5.56 1.9 11.5 3.32 17.22 4.68l7.73 1.88 9.45 2.53c6.93 1.9 14.1 3.87 21.17 5.14 19.5 3.5 39.53 6.16 58.9 8.74l8 1.07 4.07.6a58.1 58.1 0 0 0 11.11.93 26.13 26.13 0 0 0 9.14-1.35l4.42-1.23a25.48 25.48 0 0 0 10.67-5.5 27.39 27.39 0 0 0 8.12-18.13v-.4c.07-3 .15-6.7 1.74-9.83a18.7 18.7 0 0 1 7.64-7.49 19.05 19.05 0 0 1 10.59-2.16c7 .84 20.43 3.52 30.46 5.62l14.05 3.14c11.55 2.67 23.5 5.43 35.15 6.55a25.02 25.02 0 0 0 2.48.11c5.42 0 11.27-1.56 16.32-3a49.44 49.44 0 0 0 14.35-6.77 79 79 0 0 0 9.68-8.39c3.83-3.68 7.8-7.48 12.5-10.4a315 315 0 0 1 44.45-22.38 21.62 21.62 0 0 1 13.7-1c3.45 1 6.37 3.07 9.2 5a31.84 31.84 0 0 0 6 3.65 3.36 3.36 0 0 0 1.14.19 2.16 2.16 0 0 0 1-.19c14.6-9.42 30.22-20.57 47.72-34.1 6.75-5.22 13-11.42 19.13-17.43l.66-.65a50.79 50.79 0 0 0 7.32-8.56c3.26-5.12 6.9-8.45 10.4-11.67 3.84-3.53 7.16-6.57 9.76-11.7a40.52 40.52 0 0 0 4-11.39 13.24 13.24 0 0 0-.59-6.33 14 14 0 0 0-3.66-5.55c-1.87-1.62-4.1-2.78-5.4-2.8h0a8.18 8.18 0 0 0-5.1 2.17 15.14 15.14 0 0 0-2.31 4.57 25.51 25.51 0 0 1-3.18 6.32c-1.77 2.32-5.42 6.58-10.06 9a13.07 13.07 0 0 1-6.1 1.34 19.58 19.58 0 0 1-4-.43 72.45 72.45 0 0 1-11-3.59c-2-.8-3.95-1.53-5.9-2.17l-12.22-4.1c-9.37-3.2-19.06-6.52-28.7-9a155 155 0 0 0-26.17-4c-8.43-.66-17.14-.66-25.57-.67h-11.87l-50.2-.36h-11.87l-44.74.98-24.78.14q-8.46 0-16.92-.05h-.4c-1.15 0-2.3 0-3.47.05s-2.45.05-3.67.05a43.55 43.55 0 0 1-7.75-.57 11.77 11.77 0 0 1-7.42-4.78 16.11 16.11 0 0 1-2-5.69 11.52 11.52 0 0 0-.89-3 5.79 5.79 0 0 0-1.57-1.9zm282.47 51.97h-2.66v-2.85h8.7v2.85h-2.87v8.13h-3.17zm12.14-2.84v11h-3.1v-8l-1.8.55-.7-2.63 3.08-.94zm42.17-58.65h-2.66V167h8.7v2.86h-2.87V178h-3.17zm15.13 5.47V178h-8.2v-1.13a3.69 3.69 0 0 1 .8-2.34 8.71 8.71 0 0 1 2.2-1.95l1-.65a6.53 6.53 0 0 0 .59-.46 1.38 1.38 0 0 0 .3-.38 1.08 1.08 0 0 0 .08-.42 1 1 0 0 0-.25-.73.94.94 0 0 0-.67-.23c-.63 0-.94.42-.94 1.25h-3.1a4.14 4.14 0 0 1 1.11-3.06 4.21 4.21 0 0 1 3.09-1.1 4.16 4.16 0 0 1 2.87.93 3.3 3.3 0 0 1 1 2.61 3.61 3.61 0 0 1-.18 1.2 3.41 3.41 0 0 1-.55 1 5.24 5.24 0 0 1-.9.84l-1.24.86-.94.6a5.46 5.46 0 0 0-.71.53zM855.3 326.46h-2.66v-2.86h8.7v2.86h-2.87v8.13h-3.17zm13.48 2.54a2.82 2.82 0 0 1 1.24 1 2.67 2.67 0 0 1 .43 1.53 3 3 0 0 1-.3 1.34 2.93 2.93 0 0 1-.86 1 4 4 0 0 1-1.31.67 5.59 5.59 0 0 1-1.68.24 4.19 4.19 0 0 1-3-1 4.08 4.08 0 0 1-1.17-2.93h3a1.22 1.22 0 0 0 .31.86 1 1 0 0 0 .78.31 1.21 1.21 0 0 0 .81-.26.93.93 0 0 0 .32-.73.85.85 0 0 0-.3-.69 1.23 1.23 0 0 0-.83-.26h-1.06v-2.2h1c.73 0 1.1-.3 1.1-.9a.87.87 0 0 0-.27-.67 1.15 1.15 0 0 0-.77-.24 1.1 1.1 0 0 0-.79.29 1.12 1.12 0 0 0-.32.8h-2.9a4.82 4.82 0 0 1 .36-1.57 3.67 3.67 0 0 1 .86-1.19 4 4 0 0 1 1.3-.75 5.55 5.55 0 0 1 3.26 0 3.77 3.77 0 0 1 1.23.64 3.08 3.08 0 0 1 .78 1 3 3 0 0 1 .28 1.29 2.49 2.49 0 0 1-1.48 2.42zm-46.58-52.38h-2.66v-2.85h8.7v2.85h-2.87v8.13h-3.17zm15.03 6.48H836v1.66h-3.1v-1.66H828v-2.4l4.6-6.92h3.4v6.75h1.2zm-6.23-2.57h2.2v-3.46zm-101.17 38.6h-2.66v-2.86h8.7v2.86H733v8.12h-3.16zm12.1.88a3.7 3.7 0 0 1 1.42.27 3.22 3.22 0 0 1 1.12.76 3.35 3.35 0 0 1 .72 1.16 4 4 0 0 1 .26 1.48 4 4 0 0 1-.3 1.58 3.47 3.47 0 0 1-.86 1.21 3.92 3.92 0 0 1-1.35.78 5.37 5.37 0 0 1-1.76.27 4.22 4.22 0 0 1-2.94-1 3.81 3.81 0 0 1-1.18-2.77h3a1.14 1.14 0 0 0 .37.73 1.07 1.07 0 0 0 .74.27 1.12 1.12 0 0 0 .85-.35 1.29 1.29 0 0 0 .33-.91 1.22 1.22 0 0 0-.34-.87 1.08 1.08 0 0 0-.84-.35 1.2 1.2 0 0 0-.57.14 1.43 1.43 0 0 0-.44.41h-2.84v-6.5h7.56v2.66h-4.62v1.4a3.7 3.7 0 0 1 1.67-.36zm-118.54-6h-2.66v-2.85h8.7V314h-2.87v8.13h-3.17zm11.36.43a3.62 3.62 0 0 1 1.26.43 3.53 3.53 0 0 1 1 .83 3.58 3.58 0 0 1 .67 1.15 3.93 3.93 0 0 1 .24 1.38 4 4 0 0 1-.33 1.62 4.21 4.21 0 0 1-2.26 2.18 4.53 4.53 0 0 1-1.69.31A4.33 4.33 0 0 1 632 322a4.09 4.09 0 0 1-2.23-2.22 4.12 4.12 0 0 1-.33-1.65 4.18 4.18 0 0 1 .07-.72 3.9 3.9 0 0 1 .21-.73 6 6 0 0 1 .4-.81l.63-1 2.5-3.73h3.64zm-1.08 5.1a1.23 1.23 0 0 0 .9-.37 1.27 1.27 0 0 0 .36-.92 1.25 1.25 0 0 0-.36-.92 1.22 1.22 0 0 0-.9-.36 1.2 1.2 0 0 0-.89.36 1.28 1.28 0 0 0-.35.92 1.3 1.3 0 0 0 .35.92 1.21 1.21 0 0 0 .89.37zm-7 73.27H624V390h8.7v2.85h-2.88v8.13h-3.16zm14.72-2.8v2.6l-4 8.4H634l4.1-8.2h-4.6V390zm-318-82.48h-2.66v-2.86h8.7v2.86h-2.87v8.13h-3.17zm14 2.38a2.81 2.81 0 0 1 1.55 2.66 3 3 0 0 1-.3 1.36 2.73 2.73 0 0 1-.84 1 4.31 4.31 0 0 1-1.36.66 6.2 6.2 0 0 1-1.79.24 5.08 5.08 0 0 1-3.15-.88 2.92 2.92 0 0 1-1.13-2.42 3.07 3.07 0 0 1 .39-1.59 2.88 2.88 0 0 1 1.14-1.07 2.76 2.76 0 0 1-1-1 2.64 2.64 0 0 1-.34-1.36 2.69 2.69 0 0 1 1.11-2.25 3.93 3.93 0 0 1 1.28-.63 6.6 6.6 0 0 1 3.38 0 3.93 3.93 0 0 1 1.28.63 2.75 2.75 0 0 1 .82 1 2.79 2.79 0 0 1 .29 1.27 2.65 2.65 0 0 1-.35 1.36 2.76 2.76 0 0 1-.98 1.02zm-2.74 3.64a1.19 1.19 0 0 0 .85-.31 1.08 1.08 0 0 0 .34-.82 1.12 1.12 0 0 0-.33-.84 1.15 1.15 0 0 0-.85-.33 1.18 1.18 0 0 0-.87.33 1.19 1.19 0 0 0-.34.86 1 1 0 0 0 .34.81 1.23 1.23 0 0 0 .86.3zm0-6.77a1.12 1.12 0 0 0-.78.28 1 1 0 0 0-.31.73 1 1 0 0 0 .3.77 1.12 1.12 0 0 0 1.55 0 1 1 0 0 0 .3-.77 1 1 0 0 0-.29-.73 1.06 1.06 0 0 0-.76-.28zm31.34-47.1h-2.67v-2.86h8.7v2.86h-2.87v8.13H366zm10 4.83a3.35 3.35 0 0 1-1.26-.42 3.91 3.91 0 0 1-1-.83 3.8 3.8 0 0 1-.66-1.16 3.87 3.87 0 0 1-.24-1.37 4 4 0 0 1 .33-1.62 4.33 4.33 0 0 1 .91-1.31 4.13 4.13 0 0 1 1.35-.87 4.54 4.54 0 0 1 1.69-.32 4.19 4.19 0 0 1 1.65.33 4.13 4.13 0 0 1 1.34.89 4.21 4.21 0 0 1 1.22 3 4.18 4.18 0 0 1-.07.72 3.81 3.81 0 0 1-.21.72 6.18 6.18 0 0 1-.4.83q-.25.44-.63 1l-2.5 3.74h-3.64zm1.08-5.1a1.19 1.19 0 0 0-.9.37 1.25 1.25 0 0 0-.36.92 1.23 1.23 0 0 0 1.26 1.27 1.2 1.2 0 0 0 .89-.36 1.26 1.26 0 0 0 .35-.91 1.28 1.28 0 0 0-.35-.92 1.17 1.17 0 0 0-.92-.37zM50.3 196.88h-2.66V194h8.7v2.86h-2.87V205H50.3zM62.43 194v11h-3.1v-8l-1.8.56-.7-2.56 3.1-.95zm7.5 11.22a6.29 6.29 0 0 1-2.37-.43 5.62 5.62 0 0 1-1.86-1.18 5.19 5.19 0 0 1-1.21-1.8 6.23 6.23 0 0 1 0-4.6 5.1 5.1 0 0 1 1.21-1.8 6 6 0 0 1 1.86-1.18 6.9 6.9 0 0 1 4.74 0 5.85 5.85 0 0 1 1.86 1.18 5.24 5.24 0 0 1 1.21 1.8 6.23 6.23 0 0 1 0 4.6 5.34 5.34 0 0 1-1.21 1.8 5.52 5.52 0 0 1-1.86 1.18 6.29 6.29 0 0 1-2.37.43zm0-2.86a2.65 2.65 0 0 0 1.07-.21 2.31 2.31 0 0 0 .84-.6 2.74 2.74 0 0 0 .56-.9 3 3 0 0 0 .2-1.14 3 3 0 0 0-.2-1.13 2.9 2.9 0 0 0-.56-.91 2.59 2.59 0 0 0-1.91-.8 2.7 2.7 0 0 0-1.08.21 2.55 2.55 0 0 0-.85.59 2.73 2.73 0 0 0-.56.91 3 3 0 0 0-.21 1.13 3 3 0 0 0 .21 1.14 2.59 2.59 0 0 0 .56.9 2.43 2.43 0 0 0 .85.6 2.7 2.7 0 0 0 1.14.21zm62.26-35.96h-2.66v-2.86h8.7v2.86h-2.87v8.13h-3.17zm12.14-2.85v11h-3.1v-8l-1.8.56-.7-2.63 3.08-.95zm6.74 0v11H148v-8l-1.8.56-.7-2.63 3.08-.95zm120.74-20.35h-2.66v-2.86h8.7v2.86H275v8.12h-3.17zm12.18-2.86v11h-3.1v-8l-1.8.55-.7-2.62 3.08-.95zm9.86 8.32v2.66h-8.2v-1.12a3.75 3.75 0 0 1 .8-2.34 8.77 8.77 0 0 1 2.21-2l1-.65a3.83 3.83 0 0 0 .6-.46 1.14 1.14 0 0 0 .29-.37.93.93 0 0 0 .08-.42 1 1 0 0 0-.24-.73.92.92 0 0 0-.67-.24c-.63 0-.95.42-.95 1.26h-3.08a4.1 4.1 0 0 1 1.11-3.06 4.89 4.89 0 0 1 6-.17 3.82 3.82 0 0 1 .85 3.81 3.11 3.11 0 0 1-.54.95 4.56 4.56 0 0 1-.9.84l-1.24.86-.94.6a6.55 6.55 0 0 0-.71.53zm317.27-.52h-2.66v-2.86h8.7v2.86h-2.87v8.13h-3.17zm12.14-2.86v11h-3.1v-8l-1.8.56-.7-2.63 3.08-.95zm8.25 5.37a2.94 2.94 0 0 1 1.24 1 2.74 2.74 0 0 1 .42 1.53 3 3 0 0 1-.3 1.34 2.93 2.93 0 0 1-.86 1 4 4 0 0 1-1.31.67 5.59 5.59 0 0 1-1.68.24 4.19 4.19 0 0 1-3-1 4.13 4.13 0 0 1-1.17-2.93h3a1.26 1.26 0 0 0 .31.87 1 1 0 0 0 .78.31 1.21 1.21 0 0 0 .82-.27 1 1 0 0 0 .31-.73.85.85 0 0 0-.3-.69 1.21 1.21 0 0 0-.83-.26h-1.06v-2.2h1c.73 0 1.1-.3 1.1-.9a.88.88 0 0 0-.28-.67 1.15 1.15 0 0 0-.77-.24 1.1 1.1 0 0 0-.79.29 1.12 1.12 0 0 0-.32.8h-2.9a4.41 4.41 0 0 1 .36-1.57 3.5 3.5 0 0 1 .85-1.19 4.06 4.06 0 0 1 1.3-.75 5.55 5.55 0 0 1 3.26 0 3.77 3.77 0 0 1 1.23.64 3 3 0 0 1 .78 1 2.9 2.9 0 0 1 .28 1.29 2.49 2.49 0 0 1-1.47 2.42z" class="I"/><path d="M991.15 191.37l-3.15 8.75h-1.1l-3.14-8.75h1.1l2.6 7.44 2.58-7.44zm1.7 0h1v8.75h-1zm3.48 0H999a2.83 2.83 0 0 1 2 .69 2.4 2.4 0 0 1 .74 1.86 2.52 2.52 0 0 1-.52 1.64 2.41 2.41 0 0 1-1.42.88l2.48 3.68h-1.2l-2.37-3.6h-1.42v3.6h-1zm2.68 4.23a1.81 1.81 0 0 0 1.28-.44 1.57 1.57 0 0 0 .47-1.23 1.6 1.6 0 0 0-.45-1.21 1.86 1.86 0 0 0-1.3-.42h-1.65v3.3zm9.86 2.3h-4l-.83 2.22H1003l3.34-8.75h1.1l3.33 8.75h-1.07zm-3.6-.9h3.28l-1.65-4.5zm14.82-1.18v2.34a4.08 4.08 0 0 1-1.64 1.58 4.82 4.82 0 0 1-2.26.52 5 5 0 0 1-1.89-.34 4.48 4.48 0 0 1-1.49-.95 4.11 4.11 0 0 1-1-1.44 4.68 4.68 0 0 1-.34-1.82 4.57 4.57 0 0 1 .34-1.79 4.24 4.24 0 0 1 1-1.42 4.16 4.16 0 0 1 1.44-.93 4.68 4.68 0 0 1 1.82-.34 4.61 4.61 0 0 1 1.36.19 3.93 3.93 0 0 1 1.15.54 3.59 3.59 0 0 1 .87.87 4 4 0 0 1 .56 1.17h-1.12a2.81 2.81 0 0 0-1.1-1.32 3.16 3.16 0 0 0-1.75-.47 3.55 3.55 0 0 0-1.39.27 3.31 3.31 0 0 0-1.1.73 3.07 3.07 0 0 0-.73 1.12 4 4 0 0 0 0 2.86 3.26 3.26 0 0 0 .74 1.14 3.41 3.41 0 0 0 1.16.75 4.14 4.14 0 0 0 3.09-.06 3.11 3.11 0 0 0 1.27-1.05v-1.2h-2.94v-.92zm2.2-4.45h5v.93h-4v2.8h3.9v.9h-3.9v3.2h4.17v.92h-5.18zm-35.4 24.5a3 3 0 0 1-2.13-.73 2.77 2.77 0 0 1-.86-2h1a1.94 1.94 0 0 0 .59 1.33 1.88 1.88 0 0 0 1.36.51 2.13 2.13 0 0 0 1.37-.41 1.31 1.31 0 0 0 .51-1.1 1.24 1.24 0 0 0-.3-.87 2.65 2.65 0 0 0-1-.61l-1.27-.48a3.38 3.38 0 0 1-1.46-1 2.26 2.26 0 0 1-.46-1.46 2.09 2.09 0 0 1 .2-.91 2 2 0 0 1 .54-.71 2.57 2.57 0 0 1 .85-.46 3.42 3.42 0 0 1 1.09-.16 2.8 2.8 0 0 1 1.94.64 2.49 2.49 0 0 1 .79 1.76h-1a1.59 1.59 0 0 0-.49-1.1 1.7 1.7 0 0 0-1.21-.4 2 2 0 0 0-1.2.35 1.17 1.17 0 0 0-.45 1 1.45 1.45 0 0 0 .3.94 2.8 2.8 0 0 0 1 .65l1.3.5a3.29 3.29 0 0 1 1.44.92 2.13 2.13 0 0 1 .43 1.38 2.37 2.37 0 0 1-.2 1 2 2 0 0 1-.58.78 2.73 2.73 0 0 1-.91.49 4 4 0 0 1-1.18.16zm4.72-8.86h5v.93h-4v2.8h3.9v.92h-3.9v3.2h4.18v.92h-5.2zm13.54 0v8.75H1004l-4.38-7.1v7.1h-1V207h1.17l4.3 7v-7zm8.96 0v8.75h-1.1l-4.38-7.1v7.1h-1V207h1.17l4.3 7v-7zm7.54 6.5h-3.95l-.84 2.22h-1.07l3.34-8.75h1.1l3.33 8.75h-1.07zm-3.62-.9h3.3l-1.65-4.5z" opacity=".3" class="I"/><path d="M32.25 228h1v7.82h3.62v.93h-4.62zm4.75 0h1.14l-.45 3.38h-.9zm7 0h5v.92h-4v2.8h3.9v.93H45v3.18h4.17v.93H44zm7 0h2.7a2.82 2.82 0 0 1 2 .68 2.42 2.42 0 0 1 .74 1.86 2.85 2.85 0 0 1-.2 1.08 2.36 2.36 0 0 1-.55.83 2.59 2.59 0 0 1-.86.53 3.43 3.43 0 0 1-1.15.18H52v3.6h-1zm2.65 4.22a1.8 1.8 0 0 0 1.28-.43 1.85 1.85 0 0 0 0-2.44 1.82 1.82 0 0 0-1.3-.43H52v3.3zM58.2 228h1v8.75h-1zm10 0v8.75h-1.1l-4.38-7.12v7.12h-1V228h1.17l4.3 7v-7zm10.46 4.4v2.34a4.05 4.05 0 0 1-1.66 1.58 4.87 4.87 0 0 1-2.27.53 5.08 5.08 0 0 1-1.89-.35 4.42 4.42 0 0 1-1.49-1 4.31 4.31 0 0 1-1-1.43 4.72 4.72 0 0 1-.34-1.82 4.62 4.62 0 0 1 .34-1.8 4.3 4.3 0 0 1 1-1.41 4.54 4.54 0 0 1 1.44-.94 4.91 4.91 0 0 1 1.82-.34A5 5 0 0 1 76 228a4 4 0 0 1 1.14.55 3.55 3.55 0 0 1 .87.86 3.73 3.73 0 0 1 .56 1.15h-1.12a2.79 2.79 0 0 0-1.1-1.33 3.21 3.21 0 0 0-1.74-.47 3.48 3.48 0 0 0-1.39.27 3.4 3.4 0 0 0-1.11.73 3.56 3.56 0 0 0-.73 1.12 3.86 3.86 0 0 0-.26 1.42 3.77 3.77 0 0 0 .27 1.44 3.58 3.58 0 0 0 .75 1.15 3.21 3.21 0 0 0 1.15.74 4 4 0 0 0 1.49.27 3.92 3.92 0 0 0 1.6-.33 3 3 0 0 0 1.27-1.05v-1.2H74.7v-.93zm2.2-4.4h1v7.82h3.64v.93h-4.64zm6.2 0h5v.92h-4v2.8H92v.93h-3.9v3.18h4.17v.93h-5.22z" opacity=".3" class="I"/><path d="M601.26 225.3l-2.56 8.75h-1.16l-1.94-7.2-1.92 7.2h-1.17l-2.5-8.75h1.1l2.06 7.38 1.84-7.38h1.17l1.9 7.4 2.06-7.4zm6.1 6.53h-4l-.83 2.22h-1.08l3.34-8.75h1.1l3.33 8.75h-1.06zm-3.6-.9H607l-1.65-4.5zm7.2-5.63h1v7.83h3.62v.92h-4.64zm6.2 0h1v7.83h3.63v.92h-4.64zm13.7 8.9a4.61 4.61 0 0 1-1.79-.35 4.38 4.38 0 0 1-2.39-2.39 4.88 4.88 0 0 1 0-3.58 4.53 4.53 0 0 1 1-1.43 4.33 4.33 0 0 1 1.44-.94 4.75 4.75 0 0 1 3.58 0 4.39 4.39 0 0 1 1.43.94 4.53 4.53 0 0 1 1 1.43 4.64 4.64 0 0 1-1 5 4.42 4.42 0 0 1-1.43.95 4.61 4.61 0 0 1-1.84.37zm0-.95a3.46 3.46 0 0 0 2.48-1 3.23 3.23 0 0 0 .73-1.14 3.7 3.7 0 0 0 .26-1.42 3.79 3.79 0 0 0-.26-1.4 3.54 3.54 0 0 0-.73-1.14 3.19 3.19 0 0 0-1.1-.74 3.66 3.66 0 0 0-2.76 0 3.06 3.06 0 0 0-1.09.74 3.38 3.38 0 0 0-.73 1.14 3.6 3.6 0 0 0-.27 1.4 3.9 3.9 0 0 0 .26 1.42 3.42 3.42 0 0 0 3.21 2.17zm6.42-7.95h5v.93h-4v3h3.85v.92h-3.85v3.87h-1zm14.2 8.9a4.62 4.62 0 0 1-1.8-.35 4.3 4.3 0 0 1-1.44-.95 4.39 4.39 0 0 1-.94-1.43 4.78 4.78 0 0 1 0-3.59 4.5 4.5 0 0 1 .94-1.43 4.54 4.54 0 0 1 1.44-.94 4.66 4.66 0 0 1 1.8-.35 5.1 5.1 0 0 1 1.53.23 4.16 4.16 0 0 1 1.27.67 3.82 3.82 0 0 1 .93 1 4 4 0 0 1 .52 1.35h-1.1a3.14 3.14 0 0 0-.42-1 3 3 0 0 0-.7-.73 3.2 3.2 0 0 0-.92-.47 3.61 3.61 0 0 0-1.1-.16 3.47 3.47 0 0 0-1.38.27 3.55 3.55 0 0 0-1.1.76 3.36 3.36 0 0 0-.74 1.13 3.6 3.6 0 0 0-.27 1.4 3.67 3.67 0 0 0 .27 1.42 3.46 3.46 0 0 0 .74 1.13 3.36 3.36 0 0 0 1.1.75 3.31 3.31 0 0 0 1.38.28 3.25 3.25 0 0 0 2-.63 3 3 0 0 0 1.13-1.71h1.1a4.17 4.17 0 0 1-.52 1.35 3.86 3.86 0 0 1-.93 1 3.93 3.93 0 0 1-1.23.8 4.81 4.81 0 0 1-1.56.2zm6.16-8.9h1v3.6h4.46v-3.6h1v8.75h-1v-4.22h-4.46v4.22h-1zm14.02 6.53h-4l-.83 2.22h-1.08l3.34-8.75h1.1l3.33 8.75h-1.06zm-3.6-.9h3.3l-1.65-4.5zm15.7-5.63v8.75h-1v-7.16l-2.77 7.16h-1l-2.76-7.16v7.16h-1v-8.75h1.45l2.82 7.38 2.8-7.38zm2.47 0h2.7a2.83 2.83 0 0 1 2 .69 2.4 2.4 0 0 1 .74 1.86 2.85 2.85 0 0 1-.2 1.08 2.36 2.36 0 0 1-.55.83 2.42 2.42 0 0 1-.86.52 3.42 3.42 0 0 1-1.15.19h-1.7v3.58h-1zm2.65 4.23a1.81 1.81 0 0 0 1.28-.44 1.56 1.56 0 0 0 .47-1.22 1.58 1.58 0 0 0-.45-1.21 1.82 1.82 0 0 0-1.3-.43h-1.65v3.3zm4.52-4.23h1v8.75h-1zm7.43 8.9a4.58 4.58 0 0 1-3.23-1.3 4.41 4.41 0 0 1-1-1.44 4.75 4.75 0 0 1 0-3.58 4.28 4.28 0 0 1 2.38-2.37 4.69 4.69 0 0 1 1.8-.35 4.56 4.56 0 0 1 1.78.35 4.28 4.28 0 0 1 2.38 2.37 4.75 4.75 0 0 1 0 3.58 4.32 4.32 0 0 1-2.38 2.39 4.56 4.56 0 0 1-1.73.35zm0-.95a3.51 3.51 0 0 0 2.48-1 3.54 3.54 0 0 0 .73-1.14 3.9 3.9 0 0 0 .26-1.42 3.6 3.6 0 0 0-.27-1.4 3.54 3.54 0 0 0-.73-1.14 3.1 3.1 0 0 0-1.1-.74 3.64 3.64 0 0 0-2.75 0 3.1 3.1 0 0 0-1.1.74 3.54 3.54 0 0 0-.73 1.14 3.6 3.6 0 0 0-.27 1.4 3.9 3.9 0 0 0 .26 1.42 3.54 3.54 0 0 0 .73 1.14 3.51 3.51 0 0 0 2.49 1zm12.92-7.95v8.75h-1.1l-4.38-7.1v7.1h-1v-8.75h1.17l4.3 7v-7zm4.78 8.9a3.05 3.05 0 0 1-2.13-.74 2.77 2.77 0 0 1-.86-2h1a1.92 1.92 0 0 0 .58 1.32 1.9 1.9 0 0 0 1.37.51 2.18 2.18 0 0 0 1.36-.4 1.34 1.34 0 0 0 .51-1.11 1.29 1.29 0 0 0-.29-.87 2.7 2.7 0 0 0-1-.61l-1.26-.48a3.28 3.28 0 0 1-1.47-1 2.26 2.26 0 0 1-.46-1.46 2.09 2.09 0 0 1 .2-.91 2 2 0 0 1 .54-.71 2.57 2.57 0 0 1 .85-.46 3.72 3.72 0 0 1 1.09-.16 2.79 2.79 0 0 1 1.94.64 2.49 2.49 0 0 1 .79 1.77h-1a1.59 1.59 0 0 0-.48-1.11 1.73 1.73 0 0 0-1.22-.4 1.86 1.86 0 0 0-1.19.36 1.12 1.12 0 0 0-.46 1 1.4 1.4 0 0 0 .31.94 2.53 2.53 0 0 0 1 .65l1.28.5a3.29 3.29 0 0 1 1.44.92 2.13 2.13 0 0 1 .43 1.38 2.44 2.44 0 0 1-.2 1 2.07 2.07 0 0 1-.57.77 2.94 2.94 0 0 1-.91.49 4.09 4.09 0 0 1-1.19.18z" opacity=".3" class="I"/><path d="M404.06 198.08a4.62 4.62 0 0 1-1.8-.34 4.53 4.53 0 0 1-1.43-1 4.39 4.39 0 0 1-.94-1.43 4.78 4.78 0 0 1 0-3.59 4.39 4.39 0 0 1 .94-1.43 4.51 4.51 0 0 1 3.23-1.29 5.12 5.12 0 0 1 1.54.23 4.5 4.5 0 0 1 1.27.66 4.42 4.42 0 0 1 .93 1 4 4 0 0 1 .52 1.34h-1.1a3 3 0 0 0-2-2.16 3.61 3.61 0 0 0-1.1-.16 3.47 3.47 0 0 0-1.38.27 3.51 3.51 0 0 0-1.11.75 3.6 3.6 0 0 0-.73 1.13 3.84 3.84 0 0 0 0 2.83 3.6 3.6 0 0 0 .73 1.13 3.51 3.51 0 0 0 1.11.75 3.47 3.47 0 0 0 1.38.27 3.25 3.25 0 0 0 2-.63 3 3 0 0 0 1.13-1.71h1.1a4.13 4.13 0 0 1-.52 1.36 4.42 4.42 0 0 1-.93 1 4.5 4.5 0 0 1-1.27.66 5.12 5.12 0 0 1-1.57.36zm10.86-2.36H411l-.83 2.22h-1.08l3.34-8.75h1.1l3.33 8.75h-1.07zm-3.6-.9h3.28l-1.65-4.5zm9.38 3.26a3 3 0 0 1-2.12-.73 2.76 2.76 0 0 1-.87-2h1a1.93 1.93 0 0 0 .58 1.33 1.9 1.9 0 0 0 1.37.51 2.1 2.1 0 0 0 1.36-.41 1.32 1.32 0 0 0 .51-1.1 1.25 1.25 0 0 0-.29-.87 2.7 2.7 0 0 0-1-.61l-1.26-.5a3.35 3.35 0 0 1-1.47-1 2.34 2.34 0 0 1-.45-1.47 2.12 2.12 0 0 1 .19-.91 2.1 2.1 0 0 1 .55-.71 2.59 2.59 0 0 1 .84-.45 3.42 3.42 0 0 1 1.09-.16 2.83 2.83 0 0 1 1.94.63 2.49 2.49 0 0 1 .79 1.77h-1a1.61 1.61 0 0 0-.49-1.1 1.73 1.73 0 0 0-1.22-.41 1.86 1.86 0 0 0-1.19.36 1.15 1.15 0 0 0-.46 1 1.36 1.36 0 0 0 .31.93 2.43 2.43 0 0 0 1 .65l1.3.5a3.3 3.3 0 0 1 1.43.91 2.16 2.16 0 0 1 .44 1.39 2.53 2.53 0 0 1-.2 1 2.24 2.24 0 0 1-.58.78 2.63 2.63 0 0 1-.91.48 3.78 3.78 0 0 1-1.18.18zm4.72-8.88h1v8.75h-1zm9.98 0v8.75h-1.1l-4.38-7.1v7.1h-1v-8.75h1.17l4.3 7v-7zm6.4 8.88a4.55 4.55 0 0 1-1.78-.34 4.44 4.44 0 0 1-2.4-2.39 4.88 4.88 0 0 1 0-3.58 4.42 4.42 0 0 1 .95-1.43 4.46 4.46 0 0 1 1.44-1 4.88 4.88 0 0 1 3.58 0 4.34 4.34 0 0 1 2.38 2.38 4.75 4.75 0 0 1 0 3.58 4.53 4.53 0 0 1-1 1.43 4.29 4.29 0 0 1-1.43 1 4.57 4.57 0 0 1-1.74.35zm0-1a3.47 3.47 0 0 0 1.38-.27 3.3 3.3 0 0 0 1.11-.75A3.54 3.54 0 0 0 445 195a3.9 3.9 0 0 0 .26-1.42 3.64 3.64 0 0 0-1-2.54 3.26 3.26 0 0 0-1.1-.75 3.77 3.77 0 0 0-2.75 0 3.16 3.16 0 0 0-1.1.75 3.64 3.64 0 0 0-1 2.54 3.9 3.9 0 0 0 .26 1.42 3.54 3.54 0 0 0 .73 1.14 3.3 3.3 0 0 0 1.11.75 3.45 3.45 0 0 0 1.39.24zm12.3 1a3 3 0 0 1-2.12-.73 2.8 2.8 0 0 1-.87-2h1a1.93 1.93 0 0 0 .58 1.33 1.9 1.9 0 0 0 1.37.51 2.1 2.1 0 0 0 1.36-.41 1.32 1.32 0 0 0 .51-1.1 1.25 1.25 0 0 0-.29-.87 2.7 2.7 0 0 0-1-.61l-1.26-.5a3.35 3.35 0 0 1-1.47-1 2.34 2.34 0 0 1-.45-1.47 2.12 2.12 0 0 1 .19-.91 2.1 2.1 0 0 1 .55-.71 2.59 2.59 0 0 1 .84-.45 3.42 3.42 0 0 1 1.09-.16 2.83 2.83 0 0 1 1.94.63 2.49 2.49 0 0 1 .79 1.77h-1a1.61 1.61 0 0 0-.49-1.1 1.73 1.73 0 0 0-1.22-.41 1.86 1.86 0 0 0-1.19.36 1.15 1.15 0 0 0-.46 1 1.36 1.36 0 0 0 .31.93 2.43 2.43 0 0 0 1 .65l1.3.5a3.3 3.3 0 0 1 1.43.91 2.16 2.16 0 0 1 .44 1.39 2.53 2.53 0 0 1-.2 1 2.24 2.24 0 0 1-.58.78 2.63 2.63 0 0 1-.91.48 3.78 3.78 0 0 1-1.18.18zm6.3-7.98h-2.6v-.92h6.26v.92h-2.66v7.83h-1zm5.4-.9h2.72a2.89 2.89 0 0 1 2 .68 2.43 2.43 0 0 1 .73 1.87 2.57 2.57 0 0 1-.51 1.64 2.49 2.49 0 0 1-1.43.88l2.5 3.68h-1.2l-2.38-3.6h-1.42v3.6h-1zm2.65 4.23a1.82 1.82 0 0 0 1.29-.44 1.83 1.83 0 0 0 0-2.44 1.85 1.85 0 0 0-1.3-.43h-1.65v3.3zm9.88 2.3h-3.95l-.83 2.22h-1.08l3.34-8.75h1.1l3.33 8.75h-1.06zm-3.6-.9H478l-1.65-4.5zm7.2-5.62h1v8.75h-1zm11.48 4.44V196a4.12 4.12 0 0 1-1.63 1.58 4.86 4.86 0 0 1-2.27.52 5.08 5.08 0 0 1-1.89-.34 4.58 4.58 0 0 1-1.49-1 4.25 4.25 0 0 1-1-1.44 4.68 4.68 0 0 1-.34-1.82 4.53 4.53 0 0 1 .34-1.79 4.24 4.24 0 0 1 1-1.42 4.35 4.35 0 0 1 1.44-.93 5 5 0 0 1 3.19-.15 3.74 3.74 0 0 1 1.14.54 3.59 3.59 0 0 1 .87.87 3.68 3.68 0 0 1 .56 1.14h-1.13a2.89 2.89 0 0 0-1.1-1.33 3.21 3.21 0 0 0-1.74-.46 3.66 3.66 0 0 0-1.39.26 3.43 3.43 0 0 0-1.11.74 3.34 3.34 0 0 0-.73 1.12 3.8 3.8 0 0 0-.26 1.41 3.86 3.86 0 0 0 .27 1.45 3.43 3.43 0 0 0 .75 1.14 3.37 3.37 0 0 0 1.15.75 4.2 4.2 0 0 0 1.49.26 3.91 3.91 0 0 0 1.6-.32 3.11 3.11 0 0 0 1.27-1.05v-1.2h-2.94v-.92zm2.2-4.44h1v3.6h4.46v-3.6h1v8.75h-1v-4.23h-4.46v4.23h-1zm10.76.9h-2.6v-.92H510v.92h-2.67v7.83h-1z" opacity=".3" class="I"/><g class="I"><path d="M796.96 213.67l-6.2-6.34-4.46-.06 6.2 6.35-6.37 6.22 4.46.05 6.37-6.22z" opacity=".8"/><path d="M804.45 213.7l-6.2-6.35-4.47-.06 6.2 6.35-6.37 6.22 4.46.05 6.37-6.2z" opacity=".9"/><path d="M812.05 213.8l-6.2-6.34-4.46-.06 6.2 6.35-6.37 6.22 4.46.05 6.37-6.22z"/><path d="M783.73 207.24l-4.46-.05 6.2 6.35-6.37 6.2 4.46.06 6.37-6.22-6.2-6.35z" opacity=".7"/><path d="M776.7 207.16l-4.46-.05 6.2 6.34-6.36 6.22 4.45.05 6.37-6.22-6.2-6.34z" opacity=".6"/></g><path d="M756,219.86l.06-4.45,4.45.06-.06,4.45Z" class="J"/><path d="M760.43,219.92l.06-4.45,4.44.06-.06,4.45Z" class="I"/><path d="M764.87,220l.06-4.45,4.45.07-.06,4.44Z" class="J"/><path d="M756 215.46l.07-4.45 4.44.06-.06 4.44zm8.93.12l.06-4.45 4.44.06v4.44z" class="I"/><path d="M760.5 215.55l.06-4.44 4.44.06-.06 4.45zm-4.4-4.5l.06-4.44h4.44l-.05 4.45z" class="J"/><path d="M760.55 211.1l.05-4.45 4.45.07-.06 4.44z" class="I"/><path d="M765,211.17l.06-4.44,4.44.06-.06,4.44Z" class="J"/><path d="M756.16 206.64l.07-4.44 4.44.06-.06 4.45zm8.9.13l.06-4.45 4.45.06-.06 4.44z" class="I"/><path d="M760.6 206.74l.06-4.44 4.44.06-.06 4.45zm-4.53-4.44l.06-4.44 4.44.06-.06 4.44z" class="J"/><path d="M760.5 202.37l.06-4.44 4.43.07-.06 4.45z" class="I"/><path d="M765 202.44V198l4.45.06-.06 4.45z" class="J"/><path d="M925.17 191.78h-2.06c-10.27-.38-19.6-1.17-29.5-2l-18.7-1.47c-6-.4-12.85-1.4-19.5-2.36-7.1-1-14.42-2.1-20.7-2.44-11.77-.64-23.8-.67-35.43-.7h-4.45a4178.21 4178.21 0 0 0-50.17.15l-57.53.1a37 37 0 0 1-10-1 56.86 56.86 0 0 0-5.93-1.33 38.3 38.3 0 0 1-8.85-2.45 16.69 16.69 0 0 1-2.41-1.37 7.89 7.89 0 0 0-3.33-1.53 157.25 157.25 0 0 0-19.3-.06l-6.88.23c-3.8.08-13.64-.37-18.43-.7l.15-2c4.74.34 14.5.8 18.23.7l6.86-.22a157.25 157.25 0 0 1 19.54.06 9.43 9.43 0 0 1 4.25 1.84 14.27 14.27 0 0 0 2.1 1.21 36.51 36.51 0 0 0 8.43 2.32 57.83 57.83 0 0 1 6.12 1.38 35.81 35.81 0 0 0 9.46.89l112.14-.26c11.66 0 23.7.05 35.54.7 6.38.35 13.75 1.42 20.9 2.45 6.6 1 13.45 1.95 19.34 2.34l18.75 1.47c9.86.84 19.18 1.63 29.4 2 3.1.1 7-.1 10.73-.28a88.45 88.45 0 0 1 12.73-.11l-.23 2a86.93 86.93 0 0 0-12.4.12c-3.02.14-6.1.3-8.85.3z" class="I"/><path d="M922.2 299.1a4.27 4.27 0 0 1-3-1 3.94 3.94 0 0 1-1.22-2.83h1.45a2.74 2.74 0 0 0 .83 1.88 2.69 2.69 0 0 0 1.94.72 3 3 0 0 0 1.93-.57 1.89 1.89 0 0 0 .72-1.57 1.81 1.81 0 0 0-.41-1.23 3.91 3.91 0 0 0-1.43-.87l-1.8-.68a4.71 4.71 0 0 1-2.08-1.37 3.27 3.27 0 0 1-.65-2.08 3 3 0 0 1 .28-1.29 2.89 2.89 0 0 1 .77-1 3.63 3.63 0 0 1 1.2-.65 5 5 0 0 1 1.55-.23 4 4 0 0 1 2.74.91 3.48 3.48 0 0 1 1.13 2.5h-1.46a2.27 2.27 0 0 0-.69-1.56 2.43 2.43 0 0 0-1.72-.57 2.67 2.67 0 0 0-1.7.5 1.64 1.64 0 0 0-.64 1.36 2 2 0 0 0 .43 1.32 3.56 3.56 0 0 0 1.45.93l1.82.7a4.61 4.61 0 0 1 2 1.3 3 3 0 0 1 .62 2 3.53 3.53 0 0 1-.29 1.44 2.94 2.94 0 0 1-.82 1.09 3.63 3.63 0 0 1-1.29.69 5.56 5.56 0 0 1-1.67.16zm6.7-12.6h7.16v1.3h-5.72v4h5.53v1.3h-5.53v4.5h5.92v1.3h-7.36zm15.58 12.6a6.65 6.65 0 0 1-2.55-.48 6.18 6.18 0 0 1-3.38-3.38 6.83 6.83 0 0 1 0-5.08 6.18 6.18 0 0 1 3.38-3.38 7 7 0 0 1 4.72-.15 5.71 5.71 0 0 1 1.8.94 5.59 5.59 0 0 1 1.32 1.46 5.8 5.8 0 0 1 .74 1.91H949a4.85 4.85 0 0 0-.61-1.37 4.25 4.25 0 0 0-1-1 4.14 4.14 0 0 0-1.31-.66 5.19 5.19 0 0 0-1.55-.23 4.9 4.9 0 0 0-2 .39 4.57 4.57 0 0 0-1.56 1.07 5 5 0 0 0-1.05 1.6 5.22 5.22 0 0 0-.37 2 5.29 5.29 0 0 0 .37 2 5 5 0 0 0 1.05 1.6 4.72 4.72 0 0 0 1.56 1.07 4.9 4.9 0 0 0 2 .39 4.62 4.62 0 0 0 2.85-.9 4.27 4.27 0 0 0 1.61-2.42h1.55a6 6 0 0 1-.74 1.92 5.48 5.48 0 0 1-1.32 1.47 5.71 5.71 0 0 1-1.8.94 7 7 0 0 1-2.2.29zm10.95-11.3h-3.67v-1.3h8.88v1.3h-3.77v11.1h-1.44zm12.67 11.3a6.59 6.59 0 0 1-2.53-.48 6.25 6.25 0 0 1-3.4-3.4 6.91 6.91 0 0 1 0-5.06 6.33 6.33 0 0 1 1.35-2 6.26 6.26 0 0 1 2-1.35 6.8 6.8 0 0 1 5.07 0 6.22 6.22 0 0 1 2 1.35 6.33 6.33 0 0 1 1.35 2 6.78 6.78 0 0 1 0 5.06 6.48 6.48 0 0 1-1.35 2 6.09 6.09 0 0 1-2 1.36 6.59 6.59 0 0 1-2.49.52zm0-1.34a4.85 4.85 0 0 0 1.95-.39 4.66 4.66 0 0 0 1.57-1.07 4.73 4.73 0 0 0 1-1.61 5.34 5.34 0 0 0 .37-2 5.08 5.08 0 0 0-.38-2 4.94 4.94 0 0 0-1-1.6A4.36 4.36 0 0 0 970 288a5.19 5.19 0 0 0-3.9 0 4.45 4.45 0 0 0-1.56 1.06 4.94 4.94 0 0 0-1 1.6 5.08 5.08 0 0 0-.38 2 5.34 5.34 0 0 0 .37 2 4.73 4.73 0 0 0 1 1.61 4.66 4.66 0 0 0 1.57 1.07 4.85 4.85 0 0 0 1.99.41zm9.1-11.26h3.85a4.05 4.05 0 0 1 2.86 1 3.43 3.43 0 0 1 1 2.65 3.7 3.7 0 0 1-.72 2.33 3.56 3.56 0 0 1-2 1.25l3.52 5.2H984l-3.38-5.1h-2v5.1h-1.42zm3.75 6a2.58 2.58 0 0 0 1.83-.62 2.63 2.63 0 0 0 0-3.46 2.62 2.62 0 0 0-1.85-.6h-2.34v4.68zm15.05-6v12.4h-1.44V288l-2.35.74-.35-1.25 2.9-1z" opacity=".5" class="I"/><path d="M467.7 336.94a4.31 4.31 0 0 1-3-1 4 4 0 0 1-1.22-2.83h1.45a2.76 2.76 0 0 0 .83 1.88 2.71 2.71 0 0 0 1.94.72 2.94 2.94 0 0 0 1.93-.58 1.88 1.88 0 0 0 .72-1.56 1.82 1.82 0 0 0-.41-1.24 4 4 0 0 0-1.43-.86l-1.8-.7a4.63 4.63 0 0 1-2.08-1.37 3.26 3.26 0 0 1-.65-2.07 3 3 0 0 1 1.05-2.29 3.83 3.83 0 0 1 1.2-.64 4.8 4.8 0 0 1 1.55-.23 4 4 0 0 1 2.75.9 3.54 3.54 0 0 1 1.12 2.51h-1.47a2.24 2.24 0 0 0-.7-1.57 2.43 2.43 0 0 0-1.72-.57 2.64 2.64 0 0 0-1.69.51 1.63 1.63 0 0 0-.65 1.35 2 2 0 0 0 .43 1.33 3.66 3.66 0 0 0 1.45.92l1.83.7a4.72 4.72 0 0 1 2 1.3 3 3 0 0 1 .62 2 3.53 3.53 0 0 1-.29 1.44 3 3 0 0 1-.82 1.1 3.62 3.62 0 0 1-1.29.69 5.56 5.56 0 0 1-1.66.15zm6.72-12.6h7.15v1.3h-5.72v4h5.53v1.3h-5.53v4.52h5.92v1.3h-7.35zm15.58 12.6a6.66 6.66 0 0 1-2.55-.49 6.33 6.33 0 0 1-2-1.35 6.1 6.1 0 0 1-1.34-2 6.52 6.52 0 0 1-.49-2.56 6.41 6.41 0 0 1 .49-2.53 6 6 0 0 1 3.38-3.37 6.46 6.46 0 0 1 2.54-.49 7 7 0 0 1 2.18.33 5.77 5.77 0 0 1 1.79.94 5.42 5.42 0 0 1 1.32 1.46 5.67 5.67 0 0 1 .74 1.91h-1.55a4.67 4.67 0 0 0-.61-1.36 4.22 4.22 0 0 0-1-1 4.63 4.63 0 0 0-1.31-.67 5.3 5.3 0 0 0-1.56-.23 4.85 4.85 0 0 0-1.95.39 4.66 4.66 0 0 0-1.57 1.07 5 5 0 0 0-1 1.6 5.45 5.45 0 0 0 0 4 5 5 0 0 0 1 1.61 4.63 4.63 0 0 0 1.57 1.06 4.85 4.85 0 0 0 1.95.39 4.68 4.68 0 0 0 2.86-.89 4.36 4.36 0 0 0 1.6-2.43h1.5a5.73 5.73 0 0 1-.74 1.92 5.51 5.51 0 0 1-1.32 1.48 6.23 6.23 0 0 1-1.79.94 7 7 0 0 1-2.15.27zm10.94-11.3h-3.67v-1.3h8.9v1.3h-3.78v11.1h-1.44zm12.66 11.3a6.59 6.59 0 0 1-2.53-.49 6.34 6.34 0 0 1-2-1.36 6 6 0 0 1-1.35-2 6.8 6.8 0 0 1 0-5.07 6 6 0 0 1 3.38-3.37 6.83 6.83 0 0 1 5.08 0 6.1 6.1 0 0 1 2 1.34 6 6 0 0 1 1.35 2 6.8 6.8 0 0 1 0 5.07 6 6 0 0 1-1.35 2 6.15 6.15 0 0 1-2 1.36 6.64 6.64 0 0 1-2.58.52zm0-1.35a4.93 4.93 0 0 0 2-.39 4.69 4.69 0 0 0 1.56-1.06 4.9 4.9 0 0 0 1-1.62 5.54 5.54 0 0 0 .36-2 5 5 0 0 0-1.41-3.59 4.55 4.55 0 0 0-1.55-1.06 5.11 5.11 0 0 0-2-.38 5 5 0 0 0-2 .38 4.69 4.69 0 0 0-1.56 1.06 5.16 5.16 0 0 0-1.41 3.59 5.34 5.34 0 0 0 .37 2 5 5 0 0 0 1 1.62 4.93 4.93 0 0 0 3.52 1.45zm9.1-11.26h3.85a4 4 0 0 1 2.87 1 3.43 3.43 0 0 1 1 2.64 3.63 3.63 0 0 1-.73 2.33 3.56 3.56 0 0 1-2 1.25l3.52 5.2h-1.7l-3.37-5.08h-2v5.08h-1.44zm3.76 6a2.57 2.57 0 0 0 1.82-.62 2.58 2.58 0 0 0 0-3.45 2.56 2.56 0 0 0-1.84-.61h-2.34v4.68zm19.54 5.1v1.3h-8.08V336a4.21 4.21 0 0 1 .33-1.71 4.9 4.9 0 0 1 .82-1.32 6.17 6.17 0 0 1 1.09-1l1.14-.76 1.38-.87a5.91 5.91 0 0 0 .93-.73 2.37 2.37 0 0 0 .53-.77 2.63 2.63 0 0 0 .16-1 2.29 2.29 0 0 0-.66-1.79 2.35 2.35 0 0 0-1.61-.59 2.33 2.33 0 0 0-1.77.71 2.62 2.62 0 0 0-.68 1.87h-1.48a4.39 4.39 0 0 1 .28-1.61 3.63 3.63 0 0 1 .8-1.24 3.32 3.32 0 0 1 1.22-.8 4.57 4.57 0 0 1 1.61-.27 4.47 4.47 0 0 1 1.53.25 3.33 3.33 0 0 1 1.19.72 3.29 3.29 0 0 1 .78 1.17 4.09 4.09 0 0 1 .27 1.53 3.32 3.32 0 0 1-.95 2.49 6.19 6.19 0 0 1-1.09.91l-1.37.9-1.15.77a6.07 6.07 0 0 0-.87.76 3.51 3.51 0 0 0-.6.82 3 3 0 0 0-.32 1z" opacity=".5" class="I"/><path d="M493.4 143.5a4.24 4.24 0 0 1-3-1 3.91 3.91 0 0 1-1.23-2.83h1.46a2.65 2.65 0 0 0 2.76 2.6 3 3 0 0 0 1.94-.57 1.88 1.88 0 0 0 .72-1.56 1.77 1.77 0 0 0-.42-1.24 3.74 3.74 0 0 0-1.43-.87l-1.78-.68a4.75 4.75 0 0 1-2.09-1.37 3.26 3.26 0 0 1-.64-2.07 3.12 3.12 0 0 1 .27-1.3 3 3 0 0 1 .78-1 3.44 3.44 0 0 1 1.2-.64 4.69 4.69 0 0 1 1.54-.24 4 4 0 0 1 2.75.91 3.54 3.54 0 0 1 1.13 2.5h-1.46a2.27 2.27 0 0 0-.69-1.56 2.46 2.46 0 0 0-1.73-.57 2.7 2.7 0 0 0-1.69.5 1.65 1.65 0 0 0-.65 1.36 2 2 0 0 0 .44 1.33 3.69 3.69 0 0 0 1.44.92l1.83.7a4.63 4.63 0 0 1 2 1.3 3 3 0 0 1 .62 2 3.52 3.52 0 0 1-.28 1.44 3 3 0 0 1-.82 1.09 3.65 3.65 0 0 1-1.29.7 6 6 0 0 1-1.68.15zm6.7-12.6h7.15v1.3h-5.7v4h5.53v1.3h-5.53v4.5h5.9v1.3h-7.35zm15.58 12.6a6.65 6.65 0 0 1-2.55-.48 6.44 6.44 0 0 1-2-1.35 6.14 6.14 0 0 1-1.34-2 6.83 6.83 0 0 1 0-5.08 6.14 6.14 0 0 1 1.34-2 6.37 6.37 0 0 1 2-1.35 6.72 6.72 0 0 1 2.54-.49 7 7 0 0 1 2.18.34 5.94 5.94 0 0 1 1.8.94 5.57 5.57 0 0 1 2.05 3.37h-1.55a4.42 4.42 0 0 0-.61-1.36 4.09 4.09 0 0 0-1-1 4.48 4.48 0 0 0-1.31-.66 5.25 5.25 0 0 0-1.56-.23 4.85 4.85 0 0 0-2 .39 4.76 4.76 0 0 0-1.57 1.07 5 5 0 0 0-1 1.6 5.45 5.45 0 0 0 0 4 5 5 0 0 0 1 1.6 4.76 4.76 0 0 0 1.57 1.07 4.85 4.85 0 0 0 2 .39 4.68 4.68 0 0 0 2.86-.89 4.31 4.31 0 0 0 1.6-2.43h1.55a5.52 5.52 0 0 1-.74 1.92 5.28 5.28 0 0 1-1.31 1.47 5.94 5.94 0 0 1-1.8.94 7 7 0 0 1-2.15.22zm10.95-11.3H523v-1.3h8.88v1.3h-3.78v11.1h-1.44zm12.67 11.3a6.64 6.64 0 0 1-2.54-.48 6.28 6.28 0 0 1-3.39-3.4 6.78 6.78 0 0 1 0-5.06 6.17 6.17 0 0 1 1.35-2 6.33 6.33 0 0 1 2-1.35 6.73 6.73 0 0 1 2.55-.49 6.59 6.59 0 0 1 2.53.49 6.33 6.33 0 0 1 2 1.35 6.14 6.14 0 0 1 1.34 2 6.78 6.78 0 0 1 0 5.06 6.16 6.16 0 0 1-3.37 3.4 6.59 6.59 0 0 1-2.47.48zm0-1.34a4.8 4.8 0 0 0 4.55-3.07 5.54 5.54 0 0 0 .37-2 5.26 5.26 0 0 0-.38-2 5.12 5.12 0 0 0-1-1.6 4.55 4.55 0 0 0-1.56-1.06 5 5 0 0 0-2-.38 5.11 5.11 0 0 0-2 .38 4.55 4.55 0 0 0-1.56 1.06 5.12 5.12 0 0 0-1 1.6 5.26 5.26 0 0 0-.38 2 5.54 5.54 0 0 0 .37 2 4.84 4.84 0 0 0 2.6 2.68 4.93 4.93 0 0 0 1.99.39zm9.1-11.26h3.85a4 4 0 0 1 2.87 1 3.43 3.43 0 0 1 1 2.64 3.64 3.64 0 0 1-.73 2.33 3.53 3.53 0 0 1-2 1.25l3.53 5.2h-1.72l-3.37-5.1h-2v5.1h-1.43zm3.76 6a2.6 2.6 0 0 0 1.83-.62 2.61 2.61 0 0 0 0-3.46 2.6 2.6 0 0 0-1.84-.6h-2.34v4.68zm17.58-.14a3.1 3.1 0 0 1 1.45 1.15 3.22 3.22 0 0 1 .51 1.83 3.74 3.74 0 0 1-.31 1.51 3.66 3.66 0 0 1-.87 1.19 4.12 4.12 0 0 1-1.32.78 4.72 4.72 0 0 1-1.67.28 4.67 4.67 0 0 1-1.62-.26 3.48 3.48 0 0 1-2.08-2 4.68 4.68 0 0 1-.33-1.63h1.5a2.7 2.7 0 0 0 .73 1.86 2.43 2.43 0 0 0 1.82.7 3.21 3.21 0 0 0 1.1-.18 2.66 2.66 0 0 0 .86-.48 2.09 2.09 0 0 0 .55-.76 2.38 2.38 0 0 0 .2-1 2.09 2.09 0 0 0-.72-1.69 3 3 0 0 0-2-.61h-1.24v-1.3h1.22a2.43 2.43 0 0 0 1.7-.54 2.25 2.25 0 0 0 0-3 2.34 2.34 0 0 0-1.65-.54 2.53 2.53 0 0 0-1.72.57 2 2 0 0 0-.7 1.51h-1.44a3.33 3.33 0 0 1 .33-1.37 3.59 3.59 0 0 1 .83-1.09 3.88 3.88 0 0 1 1.13-.7 4.47 4.47 0 0 1 1.53-.26 4.51 4.51 0 0 1 1.51.24 3.33 3.33 0 0 1 1.16.68 3.06 3.06 0 0 1 .75 1 3.32 3.32 0 0 1 .27 1.35 3.25 3.25 0 0 1-.4 1.63 3 3 0 0 1-1.08 1.12z" opacity=".5" class="I"/><path d="M610.56 207.6h-2.66v-2.85h8.7v2.85h-2.88v8.13h-3.16zm12.14-2.84v11h-3.1v-8l-1.8.55-.7-2.63 3.1-.94zm10.76 9.32h-1.2v1.66h-3.1v-1.66h-4.88v-2.4l4.58-6.92h3.4v6.75h1.2zm-6.2-2.57h2.2v-3.46z" class="I"/></svg>