<svg xmlns="http://www.w3.org/2000/svg" viewBox="0 0 1062.67 537.87"><g fill="#fff"><path d="M338.2 518.9c-14.12 0-30.84-.5-42-2.5l-.33-.07c-1.35-.32-33.16-8.16-50.46-37-11.63-19.4-13.8-43.35-6.47-71.18l.1-.4.15-.36L383.8 54.75c3.65-10 16.24-27.44 38.25-22.6l.6.16c2.45.76 14.8 5.08 20.36 16.54 3.6 7.38 3.58 15.88 0 25.27l-.07.18-24 57.34c-.5 1.3-8.12 22.12-8.2 45.9v.07c4.3 23-1.93 40.68-17.05 48.44l-.38.2L349 241.64c-2.2.7-8.43 3.6-10.65 8.44-1.32 2.88-1.14 6.22.55 10.22l1.1 2.62c1.9 3.42 7.24 10 19 6.46l54.54-17.94c2.84-1.12 29.9-11.28 66.57-7.7l.66.1 42.45 8.95c.4.1 40.9 11 77.95-9.86 1.5-.95 7.25-4.35 33.4-19.2 2.47-1.63 19.37-12 48.38-10.13h0l62.95 3h.44c1.62.2 39.74 5.14 52.28 31.78 1.5 2.87 17.87 35.86-.4 67.74l-.2.34-.24.3c-7.72 10.12-28.53 38-32.1 45.07l-.08.15-27.8 51.84c-.44.83-10.8 19.82-32.25 19.83-.78 0-1.57 0-2.38-.08-3.22-.17-78.24-5.58-96.6-48.54a18.37 18.37 0 0 1-.55-13.87c3-8.6 11.58-15.93 25.65-21.76l.44-.16A197.12 197.12 0 0 1 666 342l.56-.07h.14c10.34-.83 40.5-6.85 50.38-24l.18-.32c.6-1.27 3.86-8.88.4-15.87s-13.32-12.08-28.3-14.37l-.7-.07c-13.92-1.56-64.3-5.82-128.2 4.64h-.07l-.44.08c-10 1.78-62.83 12.42-127.3 47.3-2 1.34-10.17 6.5-18.18 4.85a14.66 14.66 0 0 1-9.71-7.08l-7.58-12.23-.08-.25c-.55-1-4.1-6.38-16.88-2.36l-.67.2c-7.45 2.16-7 14.5-5.32 24.47l22.16 118.76c.35 1.7 4.5 23.7-6.47 38.95-5.6 7.8-14 12.4-24.86 13.7h-.44c-.97.08-12.4.58-26.4.58zm-39.67-14.27c20.17 3.54 61.84 1.9 65.28 1.75 7.4-.9 12.72-3.77 16.3-8.72 8.1-11.22 4.5-29.43 4.48-29.6v-.1L362.4 349h-.06c-4.54-26.83 5-35.5 13.8-38l.34-.1c19-6 28.66 2.76 31.4 8.67l7.1 11.35a2.71 2.71 0 0 0 1.86 1.51c2.5.53 6.92-1.53 9.12-3.1l.63-.4c66.22-35.9 120.9-46.9 131.2-48.73l.63-.1c65.44-10.72 117.23-6.34 131.55-4.74h.26l.7.1c36.88 5.56 41 24.7 40.2 35.6a34.84 34.84 0 0 1-1.9 8.92 18.59 18.59 0 0 1-1.78 3.94c-14.12 24.52-52.93 29.3-60 29.95v.05a188.84 188.84 0 0 0-31.34 6.71c-13.58 5.67-17.45 11.3-18.55 14.16a6.72 6.72 0 0 0-.19 4.87l.25.38v.17c12.68 30 64.6 39.56 81.92 41.16v-.05l4.25.3c15.37 1.1 23.16-12.84 23.48-13.44L755 356.43c4.7-9.3 29.13-41.5 33-46.57 15-26.7.1-55.67 0-56l-.14-.28c-9.3-20-40-24.67-42.74-25l-62.9-3c-26.27-1.7-40.88 8.1-41 8.2l-.46.3-32.83 18.84-.18.15-.52.3c-40.5 22.84-83.23 12.1-87 11.07l-41.56-8.75c-34.9-3.32-60.52 6.9-60.78 7l-.38.14-54.94 18.07c-15.92 4.8-25.37-2.6-29.6-7.4-1.18-1.35-4.13-5-5.14-8.63-3.72-8.9-2.22-15.7-.3-19.83 4.76-10.24 16.08-14.2 17.86-14.77l43.16-15c5.92-3.2 14.74-12 10.38-35.38a10.06 10.06 0 0 1-.2-1.83h0a156.09 156.09 0 0 1 9-50.73l.06-.16 24-57.35c2.33-6.13 2.47-11.4.4-15.66-3.32-6.82-11.34-9.74-12.9-10.25-17.3-3.77-24 14.28-24.3 15.05l-.1.25-144.44 352.4c-6.37 24.43-4.6 45.15 5.25 61.58 14.2 23.68 40.66 30.93 42.8 31.48z"/><path d="M292.76 238.06l-7.92 3.3-1.65 4 7.93-3.3 3.3 7.95 1.65-4-3.3-7.95z" opacity=".8"/><path d="M295.46 231.34l-7.92 3.3-1.65 4 7.92-3.3 3.3 7.95 1.64-4-3.3-7.95z" opacity=".9"/><path d="M298.3 224.56l-7.92 3.3-1.65 3.98 7.92-3.3 3.3 7.96 1.65-4-3.3-7.95z"/><path d="M282.24 247.65l-1.64 3.98 7.92-3.3 3.3 7.96 1.65-4-3.3-7.95-7.92 3.3z" opacity=".7"/><path d="M279.65 253.94l-1.65 4 7.92-3.3 3.3 7.95 1.65-4-3.3-7.95-7.9 3.3z" opacity=".6"/></g><path d="M312.74,271.58l-4-1.65,1.65-4,4,1.65Z" fill="#010101"/><path d="M314.4 267.6l-4-1.65 1.65-4 4 1.65z" fill="#fff"/><path d="M316,263.64l-4-1.65,1.65-4,4,1.65Z" fill="#010101"/><path d="M308.8 269.94l-4-1.65 1.65-4 4 1.65zm3.3-7.94l-4-1.65 1.65-4 4 1.65z" fill="#fff"/><g fill="#010101"><path d="M310.5 266l-4-1.65 1.65-4 4 1.65z"/><path d="M304.87 268.3l-4-1.65 1.65-4 4 1.65z"/></g><path d="M306.52,264.34l-4-1.65,1.65-4,4,1.65Z" fill="#fff"/><path d="M308.17,260.37l-4-1.65,1.65-4,4,1.65Z" fill="#010101"/><path d="M300.94 266.67L297 265l1.65-4 4 1.66zm3.3-7.93l-4-1.66 1.65-4 4 1.65z" fill="#fff"/><path d="M302.62 262.72l-4-1.65 1.65-4 4 1.65zM297 265.2l-4-1.65 1.65-4 4 1.65z" fill="#010101"/><path d="M298.66,261.24l-4-1.65,1.65-4,4,1.65Z" fill="#fff"/><path d="M300.3 257.27l-4-1.65 1.65-4 4 1.64z" fill="#010101"/><path d="M424.9 15.3h-2.66v-2.86h8.7v2.86h-2.88v8.13h-3.16zm12.1-2.85v11h-3.1v-8l-1.8.56-.7-2.63 3.1-1zM428.48 180h-2.66v-2.86h8.7V180h-2.88v8.12h-3.16zm15.12 5.47v2.66h-8.2V187a3.8 3.8 0 0 1 .8-2.35 9 9 0 0 1 2.21-1.95l1-.65a3.83 3.83 0 0 0 .6-.46 1.14 1.14 0 0 0 .29-.37.94.94 0 0 0 .09-.43 1 1 0 0 0-.25-.72.92.92 0 0 0-.67-.24c-.63 0-.95.42-.95 1.26h-3.08a4.1 4.1 0 0 1 1.11-3.06 4.89 4.89 0 0 1 6-.17 3.82 3.82 0 0 1 .85 3.81 3.11 3.11 0 0 1-.54.95 4.56 4.56 0 0 1-.9.84l-1.24.86-.94.6a6.55 6.55 0 0 0-.71.53zm-93.27 66.13h-2.66v-2.85h8.7v2.85h-2.87v8.13h-3.17zm13.47 2.53a2.82 2.82 0 0 1 1.24 1 2.66 2.66 0 0 1 .43 1.52 3 3 0 0 1-.3 1.34 3.17 3.17 0 0 1-.86 1 4.1 4.1 0 0 1-1.32.67 5.81 5.81 0 0 1-1.67.23 4.19 4.19 0 0 1-3-1 4 4 0 0 1-1.17-2.93h2.95a1.31 1.31 0 0 0 .31.87 1 1 0 0 0 .79.31 1.18 1.18 0 0 0 .81-.27.9.9 0 0 0 .31-.73.85.85 0 0 0-.29-.69 1.23 1.23 0 0 0-.83-.25h-1.06V253h1c.73 0 1.1-.3 1.1-.9a.81.81 0 0 0-.28-.66 1.07 1.07 0 0 0-.76-.25 1 1 0 0 0-1.11 1.09h-2.9a4.57 4.57 0 0 1 .36-1.56 3.34 3.34 0 0 1 .86-1.19 3.64 3.64 0 0 1 1.3-.75 4.93 4.93 0 0 1 1.68-.27 5.29 5.29 0 0 1 1.58.23 3.64 3.64 0 0 1 1.22.65 2.85 2.85 0 0 1 .79 1 3 3 0 0 1 .28 1.29 2.5 2.5 0 0 1-1.46 2.45zm96.12-28.05h-2.66v-2.85H466v2.85h-2.87v8.13h-3.17zm15.02 6.47h-1.2v1.66h-3.1v-1.66h-4.88v-2.4l4.58-6.92h3.4V230h1.2zm-6.2-2.55h2.2v-3.46zm86.76 9.16h-2.66v-2.86h8.7v2.86h-2.87v8.13h-3.17zm12.1.84a3.67 3.67 0 0 1 1.42.27 3.13 3.13 0 0 1 1.12.76 3.68 3.68 0 0 1 .73 1.17 4.13 4.13 0 0 1 .26 1.47 4 4 0 0 1-.3 1.58 3.41 3.41 0 0 1-.87 1.21 3.75 3.75 0 0 1-1.35.78 5.33 5.33 0 0 1-1.76.27 4.22 4.22 0 0 1-2.94-1 3.8 3.8 0 0 1-1.17-2.76h3a1.13 1.13 0 0 0 .36.72 1.08 1.08 0 0 0 .75.27 1.1 1.1 0 0 0 .84-.35 1.27 1.27 0 0 0 .33-.91 1.24 1.24 0 0 0-.33-.87 1.15 1.15 0 0 0-.84-.35 1.17 1.17 0 0 0-.58.15 1.32 1.32 0 0 0-.44.41H563v-6.52h7.56v2.7h-4.62v1.4a3.71 3.71 0 0 1 1.67-.41zm84.73-42.56h-2.66v-2.86h8.7v2.86h-2.88v8.13h-3.16zm11.34.44a3.56 3.56 0 0 1 2.28 1.26 3.66 3.66 0 0 1 .67 1.15 3.92 3.92 0 0 1 .23 1.38 4 4 0 0 1-.33 1.61 4.12 4.12 0 0 1-2.26 2.18 4.45 4.45 0 0 1-1.68.32 4.2 4.2 0 0 1-1.66-.33 4 4 0 0 1-1.34-.89 4.14 4.14 0 0 1-.89-1.33 4.28 4.28 0 0 1-.32-1.64 4.2 4.2 0 0 1 .06-.72 6.38 6.38 0 0 1 .21-.73 6.8 6.8 0 0 1 .4-.82l.63-1 2.5-3.74h3.64zM662.6 203a1.22 1.22 0 0 0 .9-.36 1.29 1.29 0 0 0 .36-.93 1.23 1.23 0 0 0-1.26-1.27 1.18 1.18 0 0 0-.88.36 1.23 1.23 0 0 0-.36.91 1.29 1.29 0 0 0 .36.93 1.18 1.18 0 0 0 .88.36zm152.25 54.18h-2.66v-2.85h8.7v2.85H818v8.13h-3.16zm14.72-2.85v2.6l-4 8.4h-3.38l4.1-8.2h-4.6v-2.8zm-115.3 190.9h-2.66v-2.85h8.7v2.85h-2.87v8.13h-3.17zm14.02 2.37a2.82 2.82 0 0 1 1.55 2.66 3.06 3.06 0 0 1-.3 1.37 2.7 2.7 0 0 1-.84 1 4.12 4.12 0 0 1-1.36.67 6.58 6.58 0 0 1-1.79.23 5 5 0 0 1-3.15-.88 2.91 2.91 0 0 1-1.13-2.42 3.07 3.07 0 0 1 .39-1.59 3 3 0 0 1 1.14-1.07 2.82 2.82 0 0 1-1-1 2.68 2.68 0 0 1-.34-1.37 2.82 2.82 0 0 1 .28-1.27 2.77 2.77 0 0 1 .83-1 3.93 3.93 0 0 1 1.28-.63 6.6 6.6 0 0 1 3.38 0 3.93 3.93 0 0 1 1.28.63 2.75 2.75 0 0 1 .82 1 2.82 2.82 0 0 1 .29 1.27 2.68 2.68 0 0 1-.35 1.37 2.82 2.82 0 0 1-.98 1.03zm-2.74 3.64a1.19 1.19 0 0 0 .85-.31 1 1 0 0 0 .34-.81 1.21 1.21 0 0 0-2-.84 1.17 1.17 0 0 0-.34.85 1 1 0 0 0 .34.81 1.23 1.23 0 0 0 .81.3zm0-6.77a1.12 1.12 0 0 0-.78.29.92.92 0 0 0-.31.72 1.08 1.08 0 1 0 2.15 0 .94.94 0 0 0-.29-.72 1.06 1.06 0 0 0-.76-.29zM583.83 370.2h-2.66v-2.86h8.7v2.86H587v8.13h-3.17zm9.97 4.8a3.63 3.63 0 0 1-2.28-1.26 3.86 3.86 0 0 1-.67-1.15 4.16 4.16 0 0 1-.23-1.38 4 4 0 0 1 .33-1.61 4.33 4.33 0 0 1 .91-1.31 4.13 4.13 0 0 1 1.35-.87 4.52 4.52 0 0 1 1.68-.32 4.2 4.2 0 0 1 1.66.33 4 4 0 0 1 1.34.89 4.25 4.25 0 0 1 .89 1.33 4.12 4.12 0 0 1 .33 1.65 4 4 0 0 1-.07.71 3.9 3.9 0 0 1-.21.73 5.57 5.57 0 0 1-.4.82l-.63 1-2.5 3.74h-3.64zm1.08-5.1a1.19 1.19 0 0 0-.9.37 1.25 1.25 0 0 0-.36.92 1.23 1.23 0 0 0 1.26 1.27 1.2 1.2 0 0 0 .89-.36 1.26 1.26 0 0 0 .35-.91 1.28 1.28 0 0 0-.35-.92 1.17 1.17 0 0 0-.89-.34zM743.24 297h-2.66v-2.85h8.7V297h-2.87v8.13h-3.17zm12.14-2.82v11h-3.1v-8l-1.8.55-.7-2.63 3.08-.94zm7.52 11.2a6.49 6.49 0 0 1-2.37-.42 5.78 5.78 0 0 1-1.86-1.18 5.38 5.38 0 0 1-1.21-1.81 6.21 6.21 0 0 1 0-4.59 5.24 5.24 0 0 1 1.21-1.8 5.78 5.78 0 0 1 1.86-1.18 6.9 6.9 0 0 1 4.74 0 5.68 5.68 0 0 1 1.86 1.18 5.24 5.24 0 0 1 1.21 1.8 6.21 6.21 0 0 1 0 4.59 5.38 5.38 0 0 1-1.21 1.81 5.68 5.68 0 0 1-1.86 1.18 6.49 6.49 0 0 1-2.37.42zm0-2.85a2.65 2.65 0 0 0 1.07-.21 2.43 2.43 0 0 0 .84-.6 2.9 2.9 0 0 0 .56-.91 3 3 0 0 0 .2-1.14 2.93 2.93 0 0 0-.2-1.12 2.9 2.9 0 0 0-.56-.91 2.73 2.73 0 0 0-3-.6 2.57 2.57 0 0 0-.85.6 2.73 2.73 0 0 0-.56.91 2.94 2.94 0 0 0-.21 1.12 3 3 0 0 0 .21 1.14 2.73 2.73 0 0 0 .56.91 2.57 2.57 0 0 0 .85.6 2.7 2.7 0 0 0 1.11.21zm-351.55 52h-2.66v-2.86h8.7v2.86h-2.87v8.12h-3.17zm12.15-2.86v11h-3.1v-8l-1.8.55-.7-2.62 3.08-.95zm6.74 0v11h-3.1v-8l-1.8.55-.7-2.62 3.08-.95zm-87.2-49.88h-2.66v-2.86h8.7v2.86h-2.88v8.12h-3.16zm12.15-2.86v11h-3.1v-8l-1.8.55-.7-2.62 3.1-.95zm9.88 8.32v2.66h-8.2v-1.12a3.74 3.74 0 0 1 .8-2.35 8.71 8.71 0 0 1 2.2-1.95l1-.65a4.2 4.2 0 0 0 .59-.46 1.35 1.35 0 0 0 .3-.37 1.1 1.1 0 0 0 .08-.43.94.94 0 0 0-.25-.72.9.9 0 0 0-.67-.24c-.63 0-.94.42-.94 1.26h-3.1a4.1 4.1 0 0 1 1.11-3.06 4.89 4.89 0 0 1 6-.17 3.3 3.3 0 0 1 1 2.61 3.6 3.6 0 0 1-.19 1.2 3.36 3.36 0 0 1-.55.95 4.56 4.56 0 0 1-.9.84l-1.24.86-.94.6a7.71 7.71 0 0 0-.71.53zm36.5 205.62h-2.66V510h8.7v2.85h-2.88V521h-3.16zm12.14-2.86v11h-3.1v-8l-1.8.55-.7-2.63 3.1-.94zm8.28 5.38a2.82 2.82 0 0 1 1.24 1 2.66 2.66 0 0 1 .43 1.52 3 3 0 0 1-.3 1.34 3.17 3.17 0 0 1-.86 1 4.15 4.15 0 0 1-1.31.67 5.93 5.93 0 0 1-1.68.23 4.19 4.19 0 0 1-3-1 4 4 0 0 1-1.17-2.93h2.95a1.36 1.36 0 0 0 .31.87 1 1 0 0 0 .79.31 1.17 1.17 0 0 0 .81-.27.9.9 0 0 0 .31-.73.85.85 0 0 0-.29-.69 1.23 1.23 0 0 0-.83-.25h-1.06v-2.2h1c.73 0 1.1-.3 1.1-.9a.84.84 0 0 0-.27-.66 1.12 1.12 0 0 0-.77-.25 1.1 1.1 0 0 0-.79.29 1.14 1.14 0 0 0-.32.8h-2.9a4.82 4.82 0 0 1 .36-1.56 3.34 3.34 0 0 1 .86-1.19 3.64 3.64 0 0 1 1.3-.75 4.93 4.93 0 0 1 1.68-.27 5.29 5.29 0 0 1 1.58.23 3.64 3.64 0 0 1 1.22.65 2.85 2.85 0 0 1 .79 1 3 3 0 0 1 .28 1.29 2.5 2.5 0 0 1-1.44 2.46zM239.7 506h-2.66v-2.85h8.7V506h-2.87v8.13h-3.17zm12.16-2.84v11h-3.1v-8l-1.8.55-.7-2.63 3.08-.94zm10.74 9.32h-1.2v1.66h-3.1v-1.66h-4.9v-2.4l4.6-6.92h3.4v6.75h1.2zm-6.18-2.57h2.2v-3.46z" fill="#fff"/></svg>