<svg xmlns="http://www.w3.org/2000/svg" viewBox="0 0 1062.67 537.87"><defs><style>.cls-1{fill:#010101;}.cls-2{fill:#fff;}.cls-3{opacity:0.8;}.cls-4{opacity:0.9;}.cls-5{opacity:0.7;}.cls-6{opacity:0.6;}.cls-7{opacity:0.5;}</style></defs><g id="_03" data-name="03"><path class="cls-1" d="M878.84,294.47l.61,5.86-5.86.61-.61-5.87Z"/><path class="cls-2" d="M873,295.07l.61,5.87-5.86.61-.61-5.87Z"/><path class="cls-1" d="M867.12,295.68l.61,5.87-5.86.6-.61-5.86Z"/><path class="cls-2" d="M879.44,300.27l.61,5.87-5.86.6-.61-5.86Z"/><path class="cls-2" d="M867.72,301.49l.61,5.86-5.86.61-.61-5.86Z"/><path class="cls-1" d="M873.58,300.83l.6,5.86-5.86.61-.6-5.86Z"/><path class="cls-1" d="M880,306.09l.61,5.85-5.85.61-.62-5.86Z"/><path class="cls-2" d="M874.18,306.69l.62,5.86-5.87.61-.61-5.86Z"/><path class="cls-1" d="M868.32,307.3l.61,5.86-5.86.61-.61-5.86Z"/><path class="cls-2" d="M880.65,311.89l.6,5.86-5.86.61-.6-5.86Z"/><path class="cls-2" d="M868.93,313.11l.6,5.86-5.86.61-.6-5.86Z"/><path class="cls-1" d="M874.78,312.45l.61,5.86-5.86.61-.61-5.86Z"/><path class="cls-1" d="M881.45,317.58l.6,5.86-5.85.61-.62-5.86Z"/><path class="cls-2" d="M875.58,318.19l.62,5.86-5.87.6-.61-5.86Z"/><path class="cls-1" d="M869.72,318.79l.61,5.86-5.85.61-.62-5.86Z"/><g class="cls-3"><polygon class="cls-2" points="821.1 314.92 831.39 323.32 838.04 322.65 827.74 314.25 836.17 303.92 829.52 304.59 821.1 314.92"/></g><g class="cls-4"><polygon class="cls-2" points="809.94 316.18 820.24 324.57 826.88 323.9 816.59 315.5 825.02 305.17 818.37 305.84 809.94 316.18"/></g><polygon class="cls-2" points="798.61 317.27 808.9 325.67 815.55 324.99 805.25 316.6 813.68 306.26 807.04 306.94 798.61 317.27"/><g class="cls-5"><polygon class="cls-2" points="841.88 322.26 848.52 321.58 838.23 313.18 846.66 302.85 840.01 303.53 831.58 313.86 841.88 322.26"/></g><g class="cls-6"><polygon class="cls-2" points="852.36 321.19 859.01 320.52 848.72 312.12 857.15 301.79 850.5 302.46 842.07 312.8 852.36 321.19"/></g><path class="cls-2" d="M23,469.2H20.3v-2.85H29v2.85H26.12v8.13H23Z"/><path class="cls-2" d="M37.68,466.35v2.59l-4,8.39H30.32l4.09-8.19h-4.6v-2.79Z"/><path class="cls-2" d="M504,316.67h-2.66v-2.86h8.7v2.86h-2.88v8.13H504Z"/><path class="cls-2" d="M516.16,313.81v11h-3.1v-8l-1.8.56-.7-2.63,3.09-.95Z"/><path class="cls-2" d="M638,238.64h-2.66v-2.86H644v2.86h-2.87v8.13H638Z"/><path class="cls-2" d="M653.11,244.11v2.66h-8.19v-1.13a3.69,3.69,0,0,1,.8-2.34,8.89,8.89,0,0,1,2.2-2l1-.65a6.53,6.53,0,0,0,.59-.46,1.19,1.19,0,0,0,.3-.37,1.14,1.14,0,0,0,.08-.43,1,1,0,0,0-.25-.73.93.93,0,0,0-.66-.23c-.64,0-1,.42-1,1.26h-3.09a4.14,4.14,0,0,1,1.11-3.07,4.21,4.21,0,0,1,3.09-1.1,4.16,4.16,0,0,1,2.87.93,3.31,3.31,0,0,1,1,2.62,3.58,3.58,0,0,1-.19,1.19,3.28,3.28,0,0,1-.55,1,5.24,5.24,0,0,1-.9.84c-.36.27-.77.55-1.24.86l-.94.61a7.71,7.71,0,0,0-.71.53Z"/><path class="cls-2" d="M463.7,161H461v-2.85h8.7V161h-2.88v8.13H463.7Z"/><path class="cls-2" d="M477.18,163.53a2.88,2.88,0,0,1,1.24,1,2.73,2.73,0,0,1,.42,1.52,3,3,0,0,1-.3,1.34,3.06,3.06,0,0,1-.86,1,4,4,0,0,1-1.31.67,5.86,5.86,0,0,1-1.67.23,4.21,4.21,0,0,1-3-1,4.06,4.06,0,0,1-1.16-2.93h2.95a1.26,1.26,0,0,0,.31.87,1,1,0,0,0,.78.31,1.21,1.21,0,0,0,.82-.27.9.9,0,0,0,.31-.73.88.88,0,0,0-.29-.69,1.26,1.26,0,0,0-.84-.25h-1.06v-2.21h1c.73,0,1.1-.3,1.1-.89a.82.82,0,0,0-.28-.67,1.25,1.25,0,0,0-1.56,0,1.11,1.11,0,0,0-.32.8h-2.9a4.36,4.36,0,0,1,.36-1.57,3.32,3.32,0,0,1,.85-1.19,3.73,3.73,0,0,1,1.3-.75,4.94,4.94,0,0,1,1.68-.26,5.32,5.32,0,0,1,1.59.22,3.74,3.74,0,0,1,1.22.65,2.8,2.8,0,0,1,.78,1,2.9,2.9,0,0,1,.28,1.29A2.49,2.49,0,0,1,477.18,163.53Z"/><path class="cls-2" d="M528.56,231.25H525.9V228.4h8.7v2.85h-2.87v8.13h-3.17Z"/><path class="cls-2" d="M543.58,237.72h-1.21v1.66h-3.1v-1.66h-4.88v-2.4L539,228.4h3.39v6.75h1.21Zm-6.19-2.57h2.19v-3.46Z"/><path class="cls-2" d="M295.91,398.75h-2.66v-2.86H302v2.86h-2.87v8.13h-3.17Z"/><path class="cls-2" d="M308,399.58a3.63,3.63,0,0,1,1.42.27,3.13,3.13,0,0,1,1.12.76,3.47,3.47,0,0,1,.73,1.17,4.13,4.13,0,0,1,.26,1.47,4,4,0,0,1-.3,1.58,3.29,3.29,0,0,1-.87,1.21,3.79,3.79,0,0,1-1.34.78,5.44,5.44,0,0,1-1.77.27,4.17,4.17,0,0,1-2.93-1,3.81,3.81,0,0,1-1.18-2.77h3a1.1,1.1,0,0,0,.37.73,1.05,1.05,0,0,0,.74.27,1.12,1.12,0,0,0,.85-.35,1.33,1.33,0,0,0,.32-.91,1.21,1.21,0,0,0-.33-.87,1.13,1.13,0,0,0-.84-.35,1.1,1.1,0,0,0-.57.15,1.2,1.2,0,0,0-.44.4h-2.84v-6.51H311v2.66h-4.62V400A3.58,3.58,0,0,1,308,399.58Z"/><path class="cls-2" d="M365.2,496.86h-2.66V494h8.7v2.86h-2.87V505H365.2Z"/><path class="cls-2" d="M376.54,497.3a3.46,3.46,0,0,1,1.27.42,4,4,0,0,1,1,.83,3.78,3.78,0,0,1,.67,1.15,3.93,3.93,0,0,1,.24,1.38,4,4,0,0,1-.34,1.62,4.09,4.09,0,0,1-.9,1.3,4.34,4.34,0,0,1-3,1.2,4.2,4.2,0,0,1-1.66-.33,4.09,4.09,0,0,1-1.33-.89,4,4,0,0,1-.89-1.33,4.12,4.12,0,0,1-.33-1.65,4.2,4.2,0,0,1,.06-.72,4.5,4.5,0,0,1,.22-.72,4.72,4.72,0,0,1,.4-.82c.17-.29.37-.62.62-1L375,494h3.64Zm-1.07,5.09a1.17,1.17,0,0,0,.89-.37,1.36,1.36,0,0,0,0-1.84,1.23,1.23,0,0,0-.89-.35,1.21,1.21,0,0,0-.89.35,1.38,1.38,0,0,0,0,1.84A1.16,1.16,0,0,0,375.47,502.39Z"/><path class="cls-2" d="M234,434.91H231.3v-2.86H240v2.86h-2.87V443H234Z"/><path class="cls-2" d="M248,437.29a2.81,2.81,0,0,1,1.55,2.66,3,3,0,0,1-.3,1.36,2.73,2.73,0,0,1-.84,1A4.31,4.31,0,0,1,247,443a6.2,6.2,0,0,1-1.79.24,5.08,5.08,0,0,1-3.15-.88A2.92,2.92,0,0,1,241,440a3.07,3.07,0,0,1,.39-1.59,2.88,2.88,0,0,1,1.14-1.07,2.76,2.76,0,0,1-1-1,2.64,2.64,0,0,1-.34-1.36,2.69,2.69,0,0,1,1.11-2.25,3.93,3.93,0,0,1,1.28-.63,6.6,6.6,0,0,1,3.38,0,3.93,3.93,0,0,1,1.28.63,2.75,2.75,0,0,1,.82,1,2.79,2.79,0,0,1,.29,1.27,2.65,2.65,0,0,1-.35,1.36A2.76,2.76,0,0,1,248,437.29Zm-2.74,3.64a1.19,1.19,0,0,0,.85-.31,1.05,1.05,0,0,0,.34-.82,1.12,1.12,0,0,0-.33-.84,1.15,1.15,0,0,0-.85-.33,1.18,1.18,0,0,0-.87.33,1.19,1.19,0,0,0-.34.86,1,1,0,0,0,.34.81A1.23,1.23,0,0,0,245.23,440.93Zm0-6.77a1.12,1.12,0,0,0-.78.28.93.93,0,0,0-.31.73,1,1,0,0,0,1.08,1.08,1,1,0,0,0,.77-.31,1,1,0,0,0,.3-.77,1,1,0,0,0-.29-.73A1.06,1.06,0,0,0,245.24,434.16Z"/><path class="cls-2" d="M238.56,342.4H235.9v-2.86h8.7v2.86h-2.87v8.13h-3.17Z"/><path class="cls-2" d="M248.52,347.23a3.68,3.68,0,0,1-2.28-1.26,3.78,3.78,0,0,1-.67-1.15,4.16,4.16,0,0,1-.23-1.38,4,4,0,0,1,.33-1.61,4.12,4.12,0,0,1,2.26-2.18,4.26,4.26,0,0,1,1.68-.32,4.2,4.2,0,0,1,1.66.33,4.11,4.11,0,0,1,1.34.88,4.15,4.15,0,0,1,1.21,3,4.2,4.2,0,0,1-.06.72,6.38,6.38,0,0,1-.21.73,7.61,7.61,0,0,1-.4.82c-.17.3-.38.63-.63,1l-2.5,3.74h-3.64Zm1.08-5.09a1.22,1.22,0,0,0-.9.36,1.29,1.29,0,0,0-.36.93,1.23,1.23,0,0,0,1.26,1.27,1.2,1.2,0,0,0,.89-.36,1.26,1.26,0,0,0,.35-.91,1.33,1.33,0,0,0-.35-.93A1.2,1.2,0,0,0,249.6,342.14Z"/><path class="cls-2" d="M395.61,225.4H393v-2.86h8.7v2.86h-2.87v8.12h-3.17Z"/><path class="cls-2" d="M407.76,222.54v11h-3.1v-8l-1.8.55-.7-2.62,3.08-1Z"/><path class="cls-2" d="M415.27,233.74a6.49,6.49,0,0,1-2.37-.43,5.57,5.57,0,0,1-1.86-1.18,5.4,5.4,0,0,1-1.22-1.81,6.34,6.34,0,0,1,0-4.59,5.26,5.26,0,0,1,1.22-1.8,5.57,5.57,0,0,1,1.86-1.18,6.87,6.87,0,0,1,4.73,0,5.57,5.57,0,0,1,1.86,1.18,5.13,5.13,0,0,1,1.22,1.8,6.34,6.34,0,0,1,0,4.59,5.26,5.26,0,0,1-1.22,1.81,5.57,5.57,0,0,1-1.86,1.18A6.43,6.43,0,0,1,415.27,233.74Zm0-2.86a2.74,2.74,0,0,0,1.08-.21,2.31,2.31,0,0,0,.84-.6,2.83,2.83,0,0,0,.55-.9A3.06,3.06,0,0,0,418,228a3,3,0,0,0-.21-1.12,2.73,2.73,0,0,0-.56-.91,2.55,2.55,0,0,0-.85-.59,2.48,2.48,0,0,0-1.06-.22,2.58,2.58,0,0,0-1.08.22,2.61,2.61,0,0,0-.84.59,2.92,2.92,0,0,0-.57.91,3.18,3.18,0,0,0-.2,1.12,3.27,3.27,0,0,0,.2,1.15,2.88,2.88,0,0,0,.57.9,2.49,2.49,0,0,0,.84.6A2.74,2.74,0,0,0,415.28,230.88Z"/><path class="cls-2" d="M370.51,124.43h-2.66v-2.86h8.7v2.86h-2.88v8.13h-3.16Z"/><path class="cls-2" d="M382.65,121.57v11h-3.1v-8l-1.8.56-.7-2.63,3.09-1Z"/><path class="cls-2" d="M389.39,121.57v11h-3.1v-8l-1.8.56-.7-2.63,3.09-1Z"/><path class="cls-2" d="M622.71,70.87h-2.66V68h8.7v2.86h-2.87V79h-3.17Z"/><path class="cls-2" d="M634.86,68V79h-3.1V71l-1.8.56-.7-2.63,3.08-.95Z"/><path class="cls-2" d="M644.75,76.34V79h-8.2V77.87a3.75,3.75,0,0,1,.8-2.34,9,9,0,0,1,2.21-2l1-.65a5.63,5.63,0,0,0,.6-.46,1.16,1.16,0,0,0,.29-.38.9.9,0,0,0,.09-.42,1,1,0,0,0-.25-.73,1,1,0,0,0-.67-.23c-.63,0-1,.42-1,1.25h-3.08a4.14,4.14,0,0,1,1.11-3.06,4.89,4.89,0,0,1,6-.17,3.82,3.82,0,0,1,.85,3.81,3.16,3.16,0,0,1-.54,1,5.24,5.24,0,0,1-.9.84c-.36.27-.77.55-1.24.86l-.94.61a5.46,5.46,0,0,0-.71.53Z"/><path class="cls-2" d="M827.17,220.11h-2.66v-2.85h8.7v2.85h-2.87v8.13h-3.17Z"/><path class="cls-2" d="M839.32,217.26v11h-3.1v-8l-1.8.55-.7-2.63,3.08-.94Z"/><path class="cls-2" d="M847.56,222.63a2.88,2.88,0,0,1,1.24,1,2.73,2.73,0,0,1,.42,1.52,3,3,0,0,1-.3,1.34,3,3,0,0,1-.85,1,4.1,4.1,0,0,1-1.32.67,5.81,5.81,0,0,1-1.67.23,4.23,4.23,0,0,1-3-1,4.06,4.06,0,0,1-1.16-2.93h3a1.31,1.31,0,0,0,.31.87,1,1,0,0,0,.78.31,1.21,1.21,0,0,0,.82-.27.9.9,0,0,0,.31-.73.88.88,0,0,0-.29-.69,1.26,1.26,0,0,0-.84-.25H843.9v-2.21h1c.72,0,1.09-.29,1.09-.89a.82.82,0,0,0-.28-.67,1.25,1.25,0,0,0-1.56.05,1.15,1.15,0,0,0-.32.8H841a4.36,4.36,0,0,1,.36-1.57,3.23,3.23,0,0,1,.86-1.19,3.59,3.59,0,0,1,1.29-.75,4.94,4.94,0,0,1,1.68-.26,5.32,5.32,0,0,1,1.59.22,3.74,3.74,0,0,1,1.22.65,2.8,2.8,0,0,1,.78,1,2.9,2.9,0,0,1,.28,1.29A2.49,2.49,0,0,1,847.56,222.63Z"/><path class="cls-2" d="M859.59,151.46h-2.66v-2.85h8.7v2.85h-2.87v8.13h-3.17Z"/><path class="cls-2" d="M871.74,148.61v11h-3.1v-8l-1.8.55-.7-2.63,3.08-.94Z"/><path class="cls-2" d="M882.49,157.93h-1.21v1.66h-3.1v-1.66H873.3v-2.4l4.59-6.92h3.39v6.75h1.21Zm-6.18-2.57h2.18V151.9Z"/><path class="cls-2" d="M975.75,265.09h-2.67v-2.86h8.7v2.86h-2.87v8.12h-3.16Z"/><path class="cls-2" d="M987.89,262.23v11h-3.1v-8l-1.8.55-.7-2.62,3.08-.95Z"/><path class="cls-2" d="M994.76,265.92a3.7,3.7,0,0,1,1.42.27,3.22,3.22,0,0,1,1.12.76,3.35,3.35,0,0,1,.72,1.16,4,4,0,0,1,.26,1.48,4,4,0,0,1-.3,1.57,3.42,3.42,0,0,1-.86,1.22,3.92,3.92,0,0,1-1.35.78,5.37,5.37,0,0,1-1.76.27,4.22,4.22,0,0,1-2.94-1,3.81,3.81,0,0,1-1.18-2.77h3a1.14,1.14,0,0,0,.37.73,1.07,1.07,0,0,0,.74.27,1.12,1.12,0,0,0,.85-.35,1.29,1.29,0,0,0,.33-.91,1.22,1.22,0,0,0-.34-.87,1.08,1.08,0,0,0-.84-.35,1.23,1.23,0,0,0-.57.14,1.43,1.43,0,0,0-.44.41h-2.84v-6.51h7.56v2.66h-4.62v1.4A3.7,3.7,0,0,1,994.76,265.92Z"/><g class="cls-7"><path class="cls-2" d="M701.79,106.7a4.31,4.31,0,0,1-3-1,4,4,0,0,1-1.22-2.83H699a2.76,2.76,0,0,0,.83,1.88,2.7,2.7,0,0,0,1.94.71,3,3,0,0,0,1.94-.57,1.9,1.9,0,0,0,.71-1.56,1.77,1.77,0,0,0-.41-1.24,3.83,3.83,0,0,0-1.43-.86l-1.79-.69a4.71,4.71,0,0,1-2.08-1.37,3.26,3.26,0,0,1-.65-2.07,3,3,0,0,1,.28-1.29,2.86,2.86,0,0,1,.78-1,3.67,3.67,0,0,1,1.19-.64,4.8,4.8,0,0,1,1.55-.23,4,4,0,0,1,2.75.9,3.54,3.54,0,0,1,1.12,2.51h-1.45a2.24,2.24,0,0,0-.7-1.57,2.43,2.43,0,0,0-1.72-.57,2.7,2.7,0,0,0-1.69.5,1.65,1.65,0,0,0-.65,1.36,2.06,2.06,0,0,0,.43,1.33,3.66,3.66,0,0,0,1.45.92l1.83.7a4.72,4.72,0,0,1,2,1.3,3,3,0,0,1,.62,2,3.53,3.53,0,0,1-.29,1.44,3.06,3.06,0,0,1-.82,1.1,3.62,3.62,0,0,1-1.29.69A5.56,5.56,0,0,1,701.79,106.7Z"/><path class="cls-2" d="M708.5,94.09h7.15V95.4h-5.72v4h5.53v1.31h-5.53v4.52h5.92v1.3H708.5Z"/><path class="cls-2" d="M724.07,106.7a6.66,6.66,0,0,1-2.55-.49,6.33,6.33,0,0,1-2-1.35,6,6,0,0,1-1.34-2,6.83,6.83,0,0,1,0-5.08,6.14,6.14,0,0,1,1.34-2,6.26,6.26,0,0,1,2-1.35,6.64,6.64,0,0,1,2.54-.48,7,7,0,0,1,2.18.33,5.77,5.77,0,0,1,1.79.94,5.42,5.42,0,0,1,1.32,1.46,5.67,5.67,0,0,1,.74,1.91h-1.55a4.42,4.42,0,0,0-.61-1.36,4.05,4.05,0,0,0-1-1,4.63,4.63,0,0,0-1.31-.67,5.3,5.3,0,0,0-1.56-.23,4.85,4.85,0,0,0-2,.39,4.66,4.66,0,0,0-1.57,1.07,5,5,0,0,0-1,1.6,5.45,5.45,0,0,0,0,4,5,5,0,0,0,1,1.61,4.63,4.63,0,0,0,1.57,1.06,4.85,4.85,0,0,0,2,.39,4.68,4.68,0,0,0,2.86-.89,4.31,4.31,0,0,0,1.6-2.43h1.55a5.73,5.73,0,0,1-.74,1.92,5.32,5.32,0,0,1-1.32,1.47,6,6,0,0,1-1.79,1A7,7,0,0,1,724.07,106.7Z"/><path class="cls-2" d="M735,95.4h-3.67V94.09h8.89V95.4h-3.78v11.09H735Z"/><path class="cls-2" d="M747.68,106.7a6.59,6.59,0,0,1-2.53-.49,6.34,6.34,0,0,1-2-1.36,6,6,0,0,1-1.35-2,6.8,6.8,0,0,1,0-5.07,6.14,6.14,0,0,1,1.34-2,6.26,6.26,0,0,1,2-1.35,7,7,0,0,1,5.08,0,6.44,6.44,0,0,1,2,1.35,6.14,6.14,0,0,1,1.34,2,6.8,6.8,0,0,1,0,5.07,6.14,6.14,0,0,1-1.34,2,6.3,6.3,0,0,1-2,1.36A6.64,6.64,0,0,1,747.68,106.7Zm0-1.35a4.9,4.9,0,0,0,2-.39,4.69,4.69,0,0,0,1.56-1.06,4.9,4.9,0,0,0,1-1.62,5.54,5.54,0,0,0,.36-2,5.26,5.26,0,0,0-.37-2,5.14,5.14,0,0,0-1-1.6,4.55,4.55,0,0,0-1.55-1.06,5.22,5.22,0,0,0-3.91,0,4.69,4.69,0,0,0-1.56,1.06,5.12,5.12,0,0,0-1,1.6,5.26,5.26,0,0,0-.38,2,5.34,5.34,0,0,0,.37,2,5,5,0,0,0,1,1.62,4.93,4.93,0,0,0,3.52,1.45Z"/><path class="cls-2" d="M756.79,94.09h3.85a4,4,0,0,1,2.87,1,3.43,3.43,0,0,1,1,2.64,3.63,3.63,0,0,1-.73,2.33,3.56,3.56,0,0,1-2,1.25l3.52,5.21h-1.71l-3.37-5.08h-2v5.08h-1.44Zm3.76,6a2.57,2.57,0,0,0,1.82-.62,2.58,2.58,0,0,0,0-3.45,2.56,2.56,0,0,0-1.84-.61h-2.34v4.68Z"/><path class="cls-2" d="M778.13,100a3.1,3.1,0,0,1,1.45,1.15,3.23,3.23,0,0,1,.51,1.84,3.57,3.57,0,0,1-.32,1.5,3.53,3.53,0,0,1-.86,1.19,4.12,4.12,0,0,1-1.32.78,4.76,4.76,0,0,1-1.67.29,4.67,4.67,0,0,1-1.62-.27,3.65,3.65,0,0,1-1.26-.77,3.45,3.45,0,0,1-.82-1.24,4.87,4.87,0,0,1-.34-1.63h1.46a2.66,2.66,0,0,0,.73,1.86,2.41,2.41,0,0,0,1.81.7,3.5,3.5,0,0,0,1.11-.17,2.68,2.68,0,0,0,.86-.49,2.09,2.09,0,0,0,.55-.76,2.38,2.38,0,0,0,.19-1,2.09,2.09,0,0,0-.72-1.69,3,3,0,0,0-2-.61h-1.24V99.36h1.22a2.51,2.51,0,0,0,1.7-.53,2,2,0,0,0,.6-1.55,1.94,1.94,0,0,0-.59-1.5,2.33,2.33,0,0,0-1.66-.55,2.52,2.52,0,0,0-1.71.57,2,2,0,0,0-.7,1.52h-1.44a3.22,3.22,0,0,1,.33-1.38,3.71,3.71,0,0,1,.83-1.09,4,4,0,0,1,1.22-.71,4.39,4.39,0,0,1,1.53-.25,4.55,4.55,0,0,1,1.51.24,3.4,3.4,0,0,1,1.16.67,3.06,3.06,0,0,1,.75,1,3.49,3.49,0,0,1,.26,1.35,3.32,3.32,0,0,1-.39,1.64A3.06,3.06,0,0,1,778.13,100Z"/></g><g class="cls-7"><path class="cls-2" d="M488.75,350.73a4.29,4.29,0,0,1-3-1,3.94,3.94,0,0,1-1.23-2.83H486a2.72,2.72,0,0,0,.83,1.88,2.67,2.67,0,0,0,1.93.72,3,3,0,0,0,1.94-.58,1.88,1.88,0,0,0,.72-1.56,1.77,1.77,0,0,0-.42-1.24,4,4,0,0,0-1.43-.86l-1.79-.69a4.69,4.69,0,0,1-2.08-1.37,3.24,3.24,0,0,1-.64-2.07,3,3,0,0,1,.27-1.29,3.08,3.08,0,0,1,.78-1,3.62,3.62,0,0,1,1.2-.64,4.7,4.7,0,0,1,1.54-.23,4,4,0,0,1,2.75.9,3.5,3.5,0,0,1,1.12,2.51h-1.45a2.27,2.27,0,0,0-.69-1.57,2.47,2.47,0,0,0-1.73-.57,2.64,2.64,0,0,0-1.69.51,1.63,1.63,0,0,0-.65,1.35,2,2,0,0,0,.44,1.33,3.61,3.61,0,0,0,1.44.92l1.83.7a4.72,4.72,0,0,1,2,1.3,3,3,0,0,1,.62,2,3.52,3.52,0,0,1-.28,1.44,3.08,3.08,0,0,1-.82,1.1,3.8,3.8,0,0,1-1.29.69A5.63,5.63,0,0,1,488.75,350.73Z"/><path class="cls-2" d="M495.46,338.12h7.15v1.31H496.9v4h5.53v1.31H496.9v4.52h5.91v1.31h-7.35Z"/><path class="cls-2" d="M511,350.73a6.48,6.48,0,0,1-2.55-.49,6.17,6.17,0,0,1-2-1.35,6.1,6.1,0,0,1-1.34-2,6.49,6.49,0,0,1-.49-2.56,6.41,6.41,0,0,1,.49-2.53,6,6,0,0,1,3.38-3.37,6.5,6.5,0,0,1,2.54-.49,7,7,0,0,1,2.18.33,5.77,5.77,0,0,1,1.79.94,5.3,5.3,0,0,1,1.32,1.47,5.54,5.54,0,0,1,.74,1.9h-1.55a4.42,4.42,0,0,0-.61-1.36,4.22,4.22,0,0,0-1-1,4.63,4.63,0,0,0-1.31-.67,5.3,5.3,0,0,0-1.56-.23,4.85,4.85,0,0,0-1.95.39,4.92,4.92,0,0,0-1.57,1.07,5,5,0,0,0-1,1.6,5.45,5.45,0,0,0,0,4,5,5,0,0,0,1,1.61A4.73,4.73,0,0,0,509.1,349a4.85,4.85,0,0,0,1.95.39,4.68,4.68,0,0,0,2.86-.89,4.31,4.31,0,0,0,1.6-2.43h1.55a5.65,5.65,0,0,1-.74,1.92,5.34,5.34,0,0,1-1.32,1.48,6.23,6.23,0,0,1-1.79.94A7,7,0,0,1,511,350.73Z"/><path class="cls-2" d="M522,339.43h-3.67v-1.31h8.89v1.31h-3.78v11.1H522Z"/><path class="cls-2" d="M534.65,350.73a6.46,6.46,0,0,1-2.54-.49,6.34,6.34,0,0,1-2-1.36,6.17,6.17,0,0,1-1.35-2,6.8,6.8,0,0,1,0-5.07,6,6,0,0,1,1.35-2,6.14,6.14,0,0,1,2-1.34,6.55,6.55,0,0,1,2.55-.49,6.45,6.45,0,0,1,2.53.49,6.06,6.06,0,0,1,3.37,3.37,6.8,6.8,0,0,1,0,5.07,6.18,6.18,0,0,1-3.37,3.39A6.45,6.45,0,0,1,534.65,350.73Zm0-1.35a4.93,4.93,0,0,0,3.52-1.45,5,5,0,0,0,1-1.62,5.54,5.54,0,0,0,.37-2,5.16,5.16,0,0,0-1.41-3.59,4.69,4.69,0,0,0-1.56-1.06,5.22,5.22,0,0,0-3.91,0,4.69,4.69,0,0,0-1.56,1.06,5.16,5.16,0,0,0-1.41,3.59,5.54,5.54,0,0,0,.37,2,5,5,0,0,0,1,1.62,4.84,4.84,0,0,0,1.57,1.06A4.9,4.9,0,0,0,534.65,349.38Z"/><path class="cls-2" d="M543.75,338.12h3.85a4,4,0,0,1,2.87,1,3.44,3.44,0,0,1,1,2.64,3.67,3.67,0,0,1-.73,2.34,3.51,3.51,0,0,1-2,1.24l3.52,5.22h-1.71l-3.37-5.09h-2v5.09h-1.44Zm3.76,6a2.53,2.53,0,0,0,1.82-.62,2.58,2.58,0,0,0,0-3.45,2.56,2.56,0,0,0-1.84-.61h-2.34v4.68Z"/><path class="cls-2" d="M562.59,338.12v12.41h-1.44V339.6l-2.36.73-.35-1.25,2.91-1Z"/></g><g class="cls-7"><path class="cls-2" d="M256.29,268.84a4.29,4.29,0,0,1-3-1,3.94,3.94,0,0,1-1.23-2.83h1.46a2.72,2.72,0,0,0,.83,1.88,2.68,2.68,0,0,0,1.93.72,3,3,0,0,0,1.94-.58,1.88,1.88,0,0,0,.72-1.56,1.77,1.77,0,0,0-.42-1.24,3.87,3.87,0,0,0-1.43-.86l-1.78-.69a4.67,4.67,0,0,1-2.09-1.37,3.26,3.26,0,0,1-.64-2.07,3,3,0,0,1,.27-1.29,3,3,0,0,1,.78-1,3.62,3.62,0,0,1,1.2-.64,4.7,4.7,0,0,1,1.54-.23,4,4,0,0,1,2.75.9,3.54,3.54,0,0,1,1.13,2.51h-1.46a2.27,2.27,0,0,0-.69-1.57,2.46,2.46,0,0,0-1.73-.57,2.64,2.64,0,0,0-1.69.51,1.63,1.63,0,0,0-.65,1.35,2,2,0,0,0,.44,1.33,3.69,3.69,0,0,0,1.44.92l1.83.7a4.82,4.82,0,0,1,2,1.3,3,3,0,0,1,.61,2,3.52,3.52,0,0,1-.28,1.44,3.08,3.08,0,0,1-.82,1.1,3.8,3.8,0,0,1-1.29.69A5.63,5.63,0,0,1,256.29,268.84Z"/><path class="cls-2" d="M263,256.23h7.15v1.31h-5.71v4H270v1.31h-5.53v4.52h5.91v1.3H263Z"/><path class="cls-2" d="M278.57,268.84a6.66,6.66,0,0,1-2.55-.49,6.44,6.44,0,0,1-2-1.35,6.1,6.1,0,0,1-1.34-2,6.52,6.52,0,0,1-.49-2.56,6.41,6.41,0,0,1,.49-2.53,6,6,0,0,1,3.38-3.37,6.53,6.53,0,0,1,2.54-.49,7,7,0,0,1,2.18.33,5.82,5.82,0,0,1,1.8.94,5.39,5.39,0,0,1,1.31,1.46,5.47,5.47,0,0,1,.74,1.91h-1.55a4.4,4.4,0,0,0-.6-1.36,4.26,4.26,0,0,0-1-1,4.5,4.5,0,0,0-1.31-.67,5.2,5.2,0,0,0-1.56-.23,4.85,4.85,0,0,0-1.95.39,4.76,4.76,0,0,0-1.57,1.07,5,5,0,0,0-1,1.6,5.45,5.45,0,0,0,0,4,5,5,0,0,0,1,1.61,4.73,4.73,0,0,0,1.57,1.06,4.85,4.85,0,0,0,1.95.39,4.68,4.68,0,0,0,2.86-.89,4.31,4.31,0,0,0,1.6-2.43h1.55a5.69,5.69,0,0,1-2.05,3.4,6.28,6.28,0,0,1-1.8.94A7,7,0,0,1,278.57,268.84Z"/><path class="cls-2" d="M289.52,257.54h-3.67v-1.31h8.89v1.31H291v11.09h-1.44Z"/><path class="cls-2" d="M302.19,268.84a6.64,6.64,0,0,1-2.54-.49,6.22,6.22,0,0,1-3.39-3.39,6.8,6.8,0,0,1,0-5.07,6.12,6.12,0,0,1,3.38-3.37,6.55,6.55,0,0,1,2.55-.49,6.41,6.41,0,0,1,2.53.49,6.06,6.06,0,0,1,3.37,3.37,6.8,6.8,0,0,1,0,5.07,6.18,6.18,0,0,1-3.37,3.39A6.59,6.59,0,0,1,302.19,268.84Zm0-1.35a4.93,4.93,0,0,0,3.52-1.45,5,5,0,0,0,1-1.62,5.54,5.54,0,0,0,.37-2,5.16,5.16,0,0,0-1.41-3.59,4.69,4.69,0,0,0-1.56-1.06,5.22,5.22,0,0,0-3.91,0,4.69,4.69,0,0,0-1.56,1.06,5.16,5.16,0,0,0-1.41,3.59,5.54,5.54,0,0,0,.37,2,4.9,4.9,0,0,0,1,1.62,4.69,4.69,0,0,0,1.56,1.06A4.9,4.9,0,0,0,302.19,267.49Z"/><path class="cls-2" d="M311.29,256.23h3.85a4,4,0,0,1,2.87,1,3.43,3.43,0,0,1,1,2.64,3.63,3.63,0,0,1-.73,2.33,3.53,3.53,0,0,1-2,1.25l3.53,5.21h-1.72l-3.37-5.08h-2v5.08h-1.44Zm3.76,6a2.6,2.6,0,0,0,1.83-.62,2.26,2.26,0,0,0,.66-1.74,2.22,2.22,0,0,0-.65-1.71,2.56,2.56,0,0,0-1.84-.61h-2.34v4.68Z"/><path class="cls-2" d="M334.57,267.33v1.3H326.5v-.73a4.21,4.21,0,0,1,.32-1.71,5.06,5.06,0,0,1,.82-1.32,6.23,6.23,0,0,1,1.1-1c.4-.29.77-.54,1.13-.76.54-.34,1-.62,1.38-.87a5.91,5.91,0,0,0,.93-.73,2.37,2.37,0,0,0,.53-.77,2.63,2.63,0,0,0,.16-1,2.29,2.29,0,0,0-.66-1.79,2.53,2.53,0,0,0-3.38.12,2.62,2.62,0,0,0-.67,1.87h-1.48a4.39,4.39,0,0,1,.29-1.61,3.61,3.61,0,0,1,.79-1.24,3.45,3.45,0,0,1,1.23-.8,4.84,4.84,0,0,1,3.13,0,3.24,3.24,0,0,1,1.2.72,3.32,3.32,0,0,1,.77,1.16,4,4,0,0,1,.28,1.54,3.78,3.78,0,0,1-.25,1.41,3.61,3.61,0,0,1-.71,1.08,6.69,6.69,0,0,1-1.09.92L331,264c-.43.27-.82.53-1.15.77a6.79,6.79,0,0,0-.88.76,3.51,3.51,0,0,0-.6.82,3.29,3.29,0,0,0-.32,1Z"/></g><path class="cls-2" d="M63.2,484.2a32.25,32.25,0,0,1-10-15c-2.61-7.72-1.94-14.62,2-20.5,10-14.88,37.76-16.87,38.93-16.95C122.29,430,199,423.82,215.05,416.21c19.07-9,25-12.7,34.28-37,10.21-26.72,35.72-43.54,83.7-73.39,47.76-29.7,96.67-62.51,97.15-62.84l.83-.56,1.29-.73c2.56-2.22,9.65-12.06-6.48-45.55-18.09-37.55-18.45-48.25-16.41-53.76l.32-1.52c.45-6.87,4.36-16.8,33-23.64,32.13-7.67,166.59-24,172.3-24.71l.68-.13c3.74-1,18.73-2.55,54.45,16.68,39.19,21.1,153.58,79.17,154.71,79.74,7.09,3.72,18.43,4.7,28.22-4.16,18.55-16.78,36.35-6.89,45.92-1.58.73.41,2.25,1.17,4,2.05,11.07,5.48,27,13.84,39.3,23.9,12.87,10.55,19.5,20.91,20.25,31.66.86,12.34-6.57,24-22.09,34.59l-.88.6-309.87,35.3-80-1.28-.4-.08c-4.24-.9-14.77-3.53-21.25-8.84h0a14,14,0,0,1-4.35-5.53,10.23,10.23,0,0,1,1.44-9.89c8.78-12.57,16.54-19.72,34.57-23.92l3.87-.87c18.23-4.08,35.77-9.14,40.63-18.4,1.66-3.17,1.64-6.72,0-10.89-4.68-11.54-10-19.35-17.32-25.33-7.79-6.39-17.47-10.15-26.78-13.26-3.28-1.1-6.84-2.41-10.61-3.79-19.84-7.28-38.38-13.4-47.34-8.32-2.69,1.53-4.35,4.16-5.09,8-4.6,24.27,12.07,42.37,12.24,42.55l1.51,3c.09,1.24,1.52,30-57.06,68.6-55.39,36.47-96.24,66.08-97.95,67.32-.54.43-29.49,24.39-20.07,42.5l22.74,43.76.11.35c.42,1.34,3.9,13.32-3.91,21.79-6.75,7.34-19.47,8.94-37.81,4.79-44.91-10.19-73.67-11.4-111-10.09-31.46,1.1-49.45,2.65-52.74,2.95l-.81.14L102.9,488.81c-3.53,1.13-20.09,5.9-34.11-1A28.85,28.85,0,0,1,63.2,484.2ZM616.84,100.82c-14.47,1.76-141.28,17.27-172.12,24.63-11.76,2.81-19.77,6.26-23.81,10.26a7.72,7.72,0,0,0-2.7,6,8.87,8.87,0,0,1-.19,1.8,8.24,8.24,0,0,1-.47,1.4l-.42,1.54c-.77,6.16,5,22.49,16.36,46,10.35,21.49,13.47,38.46,9,49.06a16.47,16.47,0,0,1-7.62,8.63l-.6.34c-8.51,5.7-53.19,35.47-96.75,62.57-46.38,28.86-71,45-80.25,69.2-10.08,26.41-17.69,31.83-38.59,41.71-16.64,7.87-85.79,14-124,16.35-6.92.48-26.15,3.8-32.42,13.2-2.4,3.62-2.73,7.88-1,13a23.82,23.82,0,0,0,7.3,11.11,21.2,21.2,0,0,0,4,2.56c9.82,4.84,23.25,2.06,27.59.58l.57-.16L151.29,468l.31,0c.74-.08,18.63-1.83,54-3.07,38.07-1.33,67.39-.08,113.21,10.3,10.36,2.35,23.9,3.88,29.6-2.17,3.65-3.88,2.88-10,2.38-12.44l-.49-1.4L328.25,416.7c-12.74-24.51,20.82-51.89,22.25-53.05,4.64-3.36,44.83-32.38,98.65-67.82C491,268.27,499.94,246.21,501.84,238l-1-4.49c-5-6.56-16.28-24.2-12.08-46.34,1.51-8,5.87-12,9.25-13.87,13.13-7.45,35.09.61,54.46,7.72,3.75,1.38,7.29,2.67,10.39,3.71,13.47,4.51,22.29,8.95,29.49,14.85,8.38,6.86,14.67,16,19.79,28.63,3.3,8.14,1.66,14.3-.3,18-7.35,14-30.8,19.28-46.31,22.76l-3.79.86c-14.72,3.42-21.12,9-27.8,18.08l-2,4.6,3.66,3.23a58.11,58.11,0,0,0,14.62,5.42l1.12.14,73.39,1.18,2.22-.45,34-3.08h0l274.27-31.24,2.55-1c11.09-8.05,16.61-16.37,16.4-24.72h0c0-6.47-5.62-14.8-11.14-20.61l-1.09-1.48q-2.14-2-4.68-4.11c-8.89-7.29-21.62-15.06-37.82-23.08-2.1-1-3.5-1.73-4.51-2.29-9.82-5.46-22-12.24-36.07.45A33.27,33.27,0,0,1,821,196.35c-4.92-2.51-116.59-59.23-154.87-79.84-30.6-16.48-44-16.47-47.45-16.08l-1.18.31Z"/><g class="cls-7"><path class="cls-2" d="M975.53,196.3a5,5,0,0,1-1.9-.36,4.58,4.58,0,0,1-1.51-1,4.63,4.63,0,0,1-1-1.51,5.14,5.14,0,0,1,0-3.78,4.63,4.63,0,0,1,1-1.51,4.52,4.52,0,0,1,1.52-1,4.76,4.76,0,0,1,1.89-.37,5.29,5.29,0,0,1,1.62.25,4.38,4.38,0,0,1,1.34.7,4.1,4.1,0,0,1,1,1.09,4.29,4.29,0,0,1,.55,1.42h-1.15a3.79,3.79,0,0,0-.46-1,3,3,0,0,0-.73-.77,3.06,3.06,0,0,0-1-.49,3.82,3.82,0,0,0-2.62.11,3.39,3.39,0,0,0-1.16.8,3.72,3.72,0,0,0-.78,1.19,3.82,3.82,0,0,0-.28,1.48,3.89,3.89,0,0,0,.28,1.5,3.84,3.84,0,0,0,.78,1.19,3.54,3.54,0,0,0,1.16.8,3.69,3.69,0,0,0,1.46.28,3.45,3.45,0,0,0,2.12-.66,3.23,3.23,0,0,0,1.2-1.81H980a4.26,4.26,0,0,1-.55,1.43,4.14,4.14,0,0,1-1,1.1,4.61,4.61,0,0,1-1.34.7A5.29,5.29,0,0,1,975.53,196.3Z"/><path class="cls-2" d="M985.52,196.3a4.89,4.89,0,0,1-1.89-.36,4.5,4.5,0,0,1-1.51-1,4.6,4.6,0,0,1-1-1.51,5,5,0,0,1,0-3.77,4.55,4.55,0,0,1,2.51-2.51,4.8,4.8,0,0,1,1.9-.37,4.71,4.71,0,0,1,1.88.37,4.55,4.55,0,0,1,2.51,2.51,5,5,0,0,1,0,3.77,4.58,4.58,0,0,1-1,1.51,4.5,4.5,0,0,1-1.51,1A4.88,4.88,0,0,1,985.52,196.3Zm0-1a3.56,3.56,0,0,0,2.62-1.08,3.72,3.72,0,0,0,.76-1.2,3.89,3.89,0,0,0,.28-1.5,4,4,0,0,0-.28-1.48,3.92,3.92,0,0,0-.77-1.2,3.44,3.44,0,0,0-1.16-.78,3.68,3.68,0,0,0-1.45-.29,3.73,3.73,0,0,0-1.46.29,3.44,3.44,0,0,0-1.16.78,3.72,3.72,0,0,0-.76,1.2,3.79,3.79,0,0,0-.29,1.48,4.08,4.08,0,0,0,.28,1.5,3.58,3.58,0,0,0,.77,1.2,3.64,3.64,0,0,0,1.16.8A3.72,3.72,0,0,0,985.52,195.3Z"/><path class="cls-2" d="M995.78,196.3a4.91,4.91,0,0,1-1.9-.36,4.55,4.55,0,0,1-2.51-2.51,5,5,0,0,1,0-3.78,4.55,4.55,0,0,1,2.51-2.51,4.8,4.8,0,0,1,1.9-.37,5.27,5.27,0,0,1,1.61.25,4.27,4.27,0,0,1,1.34.7,3.94,3.94,0,0,1,1,1.09,4.08,4.08,0,0,1,.55,1.42h-1.15a3.48,3.48,0,0,0-.45-1,3,3,0,0,0-.74-.77,3.06,3.06,0,0,0-1-.49,3.8,3.8,0,0,0-2.61.11,3.6,3.6,0,0,0-1.94,2,3.83,3.83,0,0,0-.29,1.48,3.89,3.89,0,0,0,.29,1.5,3.64,3.64,0,0,0,.77,1.19,3.69,3.69,0,0,0,1.17.8,3.64,3.64,0,0,0,1.45.28,3.5,3.5,0,0,0,2.13-.66,3.21,3.21,0,0,0,1.19-1.81h1.15a4.06,4.06,0,0,1-.55,1.43,4,4,0,0,1-1,1.1,4.49,4.49,0,0,1-1.34.7A5.27,5.27,0,0,1,995.78,196.3Z"/><path class="cls-2" d="M1006.54,193.81h-4.17l-.87,2.34h-1.14l3.52-9.23H1005l3.51,9.23h-1.12Zm-3.81-.95h3.47l-1.74-4.74Z"/><path class="cls-2" d="M1008.31,191.42h3.2v1h-3.2Z"/><path class="cls-2" d="M1016.92,196.3a4.89,4.89,0,0,1-1.89-.36,4.38,4.38,0,0,1-1.51-1,4.65,4.65,0,0,1-1-1.51,5.14,5.14,0,0,1,0-3.78,4.65,4.65,0,0,1,1-1.51,4.48,4.48,0,0,1,1.51-1,4.79,4.79,0,0,1,1.89-.37,5.29,5.29,0,0,1,1.62.25,4.27,4.27,0,0,1,1.34.7,3.94,3.94,0,0,1,1,1.09,4.08,4.08,0,0,1,.55,1.42h-1.15a3.26,3.26,0,0,0-.46-1,3,3,0,0,0-.73-.77,3.06,3.06,0,0,0-1-.49,3.66,3.66,0,0,0-1.16-.18,3.73,3.73,0,0,0-1.46.29,3.59,3.59,0,0,0-1.16.8,3.72,3.72,0,0,0-.78,1.19,4,4,0,0,0-.28,1.48,4.08,4.08,0,0,0,.28,1.5,3.84,3.84,0,0,0,.78,1.19,3.52,3.52,0,0,0,2.62,1.08,3.45,3.45,0,0,0,2.12-.66,3.18,3.18,0,0,0,1.2-1.81h1.15a4.06,4.06,0,0,1-.55,1.43,4,4,0,0,1-1,1.1,4.49,4.49,0,0,1-1.34.7A5.29,5.29,0,0,1,1016.92,196.3Z"/><path class="cls-2" d="M1026.91,196.3a4.89,4.89,0,0,1-1.89-.36,4.67,4.67,0,0,1-2.52-2.52,5.12,5.12,0,0,1,0-3.77,4.63,4.63,0,0,1,1-1.51,4.52,4.52,0,0,1,1.52-1,4.72,4.72,0,0,1,1.89-.37,4.67,4.67,0,0,1,1.88.37,4.38,4.38,0,0,1,1.51,1,4.48,4.48,0,0,1,1,1.51,5,5,0,0,1,0,3.77,4.58,4.58,0,0,1-1,1.51,4.4,4.4,0,0,1-1.51,1A4.84,4.84,0,0,1,1026.91,196.3Zm0-1a3.64,3.64,0,0,0,1.45-.28,3.69,3.69,0,0,0,1.17-.8,3.74,3.74,0,0,0,.77-1.2,4.08,4.08,0,0,0,.27-1.5,3.79,3.79,0,0,0-.28-1.48,3.74,3.74,0,0,0-.77-1.2,3.34,3.34,0,0,0-1.16-.78,3.77,3.77,0,0,0-2.9,0,3.34,3.34,0,0,0-1.16.78,3.74,3.74,0,0,0-.77,1.2,3.79,3.79,0,0,0-.28,1.48,4.08,4.08,0,0,0,.27,1.5,3.58,3.58,0,0,0,.77,1.2,3.69,3.69,0,0,0,1.17.8A3.64,3.64,0,0,0,1026.91,195.3Z"/><path class="cls-2" d="M1033,186.92h1.07v8.26h3.82v1H1033Z"/><path class="cls-2" d="M1044,193.81h-4.17l-.88,2.34h-1.14l3.53-9.23h1.15l3.51,9.23h-1.13Zm-3.82-.95h3.47l-1.74-4.74Z"/><path class="cls-2" d="M976.48,209.68l-4.05-4.6v4.6h-1.07v-9.23h1.07v4.06l3.84-4.06h1.31l-4.09,4.3,4.33,4.93Z"/><path class="cls-2" d="M981.85,209.83a3.82,3.82,0,0,1-1.42-.26,3.32,3.32,0,0,1-1.09-.75,3.42,3.42,0,0,1-.69-1.17,4.71,4.71,0,0,1-.24-1.55v-5.65h1.07v5.69a2.89,2.89,0,0,0,.64,2,2.16,2.16,0,0,0,1.73.73,2.21,2.21,0,0,0,1.75-.72,2.91,2.91,0,0,0,.63-2v-5.69h1.07v5.65a4.71,4.71,0,0,1-.24,1.55,3.42,3.42,0,0,1-.69,1.17,3.18,3.18,0,0,1-1.08.75A3.89,3.89,0,0,1,981.85,209.83Z"/><path class="cls-2" d="M987.11,200.45H990a3,3,0,0,1,2.14.72,2.56,2.56,0,0,1,.77,2,2.74,2.74,0,0,1-.54,1.74,2.59,2.59,0,0,1-1.5.92l2.62,3.89h-1.28l-2.51-3.79h-1.49v3.79h-1.07Zm2.8,4.45a1.89,1.89,0,0,0,1.35-.46,1.66,1.66,0,0,0,.5-1.29,1.67,1.67,0,0,0-.48-1.28,1.93,1.93,0,0,0-1.37-.45h-1.75v3.48Z"/><path class="cls-2" d="M1001,200.45l-3.32,9.23h-1.15l-3.31-9.23h1.17l2.73,7.84,2.73-7.84Z"/><path class="cls-2" d="M1002.1,200.45h5.32v1h-4.25v3h4.11v1h-4.11v3.36h4.4v1h-5.47Z"/></g><g class="cls-7"><path class="cls-2" d="M868.78,213v9.24h-1.17L863,214.68v7.51h-1.07V213h1.23l4.54,7.36V213Z"/><path class="cls-2" d="M879.14,217.65v2.46a4.18,4.18,0,0,1-1.72,1.67,5.13,5.13,0,0,1-2.39.56,5.43,5.43,0,0,1-2-.37,4.74,4.74,0,0,1-1.57-1,4.38,4.38,0,0,1-1-1.51,5,5,0,0,1-.36-1.92,4.91,4.91,0,0,1,.36-1.9,4.52,4.52,0,0,1,1-1.49,4.76,4.76,0,0,1,1.52-1,5,5,0,0,1,1.92-.36,5.17,5.17,0,0,1,1.44.2,4.37,4.37,0,0,1,1.21.58,3.79,3.79,0,0,1,.92.91,4.39,4.39,0,0,1,.59,1.21h-1.18a3,3,0,0,0-1.17-1.4,3.34,3.34,0,0,0-1.83-.49,3.7,3.7,0,0,0-1.47.28,3.45,3.45,0,0,0-1.17.77,3.55,3.55,0,0,0-.77,1.18,4.08,4.08,0,0,0-.27,1.5,4,4,0,0,0,.28,1.52,3.68,3.68,0,0,0,.79,1.21,3.5,3.5,0,0,0,1.22.78,4.45,4.45,0,0,0,3.26-.06,3.21,3.21,0,0,0,1.33-1.11v-1.26H875v-1Z"/><path class="cls-2" d="M885.89,222.19l-4-4.6v4.6h-1.07V213h1.07V217l3.84-4.06H887l-4.09,4.31,4.34,4.93Z"/><path class="cls-2" d="M864.36,235.86a3.17,3.17,0,0,1-2.24-.78,2.85,2.85,0,0,1-.91-2.1h1.08a2,2,0,0,0,.62,1.4,2,2,0,0,0,1.44.53,2.28,2.28,0,0,0,1.44-.42,1.43,1.43,0,0,0,.53-1.17,1.31,1.31,0,0,0-.31-.92,2.8,2.8,0,0,0-1.06-.64l-1.33-.51a3.49,3.49,0,0,1-1.55-1,2.42,2.42,0,0,1-.48-1.54,2.32,2.32,0,0,1,.2-1,2,2,0,0,1,.58-.75,2.63,2.63,0,0,1,.89-.48,3.51,3.51,0,0,1,1.15-.17,3,3,0,0,1,2.05.67,2.61,2.61,0,0,1,.83,1.86h-1.08a1.72,1.72,0,0,0-.51-1.16,1.81,1.81,0,0,0-1.29-.43,2,2,0,0,0-1.26.38,1.22,1.22,0,0,0-.48,1,1.48,1.48,0,0,0,.33,1,2.7,2.7,0,0,0,1.07.68l1.36.52a3.6,3.6,0,0,1,1.52,1,2.29,2.29,0,0,1,.45,1.46,2.65,2.65,0,0,1-.21,1.07,2.23,2.23,0,0,1-.61.82,2.75,2.75,0,0,1-1,.51A4.08,4.08,0,0,1,864.36,235.86Z"/><path class="cls-2" d="M872.84,235.86a4.74,4.74,0,0,1-1.9-.37,4.57,4.57,0,0,1-2.51-2.5,4.77,4.77,0,0,1-.37-1.9,4.72,4.72,0,0,1,.37-1.89,4.58,4.58,0,0,1,1-1.51,4.63,4.63,0,0,1,1.51-1,5,5,0,0,1,1.9-.36,5.27,5.27,0,0,1,1.61.24,4.49,4.49,0,0,1,1.34.7,4.14,4.14,0,0,1,1.53,2.51h-1.15A3.22,3.22,0,0,0,875,228a3.28,3.28,0,0,0-1-.49,3.66,3.66,0,0,0-1.16-.17,3.67,3.67,0,0,0-2.62,1.08,3.64,3.64,0,0,0-.77,1.19,4,4,0,0,0,0,3,3.44,3.44,0,0,0,.77,1.19,3.53,3.53,0,0,0,1.17.8,3.64,3.64,0,0,0,1.45.29,3.45,3.45,0,0,0,2.13-.67,3.19,3.19,0,0,0,1.19-1.8h1.15a4.13,4.13,0,0,1-.55,1.43,4.08,4.08,0,0,1-1,1.09,4.27,4.27,0,0,1-1.34.7A5,5,0,0,1,872.84,235.86Z"/><path class="cls-2" d="M878.65,226.48h1.07v3.8h4.7v-3.8h1.07v9.23h-1.07v-4.46h-4.7v4.46h-1.07Z"/><path class="cls-2" d="M887.4,226.48h1.07v9.23H887.4Z"/><path class="cls-2" d="M895.49,235.71l-4-4.6v4.6h-1.07v-9.23h1.07v4.06l3.84-4.06h1.3l-4.09,4.3,4.34,4.93Z"/><path class="cls-2" d="M902.91,233.36h-4.17l-.87,2.35h-1.14l3.52-9.23h1.15l3.52,9.23h-1.13Zm-3.81-.94h3.47l-1.74-4.75Z"/><path class="cls-2" d="M912.87,226.48v9.23h-1.16l-4.63-7.5v7.5H906v-9.23h1.24l4.54,7.35v-7.35Z"/><path class="cls-2" d="M914.78,226.48h5.32v1h-4.25v3H920v1h-4.11v3.36h4.4v1h-5.47Z"/></g><g class="cls-7"><path class="cls-2" d="M621.31,196.3a4.91,4.91,0,0,1-1.9-.36,4.55,4.55,0,0,1-2.51-2.51,5,5,0,0,1,0-3.78,4.55,4.55,0,0,1,2.51-2.51,4.8,4.8,0,0,1,1.9-.37,5.27,5.27,0,0,1,1.61.25,4.27,4.27,0,0,1,1.34.7,3.94,3.94,0,0,1,1,1.09,4.08,4.08,0,0,1,.55,1.42h-1.15a3.48,3.48,0,0,0-.45-1,3,3,0,0,0-.74-.77,3,3,0,0,0-1-.49,3.8,3.8,0,0,0-2.61.11,3.6,3.6,0,0,0-1.94,2,3.83,3.83,0,0,0-.29,1.48,3.89,3.89,0,0,0,.29,1.5,3.64,3.64,0,0,0,.77,1.19,3.69,3.69,0,0,0,1.17.8,3.64,3.64,0,0,0,1.45.28,3.5,3.5,0,0,0,2.13-.66,3.21,3.21,0,0,0,1.19-1.81h1.15a4.06,4.06,0,0,1-.55,1.43,4,4,0,0,1-1,1.1,4.49,4.49,0,0,1-1.34.7A5.27,5.27,0,0,1,621.31,196.3Z"/><path class="cls-2" d="M632.07,193.81H627.9l-.87,2.34h-1.14l3.52-9.23h1.15l3.52,9.23H633Zm-3.81-.95h3.47L630,188.12Z"/><path class="cls-2" d="M637.48,196.3a3.19,3.19,0,0,1-2.25-.77,3,3,0,0,1-.91-2.11h1.09a2,2,0,0,0,2.05,1.94,2.19,2.19,0,0,0,1.44-.43,1.39,1.39,0,0,0,.54-1.16,1.35,1.35,0,0,0-.31-.92,3,3,0,0,0-1.06-.65l-1.33-.5a3.53,3.53,0,0,1-1.55-1,2.4,2.4,0,0,1-.48-1.54,2.17,2.17,0,0,1,.2-1,2.23,2.23,0,0,1,.58-.75,2.8,2.8,0,0,1,.89-.48,3.8,3.8,0,0,1,1.15-.17,3,3,0,0,1,2.05.68,2.58,2.58,0,0,1,.83,1.86h-1.08a1.72,1.72,0,0,0-.52-1.17,1.81,1.81,0,0,0-1.28-.42,1.93,1.93,0,0,0-1.26.38,1.2,1.2,0,0,0-.48,1,1.49,1.49,0,0,0,.32,1,2.72,2.72,0,0,0,1.08.69l1.36.52a3.4,3.4,0,0,1,1.51,1,2.22,2.22,0,0,1,.46,1.46,2.65,2.65,0,0,1-.21,1.07,2.23,2.23,0,0,1-.61.81,2.78,2.78,0,0,1-1,.52A4.52,4.52,0,0,1,637.48,196.3Z"/><path class="cls-2" d="M643.44,187.9h-2.73v-1h6.61v1h-2.81v8.25h-1.07Z"/><path class="cls-2" d="M648.43,186.92h2.87a3,3,0,0,1,2.13.72,2.55,2.55,0,0,1,.78,2,2.74,2.74,0,0,1-.54,1.74,2.59,2.59,0,0,1-1.5.92l2.62,3.88h-1.28L651,192.37h-1.5v3.78h-1.07Zm2.8,4.46a1.9,1.9,0,0,0,1.36-.46,1.94,1.94,0,0,0,0-2.57,1.92,1.92,0,0,0-1.37-.45h-1.74v3.48Z"/><path class="cls-2" d="M659.92,196.3a4.89,4.89,0,0,1-1.89-.36,4.65,4.65,0,0,1-1.52-1,4.76,4.76,0,0,1-1-1.51,5.12,5.12,0,0,1,0-3.77,4.65,4.65,0,0,1,1-1.51,4.48,4.48,0,0,1,1.51-1,4.8,4.8,0,0,1,1.9-.37,4.71,4.71,0,0,1,1.88.37,4.58,4.58,0,0,1,1.51,1,4.63,4.63,0,0,1,1,1.51,5.12,5.12,0,0,1,0,3.77,4.74,4.74,0,0,1-1,1.51,4.6,4.6,0,0,1-1.51,1A4.88,4.88,0,0,1,659.92,196.3Zm0-1a3.67,3.67,0,0,0,1.45-.28,3.54,3.54,0,0,0,1.16-.8,3.58,3.58,0,0,0,.77-1.2,3.89,3.89,0,0,0,.28-1.5,4,4,0,0,0-.28-1.48,3.92,3.92,0,0,0-.77-1.2,3.44,3.44,0,0,0-1.16-.78,3.8,3.8,0,0,0-2.91,0,3.44,3.44,0,0,0-1.16.78,3.92,3.92,0,0,0-.77,1.2,4,4,0,0,0-.28,1.48,3.89,3.89,0,0,0,.28,1.5,3.55,3.55,0,0,0,3.39,2.28Z"/><path class="cls-2" d="M666,186.92h1.07v8.26h3.83v1H666Z"/><path class="cls-2" d="M670.64,191.42h3.2v1h-3.2Z"/><path class="cls-2" d="M677.53,196.3a3.19,3.19,0,0,1-2.25-.77,3,3,0,0,1-.91-2.11h1.08a2.05,2.05,0,0,0,.62,1.4,2,2,0,0,0,1.44.54,2.19,2.19,0,0,0,1.44-.43,1.39,1.39,0,0,0,.54-1.16,1.35,1.35,0,0,0-.31-.92,3,3,0,0,0-1.06-.65l-1.33-.5a3.47,3.47,0,0,1-1.55-1,2.41,2.41,0,0,1-.49-1.54,2.18,2.18,0,0,1,.21-1,2.23,2.23,0,0,1,.58-.75,2.8,2.8,0,0,1,.89-.48,3.8,3.8,0,0,1,1.15-.17,2.94,2.94,0,0,1,2,.68,2.55,2.55,0,0,1,.84,1.86h-1.08a1.72,1.72,0,0,0-.52-1.17,1.81,1.81,0,0,0-1.28-.42,1.93,1.93,0,0,0-1.26.38,1.2,1.2,0,0,0-.48,1,1.49,1.49,0,0,0,.32,1,2.65,2.65,0,0,0,1.08.69l1.36.52a3.46,3.46,0,0,1,1.51,1,2.22,2.22,0,0,1,.46,1.46,2.65,2.65,0,0,1-.21,1.07,2.23,2.23,0,0,1-.61.81,2.78,2.78,0,0,1-1,.52A4.52,4.52,0,0,1,677.53,196.3Z"/></g><g class="cls-7"><path class="cls-2" d="M285,430.83h5.25v1h-4.18V435h4.06v1h-4.06v4.09H285Z"/><path class="cls-2" d="M295.54,440.21a4.72,4.72,0,0,1-1.89-.37,4.5,4.5,0,0,1-2.52-2.52,5,5,0,0,1,0-3.77,4.58,4.58,0,0,1,1-1.51,4.63,4.63,0,0,1,1.51-1,5,5,0,0,1,1.9-.36,4.88,4.88,0,0,1,1.88.36,4.63,4.63,0,0,1,1.51,1,4.58,4.58,0,0,1,1,1.51,5.12,5.12,0,0,1,0,3.77,4.62,4.62,0,0,1-1,1.52,4.48,4.48,0,0,1-1.51,1A4.71,4.71,0,0,1,295.54,440.21Zm0-1a3.68,3.68,0,0,0,1.45-.29,3.53,3.53,0,0,0,1.17-.8,3.61,3.61,0,0,0,.76-1.2,3.89,3.89,0,0,0,.28-1.5,4,4,0,0,0-.28-1.48,3.87,3.87,0,0,0-.77-1.19A3.46,3.46,0,0,0,297,432a3.92,3.92,0,0,0-2.91,0,3.46,3.46,0,0,0-1.16.79,3.67,3.67,0,0,0-.76,1.19,3.83,3.83,0,0,0-.29,1.48,4.08,4.08,0,0,0,.28,1.5,3.6,3.6,0,0,0,1.93,2A3.69,3.69,0,0,0,295.54,439.21Z"/><path class="cls-2" d="M301.62,430.83h2.87a3,3,0,0,1,2.13.72,2.54,2.54,0,0,1,.78,2,2.73,2.73,0,0,1-.54,1.73,2.65,2.65,0,0,1-1.5.93l2.62,3.88H306.7l-2.51-3.79h-1.5v3.79h-1.07Zm2.8,4.45a1.9,1.9,0,0,0,1.36-.46,1.65,1.65,0,0,0,.49-1.29,1.69,1.69,0,0,0-.48-1.28,1.92,1.92,0,0,0-1.37-.45h-1.74v3.48Z"/><path class="cls-2" d="M309.07,430.83h2.81a6.26,6.26,0,0,1,2.08.33,4.64,4.64,0,0,1,1.59.93,4.18,4.18,0,0,1,1,1.45,5.12,5.12,0,0,1,0,3.77,4.25,4.25,0,0,1-1,1.47,4.7,4.7,0,0,1-1.6.94,5.9,5.9,0,0,1-2.06.34h-2.81Zm2.81,8.25a4.61,4.61,0,0,0,1.61-.26,3.64,3.64,0,0,0,1.25-.74,3.49,3.49,0,0,0,.8-1.16,3.82,3.82,0,0,0,.28-1.5,3.77,3.77,0,0,0-.28-1.49,3.27,3.27,0,0,0-.8-1.14,3.7,3.7,0,0,0-1.24-.73,4.83,4.83,0,0,0-1.62-.26h-1.74v7.28Z"/><path class="cls-2" d="M290.13,453.58l-4-4.59v4.59H285v-9.23h1.07v4.06l3.84-4.06h1.3l-4.09,4.31,4.34,4.92Z"/><path class="cls-2" d="M295.51,453.73a3.78,3.78,0,0,1-1.42-.26,2.88,2.88,0,0,1-1.09-.75,3.24,3.24,0,0,1-.69-1.17,4.67,4.67,0,0,1-.24-1.55v-5.65h1.07V450a2.94,2.94,0,0,0,.63,2,2.44,2.44,0,0,0,3.48,0,2.94,2.94,0,0,0,.63-2v-5.69H299V450a4.67,4.67,0,0,1-.24,1.55,3.24,3.24,0,0,1-.69,1.17,2.77,2.77,0,0,1-1.08.75A3.8,3.8,0,0,1,295.51,453.73Z"/><path class="cls-2" d="M300.76,444.35h2.87a3,3,0,0,1,2.13.72,2.55,2.55,0,0,1,.78,2,2.73,2.73,0,0,1-.55,1.73,2.65,2.65,0,0,1-1.5.93l2.62,3.88h-1.27l-2.51-3.79h-1.5v3.79h-1.07Zm2.8,4.46a1.94,1.94,0,0,0,1.36-.46,1.69,1.69,0,0,0,.49-1.3,1.65,1.65,0,0,0-.48-1.27,1.89,1.89,0,0,0-1.37-.46h-1.74v3.49Z"/><path class="cls-2" d="M314.66,444.35l-3.32,9.23h-1.16l-3.3-9.23H308l2.73,7.85,2.73-7.85Z"/><path class="cls-2" d="M315.75,444.35h5.32v1h-4.25v2.95h4.12v1h-4.12v3.36h4.4v1h-5.47Z"/></g><g class="cls-7"><path class="cls-2" d="M12.67,411.7h2.81a6.16,6.16,0,0,1,2.07.33,4.64,4.64,0,0,1,1.59.93,4.15,4.15,0,0,1,1,1.45,4.74,4.74,0,0,1,.36,1.88,4.84,4.84,0,0,1-.36,1.9,4.17,4.17,0,0,1-1,1.46,4.46,4.46,0,0,1-1.6.94,5.84,5.84,0,0,1-2.05.34H12.67ZM15.48,420a4.79,4.79,0,0,0,1.6-.26,3.72,3.72,0,0,0,1.25-.75,3.35,3.35,0,0,0,.8-1.16,3.82,3.82,0,0,0,.28-1.5,3.72,3.72,0,0,0-.28-1.48,3.2,3.2,0,0,0-.79-1.14,3.75,3.75,0,0,0-1.24-.74,4.91,4.91,0,0,0-1.62-.26H13.73V420Z"/><path class="cls-2" d="M25.16,421.08a3.82,3.82,0,0,1-1.42-.26,2.88,2.88,0,0,1-1.09-.75A3.24,3.24,0,0,1,22,418.9a4.67,4.67,0,0,1-.24-1.55V411.7h1.07v5.69a2.94,2.94,0,0,0,.63,2,2.44,2.44,0,0,0,3.48,0,2.94,2.94,0,0,0,.63-2V411.7H28.6v5.65a4.67,4.67,0,0,1-.24,1.55,3.37,3.37,0,0,1-.68,1.17,2.88,2.88,0,0,1-1.09.75A3.8,3.8,0,0,1,25.16,421.08Z"/><path class="cls-2" d="M37.27,411.7v9.23H36.1l-4.62-7.5v7.5H30.41V411.7h1.24l4.54,7.35V411.7Z"/><path class="cls-2" d="M39.18,411.7h1.07V420h3.82v1H39.18Z"/><path class="cls-2" d="M48.81,421.08a4.89,4.89,0,0,1-1.89-.36,4.65,4.65,0,0,1-1.52-1,4.52,4.52,0,0,1-1-1.52,4.67,4.67,0,0,1-.37-1.88,4.72,4.72,0,0,1,.37-1.89,4.58,4.58,0,0,1,1-1.51,4.79,4.79,0,0,1,1.51-1,5,5,0,0,1,1.9-.36,4.74,4.74,0,0,1,3.39,1.36,4.74,4.74,0,0,1,1,1.51,4.89,4.89,0,0,1,.36,1.89,4.84,4.84,0,0,1-.36,1.88,4.67,4.67,0,0,1-1,1.52,4.6,4.6,0,0,1-1.51,1A4.88,4.88,0,0,1,48.81,421.08Zm0-1a3.68,3.68,0,0,0,1.45-.29,3.51,3.51,0,0,0,1.16-.79,3.58,3.58,0,0,0,.77-1.2,4,4,0,0,0,.28-1.51,3.8,3.8,0,0,0-1-2.67,3.46,3.46,0,0,0-1.16-.79,3.92,3.92,0,0,0-2.91,0,3.46,3.46,0,0,0-1.16.79,4,4,0,0,0-.77,4.18,3.58,3.58,0,0,0,.77,1.2,3.51,3.51,0,0,0,1.16.79A3.69,3.69,0,0,0,48.81,420.08Z"/><path class="cls-2" d="M54.89,411.7h2.87a3,3,0,0,1,2.13.72,2.55,2.55,0,0,1,.78,2,3,3,0,0,1-.21,1.14,2.38,2.38,0,0,1-.58.87A2.61,2.61,0,0,1,59,417a3.53,3.53,0,0,1-1.21.2H56v3.78H54.89Zm2.8,4.46a1.94,1.94,0,0,0,1.36-.46,1.69,1.69,0,0,0,.49-1.3,1.65,1.65,0,0,0-.48-1.27,1.88,1.88,0,0,0-1.37-.46H56v3.49Z"/><path class="cls-2" d="M17.78,434.45l-4.05-4.59v4.59H12.67v-9.23h1.06v4.06l3.85-4.06h1.3l-4.09,4.31,4.33,4.92Z"/><path class="cls-2" d="M19.84,425.22h5.32v1H20.91v2.95H25v1H20.91v3.36h4.4v1H19.84Z"/><path class="cls-2" d="M26.57,425.22h1.07V429h4.71v-3.8h1.07v9.23H32.35V430H27.64v4.45H26.57Z"/><path class="cls-2" d="M35.32,425.22h2.87a3,3,0,0,1,2.13.72,2.55,2.55,0,0,1,.78,2,2.7,2.7,0,0,1-.55,1.74,2.59,2.59,0,0,1-1.5.92l2.62,3.88H40.4l-2.51-3.78h-1.5v3.78H35.32Zm2.8,4.46a1.9,1.9,0,0,0,1.36-.46,1.69,1.69,0,0,0,.49-1.3,1.67,1.67,0,0,0-.48-1.27,1.93,1.93,0,0,0-1.37-.45H36.38v3.48Z"/><path class="cls-2" d="M42.77,425.22h5.32v1H43.84v2.95H48v1H43.84v3.36h4.4v1H42.77Z"/></g><g class="cls-7"><path class="cls-2" d="M354.42,217.1h2.87a3,3,0,0,1,2.13.72,2.56,2.56,0,0,1,.77,2,2.74,2.74,0,0,1-.54,1.74,2.65,2.65,0,0,1-1.5.93l2.62,3.88h-1.28L357,222.54h-1.49v3.79h-1.07Zm2.8,4.45a1.87,1.87,0,0,0,1.35-.46,1.66,1.66,0,0,0,.5-1.29,1.67,1.67,0,0,0-.48-1.28,1.93,1.93,0,0,0-1.37-.45h-1.75v3.48Z"/><path class="cls-2" d="M363.43,218.07H360.7v-1h6.61v1H364.5v8.26h-1.07Z"/><path class="cls-2" d="M368.42,217.1h1.07v8.25h3.83v1h-4.9Z"/><path class="cls-2" d="M359.53,239.85l-4-4.6v4.6h-1.07v-9.23h1.07v4.06l3.84-4.06h1.3l-4.09,4.31,4.34,4.92Z"/><path class="cls-2" d="M364.91,240a3.82,3.82,0,0,1-1.42-.26,3,3,0,0,1-1.09-.75,3.24,3.24,0,0,1-.69-1.17,4.67,4.67,0,0,1-.24-1.55v-5.65h1.07v5.69a2.89,2.89,0,0,0,.64,2,2.17,2.17,0,0,0,1.73.74,2.19,2.19,0,0,0,1.74-.72,2.94,2.94,0,0,0,.63-2v-5.69h1.07v5.65a4.67,4.67,0,0,1-.24,1.55,3.37,3.37,0,0,1-.68,1.17,2.88,2.88,0,0,1-1.09.75A3.8,3.8,0,0,1,364.91,240Z"/><path class="cls-2" d="M370.16,230.62H373a3,3,0,0,1,2.13.72,2.55,2.55,0,0,1,.78,2,2.56,2.56,0,0,1-2.05,2.66l2.62,3.88h-1.27l-2.51-3.79h-1.5v3.79h-1.07Zm2.8,4.46a1.94,1.94,0,0,0,1.36-.46,1.69,1.69,0,0,0,.49-1.3,1.65,1.65,0,0,0-.48-1.27,1.88,1.88,0,0,0-1.37-.46h-1.74v3.49Z"/><path class="cls-2" d="M384.06,230.62l-3.32,9.23h-1.15l-3.31-9.23h1.17l2.73,7.84,2.73-7.84Z"/><path class="cls-2" d="M385.15,230.62h5.33v1h-4.26v2.95h4.12v1h-4.12v3.36h4.41v1h-5.48Z"/></g><g class="cls-7"><path class="cls-2" d="M388.33,89.64a2.28,2.28,0,0,1,1.07.91,2.63,2.63,0,0,1,.38,1.46,2.36,2.36,0,0,1-.81,1.9,3.41,3.41,0,0,1-2.23.68h-3.46V85.36h3.32a3,3,0,0,1,2,.61,2.06,2.06,0,0,1,.72,1.67A2.17,2.17,0,0,1,388.33,89.64Zm-4-3.32v2.92h2.17a1.9,1.9,0,0,0,1.28-.39,1.36,1.36,0,0,0,.45-1.09q0-1.44-1.68-1.44Zm2.3,7.31a2.24,2.24,0,0,0,1.5-.45,1.6,1.6,0,0,0,.52-1.29,1.5,1.5,0,0,0-.55-1.24,2.42,2.42,0,0,0-1.55-.45h-2.22v3.43Z"/><path class="cls-2" d="M391.07,85.36h1.07v9.23h-1.07Z"/><path class="cls-2" d="M396,86.34h-2.73v-1h6.61v1H397v8.25H396Z"/><path class="cls-2" d="M388.4,108.12l-4-4.6v4.6h-1.07V98.88h1.07v4.06l3.84-4.06h1.3l-4.08,4.31,4.33,4.93Z"/><path class="cls-2" d="M393.77,108.27a3.82,3.82,0,0,1-1.42-.26,3.22,3.22,0,0,1-1.09-.75,3.37,3.37,0,0,1-.69-1.18,4.63,4.63,0,0,1-.24-1.55V98.88h1.07v5.7a2.89,2.89,0,0,0,.64,2,2.16,2.16,0,0,0,1.73.73,2.19,2.19,0,0,0,1.74-.72,2.92,2.92,0,0,0,.64-2v-5.7h1.06v5.65a4.91,4.91,0,0,1-.23,1.55,3.53,3.53,0,0,1-.69,1.18,3.18,3.18,0,0,1-1.08.75A3.89,3.89,0,0,1,393.77,108.27Z"/><path class="cls-2" d="M399,98.88h2.86a3,3,0,0,1,2.13.72,2.55,2.55,0,0,1,.78,2,2.74,2.74,0,0,1-.54,1.74,2.59,2.59,0,0,1-1.5.92l2.62,3.89H404.1l-2.51-3.79H400.1v3.79H399Zm2.79,4.46a1.9,1.9,0,0,0,1.36-.46,1.93,1.93,0,0,0,0-2.57,1.94,1.94,0,0,0-1.38-.45h-1.74v3.48Z"/><path class="cls-2" d="M412.92,98.88l-3.32,9.24h-1.15l-3.31-9.24h1.17l2.73,7.85,2.73-7.85Z"/><path class="cls-2" d="M414,98.88h5.32v1h-4.25v3h4.11v1h-4.11v3.36h4.4v1H414Z"/></g></g></svg>