<svg xmlns="http://www.w3.org/2000/svg" viewBox="0 0 1062.67 537.87"><defs><style>.cls-1{fill:#fff;}.cls-2{opacity:0.5;}.cls-3{fill:#010101;}.cls-4{opacity:0.8;}.cls-5{opacity:0.9;}.cls-6{opacity:0.7;}.cls-7{opacity:0.6;}</style></defs><g id="_03" data-name="03"><path class="cls-1" d="M597.65,111.65H595v-2.86h8.7v2.86h-2.87v8.13h-3.16Z"/><path class="cls-1" d="M609.79,108.79v11h-3.1v-8l-1.8.56-.7-2.63,3.08-.95Z"/><path class="cls-1" d="M268.44,68.25h-2.66V65.39h8.7v2.86H271.6v8.13h-3.16Z"/><path class="cls-1" d="M283.57,73.71v2.67h-8.2V75.25a3.75,3.75,0,0,1,.8-2.34,9,9,0,0,1,2.21-2c.4-.26.73-.48,1-.66a4.63,4.63,0,0,0,.6-.45,1.16,1.16,0,0,0,.29-.38.93.93,0,0,0,.09-.42,1,1,0,0,0-.25-.73.92.92,0,0,0-.67-.24c-.63,0-.95.42-.95,1.26h-3.08a4.12,4.12,0,0,1,1.11-3.06,4.89,4.89,0,0,1,6-.17,3.82,3.82,0,0,1,.85,3.81,3.28,3.28,0,0,1-.54,1,4.84,4.84,0,0,1-.9.83c-.36.27-.77.56-1.24.86l-.94.61a6.55,6.55,0,0,0-.71.53Z"/><path class="cls-1" d="M330.82,116.12h-2.66v-2.86h8.7v2.86H334v8.13h-3.16Z"/><path class="cls-1" d="M344.3,118.63a2.88,2.88,0,0,1,1.24,1,2.75,2.75,0,0,1,.43,1.53,3,3,0,0,1-.31,1.34,2.9,2.9,0,0,1-.85,1,3.91,3.91,0,0,1-1.32.67,5.48,5.48,0,0,1-1.67.24,4.23,4.23,0,0,1-3-1,4.08,4.08,0,0,1-1.16-2.93h2.95a1.31,1.31,0,0,0,.31.87,1.06,1.06,0,0,0,.78.31,1.21,1.21,0,0,0,.82-.27.9.9,0,0,0,.31-.73.88.88,0,0,0-.29-.69,1.26,1.26,0,0,0-.84-.26h-1.06v-2.2h1c.73,0,1.09-.3,1.09-.9a.85.85,0,0,0-.28-.67,1.13,1.13,0,0,0-.77-.24,1,1,0,0,0-1.1,1.09h-2.91a4.41,4.41,0,0,1,.36-1.57,3.53,3.53,0,0,1,.86-1.19,3.91,3.91,0,0,1,1.29-.75,5.2,5.2,0,0,1,1.68-.26,5.31,5.31,0,0,1,1.59.23,3.72,3.72,0,0,1,1.22.64,3,3,0,0,1,.79,1,3,3,0,0,1,.27,1.29A2.47,2.47,0,0,1,344.3,118.63Z"/><path class="cls-1" d="M189.63,143.71H187v-2.86h8.7v2.86H192.8v8.13h-3.17Z"/><path class="cls-1" d="M204.65,150.17h-1.21v1.67h-3.1v-1.67h-4.88v-2.4l4.58-6.92h3.4v6.76h1.21Zm-6.19-2.56h2.19v-3.46Z"/><path class="cls-1" d="M113.92,344h-2.66v-2.85H120V344h-2.87v8.13h-3.17Z"/><path class="cls-1" d="M126,344.83a3.63,3.63,0,0,1,1.42.27,3.24,3.24,0,0,1,1.12.75,3.68,3.68,0,0,1,.73,1.17,4.18,4.18,0,0,1,.26,1.48,4,4,0,0,1-.3,1.57,3.33,3.33,0,0,1-.87,1.22,3.79,3.79,0,0,1-1.34.78,5.73,5.73,0,0,1-1.77.26,4.22,4.22,0,0,1-2.93-1,3.81,3.81,0,0,1-1.18-2.77h3a1.16,1.16,0,0,0,.36.73,1.18,1.18,0,0,0,1.6-.09,1.29,1.29,0,0,0,.32-.9,1.21,1.21,0,0,0-.33-.87,1.09,1.09,0,0,0-.84-.36,1.1,1.1,0,0,0-.57.15,1.33,1.33,0,0,0-.44.41h-2.84v-6.51H129v2.66h-4.62v1.4A3.7,3.7,0,0,1,126,344.83Z"/><path class="cls-1" d="M175.79,397.19h-2.67v-2.85h8.7v2.85H179v8.13h-3.16Z"/><path class="cls-1" d="M187.13,397.63a3.55,3.55,0,0,1,1.26.43,3.62,3.62,0,0,1,1.68,2,3.93,3.93,0,0,1,.24,1.38A4,4,0,0,1,190,403a4.29,4.29,0,0,1-.91,1.3,4.13,4.13,0,0,1-1.35.87,4.33,4.33,0,0,1-1.68.32,4.38,4.38,0,0,1-1.66-.32,4.3,4.3,0,0,1-1.34-.89,4.15,4.15,0,0,1-1.15-3.7,3.9,3.9,0,0,1,.21-.73,6,6,0,0,1,.4-.81c.17-.29.38-.62.63-1l2.5-3.73h3.64Zm-1.08,5.1a1.23,1.23,0,0,0,.9-.37,1.27,1.27,0,0,0,.36-.92,1.25,1.25,0,0,0-.36-.92,1.22,1.22,0,0,0-.9-.36,1.2,1.2,0,0,0-.89.36,1.28,1.28,0,0,0-.35.92,1.3,1.3,0,0,0,.35.92A1.21,1.21,0,0,0,186.05,402.73Z"/><path class="cls-1" d="M29.6,492.32H26.94v-2.86h8.7v2.86H32.77v8.13H29.6Z"/><path class="cls-1" d="M44.32,489.46v2.6l-4,8.39H37l4.1-8.2H36.45v-2.79Z"/><path class="cls-1" d="M250.73,507.72h-2.66v-2.86h8.7v2.86h-2.88v8.12h-3.16Z"/><path class="cls-1" d="M264.73,510.1a2.8,2.8,0,0,1,1.55,2.66,3.19,3.19,0,0,1-.29,1.36,2.85,2.85,0,0,1-.85,1,4.21,4.21,0,0,1-1.36.66,6.2,6.2,0,0,1-1.79.24,5,5,0,0,1-3.14-.89,2.87,2.87,0,0,1-1.14-2.41,3.07,3.07,0,0,1,.39-1.59,2.91,2.91,0,0,1,1.15-1.07,2.71,2.71,0,0,1-1-1,2.67,2.67,0,0,1-.34-1.36,2.79,2.79,0,0,1,.28-1.27,2.69,2.69,0,0,1,.83-1,3.7,3.7,0,0,1,1.29-.63,5.84,5.84,0,0,1,1.68-.22,6,6,0,0,1,1.69.22,3.7,3.7,0,0,1,1.29.63,2.73,2.73,0,0,1,.81,1,2.91,2.91,0,0,1,0,2.63A2.71,2.71,0,0,1,264.73,510.1ZM262,513.74a1.26,1.26,0,0,0,.86-.31,1.08,1.08,0,0,0,.33-.82,1.11,1.11,0,0,0-1.17-1.17,1.22,1.22,0,0,0-.88.33,1.18,1.18,0,0,0-.33.86,1,1,0,0,0,.33.81A1.25,1.25,0,0,0,262,513.74Zm0-6.78a1.13,1.13,0,0,0-.79.29,1,1,0,0,0-.31.73,1.1,1.1,0,0,0,1.85.77,1,1,0,0,0,.31-.77,1,1,0,0,0-.3-.73A1,1,0,0,0,262,507Z"/><path class="cls-1" d="M379,515.1h-2.66v-2.85H385v2.85h-2.88v8.13H379Z"/><path class="cls-1" d="M388.92,519.93a3.48,3.48,0,0,1-1.26-.42,3.86,3.86,0,0,1-1-.83,3.78,3.78,0,0,1-.67-1.15,3.93,3.93,0,0,1-.24-1.38,3.83,3.83,0,0,1,.34-1.62,4.12,4.12,0,0,1,2.26-2.18A4.45,4.45,0,0,1,390,512a4.12,4.12,0,0,1,1.65.33,4,4,0,0,1,1.34.89,4.2,4.2,0,0,1,.89,1.33,4.12,4.12,0,0,1,.33,1.65,3.38,3.38,0,0,1-.07.72,3.81,3.81,0,0,1-.21.72,6.18,6.18,0,0,1-.4.83q-.26.43-.63,1l-2.49,3.74h-3.64Zm1.08-5.09a1.19,1.19,0,0,0-.9.37,1.25,1.25,0,0,0-.36.92A1.23,1.23,0,0,0,390,517.4a1.18,1.18,0,0,0,.89-.36,1.24,1.24,0,0,0,.35-.91,1.28,1.28,0,0,0-.35-.92A1.16,1.16,0,0,0,390,514.84Z"/><path class="cls-1" d="M422.58,407.53h-2.66v-2.85h8.7v2.85h-2.87v8.13h-3.17Z"/><path class="cls-1" d="M434.72,404.68v11h-3.1v-8l-1.79.55-.71-2.63,3.09-.94Z"/><path class="cls-1" d="M442.23,415.87a6.49,6.49,0,0,1-2.37-.42,5.68,5.68,0,0,1-1.86-1.18,5.24,5.24,0,0,1-1.21-1.81,6.21,6.21,0,0,1,0-4.59,5.14,5.14,0,0,1,1.21-1.81,5.65,5.65,0,0,1,1.86-1.17,6.75,6.75,0,0,1,4.74,0,5.65,5.65,0,0,1,1.86,1.17,5.28,5.28,0,0,1,1.21,1.81,6.21,6.21,0,0,1,0,4.59,5.38,5.38,0,0,1-1.21,1.81,5.68,5.68,0,0,1-1.86,1.18A6.49,6.49,0,0,1,442.23,415.87Zm0-2.85a2.5,2.5,0,0,0,1.07-.22,2.41,2.41,0,0,0,.84-.59,2.9,2.9,0,0,0,.56-.91,3.32,3.32,0,0,0,0-2.27,2.85,2.85,0,0,0-.56-.9,2.53,2.53,0,0,0-.85-.6,2.67,2.67,0,0,0-1.06-.21,2.7,2.7,0,0,0-1.08.21,2.43,2.43,0,0,0-.85.6,2.68,2.68,0,0,0-.56.9,3.17,3.17,0,0,0,0,2.27,2.73,2.73,0,0,0,.56.91,2.65,2.65,0,0,0,1.93.81Z"/><path class="cls-1" d="M334.81,303.29h-2.66v-2.86h8.7v2.86H338v8.12h-3.17Z"/><path class="cls-1" d="M347,300.43v11h-3.1v-8l-1.8.55-.7-2.62,3.08-.95Z"/><path class="cls-1" d="M353.7,300.43v11h-3.1v-8l-1.8.55-.7-2.62,3.08-.95Z"/><path class="cls-1" d="M407.14,231.7h-2.66v-2.85h8.7v2.85h-2.87v8.13h-3.17Z"/><path class="cls-1" d="M419.29,228.85v11h-3.1v-8l-1.8.55-.7-2.63,3.08-.94Z"/><path class="cls-1" d="M429.18,237.17v2.66H421v-1.12a3.77,3.77,0,0,1,.8-2.35,9,9,0,0,1,2.21-2l1-.65a4.56,4.56,0,0,0,.6-.46,1.14,1.14,0,0,0,.29-.37.94.94,0,0,0,.08-.43,1,1,0,0,0-.24-.72.92.92,0,0,0-.67-.24c-.63,0-.95.42-.95,1.26H421a4.1,4.1,0,0,1,1.11-3.06,4.89,4.89,0,0,1,6-.17,3.33,3.33,0,0,1,1,2.61,3.44,3.44,0,0,1-.19,1.2,3.11,3.11,0,0,1-.54,1,4.56,4.56,0,0,1-.9.84c-.36.27-.77.55-1.24.86l-.94.61a6.55,6.55,0,0,0-.71.53Z"/><path class="cls-1" d="M439.37,302.65h-2.66v-2.86h8.7v2.86h-2.87v8.13h-3.17Z"/><path class="cls-1" d="M451.51,299.79v11h-3.1v-8l-1.79.56-.71-2.63,3.09-.95Z"/><path class="cls-1" d="M459.75,305.16a2.82,2.82,0,0,1,1.24,1,2.67,2.67,0,0,1,.43,1.53,2.88,2.88,0,0,1-1.16,2.37,4.15,4.15,0,0,1-1.31.67,5.59,5.59,0,0,1-1.68.24,4.19,4.19,0,0,1-3-1,4.08,4.08,0,0,1-1.17-2.93h3a1.22,1.22,0,0,0,.31.86,1,1,0,0,0,.78.31,1.21,1.21,0,0,0,.82-.27.93.93,0,0,0,.31-.72.87.87,0,0,0-.3-.7,1.26,1.26,0,0,0-.83-.25H456.1v-2.2h1c.73,0,1.09-.3,1.09-.9a.87.87,0,0,0-.27-.67,1.15,1.15,0,0,0-.77-.24,1.06,1.06,0,0,0-.79.29,1.12,1.12,0,0,0-.32.8h-2.91a4.82,4.82,0,0,1,.36-1.57,3.67,3.67,0,0,1,.86-1.19,4,4,0,0,1,1.3-.75,5.55,5.55,0,0,1,3.26,0,3.77,3.77,0,0,1,1.23.64,3.08,3.08,0,0,1,.78,1,3,3,0,0,1,.28,1.29A2.49,2.49,0,0,1,459.75,305.16Z"/><path class="cls-1" d="M651.23,231.91h-2.66v-2.85h8.7v2.85H654.4V240h-3.17Z"/><path class="cls-1" d="M663.37,229.06v11h-3.1v-8l-1.79.55-.71-2.63,3.09-.94Z"/><path class="cls-1" d="M674.13,238.38h-1.21V240h-3.1v-1.66h-4.88V236l4.58-6.92h3.4v6.75h1.21Zm-6.19-2.57h2.19v-3.46Z"/><path class="cls-1" d="M647.91,315.46h-2.66V312.6H654v2.86h-2.88v8.13h-3.16Z"/><path class="cls-1" d="M660.05,312.6v11H657v-8l-1.8.56-.7-2.63,3.09-.95Z"/><path class="cls-1" d="M666.92,316.29a3.67,3.67,0,0,1,1.42.27,3.27,3.27,0,0,1,1.12.76,3.68,3.68,0,0,1,.73,1.17,4.14,4.14,0,0,1,.26,1.48,4,4,0,0,1-.3,1.57,3.68,3.68,0,0,1-.87,1.22,4,4,0,0,1-1.35.77,5.37,5.37,0,0,1-1.76.27,4.22,4.22,0,0,1-2.94-1,3.74,3.74,0,0,1-1.17-2.76h3a1.19,1.19,0,0,0,.37.72,1.07,1.07,0,0,0,.74.27,1.09,1.09,0,0,0,.85-.35,1.25,1.25,0,0,0,.33-.9,1.21,1.21,0,0,0-.34-.88,1.12,1.12,0,0,0-.84-.35,1.16,1.16,0,0,0-.57.15,1.32,1.32,0,0,0-.44.41H662.3V312.6h7.56v2.66h-4.62v1.41A3.71,3.71,0,0,1,666.92,316.29Z"/><path class="cls-1" d="M921.87,145.29h-2.66v-2.85h8.7v2.85H925v8.13h-3.16Z"/><path class="cls-1" d="M934,142.44v11h-3.1v-8l-1.8.55-.7-2.63,3.09-.94Z"/><path class="cls-1" d="M940.85,145.73a3.55,3.55,0,0,1,1.26.43,3.72,3.72,0,0,1,1,.83,4,4,0,0,1,.67,1.15,4.16,4.16,0,0,1,.23,1.38,4,4,0,0,1-.33,1.62,4.29,4.29,0,0,1-.91,1.3,4.13,4.13,0,0,1-1.35.87,4.33,4.33,0,0,1-1.68.32,4.38,4.38,0,0,1-1.66-.32,4.3,4.3,0,0,1-1.34-.89,4.37,4.37,0,0,1-.89-1.33,4.11,4.11,0,0,1-.32-1.65,4.2,4.2,0,0,1,.06-.72,4.84,4.84,0,0,1,.21-.73,6,6,0,0,1,.4-.81c.17-.29.38-.62.63-1l2.5-3.73H943Zm-1.08,5.1a1.23,1.23,0,0,0,.9-.37,1.27,1.27,0,0,0,.36-.92,1.25,1.25,0,0,0-.36-.92,1.22,1.22,0,0,0-.9-.36,1.2,1.2,0,0,0-.89.36,1.28,1.28,0,0,0-.35.92,1.3,1.3,0,0,0,.35.92A1.21,1.21,0,0,0,939.77,150.83Z"/><path class="cls-1" d="M997.12,91.54h-2.66V88.68h8.7v2.86h-2.88v8.13h-3.16Z"/><path class="cls-1" d="M1009.26,88.68v11h-3.1v-8l-1.8.56-.7-2.63,3.09-.95Z"/><path class="cls-1" d="M1018.74,88.68v2.6l-4,8.39h-3.38l4.1-8.19h-4.6v-2.8Z"/><path class="cls-1" d="M982.59,16.83h-2.66V14h8.7v2.86h-2.87V25h-3.17Z"/><path class="cls-1" d="M994.74,14V25h-3.1V17l-1.8.56-.7-2.63,3.08-.95Z"/><path class="cls-1" d="M1003.5,19.21a2.81,2.81,0,0,1,1.55,2.66,3.15,3.15,0,0,1-.29,1.36,2.85,2.85,0,0,1-.85,1,4.21,4.21,0,0,1-1.36.66,6.2,6.2,0,0,1-1.79.24,5,5,0,0,1-3.14-.88,2.9,2.9,0,0,1-1.14-2.42,3.07,3.07,0,0,1,.39-1.59A2.91,2.91,0,0,1,998,19.21a2.71,2.71,0,0,1-1-1,2.64,2.64,0,0,1-.34-1.36,2.69,2.69,0,0,1,1.11-2.25,4.08,4.08,0,0,1,1.29-.63,5.84,5.84,0,0,1,1.68-.22,6,6,0,0,1,1.69.22,4.08,4.08,0,0,1,1.29.63,2.82,2.82,0,0,1,.81,1,2.79,2.79,0,0,1,.29,1.27,2.74,2.74,0,0,1-.34,1.36A2.71,2.71,0,0,1,1003.5,19.21Zm-2.74,3.64a1.17,1.17,0,0,0,.85-.31,1.05,1.05,0,0,0,.34-.82,1.13,1.13,0,0,0-1.18-1.17,1.13,1.13,0,0,0-1.2,1.19,1,1,0,0,0,.33.81A1.23,1.23,0,0,0,1000.76,22.85Zm0-6.77a1.12,1.12,0,0,0-.78.28.93.93,0,0,0-.31.73,1,1,0,0,0,1.08,1.08,1,1,0,0,0,.77-.31,1,1,0,0,0,.31-.77,1,1,0,0,0-.3-.73A1,1,0,0,0,1000.77,16.08Z"/><path class="cls-1" d="M800.66,107H798v-2.85h8.7V107h-2.87v8.13h-3.17Z"/><path class="cls-1" d="M812.8,104.13v11h-3.1v-8l-1.79.55-.71-2.63,3.09-.94Z"/><path class="cls-1" d="M817.52,111.81a3.46,3.46,0,0,1-1.27-.42,4,4,0,0,1-1-.83,3.78,3.78,0,0,1-.67-1.15,3.92,3.92,0,0,1-.23-1.38,4,4,0,0,1,.33-1.62,4.21,4.21,0,0,1,2.26-2.18,4.45,4.45,0,0,1,1.68-.32,4.2,4.2,0,0,1,1.66.33,4.13,4.13,0,0,1,1.34.89,4.15,4.15,0,0,1,1.21,3,4.2,4.2,0,0,1-.06.72,6.25,6.25,0,0,1-.21.72,6.18,6.18,0,0,1-.4.83q-.25.44-.63,1l-2.5,3.74h-3.64Zm1.08-5.09a1.19,1.19,0,0,0-.9.37,1.25,1.25,0,0,0-.36.92,1.23,1.23,0,0,0,1.26,1.27,1.2,1.2,0,0,0,.89-.36,1.24,1.24,0,0,0,.35-.91,1.28,1.28,0,0,0-.35-.92A1.17,1.17,0,0,0,818.6,106.72Z"/><g class="cls-2"><path class="cls-1" d="M97,223.26a4.31,4.31,0,0,1-3-1,4,4,0,0,1-1.22-2.83H94.2a2.76,2.76,0,0,0,.83,1.88A2.71,2.71,0,0,0,97,222a3,3,0,0,0,1.93-.57,1.9,1.9,0,0,0,.72-1.57,1.77,1.77,0,0,0-.41-1.23,3.83,3.83,0,0,0-1.43-.87L96,217.07a4.72,4.72,0,0,1-2.08-1.38,3.22,3.22,0,0,1-.65-2.07,3,3,0,0,1,.28-1.29,2.83,2.83,0,0,1,.78-1,3.5,3.5,0,0,1,1.19-.65,5.09,5.09,0,0,1,1.55-.23,4,4,0,0,1,2.75.9,3.55,3.55,0,0,1,1.12,2.51H99.48a2.26,2.26,0,0,0-.7-1.57,2.43,2.43,0,0,0-1.72-.57,2.64,2.64,0,0,0-1.69.51,1.64,1.64,0,0,0-.65,1.35,2,2,0,0,0,.43,1.33,3.66,3.66,0,0,0,1.45.92l1.83.7a4.72,4.72,0,0,1,2,1.3,3,3,0,0,1,.62,2,3.53,3.53,0,0,1-.29,1.44,3,3,0,0,1-.82,1.1,3.62,3.62,0,0,1-1.29.69A5.56,5.56,0,0,1,97,223.26Z"/><path class="cls-1" d="M103.7,210.65h7.15V212h-5.72v4h5.53v1.31h-5.53v4.52h5.92v1.31H103.7Z"/><path class="cls-1" d="M119.27,223.26a6.48,6.48,0,0,1-2.55-.49,6.06,6.06,0,0,1-3.37-3.37,6.85,6.85,0,0,1,0-5.09,6.25,6.25,0,0,1,1.34-2,6.08,6.08,0,0,1,2-1.34,6.46,6.46,0,0,1,2.54-.49,7,7,0,0,1,2.18.33,6,6,0,0,1,1.79.94,5.62,5.62,0,0,1,1.32,1.47,5.54,5.54,0,0,1,.74,1.9h-1.55a4.79,4.79,0,0,0-.61-1.36,4.18,4.18,0,0,0-2.29-1.7,5,5,0,0,0-1.56-.23,4.82,4.82,0,0,0-3.52,1.45,5,5,0,0,0-1,1.61,5.19,5.19,0,0,0-.38,2,5.33,5.33,0,0,0,.38,2,5.08,5.08,0,0,0,1,1.6,4.88,4.88,0,0,0,3.52,1.46,4.62,4.62,0,0,0,2.86-.9,4.34,4.34,0,0,0,1.6-2.42h1.55a5.59,5.59,0,0,1-.74,1.91,5.51,5.51,0,0,1-1.32,1.48,6,6,0,0,1-1.79.94A7,7,0,0,1,119.27,223.26Z"/><path class="cls-1" d="M130.22,212h-3.67v-1.31h8.89V212h-3.78v11.1h-1.44Z"/><path class="cls-1" d="M142.88,223.26a6.41,6.41,0,0,1-2.53-.49,6.13,6.13,0,0,1-3.39-3.39,6.8,6.8,0,0,1,0-5.07,6.25,6.25,0,0,1,1.34-2,6.08,6.08,0,0,1,2-1.34,6.83,6.83,0,0,1,5.08,0,6.15,6.15,0,0,1,3.37,3.37,6.8,6.8,0,0,1,0,5.07,6.16,6.16,0,0,1-1.35,2,6,6,0,0,1-2,1.35A6.46,6.46,0,0,1,142.88,223.26Zm0-1.34a4.93,4.93,0,0,0,2-.39,4.84,4.84,0,0,0,2.6-2.68,5.57,5.57,0,0,0,.36-2,5.09,5.09,0,0,0-1.41-3.6,4.7,4.7,0,0,0-1.55-1.06,5.1,5.1,0,0,0-2-.37,5,5,0,0,0-1.95.37,4.84,4.84,0,0,0-1.56,1.06,5.16,5.16,0,0,0-1,1.61,5.22,5.22,0,0,0-.38,2,5.37,5.37,0,0,0,.37,2,4.76,4.76,0,0,0,2.6,2.68A4.85,4.85,0,0,0,142.88,221.92Z"/><path class="cls-1" d="M152,210.65h3.85a4.08,4.08,0,0,1,2.87,1,3.46,3.46,0,0,1,1,2.65,3.64,3.64,0,0,1-.73,2.33,3.55,3.55,0,0,1-2,1.24l3.52,5.22h-1.71L155.44,218h-2v5.09H152Zm3.76,6a2.57,2.57,0,0,0,1.82-.61,2.6,2.6,0,0,0,0-3.46,2.56,2.56,0,0,0-1.84-.61h-2.34v4.68Z"/><path class="cls-1" d="M170.83,210.65v12.41h-1.44V212.13l-2.36.74-.35-1.26,2.91-1Z"/><path class="cls-1" d="M258.26,434.67a4.3,4.3,0,0,1-3-1A4,4,0,0,1,254,430.8h1.46a2.76,2.76,0,0,0,.83,1.88,2.69,2.69,0,0,0,1.94.72,3,3,0,0,0,1.93-.58,1.88,1.88,0,0,0,.72-1.56,1.77,1.77,0,0,0-.42-1.24,3.9,3.9,0,0,0-1.42-.86l-1.79-.69a4.63,4.63,0,0,1-2.08-1.37,3.26,3.26,0,0,1-.65-2.07,2.9,2.9,0,0,1,.28-1.29,2.84,2.84,0,0,1,.77-1,3.62,3.62,0,0,1,1.2-.64,4.76,4.76,0,0,1,1.55-.23,4,4,0,0,1,2.74.9,3.54,3.54,0,0,1,1.13,2.51h-1.46a2.27,2.27,0,0,0-.69-1.57,2.45,2.45,0,0,0-1.72-.57,2.67,2.67,0,0,0-1.7.51A1.62,1.62,0,0,0,256,425a2,2,0,0,0,.43,1.33,3.66,3.66,0,0,0,1.45.92l1.82.7a4.7,4.7,0,0,1,2,1.3,3,3,0,0,1,.62,2,3.53,3.53,0,0,1-.29,1.44,3,3,0,0,1-.82,1.1,3.8,3.8,0,0,1-1.29.69A5.58,5.58,0,0,1,258.26,434.67Z"/><path class="cls-1" d="M265,422.06h7.15v1.31h-5.71v4h5.53v1.31h-5.53v4.52h5.92v1.3H265Z"/><path class="cls-1" d="M280.55,434.67a6.71,6.71,0,0,1-2.56-.49,6.12,6.12,0,0,1-2-1.35,6.28,6.28,0,0,1-1.35-2,6.71,6.71,0,0,1-.49-2.56,6.59,6.59,0,0,1,.49-2.53,6.33,6.33,0,0,1,1.35-2,6.14,6.14,0,0,1,2-1.34,6.55,6.55,0,0,1,2.55-.49,7,7,0,0,1,2.17.33,5.53,5.53,0,0,1,3.85,4.31H285a4.67,4.67,0,0,0-.61-1.36,4.08,4.08,0,0,0-1-1,4.5,4.5,0,0,0-1.31-.67,5.19,5.19,0,0,0-1.55-.23,4.84,4.84,0,0,0-3.52,1.46,5,5,0,0,0-1.05,1.6,5.59,5.59,0,0,0,0,4,5,5,0,0,0,1.05,1.61,4.69,4.69,0,0,0,1.56,1.06,4.86,4.86,0,0,0,2,.39,4.67,4.67,0,0,0,2.85-.89A4.33,4.33,0,0,0,285,430h1.54a5.56,5.56,0,0,1-2.05,3.4,6.15,6.15,0,0,1-1.8.94A7,7,0,0,1,280.55,434.67Z"/><path class="cls-1" d="M291.5,423.37h-3.67v-1.31h8.88v1.31h-3.78v11.09H291.5Z"/><path class="cls-1" d="M304.16,434.67a6.59,6.59,0,0,1-2.53-.49,6.28,6.28,0,0,1-3.4-3.39,6.93,6.93,0,0,1,0-5.07,6.33,6.33,0,0,1,1.35-2,6.08,6.08,0,0,1,2-1.34,6.8,6.8,0,0,1,5.07,0,6.14,6.14,0,0,1,2,1.34,6.33,6.33,0,0,1,1.35,2,6.8,6.8,0,0,1,0,5.07,6.33,6.33,0,0,1-1.35,2,6.19,6.19,0,0,1-2,1.36A6.59,6.59,0,0,1,304.16,434.67Zm0-1.35a4.85,4.85,0,0,0,1.95-.39,4.63,4.63,0,0,0,1.57-1.06,4.87,4.87,0,0,0,1-1.62,5.34,5.34,0,0,0,.37-2,5.26,5.26,0,0,0-.38-2,5.05,5.05,0,0,0-1-1.6,4.59,4.59,0,0,0-1.56-1.06,5.19,5.19,0,0,0-3.9,0,4.5,4.5,0,0,0-1.56,1.06,5.16,5.16,0,0,0-1.41,3.59,5.34,5.34,0,0,0,.37,2,4.87,4.87,0,0,0,1,1.62,4.63,4.63,0,0,0,1.57,1.06A4.85,4.85,0,0,0,304.16,433.32Z"/><path class="cls-1" d="M313.26,422.06h3.86a4,4,0,0,1,2.86,1,3.39,3.39,0,0,1,1,2.64,3.68,3.68,0,0,1-.72,2.33,3.51,3.51,0,0,1-2,1.25l3.52,5.21h-1.72l-3.37-5.08h-2v5.08h-1.44Zm3.76,6a2.58,2.58,0,0,0,1.83-.62,2.26,2.26,0,0,0,.66-1.74,2.22,2.22,0,0,0-.64-1.71,2.58,2.58,0,0,0-1.85-.61h-2.34v4.68Z"/><path class="cls-1" d="M336.54,433.16v1.3h-8.07v-.73a4.38,4.38,0,0,1,.32-1.71,5.34,5.34,0,0,1,.82-1.32,6.23,6.23,0,0,1,1.1-1c.4-.29.78-.54,1.13-.76.54-.34,1-.62,1.39-.87a5.91,5.91,0,0,0,.93-.73,2.23,2.23,0,0,0,.52-.77,2.63,2.63,0,0,0,.17-1,2.26,2.26,0,0,0-.67-1.79,2.33,2.33,0,0,0-1.6-.59,2.35,2.35,0,0,0-1.78.71,2.62,2.62,0,0,0-.67,1.87h-1.48a4.39,4.39,0,0,1,.29-1.61,3.76,3.76,0,0,1,.79-1.24,3.45,3.45,0,0,1,1.23-.8,4.51,4.51,0,0,1,1.6-.27,4.39,4.39,0,0,1,1.53.25,3.16,3.16,0,0,1,1.2.72,3.43,3.43,0,0,1,.78,1.17,4.09,4.09,0,0,1,.27,1.53,3.59,3.59,0,0,1-.25,1.41,3.43,3.43,0,0,1-.71,1.08,6.6,6.6,0,0,1-1.08.92c-.42.28-.88.57-1.37.88s-.81.53-1.15.77a6.79,6.79,0,0,0-.88.76,4.2,4.2,0,0,0-.6.82,3.29,3.29,0,0,0-.32,1Z"/><path class="cls-1" d="M851.1,234.8a4.31,4.31,0,0,1-3-1,4,4,0,0,1-1.22-2.83h1.45a2.76,2.76,0,0,0,.83,1.88,2.71,2.71,0,0,0,1.94.72A3,3,0,0,0,853,233a1.9,1.9,0,0,0,.72-1.57,1.77,1.77,0,0,0-.41-1.23,3.91,3.91,0,0,0-1.43-.87l-1.79-.68a4.72,4.72,0,0,1-2.08-1.38,3.22,3.22,0,0,1-.65-2.07,2.9,2.9,0,0,1,.28-1.29,2.8,2.8,0,0,1,.77-1,3.46,3.46,0,0,1,1.2-.65,5,5,0,0,1,1.55-.23,4,4,0,0,1,2.74.9A3.52,3.52,0,0,1,855,225.4h-1.46a2.29,2.29,0,0,0-.69-1.57,2.43,2.43,0,0,0-1.72-.57,2.67,2.67,0,0,0-1.7.51,1.63,1.63,0,0,0-.64,1.35,2,2,0,0,0,.43,1.33,3.66,3.66,0,0,0,1.45.92l1.82.7a4.7,4.7,0,0,1,2,1.3,3,3,0,0,1,.62,2,3.53,3.53,0,0,1-.29,1.44,3,3,0,0,1-.82,1.1,3.8,3.8,0,0,1-1.29.69A5.56,5.56,0,0,1,851.1,234.8Z"/><path class="cls-1" d="M857.8,222.19H865v1.31h-5.72v4h5.53v1.31h-5.53v4.52h5.92v1.31H857.8Z"/><path class="cls-1" d="M873.38,234.8a6.48,6.48,0,0,1-2.55-.49,6.14,6.14,0,0,1-2-1.34,6.33,6.33,0,0,1-1.35-2,6.85,6.85,0,0,1,0-5.09,6.44,6.44,0,0,1,1.35-2,6.14,6.14,0,0,1,2-1.34,6.55,6.55,0,0,1,2.55-.49,7,7,0,0,1,2.17.33,5.92,5.92,0,0,1,1.8.94,5.6,5.6,0,0,1,2.06,3.37h-1.55a4.79,4.79,0,0,0-.61-1.36,4.25,4.25,0,0,0-1-1,4.14,4.14,0,0,0-1.31-.66,4.92,4.92,0,0,0-5.07,1.22,5,5,0,0,0-1,1.61,5.18,5.18,0,0,0-.37,2,5.32,5.32,0,0,0,.37,2,5.11,5.11,0,0,0,1,1.6,4.84,4.84,0,0,0,3.52,1.46,4.62,4.62,0,0,0,2.85-.9,4.3,4.3,0,0,0,1.61-2.42h1.55a5.8,5.8,0,0,1-.74,1.91,5.68,5.68,0,0,1-1.32,1.48,5.92,5.92,0,0,1-1.8.94A7,7,0,0,1,873.38,234.8Z"/><path class="cls-1" d="M884.33,223.5h-3.67v-1.31h8.88v1.31h-3.77v11.1h-1.44Z"/><path class="cls-1" d="M897,234.8a6.41,6.41,0,0,1-2.53-.49,6.13,6.13,0,0,1-3.39-3.39,6.8,6.8,0,0,1,0-5.07,6.25,6.25,0,0,1,1.34-2,6.08,6.08,0,0,1,2-1.34,6.8,6.8,0,0,1,5.07,0,6,6,0,0,1,2,1.34,6.44,6.44,0,0,1,1.35,2,6.8,6.8,0,0,1,0,5.07,6.48,6.48,0,0,1-1.35,2,5.92,5.92,0,0,1-2,1.35A6.41,6.41,0,0,1,897,234.8Zm0-1.34a4.8,4.8,0,0,0,4.55-3.07,5.37,5.37,0,0,0,.37-2,5,5,0,0,0-.38-2,5,5,0,0,0-1-1.61,4.64,4.64,0,0,0-1.56-1.06,5.32,5.32,0,0,0-3.9,0,4.84,4.84,0,0,0-1.56,1.06,5,5,0,0,0-1,1.61,5,5,0,0,0-.38,2,5.37,5.37,0,0,0,.37,2,4.83,4.83,0,0,0,1,1.61,4.92,4.92,0,0,0,1.57,1.07A4.85,4.85,0,0,0,897,233.46Z"/><path class="cls-1" d="M906.1,222.19H910a4.06,4.06,0,0,1,2.86,1,3.44,3.44,0,0,1,1.05,2.65,3.7,3.7,0,0,1-.73,2.33,3.55,3.55,0,0,1-2,1.24l3.52,5.22h-1.71l-3.38-5.09h-2v5.09H906.1Zm3.76,6a2.57,2.57,0,0,0,1.82-.61,2.3,2.3,0,0,0,.66-1.75,2.25,2.25,0,0,0-.64-1.71,2.57,2.57,0,0,0-1.84-.61h-2.35v4.68Z"/><path class="cls-1" d="M927.44,228.05a3.12,3.12,0,0,1,1.45,1.16,3.3,3.3,0,0,1,.5,1.83,3.54,3.54,0,0,1-1.18,2.69,4,4,0,0,1-1.31.78,4.55,4.55,0,0,1-1.67.29,4.67,4.67,0,0,1-1.62-.27,3.34,3.34,0,0,1-1.27-.77,3.58,3.58,0,0,1-.82-1.24,5.07,5.07,0,0,1-.33-1.63h1.46a2.58,2.58,0,0,0,.73,1.86,2.42,2.42,0,0,0,1.81.71,3.23,3.23,0,0,0,1.11-.18,2.63,2.63,0,0,0,.85-.49,2.17,2.17,0,0,0,.56-.75,2.41,2.41,0,0,0,.19-1,2.11,2.11,0,0,0-.72-1.7,3.05,3.05,0,0,0-2-.61h-1.23v-1.29h1.21a2.47,2.47,0,0,0,1.71-.53,2,2,0,0,0,.6-1.55,1.94,1.94,0,0,0-.59-1.5,2.37,2.37,0,0,0-1.66-.54,2.57,2.57,0,0,0-1.72.57,2,2,0,0,0-.7,1.51h-1.43a3.26,3.26,0,0,1,.33-1.38,3.39,3.39,0,0,1,.83-1.08,3.83,3.83,0,0,1,1.21-.71,4.47,4.47,0,0,1,1.53-.26,4.57,4.57,0,0,1,1.52.24,3.4,3.4,0,0,1,1.16.67,2.9,2.9,0,0,1,.74,1,3.4,3.4,0,0,1,.27,1.36,3.18,3.18,0,0,1-.4,1.63A3,3,0,0,1,927.44,228.05Z"/></g><path class="cls-3" d="M784.65,97.85v3.64H781V97.85Z"/><path class="cls-1" d="M781,97.85v3.64h-3.64V97.85Z"/><path class="cls-3" d="M777.36,97.85v3.65h-3.65V97.85Z"/><path class="cls-1" d="M784.65,101.46v3.64H781v-3.65Z"/><path class="cls-1" d="M777.36,101.46v3.65h-3.64v-3.64Z"/><path class="cls-3" d="M781,101.43v3.65h-3.65v-3.65Z"/><path class="cls-3" d="M784.65,105.07v3.65H781v-3.64Z"/><path class="cls-1" d="M781,105.08v3.64h-3.65v-3.64Z"/><path class="cls-3" d="M777.36,105.08v3.64h-3.64v-3.65Z"/><path class="cls-1" d="M784.66,108.69v3.64H781v-3.64Z"/><path class="cls-1" d="M777.36,108.69v3.65h-3.65v-3.65Z"/><path class="cls-3" d="M781,108.66v3.64h-3.64v-3.65Z"/><path class="cls-3" d="M784.79,112.24v3.64h-3.65v-3.65Z"/><path class="cls-1" d="M781.14,112.24v3.65H777.5v-3.65Z"/><path class="cls-3" d="M777.49,112.24v3.65h-3.65v-3.65Z"/><g class="cls-4"><polygon class="cls-1" points="747.8 106.78 753.61 112.6 757.75 112.6 751.94 106.78 757.78 100.95 753.65 100.95 747.8 106.78"/></g><g class="cls-5"><polygon class="cls-1" points="740.86 106.84 746.66 112.66 750.8 112.67 745 106.84 750.84 101.02 746.7 101.01 740.86 106.84"/></g><polygon class="cls-1" points="733.81 106.8 739.62 112.62 743.75 112.62 737.95 106.8 743.79 100.97 739.66 100.97 733.81 106.8"/><g class="cls-6"><polygon class="cls-1" points="760.13 112.61 764.27 112.61 758.46 106.79 764.31 100.97 760.17 100.96 754.33 106.79 760.13 112.61"/></g><g class="cls-7"><polygon class="cls-1" points="766.65 112.62 770.79 112.62 764.99 106.8 770.83 100.97 766.7 100.97 760.85 106.8 766.65 112.62"/></g><path class="cls-1" d="M980.43,90.31a16.46,16.46,0,0,0-.62-12.48.37.37,0,0,1,0-.11C978.62,75,968.5,50.51,962.47,38.46c-4.17-8.34-12.64-10.08-19-10.08a42.34,42.34,0,0,0-13.35,2.27l-.12,0c-.53.19-55.09,20.47-82.49,32.21-24.32,10.43-54.58,18.43-60.39,19.93a3.34,3.34,0,0,1-.51.06L622,82.12a2.85,2.85,0,0,1-.4,0L511.51,59a1.76,1.76,0,0,1-.44-.15c-5.58-2.63-24-3-56.2-1C403.59,60.94,343.34,70.37,328,73.59c-10.15,2.14-33.91,7.14-32.69,23a29.11,29.11,0,0,1-3.21,15.16,1.71,1.71,0,0,1-.32.44c-1.2,1.48-8.19,9-32.87,19.73-25.19,11-30.82,18.92-31.11,23.65a1.81,1.81,0,0,1-.15.65c-6.3,15.1-61.82,148.22-70.06,173.69-6.81,21.05-5.89,26.39-2.23,38.73.89,3,1.9,6.41,2.9,10.78,3.67,15.87-11.21,22.88-12.92,23.63l-.59.25-.49.38c-.19.16-20.24,15.87-40.24,33.16-37.38,32.32-43.3,42.77-44.5,47.81-1.74,7.31.41,12.15,2.51,14.92,5.59,7.38,16.32,8,17.53,8.08h.37l.38-.05c.88-.1,90.38-11,108.19-13.32,11.65-1.52,19.15-2,31.57-2.89,6.34-.43,14.23-1,24.62-1.79,23.31-1.84,39.18,1.64,63.2,6.91l.12,0c5.79,1.27,11.77,2.58,18.45,3.95,22.95,4.7,36.91,4.94,41.49.72l.28-.22c13.9-8.89,26.81-38.27,33.43-63.45,6.78-25.77-2.75-64.61-9.7-93-1.35-5.5-2.63-10.69-3.57-15-3.9-17.79-2.75-24.35-2.3-25.94a2,2,0,0,1,.25-.55c1.06-1.63,10.62-16.27,19.32-28.59,4.2-5.95,6.73-8.6,8.74-9.18s4.86.59,9.73,2.86a74.8,74.8,0,0,0,23.6,6.71l.17,0H643.24c2,0,3.92,0,5.64-.06,4.32-.07,7.49-.08,9.11.3a2,2,0,0,1,1.47,1.45,11.17,11.17,0,0,1,.28,1.86c.47,5.65,3.06,8.23,5.15,9.4,4.17,2.35,8.7.58,10,0l.08,0c3.59-1.47,88.08-36.2,103.6-44,21-10.49,85.64-76.5,93-84,27.44-28.15,40.6-34.27,42-34.87l.38-.15c.25-.11,29.75-12.53,50-20.31C972.7,101.08,978.27,96.32,980.43,90.31Zm-70.07,25.82c-2.54,1-16.4,7.26-45.54,37.15C831,188,788.24,228.5,774.38,235.43c-14.66,7.33-93.66,39.85-102.62,43.53a2,2,0,0,1-2.73-1.65c-1.08-11.34-8.39-12-20.3-11.86-1.67,0-3.49.05-5.49.05h-195a67.11,67.11,0,0,1-20.07-5.82c-6.27-2.92-11.1-4.88-16.29-3.39-5,1.43-8.86,5.77-13.8,12.77-8.89,12.59-18.53,27.35-19.6,29-1.87,2.67-4.2,10.48.83,33.47,1,4.37,2.24,9.6,3.59,15.13l0,.12c6.34,25.84,15.92,64.89,9.75,88.36-8.37,31.8-21.4,53.38-29.94,58.27l-1.27.72a1.83,1.83,0,0,1-.53.21c-2.49.58-10.65,1.46-32.56-3-6.62-1.36-12.58-2.67-18.34-3.93l-.1,0C286,482.1,268.65,478.3,244,480.25c-10.21.81-18.08,1.35-24.41,1.78h-.1c-12.2.84-20.23,1.39-32.15,2.94-16.88,2.2-98.25,12.12-107.48,13.24l-.24,0h-.19c-.73-.07-7.24-.79-9.93-4.37-.47-.63-1.91-2.56-.84-7.08.63-2.65,5.94-12.14,41.48-42.88,18-15.59,35.89-29.72,39.29-32.39a1.58,1.58,0,0,1,.39-.24c8.53-4,21.84-15.6,17.6-34-1.08-4.69-2.18-8.37-3.06-11.34-3-10.07-4.1-13.83,2.17-33.2,8.35-25.82,67.86-168.34,70.39-174.39l.71-1.7a2,2,0,0,1,.44-1.45c1.89-2.33,7.6-7.34,24.63-14.76,29.39-12.81,36.08-21.51,37.44-23.88a37.94,37.94,0,0,0,4.53-20.73c-.39-5.07,8.12-9.47,25.3-13.09,15.14-3.19,74.71-12.51,125.5-15.58,33.37-2,45.44-1.09,49.67-.35a2,2,0,0,1,1.11.61l114.59,24L788,92.24l.56-.14c1.43-.35,35.12-8.82,62.62-20.61,26.37-11.3,79.71-31.17,82-32l.11,0c1.7-.53,16.77-5,20.85,3.19,6.12,12.23,17,38.61,17.1,38.87l.09.25.05.09a2.19,2.19,0,0,1,.16.3,7,7,0,0,1,0,5.2c-1.6,4.05-6.88,6.8-11,8.4C941.24,103.17,913.46,114.83,910.36,116.13Z"/><path class="cls-1" d="M80,509.63l-.53,0c-1.31-.05-12.9-.76-19-8.86-2.36-3.12-4.77-8.53-2.85-16.59,1.37-5.76,7.74-16.52,45.13-48.86,20.09-17.37,40.13-33.07,40.32-33.22l.7-.54.83-.36c1.53-.67,15.06-7,11.75-21.34-1-4.29-2-7.65-2.86-10.62-3.8-12.83-4.76-18.35,2.23-40,8.3-25.64,63.82-158.75,70.13-173.84.46-7.69,11.33-16.23,32.3-25.37,24.35-10.61,31-17.82,32.12-19.15l.1-.11a27,27,0,0,0,3-14.08C292,79.14,316.94,73.88,327.6,71.64,343,68.4,403.36,59,454.74,55.83c43.41-2.63,53.42-.58,57.18,1.2L622,80.12l164.54.77h.14c5.73-1.48,35.85-9.45,60.05-19.82,27.15-11.64,80.32-31.41,82.58-32.25l.12,0a44.52,44.52,0,0,1,14-2.39c6.93,0,16.16,1.94,20.79,11.18,6,12.1,16.21,36.64,17.34,39.4a18.44,18.44,0,0,1,.71,14c-2.37,6.57-8.33,11.74-17.71,15.35-20,7.7-49.64,20.16-49.92,20.28l-.41.17c-1.33.57-14.15,6.53-41.33,34.41-7.33,7.51-72.22,73.74-93.49,84.38-15.8,7.9-102.85,43.66-103.73,44-1.51.7-6.82,2.76-11.81-.05-2.51-1.41-5.62-4.46-6.16-11a9,9,0,0,0-.23-1.53,50.62,50.62,0,0,0-8.61-.24c-1.77,0-3.64.06-5.67.06H447.84l-.26,0a77.55,77.55,0,0,1-24.28-6.89c-2.39-1.12-6.84-3.18-8.34-2.75-2.16.61-6.29,6.47-7.65,8.4-8.63,12.22-18.22,26.9-19.29,28.54-.29,1-1.56,7.18,2.33,25,.94,4.31,2.21,9.48,3.55,15,7,28.58,16.62,67.71,9.71,94-6.73,25.55-19.94,55.45-34.29,64.63-5.15,4.74-19.3,4.67-43.25-.23-6.72-1.37-12.7-2.69-18.48-4l-.11,0c-23.85-5.23-39.59-8.69-62.62-6.88-10.44.83-18.31,1.36-24.64,1.8-12.37.84-19.84,1.35-31.45,2.87-17.91,2.33-107.33,13.22-108.21,13.33ZM145.79,405l-.28.22c-.2.15-20.16,15.79-40.17,33.1-27.73,24-42.08,39.27-43.86,46.76-1.56,6.54.31,10.81,2.15,13.25,5,6.64,14.91,7.23,16,7.28h.21l.21,0c.89-.11,90.29-11,108.18-13.33,11.73-1.53,19.25-2,31.7-2.89,6.31-.44,14.17-1,24.59-1.8,23.63-1.85,39.6,1.65,63.79,7l.11,0c5.78,1.26,11.74,2.57,18.43,3.94,29.22,6,37.44,3.32,39.74,1.21a3.39,3.39,0,0,1,.56-.44c13.44-8.59,26-37.47,32.57-62.27,6.65-25.28-2.81-63.83-9.72-92-1.35-5.52-2.63-10.72-3.58-15.07-3.88-17.75-2.88-24.73-2.27-26.91a4.05,4.05,0,0,1,.5-1.1c1.07-1.64,10.71-16.38,19.37-28.66,4.6-6.52,7.26-9.21,9.82-9.94s5.58.38,11.13,3a73.14,73.14,0,0,0,22.9,6.53H643.24c2,0,3.85,0,5.54-.06,4.67-.07,7.82-.09,9.68.36a4,4,0,0,1,2.94,2.9,14.12,14.12,0,0,1,.34,2.18c.31,3.78,1.74,6.49,4.13,7.83,3.34,1.88,7.1.41,8.17-.09l.11-.05c.93-.38,87.84-36.08,103.51-43.92,20.69-10.34,85.14-76.13,92.42-83.6,27.72-28.43,41.21-34.69,42.65-35.31l.43-.17c.24-.1,29.79-12.54,50-20.32,8.25-3.17,13.42-7.53,15.38-13h0A14.37,14.37,0,0,0,978,78.71l-.11-.23c-1.13-2.74-11.23-27.16-17.22-39.13-3.71-7.42-11.41-9-17.21-9a40.28,40.28,0,0,0-12.7,2.16l-.08,0c-2.24.83-55.32,20.57-82.39,32.17-24.47,10.48-54.84,18.52-60.68,20a4.57,4.57,0,0,1-.78.11h-.24L622,84.12a3.42,3.42,0,0,1-.79-.09L511.1,60.94a4.44,4.44,0,0,1-.89-.3c-5.19-2.45-23.77-2.72-55.22-.81-51.18,3.1-111.28,12.5-126.57,15.72-9.63,2-32.19,6.78-31.11,20.85a31.26,31.26,0,0,1-3.45,16.27,3.64,3.64,0,0,1-.56.8c-1.75,2.12-9.21,9.62-33.58,20.24-26.49,11.55-29.74,19.2-29.91,21.95a4.18,4.18,0,0,1-.3,1.29c-6.3,15.08-61.77,148.05-70,173.53-6.65,20.55-5.83,25.38-2.22,37.55.91,3.07,1.93,6.49,2.94,10.9,4,17.45-12.2,25.1-14.07,25.91ZM79.58,500.24l-.37,0c-1.35-.13-8.21-1-11.35-5.16-.61-.82-2.48-3.31-1.18-8.75,1.44-6.08,16.4-21.68,42.12-43.92,18-15.61,36-29.77,39.35-32.45a4,4,0,0,1,.79-.49c8-3.71,20.44-14.58,16.49-31.72-1.07-4.63-2.15-8.28-3-11.22-3-10.2-4.28-14.43,2.17-34.38C173,306.26,232.5,163.63,235,157.58l.54-1.32a4,4,0,0,1,.89-2.32c2.46-3,8.85-8.12,25.39-15.33,29.57-12.89,35.59-21.45,36.5-23A35.85,35.85,0,0,0,302.64,96c-.5-6.41,8-11.24,26.88-15.21,15.18-3.2,74.89-12.54,125.79-15.62,33.58-2,45.82-1.07,50.13-.32a4.05,4.05,0,0,1,1.69.73L621,89.46l166.75.78.33-.08c1.41-.35,35-8.79,62.32-20.51,26.55-11.38,79.79-31.2,82.05-32l.2-.07c3.05-.95,18.52-5.24,23.24,4.2C962,54,973,80.5,973.06,80.76a.76.76,0,0,1,.06.16,3.68,3.68,0,0,1,.23.44,9.14,9.14,0,0,1,.07,6.72c-1.87,4.73-7.65,7.8-12.17,9.54-19.31,7.42-47,19-50.12,20.35l0,0c-2.43.93-16,7.09-44.83,36.67-34,34.83-76.91,75.52-91,82.55-14.71,7.36-93.78,39.91-102.75,43.59A4,4,0,0,1,667,277.5c-.9-9.38-6-10.24-18.28-10.05-1.67,0-3.51.05-5.52.05H448.41a3.1,3.1,0,0,1-.43,0,69.47,69.47,0,0,1-20.7-6c-5.87-2.73-10.37-4.57-14.89-3.28s-8,5.36-12.72,12c-8.88,12.59-18.48,27.3-19.55,28.94-1.38,2-3.95,8.88,1.1,31.95.95,4.35,2.23,9.56,3.58,15.08l0,.12c6.39,26,16.05,65.39,9.74,89.35-6.24,23.72-18.56,52.46-30.87,59.49l-1.28.73a4.19,4.19,0,0,1-1.06.42c-3.27.76-11.94,1.38-33.42-3-6.65-1.35-12.61-2.66-18.37-3.93l-.11,0c-23.77-5.22-40.95-9-65.34-7.06-10.17.8-18,1.34-24.33,1.77l-.21,0c-12.16.83-20.17,1.38-32,2.92-17.57,2.3-103.83,12.8-107.5,13.25A3.53,3.53,0,0,1,79.58,500.24ZM488.78,67.93c-7.55,0-18.21.31-33.23,1.22-50.69,3.07-110.11,12.37-125.2,15.55-22.44,4.72-23.83,9.6-23.72,11a40.15,40.15,0,0,1-4.81,21.9c-1.82,3.18-9.23,12-38.37,24.7C246.2,149.8,241,154.7,239.58,156.46l0,.5-.9,2.16c-2.53,6-62,148.53-70.34,174.24-6.08,18.77-5.09,22.11-2.15,32,.89,3,2,6.7,3.09,11.45,4.53,19.63-9.63,32-18.71,36.25-3.39,2.67-21.23,16.79-39.21,32.34-37,32-40.52,40.45-40.84,41.82-.86,3.61.16,5,.5,5.42,1.76,2.36,6.34,3.37,8.51,3.58,3.66-.45,89.91-10.95,107.46-13.24,12-1.56,20-2.12,32.23-2.95l.25,0c6.3-.43,14.13-1,24.29-1.77,25-2,42.4,1.85,66.5,7.14l.11,0c5.76,1.26,11.7,2.56,18.32,3.92,22.12,4.52,29.86,3.47,31.7,3l1.27-.73c8-4.56,20.85-26.1,29-57,6.05-23-3.46-61.73-9.75-87.37l0-.12c-1.36-5.55-2.64-10.79-3.61-15.18-3.9-17.85-4.08-30-.5-35.05,1-1.59,10.67-16.36,19.6-29,5.2-7.37,9.3-11.95,14.88-13.54,5.84-1.68,11.24.49,17.68,3.5a64.81,64.81,0,0,0,19.44,5.64H643.24c2,0,3.8,0,5.46-.05,10.31-.16,21-.32,22.32,13.67,8.94-3.69,87.88-36.18,102.47-43.48,13.65-6.82,56.17-47.17,89.9-81.76,29.32-30.07,43.59-36.58,46.22-37.6,3.24-1.37,30.89-13,50.2-20.4,5.34-2,8.85-4.63,9.89-7.27a5.07,5.07,0,0,0,0-3.68l-.23-.35-.08-.31c-.1-.26-10.94-26.54-17-38.74-3.4-6.8-17.85-2.36-18.47-2.17-2.25.84-55.4,20.62-81.87,32C824.35,85.17,790.49,93.69,789.06,94l-.81.21H788l-167.41-.79-.2,0L505.18,69.25l-.44-.47C502.48,68.38,497.9,67.93,488.78,67.93Z"/><polygon class="cls-1" points="878.52 47.21 879.37 50.23 787.65 76.1 624.1 75.28 538.05 56.51 489.87 56.51 489.87 53.37 538.39 53.37 538.56 53.41 624.6 72.18 787.23 72.96 878.52 47.21"/><g class="cls-2"><path class="cls-1" d="M306.94,457.87h2.87a3,3,0,0,1,2.13.72,2.55,2.55,0,0,1,.78,2,3,3,0,0,1-.21,1.14,2.38,2.38,0,0,1-.58.87,2.63,2.63,0,0,1-.91.56,3.79,3.79,0,0,1-1.21.19H308v3.78h-1.07Zm2.8,4.46a1.9,1.9,0,0,0,1.36-.46,1.94,1.94,0,0,0,0-2.57,1.92,1.92,0,0,0-1.37-.45H308v3.48Z"/><path class="cls-1" d="M313.84,457.87h1.07v9.23h-1.07Z"/><path class="cls-1" d="M316.82,457.87h2.87a3,3,0,0,1,2.13.72,2.58,2.58,0,0,1,.77,2,2.76,2.76,0,0,1-.54,1.74,2.59,2.59,0,0,1-1.5.92l2.62,3.88h-1.28l-2.51-3.78h-1.49v3.78h-1.07Zm2.8,4.46a1.92,1.92,0,0,0,1.36-.46,1.72,1.72,0,0,0,.49-1.29,1.67,1.67,0,0,0-.48-1.28,1.93,1.93,0,0,0-1.37-.45h-1.74v3.48Z"/><path class="cls-1" d="M329.37,464.76H325.2l-.88,2.34h-1.14l3.53-9.23h1.15l3.51,9.23h-1.12Zm-3.81-.95H329l-1.75-4.74Z"/><path class="cls-1" d="M333.21,458.85h-2.73v-1h6.61v1h-2.81v8.25h-1.07Z"/><path class="cls-1" d="M338.2,457.87h5.32v1h-4.25v2.95h4.12v1h-4.12v3.36h4.4v1H338.2Z"/><path class="cls-1" d="M344.94,457.87H346v8.26h3.82v1h-4.89Z"/><path class="cls-1" d="M350.78,457.87h1.07v8.26h3.82v1h-4.89Z"/><path class="cls-1" d="M361.81,464.76h-4.17l-.88,2.34h-1.14l3.52-9.23h1.16l3.51,9.23h-1.13Zm-3.82-.95h3.47l-1.74-4.74Z"/></g><g class="cls-2"><path class="cls-1" d="M318.69,260.37h-4.17l-.88,2.34H312.5l3.53-9.23h1.15l3.51,9.23h-1.12Zm-3.81-.95h3.47l-1.75-4.74Z"/><path class="cls-1" d="M325.55,262.86a4.91,4.91,0,0,1-1.9-.36,4.63,4.63,0,0,1-1.51-1,4.48,4.48,0,0,1-1-1.51,5,5,0,0,1,0-3.78,4.55,4.55,0,0,1,2.51-2.51,4.8,4.8,0,0,1,1.9-.37,5.27,5.27,0,0,1,1.61.25,4.27,4.27,0,0,1,1.34.7,3.94,3.94,0,0,1,1,1.09,4,4,0,0,1,.55,1.42h-1.15a3.48,3.48,0,0,0-.45-1,3,3,0,0,0-.74-.77,3.3,3.3,0,0,0-1-.5,4,4,0,0,0-1.16-.17,3.64,3.64,0,0,0-1.45.29,3.6,3.6,0,0,0-1.94,2,3.83,3.83,0,0,0-.29,1.48,3.89,3.89,0,0,0,.29,1.5,3.64,3.64,0,0,0,.77,1.19,3.69,3.69,0,0,0,1.17.8,3.64,3.64,0,0,0,1.45.28,3.5,3.5,0,0,0,2.13-.66,3.24,3.24,0,0,0,1.19-1.81H330a4.06,4.06,0,0,1-.55,1.43,4,4,0,0,1-1,1.1,4.49,4.49,0,0,1-1.34.7A5.27,5.27,0,0,1,325.55,262.86Z"/><path class="cls-1" d="M340.66,263.61v.94l-6.38-1.84a5.12,5.12,0,0,1-1.46-.67,5,5,0,0,1-1.11-1,4.6,4.6,0,0,1-.71-1.33,5,5,0,0,1-.24-1.56,4.74,4.74,0,0,1,.37-1.88,4.65,4.65,0,0,1,1-1.52,4.77,4.77,0,0,1,1.53-1,5,5,0,0,1,3.77,0,5,5,0,0,1,1.52,1,4.84,4.84,0,0,1,1.13,4.92,4.46,4.46,0,0,1-1.82,2.3,4.62,4.62,0,0,1-1.42.61Zm-8.79-5.53a3.85,3.85,0,0,0,1.05,2.7,3.61,3.61,0,0,0,2.64,1.08,3.67,3.67,0,0,0,1.45-.28,3.63,3.63,0,0,0,1.94-2,4.08,4.08,0,0,0,0-3,3.44,3.44,0,0,0-.77-1.19,3.67,3.67,0,0,0-2.62-1.08,3.58,3.58,0,0,0-3.41,2.27A3.79,3.79,0,0,0,331.87,258.08Z"/><path class="cls-1" d="M344.94,262.86a3.63,3.63,0,0,1-1.42-.26,3.06,3.06,0,0,1-1.09-.74,3.37,3.37,0,0,1-.69-1.18,4.63,4.63,0,0,1-.24-1.55v-5.65h1.07v5.7a2.94,2.94,0,0,0,.63,2,2.45,2.45,0,0,0,3.48,0,2.91,2.91,0,0,0,.63-2v-5.7h1.07v5.65a4.63,4.63,0,0,1-.24,1.55,3.51,3.51,0,0,1-.68,1.18,3,3,0,0,1-1.09.74A3.61,3.61,0,0,1,344.94,262.86Z"/><path class="cls-1" d="M350.19,253.48h5.32v1h-4.25v3h4.12v1h-4.12v3.36h4.4v1h-5.47Z"/><path class="cls-1" d="M322.31,267v9.23h-1.07v-7.56l-2.92,7.56h-1l-2.92-7.56v7.56h-1.06V267h1.52l3,7.77,2.95-7.77Z"/><path class="cls-1" d="M324.22,267h1.07v9.23h-1.07Z"/><path class="cls-1" d="M334.05,267v9.23h-1.17l-4.62-7.51v7.51h-1.07V267h1.24l4.54,7.35V267Z"/><path class="cls-1" d="M336,267h5.32v1H337v2.95h4.11v1H337v3.36h4.4v1H336Z"/><path class="cls-1" d="M342.69,267h2.87a3,3,0,0,1,2.13.72,2.53,2.53,0,0,1,.77,2,2.74,2.74,0,0,1-.54,1.74,2.59,2.59,0,0,1-1.5.92l2.62,3.89h-1.27l-2.51-3.79h-1.5v3.79h-1.07Zm2.8,4.45a1.92,1.92,0,0,0,1.36-.46,1.65,1.65,0,0,0,.49-1.29,1.67,1.67,0,0,0-.48-1.28,1.93,1.93,0,0,0-1.37-.45h-1.74v3.48Z"/><path class="cls-1" d="M355.24,273.89h-4.17l-.88,2.35h-1.14l3.53-9.23h1.15l3.51,9.23h-1.12Zm-3.81-.95h3.47l-1.75-4.74Z"/><path class="cls-1" d="M358.34,267h1.07v8.25h3.82v1h-4.89Z"/><path class="cls-1" d="M364.18,267h1.07v9.23h-1.07Z"/></g><g class="cls-2"><path class="cls-1" d="M198.54,88.62l-3.32,9.23h-1.15l-3.31-9.23h1.17l2.73,7.85,2.73-7.85Z"/><path class="cls-1" d="M204,95.51H199.8l-.88,2.34h-1.14l3.53-9.23h1.15L206,97.85h-1.12Zm-3.81-1h3.47l-1.74-4.75Z"/><path class="cls-1" d="M207.07,88.62h2.87a3,3,0,0,1,2.13.72,2.58,2.58,0,0,1,.77,2A2.73,2.73,0,0,1,212.3,93a2.6,2.6,0,0,1-1.5.93l2.62,3.88h-1.28l-2.51-3.78h-1.49v3.78h-1.07Zm2.8,4.46a1.92,1.92,0,0,0,1.36-.46,1.73,1.73,0,0,0,.49-1.3,1.65,1.65,0,0,0-.48-1.27,1.94,1.94,0,0,0-1.37-.46h-1.74v3.49Z"/><path class="cls-1" d="M214.52,88.62h1.07v9.23h-1.07Z"/><path class="cls-1" d="M222.86,95.51h-4.17l-.88,2.34h-1.14l3.52-9.23h1.16l3.51,9.23h-1.13Zm-3.82-1h3.47l-1.74-4.75Z"/><path class="cls-1" d="M232.81,88.62v9.23h-1.16L227,90.35v7.5H226V88.62h1.24L231.73,96V88.62Z"/><path class="cls-1" d="M236.62,89.59H233.9v-1h6.61v1h-2.82v8.26h-1.07Z"/><path class="cls-1" d="M241.62,88.62h5.32v1h-4.25v3h4.11v1h-4.11v3.36h4.4v1h-5.47Z"/><path class="cls-1" d="M193.49,103.12h-2.73v-1h6.61v1h-2.81v8.25h-1.07Z"/><path class="cls-1" d="M202.68,109h-4.17l-.88,2.34H196.5l3.52-9.23h1.15l3.51,9.23h-1.12Zm-3.81-1h3.47l-1.74-4.74Z"/><path class="cls-1" d="M214.76,102.14v9.23h-1.07v-7.55l-2.92,7.55h-1l-2.92-7.55v7.55h-1.06v-9.23h1.52l3,7.78,2.95-7.78Z"/><path class="cls-1" d="M221.72,106.42a2.33,2.33,0,0,1,1.07.91,2.64,2.64,0,0,1,.38,1.47,2.35,2.35,0,0,1-.81,1.89,3.36,3.36,0,0,1-2.23.68h-3.46v-9.23H220a3,3,0,0,1,2,.61,2.06,2.06,0,0,1,.72,1.67A2.17,2.17,0,0,1,221.72,106.42Zm-4-3.32V106h2.17a1.9,1.9,0,0,0,1.28-.4,1.35,1.35,0,0,0,.44-1.09c0-1-.55-1.44-1.67-1.44Zm2.3,7.31a2.24,2.24,0,0,0,1.5-.45,1.6,1.6,0,0,0,.52-1.29,1.51,1.51,0,0,0-.56-1.24A2.37,2.37,0,0,0,220,107h-2.22v3.42Z"/><path class="cls-1" d="M227.78,111.52a3.59,3.59,0,0,1-1.42-.26,3,3,0,0,1-1.09-.74,3.37,3.37,0,0,1-.69-1.18,4.63,4.63,0,0,1-.24-1.55v-5.65h1.07v5.7a2.94,2.94,0,0,0,.63,2,2.45,2.45,0,0,0,3.48,0,2.91,2.91,0,0,0,.63-2v-5.7h1.07v5.65a4.63,4.63,0,0,1-.24,1.55,3.51,3.51,0,0,1-.68,1.18,3,3,0,0,1-1.09.74A3.61,3.61,0,0,1,227.78,111.52Z"/><path class="cls-1" d="M233,102.14h2.87a3,3,0,0,1,2.13.72,2.55,2.55,0,0,1,.78,2,2.69,2.69,0,0,1-.55,1.74,2.59,2.59,0,0,1-1.5.92l2.62,3.88h-1.27l-2.51-3.78h-1.5v3.78H233Zm2.8,4.46a1.9,1.9,0,0,0,1.36-.46,1.94,1.94,0,0,0,0-2.57,1.93,1.93,0,0,0-1.37-.45h-1.74v3.48Z"/><path class="cls-1" d="M240.48,102.14h5.32v1h-4.25v2.95h4.11v1h-4.11v3.36H246v1h-5.47Z"/><path class="cls-1" d="M247.21,102.14h1.07v8.26h3.83v1h-4.9Z"/><path class="cls-1" d="M253.06,102.14h1.07v8.26H258v1h-4.89Z"/><path class="cls-1" d="M262.68,111.52a4.88,4.88,0,0,1-1.88-.36,4.65,4.65,0,0,1-1.52-1,4.76,4.76,0,0,1-1-1.51,5.12,5.12,0,0,1,0-3.77,4.65,4.65,0,0,1,1-1.51,4.48,4.48,0,0,1,1.51-1,4.79,4.79,0,0,1,1.89-.37,4.72,4.72,0,0,1,1.89.37,4.58,4.58,0,0,1,1.51,1,4.63,4.63,0,0,1,1,1.51,5.12,5.12,0,0,1,0,3.77,4.74,4.74,0,0,1-1,1.51,4.6,4.6,0,0,1-1.51,1A4.89,4.89,0,0,1,262.68,111.52Zm0-1a3.72,3.72,0,0,0,1.46-.28,3.64,3.64,0,0,0,1.16-.8,3.58,3.58,0,0,0,.77-1.2,4.08,4.08,0,0,0,.28-1.5,4,4,0,0,0-.28-1.48,3.92,3.92,0,0,0-.77-1.2,3.44,3.44,0,0,0-1.16-.78,3.73,3.73,0,0,0-1.46-.29,3.68,3.68,0,0,0-1.45.29,3.44,3.44,0,0,0-1.16.78,3.92,3.92,0,0,0-.77,1.2,4,4,0,0,0-.28,1.48,3.89,3.89,0,0,0,.28,1.5,3.56,3.56,0,0,0,.76,1.2,3.56,3.56,0,0,0,2.62,1.08Z"/></g><g class="cls-2"><path class="cls-1" d="M73,367.85l-3.32,9.23H68.52l-3.31-9.23h1.17l2.73,7.85,2.73-7.85Z"/><path class="cls-1" d="M78.42,374.74H74.25l-.88,2.34H72.24l3.52-9.23h1.15l3.51,9.23H79.3Zm-3.81-.95h3.47l-1.74-4.74Z"/><path class="cls-1" d="M81.52,367.85h2.87a3,3,0,0,1,2.13.72,2.55,2.55,0,0,1,.78,2,2.74,2.74,0,0,1-.55,1.74,2.59,2.59,0,0,1-1.5.92l2.62,3.88H86.6l-2.51-3.78h-1.5v3.78H81.52Zm2.8,4.46a1.9,1.9,0,0,0,1.36-.46,1.94,1.94,0,0,0,0-2.57,1.93,1.93,0,0,0-1.37-.45H82.58v3.48Z"/><path class="cls-1" d="M89,367.85H90v9.23H89Z"/><path class="cls-1" d="M97.31,374.74H93.14l-.88,2.34H91.12l3.53-9.23H95.8l3.51,9.23H98.19Zm-3.82-.95H97l-1.75-4.74Z"/><path class="cls-1" d="M107.26,367.85v9.23H106.1l-4.62-7.5v7.5h-1.07v-9.23h1.23l4.54,7.36v-7.36Z"/><path class="cls-1" d="M111.08,368.83h-2.73v-1H115v1h-2.81v8.25h-1.07Z"/><path class="cls-1" d="M116.07,367.85h5.32v1h-4.25v2.95h4.11v1h-4.11v3.36h4.4v1h-5.47Z"/><path class="cls-1" d="M73,381.38l-3.32,9.23H68.52l-3.31-9.23h1.17l2.73,7.84,2.73-7.84Z"/><path class="cls-1" d="M74.09,381.38h1.07v9.23H74.09Z"/><path class="cls-1" d="M77.06,381.38h1.07v8.25H82v1h-4.9Z"/><path class="cls-1" d="M82.91,381.38H84v8.25H87.8v1H82.91Z"/><path class="cls-1" d="M88.75,381.38h5.32v1H89.82v2.95h4.11v1H89.82v3.36h4.4v1H88.75Z"/><path class="cls-1" d="M102.34,381.38v9.23h-1.16l-4.63-7.51v7.51H95.48v-9.23h1.24l4.54,7.35v-7.35Z"/><path class="cls-1" d="M104.25,381.38h5.32v1h-4.25v2.95h4.11v1h-4.11v3.36h4.4v1h-5.47Z"/><path class="cls-1" d="M114.3,390.76a3.82,3.82,0,0,1-1.42-.26,3.22,3.22,0,0,1-1.09-.75,3.42,3.42,0,0,1-.69-1.17,4.71,4.71,0,0,1-.24-1.55v-5.65h1.07v5.69a2.89,2.89,0,0,0,.64,2,2.16,2.16,0,0,0,1.73.73,2.19,2.19,0,0,0,1.74-.72,2.91,2.91,0,0,0,.63-2v-5.69h1.07V387a4.71,4.71,0,0,1-.24,1.55,3.57,3.57,0,0,1-.68,1.17,3.12,3.12,0,0,1-1.09.75A3.8,3.8,0,0,1,114.3,390.76Z"/><path class="cls-1" d="M126.51,381.38l-3.32,9.23H122l-3.31-9.23h1.17l2.73,7.84,2.73-7.84Z"/><path class="cls-1" d="M127.6,381.38h5.33v1h-4.26v2.95h4.12v1h-4.12v3.36h4.41v1H127.6Z"/></g><g class="cls-2"><path class="cls-1" d="M708.71,302.05l-3.32,9.23h-1.16l-3.3-9.23h1.17l2.72,7.85,2.73-7.85Z"/><path class="cls-1" d="M714.14,308.93H710l-.88,2.35H708l3.53-9.23h1.15l3.51,9.23H715Zm-3.82-.94h3.48l-1.75-4.75Z"/><path class="cls-1" d="M717.24,302.05h2.86a3,3,0,0,1,2.14.72,2.58,2.58,0,0,1,.77,2,2.73,2.73,0,0,1-.54,1.73,2.65,2.65,0,0,1-1.5.93l2.62,3.88h-1.28l-2.51-3.78h-1.49v3.78h-1.07Zm2.79,4.46a1.94,1.94,0,0,0,1.36-.46,1.69,1.69,0,0,0,.5-1.3,1.65,1.65,0,0,0-.48-1.27A1.9,1.9,0,0,0,720,303h-1.74v3.49Z"/><path class="cls-1" d="M724.68,302.05h1.07v9.23h-1.07Z"/><path class="cls-1" d="M733,308.93h-4.17l-.87,2.35h-1.14l3.52-9.23h1.16l3.51,9.23H733.9Zm-3.81-.94h3.47l-1.74-4.75Z"/><path class="cls-1" d="M743,302.05v9.23h-1.16l-4.63-7.5v7.5h-1.07v-9.23h1.24l4.54,7.35v-7.35Z"/><path class="cls-1" d="M746.79,303h-2.73v-1h6.61v1h-2.81v8.26h-1.07Z"/><path class="cls-1" d="M751.79,302.05h5.32v1h-4.25v3H757v1h-4.11v3.36h4.4v1h-5.47Z"/><path class="cls-1" d="M767,308.93h-4.17l-.87,2.35h-1.14l3.52-9.23h1.16l3.51,9.23h-1.13Zm-3.81-.94h3.47l-1.74-4.75Z"/><path class="cls-1" d="M770.05,302.05h1.07v8.26H775v1h-4.9Z"/><path class="cls-1" d="M776.79,303h-2.73v-1h6.61v1h-2.81v8.26h-1.07Z"/><path class="cls-1" d="M786,308.93h-4.17l-.88,2.35h-1.14l3.53-9.23h1.15l3.51,9.23h-1.12Zm-3.82-.94h3.48l-1.75-4.75Z"/></g><g class="cls-2"><path class="cls-1" d="M993.86,53.72h2.87a3,3,0,0,1,2.13.72,2.55,2.55,0,0,1,.78,2,2.76,2.76,0,0,1-.54,1.74,2.65,2.65,0,0,1-1.51.92l2.62,3.88h-1.27l-2.51-3.78h-1.5V63h-1.07Zm2.8,4.46a1.9,1.9,0,0,0,1.36-.46,1.69,1.69,0,0,0,.49-1.3,1.67,1.67,0,0,0-.48-1.27,1.92,1.92,0,0,0-1.37-.45h-1.74v3.48Z"/><path class="cls-1" d="M1001.31,53.72h1.07V63h-1.07Z"/><path class="cls-1" d="M1011.24,53.72,1007.92,63h-1.15l-3.3-9.23h1.16l2.73,7.85,2.73-7.85Z"/><path class="cls-1" d="M1016.67,60.61h-4.17l-.88,2.34h-1.13l3.52-9.23h1.15l3.51,9.23h-1.12Zm-3.81-1h3.47l-1.74-4.74Z"/><path class="cls-1" d="M1025.38,62v1h-6.5V62l5.17-7.32h-4.9v-1h6.18v1l-5.2,7.31Z"/><path class="cls-1" d="M1032.53,62v1H1026V62l5.17-7.32h-4.9v-1h6.17v1l-5.2,7.31Z"/><path class="cls-1" d="M1039.15,60.61H1035L1034.1,63H1033l3.52-9.23h1.15l3.51,9.23H1040Zm-3.81-1h3.47l-1.74-4.74Z"/></g><g class="cls-2"><path class="cls-1" d="M643.52,116.8,640.2,126h-1.15l-3.3-9.23h1.16l2.73,7.84,2.73-7.84Z"/><path class="cls-1" d="M649,123.68h-4.17l-.87,2.35h-1.14l3.52-9.23h1.15L651,126h-1.13Zm-3.81-.94h3.47L646.87,118Z"/><path class="cls-1" d="M652.05,116.8h2.87a3,3,0,0,1,2.13.72,2.54,2.54,0,0,1,.78,2,2.58,2.58,0,0,1-2.05,2.66L658.4,126h-1.27l-2.51-3.79h-1.5V126h-1.07Zm2.8,4.45a1.9,1.9,0,0,0,1.36-.46,1.65,1.65,0,0,0,.49-1.29,1.69,1.69,0,0,0-.48-1.28,1.93,1.93,0,0,0-1.37-.45h-1.74v3.48Z"/><path class="cls-1" d="M659.5,116.8h1.07V126H659.5Z"/><path class="cls-1" d="M667.84,123.68h-4.17l-.88,2.35h-1.14l3.53-9.23h1.15l3.51,9.23h-1.12Zm-3.81-.94h3.47L665.75,118Z"/><path class="cls-1" d="M677.8,116.8V126h-1.17l-4.62-7.5V126h-1.07V116.8h1.23l4.54,7.35V116.8Z"/><path class="cls-1" d="M681.61,117.77h-2.73v-1h6.61v1h-2.81V126h-1.07Z"/><path class="cls-1" d="M686.6,116.8h5.32v1h-4.25v3h4.12v1h-4.12v3.36h4.4v1H686.6Z"/><path class="cls-1" d="M701.45,121.08a2.29,2.29,0,0,1,1.08.9,2.72,2.72,0,0,1,.38,1.47,2.33,2.33,0,0,1-.82,1.89,3.32,3.32,0,0,1-2.23.69h-3.45V116.8h3.32a3.05,3.05,0,0,1,2,.6,2,2,0,0,1,.73,1.67A2.17,2.17,0,0,1,701.45,121.08Zm-4-3.32v2.92h2.16a1.91,1.91,0,0,0,1.29-.39,1.4,1.4,0,0,0,.44-1.09c0-1-.56-1.44-1.67-1.44Zm2.3,7.31a2.19,2.19,0,0,0,1.5-.46,1.63,1.63,0,0,0,.52-1.28,1.51,1.51,0,0,0-.56-1.25,2.43,2.43,0,0,0-1.54-.44h-2.22v3.43Z"/><path class="cls-1" d="M709.56,123.68h-4.17l-.88,2.35h-1.14l3.53-9.23h1.15l3.51,9.23h-1.12Zm-3.81-.94h3.47L707.48,118Z"/><path class="cls-1" d="M715,126.18a3.17,3.17,0,0,1-2.24-.78,3,3,0,0,1-.91-2.1h1.08a2,2,0,0,0,.62,1.4,2,2,0,0,0,1.44.53,2.28,2.28,0,0,0,1.44-.42,1.42,1.42,0,0,0,.54-1.17,1.36,1.36,0,0,0-.31-.92,2.86,2.86,0,0,0-1.07-.64l-1.33-.51a3.49,3.49,0,0,1-1.55-1,2.43,2.43,0,0,1-.48-1.55,2.24,2.24,0,0,1,.21-1,2.1,2.1,0,0,1,.58-.74,2.45,2.45,0,0,1,.89-.48,3.47,3.47,0,0,1,1.15-.17,2.93,2.93,0,0,1,2,.67,2.62,2.62,0,0,1,.84,1.86h-1.08a1.68,1.68,0,0,0-.52-1.16,1.79,1.79,0,0,0-1.28-.43,2,2,0,0,0-1.26.38,1.22,1.22,0,0,0-.48,1,1.43,1.43,0,0,0,.32,1,2.58,2.58,0,0,0,1.08.69l1.35.52a3.53,3.53,0,0,1,1.52,1,2.24,2.24,0,0,1,.46,1.46,2.65,2.65,0,0,1-.21,1.07,2.48,2.48,0,0,1-.61.82,2.94,2.94,0,0,1-1,.51A4.19,4.19,0,0,1,715,126.18Z"/><path class="cls-1" d="M721.71,126.18a3.17,3.17,0,0,1-2.24-.78,2.91,2.91,0,0,1-.91-2.1h1.08a2,2,0,0,0,.62,1.4,2,2,0,0,0,1.44.53,2.28,2.28,0,0,0,1.44-.42,1.44,1.44,0,0,0,.53-1.17,1.31,1.31,0,0,0-.31-.92,2.8,2.8,0,0,0-1.06-.64l-1.33-.51a3.49,3.49,0,0,1-1.55-1,2.43,2.43,0,0,1-.48-1.55,2.24,2.24,0,0,1,.21-1,2.07,2.07,0,0,1,.57-.74,2.63,2.63,0,0,1,.89-.48,3.58,3.58,0,0,1,1.16-.17,2.93,2.93,0,0,1,2,.67,2.66,2.66,0,0,1,.84,1.86h-1.09a1.63,1.63,0,0,0-.51-1.16,1.79,1.79,0,0,0-1.28-.43,2,2,0,0,0-1.27.38,1.22,1.22,0,0,0-.48,1,1.43,1.43,0,0,0,.33,1,2.6,2.6,0,0,0,1.07.69l1.36.52a3.6,3.6,0,0,1,1.52,1,2.3,2.3,0,0,1,.46,1.46,2.5,2.5,0,0,1-.22,1.07,2.23,2.23,0,0,1-.61.82,2.75,2.75,0,0,1-1,.51A4.08,4.08,0,0,1,721.71,126.18Z"/><path class="cls-1" d="M731.26,123.68h-4.17l-.88,2.35h-1.14l3.53-9.23h1.15l3.51,9.23h-1.12Zm-3.82-.94h3.48L729.17,118Z"/></g><g class="cls-2"><path class="cls-1" d="M129.26,462h-2.73v-1h6.61v1h-2.81v8.25h-1.07Z"/><path class="cls-1" d="M138,470.44a4.89,4.89,0,0,1-1.89-.36,4.67,4.67,0,0,1-2.52-2.52,4.9,4.9,0,0,1-.37-1.89,4.85,4.85,0,0,1,.37-1.88,4.52,4.52,0,0,1,2.52-2.51,5,5,0,0,1,3.77,0,4.48,4.48,0,0,1,1.51,1,4.38,4.38,0,0,1,1,1.51,4.67,4.67,0,0,1,.37,1.88,4.72,4.72,0,0,1-.37,1.89,4.58,4.58,0,0,1-1,1.51,4.5,4.5,0,0,1-1.51,1A4.88,4.88,0,0,1,138,470.44Zm0-1a3.67,3.67,0,0,0,2.62-1.08,3.74,3.74,0,0,0,.77-1.2,4.08,4.08,0,0,0,.27-1.5,3.79,3.79,0,0,0-.28-1.48,3.92,3.92,0,0,0-.77-1.2,3.37,3.37,0,0,0-1.16-.79,3.86,3.86,0,0,0-1.45-.28,3.91,3.91,0,0,0-1.46.28,3.57,3.57,0,0,0-1.16.79,3.72,3.72,0,0,0-.76,1.2,3.79,3.79,0,0,0-.28,1.48,4.08,4.08,0,0,0,.27,1.5,3.59,3.59,0,0,0,3.39,2.28Z"/><path class="cls-1" d="M146.53,470.44a3.16,3.16,0,0,1-2.24-.77,2.94,2.94,0,0,1-.92-2.11h1.09a2,2,0,0,0,2,1.94,2.19,2.19,0,0,0,1.44-.43,1.39,1.39,0,0,0,.54-1.16,1.3,1.3,0,0,0-.31-.92,2.8,2.8,0,0,0-1.06-.65l-1.33-.5a3.53,3.53,0,0,1-1.55-1,2.4,2.4,0,0,1-.48-1.54,2.32,2.32,0,0,1,.2-1,2.23,2.23,0,0,1,.58-.75,2.91,2.91,0,0,1,.89-.48,3.8,3.8,0,0,1,1.15-.17,3,3,0,0,1,2,.67,2.62,2.62,0,0,1,.83,1.87h-1.08a1.72,1.72,0,0,0-.52-1.17,1.81,1.81,0,0,0-1.28-.42,1.93,1.93,0,0,0-1.26.38,1.2,1.2,0,0,0-.48,1,1.51,1.51,0,0,0,.32,1,2.72,2.72,0,0,0,1.08.69l1.36.52a3.48,3.48,0,0,1,1.51,1,2.25,2.25,0,0,1,.46,1.47,2.65,2.65,0,0,1-.21,1.07,2.2,2.2,0,0,1-.61.81,2.78,2.78,0,0,1-1,.52A4.52,4.52,0,0,1,146.53,470.44Z"/><path class="cls-1" d="M156.07,468H151.9l-.87,2.34h-1.14l3.52-9.23h1.16l3.51,9.23H157Zm-3.81-.95h3.47L154,462.26Z"/></g></g></svg>