<svg xmlns="http://www.w3.org/2000/svg" viewBox="0 0 1062.67 537.87"><g fill="#fff"><path d="M681.08 176.82h-2.66V174h8.7v2.85h-2.87V185h-3.17zm12.14-2.82v11h-3.1v-8l-1.8.55-.7-2.63 3.08-.94zm70.53-44h-2.66v-2.85h8.7V130h-2.88v8.13h-3.16zm15.13 5.48v2.66h-8.2V137a3.75 3.75 0 0 1 .8-2.34 9 9 0 0 1 2.21-1.95l1-.65a4.56 4.56 0 0 0 .6-.46 1.14 1.14 0 0 0 .29-.37.94.94 0 0 0 .09-.43 1 1 0 0 0-.25-.72.92.92 0 0 0-.67-.24c-.63 0-1 .42-1 1.26h-3.05a4.1 4.1 0 0 1 1.11-3.06 4.87 4.87 0 0 1 6-.18 3.35 3.35 0 0 1 1 2.62 3.44 3.44 0 0 1-.19 1.2 3.11 3.11 0 0 1-.54.95 5.24 5.24 0 0 1-.9.84l-1.24.86-.94.67a6.55 6.55 0 0 0-.71.53zm157.17-16.54h-2.67v-2.86h8.7v2.86h-2.87v8.13h-3.16zm13.48 2.5a2.94 2.94 0 0 1 1.24 1 2.74 2.74 0 0 1 .42 1.53 2.88 2.88 0 0 1-1.16 2.37 4 4 0 0 1-1.31.67 5.52 5.52 0 0 1-1.67.24 4.2 4.2 0 0 1-3-1 4.13 4.13 0 0 1-1.17-2.93h3a1.22 1.22 0 0 0 .31.86 1 1 0 0 0 .78.31 1.21 1.21 0 0 0 .82-.27.93.93 0 0 0 .31-.72.87.87 0 0 0-.3-.7 1.26 1.26 0 0 0-.83-.25h-1.06v-2.2h1c.73 0 1.1-.3 1.1-.9a.87.87 0 0 0-.28-.67 1.15 1.15 0 0 0-.77-.24 1.07 1.07 0 0 0-.79.29 1.12 1.12 0 0 0-.32.8h-2.9a4.36 4.36 0 0 1 .36-1.57 3.41 3.41 0 0 1 .85-1.19 3.73 3.73 0 0 1 1.3-.75 5.55 5.55 0 0 1 3.26 0 3.77 3.77 0 0 1 1.23.64 2.75 2.75 0 0 1 .78 1A2.9 2.9 0 0 1 951 119a2.49 2.49 0 0 1-1.47 2.45zm-13.48 67.1h-2.67v-2.86h8.7v2.86h-2.87v8.13h-3.16zm15 6.45h-1.2v1.67h-3.1V195h-4.88v-2.4l4.6-6.93h3.4v6.76h1.2zm-6.2-2.56h2.2V189zm51.3-73.5h-2.66v-2.86h8.7v2.86h-2.88v8.13h-3.16zm12.1.83a3.7 3.7 0 0 1 1.42.27 3.32 3.32 0 0 1 1.12.76 3.45 3.45 0 0 1 .72 1.17 3.92 3.92 0 0 1 .26 1.47 4 4 0 0 1-.3 1.58 3.38 3.38 0 0 1-.86 1.21 3.92 3.92 0 0 1-1.35.78 5.37 5.37 0 0 1-1.76.27 4.22 4.22 0 0 1-2.94-1 3.81 3.81 0 0 1-1.18-2.77h3a1.14 1.14 0 0 0 .37.73 1.07 1.07 0 0 0 .74.27 1.12 1.12 0 0 0 .85-.35 1.29 1.29 0 0 0 .33-.91 1.22 1.22 0 0 0-.34-.87 1.12 1.12 0 0 0-.84-.35 1.1 1.1 0 0 0-.57.15 1.2 1.2 0 0 0-.44.4h-2.84v-6.5h7.55v2.66h-4.6v1.4a3.71 3.71 0 0 1 1.67-.37zm8.45 111.9h-2.66v-2.85h8.7v2.85h-2.87v8.13h-3.17zm11.35.44a3.62 3.62 0 0 1 1.26.43 3.53 3.53 0 0 1 1 .83 3.58 3.58 0 0 1 .67 1.15 3.93 3.93 0 0 1 .24 1.38 4 4 0 0 1-.33 1.62 4.18 4.18 0 0 1-2.27 2.18 4.44 4.44 0 0 1-1.68.31 4.19 4.19 0 0 1-3-1.21 4.2 4.2 0 0 1-.89-1.33 4.12 4.12 0 0 1-.33-1.65 3.38 3.38 0 0 1 .07-.72 3.61 3.61 0 0 1 .21-.72 5.57 5.57 0 0 1 .4-.82l.63-1 2.5-3.74h3.64zm-1.08 5.1a1.23 1.23 0 0 0 .9-.37 1.36 1.36 0 0 0 0-1.84 1.22 1.22 0 0 0-.9-.36 1.18 1.18 0 0 0-.89.36 1.38 1.38 0 0 0 0 1.84 1.19 1.19 0 0 0 .89.37zm-128.53-9.5h-2.66v-2.86h8.7v2.86h-2.87v8.13h-3.17zm14.73-2.85v2.6l-4 8.4h-3.38l4.1-8.2h-4.6v-2.8zM483.16 299.3h-2.66v-2.86h8.7v2.86h-2.87v8.13h-3.17zm14 2.38a2.8 2.8 0 0 1 1.55 2.66 3.09 3.09 0 0 1-.29 1.37 2.8 2.8 0 0 1-.85 1 3.87 3.87 0 0 1-1.35.66 6.27 6.27 0 0 1-1.8.24 5 5 0 0 1-3.14-.88 2.88 2.88 0 0 1-1.13-2.42 3.07 3.07 0 0 1 .39-1.59 2.88 2.88 0 0 1 1.14-1.07 2.77 2.77 0 0 1-1-1 2.93 2.93 0 0 1-.05-2.64 2.75 2.75 0 0 1 .82-1 4.08 4.08 0 0 1 1.29-.63 5.84 5.84 0 0 1 1.68-.22 5.91 5.91 0 0 1 1.69.22 3.88 3.88 0 0 1 1.29.63 2.85 2.85 0 0 1 .82 1 2.82 2.82 0 0 1 .28 1.27 2.7 2.7 0 0 1-.34 1.37 2.77 2.77 0 0 1-1 1.03zm-2.74 3.64a1.2 1.2 0 0 0 .86-.31 1.06 1.06 0 0 0 .33-.81 1.18 1.18 0 0 0-.32-.85 1.27 1.27 0 0 0-1.72 0 1.12 1.12 0 0 0-.34.85 1 1 0 0 0 .34.81 1.21 1.21 0 0 0 .85.31zm0-6.77a1.08 1.08 0 0 0-.78.28 1 1 0 0 0-.31.73 1.08 1.08 0 1 0 2.15 0 1 1 0 0 0-.29-.73 1.07 1.07 0 0 0-.75-.28zm-11.26 72.35h-2.66V368h8.7v2.85h-2.87V379h-3.17zm9.96 4.82a3.46 3.46 0 0 1-1.27-.42 4 4 0 0 1-1-.83 3.78 3.78 0 0 1-.67-1.15 3.93 3.93 0 0 1-.24-1.38 4 4 0 0 1 2.6-3.8 4.45 4.45 0 0 1 1.68-.32 4.2 4.2 0 0 1 1.66.33 4.09 4.09 0 0 1 1.33.89 3.94 3.94 0 0 1 .89 1.33 4.12 4.12 0 0 1 .33 1.65 4.2 4.2 0 0 1-.06.72 4.84 4.84 0 0 1-.22.72 5.17 5.17 0 0 1-.4.83l-.62 1-2.5 3.74H491zm1.07-5.1a1.17 1.17 0 0 0-.89.37 1.25 1.25 0 0 0-.36.92 1.23 1.23 0 0 0 .36.91 1.2 1.2 0 0 0 .89.36 1.18 1.18 0 0 0 .89-.36 1.22 1.22 0 0 0 .35-.91 1.24 1.24 0 0 0-.35-.92 1.16 1.16 0 0 0-.89-.37zm-345.45 61.74h-2.66v-2.86h8.7v2.86h-2.88v8.13h-3.16zm12.14-2.86v11h-3.1v-8l-1.8.56-.7-2.63 3.1-.95zm7.52 11.2a6.49 6.49 0 0 1-2.37-.42 5.6 5.6 0 0 1-1.86-1.19 5.26 5.26 0 0 1-1.22-1.8 6.12 6.12 0 0 1-.43-2.3 6.19 6.19 0 0 1 .43-2.3 5.26 5.26 0 0 1 1.22-1.8 5.55 5.55 0 0 1 1.86-1.17 6.29 6.29 0 0 1 2.37-.43 6.2 6.2 0 0 1 2.36.43 5.55 5.55 0 0 1 1.86 1.17 5.13 5.13 0 0 1 1.22 1.8 6 6 0 0 1 .43 2.3 5.93 5.93 0 0 1-.43 2.3 5.13 5.13 0 0 1-1.22 1.8 5.6 5.6 0 0 1-1.86 1.19 6.39 6.39 0 0 1-2.36.42zm0-2.86a2.7 2.7 0 0 0 1.08-.21 2.41 2.41 0 0 0 .84-.59 2.9 2.9 0 0 0 .56-.91 3.32 3.32 0 0 0 0-2.27 2.77 2.77 0 0 0-.57-.9 2.43 2.43 0 0 0-.85-.6 2.81 2.81 0 0 0-2.13 0 2.43 2.43 0 0 0-.85.6 2.77 2.77 0 0 0-.57.9 3.32 3.32 0 0 0 0 2.27 2.92 2.92 0 0 0 .57.91 2.55 2.55 0 0 0 .85.59 2.65 2.65 0 0 0 1.08.21zm-123.9-220h-2.66V215h8.7v2.86h-2.87V226H44.5zM56.66 215v11h-3.1v-8l-1.8.55-.7-2.62 3.08-1zm6.74 0v11h-3.1v-8l-1.8.55-.7-2.62 3.08-1zm93.77 158.47h-2.67v-2.86h8.7v2.86h-2.87v8.12h-3.16zm12.13-2.87v11h-3.1v-8l-1.8.55-.7-2.62 3.08-.95zm9.9 8.33v2.66H171v-1.12a3.74 3.74 0 0 1 .8-2.35 8.71 8.71 0 0 1 2.2-1.95l1-.65a4.2 4.2 0 0 0 .59-.46 1.35 1.35 0 0 0 .3-.37 1.1 1.1 0 0 0 .08-.43.94.94 0 0 0-.25-.72.9.9 0 0 0-.67-.24c-.63 0-.94.42-.94 1.26H171a4.1 4.1 0 0 1 1.11-3.06 4.89 4.89 0 0 1 6-.17 3.33 3.33 0 0 1 1 2.61 3.61 3.61 0 0 1-.18 1.2 3.36 3.36 0 0 1-.55.95 4.56 4.56 0 0 1-.9.84l-1.24.86-.94.6a6.55 6.55 0 0 0-.71.53zm18.74-124.55h-2.66v-2.86H204v2.86h-2.9v8.13h-3.16zm12.14-2.86v11H207v-8l-1.8.56-.7-2.63 3.1-.95zm8.24 5.38a2.82 2.82 0 0 1 1.24 1 2.67 2.67 0 0 1 .43 1.53 3 3 0 0 1-.3 1.34 3.14 3.14 0 0 1-.86 1 4.1 4.1 0 0 1-1.32.67 5.48 5.48 0 0 1-1.67.24 4.19 4.19 0 0 1-3-1 4 4 0 0 1-1.17-2.93h2.95a1.31 1.31 0 0 0 .31.86 1 1 0 0 0 .79.31 1.17 1.17 0 0 0 .81-.27.9.9 0 0 0 .31-.72.86.86 0 0 0-.29-.7 1.28 1.28 0 0 0-.83-.25h-1.06v-2.2h1c.73 0 1.1-.3 1.1-.9a.83.83 0 0 0-.28-.67 1.12 1.12 0 0 0-.76-.24 1.06 1.06 0 0 0-.79.29 1.12 1.12 0 0 0-.32.8h-2.9a4.58 4.58 0 0 1 .36-1.57 3.43 3.43 0 0 1 .86-1.19 3.64 3.64 0 0 1 1.3-.75 5.2 5.2 0 0 1 1.68-.26 5.29 5.29 0 0 1 1.58.23 3.62 3.62 0 0 1 1.22.64 2.89 2.89 0 0 1 .79 1 3 3 0 0 1 .28 1.29 2.49 2.49 0 0 1-1.44 2.45zm120.03 19.23h-2.66v-2.85h8.7v2.85h-2.87v8.13h-3.17zm12.15-2.85v11h-3.1v-8l-1.8.55-.7-2.63 3.08-.94z"/><path d="M361.25 282.6H360v1.66h-3.1v-1.66h-4.88v-2.4l4.6-6.92h3.4V280h1.2zm-6.2-2.6h2.2v-3.46zm-92.85-89.5h-2.66v-2.86h8.7v2.86h-2.87v8.13h-3.17zm12.15-2.86v11h-3.1v-8l-1.8.56-.7-2.63 3.08-1zm6.88 3.7a3.7 3.7 0 0 1 1.42.27 3.18 3.18 0 0 1 1.11.76 3.51 3.51 0 0 1 .73 1.17 4.13 4.13 0 0 1 .26 1.47 4 4 0 0 1-.3 1.58 3.29 3.29 0 0 1-.87 1.21 3.79 3.79 0 0 1-1.34.78 5.44 5.44 0 0 1-1.77.27 4.19 4.19 0 0 1-2.93-1 3.8 3.8 0 0 1-1.18-2.76h3a1.1 1.1 0 0 0 .37.72 1.05 1.05 0 0 0 .74.27 1.12 1.12 0 0 0 .85-.35 1.31 1.31 0 0 0 .32-.91 1.24 1.24 0 0 0-.33-.87 1.12 1.12 0 0 0-.84-.35 1.1 1.1 0 0 0-.57.15 1.15 1.15 0 0 0-.44.41h-2.84v-6.52h7.55v2.66h-4.62v1.4a3.75 3.75 0 0 1 1.68-.37zM179.7 415.3a76.61 76.61 0 0 1-13-1c-8.2-1.47-35.9-7.27-46.92-20.3-25.7-30.48-44.3-54.74-64.22-83.77-7.7-11.2-9.15-27.64-7.17-39 2.17-12.12 9.52-24.72 18.72-32.12l.17-.13 1.22-.9a68.85 68.85 0 0 1 33.7-13.1c10.86-1 26 2.48 35.12 12.45 6.8 7.35 10.6 18.57 11.63 34.26.65 10.08.13 20-.5 30.18l-.08 1.64c-.5 9.93-1 19.3 0 27.9A20.47 20.47 0 0 0 152 340a30.86 30.86 0 0 0 6.56 5.56c.5-.74 1.16-1.8 2-3.27l.08-.14a77.61 77.61 0 0 0 4.88-9.74l.35-.8c2.5-5.7 5.35-12.2 9.78-18.26A112.09 112.09 0 0 1 201 288.12c11.73-8.35 23.33-14.15 34.47-17.22 13.23-3.7 27-3.85 40-3.7a71.11 71.11 0 0 1 15.82 2.42l.23.06c2.6.64 6.76 1.68 8.94 1.56a15.68 15.68 0 0 0 5.43-3.69c1.8-2 3-4.56 4.52-9.34a20.75 20.75 0 0 0 .88-4.63c-1.48-2.85-4.23-6.27-7.13-9.86l-.52-.65a203.43 203.43 0 0 1-6.26-8c-6-8.35-7.08-18.63-2.85-26.85a22.05 22.05 0 0 1 20.05-11.9l36.87-.13 85.9.14 247 3c4.4.12 12.73-1.86 14.6-3 5.85-3.54 11.44-8.05 17.36-12.84l3.07-2.48c6.95-5.72 12.86-10.3 18.55-14.4l.1-.07c10-6.85 19.88-11.12 29.4-12.72 10.68-1.95 21.4-2 31.75-2h4.25c4 0 8.14-.07 12.14-.3a219.72 219.72 0 0 0 28.26-2.54c4.7-.87 9.68-2.34 14.5-3.76l1.06-.32c6.83-2 13.9-4.12 21.24-5.15l7.86-1.22c13.24-2 28.24-4.33 41.56-.35 10.88 3.16 15.23 12.83 17.82 18.6l.2.4c.36.8 1.18 2.54 1.6 3.27l.9.86A54.64 54.64 0 0 0 959 155l.88-.73a121.3 121.3 0 0 1 16.49-12.1 19.81 19.81 0 0 1 16.24-1.4c4.8 1.5 11.06 5.44 14.07 11.9a136.68 136.68 0 0 1 10.6 32.14c1.77 8.58.6 18.33-3 25.43-4.45 8.32-13 13.48-19.47 15.55a83.79 83.79 0 0 1-27.11 3.33h-.14c-9.85-.48-22.1-1.08-32.35-7-2.68-1.56-5.6-3.44-9.14-5.75l-.6-.38c-11.44-7.42-16-9.43-17.73-9.74L550.9 308.73c-1.4.42-3.52 1-6.22 1.73-5.94 1.6-23.12 6.27-28.1 9-.4 2.5-.8 5.07-1.45 7.73-1.3 6.1-3.75 17.34-15.46 25.17l-.1.07c-10.78 6.88-23.87 2.68-33.42-.4l-1-.34c-1-.32-2.28-.76-2.72-.83-14.64-1.8-28.22-1.78-46.92 0a108.58 108.58 0 0 0-20.33 3.67l-84.7 25.2-15.76 4.67-95.5 28.6c-5.47 1.62-12.74 2.3-19.5 2.3zM74.58 248.58c-6.93 5.6-12.7 15.56-14.34 24.8-1.56 8.88-.26 22.08 5.24 30.07h0c19.7 28.68 38.1 52.67 63.5 82.82 7.16 8.48 28.44 14.2 39.9 16.24 6.9 1.26 19.6 1.16 26.84-1L307 368.22l84.64-25.18a120.14 120.14 0 0 1 22.63-4.13c19.64-1.9 34-1.88 49.5 0a25.65 25.65 0 0 1 5.12 1.38l.9.3c7.66 2.47 17.2 5.54 23.23 1.74 7.08-4.76 8.94-11.1 10.35-17.74v-.15c.6-2.5 1-5.14 1.4-7.7l.16-1.06c.9-5.93 7.4-8.92 36.53-16.8l5.93-1.65L905 194.48c4.95-1.42 11.52 1.35 27 11.37l.6.4 8.63 5.43c7.73 4.48 17.92 5 26.92 5.42a71.11 71.11 0 0 0 23.07-2.78c4-1.28 9.72-4.6 12.43-9.68 2.38-4.62 3.15-11.5 1.92-17.45a125.64 125.64 0 0 0-9.7-29.45c-1.28-2.74-4.47-4.8-6.9-5.57a8 8 0 0 0-6.58.39c-5.34 3.08-10.15 7.07-14.8 10.93l-.7.58c-5.13 4.48-10.22 8.62-16 10.07l-1.85.46-1.8-.7c-1.57-.6-2.42-1.43-6-4.9l-.17-.17c-1.27-1.22-2.17-2.92-3.85-6.52l-.22-.48c-2.7-6-5.12-10.6-10.3-12.1-10.78-3.22-24.36-1.14-36.35.7l-7.92 1.23c-6.56.92-12.88 2.8-19.58 4.8l-1.1.32a156.3 156.3 0 0 1-15.77 4.06 231.28 231.28 0 0 1-29.73 2.74c-4.2.22-8.48.26-12.6.3h-4.32c-9.83 0-20 .07-29.72 1.84s-18.75 6.74-24.62 10.76c-5.45 3.9-11.14 8.33-17.9 13.9l-3.1 2.5c-6.25 5-12.15 9.82-18.72 13.8-4.5 2.7-15.34 4.83-21.05 4.7l-246.88-3h-4.15l-95.9-.14-22.6.1a10.13 10.13 0 0 0-9.41 5.4c-2.16 4.2-1.42 9.68 1.92 14.34 2 2.77 4.16 5.43 5.82 7.44l.56.7c3.75 4.64 7.3 9 9.24 13.54l.25.58.13.6c.55 2.74-.22 7.54-1.26 10.87-1.7 5.47-3.57 9.9-7.1 13.83l-.1.12c-2.92 3.1-8.07 6.72-12.5 7.4h-.3c-3.87.38-8.26-.6-13.18-1.83h-.15a60 60 0 0 0-13.19-2.1c-12.13-.14-24.94 0-36.66 3.27-9.8 2.7-20.14 7.9-30.72 15.43a101.64 101.64 0 0 0-22.66 22.56c-3.66 5-6.12 10.62-8.5 16l-.37.83a88.35 88.35 0 0 1-5.63 11.15c-3.8 6.42-5.6 8.18-7.65 9s-5.28 1.5-7.75.26l-.16-.08c-4.27-2.3-10.1-6.6-12.94-10.42a32.38 32.38 0 0 1-5.89-14.37c-1.1-9.62-.58-19.48-.05-29.92l.1-1.7c.6-9.82 1.1-19.35.5-28.72-.84-12.84-3.62-21.64-8.5-26.9-6.08-6.62-17.28-9.35-25.22-8.62a57.23 57.23 0 0 0-27.59 10.75zm442.3 68.95h0zM907.4 206.15zm.83-.12h0z"/></g><path d="M812.23 268.1a4.27 4.27 0 0 1-3-1 4 4 0 0 1-1.22-2.83h1.46a2.63 2.63 0 0 0 2.76 2.6 3 3 0 0 0 1.94-.57 1.91 1.91 0 0 0 .71-1.57 1.76 1.76 0 0 0-.41-1.23 3.83 3.83 0 0 0-1.43-.87l-1.8-.68a4.8 4.8 0 0 1-2.08-1.37 3.27 3.27 0 0 1-.65-2.08 3.11 3.11 0 0 1 .28-1.29 2.92 2.92 0 0 1 .78-1 3.68 3.68 0 0 1 1.19-.65 5.09 5.09 0 0 1 1.55-.23 4 4 0 0 1 2.75.91 3.51 3.51 0 0 1 1.12 2.5h-1.45a2.27 2.27 0 0 0-.69-1.56 2.47 2.47 0 0 0-1.73-.57 2.64 2.64 0 0 0-1.69.5 1.65 1.65 0 0 0-.65 1.36 2 2 0 0 0 .43 1.32 3.56 3.56 0 0 0 1.45.93l1.83.7a4.63 4.63 0 0 1 2 1.3 3 3 0 0 1 .62 2 3.53 3.53 0 0 1-.29 1.44 2.94 2.94 0 0 1-.82 1.09 3.62 3.62 0 0 1-1.29.69 5.56 5.56 0 0 1-1.68.16zm6.7-12.6h7.15v1.3h-5.72v4h5.54v1.3h-5.54v4.5h5.92v1.3h-7.35zm15.56 12.6a6.65 6.65 0 0 1-2.55-.48 6.33 6.33 0 0 1-2-1.35 6.14 6.14 0 0 1-1.34-2 6.85 6.85 0 0 1 0-5.09 6.1 6.1 0 0 1 1.34-2 6.26 6.26 0 0 1 2-1.35 6.64 6.64 0 0 1 2.54-.49 7 7 0 0 1 2.18.33 6 6 0 0 1 1.79.95 5.26 5.26 0 0 1 1.33 1.38 5.59 5.59 0 0 1 .74 1.91H839a4.48 4.48 0 0 0-.61-1.37 4.18 4.18 0 0 0-2.29-1.7 5.3 5.3 0 0 0-1.56-.23 4.85 4.85 0 0 0-1.95.39 4.63 4.63 0 0 0-1.57 1.06 5 5 0 0 0-1 1.61 5.22 5.22 0 0 0-.38 2 5.33 5.33 0 0 0 .38 2 5 5 0 0 0 1 1.6 4.66 4.66 0 0 0 1.57 1.07 4.85 4.85 0 0 0 1.95.39 4.62 4.62 0 0 0 2.86-.9 4.26 4.26 0 0 0 1.6-2.42h1.55a5.73 5.73 0 0 1-.74 1.92 5.3 5.3 0 0 1-1.32 1.47 5.77 5.77 0 0 1-1.79.94 7 7 0 0 1-2.19.36zm10.96-11.3h-3.67v-1.3h8.9v1.3h-3.78v11.1h-1.44zm12.66 11.3a6.59 6.59 0 0 1-2.53-.48 6.34 6.34 0 0 1-2-1.36 6.16 6.16 0 0 1-1.35-2 6.41 6.41 0 0 1-.49-2.53 6.5 6.5 0 0 1 .49-2.54 6.1 6.1 0 0 1 1.34-2 6.37 6.37 0 0 1 2-1.35 6.83 6.83 0 0 1 5.08 0 6.44 6.44 0 0 1 2 1.35 6.1 6.1 0 0 1 1.34 2 6.5 6.5 0 0 1 .49 2.54 6.41 6.41 0 0 1-.49 2.53 6.16 6.16 0 0 1-3.37 3.4 6.64 6.64 0 0 1-2.51.44zm0-1.34a4.9 4.9 0 0 0 2-.39 4.84 4.84 0 0 0 2.6-2.68 5.54 5.54 0 0 0 .36-2 5.22 5.22 0 0 0-.37-2 5.14 5.14 0 0 0-1-1.6 4.41 4.41 0 0 0-1.55-1.06 5.22 5.22 0 0 0-3.91 0 4.55 4.55 0 0 0-1.56 1.06 5.12 5.12 0 0 0-1 1.6 5.22 5.22 0 0 0-.38 2 5.34 5.34 0 0 0 .37 2 4.84 4.84 0 0 0 4.55 3.07zm9.1-11.26h3.85a4.08 4.08 0 0 1 2.87 1 3.46 3.46 0 0 1 1 2.65 3.64 3.64 0 0 1-.73 2.33 3.5 3.5 0 0 1-2 1.24l3.52 5.22h-1.7l-3.37-5.1h-2v5.1h-1.44zm3.76 6a2.57 2.57 0 0 0 1.82-.62 2.23 2.23 0 0 0 .67-1.74 2.26 2.26 0 0 0-.65-1.72 2.6 2.6 0 0 0-1.84-.61h-2.34v4.7zm19.5 5.1v1.3h-8.08v-.74a4.16 4.16 0 0 1 .33-1.7 5.12 5.12 0 0 1 .82-1.33 6.47 6.47 0 0 1 1.09-1l1.14-.77 1.38-.86a5.91 5.91 0 0 0 .93-.73 2.3 2.3 0 0 0 .53-.78 2.54 2.54 0 0 0 .16-1 2.27 2.27 0 0 0-.66-1.79 2.35 2.35 0 0 0-1.61-.59 2.33 2.33 0 0 0-1.77.71 2.6 2.6 0 0 0-.68 1.87h-1.47a4.16 4.16 0 0 1 .29-1.61 3.65 3.65 0 0 1 .79-1.25 3.3 3.3 0 0 1 1.22-.79 4.57 4.57 0 0 1 1.61-.28 4.72 4.72 0 0 1 1.53.25 3.28 3.28 0 0 1 2 1.89 4.17 4.17 0 0 1 .28 1.53 3.78 3.78 0 0 1-.25 1.41 3.86 3.86 0 0 1-.71 1.09 6.65 6.65 0 0 1-1.09.91l-1.36.9-1.16.77a6.67 6.67 0 0 0-.87.76 3.32 3.32 0 0 0-.6.82 3.14 3.14 0 0 0-.32 1z" opacity=".5" fill="#fff"/><path d="M662.3 140.82a4.24 4.24 0 0 1-3-1 3.92 3.92 0 0 1-1.23-2.83h1.46a2.65 2.65 0 0 0 2.76 2.6 3 3 0 0 0 1.94-.57 1.89 1.89 0 0 0 .72-1.57 1.77 1.77 0 0 0-.42-1.23 3.74 3.74 0 0 0-1.43-.87l-1.8-.68a4.86 4.86 0 0 1-2.08-1.37 3.27 3.27 0 0 1-.64-2.08 3.11 3.11 0 0 1 .27-1.29 3 3 0 0 1 .78-1 3.63 3.63 0 0 1 1.2-.65 5 5 0 0 1 1.54-.23 4 4 0 0 1 2.75.91 3.52 3.52 0 0 1 1.13 2.5h-1.46a2.27 2.27 0 0 0-.69-1.56 2.46 2.46 0 0 0-1.73-.58 2.64 2.64 0 0 0-1.69.51 1.65 1.65 0 0 0-.65 1.36 2 2 0 0 0 .44 1.32 3.62 3.62 0 0 0 1.44.93l1.83.7a4.71 4.71 0 0 1 2 1.29 3 3 0 0 1 .62 2 3.52 3.52 0 0 1-.28 1.44 3 3 0 0 1-.82 1.09 3.8 3.8 0 0 1-1.29.69 5.63 5.63 0 0 1-1.68.17zm6.7-12.6h7.15v1.3h-5.7v4H676v1.3h-5.53v4.5h5.9v1.3H669zm15.57 12.6a6.48 6.48 0 0 1-2.55-.49 6.25 6.25 0 0 1-2-1.34 6.14 6.14 0 0 1-1.34-2 6.85 6.85 0 0 1 0-5.09 6.1 6.1 0 0 1 1.34-2 6.37 6.37 0 0 1 2-1.35 6.68 6.68 0 0 1 2.54-.49 7 7 0 0 1 2.18.33 6.42 6.42 0 0 1 1.8.94 5.58 5.58 0 0 1 1.31 1.47 5.4 5.4 0 0 1 .74 1.91h-1.55a4.48 4.48 0 0 0-.61-1.37 4.18 4.18 0 0 0-2.29-1.7 5.25 5.25 0 0 0-1.56-.23 4.85 4.85 0 0 0-2 .39 4.73 4.73 0 0 0-1.57 1.06 5 5 0 0 0-1 1.61 5.22 5.22 0 0 0-.38 2 5.33 5.33 0 0 0 .38 2 5 5 0 0 0 1 1.6 4.76 4.76 0 0 0 1.57 1.07 4.85 4.85 0 0 0 2 .39 4.62 4.62 0 0 0 2.86-.9 4.26 4.26 0 0 0 1.6-2.42h1.55a5.52 5.52 0 0 1-.74 1.92 5.43 5.43 0 0 1-1.31 1.47 5.94 5.94 0 0 1-1.8.94 7 7 0 0 1-2.17.28zm10.95-11.3h-3.66v-1.3h8.88v1.3H697v11.1h-1.44zm12.68 11.3a6.46 6.46 0 0 1-2.54-.49 6 6 0 0 1-2-1.35 6.34 6.34 0 0 1-1.36-2 6.41 6.41 0 0 1-.49-2.53 6.5 6.5 0 0 1 .49-2.54 6.12 6.12 0 0 1 1.35-2 6.33 6.33 0 0 1 2-1.35 6.73 6.73 0 0 1 2.55-.49 6.59 6.59 0 0 1 2.53.49 6.33 6.33 0 0 1 2 1.35 6.1 6.1 0 0 1 1.34 2 6.5 6.5 0 0 1 .49 2.54 6.41 6.41 0 0 1-.49 2.53 6.29 6.29 0 0 1-1.34 2 6 6 0 0 1-2 1.35 6.41 6.41 0 0 1-2.53.49zm0-1.34a4.8 4.8 0 0 0 4.55-3.07 5.54 5.54 0 0 0 .37-2 5.22 5.22 0 0 0-.38-2 5.12 5.12 0 0 0-1-1.6 4.55 4.55 0 0 0-1.56-1.06 5.22 5.22 0 0 0-3.91 0 4.55 4.55 0 0 0-1.56 1.06 5.12 5.12 0 0 0-1 1.6 5.22 5.22 0 0 0-.38 2 5.54 5.54 0 0 0 .37 2 4.84 4.84 0 0 0 2.6 2.68 4.9 4.9 0 0 0 1.9.39zm9.1-11.26h3.85a4.06 4.06 0 0 1 2.87 1 3.46 3.46 0 0 1 1 2.65 3.64 3.64 0 0 1-.73 2.33 3.46 3.46 0 0 1-2 1.24l3.52 5.22h-1.7l-3.37-5.1h-2v5.1h-1.44zm3.76 6a2.62 2.62 0 0 0 1.83-.62 2.61 2.61 0 0 0 0-3.46 2.6 2.6 0 0 0-1.84-.61h-2.34v4.7zm15.07-6v12.4h-1.44V129.7l-2.36.74-.35-1.26 2.9-.95z" opacity=".5" fill="#fff"/><path d="M168 223.8a4.27 4.27 0 0 1-3-1.05 3.93 3.93 0 0 1-1.22-2.82h1.46a2.71 2.71 0 0 0 .82 1.88 2.74 2.74 0 0 0 1.94.71 3 3 0 0 0 1.94-.57 1.9 1.9 0 0 0 .71-1.56 1.77 1.77 0 0 0-.41-1.24 4 4 0 0 0-1.43-.87l-1.8-.68a4.71 4.71 0 0 1-2.08-1.37 3.26 3.26 0 0 1-.65-2.07 3 3 0 0 1 .28-1.29 2.86 2.86 0 0 1 .78-1 3.49 3.49 0 0 1 1.19-.64 4.8 4.8 0 0 1 1.55-.23 4 4 0 0 1 2.75.9 3.54 3.54 0 0 1 1.12 2.51h-1.45a2.27 2.27 0 0 0-.69-1.57 2.47 2.47 0 0 0-1.73-.57 2.7 2.7 0 0 0-1.69.5 1.65 1.65 0 0 0-.65 1.36 2.06 2.06 0 0 0 .43 1.33 3.66 3.66 0 0 0 1.45.92l1.83.7a4.63 4.63 0 0 1 2 1.3 3 3 0 0 1 .62 2 3.53 3.53 0 0 1-.29 1.44 3.06 3.06 0 0 1-.82 1.1 3.62 3.62 0 0 1-1.29.69 5.56 5.56 0 0 1-1.68.19zm6.73-12.6h7.15v1.3h-5.72v4h5.54v1.3h-5.54v4.5h5.92v1.3h-7.35zm15.57 12.6a6.66 6.66 0 0 1-2.55-.49 6.33 6.33 0 0 1-2-1.35 6.14 6.14 0 0 1-1.34-2 6.83 6.83 0 0 1 0-5.08 6.14 6.14 0 0 1 1.34-2 6.26 6.26 0 0 1 2-1.35 6.64 6.64 0 0 1 2.54-.48 7 7 0 0 1 2.18.33 5.77 5.77 0 0 1 1.79.94 5.26 5.26 0 0 1 1.32 1.46 5.59 5.59 0 0 1 .74 1.91h-1.55a4.42 4.42 0 0 0-.61-1.36 4.05 4.05 0 0 0-1-1 4.63 4.63 0 0 0-1.31-.67 5.3 5.3 0 0 0-1.56-.23 4.85 4.85 0 0 0-1.95.39 4.66 4.66 0 0 0-1.57 1.07 5 5 0 0 0-1 1.6 5.45 5.45 0 0 0 0 4 4.86 4.86 0 0 0 1 1.6 4.52 4.52 0 0 0 1.57 1.07 4.85 4.85 0 0 0 1.95.39 4.68 4.68 0 0 0 2.86-.89 4.31 4.31 0 0 0 1.6-2.43h1.55a5.73 5.73 0 0 1-.74 1.92 5.17 5.17 0 0 1-1.32 1.47 5.77 5.77 0 0 1-1.79.94 6.73 6.73 0 0 1-2.15.24zm10.95-11.3h-3.67v-1.3h8.9v1.3h-3.78v11.1h-1.44zm12.65 11.3a6.59 6.59 0 0 1-2.53-.49 6.34 6.34 0 0 1-2-1.36 6 6 0 0 1-1.35-2 6.8 6.8 0 0 1 0-5.07 6.14 6.14 0 0 1 1.34-2 6.37 6.37 0 0 1 2-1.35 7 7 0 0 1 5.08 0 6.44 6.44 0 0 1 2 1.35 6.14 6.14 0 0 1 1.34 2 6.8 6.8 0 0 1 0 5.07 6.14 6.14 0 0 1-1.34 2 6.3 6.3 0 0 1-2 1.36 6.64 6.64 0 0 1-2.54.49zm0-1.35a4.9 4.9 0 0 0 2-.39 4.57 4.57 0 0 0 1.56-1.07 4.75 4.75 0 0 0 1-1.61 5.54 5.54 0 0 0 .36-2 5.26 5.26 0 0 0-.37-2 5.14 5.14 0 0 0-1-1.6 4.41 4.41 0 0 0-1.55-1.06 5.22 5.22 0 0 0-3.91 0 4.55 4.55 0 0 0-1.56 1.06 5.12 5.12 0 0 0-1 1.6 5.26 5.26 0 0 0-.38 2 5.54 5.54 0 0 0 .37 2 4.88 4.88 0 0 0 1 1.61 4.71 4.71 0 0 0 1.57 1.07 4.85 4.85 0 0 0 1.91.39zm9.1-11.25h3.85a4 4 0 0 1 2.87 1 3.43 3.43 0 0 1 1 2.64 3.63 3.63 0 0 1-.73 2.33 3.56 3.56 0 0 1-2 1.25l3.52 5.2h-1.7l-3.37-5.08h-2v5.08H223zm3.76 6a2.57 2.57 0 0 0 1.82-.62 2.58 2.58 0 0 0 0-3.45 2.56 2.56 0 0 0-1.84-.61h-2.34v4.68zm17.6-.14a3.1 3.1 0 0 1 1.45 1.15 3.23 3.23 0 0 1 .51 1.84 3.57 3.57 0 0 1-.32 1.5 3.53 3.53 0 0 1-.86 1.19 4.12 4.12 0 0 1-1.32.78 4.76 4.76 0 0 1-1.67.29 4.67 4.67 0 0 1-1.62-.27 3.53 3.53 0 0 1-1.26-.78 3.32 3.32 0 0 1-.82-1.23 4.92 4.92 0 0 1-.34-1.63h1.46a2.66 2.66 0 0 0 .73 1.86 2.41 2.41 0 0 0 1.81.7 3.5 3.5 0 0 0 1.11-.17 2.68 2.68 0 0 0 .86-.49 2.09 2.09 0 0 0 .55-.76 2.38 2.38 0 0 0 .19-1 2.09 2.09 0 0 0-.72-1.69 3 3 0 0 0-2-.61h-1.24v-1.3h1.22a2.51 2.51 0 0 0 1.7-.53 2 2 0 0 0 .6-1.55 1.94 1.94 0 0 0-.59-1.5 2.33 2.33 0 0 0-1.66-.55 2.52 2.52 0 0 0-1.71.57 2 2 0 0 0-.7 1.51h-1.44a3.18 3.18 0 0 1 .33-1.37 3.59 3.59 0 0 1 .83-1.09 4 4 0 0 1 1.22-.71 4.39 4.39 0 0 1 1.53-.25 4.55 4.55 0 0 1 1.51.24 3.4 3.4 0 0 1 1.16.67 3.06 3.06 0 0 1 .75 1.05 3.49 3.49 0 0 1 .26 1.35 3.25 3.25 0 0 1-.39 1.63 3 3 0 0 1-1.12 1.14z" opacity=".5" fill="#fff"/><g fill="#fff"><path d="M501.84 181.6l-5.98-6.05-4.28-.03 5.98 6.06-6.08 6 4.28.03 6.08-6z" opacity=".8"/><path d="M509.02 181.56l-5.97-6.05-4.28-.03 5.98 6.06-6.08 6 4.28.02 6.07-6z" opacity=".9"/><path d="M516.32 181.65l-5.98-6.06-4.28-.02 5.98 6.05-6.08 6 4.28.03 6.08-6z"/><path d="M489.1 175.5l-4.28-.03 5.98 6.05-6.08 6 4.28.03 6.08-6-5.98-6.05z" opacity=".7"/><path d="M482.36 175.46l-4.28-.03 5.98 6.05-6.08 6 4.28.03 6.08-6-5.98-6.05z" opacity=".6"/></g><path d="M461.6 189.2v-4.26h4.26v4.27z" fill="#010101"/><path d="M465.86 189.25v-4.27h4.26v4.26z" fill="#fff"/><path d="M470.12 189.28v-4.26h4.26v4.27z" fill="#010101"/><path d="M461.63 185v-4.26h4.26V185zm8.53.06v-4.27h4.27v4.26z" fill="#fff"/><path d="M465.9 185.06v-4.26h4.27v4.27zm-4.23-4.3v-4.26h4.26v4.27z" fill="#010101"/><path d="M465.93 180.8v-4.27h4.27v4.26z" fill="#fff"/><path d="M470.2 180.83v-4.26h4.26v4.27z" fill="#010101"/><path d="M461.7 176.53v-4.26h4.26v4.26zm8.53.07v-4.27h4.27v4.26z" fill="#fff"/><path d="M466 176.6v-4.27h4.26v4.26zm-4.42-4.22v-4.26h4.26v4.27z" fill="#010101"/><path d="M465.85 172.42v-4.27h4.26v4.26z" fill="#fff"/><path d="M470.1 172.45v-4.26h4.27v4.27z" fill="#010101"/></svg>