<svg xmlns="http://www.w3.org/2000/svg" viewBox="0 0 1062.67 537.87"><g fill="#fff"><path d="M303.65 432.64v-.08q0-21.76 0-43.27v-58.1L304.1 151l.52-82.9c.12-7.22 6.2-13.47 9.8-16.55 4.52-3.86 11.56-3.37 15.35-2.74 5 .82 11.32 7 13.06 9.17a198.07 198.07 0 0 1 19.39 28.16 132.24 132.24 0 0 1 11.36 25.95 92.4 92.4 0 0 1 4.73 25.06l.22 16.43c0 11.77-.3 23.74-.6 35.3l-.6 35c0 7 .1 13.42.33 19.46a18 18 0 0 0 3.91 10.32c3.28 3.8 8.17 7 12.17 8 3.4.85 8.66.17 12.8-1.64a17.26 17.26 0 0 0 7.82-7.29c3.55-6.87 6.27-14.75 8.9-22.37 3.27-9.5 6.66-19.3 11.8-27.83 4.36-7.23 13.8-10.07 17.64-11 11.4-2.63 14.6-3.14 19-3.83l8.43-1.42 3.8-.74 29.44-6.17c34.26-7.88 71.27-15.54 110-22.76 6.75-1.26 13.8-.88 20.64-.53 6.48.34 12.6.67 17.8-.4 2.55-.53 4.42-2.82 7.25-6.52l.68-.9c5.93-7.68 11.5-16.1 16.86-24.24 7.73-11.7 15.72-23.82 25.13-34.28 5.92-6.6 15.36-10.1 22.22-11.2 6.26-1 14.2.8 20.18 4.55a40.49 40.49 0 0 1 14.79 17 64.77 64.77 0 0 1 5.55 28.52 685.43 685.43 0 0 1-11 89.61c-1 5.55-5.86 10.1-9.9 12-3 1.4-6.26 1-8.85.64a14.59 14.59 0 0 0-3.44-.22c-.67.1-1.37.18-2.08.27-1.7.2-4.52.54-5.12 1.23-15.17 17.53-28.07 35.4-37.32 51.66a25.87 25.87 0 0 0-3.39 11.9 11.56 11.56 0 0 0 .56 3.77c2.12 6.07 6.5 11.9 11.14 18 4.44 5.9 9 12 11.87 18.78a24.61 24.61 0 0 1 1.73 9.35 26.14 26.14 0 0 1-2.52 11.51c-3.6 7.14-11 12.7-16.66 16.13-7.8 4.73-16.3 8.5-24.53 12.17-10.06 4.48-19.57 8.7-27.85 14.52C641.34 404 636 411 632.14 419.6c-3.6 8-6 17.26-8.27 26.17-2.72 10.54-5.52 21.44-10.47 31-3.9 7.6-12.63 15.36-21.73 15.53a1410.55 1410.55 0 0 1-185-9c-4.46-.52-11.54-5.84-11.54-17.88v-.78c.37-9.1 2.75-18.27 5-27.14 1.92-7.4 3.9-15.07 4.6-22.4.75-7.7 1.1-14.6 1.1-21a118.49 118.49 0 0 0-1.62-21.09c-.35-1.93-3.42-5.4-6.3-7.15-1.78-1.07-5.38-1.33-8.95-.64-2.43.47-5.56 2.67-8 5.6s-4.5 7.83-4.63 11.07c-.2 4.85-.28 9.54-.28 14.32 0 6.43.16 12 .33 18 .23 7.95.47 16.22.27 26.43-.1 5-3.4 19.92-8.27 24.65-7.28 7.06-14.13 11.37-20.36 12.82-7.24 1.67-15.8-.77-21.4-3.62a42.71 42.71 0 0 1-16.83-15.36c-4.2-7.12-6.14-18.7-6.14-26.48zm10.15-43.35q0 21.54 0 43.3l-5.05.06h5.05c0 6.57 1.78 16.35 4.75 21.34a33.2 33.2 0 0 0 12.72 11.52c5 2.52 10.82 3.64 14.55 2.78 4.35-1 9.75-4.54 15.6-10.22 1.85-1.87 5.12-12.9 5.2-17.6.2-10 0-18.1-.27-26l-.33-18.3c0-4.92.1-9.73.28-14.7.25-6.28 3.66-13.1 6.93-17.1 3.93-4.8 9.1-8.2 13.86-9.12 2.94-.57 10.4-1.52 16.1 1.92 4.58 2.77 10 8.32 11 14A128.64 128.64 0 0 1 416 394.1c0 6.77-.37 14-1.15 22s-2.87 16.18-4.9 24c-2.26 8.74-4.4 17-4.72 25v.37c0 3.82 1.77 7.44 2.7 7.86a1403.15 1403.15 0 0 0 183.52 8.91c4.83-.1 10.48-5.3 12.94-10.07 4.42-8.57 7-18.45 9.66-28.9 2.4-9.32 4.87-18.95 8.84-27.8 4.6-10.27 11.15-18.73 18.4-23.82 9.07-6.37 19.48-11 29.54-15.47 7.94-3.53 16.14-7.2 23.4-11.6 6.34-3.85 10.92-8.12 12.87-12a16 16 0 0 0 1.45-7 14.64 14.64 0 0 0-1-5.45c-2.34-5.6-6.36-10.94-10.62-16.6-4.9-6.5-10-13.24-12.6-20.8a21.55 21.55 0 0 1-1.13-7.11 35.56 35.56 0 0 1 4.71-16.9c9.57-16.83 22.87-35.25 38.46-53.27 3.16-3.66 8-4.24 11.57-4.66l1.78-.23a21.92 21.92 0 0 1 6.27.2 12.67 12.67 0 0 0 3.3.2c1.86-.86 3.9-3.13 4.2-4.64a679 679 0 0 0 10.84-88.27 54.52 54.52 0 0 0-4.72-24 30.19 30.19 0 0 0-10.9-12.46c-3.86-2.43-9.4-3.74-13.2-3.13-6.48 1-12.88 4.17-16.3 8-8.9 9.9-16.68 21.7-24.2 33.1-5.48 8.3-11.14 16.87-17.3 24.85l-.66.86c-3.22 4.2-6.86 9-13.23 10.28s-13.54 1-20.38.6c-6.24-.33-12.7-.67-18.25.37-38.6 7.2-75.48 14.82-109.6 22.67-11.75 2.7-16.66 3.66-29.76 6.24l-3.86.75c-4 .74-6.55 1.13-8.74 1.48-4.37.68-7.26 1.14-18.32 3.7-4.18 1-9.33 3.13-11.26 6.32-4.6 7.6-7.66 16.5-10.9 25.9-2.75 8-5.6 16.2-9.5 23.72a27.29 27.29 0 0 1-12.73 11.91c-4.93 2.16-12.6 3.87-19.3 2.2-7.23-1.8-13.72-7-17.38-11.2a28.06 28.06 0 0 1-6.36-16.56c-.23-6.17-.34-12.66-.34-19.84 0-11.73.3-23.68.6-35.23l.6-35.05-.22-16.13a82.18 82.18 0 0 0-4.26-22.3 121.28 121.28 0 0 0-10.48-24A189.38 189.38 0 0 0 335 64.3c-1.6-2-5.57-5.17-6.94-5.56-3.67-.6-6.38-.08-7 .48-3.7 3.16-6.22 6.8-6.25 9l-.5 82.73v21l-.13 50.43-.3 108.77z"/><path d="M354.78 460.84a40.06 40.06 0 0 1-8.32-1.12 21.71 21.71 0 0 1-9.7-5.31l-.3-.26c-2.67-2.43-6-5.46-6.17-9.42-.4-8.3-.4-17.73-.4-26.05v-7.63c0-2.2.07-4.08.1-5.76.1-5.16.16-8.27 0-10.85-1.07-12.36-1.12-19-1.17-24.87a180.13 180.13 0 0 0-.94-18.92l-.35-3.33a115.78 115.78 0 0 1-.91-11.94l.4-58.37.43-76.43a198.89 198.89 0 0 0-1.68-21.9A202.92 202.92 0 0 1 324 157.2l-.63-28.68-.64-32c0-6.83-2.12-14.57-4-21.4-1.53-5.62-3-10.93-3.13-15.1l2-.07c.15 4 1.56 9.16 3.06 14.67 1.9 7 4 14.83 4.06 21.92 0 11.7.34 22 .63 31.94l.63 28.7a205.18 205.18 0 0 0 1.68 21.27 202.12 202.12 0 0 1 1.69 22.13l-.43 76.45-.4 58.36a112.85 112.85 0 0 0 .9 11.72l.35 3.34a181.5 181.5 0 0 1 1 19.1c0 5.83.1 12.44 1.16 24.73.2 2.68.14 5.83 0 11.05 0 1.67-.06 3.56-.1 5.73v7.62c0 8.3 0 17.72.4 25.95.16 3.16 3 5.77 5.54 8.07l.3.27a19.79 19.79 0 0 0 8.8 4.83c3.88.85 7.93 1.53 11.28.7 4.6-1.13 8.8-4.32 10.9-6.13a18.48 18.48 0 0 0 5.35-8.68c1.44-4.8 1.83-10.23 2.2-15.48l.15-2.05c.47-6.17-.2-13-.83-19.66-.34-3.58-.67-6.95-.83-10.24l2-.1c.16 3.24.48 6.6.82 10.15.65 6.7 1.32 13.66.84 20l-.15 2c-.4 5.35-.8 10.9-2.3 15.9a20.48 20.48 0 0 1-6 9.61c-2.23 1.92-6.7 5.32-11.7 6.54a15.79 15.79 0 0 1-3.81.48zM315.2 17.37h-2.66V14.5h8.7v2.86h-2.88v8.13h-3.16zm12.13-2.87v11h-3.1v-8l-1.8.56-.7-2.63 3.1-1zm63.84 279.28h-2.66v-2.86h8.7v2.86h-2.87v8.13h-3.17zm15.13 5.47v2.66h-8.2v-1.13a3.75 3.75 0 0 1 .8-2.34 8.89 8.89 0 0 1 2.2-1.95l1-.65a6.9 6.9 0 0 0 .6-.46 1.32 1.32 0 0 0 .29-.38 1.08 1.08 0 0 0 .08-.42 1 1 0 0 0-.24-.73.93.93 0 0 0-.67-.23c-.63 0-1 .4-1 1.25h-3.08a4.1 4.1 0 0 1 1.11-3.06 4.88 4.88 0 0 1 5.95-.17 3.3 3.3 0 0 1 1.05 2.61 3.6 3.6 0 0 1-.19 1.2 3.56 3.56 0 0 1-.55 1 5.55 5.55 0 0 1-.89.84l-1.25.85-.93.62a4.85 4.85 0 0 0-.71.53zM428.43 168h-2.67v-2.86h8.7V168h-2.87v8.13h-3.16zm13.47 2.54a2.94 2.94 0 0 1 1.24 1 2.74 2.74 0 0 1 .42 1.53 3 3 0 0 1-.3 1.34 2.93 2.93 0 0 1-.86 1 3.86 3.86 0 0 1-1.31.67 5.57 5.57 0 0 1-1.67.24 4.2 4.2 0 0 1-3-1 4.13 4.13 0 0 1-1.17-2.93h3a1.22 1.22 0 0 0 .31.86 1 1 0 0 0 .78.31 1.21 1.21 0 0 0 .82-.26 1 1 0 0 0 .31-.73.85.85 0 0 0-.3-.69 1.21 1.21 0 0 0-.83-.26h-1.06v-2.2h1c.73 0 1.1-.3 1.1-.9a.88.88 0 0 0-.28-.67 1.15 1.15 0 0 0-.77-.24 1 1 0 0 0-1.11 1.09h-2.9a4.36 4.36 0 0 1 .36-1.57 3.5 3.5 0 0 1 .85-1.19 4.06 4.06 0 0 1 1.3-.75 5.55 5.55 0 0 1 3.26 0 3.77 3.77 0 0 1 1.23.64 2.84 2.84 0 0 1 .78 1 2.9 2.9 0 0 1 .28 1.29 2.49 2.49 0 0 1-1.48 2.42zm221.62 13.6h-2.66v-2.85h8.7v2.85h-2.87v8.13h-3.17zm15.02 6.47h-1.2v1.66h-3.1v-1.66h-4.88v-2.4l4.58-6.92h3.4V188h1.2zm-6.2-2.6h2.2v-3.46zM735 51.42h-2.7v-2.85h8.7v2.85h-2.87v8.13H735zm12.07.84a3.67 3.67 0 0 1 1.42.27 3.24 3.24 0 0 1 1.12.75 3.68 3.68 0 0 1 .73 1.17 4.18 4.18 0 0 1 .26 1.48 3.79 3.79 0 0 1-.31 1.57 3.42 3.42 0 0 1-.86 1.22 3.67 3.67 0 0 1-1.35.77 5.37 5.37 0 0 1-1.76.27 4.21 4.21 0 0 1-2.94-1 3.77 3.77 0 0 1-1.17-2.76h3a1.19 1.19 0 0 0 .37.73 1.07 1.07 0 0 0 .74.27 1.1 1.1 0 0 0 .85-.36 1.25 1.25 0 0 0 .33-.9 1.18 1.18 0 0 0-.34-.87 1.08 1.08 0 0 0-.84-.35 1.15 1.15 0 0 0-.57.14 1.43 1.43 0 0 0-.44.41h-2.84v-6.5H750v2.66h-4.62v1.4a3.7 3.7 0 0 1 1.69-.37zM767.8 239.8h-2.66v-2.86h8.7v2.86H771v8.13h-3.16zm11.35.44a3.76 3.76 0 0 1 2.28 1.26 4 4 0 0 1 .67 1.15 4.16 4.16 0 0 1 .23 1.38 4 4 0 0 1-.33 1.61 4.33 4.33 0 0 1-.91 1.31 4.13 4.13 0 0 1-1.35.87 4.52 4.52 0 0 1-1.68.32 4.2 4.2 0 0 1-1.66-.33 4 4 0 0 1-1.34-.89 4.15 4.15 0 0 1-1.21-3 4.2 4.2 0 0 1 .06-.72 4.84 4.84 0 0 1 .21-.73 5.49 5.49 0 0 1 .4-.81l.63-1 2.5-3.74h3.64zm-1.08 5.1a1.22 1.22 0 0 0 .9-.36 1.29 1.29 0 0 0 .36-.93 1.23 1.23 0 0 0-1.26-1.27 1.2 1.2 0 0 0-.89.36 1.26 1.26 0 0 0-.35.91 1.33 1.33 0 0 0 .35.93 1.2 1.2 0 0 0 .89.36zm-75.54-41.74h-2.66v-2.85h8.7v2.85h-2.87v8.13h-3.17zm14.72-2.84v2.6l-4 8.4h-3.38l4.1-8.2h-4.6v-2.8zm-60.17 87.77h-2.66v-2.86h8.7v2.86h-2.87v8.13h-3.17zm14.02 2.37a2.81 2.81 0 0 1 1.55 2.66 3 3 0 0 1-.3 1.36 2.66 2.66 0 0 1-.85 1 4.15 4.15 0 0 1-1.35.66 6.2 6.2 0 0 1-1.79.24 5.08 5.08 0 0 1-3.15-.88 2.92 2.92 0 0 1-1.13-2.42 3.07 3.07 0 0 1 .39-1.59 2.88 2.88 0 0 1 1.14-1.07 2.76 2.76 0 0 1-1-1 2.64 2.64 0 0 1-.34-1.36 2.79 2.79 0 0 1 .28-1.27 2.85 2.85 0 0 1 .82-1 4.08 4.08 0 0 1 1.29-.63 5.91 5.91 0 0 1 1.69-.22 5.84 5.84 0 0 1 1.68.22 3.88 3.88 0 0 1 1.29.63 2.75 2.75 0 0 1 .82 1 2.79 2.79 0 0 1 .29 1.27 2.65 2.65 0 0 1-.35 1.36 2.76 2.76 0 0 1-.98 1.04zm-2.74 3.64a1.19 1.19 0 0 0 .85-.31 1.08 1.08 0 0 0 .34-.82 1.12 1.12 0 0 0-.33-.84 1.15 1.15 0 0 0-.85-.33 1.18 1.18 0 0 0-.87.33 1.19 1.19 0 0 0-.34.86 1 1 0 0 0 .34.81 1.23 1.23 0 0 0 .86.3zm0-6.77a1.1 1.1 0 0 0-.78.28.93.93 0 0 0-.31.73 1 1 0 1 0 2.15 0 1 1 0 0 0-.29-.73 1.06 1.06 0 0 0-.76-.28zm58.04 85.03h-2.66V370h8.7v2.85h-2.87v8.13h-3.17zm9.96 4.84a3.68 3.68 0 0 1-2.28-1.26 3.78 3.78 0 0 1-.67-1.15 3.93 3.93 0 0 1-.24-1.38 3.83 3.83 0 0 1 .34-1.62 4.09 4.09 0 0 1 .9-1.3 4.25 4.25 0 0 1 1.36-.88 4.44 4.44 0 0 1 1.68-.31 4.2 4.2 0 0 1 1.66.32 4.25 4.25 0 0 1 1.33.89 4 4 0 0 1 .89 1.33 4.12 4.12 0 0 1 .33 1.65 3.38 3.38 0 0 1-.07.72 3.61 3.61 0 0 1-.21.72 6.18 6.18 0 0 1-.4.83q-.26.44-.63 1l-2.5 3.74h-3.64zm1.07-5.1a1.23 1.23 0 0 0-.9.37 1.38 1.38 0 0 0 0 1.84 1.22 1.22 0 0 0 .9.36 1.18 1.18 0 0 0 .89-.36 1.38 1.38 0 0 0 0-1.84 1.19 1.19 0 0 0-.89-.37zm-93.17 50.63h-2.66v-2.86h8.7v2.86h-2.87v8.13h-3.17zm12.14-2.87v11h-3.1v-8l-1.8.56-.7-2.63 3.08-.95zm7.5 11.2a6.39 6.39 0 0 1-2.36-.42 5.6 5.6 0 0 1-1.86-1.19 5.22 5.22 0 0 1-1.22-1.8 5.93 5.93 0 0 1-.43-2.3 6 6 0 0 1 .43-2.3 5.13 5.13 0 0 1 1.22-1.8 5.55 5.55 0 0 1 1.86-1.17 6.2 6.2 0 0 1 2.36-.43 6.29 6.29 0 0 1 2.37.43 5.55 5.55 0 0 1 1.86 1.17 5.26 5.26 0 0 1 1.22 1.8 6.19 6.19 0 0 1 .43 2.3 6.12 6.12 0 0 1-.43 2.3 5.36 5.36 0 0 1-1.22 1.8 5.6 5.6 0 0 1-1.86 1.19 6.49 6.49 0 0 1-2.37.42zm0-2.86a2.74 2.74 0 0 0 1.08-.21 2.61 2.61 0 0 0 .84-.59 2.88 2.88 0 0 0 .55-.91 3.17 3.17 0 0 0 0-2.27 2.59 2.59 0 0 0-.56-.9 2.43 2.43 0 0 0-.85-.6 2.67 2.67 0 0 0-1.06-.21 2.74 2.74 0 0 0-1.08.21 2.53 2.53 0 0 0-.85.6 2.74 2.74 0 0 0-.56.9 3.32 3.32 0 0 0 0 2.27 2.9 2.9 0 0 0 .56.91 2.65 2.65 0 0 0 .85.59 2.74 2.74 0 0 0 1.1.21zm-61.1 83.56h-2.66v-2.86h8.7v2.86H606v8.12h-3.2zm12.14-2.85v11h-3.1v-8l-1.8.55-.7-2.62 3.1-.95zm6.74 0v11h-3.1v-8l-1.8.55-.7-2.62 3.1-.95zm-239.28-7.07h-2.66v-2.86h8.7v2.86h-2.88v8.12h-3.16zm12.13-2.86v11h-3.1v-8l-1.8.55-.7-2.62 3.1-.95zm9.9 8.32v2.66h-8.2v-1.12a3.69 3.69 0 0 1 .8-2.34 8.5 8.5 0 0 1 2.2-1.95l1-.66a5.2 5.2 0 0 0 .59-.45 1.34 1.34 0 0 0 .3-.38 1.08 1.08 0 0 0 .08-.42 1 1 0 0 0-.24-.73.93.93 0 0 0-.67-.24c-.64 0-.95.42-.95 1.26h-3.1a4.1 4.1 0 0 1 1.11-3.06 4.89 4.89 0 0 1 6-.17 3.3 3.3 0 0 1 1.05 2.61 3.6 3.6 0 0 1-.19 1.2 3.36 3.36 0 0 1-.55.95 4.56 4.56 0 0 1-.9.84c-.35.27-.77.56-1.24.86l-.94.6a7.71 7.71 0 0 0-.71.53zm-5.36-173.6h-2.66v-2.85h8.7v2.85h-2.87v8.13h-3.17zm12.14-2.85v11h-3.1v-8l-1.8.55-.7-2.63 3.08-.94zm8.25 5.37a2.88 2.88 0 0 1 1.24 1 2.73 2.73 0 0 1 .42 1.52 2.92 2.92 0 0 1-1.16 2.38 4 4 0 0 1-1.31.67 5.53 5.53 0 0 1-1.67.23 4.23 4.23 0 0 1-3-1 4.05 4.05 0 0 1-1.16-2.92h2.95a1.23 1.23 0 0 0 .31.86 1 1 0 0 0 .78.31 1.21 1.21 0 0 0 .82-.27.9.9 0 0 0 .31-.73.88.88 0 0 0-.29-.69 1.26 1.26 0 0 0-.84-.25h-1.06v-2.2h1c.73 0 1.1-.3 1.1-.9a.82.82 0 0 0-.28-.67 1.25 1.25 0 0 0-1.56.05 1.11 1.11 0 0 0-.32.8h-2.9a4.36 4.36 0 0 1 .36-1.57 3.32 3.32 0 0 1 .85-1.19 3.73 3.73 0 0 1 1.3-.75 4.94 4.94 0 0 1 1.68-.26 5.32 5.32 0 0 1 1.59.22 3.74 3.74 0 0 1 1.22.65 2.8 2.8 0 0 1 .78 1 2.9 2.9 0 0 1 .28 1.29 2.49 2.49 0 0 1-1.44 2.42zM326 503.36h-2.7v-2.86h8.7v2.86h-2.87v8.12H326zm12.1-2.86v11H335v-8l-1.8.55-.7-2.63 3.1-.94zm10.76 9.32h-1.2v1.66h-3.1v-1.66h-4.88v-2.4l4.6-6.92h3.4v6.76h1.2zm-6.2-2.56h2.2v-3.46z"/></g><path d="M445.93 377.44a4.27 4.27 0 0 1-3-1 3.94 3.94 0 0 1-1.22-2.83h1.46a2.63 2.63 0 0 0 2.76 2.6 3 3 0 0 0 1.94-.57 1.91 1.91 0 0 0 .71-1.57 1.76 1.76 0 0 0-.41-1.23 3.83 3.83 0 0 0-1.43-.87l-1.8-.68a4.8 4.8 0 0 1-2.08-1.37 3.27 3.27 0 0 1-.65-2.08 3.11 3.11 0 0 1 .28-1.29 2.92 2.92 0 0 1 .78-1 3.68 3.68 0 0 1 1.19-.65 5.09 5.09 0 0 1 1.55-.23 4 4 0 0 1 2.75.91 3.51 3.51 0 0 1 1.12 2.5h-1.45a2.27 2.27 0 0 0-.69-1.56 2.48 2.48 0 0 0-1.73-.58 2.64 2.64 0 0 0-1.69.51 1.65 1.65 0 0 0-.65 1.36 2 2 0 0 0 .43 1.32 3.63 3.63 0 0 0 1.45.93l1.83.7a4.63 4.63 0 0 1 2 1.3 3 3 0 0 1 .62 2 3.53 3.53 0 0 1-.29 1.44 2.94 2.94 0 0 1-.82 1.09 3.62 3.62 0 0 1-1.29.69 5.56 5.56 0 0 1-1.68.16zm6.7-12.6h7.15v1.3h-5.72v4h5.54v1.3h-5.54v4.5H460v1.3h-7.35zm15.56 12.6a6.48 6.48 0 0 1-2.55-.49 6.06 6.06 0 0 1-3.37-3.37 6.85 6.85 0 0 1 0-5.09 6.1 6.1 0 0 1 1.34-2 6.26 6.26 0 0 1 2-1.35 6.64 6.64 0 0 1 2.54-.49 6.73 6.73 0 0 1 2.18.34 6 6 0 0 1 1.79.93 5.45 5.45 0 0 1 1.32 1.47 5.59 5.59 0 0 1 .74 1.91h-1.55a4.59 4.59 0 0 0-.61-1.37 4.18 4.18 0 0 0-2.29-1.7 5.3 5.3 0 0 0-1.56-.23 4.85 4.85 0 0 0-2 .39 4.52 4.52 0 0 0-1.57 1.07 4.86 4.86 0 0 0-1 1.6 5.22 5.22 0 0 0-.38 2 5.33 5.33 0 0 0 .38 2 5 5 0 0 0 1 1.6 4.66 4.66 0 0 0 1.57 1.07 4.85 4.85 0 0 0 2 .39 4.62 4.62 0 0 0 2.86-.9 4.26 4.26 0 0 0 1.6-2.42h1.55a5.73 5.73 0 0 1-.74 1.92 5.17 5.17 0 0 1-1.32 1.47 5.77 5.77 0 0 1-1.79.94 7 7 0 0 1-2.14.31zm10.96-11.3h-3.67v-1.3h8.9v1.3h-3.78v11.1h-1.44zm12.66 11.3a6.41 6.41 0 0 1-2.53-.49 6.13 6.13 0 0 1-3.39-3.39 6.41 6.41 0 0 1-.49-2.53 6.5 6.5 0 0 1 .49-2.54 6.1 6.1 0 0 1 1.34-2 6.37 6.37 0 0 1 2-1.35 6.83 6.83 0 0 1 5.08 0 6.44 6.44 0 0 1 2 1.35 6.1 6.1 0 0 1 1.34 2 6.5 6.5 0 0 1 .49 2.54 6.41 6.41 0 0 1-.49 2.53 6.29 6.29 0 0 1-1.34 2 6.11 6.11 0 0 1-2 1.35 6.46 6.46 0 0 1-2.5.53zm0-1.34a4.9 4.9 0 0 0 2-.39 4.84 4.84 0 0 0 2.6-2.68 5.54 5.54 0 0 0 .36-2 5.22 5.22 0 0 0-.37-2 5 5 0 0 0-1-1.6 4.41 4.41 0 0 0-1.55-1.06 5.22 5.22 0 0 0-3.91 0 4.55 4.55 0 0 0-1.56 1.06 5.12 5.12 0 0 0-1 1.6 5.22 5.22 0 0 0-.38 2 5.54 5.54 0 0 0 .37 2 4.84 4.84 0 0 0 4.55 3.07zm9.1-11.26h3.85a4.08 4.08 0 0 1 2.87 1 3.46 3.46 0 0 1 1 2.65 3.64 3.64 0 0 1-.73 2.33 3.56 3.56 0 0 1-2 1.25l3.52 5.2h-1.7l-3.37-5.1h-2v5.1h-1.44zm3.76 6a2.57 2.57 0 0 0 1.82-.62 2.23 2.23 0 0 0 .67-1.74 2.26 2.26 0 0 0-.65-1.72 2.6 2.6 0 0 0-1.84-.6h-2.34v4.68zm17.58-.14a3.1 3.1 0 0 1 1.45 1.15 3.22 3.22 0 0 1 .51 1.83 3.62 3.62 0 0 1-.32 1.51 3.49 3.49 0 0 1-.86 1.18 4 4 0 0 1-1.32.79 4.76 4.76 0 0 1-1.67.28 4.91 4.91 0 0 1-1.62-.26 3.48 3.48 0 0 1-2.08-2 4.92 4.92 0 0 1-.34-1.63h1.46a2.66 2.66 0 0 0 .73 1.86 2.45 2.45 0 0 0 1.81.7 3.23 3.23 0 0 0 1.11-.18 2.51 2.51 0 0 0 .86-.49 2.06 2.06 0 0 0 .55-.75 2.41 2.41 0 0 0 .19-1A2.09 2.09 0 0 0 522 372a3 3 0 0 0-2-.61h-1.24v-1.3H520a2.46 2.46 0 0 0 1.7-.54 2 2 0 0 0 .6-1.54 2 2 0 0 0-.59-1.51 2.37 2.37 0 0 0-1.71-.5 2.52 2.52 0 0 0-1.71.57 2 2 0 0 0-.7 1.51h-1.44a3.18 3.18 0 0 1 .33-1.37 3.47 3.47 0 0 1 .83-1.09 3.88 3.88 0 0 1 1.22-.71 4.38 4.38 0 0 1 1.53-.26 4.55 4.55 0 0 1 1.51.24 3.42 3.42 0 0 1 1.16.68 3 3 0 0 1 .75 1.05 3.32 3.32 0 0 1 .26 1.35 3.25 3.25 0 0 1-.39 1.63 3.16 3.16 0 0 1-1.08 1.1z" opacity=".5" fill="#fff"/><path d="M742.72 328.27a4.29 4.29 0 0 1-3-1 3.94 3.94 0 0 1-1.23-2.83h1.46a2.72 2.72 0 0 0 .83 1.88 2.67 2.67 0 0 0 1.93.72 3 3 0 0 0 1.94-.57 1.91 1.91 0 0 0 .72-1.57 1.77 1.77 0 0 0-.42-1.24 4 4 0 0 0-1.43-.86l-1.8-.68a4.78 4.78 0 0 1-2.08-1.38 3.24 3.24 0 0 1-.64-2.07 3 3 0 0 1 .27-1.29 3.08 3.08 0 0 1 .78-1 3.62 3.62 0 0 1 1.2-.64 5 5 0 0 1 1.54-.23 4 4 0 0 1 2.75.9 3.5 3.5 0 0 1 1.12 2.51h-1.45a2.27 2.27 0 0 0-.69-1.57 2.46 2.46 0 0 0-1.73-.57 2.64 2.64 0 0 0-1.69.51 1.64 1.64 0 0 0-.65 1.35 2 2 0 0 0 .44 1.33 3.61 3.61 0 0 0 1.44.92l1.83.7a4.72 4.72 0 0 1 2 1.3 3 3 0 0 1 .62 2 3.52 3.52 0 0 1-.28 1.44 3.08 3.08 0 0 1-.82 1.1 3.8 3.8 0 0 1-1.29.69 5.63 5.63 0 0 1-1.68.15zm6.7-12.6h7.15V317h-5.7v4h5.53v1.3h-5.53v4.52h5.9v1.3h-7.35zm15.57 12.6a6.48 6.48 0 0 1-2.55-.49 6.06 6.06 0 0 1-3.37-3.37 6.49 6.49 0 0 1-.49-2.56 6.41 6.41 0 0 1 .49-2.53 6 6 0 0 1 3.38-3.37 6.5 6.5 0 0 1 2.54-.49 7 7 0 0 1 2.18.33 5.94 5.94 0 0 1 1.8.94 5.43 5.43 0 0 1 1.31 1.47 5.35 5.35 0 0 1 .74 1.9h-1.55a4.53 4.53 0 0 0-.61-1.36 4 4 0 0 0-1-1 4.5 4.5 0 0 0-1.31-.67 5.3 5.3 0 0 0-1.56-.23 4.85 4.85 0 0 0-1.95.39 4.92 4.92 0 0 0-1.57 1.07 5.08 5.08 0 0 0-1 1.6 5.45 5.45 0 0 0 0 4 5 5 0 0 0 1 1.61 4.92 4.92 0 0 0 1.57 1.07 5 5 0 0 0 1.95.38 4.62 4.62 0 0 0 2.86-.89 4.29 4.29 0 0 0 1.6-2.42H771a5.7 5.7 0 0 1-2 3.39 6.17 6.17 0 0 1-1.8.94 7 7 0 0 1-2.2.29zM776 317h-3.67v-1.3h8.9v1.3h-3.78v11.1H776zm12.62 11.27a6.48 6.48 0 0 1-5.93-8.95 6.12 6.12 0 0 1 3.38-3.37 6.55 6.55 0 0 1 2.55-.49 6.41 6.41 0 0 1 2.53.49 6.06 6.06 0 0 1 3.37 3.37 6.8 6.8 0 0 1 0 5.07 6.1 6.1 0 0 1-3.37 3.39 6.41 6.41 0 0 1-2.53.49zm0-1.35a4.82 4.82 0 0 0 3.52-1.45 4.93 4.93 0 0 0 1-1.62 5.52 5.52 0 0 0 .37-2 5.21 5.21 0 0 0-1.41-3.6 4.69 4.69 0 0 0-1.56-1.06 5.22 5.22 0 0 0-3.91 0 4.69 4.69 0 0 0-1.56 1.06 5.21 5.21 0 0 0-1.41 3.6 5.52 5.52 0 0 0 .37 2 4.8 4.8 0 0 0 1 1.62 4.87 4.87 0 0 0 1.56 1.07 5.07 5.07 0 0 0 2.03.38zm9.1-11.26h3.85a4 4 0 0 1 2.87 1 3.44 3.44 0 0 1 1 2.64 3.65 3.65 0 0 1-.73 2.34 3.51 3.51 0 0 1-2 1.24l3.52 5.22h-1.7l-3.35-5.1h-2v5.1h-1.44zm3.76 6a2.57 2.57 0 0 0 1.83-.62 2.26 2.26 0 0 0 .66-1.74 2.24 2.24 0 0 0-.65-1.71 2.56 2.56 0 0 0-1.84-.61h-2.34v4.68zm19.52 5.1v1.3h-8.07v-.74a4.21 4.21 0 0 1 .32-1.71 5.06 5.06 0 0 1 .82-1.32 6.23 6.23 0 0 1 1.1-1l1.13-.76q.8-.5 1.38-.87a5.38 5.38 0 0 0 .93-.73 2.27 2.27 0 0 0 .53-.77 2.63 2.63 0 0 0 .16-1 2.29 2.29 0 0 0-.66-1.79 2.53 2.53 0 0 0-3.38.12 2.62 2.62 0 0 0-.67 1.87h-1.48a4.39 4.39 0 0 1 .29-1.61 3.61 3.61 0 0 1 .79-1.24 3.34 3.34 0 0 1 1.22-.79 4.35 4.35 0 0 1 1.61-.28 4.47 4.47 0 0 1 1.53.25 3.22 3.22 0 0 1 2 1.89 4.09 4.09 0 0 1 .28 1.53 3.78 3.78 0 0 1-.25 1.41 3.49 3.49 0 0 1-.71 1.08 6.69 6.69 0 0 1-1.09.92l-1.36.88-1.15.77a6.79 6.79 0 0 0-.88.76 3.51 3.51 0 0 0-.6.82 3.29 3.29 0 0 0-.32 1z" opacity=".5" fill="#fff"/><path d="M418 80a4.27 4.27 0 0 1-3-1 4 4 0 0 1-1.22-2.83h1.45a2.74 2.74 0 0 0 .83 1.88 2.71 2.71 0 0 0 1.94.72 3 3 0 0 0 1.93-.57 1.89 1.89 0 0 0 .72-1.57 1.79 1.79 0 0 0-.41-1.23 3.91 3.91 0 0 0-1.43-.87l-1.8-.7a4.8 4.8 0 0 1-2-1.37 3.27 3.27 0 0 1-.65-2.08 3.11 3.11 0 0 1 .28-1.29 2.8 2.8 0 0 1 .77-1 3.74 3.74 0 0 1 1.2-.65 5 5 0 0 1 1.55-.23 4 4 0 0 1 2.75.91 3.51 3.51 0 0 1 1.12 2.5h-1.45a2.28 2.28 0 0 0-.7-1.56 2.39 2.39 0 0 0-1.72-.58 2.67 2.67 0 0 0-1.7.51 1.64 1.64 0 0 0-.64 1.36 2 2 0 0 0 .43 1.32 3.55 3.55 0 0 0 1.45.92l1.82.7a4.7 4.7 0 0 1 2 1.3 3.05 3.05 0 0 1 .62 2 3.56 3.56 0 0 1-.29 1.44 2.94 2.94 0 0 1-.82 1.09 3.62 3.62 0 0 1-1.29.69 5.56 5.56 0 0 1-1.73.2zm6.75-12.6h7.15v1.3h-5.72v4h5.53V74h-5.53v4.5h5.92v1.3h-7.35zM440.32 80a6.48 6.48 0 0 1-2.55-.49 6.14 6.14 0 0 1-2-1.34 6.33 6.33 0 0 1-1.35-2 7 7 0 0 1 0-5.09 6.18 6.18 0 0 1 3.39-3.37 6.64 6.64 0 0 1 2.54-.49 7 7 0 0 1 2.17.33 6.15 6.15 0 0 1 1.8.94 5.8 5.8 0 0 1 1.32 1.47 5.59 5.59 0 0 1 .74 1.91h-1.58a4.73 4.73 0 0 0-.61-1.37 4.25 4.25 0 0 0-1-1 4.2 4.2 0 0 0-1.3-.66 5 5 0 0 0-1.56-.23 5.11 5.11 0 0 0-2 .38 4.87 4.87 0 0 0-1.51 1.01 5.15 5.15 0 0 0-1.42 3.6 5.14 5.14 0 0 0 .38 2 5 5 0 0 0 1 1.6 4.72 4.72 0 0 0 1.56 1.07 4.93 4.93 0 0 0 2 .39 4.65 4.65 0 0 0 2.86-.9 4.31 4.31 0 0 0 1.6-2.42h1.55a5.73 5.73 0 0 1-.74 1.92 5.64 5.64 0 0 1-1.32 1.47 5.71 5.71 0 0 1-1.8.94 7 7 0 0 1-2.17.33zm10.95-11.3h-3.67v-1.3h8.9v1.3h-3.78v11.1h-1.44zM463.93 80a6.41 6.41 0 0 1-2.53-.49 6.13 6.13 0 0 1-3.4-3.38 6.8 6.8 0 0 1 0-5.07 6.1 6.1 0 0 1 1.34-2 6.26 6.26 0 0 1 2-1.35 6.83 6.83 0 0 1 5.08 0 6.28 6.28 0 0 1 2 1.35 6.12 6.12 0 0 1 1.35 2 6.8 6.8 0 0 1 0 5.07 6.32 6.32 0 0 1-1.35 2 6 6 0 0 1-2 1.35 6.46 6.46 0 0 1-2.49.52zm0-1.34a4.93 4.93 0 0 0 2-.39 4.84 4.84 0 0 0 2.6-2.68 5.57 5.57 0 0 0 .36-2 5.22 5.22 0 0 0-.37-2 5 5 0 0 0-1-1.6 4.41 4.41 0 0 0-1.55-1.06 4.93 4.93 0 0 0-2-.38 4.85 4.85 0 0 0-1.95.38 4.55 4.55 0 0 0-1.6 1.07 5 5 0 0 0-1 1.6 5.22 5.22 0 0 0-.38 2 5.37 5.37 0 0 0 .37 2 4.76 4.76 0 0 0 2.6 2.68 4.85 4.85 0 0 0 1.92.39zM473 67.4h3.85a4.08 4.08 0 0 1 2.87 1 3.46 3.46 0 0 1 1 2.65 3.7 3.7 0 0 1-.73 2.33 3.55 3.55 0 0 1-2 1.24l3.52 5.22h-1.7l-3.38-5.1h-2v5.1H473zm3.76 6a2.57 2.57 0 0 0 1.82-.62 2.63 2.63 0 0 0 0-3.46 2.6 2.6 0 0 0-1.84-.61h-2.34v4.7zm15.1-6v12.4h-1.43V68.88l-2.36.74-.35-1.26 2.9-1z" opacity=".5" fill="#fff"/><g fill="#fff"><path d="M285.33 282.1l-5.8 5.7-.03 4.1 5.8-5.7 5.72 5.82.04-4.1-5.73-5.82z" opacity=".8"/><path d="M285.32 275.23l-5.8 5.7-.04 4.1 5.8-5.7 5.72 5.82.03-4.1-5.72-5.82z" opacity=".9"/><path d="M285.4 268.25l-5.8 5.7-.04 4.1 5.8-5.7 5.72 5.82.04-4.1-5.73-5.83z"/><path d="M279.47 294.25l-.03 4.1 5.8-5.7 5.72 5.82.04-4.1-5.72-5.82-5.8 5.7z" opacity=".7"/><path d="M279.42 300.7l-.04 4.1 5.8-5.7 5.7 5.83.04-4.1-5.72-5.82-5.8 5.7z" opacity=".6"/></g><path d="M299.53 320.58h-4.07v-4.08h4.07z" fill="#010101"/><path d="M299.57 316.5h-4.07v-4.08l4.08.05z" fill="#fff"/><path d="M299.62 312.43l-4.08-.05v-4.07h4.08z" fill="#010101"/><path d="M295.5 320.53h-4.08v-4.07h4.07zm.08-8.15h-4.08v-4.07h4.08z" fill="#fff"/><path d="M295.57 316.46h-4.08v-4.07l4.08.05zm-4.12 4.04h-4.07v-4.07h4.07z" fill="#010101"/><path d="M291.5 316.4h-4.07v-4.08h4.07z" fill="#fff"/><path d="M291.53 312.34h-4.07v-4.07h4.08z" fill="#010101"/><path d="M287.4 320.45h-4.08l.05-4.08 4.07.05zm.1-8.15h-4.08v-4.08h4.08z" fill="#fff"/><path d="M287.5 316.37h-4.08v-4.07h4.07zm-4.06 4.18h-4.08l.05-4.07h4.07z" fill="#010101"/><path d="M283.48 316.48h-4.07v-4.08h4.08z" fill="#fff"/><path d="M283.53 312.4h-4.08v-4.08h4.08z" fill="#010101"/></svg>