<svg xmlns="http://www.w3.org/2000/svg" viewBox="0 0 1062.67 537.87"><style><![CDATA[.I{fill:#fff}.J{fill:#010101}.K{opacity:.3}]]></style><g class="I"><path d="M337.57 467.38c-22.57 0-53.2-2.15-71.46-8.2-19.7-6.54-39.68-22.07-45.34-26.68-14.32-11.66-26.38-28.72-34.88-49.32-9.9-24-17.17-67.8-23-103l-1-6.07-2.93-17.9-7.67-44.86a18.36 18.36 0 0 0-3.08-.91c-3.9-.94-10.4-2.52-13-9.82-6.77-19.13-17.52-42.2-25.37-59-5.5-11.78-8.37-18-9.34-21.16-9.08-18.74-11.17-30.7-7.74-44C95.18 66.94 105.5 59.3 114 56.92c32.4-9.1 67.64-14 100.9-17.86a15.13 15.13 0 0 1 1.67-.1c6.9 0 14.76 4.9 18.38 9.62 7.48 9.77 15.58 24.38 25 41.3 11.95 21.54 25.5 45.95 40.17 64.15 19.9 24.66 44.84 46.3 69 67.22l31.22 27.65 5.86 5.43c30.44 28.17 59.2 54.78 93 75.9a23.45 23.45 0 0 0 13.32 3.61c2.56 0 5.26-.24 8.12-.5 3.37-.3 6.85-.6 10.7-.6 1.8 0 3.5.07 5.18.2a34.24 34.24 0 0 1 21.16 8.76q.66.6 1.35 1.23c3 2.78 6.46 5.93 10.5 7.4s19.6 2.28 25 2.28l17.83-.05c61.42 0 119.76 1.9 176.2 3.73l160 3.76c11 .07 21.54 4.22 26.8 10.56 5 6 8.4 16 8.22 23.8-.25 10.44-3.53 19.45-10.3 28.34-9.3 12.2-18 18.92-32 24.77-27.16 11.4-51.52 17.1-74.46 17.5-4.66.08-9.7.34-14.57.58l-13.56.56-36.24.35c-17 0-35.17-.17-52.77-.33l-51.6-.32-29.53.23-35.45.32c-29.5 0-57.94-.62-85.45-1.22L462 464l-26.27.17c-14.16 0-15.1-11.46-15.34-16.28-24.64 9.1-52.48 19.3-80.06 19.5zm-121-416.5h-.3c-32.77 3.84-67.45 8.6-99.06 17.5-5.68 1.6-11.83 6.84-12.9 11-2.7 10.44-.82 19.94 7.14 36.27a6 6 0 0 1 .42 1.16c.5 2 4.7 11 8.78 19.73 7.95 17.06 18.84 40.42 25.8 60.1.34 1 .94 1.33 4.56 2.2s10.5 2.54 12 10.2c2.45 12.68 5.14 29.23 7.74 45.24l2.92 17.84 1 6.08c5.75 34.6 12.9 77.66 22.28 100.4 7.75 18.77 18.6 34.2 31.4 44.62 5.26 4.28 23.8 18.7 41.56 24.6 13.94 4.62 40.52 7.6 67.7 7.6h2.65c25.8-.2 51.77-9.8 76.87-19.08l1-.38a14.47 14.47 0 0 1 5-1c8.57 0 9 8.67 9.14 11.93.26 5.3.38 5.32 3.4 5.32h.22l26.1-.17 171.2 2.44 35.23-.32 29.75-.23 104.37.65 36-.35c4.25-.1 8.82-.33 13.24-.55l15-.6c21.4-.36 44.3-5.78 70.06-16.57 12.14-5.1 19-10.4 27.07-21 5.26-6.9 7.68-13.5 7.87-21.4a27.8 27.8 0 0 0-5.46-15.9c-2.56-3.07-9.46-6.2-17.73-6.26-56.2-.37-109.14-2.1-160.33-3.76l-175.8-3.73q-8.8 0-17.68 0h0c-.4 0-21.78-.27-29.27-3-6.25-2.27-11-6.62-14.47-9.8l-1.26-1.16a22.37 22.37 0 0 0-14.13-5.74c-1.38-.1-2.76-.16-4.24-.16-3.33 0-6.55.28-9.66.55s-6.08.54-9.16.54a35 35 0 0 1-19.64-5.42c-34.95-21.7-64.07-48.7-94.95-77.26l-5.85-5.4c-10.05-9.3-20.67-18.5-30.94-27.4C336.7 209 311.34 187 290.78 161.5c-15.32-19-29.13-43.88-41.32-65.84-8.77-15.82-17.06-30.76-24-39.83-1.67-2.18-6.2-4.94-8.92-4.94z"/><path d="M563.77 454.7l-.46-2.16c20-4.2 108.33-16.43 159.36-15.76l43.7.2h30.8c18.2.13 104.87 5.57 118.86 6.6l-.16 2.2c-14-1-100.57-6.46-118.72-6.58-13.14-.1-22.1-.07-30.78 0-11.9 0-23.15.07-43.75-.2h-4.13c-51.4 0-135.35 11.64-154.74 15.7z"/><path d="M755.35 488.98l6.63 6.52 4.7-.03-6.64-6.53 6.55-6.66-4.7.03-6.54 6.67z" opacity=".8"/><path d="M747.48 489.13l6.64 6.52 4.68-.03-6.64-6.53 6.55-6.66-4.68.03-6.55 6.67z" opacity=".9"/><path d="M739.5 489.16l6.64 6.52 4.68-.04-6.64-6.52 6.55-6.67-4.68.05-6.55 6.66z"/><path d="M769.37 495.44l4.68-.04-6.63-6.52 6.55-6.67-4.7.04-6.55 6.67 6.64 6.52z" opacity=".7"/><path d="M776.76 495.38l4.68-.04-6.63-6.53 6.54-6.66-4.68.04-6.55 6.67 6.64 6.52z" opacity=".6"/></g><path d="M799.1 472v4.66h-4.66V472z" class="J"/><path d="M794.44 472v4.67h-4.67V472z" class="I"/><path d="M789.78 472v4.67h-4.67V472z" class="J"/><path d="M799.14 476.6v4.67h-4.66v-4.67zm-9.34.05v4.67h-4.66v-4.66z" class="I"/><path d="M794.48 476.6v4.66h-4.67v-4.67zm4.7 4.62v4.66h-4.66v-4.67z" class="J"/><path d="M794.5 481.25v4.67h-4.67v-4.67z" class="I"/><path d="M789.84 481.28v4.67h-4.66v-4.67z" class="J"/><path d="M799.2 485.84v4.67h-4.67v-4.67zm-9.33.06v4.67h-4.67v-4.66z" class="I"/><path d="M794.54 485.83v4.67h-4.66v-4.67zm4.86 4.57v4.66h-4.66v-4.67z" class="J"/><path d="M794.73 490.42v4.67h-4.67v-4.66z" class="I"/><path d="M790.07 490.45v4.66h-4.66v-4.67z" class="J"/><path d="M420 486.14h-2.66v-2.86H426v2.86h-2.87v8.13H420zm12.13-2.86v11H429v-8l-1.8.56-.7-2.63 3.08-1zm-3.53-70.46h-2.66V410h8.7v2.86h-2.87V421h-3.17zm15.12 5.48v2.7h-8.2v-1.13a3.69 3.69 0 0 1 .8-2.34 8.71 8.71 0 0 1 2.2-2l1-.65a6.53 6.53 0 0 0 .59-.46 1.38 1.38 0 0 0 .3-.38 1.08 1.08 0 0 0 .08-.42 1 1 0 0 0-.25-.73.94.94 0 0 0-.67-.23c-.63 0-.94.42-.94 1.25h-3.1a4.14 4.14 0 0 1 1.11-3.06 4.21 4.21 0 0 1 3.09-1.1 4.16 4.16 0 0 1 2.87.93 3.3 3.3 0 0 1 1 2.61 3.61 3.61 0 0 1-.18 1.2 3.41 3.41 0 0 1-.55 1 5.24 5.24 0 0 1-.9.84l-1.24.86-.94.6a6.24 6.24 0 0 0-.71.53zm-206.47-12.88h-2.67v-2.85h8.7v2.85h-2.87v8.13h-3.16zm13.48 2.52a2.94 2.94 0 0 1 1.24 1 2.71 2.71 0 0 1 .42 1.52 3 3 0 0 1-.3 1.34 3.06 3.06 0 0 1-.86 1 4.15 4.15 0 0 1-1.31.67 5.91 5.91 0 0 1-1.67.23 4.2 4.2 0 0 1-3-1 4.11 4.11 0 0 1-1.17-2.93h3a1.26 1.26 0 0 0 .31.87 1 1 0 0 0 .78.31 1.21 1.21 0 0 0 .82-.27.94.94 0 0 0 .31-.73.86.86 0 0 0-.3-.69 1.21 1.21 0 0 0-.83-.25h-1.06v-2.2h1c.73 0 1.1-.3 1.1-.9a.84.84 0 0 0-.28-.66 1.26 1.26 0 0 0-1.56 0 1.14 1.14 0 0 0-.32.8h-2.9a4.35 4.35 0 0 1 .36-1.56 3.32 3.32 0 0 1 .85-1.19 3.73 3.73 0 0 1 1.3-.75 4.93 4.93 0 0 1 1.68-.27 5.19 5.19 0 0 1 1.58.23 3.79 3.79 0 0 1 1.23.65 2.72 2.72 0 0 1 .78 1 2.9 2.9 0 0 1 .28 1.29 2.51 2.51 0 0 1-1.48 2.5zM181.4 204.9h-2.66V202h8.7v2.86h-2.87V213h-3.17zm15.03 6.46h-1.2V213h-3.1v-1.67h-4.88V209l4.6-6.93h3.4v6.76h1.2zm-6.2-2.56h2.2v-3.46zm-84.8-1.08h-2.66v-2.85h8.7v2.85h-2.87v8.13h-3.17zm12.1.84a3.67 3.67 0 0 1 1.42.27 3.11 3.11 0 0 1 1.12.75 3.68 3.68 0 0 1 .73 1.17 4.18 4.18 0 0 1 .26 1.48 4 4 0 0 1-.3 1.57 3.33 3.33 0 0 1-.87 1.22 3.77 3.77 0 0 1-1.34.77 5.44 5.44 0 0 1-1.77.27 4.22 4.22 0 0 1-2.93-1 3.77 3.77 0 0 1-1.18-2.77h3a1.16 1.16 0 0 0 .36.73 1.1 1.1 0 0 0 .75.27 1.07 1.07 0 0 0 .84-.36 1.25 1.25 0 0 0 .33-.9 1.21 1.21 0 0 0-.33-.87 1.12 1.12 0 0 0-.84-.36 1.1 1.1 0 0 0-.57.15 1.36 1.36 0 0 0-.45.41h-2.84v-6.5h7.56v2.66h-4.62v1.4a3.7 3.7 0 0 1 1.67-.35zm-55.14-148h-2.66V57.7h8.7v2.86h-2.88v8.13H62.4zm11.34.43A3.56 3.56 0 0 1 76 62.27a3.66 3.66 0 0 1 .67 1.15 3.92 3.92 0 0 1 .23 1.38 4 4 0 0 1-.33 1.61 4.12 4.12 0 0 1-2.26 2.18 4.45 4.45 0 0 1-1.68.32 4.2 4.2 0 0 1-1.63-.33 4 4 0 0 1-1.34-.89 4.14 4.14 0 0 1-.89-1.33 4.28 4.28 0 0 1-.32-1.64 4.2 4.2 0 0 1 .05-.72 6.38 6.38 0 0 1 .21-.73 7.61 7.61 0 0 1 .4-.82l.63-1 2.5-3.74h3.64zm-1.08 5.1a1.22 1.22 0 0 0 .9-.36 1.29 1.29 0 0 0 .36-.93 1.23 1.23 0 0 0-1.26-1.27 1.18 1.18 0 0 0-.88.36 1.23 1.23 0 0 0-.36.91 1.29 1.29 0 0 0 .36.93 1.18 1.18 0 0 0 .88.36zM236.4 22.2h-2.66v-2.86h8.7v2.86h-2.87v8.13h-3.17zm14.72-2.87v2.6l-4 8.4h-3.38l4.1-8.2h-4.6v-2.8zM466.4 355.76h-2.66v-2.86h8.7v2.86h-2.88v8.13h-3.16zm14 2.38a2.8 2.8 0 0 1 1.6 2.66 3.23 3.23 0 0 1-.29 1.37 2.9 2.9 0 0 1-.85 1 3.87 3.87 0 0 1-1.35.66 6.32 6.32 0 0 1-1.8.24 5 5 0 0 1-3.14-.88 2.89 2.89 0 0 1-1.14-2.42 3 3 0 0 1 .4-1.59 2.88 2.88 0 0 1 1.14-1.07 2.77 2.77 0 0 1-1-1 2.7 2.7 0 0 1-.34-1.37 2.67 2.67 0 0 1 .29-1.27 2.75 2.75 0 0 1 .82-1 4.08 4.08 0 0 1 1.29-.63 5.84 5.84 0 0 1 1.68-.22 6 6 0 0 1 1.69.22 3.88 3.88 0 0 1 1.29.63 3 3 0 0 1 .82 1 2.92 2.92 0 0 1 .28 1.27 2.7 2.7 0 0 1-.34 1.37 2.77 2.77 0 0 1-1.05 1.03zm-2.74 3.64a1.21 1.21 0 0 0 .86-.31 1.06 1.06 0 0 0 .33-.81 1.12 1.12 0 0 0-1.17-1.18 1.18 1.18 0 0 0-.88.34 1.15 1.15 0 0 0-.33.85 1 1 0 0 0 .33.81 1.25 1.25 0 0 0 .86.3zm0-6.77a1.12 1.12 0 0 0-.79.28 1 1 0 0 0-.31.73 1.08 1.08 0 1 0 2.16 0 1 1 0 0 0-1.04-1.02zm67.86-43.2h-2.66v-2.86h8.7v2.86h-2.88v8.12h-3.16zm9.95 4.82a3.62 3.62 0 0 1-1.26-.43 3.38 3.38 0 0 1-1-.83 3.58 3.58 0 0 1-.67-1.15 4.09 4.09 0 0 1 .09-3 4.33 4.33 0 0 1 .91-1.31 4.13 4.13 0 0 1 1.35-.87 4.52 4.52 0 0 1 3.34 0 4.15 4.15 0 0 1 2.49 4.59 3.9 3.9 0 0 1-.21.73 6.1 6.1 0 0 1-.4.82l-.63 1-2.5 3.73h-3.64zm1.08-5.1a1.22 1.22 0 0 0-.9.36 1.29 1.29 0 0 0-.36.93 1.24 1.24 0 0 0 .36.91 1.22 1.22 0 0 0 .9.36 1.18 1.18 0 0 0 .89-.36 1.28 1.28 0 0 0 .35-.91 1.33 1.33 0 0 0-.35-.93 1.18 1.18 0 0 0-.89-.36zm-3.8 70.4h-2.66v-2.86h8.7v2.86h-2.87V390h-3.17zm12.14-2.86v11h-3.1v-8l-1.8.55-.7-2.62 3.1-.95zm7.52 11.2a6.49 6.49 0 0 1-2.37-.43 5.57 5.57 0 0 1-1.86-1.18 5.24 5.24 0 0 1-1.21-1.81 6.21 6.21 0 0 1 0-4.59 5.1 5.1 0 0 1 1.21-1.8 5.57 5.57 0 0 1 1.86-1.18 6.9 6.9 0 0 1 4.74 0 5.78 5.78 0 0 1 1.86 1.18 5.24 5.24 0 0 1 1.21 1.8 6.34 6.34 0 0 1 0 4.59 5.38 5.38 0 0 1-1.21 1.81 5.78 5.78 0 0 1-1.86 1.18 6.49 6.49 0 0 1-2.37.43zm0-2.86a2.65 2.65 0 0 0 1.07-.21 2.31 2.31 0 0 0 .84-.6 2.85 2.85 0 0 0 .56-.9 3.27 3.27 0 0 0 .2-1.15 3.18 3.18 0 0 0-.2-1.12 3.1 3.1 0 0 0-.56-.91 2.65 2.65 0 0 0-.85-.59 2.52 2.52 0 0 0-1.06-.22 2.65 2.65 0 0 0-1.93.81 2.73 2.73 0 0 0-.56.91 3 3 0 0 0-.21 1.12 3.06 3.06 0 0 0 .21 1.15 2.68 2.68 0 0 0 .56.9 2.43 2.43 0 0 0 .85.6 2.7 2.7 0 0 0 1.1.21zm430.05 11.18h-2.67v-2.85h8.7v2.85h-2.87v8.13h-3.16zm12.15-2.85v11h-3.1v-8l-1.8.55-.7-2.63 3.08-.94zm6.73 0v11h-3.1v-8l-1.8.55-.7-2.63 3.08-.94z" class="I"/><path d="M141 477.32a4.29 4.29 0 0 1-3-1 3.94 3.94 0 0 1-1.23-2.83h1.46a2.72 2.72 0 0 0 .83 1.88 2.67 2.67 0 0 0 1.93.72 3 3 0 0 0 1.94-.58 1.88 1.88 0 0 0 .72-1.56 1.77 1.77 0 0 0-.42-1.24 4 4 0 0 0-1.43-.86l-1.8-.7a4.69 4.69 0 0 1-2.08-1.37 3.26 3.26 0 0 1-.64-2.07 3 3 0 0 1 1.05-2.29 3.62 3.62 0 0 1 1.2-.64 4.7 4.7 0 0 1 1.54-.23 4 4 0 0 1 2.75.9 3.5 3.5 0 0 1 1.12 2.51h-1.45a2.27 2.27 0 0 0-.69-1.57 2.47 2.47 0 0 0-1.73-.57 2.64 2.64 0 0 0-1.69.51 1.63 1.63 0 0 0-.65 1.35 2 2 0 0 0 .44 1.33 3.61 3.61 0 0 0 1.44.92l1.83.7a4.72 4.72 0 0 1 2 1.3 3 3 0 0 1 .62 2 3.52 3.52 0 0 1-.28 1.44 3.08 3.08 0 0 1-.82 1.1 3.8 3.8 0 0 1-1.29.69 5.63 5.63 0 0 1-1.68.15zm6.7-12.62h7.15v1.3h-5.7v4h5.53v1.3h-5.53v4.52h5.9v1.3h-7.35zm15.58 12.62a6.66 6.66 0 0 1-2.55-.49 6.33 6.33 0 0 1-2-1.35 6.1 6.1 0 0 1-1.34-2 6.52 6.52 0 0 1-.49-2.56 6.41 6.41 0 0 1 .49-2.53 6 6 0 0 1 3.38-3.37 6.5 6.5 0 0 1 2.54-.49 7 7 0 0 1 2.18.33 5.77 5.77 0 0 1 1.79.94 5.26 5.26 0 0 1 1.32 1.46 5.67 5.67 0 0 1 .74 1.91h-1.55a4.42 4.42 0 0 0-.61-1.36 4.22 4.22 0 0 0-1-1 4.63 4.63 0 0 0-1.31-.67 5.3 5.3 0 0 0-1.56-.23 4.85 4.85 0 0 0-2 .39 4.76 4.76 0 0 0-1.57 1.07 5 5 0 0 0-1 1.6 5.45 5.45 0 0 0 0 4 5 5 0 0 0 1 1.61 4.73 4.73 0 0 0 1.57 1.06 4.85 4.85 0 0 0 2 .39 4.68 4.68 0 0 0 2.86-.89 4.31 4.31 0 0 0 1.6-2.43h1.55a5.73 5.73 0 0 1-.74 1.92 5.34 5.34 0 0 1-1.32 1.48 6.23 6.23 0 0 1-1.79.94 7 7 0 0 1-2.19.27zM174.23 466h-3.67v-1.3h8.9v1.3h-3.78v11.1h-1.44zm12.67 11.32a6.64 6.64 0 0 1-2.54-.49 6.34 6.34 0 0 1-2-1.36 6.17 6.17 0 0 1-1.35-2 6.8 6.8 0 0 1 0-5.07 6 6 0 0 1 1.35-2 6.14 6.14 0 0 1 2-1.34 6.55 6.55 0 0 1 2.55-.49 6.45 6.45 0 0 1 2.53.49 6.06 6.06 0 0 1 3.37 3.37 6.8 6.8 0 0 1 0 5.07 6.18 6.18 0 0 1-3.37 3.39 6.63 6.63 0 0 1-2.54.43zm0-1.35a4.93 4.93 0 0 0 3.52-1.45 5 5 0 0 0 1-1.62 5.54 5.54 0 0 0 .37-2 5.26 5.26 0 0 0-.38-2 5.12 5.12 0 0 0-1-1.6 4.69 4.69 0 0 0-1.56-1.06 5.22 5.22 0 0 0-3.91 0 4.69 4.69 0 0 0-1.56 1.06 5.12 5.12 0 0 0-1 1.6 5.26 5.26 0 0 0-.38 2 5.54 5.54 0 0 0 .37 2 5 5 0 0 0 1 1.62 4.84 4.84 0 0 0 1.57 1.06 4.9 4.9 0 0 0 1.96.42zm9.1-11.27h3.85a4 4 0 0 1 2.87 1 3.43 3.43 0 0 1 1 2.64 3.63 3.63 0 0 1-.73 2.33 3.53 3.53 0 0 1-2 1.25l3.52 5.2h-1.7l-3.35-5.14h-2v5.08H196zm3.76 6a2.57 2.57 0 0 0 1.82-.62 2.58 2.58 0 0 0 0-3.45 2.56 2.56 0 0 0-1.84-.61h-2.34v4.68zm15.08-6v12.4h-1.44v-10.93l-2.36.74-.35-1.25 2.9-1z" opacity=".5" class="I"/><path d="M287.66 79.48a4.29 4.29 0 0 1-3-1 3.94 3.94 0 0 1-1.23-2.83h1.46a2.65 2.65 0 0 0 2.76 2.6 3 3 0 0 0 1.94-.57 1.92 1.92 0 0 0 .71-1.57 1.77 1.77 0 0 0-.41-1.24 4 4 0 0 0-1.43-.86l-1.8-.68a4.78 4.78 0 0 1-2.08-1.38 3.24 3.24 0 0 1-.64-2.07 3 3 0 0 1 1.05-2.29 3.67 3.67 0 0 1 1.19-.64 5.09 5.09 0 0 1 1.55-.23 4 4 0 0 1 2.75.9 3.54 3.54 0 0 1 1.12 2.51h-1.45a2.27 2.27 0 0 0-.69-1.57 2.47 2.47 0 0 0-1.73-.57 2.64 2.64 0 0 0-1.69.51 1.64 1.64 0 0 0-.65 1.35 2 2 0 0 0 .44 1.33 3.61 3.61 0 0 0 1.44.92l1.83.7a4.72 4.72 0 0 1 2 1.3 3 3 0 0 1 .62 2 3.37 3.37 0 0 1-.29 1.44 3 3 0 0 1-.82 1.1 3.62 3.62 0 0 1-1.29.69 5.52 5.52 0 0 1-1.67.15zm6.7-12.6h7.15v1.3h-5.7v4h5.53v1.3h-5.53V78h5.9v1.3h-7.35zm15.57 12.6a6.48 6.48 0 0 1-2.55-.49 6.17 6.17 0 0 1-2-1.35 6.1 6.1 0 0 1-1.34-2 6.85 6.85 0 0 1 0-5.09 6 6 0 0 1 3.38-3.37 6.46 6.46 0 0 1 2.54-.49 7 7 0 0 1 2.18.33 6 6 0 0 1 1.79.94 5.3 5.3 0 0 1 1.32 1.47 5.54 5.54 0 0 1 .74 1.9h-1.55a4.53 4.53 0 0 0-.61-1.36 4.22 4.22 0 0 0-1-1 4.63 4.63 0 0 0-1.31-.67A5.3 5.3 0 0 0 310 68a4.88 4.88 0 0 0-3.52 1.46 5.08 5.08 0 0 0-1 1.6 5.45 5.45 0 0 0 0 4 5 5 0 0 0 1 1.61 4.81 4.81 0 0 0 1.52 1.08 5 5 0 0 0 1.95.38 4.62 4.62 0 0 0 2.86-.89 4.29 4.29 0 0 0 1.6-2.42h1.6a5.59 5.59 0 0 1-.74 1.91 5.34 5.34 0 0 1-1.32 1.48 6 6 0 0 1-1.79.94 7 7 0 0 1-2.21.33zm10.96-11.3h-3.67v-1.3h8.9v1.3h-3.78v11.1h-1.44zm12.65 11.3a6.43 6.43 0 0 1-4.55-1.84 6.32 6.32 0 0 1-1.35-2 6.8 6.8 0 0 1 0-5.07 6 6 0 0 1 3.35-3.41 6.53 6.53 0 0 1 2.54-.49 6.46 6.46 0 0 1 2.54.49 6.25 6.25 0 0 1 2 1.34 6.14 6.14 0 0 1 1.34 2 6.8 6.8 0 0 1 0 5.07 6.29 6.29 0 0 1-1.34 2 6.38 6.38 0 0 1-4.57 1.84zm0-1.35a4.82 4.82 0 0 0 3.53-1.45 4.93 4.93 0 0 0 1-1.62 5.52 5.52 0 0 0 .37-2 5.21 5.21 0 0 0-1.41-3.6 4.69 4.69 0 0 0-1.56-1.06 5.22 5.22 0 0 0-3.91 0 4.69 4.69 0 0 0-1.57 1.05 5.21 5.21 0 0 0-1.41 3.6 5.52 5.52 0 0 0 .37 2 4.93 4.93 0 0 0 1 1.62 4.82 4.82 0 0 0 3.52 1.45zm9.1-11.26h3.85a4 4 0 0 1 2.87 1 3.44 3.44 0 0 1 1 2.64 3.65 3.65 0 0 1-.73 2.34 3.51 3.51 0 0 1-2 1.24l3.52 5.22h-1.7l-3.37-5.1h-2v5.1h-1.44zm3.76 6a2.53 2.53 0 0 0 1.82-.62 2.58 2.58 0 0 0 0-3.45 2.56 2.56 0 0 0-1.84-.61h-2.34v4.68zM365.94 78v1.3h-8.07v-.74a4.21 4.21 0 0 1 .32-1.71 5.06 5.06 0 0 1 .82-1.32 6.23 6.23 0 0 1 1.1-1l1.13-.76q.8-.5 1.38-.87a5.38 5.38 0 0 0 .93-.73 2.27 2.27 0 0 0 .53-.77 2.63 2.63 0 0 0 .16-1 2.29 2.29 0 0 0-.66-1.79 2.53 2.53 0 0 0-3.38.12 2.62 2.62 0 0 0-.68 1.87h-1.47a4.19 4.19 0 0 1 .29-1.61 3.61 3.61 0 0 1 .79-1.24 3.26 3.26 0 0 1 1.22-.79 4.35 4.35 0 0 1 1.61-.28 4.47 4.47 0 0 1 1.53.25 3.34 3.34 0 0 1 1.2.73 3.23 3.23 0 0 1 .77 1.16 4.09 4.09 0 0 1 .28 1.53 3.78 3.78 0 0 1-.25 1.41 3.68 3.68 0 0 1-.71 1.08 6.69 6.69 0 0 1-1.09.92l-1.36.88-1.16.78a6 6 0 0 0-.87.75 3.51 3.51 0 0 0-.6.82 3.29 3.29 0 0 0-.32 1z" opacity=".5" class="I"/><path d="M850.23 416.45a4.3 4.3 0 0 1-3-1 3.92 3.92 0 0 1-1.22-2.83h1.45a2.76 2.76 0 0 0 .83 1.88 2.69 2.69 0 0 0 1.94.72 3 3 0 0 0 1.93-.57 1.89 1.89 0 0 0 .72-1.57 1.79 1.79 0 0 0-.41-1.23 3.91 3.91 0 0 0-1.43-.87l-1.8-.68a4.8 4.8 0 0 1-2.08-1.37 3.27 3.27 0 0 1-.65-2.08 2.93 2.93 0 0 1 .28-1.29 2.8 2.8 0 0 1 .77-1 3.63 3.63 0 0 1 1.2-.65 5 5 0 0 1 1.55-.23 4 4 0 0 1 2.74.9 3.56 3.56 0 0 1 1.13 2.51h-1.46a2.32 2.32 0 0 0-.69-1.57 2.45 2.45 0 0 0-1.72-.57 2.67 2.67 0 0 0-1.7.51 1.63 1.63 0 0 0-.64 1.35 2 2 0 0 0 .43 1.33 3.55 3.55 0 0 0 1.45.92l1.82.7a4.7 4.7 0 0 1 2 1.3 3.05 3.05 0 0 1 .62 2 3.48 3.48 0 0 1-.29 1.43 3 3 0 0 1-.82 1.1 3.8 3.8 0 0 1-1.29.69 5.58 5.58 0 0 1-1.67.17zm6.7-12.6h7.15v1.3h-5.7v4h5.53v1.3h-5.53v4.52h5.92v1.3h-7.36zm15.58 12.6A6.56 6.56 0 0 1 870 416a6.1 6.1 0 0 1-2-1.34 6.33 6.33 0 0 1-1.35-2 6.85 6.85 0 0 1 0-5.09 6.28 6.28 0 0 1 1.35-2 6.17 6.17 0 0 1 2-1.35 6.55 6.55 0 0 1 2.55-.49 7 7 0 0 1 2.17.33 5.92 5.92 0 0 1 1.8.94 5.8 5.8 0 0 1 1.32 1.47 5.58 5.58 0 0 1 .73 1.91H877a4.73 4.73 0 0 0-.61-1.37 4.25 4.25 0 0 0-2.3-1.7 4.89 4.89 0 0 0-1.55-.23 5 5 0 0 0-2 .38 4.87 4.87 0 0 0-1.56 1.07 5 5 0 0 0-1 1.61 5.18 5.18 0 0 0-.37 2 5.32 5.32 0 0 0 .37 2 5 5 0 0 0 1 1.6 4.84 4.84 0 0 0 3.52 1.46 4.62 4.62 0 0 0 2.85-.9 4.27 4.27 0 0 0 1.61-2.42h1.54a5.71 5.71 0 0 1-.73 1.92 5.8 5.8 0 0 1-1.32 1.47 5.71 5.71 0 0 1-1.8.94 7 7 0 0 1-2.13.24zm10.95-11.3h-3.67v-1.3h8.88v1.3h-3.78v11.1h-1.43zm12.66 11.3a6.41 6.41 0 0 1-2.53-.49 6.06 6.06 0 0 1-2-1.35 6.34 6.34 0 0 1-1.36-2 6.93 6.93 0 0 1 0-5.07 6.28 6.28 0 0 1 1.35-2 6.11 6.11 0 0 1 2-1.35 6.8 6.8 0 0 1 5.07 0 6.17 6.17 0 0 1 2 1.35 6.28 6.28 0 0 1 1.35 2 6.8 6.8 0 0 1 0 5.07 6.48 6.48 0 0 1-1.35 2 6 6 0 0 1-2 1.35 6.41 6.41 0 0 1-2.53.49zm0-1.34a4.88 4.88 0 0 0 3.52-1.46 4.73 4.73 0 0 0 1-1.61 5.37 5.37 0 0 0 .37-2 5.22 5.22 0 0 0-.38-2 5 5 0 0 0-1-1.61 4.64 4.64 0 0 0-1.56-1.06 5.32 5.32 0 0 0-3.9 0 4.64 4.64 0 0 0-1.56 1.06 5 5 0 0 0-1.38 3.61 5.37 5.37 0 0 0 .37 2 4.73 4.73 0 0 0 1 1.61 4.88 4.88 0 0 0 3.52 1.46zm9.1-11.27h3.86a4.06 4.06 0 0 1 2.86 1 3.43 3.43 0 0 1 1 2.65 3.7 3.7 0 0 1-.72 2.33 3.55 3.55 0 0 1-2 1.24l3.52 5.22h-1.72l-3.37-5.1h-2v5.1h-1.44zm3.76 6a2.58 2.58 0 0 0 1.83-.61 2.63 2.63 0 0 0 0-3.46 2.63 2.63 0 0 0-1.85-.61h-2.34v4.68zm17.6-.14a3 3 0 0 1 1.45 1.15 3.3 3.3 0 0 1 .5 1.83 3.54 3.54 0 0 1-1.18 2.69 4.2 4.2 0 0 1-1.31.79 4.8 4.8 0 0 1-1.67.28 4.67 4.67 0 0 1-1.62-.27 3.34 3.34 0 0 1-1.27-.77 3.63 3.63 0 0 1-.82-1.23 4.69 4.69 0 0 1-.33-1.64h1.46a2.66 2.66 0 0 0 .72 1.87 2.49 2.49 0 0 0 1.82.7 3.27 3.27 0 0 0 1.11-.18 2.63 2.63 0 0 0 .85-.49 2.17 2.17 0 0 0 .56-.75 2.59 2.59 0 0 0 .19-1 2.12 2.12 0 0 0-.72-1.7 3.05 3.05 0 0 0-2-.6h-1.23v-1.3h1.2a2.47 2.47 0 0 0 1.71-.54 2.25 2.25 0 0 0 0-3.05 2.39 2.39 0 0 0-1.66-.54 2.57 2.57 0 0 0-1.72.57 2 2 0 0 0-.7 1.51h-1.43a3.18 3.18 0 0 1 .33-1.37 3.33 3.33 0 0 1 .83-1.09 3.83 3.83 0 0 1 1.21-.71 4.47 4.47 0 0 1 1.53-.26 4.57 4.57 0 0 1 1.52.24 3.57 3.57 0 0 1 1.16.67 3 3 0 0 1 .74 1.05 3.4 3.4 0 0 1 .27 1.36 3.15 3.15 0 0 1-.4 1.63 3.05 3.05 0 0 1-1.11 1.14z" opacity=".5" class="I"/><path d="M964.83 456.8h2.72a2.83 2.83 0 0 1 2 .69 2.4 2.4 0 0 1 .74 1.86 2.85 2.85 0 0 1-.2 1.08 2.27 2.27 0 0 1-1.42 1.35 3.32 3.32 0 0 1-1.14.19h-1.7v3.58h-1zm2.66 4.23a1.81 1.81 0 0 0 1.28-.44 1.83 1.83 0 0 0 0-2.43 1.82 1.82 0 0 0-1.3-.43h-1.66V461zm8.6 2.3h-4l-.83 2.22h-1.08l3.34-8.75h1.1l3.33 8.75h-1.07zm-3.6-.9h3.3l-1.65-4.5zm7.18-5.62h2.72a2.84 2.84 0 0 1 2 .69 2.4 2.4 0 0 1 .73 1.86 2.62 2.62 0 0 1-.51 1.65 2.48 2.48 0 0 1-1.42.87l2.48 3.68h-1.2L982.1 462h-1.42v3.58h-1zm2.65 4.23a1.82 1.82 0 0 0 1.29-.44 1.82 1.82 0 0 0 0-2.43 1.81 1.81 0 0 0-1.3-.43h-1.65V461zm9.9 2.3h-4l-.83 2.22h-1.08l3.34-8.75h1.1l3.33 8.75H993zm-3.6-.9h3.3l-1.65-4.5zm15.54-1.57a2.21 2.21 0 0 1 1 .86 2.54 2.54 0 0 1 .36 1.39 2.2 2.2 0 0 1-.78 1.79 3.13 3.13 0 0 1-2.11.65h-3.28v-8.75h3.15a2.92 2.92 0 0 1 1.91.58 1.94 1.94 0 0 1 .69 1.58 2.05 2.05 0 0 1-.94 1.9zm-3.77-3.15v2.77h2.05a1.78 1.78 0 0 0 1.22-.37 1.29 1.29 0 0 0 .42-1c0-.9-.53-1.37-1.58-1.37zm2.18 6.93a2.08 2.08 0 0 0 1.42-.43 1.51 1.51 0 0 0 .49-1.22 1.41 1.41 0 0 0-.52-1.17 2.23 2.23 0 0 0-1.46-.43h-2.1v3.25zm8.8 1.07a4.61 4.61 0 0 1-1.79-.35 4.38 4.38 0 0 1-2.39-2.39 4.88 4.88 0 0 1 0-3.58 4.53 4.53 0 0 1 1-1.43 4.33 4.33 0 0 1 1.44-.94 4.75 4.75 0 0 1 3.58 0 4.28 4.28 0 0 1 2.38 2.37 4.88 4.88 0 0 1 0 3.58 4.45 4.45 0 0 1-4.17 2.74zm0-.95a3.46 3.46 0 0 0 2.48-1 3.23 3.23 0 0 0 .73-1.14 3.86 3.86 0 0 0 .26-1.42 3.6 3.6 0 0 0-.27-1.4 3.51 3.51 0 0 0-.72-1.14 3.19 3.19 0 0 0-1.1-.74 3.66 3.66 0 0 0-2.76 0 3.19 3.19 0 0 0-1.1.74 3.51 3.51 0 0 0-.72 1.14 3.6 3.6 0 0 0-.27 1.4 3.86 3.86 0 0 0 .26 1.42 3.23 3.23 0 0 0 .73 1.14 3.46 3.46 0 0 0 2.48 1zm6.42-7.95h1v7.83h3.62v.92h-4.64zm6.22 0h1v8.75h-1zm7.4 8.9a4.62 4.62 0 0 1-1.8-.35 4.36 4.36 0 0 1-1.43-.95 4.42 4.42 0 0 1-1-1.43 4.91 4.91 0 0 1 0-3.59 4.53 4.53 0 0 1 1-1.43 4.43 4.43 0 0 1 1.44-.94 4.61 4.61 0 0 1 1.79-.35 4.82 4.82 0 0 1 1.54.24 3.88 3.88 0 0 1 1.26.66 3.89 3.89 0 0 1 1.45 2.38h-1.1a3 3 0 0 0-.43-1 2.87 2.87 0 0 0-.69-.74 3.25 3.25 0 0 0-.93-.47 3.5 3.5 0 0 0-1.09-.16 3.47 3.47 0 0 0-1.38.27 3.56 3.56 0 0 0-2.11 3.29 3.67 3.67 0 0 0 .27 1.42 3.6 3.6 0 0 0 .73 1.13 3.4 3.4 0 0 0 1.11.75 3.31 3.31 0 0 0 1.38.28 3.25 3.25 0 0 0 2-.63 3 3 0 0 0 1.13-1.71h1.1a4 4 0 0 1-.52 1.35 3.95 3.95 0 0 1-2.19 1.7 4.82 4.82 0 0 1-1.53.28zm10.85-2.38h-4l-.84 2.22h-1.08l3.35-8.75h1.1l3.33 8.75h-1.07zm-3.62-.9h3.3l-1.65-4.5z" class="I K"/><path d="M465 411.67l-3.15 8.75h-1.1l-3.13-8.75h1.1l2.6 7.44 2.6-7.44zm5.75 6.53h-3.95l-.84 2.22h-1.07l3.34-8.75h1.1l3.33 8.75h-1.07zm-3.62-.9h3.3l-1.65-4.5zm7.2-5.63h2.7a2.91 2.91 0 0 1 2 .68 2.47 2.47 0 0 1 .73 1.87 2.59 2.59 0 0 1-.51 1.64 2.52 2.52 0 0 1-1.43.88l2.5 3.68h-1.2l-2.38-3.6h-1.42v3.6h-1zm2.65 4.22a1.85 1.85 0 0 0 1.29-.43 1.86 1.86 0 0 0 0-2.44 1.85 1.85 0 0 0-1.3-.43h-1.65v3.3zm5.06-4.22h1v8.75h-1zm8.55 6.53h-4l-.83 2.22h-1.08l3.34-8.75h1.1l3.33 8.75h-1.07zm-3.6-.9h3.28l-1.65-4.5zm13.7-5.63v8.75h-1.1l-4.38-7.1v7.1h-1v-8.75h1.17l4.3 7v-7zm4.3.93h-2.6v-.92h6.27v.92H506v7.83h-1zm5.33-.93h5.05v.92h-4v2.8h3.9v.92h-3.9v3.2h4.17v.92h-5.2zm10.6 0h2.66a5.86 5.86 0 0 1 2 .31 4.15 4.15 0 0 1 1.5.89 3.84 3.84 0 0 1 1 1.37 4.45 4.45 0 0 1 .35 1.78 4.55 4.55 0 0 1-.35 1.8 3.88 3.88 0 0 1-1 1.38 4.35 4.35 0 0 1-1.52.9 5.78 5.78 0 0 1-1.95.32h-2.66zm2.66 7.83a4.53 4.53 0 0 0 1.52-.25 3.46 3.46 0 0 0 1.19-.71 3.15 3.15 0 0 0 .76-1.1 4 4 0 0 0 0-2.83 2.94 2.94 0 0 0-.76-1.07 3.26 3.26 0 0 0-1.17-.7 4.65 4.65 0 0 0-1.54-.25h-1.65v6.9zm6.7-7.83h5v.92h-4v2.8h3.9v.92h-3.9v3.2h4.17v.92h-5.18zm7.02 0h1v7.83h3.7v.92h-4.64zm-78.94 15.6h2.72a2.89 2.89 0 0 1 2 .68 2.43 2.43 0 0 1 .73 1.87 2.59 2.59 0 0 1-.51 1.64 2.5 2.5 0 0 1-1.42.88l2.48 3.68h-1.2l-2.38-3.6h-1.42V436h-1zm2.64 4.23a1.82 1.82 0 0 0 1.29-.44 1.6 1.6 0 0 0 .47-1.23 1.57 1.57 0 0 0-.46-1.21 1.83 1.83 0 0 0-1.3-.43h-1.65v3.3zm5.07-4.23h5v.92h-4v2.8H471v.92h-3.9v3.2h4.18v.9h-5.2zm8.83.93h-2.6v-.92h6.27v.92h-2.67v7.8h-1zm7 0h-2.6v-.92h6.27v.92h-2.67v7.8h-1zm5.37-.93h1V436h-1zm3.47 0h5v.92h-4v3h3.84v.92h-3.84v3.9h-1zm6.66 0h1V436h-1zm3.48 0h1v7.83h3.62v.9h-4.64zm9.78 8.9a4.6 4.6 0 0 1-1.79-.34 4.43 4.43 0 0 1-1.44-1 4.53 4.53 0 0 1-.95-1.43 4.75 4.75 0 0 1 0-3.58 4.34 4.34 0 0 1 2.38-2.38 4.69 4.69 0 0 1 1.8-.34 4.6 4.6 0 0 1 1.79.34 4.53 4.53 0 0 1 1.43.95 4.42 4.42 0 0 1 1 1.43 4.88 4.88 0 0 1 0 3.58 4.53 4.53 0 0 1-1 1.43 4.39 4.39 0 0 1-1.43 1 4.6 4.6 0 0 1-1.79.34zm0-1a3.54 3.54 0 0 0 1.38-.27 3.36 3.36 0 0 0 1.83-1.89 3.91 3.91 0 0 0 .26-1.43 3.6 3.6 0 0 0-.27-1.4 3.44 3.44 0 0 0-.73-1.13 3.22 3.22 0 0 0-1.09-.75 3.79 3.79 0 0 0-2.76 0 3.36 3.36 0 0 0-1.1.75 3.6 3.6 0 0 0-.73 1.13 3.79 3.79 0 0 0-.26 1.4 3.71 3.71 0 0 0 .26 1.43 3.23 3.23 0 0 0 .73 1.14 3.36 3.36 0 0 0 1.1.75 3.54 3.54 0 0 0 1.38.32z" class="I K"/><path d="M229.7 368.44a4.62 4.62 0 0 1-1.8-.35 4.26 4.26 0 0 1-1.43-.95 4.42 4.42 0 0 1-1-1.43 4.91 4.91 0 0 1 0-3.59 4.53 4.53 0 0 1 1-1.43 4.33 4.33 0 0 1 1.44-.94 4.61 4.61 0 0 1 1.79-.35 4.72 4.72 0 0 1 1.53.24 3.93 3.93 0 0 1 1.27.66 3.89 3.89 0 0 1 1.45 2.38h-1.1a3.23 3.23 0 0 0-.43-1 2.87 2.87 0 0 0-.69-.74 3.39 3.39 0 0 0-.93-.47 3.57 3.57 0 0 0-1.1-.16 3.41 3.41 0 0 0-3.21 2.16 3.6 3.6 0 0 0-.27 1.4 3.67 3.67 0 0 0 .27 1.42 3.44 3.44 0 0 0 .73 1.13 3.52 3.52 0 0 0 4.5.4 3 3 0 0 0 1.13-1.71h1.1a4 4 0 0 1-.52 1.35 3.86 3.86 0 0 1-.93 1 3.93 3.93 0 0 1-1.27.66 4.72 4.72 0 0 1-1.53.32zm9.3 0a3.65 3.65 0 0 1-1.35-.25 3 3 0 0 1-1-.71 3.24 3.24 0 0 1-.66-1.11 4.45 4.45 0 0 1-.22-1.47v-5.36h1v5.4a2.79 2.79 0 0 0 .6 1.88 2.1 2.1 0 0 0 1.65.69 2.07 2.07 0 0 0 1.65-.68 2.75 2.75 0 0 0 .6-1.89v-5.4h1v5.36a4.2 4.2 0 0 1-.23 1.47 3.07 3.07 0 0 1-.65 1.11 2.84 2.84 0 0 1-1 .71 3.66 3.66 0 0 1-1.39.25zm5.63-8.9h2.7a2.85 2.85 0 0 1 2 .69 2.4 2.4 0 0 1 .73 1.86 2.62 2.62 0 0 1-.51 1.65 2.51 2.51 0 0 1-1.43.87l2.5 3.68h-1.2l-2.38-3.58h-1.42v3.58h-1zm2.65 4.23a1.83 1.83 0 0 0 1.29-.44 1.85 1.85 0 0 0 0-2.43 1.81 1.81 0 0 0-1.3-.43h-1.65v3.3zm11.17-4.23l-3.15 8.75h-1.1l-3.13-8.75h1.1l2.6 7.44 2.6-7.44zm5.8 6.53h-4l-.83 2.22h-1.08l3.34-8.75h1.1l3.33 8.75h-1.06zm-3.62-.9h3.3l-1.65-4.5zm-30.1 14.03a2.21 2.21 0 0 1 1 .86 2.54 2.54 0 0 1 .36 1.39 2.22 2.22 0 0 1-.77 1.79 3.16 3.16 0 0 1-2.12.65h-3.27v-8.75h3.14a2.93 2.93 0 0 1 1.92.58 2 2 0 0 1 .69 1.58 2.06 2.06 0 0 1-.95 1.9zm-3.77-3.15v2.77h2.06a1.77 1.77 0 0 0 1.21-.37 1.3 1.3 0 0 0 .43-1c0-.9-.53-1.37-1.6-1.37zm2.2 6.93a2.07 2.07 0 0 0 1.41-.43 1.52 1.52 0 0 0 .5-1.22 1.42 1.42 0 0 0-.53-1.17 2.23 2.23 0 0 0-1.46-.43h-2.1V383zm4.82-7.84h1v8.75h-1zm8.56 6.53h-4l-.83 2.22h-1.08l3.34-8.75h1.1l3.32 8.75h-1.06zm-3.62-.9h3.3l-1.65-4.5zm9.4 3.23a3 3 0 0 1-2.13-.74 2.77 2.77 0 0 1-.86-2h1a1.92 1.92 0 0 0 .58 1.32 1.9 1.9 0 0 0 1.37.51 2.12 2.12 0 0 0 1.36-.4 1.34 1.34 0 0 0 .51-1.11 1.29 1.29 0 0 0-.29-.87 2.79 2.79 0 0 0-1-.61l-1.26-.48a3.28 3.28 0 0 1-1.47-1 2.26 2.26 0 0 1-.46-1.46 2.09 2.09 0 0 1 .2-.91 2 2 0 0 1 .54-.71 2.57 2.57 0 0 1 .85-.46 3.72 3.72 0 0 1 1.09-.16 2.79 2.79 0 0 1 1.94.64 2.49 2.49 0 0 1 .79 1.77h-1a1.59 1.59 0 0 0-.48-1.11 1.73 1.73 0 0 0-1.22-.4 1.86 1.86 0 0 0-1.19.36 1.12 1.12 0 0 0-.46.95 1.4 1.4 0 0 0 .31.94 2.53 2.53 0 0 0 1 .65l1.28.5a3.29 3.29 0 0 1 1.44.92 2.13 2.13 0 0 1 .43 1.38 2.41 2.41 0 0 1-.2 1 2.07 2.07 0 0 1-.57.77 2.88 2.88 0 0 1-.92.49 4 4 0 0 1-1.18.23zm7.04 0a3 3 0 0 1-2.12-.74 2.81 2.81 0 0 1-.87-2h1a1.93 1.93 0 0 0 .59 1.32 1.88 1.88 0 0 0 1.36.51 2.15 2.15 0 0 0 1.37-.4 1.36 1.36 0 0 0 .5-1.11 1.24 1.24 0 0 0-.29-.87 2.62 2.62 0 0 0-1-.61l-1.26-.48a3.4 3.4 0 0 1-1.47-1 2.31 2.31 0 0 1-.45-1.46 2.09 2.09 0 0 1 .19-.91 2 2 0 0 1 .55-.71 2.52 2.52 0 0 1 .84-.46 3.79 3.79 0 0 1 1.1-.16 2.76 2.76 0 0 1 1.93.64 2.5 2.5 0 0 1 .8 1.77h-1a1.6 1.6 0 0 0-.49-1.11 1.7 1.7 0 0 0-1.21-.4 1.87 1.87 0 0 0-1.2.36 1.14 1.14 0 0 0-.45.95 1.45 1.45 0 0 0 .3.94 2.53 2.53 0 0 0 1 .65l1.3.5a3.25 3.25 0 0 1 1.43.92 2.08 2.08 0 0 1 .44 1.38 2.58 2.58 0 0 1-.2 1 2.21 2.21 0 0 1-.58.77 2.73 2.73 0 0 1-.91.49 4 4 0 0 1-1.19.23zm8.7 0a4.48 4.48 0 0 1-4.53-4.53 4.56 4.56 0 0 1 .35-1.78 4.46 4.46 0 0 1 1-1.44 4.39 4.39 0 0 1 1.43-.94 4.69 4.69 0 0 1 1.8-.35 4.61 4.61 0 0 1 1.79.35 4.26 4.26 0 0 1 2.38 2.38 4.74 4.74 0 0 1 .34 1.78 4.79 4.79 0 0 1-.34 1.79 4.45 4.45 0 0 1-4.17 2.74zm0-1a3.39 3.39 0 0 0 3.21-2.17 3.86 3.86 0 0 0 .26-1.42 3.6 3.6 0 0 0-.27-1.4 3.48 3.48 0 0 0-.73-1.14 3.06 3.06 0 0 0-1.09-.74 3.54 3.54 0 0 0-1.38-.27 3.47 3.47 0 0 0-1.38.27 3.19 3.19 0 0 0-1.1.74 3.65 3.65 0 0 0-.73 1.14 3.79 3.79 0 0 0-.26 1.4 3.66 3.66 0 0 0 .26 1.42 3.23 3.23 0 0 0 .73 1.14 3.36 3.36 0 0 0 1.1.75 3.31 3.31 0 0 0 1.38.37zm12.92-7.86v8.75h-1.1l-4.4-7.1v7.1h-1v-8.75h1.17l4.3 7v-7zm6.4 8.86a4.61 4.61 0 0 1-1.79-.35 4.38 4.38 0 0 1-2.37-2.35 4.6 4.6 0 0 1-.34-1.79 4.55 4.55 0 0 1 .34-1.78 4.46 4.46 0 0 1 .95-1.44 4.33 4.33 0 0 1 1.44-.94 4.75 4.75 0 0 1 3.58 0 4.26 4.26 0 0 1 2.38 2.38 4.55 4.55 0 0 1 .34 1.78 4.51 4.51 0 0 1-1.29 3.23 4.53 4.53 0 0 1-1.43.95 4.61 4.61 0 0 1-1.81.31zm0-1a3.46 3.46 0 0 0 2.48-1 3.23 3.23 0 0 0 .73-1.14 3.86 3.86 0 0 0 .26-1.42 3.74 3.74 0 0 0-1-2.54 3.19 3.19 0 0 0-1.1-.74 3.66 3.66 0 0 0-2.76 0 3.19 3.19 0 0 0-1.1.74 3.45 3.45 0 0 0-.72 1.14 3.6 3.6 0 0 0-.27 1.4 3.86 3.86 0 0 0 .26 1.42 3.23 3.23 0 0 0 .73 1.14 3.46 3.46 0 0 0 2.48 1z" class="I K"/><path d="M153.45 95.36a4.62 4.62 0 0 1-1.8-.34 4.42 4.42 0 0 1-1.43-1 4.53 4.53 0 0 1-.95-1.43 4.78 4.78 0 0 1 0-3.59 4.34 4.34 0 0 1 2.38-2.38 5.05 5.05 0 0 1 3.33-.11 4.37 4.37 0 0 1 1.27.66 3.86 3.86 0 0 1 .93 1 4 4 0 0 1 .52 1.34h-1.1a3.48 3.48 0 0 0-.43-1 2.7 2.7 0 0 0-.7-.73 3 3 0 0 0-.92-.47 3.59 3.59 0 0 0-2.48.11 3.36 3.36 0 0 0-1.1.75 3.63 3.63 0 0 0-.74 1.13 3.84 3.84 0 0 0-.26 1.41 3.8 3.8 0 0 0 .26 1.41 3.52 3.52 0 0 0 .74 1.13 3.24 3.24 0 0 0 1.1.76 3.54 3.54 0 0 0 1.38.27 3.3 3.3 0 0 0 2-.63 3 3 0 0 0 1.13-1.71h1.1a4 4 0 0 1-.52 1.35 3.72 3.72 0 0 1-.93 1 4.16 4.16 0 0 1-1.27.67 5 5 0 0 1-1.51.4zm9.3 0a3.42 3.42 0 0 1-1.35-.25 2.86 2.86 0 0 1-1-.7 3.05 3.05 0 0 1-.66-1.12 4.45 4.45 0 0 1-.23-1.47v-5.35h1v5.4a2.77 2.77 0 0 0 .6 1.88 2.06 2.06 0 0 0 1.65.7 2.1 2.1 0 0 0 1.65-.68 2.79 2.79 0 0 0 .6-1.9v-5.4h1v5.35a4.45 4.45 0 0 1-.23 1.47 3.18 3.18 0 0 1-.65 1.12 2.82 2.82 0 0 1-1 .7 3.51 3.51 0 0 1-1.38.25zm5.64-8.9h2.7a2.87 2.87 0 0 1 2 .68 2.44 2.44 0 0 1 .74 1.87 2.54 2.54 0 0 1-.52 1.64 2.46 2.46 0 0 1-1.42.88l2.48 3.68h-1.2l-2.38-3.6h-1.4v3.6h-1zm2.6 4.22a1.8 1.8 0 0 0 1.28-.43 1.57 1.57 0 0 0 .47-1.23 1.6 1.6 0 0 0-.45-1.21 1.82 1.82 0 0 0-1.3-.43h-1.65v3.3zm11.2-4.22l-3.15 8.75H178l-3.14-8.75h1.1l2.6 7.43 2.58-7.43zM188 93h-3.95l-.83 2.23h-1.08l3.34-8.75h1.1l3.33 8.75h-1.07zm-3.6-.9h3.3l-1.7-4.5zm-34.9 9.97h2.66a5.76 5.76 0 0 1 2 .31 4.33 4.33 0 0 1 1.51.88 4 4 0 0 1 1 1.38 4.45 4.45 0 0 1 .35 1.78 4.55 4.55 0 0 1-.35 1.8 3.88 3.88 0 0 1-1 1.38 4.35 4.35 0 0 1-1.52.9 5.78 5.78 0 0 1-2 .32h-2.65zm2.66 7.82a4.57 4.57 0 0 0 1.52-.24 3.46 3.46 0 0 0 1.19-.71 3.15 3.15 0 0 0 .76-1.1 3.78 3.78 0 0 0 .26-1.42 3.73 3.73 0 0 0-.26-1.41 3.07 3.07 0 0 0-.76-1.08 3.39 3.39 0 0 0-1.17-.69 4.44 4.44 0 0 0-1.54-.25h-1.65v6.9zm6.68-7.82h1v8.75h-1zm7.04 0h1v7.82h3.63v.93h-4.64zm6.18 0h5.05v.93h-4v2.8h3.9v.92h-3.9v3.18h4.17v.93h-5.2zm9.34 8.93a3 3 0 0 1-2.12-.73 2.76 2.76 0 0 1-.87-2h1a1.85 1.85 0 0 0 2 1.83 2.1 2.1 0 0 0 1.36-.4 1.33 1.33 0 0 0 .51-1.1 1.3 1.3 0 0 0-.29-.88 2.84 2.84 0 0 0-1-.61l-1.26-.48a3.28 3.28 0 0 1-1.47-1 2.29 2.29 0 0 1-.45-1.46 2.12 2.12 0 0 1 .19-.91 2 2 0 0 1 .55-.71 2.59 2.59 0 0 1 .84-.45 3.42 3.42 0 0 1 1.09-.16 2.83 2.83 0 0 1 1.94.63 2.49 2.49 0 0 1 .79 1.77h-1a1.59 1.59 0 0 0-.49-1.1 1.73 1.73 0 0 0-1.22-.41 1.86 1.86 0 0 0-1.19.36 1.15 1.15 0 0 0-.46 1 1.36 1.36 0 0 0 .31.93 2.53 2.53 0 0 0 1 .65l1.3.5a3.3 3.3 0 0 1 1.43.91 2.14 2.14 0 0 1 .44 1.39 2.53 2.53 0 0 1-.2 1 2.21 2.21 0 0 1-.58.77 2.49 2.49 0 0 1-.91.49 4.09 4.09 0 0 1-1.23.17zm13.26-8.93v8.75h-1v-7.17l-2.77 7.17h-.94l-2.77-7.17v7.17h-1v-8.75h1.45l2.82 7.37 2.8-7.37zm6.4 8.93a4.6 4.6 0 0 1-1.79-.34 4.43 4.43 0 0 1-1.44-1 4.68 4.68 0 0 1-1-5 4.26 4.26 0 0 1 1-1.43 4.42 4.42 0 0 1 1.43-1 4.69 4.69 0 0 1 1.8-.34 4.55 4.55 0 0 1 1.78.34 4.42 4.42 0 0 1 1.43 1 4.26 4.26 0 0 1 .95 1.43 4.61 4.61 0 0 1 .35 1.79 4.56 4.56 0 0 1-.35 1.78 4.41 4.41 0 0 1-.95 1.44 4.29 4.29 0 0 1-1.43 1 4.55 4.55 0 0 1-1.78.33zm0-.95a3.54 3.54 0 0 0 1.38-.27 3.24 3.24 0 0 0 1.1-.76 3.49 3.49 0 0 0 .73-1.13 3.91 3.91 0 0 0 .26-1.43 3.64 3.64 0 0 0-1-2.53 3.22 3.22 0 0 0-1.09-.75 3.54 3.54 0 0 0-1.38-.27 3.47 3.47 0 0 0-1.38.27 3.26 3.26 0 0 0-1.1.75 3.57 3.57 0 0 0-1 2.53 3.71 3.71 0 0 0 .26 1.43 3.35 3.35 0 0 0 1.83 1.89 3.47 3.47 0 0 0 1.39.22z" class="I K"/><path d="M490.62 278.63l-3.14 8.75h-1.1l-3.14-8.75h1.1l2.6 7.44 2.58-7.44zm5.8 6.53h-3.95l-.83 2.22h-1.08l3.34-8.75h1.1l3.33 8.75h-1.07zm-3.6-.9h3.3l-1.65-4.5zm7.18-5.63h2.72a2.84 2.84 0 0 1 2 .69 2.4 2.4 0 0 1 .73 1.86 2.62 2.62 0 0 1-.51 1.65 2.48 2.48 0 0 1-1.42.87l2.48 3.68h-1.2l-2.38-3.6H501v3.6h-1zm2.65 4.23a1.82 1.82 0 0 0 1.29-.44 1.6 1.6 0 0 0 .47-1.23A1.53 1.53 0 0 0 504 280a1.79 1.79 0 0 0-1.3-.43H501v3.3zm5.07-4.23h1v8.75h-1zm8.55 6.53h-3.95l-.83 2.22h-1.08l3.34-8.75h1.1l3.33 8.75h-1.06zm-3.6-.9H516l-1.65-4.5zm13.7-5.63v8.75h-1.1l-4.4-7.1v7.1h-1v-8.75H521l4.3 7v-7zm4.26.93H528v-.93h6.26v.93h-2.66v7.82h-1zm5.38-.93h5v.93h-4v2.8h3.9v.92H537v3.2h4.17v.92H536zm-46.88 22.13h-3.95l-.84 2.22h-1.08l3.34-8.75h1.1L491 303h-1zm-3.62-.9h3.3l-1.65-4.5zm9.4 3.27a3 3 0 0 1-2.13-.74 2.77 2.77 0 0 1-.86-2h1a1.92 1.92 0 0 0 .58 1.32 1.9 1.9 0 0 0 1.37.51 2.18 2.18 0 0 0 1.36-.4 1.34 1.34 0 0 0 .51-1.11 1.29 1.29 0 0 0-.29-.87 2.79 2.79 0 0 0-1-.61l-1.26-.48a3.36 3.36 0 0 1-1.47-1 2.26 2.26 0 0 1-.46-1.46 2.09 2.09 0 0 1 .2-.91 2 2 0 0 1 .54-.71 2.57 2.57 0 0 1 .85-.46 3.42 3.42 0 0 1 1.09-.16 2.79 2.79 0 0 1 1.94.64 2.49 2.49 0 0 1 .79 1.77h-1a1.59 1.59 0 0 0-.48-1.11 1.73 1.73 0 0 0-1.22-.4 1.91 1.91 0 0 0-1.19.35 1.15 1.15 0 0 0-.46 1 1.4 1.4 0 0 0 .31.94 2.53 2.53 0 0 0 1 .65l1.28.5a3.29 3.29 0 0 1 1.44.92 2.13 2.13 0 0 1 .43 1.38 2.44 2.44 0 0 1-.2 1 2.07 2.07 0 0 1-.57.77 2.88 2.88 0 0 1-.92.49 4 4 0 0 1-1.18.19zm8.67 0a4.62 4.62 0 0 1-1.8-.35 4.53 4.53 0 0 1-1.43-.95 4.42 4.42 0 0 1-.95-1.43 4.91 4.91 0 0 1 0-3.59 4.53 4.53 0 0 1 .95-1.43 4.46 4.46 0 0 1 1.44-.95 4.79 4.79 0 0 1 1.79-.34 5.12 5.12 0 0 1 1.54.23 4.11 4.11 0 0 1 1.26.67 3.89 3.89 0 0 1 1.45 2.38h-1.1a3.15 3.15 0 0 0-.43-1 3 3 0 0 0-.69-.73 3.25 3.25 0 0 0-.93-.47 3.5 3.5 0 0 0-1.09-.16 3.47 3.47 0 0 0-1.38.27 3.43 3.43 0 0 0-1.11.76 3.49 3.49 0 0 0-.73 1.13 3.6 3.6 0 0 0-.27 1.4 3.7 3.7 0 0 0 .27 1.42 3.6 3.6 0 0 0 .73 1.13 3.4 3.4 0 0 0 1.11.75 3.31 3.31 0 0 0 1.38.28 3.25 3.25 0 0 0 2-.63 3 3 0 0 0 1.13-1.71h1.1a4 4 0 0 1-.52 1.35 3.86 3.86 0 0 1-.93 1 4.09 4.09 0 0 1-1.26.66 4.82 4.82 0 0 1-1.53.31zm10.86-2.37h-3.95l-.84 2.22h-1.08l3.35-8.75h1.1l3.33 8.75h-1.07zm-3.62-.9h3.3l-1.65-4.5zm7.2-5.63h2.7a2.83 2.83 0 0 1 2 .69 2.4 2.4 0 0 1 .74 1.86 2.56 2.56 0 0 1-.52 1.65 2.45 2.45 0 0 1-1.42.87l2.5 3.7h-1.2l-2.38-3.6H519v3.6h-1zm2.65 4.23A1.81 1.81 0 0 0 522 298a1.83 1.83 0 0 0 0-2.43 1.82 1.82 0 0 0-1.3-.43H519v3.3zm5.07-4.23h1V303h-1z" class="I K"/></svg>