<svg xmlns="http://www.w3.org/2000/svg" viewBox="0 0 1062.67 537.87"><style><![CDATA[.I{fill:#fff}.J{opacity:.3}.K{fill:#010101}]]></style><path d="M830 63.36a60.28 60.28 0 0 1 8.67.75 42.1 42.1 0 0 1 9.67 2.36 40 40 0 0 1 9.94 5.58 67.54 67.54 0 0 1 10.74 10.64 52.41 52.41 0 0 1 7.54 12.17 21.1 21.1 0 0 1 1.32 9.27 26.46 26.46 0 0 1-2.12 9.92 24.71 24.71 0 0 1-6 7.47 29.63 29.63 0 0 1-7.54 5.16 26.82 26.82 0 0 1-8.49 2.22 78.07 78.07 0 0 1-9.76.19l-3-.05-18.8-.4-30.68-.37a13 13 0 0 0-5 1.39 26.6 26.6 0 0 0-6.42 4 29.13 29.13 0 0 0-4.56 5.63 33.61 33.61 0 0 0-2.11 3.85 33.79 33.79 0 0 1-3.44 5.84 24.56 24.56 0 0 1-7 6 33 33 0 0 1-9.48 3.64 25.4 25.4 0 0 1-7.46.14h-.5a43.17 43.17 0 0 1-8.39-1.34c-3.9-1.13-7.75-2.5-11.47-3.83-3.4-1.22-6.93-2.48-10.4-3.5h-.15a34.41 34.41 0 0 0-8.29-1.76 21.34 21.34 0 0 0-7.24 1.27 30.69 30.69 0 0 0-7.41 3.73 21.41 21.41 0 0 0-4.49 4.4c-1.8 2.27-3.4 4.68-5.1 7.24-1.9 2.83-3.84 5.76-6.07 8.5a33.94 33.94 0 0 1-7.47 6.79 39.38 39.38 0 0 1-9.25 4.31 37.86 37.86 0 0 1-8.66 1.89 37.06 37.06 0 0 1-10.12-.13 28.25 28.25 0 0 1-8.37-3.3 23.55 23.55 0 0 1-5.74-4.37 74.4 74.4 0 0 1-5.91-7.36l-.85-1.17c-1.26-1.7-2.43-3.43-3.57-5.12-1.3-2-2.56-3.8-3.9-5.58-.53-.7-1-1.4-1.57-2.1a34.36 34.36 0 0 0-5.4-6.28 33.76 33.76 0 0 0-8.77-4.62 21.2 21.2 0 0 0-6.12-1.26 26 26 0 0 0-7.82.16 49.19 49.19 0 0 0-10.75 4.41 96 96 0 0 0-13.24 8.13 90.27 90.27 0 0 0-10.91 9.95 59.22 59.22 0 0 0-6.28 8 78.39 78.39 0 0 0-6.52 11.19 46.12 46.12 0 0 0-2.49 8.37l-.32 1.37a95.82 95.82 0 0 0-2 10.56 77.78 77.78 0 0 0-.69 11.17 72 72 0 0 0 1.21 12.7 106.4 106.4 0 0 0 3.38 11.74l1.4 4.3c1.66 5.3 3.5 10.7 5.27 15.92 3.1 9.15 6.32 18.62 8.78 28.05a13.41 13.41 0 0 1-1.22 8.94c-7.77 16.44-15.63 31.66-23.38 45.24a12.17 12.17 0 0 1-6.23 4.93 11.42 11.42 0 0 1-7.93.46l-9.5-3.47-15.2-5.67 6.88-5.9 11 4.17 9.54 3.5a4.55 4.55 0 0 0 2.34-.43 4.9 4.9 0 0 0 2.25-1.49c7.64-13.4 15.4-28.45 23.1-44.7a6 6 0 0 0 .72-3.59c-2.38-9.16-5.55-18.5-8.6-27.5l-5.33-16.1-1.36-4.2a117 117 0 0 1-3.61-12.61 79.41 79.41 0 0 1-1.27-14.07 86 86 0 0 1 .74-12.29 103.91 103.91 0 0 1 2.08-11.39l.32-1.33a53 53 0 0 1 3-9.79 83.37 83.37 0 0 1 7.18-12.37 65.77 65.77 0 0 1 7.13-9.09 97.39 97.39 0 0 1 11.88-10.82 104 104 0 0 1 14.41-8.9 56.36 56.36 0 0 1 12.54-5.09 33 33 0 0 1 10.28-.36 28.4 28.4 0 0 1 8.41 1.8 31.64 31.64 0 0 1 17.61 13.56l1.48 2c1.5 2 2.87 4 4.2 5.95l3.36 4.85.88 1.2a67.61 67.61 0 0 0 5.25 6.58 15.76 15.76 0 0 0 3.81 2.89 21.59 21.59 0 0 0 6 2.47 34.12 34.12 0 0 0 14.78-1.54 33 33 0 0 0 7.48-3.44 26.19 26.19 0 0 0 5.71-5.21c2-2.44 3.75-5.08 5.62-7.88 1.7-2.58 3.5-5.24 5.47-7.75a29.12 29.12 0 0 1 6.22-6 38.51 38.51 0 0 1 9.35-4.7 29 29 0 0 1 10-1.68 40.3 40.3 0 0 1 10.32 2.09h.15c3.67 1.1 7.3 2.38 10.8 3.64s7.34 2.62 11 3.68a35.14 35.14 0 0 0 6.84 1.06h.52a19 19 0 0 0 5.17 0 25.13 25.13 0 0 0 7.17-2.75 16.58 16.58 0 0 0 4.73-4 28.28 28.28 0 0 0 2.61-4.53 40.25 40.25 0 0 1 2.61-4.72 35.52 35.52 0 0 1 5.93-7.18 34 34 0 0 1 8.33-5.22 20.62 20.62 0 0 1 8.12-2.1c10.34-.18 20.86.1 31 .37l21.74.46a74.66 74.66 0 0 0 8.78-.15 19.47 19.47 0 0 0 6-1.54 22.21 22.21 0 0 0 5.49-3.79 18.59 18.59 0 0 0 4.17-5 18.89 18.89 0 0 0 1.39-7 13.82 13.82 0 0 0-.7-5.83 45 45 0 0 0-6.43-10.31 59.7 59.7 0 0 0-9.48-9.39 32.4 32.4 0 0 0-8-4.46 35.09 35.09 0 0 0-7.88-1.87 44.48 44.48 0 0 0-9.36-.61c-16.18 1.1-32.66 2.8-48.6 4.45l-5.22.53-35.5 4-39.4 4.35L584.2 95.37A98.19 98.19 0 0 0 573 97.19a84.75 84.75 0 0 0-12.55 3.48 194.52 194.52 0 0 0-19.64 9.12 36.27 36.27 0 0 0-7.48 5 49.65 49.65 0 0 0-10.41 14.34 26.14 26.14 0 0 0-2.27 7 65.21 65.21 0 0 0-.8 14.1 48 48 0 0 0 .49 4.82 37 37 0 0 1 .49 8.16 9.6 9.6 0 0 1-5.68 7.4 33.17 33.17 0 0 1-8.22 1.88 34.59 34.59 0 0 0-5.38 1c-.74 6.18-1.3 12.72-.54 18.82a192.8 192.8 0 0 0 4.08 20.6c1.28 5.4 2.6 11 3.54 16.6l.32 1.95c2.3 13.62 4.64 27.7 5.56 41.7.5 7.75-.64 15.65-1.7 21.67a148.36 148.36 0 0 1-6.18 23.54 18.46 18.46 0 0 1-5.36 7.8c-13.66 11.66-28 23-41.95 34q-5.4 4.26-10.77 8.52l-35.63 27.56-20.8 15.45q-7.22 5.3-14.4 10.63l-11 8.4-19.45 14.48c-8.92 6.25-19.57 13.52-30.88 20.08-8.4 4.87-17.3 9-25.9 13.05l-1.82.84c-6.32 3-13.06 5.8-20.6 8.72-7.87 3-15.94 5.74-22.88 8l-3.93 1.32c-5.5 1.86-11.2 3.78-17 5.16a61.41 61.41 0 0 1-14.68 1.85 33.2 33.2 0 0 1-10.94-2.2c-3.25-1.16-6.57-2.6-8.9-5.14a34.49 34.49 0 0 1-7.5-12.76c-1.4-4.67-.9-9.9-.24-13.44a67.93 67.93 0 0 1 5.46-16.42 56.7 56.7 0 0 1 8.91-13.7 32.11 32.11 0 0 1 10.68-7.69 23.66 23.66 0 0 1 12.08-2.05c10.52 1.42 21.12 3.65 31.37 5.8 8.64 1.82 17.58 3.7 26.36 5.06a63 63 0 0 0 13.45.29 87.58 87.58 0 0 0 16.1-2.18 101.62 101.62 0 0 0 18.57-6.66 124 124 0 0 0 17.68-10.59A206.9 206.9 0 0 0 360 408.61a89.87 89.87 0 0 0 9.26-9.37 142.32 142.32 0 0 0 12-15.7 102.33 102.33 0 0 0 7.41-15.08 45.16 45.16 0 0 0 2.79-9.29 46.8 46.8 0 0 0 1-11.42 76.54 76.54 0 0 0-3-16.34 109.64 109.64 0 0 0-5.8-14.24l-1.22-2.64c-3.07-6.74-6.37-13.24-10-20.44-.9-1.77-1.9-3.5-3-5.32a82.35 82.35 0 0 1-4.53-8.54 14.27 14.27 0 0 1-1.2-7.75 13.85 13.85 0 0 1 4.06-7.59 11.81 11.81 0 0 1 8.06-2.79c1.4.1 6.16.62 8.84 3.95A168.27 168.27 0 0 1 396 282.6c2.92 4.67 5.94 9.5 9.2 13.83 2 2.66 4.28 5.67 6.93 6.84 22.46 9.82 45.2 19.18 67.2 27.57l-7 5.76c-22.13-8.44-40.74-16.25-63.32-26.13-4.54-2-7.6-6-10.06-9.3-3.47-4.6-6.6-9.6-9.6-14.4A161.22 161.22 0 0 0 378.63 271a5.43 5.43 0 0 0-3.2-1 4.15 4.15 0 0 0-2.35.82 6.14 6.14 0 0 0-1.54 3.05 6.49 6.49 0 0 0 .67 3.27 74.71 74.71 0 0 0 4.11 7.74c1.06 1.83 2.17 3.73 3.17 5.68 3.72 7.28 7.06 13.87 10.2 20.75l1.2 2.6a114.21 114.21 0 0 1 6.2 15.29 84 84 0 0 1 3.28 18 53.84 53.84 0 0 1-1.14 13.38 53 53 0 0 1-3.27 10.9 108.37 108.37 0 0 1-8 16.25 147.66 147.66 0 0 1-12.67 16.59 97.79 97.79 0 0 1-10.07 10.2A212.89 212.89 0 0 1 347.15 429a131.23 131.23 0 0 1-18.8 11.24 109.89 109.89 0 0 1-20 7.22 95 95 0 0 1-17.55 2.4 71 71 0 0 1-15.16-.36c-9-1.4-18-3.3-26.77-5.14-10.1-2.13-20.57-4.33-30.8-5.7a15.39 15.39 0 0 0-7.86 1.46 24.37 24.37 0 0 0-8 5.76 49.35 49.35 0 0 0-7.63 11.8 59.7 59.7 0 0 0-4.84 14.48 21.69 21.69 0 0 0 .05 9.76 26.75 26.75 0 0 0 5.78 9.7c1.33 1.45 4.2 2.48 5.73 3a26.37 26.37 0 0 0 8.34 1.76 54.54 54.54 0 0 0 12.78-1.65c5.44-1.3 11-3.15 16.3-5l4-1.33c6.86-2.28 14.82-5 22.53-7.93 7.37-2.83 13.95-5.6 20.1-8.5l1.82-.85c8.45-3.95 17.2-8 25.3-12.73 11.05-6.4 21.52-13.56 30.3-19.72 6.5-4.55 12.94-9.5 19.17-14.27l11.13-8.46q7.2-5.37 14.45-10.66l20.66-15.32 35.5-27.46 10.76-8.5 41.7-33.8a10.52 10.52 0 0 0 3.05-4.43 140.3 140.3 0 0 0 5.81-22.25c1-5.93 2-12.92 1.6-19.8-.9-13.6-3.22-27.47-5.47-40.9l-.32-2c-.9-5.35-2.2-10.8-3.43-16.08a198.42 198.42 0 0 1-4.24-21.45c-.87-7.1-.23-14.4.6-21.2a7.54 7.54 0 0 1 4.78-5.88 38.07 38.07 0 0 1 7.27-1.51 26.45 26.45 0 0 0 6.3-1.35 2.36 2.36 0 0 0 .86-.91 32.18 32.18 0 0 0-.46-6.33c-.24-1.8-.5-3.68-.56-5.6a72 72 0 0 1 .93-15.83 33.73 33.73 0 0 1 3-9.11 56.25 56.25 0 0 1 4.6-7.85A55.44 55.44 0 0 1 528 109a43.68 43.68 0 0 1 9.08-6.14 199.58 199.58 0 0 1 20.44-9.49 94.55 94.55 0 0 1 13.71-3.83 105.1 105.1 0 0 1 12.14-1.92l115.27-10.85 39.3-4.34 35.6-4 5.2-.54 48.87-4.47c.84-.04 1.63-.06 2.38-.06z" class="I"/><path d="M809 172.48a4.31 4.31 0 0 1-3-1 4 4 0 0 1-1.22-2.83h1.45a2.76 2.76 0 0 0 .83 1.88 2.71 2.71 0 0 0 1.94.72 3 3 0 0 0 1.93-.57 1.89 1.89 0 0 0 .72-1.57 1.79 1.79 0 0 0-.41-1.23 3.83 3.83 0 0 0-1.43-.87l-1.8-.68a4.8 4.8 0 0 1-2.08-1.37 3.27 3.27 0 0 1-.65-2.08 3.08 3.08 0 0 1 .28-1.29 2.8 2.8 0 0 1 .77-1 3.84 3.84 0 0 1 1.2-.65 5.09 5.09 0 0 1 1.55-.23 4 4 0 0 1 2.75.9 3.55 3.55 0 0 1 1.12 2.51h-1.45a2.28 2.28 0 0 0-.7-1.57 2.43 2.43 0 0 0-1.72-.57 2.64 2.64 0 0 0-1.69.51 1.61 1.61 0 0 0-.65 1.35 2 2 0 0 0 .43 1.33 3.55 3.55 0 0 0 1.45.92l1.83.7a4.72 4.72 0 0 1 2 1.3 3.05 3.05 0 0 1 .62 2 3.48 3.48 0 0 1-.29 1.43 3 3 0 0 1-.82 1.1 3.62 3.62 0 0 1-1.29.69 5.56 5.56 0 0 1-1.68.17zm6.7-12.6h7.15v1.3h-5.72v4h5.53v1.3h-5.53V171H823v1.3h-7.35zm15.56 12.6a6.48 6.48 0 0 1-2.55-.49 6.14 6.14 0 0 1-2-1.34 6.33 6.33 0 0 1-1.35-2 7 7 0 0 1 0-5.09 6.28 6.28 0 0 1 1.35-2 6.11 6.11 0 0 1 2-1.35 6.46 6.46 0 0 1 2.54-.49 7 7 0 0 1 2.18.33 6 6 0 0 1 1.79.94 5.8 5.8 0 0 1 1.32 1.47 5.59 5.59 0 0 1 .74 1.91h-1.55a4.73 4.73 0 0 0-.61-1.37 4.18 4.18 0 0 0-2.29-1.7 5.28 5.28 0 0 0-3.51.15 4.81 4.81 0 0 0-1.57 1.07 5.15 5.15 0 0 0-1.42 3.6 5.14 5.14 0 0 0 .38 2 5 5 0 0 0 1 1.6 4.88 4.88 0 0 0 3.52 1.46 4.65 4.65 0 0 0 2.86-.9 4.31 4.31 0 0 0 1.6-2.42h1.55a5.73 5.73 0 0 1-.74 1.92 5.65 5.65 0 0 1-3.11 2.41 7 7 0 0 1-2.13.29zm10.94-11.3h-3.67v-1.3h8.9v1.3h-3.78v11.1h-1.44zm12.67 11.3a6.41 6.41 0 0 1-2.53-.49 6.13 6.13 0 0 1-3.34-3.39 6.8 6.8 0 0 1 0-5.07 6.12 6.12 0 0 1 3.38-3.37 6.83 6.83 0 0 1 5.08 0 6.12 6.12 0 0 1 2 1.35 6 6 0 0 1 1.35 2 6.8 6.8 0 0 1 0 5.07 6.16 6.16 0 0 1-1.35 2 6 6 0 0 1-2 1.35 6.46 6.46 0 0 1-2.59.55zm0-1.34a4.93 4.93 0 0 0 2-.39 4.87 4.87 0 0 0 1.56-1.07 4.75 4.75 0 0 0 1-1.61 5.57 5.57 0 0 0 .36-2 5.09 5.09 0 0 0-1.41-3.6 4.7 4.7 0 0 0-1.55-1.06 5.1 5.1 0 0 0-2-.37 5 5 0 0 0-2 .37 4.84 4.84 0 0 0-1.56 1.06 5.16 5.16 0 0 0-1 1.61 5.22 5.22 0 0 0-.38 2 5.37 5.37 0 0 0 .37 2 4.84 4.84 0 0 0 4.55 3.07zm9.13-11.27h3.85a4.08 4.08 0 0 1 2.87 1 3.46 3.46 0 0 1 1 2.65 3.64 3.64 0 0 1-.73 2.33 3.55 3.55 0 0 1-2 1.24l3.52 5.22h-1.7l-3.38-5.1h-2v5.1H864zm3.76 6a2.57 2.57 0 0 0 1.82-.61 2.6 2.6 0 0 0 0-3.46 2.6 2.6 0 0 0-1.84-.61h-2.34v4.68zm15.06-6v12.4h-1.44v-10.93l-2.36.74-.35-1.26 2.9-1z" opacity=".5" class="I"/><path d="M302.23 497.8a4.31 4.31 0 0 1-3-1 4 4 0 0 1-1.22-2.83h1.45a2.76 2.76 0 0 0 .83 1.88 2.71 2.71 0 0 0 1.94.72 3 3 0 0 0 1.93-.58 1.88 1.88 0 0 0 .72-1.56 1.82 1.82 0 0 0-.41-1.24 4.05 4.05 0 0 0-1.43-.86l-1.8-.7a4.63 4.63 0 0 1-2.08-1.37 3.26 3.26 0 0 1-.65-2.07 2.9 2.9 0 0 1 .28-1.29 2.84 2.84 0 0 1 .77-1 3.72 3.72 0 0 1 1.2-.64 4.76 4.76 0 0 1 1.55-.23 4 4 0 0 1 2.75.9 3.54 3.54 0 0 1 1.12 2.51h-1.46a2.23 2.23 0 0 0-.69-1.57 2.43 2.43 0 0 0-1.72-.57 2.67 2.67 0 0 0-1.7.51 1.62 1.62 0 0 0-.64 1.35 2 2 0 0 0 .43 1.33 3.66 3.66 0 0 0 1.45.92l1.82.7a4.7 4.7 0 0 1 2 1.3 3 3 0 0 1 .62 2 3.53 3.53 0 0 1-.29 1.44 3 3 0 0 1-.82 1.1 3.62 3.62 0 0 1-1.29.69 5.56 5.56 0 0 1-1.67.15zm6.7-12.62h7.15v1.3h-5.72v4h5.53v1.3h-5.53v4.52h5.92v1.3h-7.35zm15.56 12.62a6.66 6.66 0 0 1-2.55-.49 6.17 6.17 0 0 1-2-1.35 6.28 6.28 0 0 1-1.35-2 6.67 6.67 0 0 1-.48-2.56 6.59 6.59 0 0 1 .48-2.53 6.33 6.33 0 0 1 1.35-2 6.08 6.08 0 0 1 2-1.34 6.46 6.46 0 0 1 2.54-.49 7 7 0 0 1 2.17.33 5.71 5.71 0 0 1 1.8.94 5.48 5.48 0 0 1 1.32 1.47 5.54 5.54 0 0 1 .74 1.9H329a4.67 4.67 0 0 0-.61-1.36 4.08 4.08 0 0 0-1-1 4.45 4.45 0 0 0-1.3-.67 5.3 5.3 0 0 0-1.56-.23 4.93 4.93 0 0 0-2 .39 4.72 4.72 0 0 0-1.56 1.07 5 5 0 0 0-1 1.6 5.45 5.45 0 0 0 0 4 5 5 0 0 0 1 1.61 4.87 4.87 0 0 0 1.56 1.07 5.11 5.11 0 0 0 2 .38 4.65 4.65 0 0 0 2.85-.89 4.33 4.33 0 0 0 1.61-2.43h1.55a5.64 5.64 0 0 1-2.06 3.4 5.92 5.92 0 0 1-1.8.94 7 7 0 0 1-2.17.24zm10.96-11.3h-3.67v-1.3h8.88v1.3h-3.77v11.1h-1.44zm12.66 11.3a6.59 6.59 0 0 1-2.53-.49 6.34 6.34 0 0 1-2-1.36 6 6 0 0 1-1.35-2 6.8 6.8 0 0 1 0-5.07 6 6 0 0 1 3.38-3.37 6.83 6.83 0 0 1 5.08 0 6.1 6.1 0 0 1 2 1.34 6.33 6.33 0 0 1 1.35 2 6.8 6.8 0 0 1 0 5.07 6.33 6.33 0 0 1-1.35 2 6.15 6.15 0 0 1-2 1.36 6.64 6.64 0 0 1-2.58.52zm0-1.35a5.11 5.11 0 0 0 2-.38 4.76 4.76 0 0 0 2.59-2.69 5.62 5.62 0 0 0 0-4 5.26 5.26 0 0 0-1-1.6 4.55 4.55 0 0 0-1.55-1.06 5.11 5.11 0 0 0-2-.38 5 5 0 0 0-1.95.38 4.69 4.69 0 0 0-1.56 1.06 5.05 5.05 0 0 0-1 1.6 5.55 5.55 0 0 0 0 4 4.73 4.73 0 0 0 2.6 2.69 5 5 0 0 0 1.87.38zm9.1-11.27h3.85a4.06 4.06 0 0 1 2.87 1 3.43 3.43 0 0 1 1 2.64 3.68 3.68 0 0 1-.73 2.33 3.51 3.51 0 0 1-2 1.25l3.52 5.22h-1.7l-3.38-5.1h-2v5.1h-1.43zm3.76 6a2.53 2.53 0 0 0 1.82-.62 2.26 2.26 0 0 0 .66-1.74 2.22 2.22 0 0 0-.64-1.71 2.56 2.56 0 0 0-1.84-.61h-2.34v4.68zm19.5 5.1v1.3h-8.08v-.74a4.21 4.21 0 0 1 .33-1.71 4.81 4.81 0 0 1 .82-1.32 6.17 6.17 0 0 1 1.09-1l1.14-.76q.8-.5 1.38-.87a5.91 5.91 0 0 0 .93-.73 2.33 2.33 0 0 0 .52-.77 2.63 2.63 0 0 0 .17-1 2.29 2.29 0 0 0-.66-1.79 2.54 2.54 0 0 0-3.39.12 2.66 2.66 0 0 0-.67 1.87h-1.47a4.39 4.39 0 0 1 .28-1.61 3.63 3.63 0 0 1 .8-1.24 3.32 3.32 0 0 1 1.22-.8 4.51 4.51 0 0 1 1.6-.27 4.39 4.39 0 0 1 1.53.25 3.29 3.29 0 0 1 1.2.72 3.43 3.43 0 0 1 .78 1.17 4.09 4.09 0 0 1 .27 1.53 3.59 3.59 0 0 1-.25 1.41 3.32 3.32 0 0 1-.71 1.08 6.6 6.6 0 0 1-1.08.92l-1.37.88-1.15.77a6.07 6.07 0 0 0-.87.76 3.51 3.51 0 0 0-.6.82 3.3 3.3 0 0 0-.33 1z" opacity=".5" class="I"/><path d="M307.6 261.8h1v3.6h4.46v-3.6h1v8.75h-1v-4.23h-4.46v4.23h-1zm14.02 6.52h-3.95l-.83 2.23h-1.08l3.34-8.75h1.1l3.33 8.75h-1.07zm-3.6-.9h3.28l-1.65-4.5zm7.18-5.62h1v8.75h-1zm3.48 0h2.72a2.84 2.84 0 0 1 2 .68 2.41 2.41 0 0 1 .73 1.86 2.62 2.62 0 0 1-.51 1.65 2.5 2.5 0 0 1-1.42.88l2.48 3.68h-1.2L331.1 267h-1.42v3.6h-1zm2.65 4.22a1.81 1.81 0 0 0 1.29-.43 1.83 1.83 0 0 0 0-2.44 1.81 1.81 0 0 0-1.3-.43h-1.65V266zm5.07-4.22h2.72a2.84 2.84 0 0 1 2 .68 2.41 2.41 0 0 1 .73 1.86 2.85 2.85 0 0 1-.19 1.08 2.39 2.39 0 0 1-.56.83 2.5 2.5 0 0 1-.86.53 3.41 3.41 0 0 1-1.14.18h-1.7v3.6h-1zm2.6 4.2a1.81 1.81 0 0 0 1.29-.43 1.86 1.86 0 0 0 0-2.44 1.81 1.81 0 0 0-1.3-.43h-1.65v3.3zm4.58-4.2h1v8.75h-1zm9.97 0v8.75h-1.1l-4.38-7.12v7.12h-1v-8.75h1.17l4.3 7v-7z" class="I J"/><path d="M131.08 472.48a3 3 0 0 1-2.12-.73 2.76 2.76 0 0 1-.87-2h1a1.93 1.93 0 0 0 .58 1.33 1.9 1.9 0 0 0 1.37.51 2.1 2.1 0 0 0 1.36-.41 1.32 1.32 0 0 0 .51-1.1 1.25 1.25 0 0 0-.29-.87 2.7 2.7 0 0 0-1-.61l-1.26-.5a3.35 3.35 0 0 1-1.47-1 2.34 2.34 0 0 1-.45-1.47 2.12 2.12 0 0 1 .19-.91 2 2 0 0 1 .55-.7 2.43 2.43 0 0 1 .84-.46 3.42 3.42 0 0 1 1.09-.16 2.83 2.83 0 0 1 1.94.63 2.49 2.49 0 0 1 .79 1.77h-1a1.61 1.61 0 0 0-.49-1.1 1.73 1.73 0 0 0-1.22-.41 1.86 1.86 0 0 0-1.19.36 1.15 1.15 0 0 0-.46 1 1.36 1.36 0 0 0 .31.93 2.43 2.43 0 0 0 1 .65l1.3.5a3.3 3.3 0 0 1 1.43.91A2.16 2.16 0 0 1 134 470a2.53 2.53 0 0 1-.2 1 2.24 2.24 0 0 1-.58.78 2.63 2.63 0 0 1-.91.48 3.78 3.78 0 0 1-1.23.22zm4.72-8.88h2.72a2.87 2.87 0 0 1 2 .68 2.44 2.44 0 0 1 .74 1.87 2.85 2.85 0 0 1-.2 1.08 2.32 2.32 0 0 1-.55.82 2.4 2.4 0 0 1-.87.53 3.33 3.33 0 0 1-1.14.18h-1.7v3.6h-1zm2.65 4.23a1.82 1.82 0 0 0 1.29-.44 1.6 1.6 0 0 0 .47-1.23 1.57 1.57 0 0 0-.46-1.21 1.83 1.83 0 0 0-1.3-.43h-1.65v3.3zm8.55 4.65a4.55 4.55 0 0 1-1.78-.34 4.43 4.43 0 0 1-1.44-1 4.29 4.29 0 0 1-1-1.43 4.88 4.88 0 0 1 0-3.58 4.42 4.42 0 0 1 .95-1.43 4.46 4.46 0 0 1 1.44-.95 4.88 4.88 0 0 1 3.58 0 4.34 4.34 0 0 1 2.38 2.38 4.88 4.88 0 0 1 0 3.58 4.42 4.42 0 0 1-1 1.43 4.29 4.29 0 0 1-1.43 1 4.6 4.6 0 0 1-1.7.34zm0-1a3.47 3.47 0 0 0 1.38-.27 3.4 3.4 0 0 0 1.11-.75 3.54 3.54 0 0 0 .73-1.14 3.89 3.89 0 0 0 .25-1.42 3.57 3.57 0 0 0-1-2.54 3.26 3.26 0 0 0-1.1-.75 3.77 3.77 0 0 0-2.75 0 3.16 3.16 0 0 0-1.1.75 3.64 3.64 0 0 0-1 2.54 3.9 3.9 0 0 0 .26 1.42 3.54 3.54 0 0 0 .73 1.14 3.3 3.3 0 0 0 1.11.75 3.45 3.45 0 0 0 1.38.32zm10.33 1a4.6 4.6 0 0 1-1.79-.34 4.38 4.38 0 0 1-2.39-2.39 4.75 4.75 0 0 1 0-3.58 4.26 4.26 0 0 1 .95-1.43 4.42 4.42 0 0 1 1.43-.95 4.69 4.69 0 0 1 1.8-.34 4.64 4.64 0 0 1 1.79.34 4.37 4.37 0 0 1 1.42.95 4.26 4.26 0 0 1 1 1.43 4.75 4.75 0 0 1 0 3.58 4.43 4.43 0 0 1-2.37 2.39 4.64 4.64 0 0 1-1.84.34zm0-1a3.54 3.54 0 0 0 1.38-.27 3.36 3.36 0 0 0 1.83-1.89 3.9 3.9 0 0 0 .26-1.42 3.64 3.64 0 0 0-1-2.54 3.22 3.22 0 0 0-1.09-.75 3.72 3.72 0 0 0-1.38-.26 3.65 3.65 0 0 0-1.38.26 3.26 3.26 0 0 0-1.1.75 3.6 3.6 0 0 0-.73 1.13 3.8 3.8 0 0 0-.26 1.41 3.7 3.7 0 0 0 .26 1.42 3.35 3.35 0 0 0 .72 1.14 3.4 3.4 0 0 0 1.11.75 3.47 3.47 0 0 0 1.38.32zm12.92-7.88v8.75h-1.1l-4.38-7.1v7.1h-1v-8.75h1.17l4.3 7v-7zm-37.53 24.48a4.62 4.62 0 0 1-1.8-.34 4.34 4.34 0 0 1-2.38-2.38 4.91 4.91 0 0 1 0-3.59 4.34 4.34 0 0 1 2.38-2.38 4.69 4.69 0 0 1 1.8-.34 5 5 0 0 1 1.53.23 4.37 4.37 0 0 1 1.27.66 4 4 0 0 1 1.45 2.38h-1.1a3.48 3.48 0 0 0-.43-1 2.86 2.86 0 0 0-.7-.73 3 3 0 0 0-.92-.47 3.75 3.75 0 0 0-2.48.11 3.36 3.36 0 0 0-1.1.75 3.63 3.63 0 0 0-.74 1.13 4 4 0 0 0 0 2.83 3.63 3.63 0 0 0 .74 1.13 3.36 3.36 0 0 0 1.1.75 3.54 3.54 0 0 0 1.38.27 3.3 3.3 0 0 0 2-.63 3 3 0 0 0 1.13-1.71H137a4.13 4.13 0 0 1-.52 1.36 4 4 0 0 1-.93 1 4.37 4.37 0 0 1-1.27.66 5 5 0 0 1-1.56.31zm9.28 0a3.61 3.61 0 0 1-1.35-.24 3 3 0 0 1-1-.71A3.09 3.09 0 0 1 139 486a4.53 4.53 0 0 1-.23-1.47v-5.36h1v5.4a2.76 2.76 0 0 0 .6 1.87 2.06 2.06 0 0 0 1.65.7 2.1 2.1 0 0 0 1.65-.68 2.78 2.78 0 0 0 .6-1.89v-5.4h1v5.36a4.53 4.53 0 0 1-.23 1.47 3.22 3.22 0 0 1-.65 1.11 3 3 0 0 1-1 .71 3.7 3.7 0 0 1-1.39.26zm5.66-8.88h2.7a2.87 2.87 0 0 1 2 .68 2.44 2.44 0 0 1 .74 1.87 2.57 2.57 0 0 1-.51 1.64 2.52 2.52 0 0 1-1.43.88l2.48 3.68h-1.2l-2.38-3.6h-1.42v3.6h-1zm2.65 4.23a1.81 1.81 0 0 0 1.28-.44 1.57 1.57 0 0 0 .47-1.23 1.6 1.6 0 0 0-.45-1.21 1.87 1.87 0 0 0-1.3-.43h-1.65v3.3zm11.17-4.23l-3.15 8.75h-1.1l-3.14-8.75h1.1l2.6 7.44 2.58-7.44zm1.7 0h5v.92h-4v2.8h3.9v.92h-3.9V487h4.17v.92h-5.18z" class="I J"/><path d="M897.35 77.66h5v.93h-4v3h3.84v.92h-3.84v3.87h-1zm6.65 0h1v8.75h-1zm3.5 0h2.72a2.83 2.83 0 0 1 2 .69 2.4 2.4 0 0 1 .73 1.86 2.62 2.62 0 0 1-.51 1.65 2.43 2.43 0 0 1-1.42.87l2.48 3.68h-1.2l-2.38-3.58h-1.4v3.58h-1zm2.65 4.23a1.82 1.82 0 0 0 1.29-.44 1.6 1.6 0 0 0 .47-1.22 1.55 1.55 0 0 0-.46-1.21 1.79 1.79 0 0 0-1.3-.43h-1.65v3.3zm7.35 4.67a3 3 0 0 1-2.12-.74 2.81 2.81 0 0 1-.87-2h1a1.93 1.93 0 0 0 .59 1.32 1.88 1.88 0 0 0 1.36.51 2.15 2.15 0 0 0 1.37-.4 1.33 1.33 0 0 0 .5-1.11 1.24 1.24 0 0 0-.29-.87 2.62 2.62 0 0 0-1-.61l-1.26-.48a3.4 3.4 0 0 1-1.47-1 2.31 2.31 0 0 1-.45-1.46 2.12 2.12 0 0 1 .19-.91 2 2 0 0 1 .55-.71 2.52 2.52 0 0 1 .84-.46 3.79 3.79 0 0 1 1.1-.16 2.76 2.76 0 0 1 1.93.64 2.46 2.46 0 0 1 .8 1.77h-1a1.6 1.6 0 0 0-.49-1.11 1.7 1.7 0 0 0-1.21-.4 1.87 1.87 0 0 0-1.2.36 1.14 1.14 0 0 0-.45 1 1.45 1.45 0 0 0 .3.94 2.53 2.53 0 0 0 1 .65l1.3.5a3.25 3.25 0 0 1 1.43.92 2.08 2.08 0 0 1 .44 1.38 2.58 2.58 0 0 1-.2 1 2.21 2.21 0 0 1-.58.77 2.56 2.56 0 0 1-.91.49 4 4 0 0 1-1.19.18zm6.32-7.96h-2.6v-.93h6.27v.93h-2.67v7.82h-1zm-22.52 23.56a4.62 4.62 0 0 1-1.8-.35 4.36 4.36 0 0 1-1.43-1 4.42 4.42 0 0 1-1-1.43 4.62 4.62 0 0 1-.34-1.8 4.55 4.55 0 0 1 .34-1.78 4.32 4.32 0 0 1 2.39-2.38 4.61 4.61 0 0 1 1.79-.35 4.82 4.82 0 0 1 1.54.24 4 4 0 0 1 1.27.66 4.18 4.18 0 0 1 .93 1 4.08 4.08 0 0 1 .52 1.35h-1.1a3 3 0 0 0-.43-1 2.87 2.87 0 0 0-.69-.74 3.2 3.2 0 0 0-.92-.47 4 4 0 0 0-1.1-.16 3.47 3.47 0 0 0-1.38.27 3.56 3.56 0 0 0-2.11 3.29 3.67 3.67 0 0 0 .27 1.42 3.6 3.6 0 0 0 .73 1.13 3.4 3.4 0 0 0 1.11.75 3.31 3.31 0 0 0 1.38.28 3.25 3.25 0 0 0 2-.63 3 3 0 0 0 1.13-1.71h1.1a4.17 4.17 0 0 1-.52 1.35 4.23 4.23 0 0 1-.93 1 4 4 0 0 1-1.27.66 4.82 4.82 0 0 1-1.48.4zm9.3 0a3.59 3.59 0 0 1-1.34-.25 2.8 2.8 0 0 1-1-.71 3.22 3.22 0 0 1-.65-1.11 4.2 4.2 0 0 1-.23-1.47v-5.36h1v5.4a2.8 2.8 0 0 0 .61 1.88 2.32 2.32 0 0 0 3.29 0 2.75 2.75 0 0 0 .6-1.89v-5.4h1v5.36a4.45 4.45 0 0 1-.22 1.47 3.22 3.22 0 0 1-.65 1.11 2.76 2.76 0 0 1-1 .71 3.62 3.62 0 0 1-1.41.26zm5.64-8.9H919a2.83 2.83 0 0 1 2 .69 2.4 2.4 0 0 1 .73 1.86 2.62 2.62 0 0 1-.51 1.65 2.43 2.43 0 0 1-1.42.87l2.48 3.68h-1.2l-2.38-3.58h-1.42V102h-1zm2.65 4.23a1.82 1.82 0 0 0 1.29-.44 1.6 1.6 0 0 0 .47-1.22 1.55 1.55 0 0 0-.46-1.21 1.79 1.79 0 0 0-1.3-.43h-1.65v3.3zm11.17-4.23L926.9 102h-1.1l-3.13-8.75h1.1l2.6 7.44 2.62-7.43zm1.7 0h5v.93h-4V97h3.9v.93h-3.9v3.18h4.18v.9h-5.2z" class="I J"/><path d="M701.88 188.85a3 3 0 0 1-2.12-.74 2.77 2.77 0 0 1-.87-2h1a1.86 1.86 0 0 0 2 1.83 2.1 2.1 0 0 0 1.36-.4 1.34 1.34 0 0 0 .51-1.11 1.29 1.29 0 0 0-.29-.87 2.84 2.84 0 0 0-1-.61l-1.26-.48a3.28 3.28 0 0 1-1.47-1 2.29 2.29 0 0 1-.45-1.46 2.12 2.12 0 0 1 .19-.91 2 2 0 0 1 .55-.71 2.41 2.41 0 0 1 .84-.45 3.46 3.46 0 0 1 1.09-.17 2.83 2.83 0 0 1 1.94.64 2.45 2.45 0 0 1 .79 1.77h-1a1.64 1.64 0 0 0-.49-1.11 1.73 1.73 0 0 0-1.22-.4 1.86 1.86 0 0 0-1.19.36 1.13 1.13 0 0 0-.46 1 1.38 1.38 0 0 0 .31.94 2.53 2.53 0 0 0 1 .65l1.3.5a3.31 3.31 0 0 1 1.43.92 2.13 2.13 0 0 1 .44 1.38 2.58 2.58 0 0 1-.2 1 2.21 2.21 0 0 1-.58.77 2.65 2.65 0 0 1-.91.49 4.09 4.09 0 0 1-1.23.18zm4.12-4.63h3v.92h-3zm8.78 4.63a4.62 4.62 0 0 1-1.8-.35 4.34 4.34 0 0 1-2.38-2.38 4.62 4.62 0 0 1-.35-1.8 4.56 4.56 0 0 1 .35-1.78 4.34 4.34 0 0 1 2.38-2.38 4.69 4.69 0 0 1 1.8-.35 4.81 4.81 0 0 1 1.53.24 4 4 0 0 1 2.2 1.69 4.08 4.08 0 0 1 .52 1.35h-1.1a3.23 3.23 0 0 0-.43-1 3.08 3.08 0 0 0-.7-.74 3.2 3.2 0 0 0-.92-.47 3.9 3.9 0 0 0-1.1-.16 3.36 3.36 0 0 0-2.48 1 3.63 3.63 0 0 0-.74 1.13 4 4 0 0 0 0 2.82 3.63 3.63 0 0 0 .74 1.13 3.36 3.36 0 0 0 2.48 1 3.3 3.3 0 0 0 2-.63 3 3 0 0 0 1.13-1.71h1.1a4.17 4.17 0 0 1-.52 1.35 3.86 3.86 0 0 1-.93 1 3.93 3.93 0 0 1-1.27.66 4.81 4.81 0 0 1-1.5.38zm9.32 0a3.42 3.42 0 0 1-1.35-.25 2.76 2.76 0 0 1-1-.71 3.09 3.09 0 0 1-.66-1.11 4.45 4.45 0 0 1-.23-1.47V180h1v5.4a2.77 2.77 0 0 0 .6 1.88 2.33 2.33 0 0 0 3.3 0 2.75 2.75 0 0 0 .59-1.89V180h1v5.35a4.45 4.45 0 0 1-.23 1.47 3.22 3.22 0 0 1-.65 1.11 2.68 2.68 0 0 1-1 .71 3.42 3.42 0 0 1-1.37.21zm5.6-8.85h2.72a2.82 2.82 0 0 1 2 .68 2.42 2.42 0 0 1 .74 1.86 2.56 2.56 0 0 1-.52 1.65 2.46 2.46 0 0 1-1.42.88l2.48 3.67h-1.2l-2.37-3.58h-1.42v3.58h-1zm2.66 4.22a1.8 1.8 0 0 0 1.28-.43 1.85 1.85 0 0 0 0-2.44 1.82 1.82 0 0 0-1.3-.43h-1.65v3.3zm11.17-4.22l-3.14 8.74h-1.1l-3.14-8.74h1.1l2.6 7.43 2.58-7.43zm1.7 0h5v.92h-4v2.8h3.9v.93h-3.9v3.18h4.17v.92h-5.2zm9.35 8.85a3 3 0 0 1-2.12-.74 2.74 2.74 0 0 1-.87-2h1a1.86 1.86 0 0 0 1.95 1.83 2.12 2.12 0 0 0 1.36-.4 1.34 1.34 0 0 0 .51-1.11 1.29 1.29 0 0 0-.29-.87 2.84 2.84 0 0 0-1-.61l-1.26-.48a3.28 3.28 0 0 1-1.47-1 2.3 2.3 0 0 1-.46-1.46 2.13 2.13 0 0 1 .2-.91 2 2 0 0 1 .55-.71 2.41 2.41 0 0 1 .84-.45 3.41 3.41 0 0 1 1.09-.17 2.83 2.83 0 0 1 1.94.64 2.45 2.45 0 0 1 .79 1.77h-1a1.64 1.64 0 0 0-.49-1.11 1.73 1.73 0 0 0-1.22-.4 1.86 1.86 0 0 0-1.19.36 1.13 1.13 0 0 0-.46 1 1.38 1.38 0 0 0 .31.94 2.53 2.53 0 0 0 1 .65l1.28.5a3.29 3.29 0 0 1 1.44.89 2.13 2.13 0 0 1 .44 1.38 2.42 2.42 0 0 1-.21 1 2.07 2.07 0 0 1-.57.77 2.75 2.75 0 0 1-.91.49 4.09 4.09 0 0 1-1.18.21z" class="I J"/><path d="M555.47 185.57h2.66a6.06 6.06 0 0 1 2 .31 4.35 4.35 0 0 1 1.51.89 3.93 3.93 0 0 1 1 1.37 4.88 4.88 0 0 1 0 3.58 3.91 3.91 0 0 1-1 1.39 4.44 4.44 0 0 1-1.51.89 5.78 5.78 0 0 1-2 .32h-2.66zm2.66 7.83a4.37 4.37 0 0 0 1.52-.25 3.27 3.27 0 0 0 1.18-.71 3 3 0 0 0 .76-1.1 3.82 3.82 0 0 0 0-2.82 2.92 2.92 0 0 0-.75-1.08 3.46 3.46 0 0 0-1.18-.7 4.59 4.59 0 0 0-1.53-.25h-1.65v6.9zm9.87 1.06a3.65 3.65 0 0 1-1.35-.24 3 3 0 0 1-1-.71 3.09 3.09 0 0 1-.66-1.11 4.54 4.54 0 0 1-.22-1.47v-5.36h1V191a2.75 2.75 0 0 0 .6 1.87 2.06 2.06 0 0 0 1.65.7 2.1 2.1 0 0 0 1.65-.68 2.78 2.78 0 0 0 .6-1.89v-5.4h1v5.36a4.28 4.28 0 0 1-.23 1.47 3.22 3.22 0 0 1-.65 1.11 2.84 2.84 0 0 1-1 .71 3.7 3.7 0 0 1-1.39.21zm12.1-8.9v8.75H579l-4.38-7.1v7.1h-1v-8.75h1.17l4.3 7v-7zm2.44 0h1v7.83h3.63v.92h-4.65zm9.78 8.9a4.6 4.6 0 0 1-1.79-.34 4.46 4.46 0 0 1-2.39-2.39 4.88 4.88 0 0 1 0-3.58 4.53 4.53 0 0 1 1-1.43 4.35 4.35 0 0 1 1.44-.95 4.88 4.88 0 0 1 3.58 0 4.34 4.34 0 0 1 2.38 2.38 4.88 4.88 0 0 1 0 3.58 4.4 4.4 0 0 1-2.38 2.39 4.6 4.6 0 0 1-1.84.34zm0-1a3.54 3.54 0 0 0 1.38-.27 3.36 3.36 0 0 0 1.1-.75 3.23 3.23 0 0 0 .73-1.14 3.9 3.9 0 0 0 .26-1.42 3.65 3.65 0 0 0-.27-1.41 3.58 3.58 0 0 0-.72-1.13 3.36 3.36 0 0 0-1.1-.75 3.79 3.79 0 0 0-2.76 0 3.36 3.36 0 0 0-1.1.75 3.58 3.58 0 0 0-.72 1.13 3.65 3.65 0 0 0-.27 1.41 3.9 3.9 0 0 0 .26 1.42 3.23 3.23 0 0 0 .73 1.14 3.36 3.36 0 0 0 1.1.75 3.54 3.54 0 0 0 1.38.32zm6.42-7.9h2.72a2.87 2.87 0 0 1 2 .68 2.43 2.43 0 0 1 .73 1.87 2.85 2.85 0 0 1-.19 1.08 2.32 2.32 0 0 1-.55.82 2.4 2.4 0 0 1-.87.53 3.41 3.41 0 0 1-1.14.18h-1.7v3.6h-1zm2.65 4.23a1.82 1.82 0 0 0 1.29-.44 1.6 1.6 0 0 0 .47-1.23 1.57 1.57 0 0 0-.46-1.21 1.83 1.83 0 0 0-1.3-.43h-1.65v3.3zm-41.97 20.26a4.62 4.62 0 0 1-1.8-.34 4.42 4.42 0 0 1-1.43-.95 4.26 4.26 0 0 1-1-1.43 4.78 4.78 0 0 1 0-3.59 4.36 4.36 0 0 1 1-1.43 4.42 4.42 0 0 1 1.43-.95 4.69 4.69 0 0 1 1.8-.34 5.1 5.1 0 0 1 1.53.23 4.16 4.16 0 0 1 1.27.67 3.82 3.82 0 0 1 .93 1 4 4 0 0 1 .52 1.34h-1.1a3.48 3.48 0 0 0-.43-1 3 3 0 0 0-1.62-1.2 3.75 3.75 0 0 0-2.48.11 3.36 3.36 0 0 0-1.1.75 3.68 3.68 0 0 0-.74 1.14 3.79 3.79 0 0 0-.26 1.4 3.9 3.9 0 0 0 .26 1.42 3.63 3.63 0 0 0 .74 1.13 3.36 3.36 0 0 0 1.1.75 3.54 3.54 0 0 0 1.38.27 3.3 3.3 0 0 0 2-.63 3 3 0 0 0 1.13-1.71h1.1a4.13 4.13 0 0 1-.52 1.36 4 4 0 0 1-.93 1 4.37 4.37 0 0 1-1.27.66 4.8 4.8 0 0 1-1.51.34zm9.3 0a3.61 3.61 0 0 1-1.35-.24 2.88 2.88 0 0 1-1-.71 3.09 3.09 0 0 1-.66-1.11 4.53 4.53 0 0 1-.23-1.47v-5.36h1v5.4a2.75 2.75 0 0 0 .6 1.87 2 2 0 0 0 1.65.7 2.1 2.1 0 0 0 1.65-.68 2.78 2.78 0 0 0 .59-1.89v-5.4h1v5.36a4.53 4.53 0 0 1-.23 1.47 3.22 3.22 0 0 1-.65 1.11 2.79 2.79 0 0 1-1 .71 3.61 3.61 0 0 1-1.37.24zm5.62-8.9h2.72a2.87 2.87 0 0 1 2 .68 2.44 2.44 0 0 1 .74 1.87 2.52 2.52 0 0 1-.52 1.64 2.46 2.46 0 0 1-1.42.88l2.48 3.68h-1.2l-2.37-3.6h-1.42v3.6h-1zm2.65 4.23a1.81 1.81 0 0 0 1.28-.44 1.57 1.57 0 0 0 .47-1.23 1.6 1.6 0 0 0-.45-1.21 1.87 1.87 0 0 0-1.3-.43h-1.65v3.3zm11.17-4.23l-3.17 8.75h-1.1l-3.14-8.75h1.1l2.6 7.44 2.58-7.44zm1.7 0h5v.92h-4v2.8h3.9v.92h-3.9v3.2h4.17v.92h-5.2z" class="I J"/><path d="M562.9 312.1h2.66a6.06 6.06 0 0 1 2 .31 4.35 4.35 0 0 1 1.51.89 3.93 3.93 0 0 1 1 1.37 4.88 4.88 0 0 1 0 3.58 4 4 0 0 1-1 1.39 4.49 4.49 0 0 1-1.52.89 5.78 5.78 0 0 1-2 .32h-2.66zm2.66 7.83a4.33 4.33 0 0 0 1.52-.25 3.27 3.27 0 0 0 1.95-1.81 4 4 0 0 0 0-2.82 3.07 3.07 0 0 0-.76-1.08 3.46 3.46 0 0 0-1.18-.7 4.59 4.59 0 0 0-1.53-.25h-1.65v6.9zm6.67-7.83h5v.9h-4v2.8h3.9v.92h-3.9v3.2h4.17v.92h-5.2zm15.07 4.44v2.34a4.08 4.08 0 0 1-1.64 1.58 4.85 4.85 0 0 1-2.26.52 5 5 0 0 1-1.89-.34 4.48 4.48 0 0 1-1.49-.95 4.11 4.11 0 0 1-1-1.44 4.69 4.69 0 0 1-.35-1.82 4.57 4.57 0 0 1 .35-1.79 4.37 4.37 0 0 1 1-1.42 4.3 4.3 0 0 1 1.45-.93 4.68 4.68 0 0 1 1.82-.34 4.61 4.61 0 0 1 1.36.19 3.69 3.69 0 0 1 1.15.54 4 4 0 0 1 1.43 2.01h-1.12a2.77 2.77 0 0 0-1.11-1.32 3.11 3.11 0 0 0-1.74-.47 3.7 3.7 0 0 0-1.39.26 3.49 3.49 0 0 0-1.1.74 3.07 3.07 0 0 0-.76 1.1 3.61 3.61 0 0 0-.26 1.41 4.06 4.06 0 0 0 .26 1.45 3.33 3.33 0 0 0 1.91 1.89 4.27 4.27 0 0 0 3.09-.06 3.09 3.09 0 0 0 1.26-1v-1.2h-2.94v-.92zm8.7-4.44v8.75h-1.1l-4.38-7.1v7.1h-1v-8.75h1.17l4.3 7v-7zm2.44 0h5v.9h-4v2.8h3.9v.92h-3.9v3.2h4.17v.92h-5.2zm7.03 0h2.72a2.87 2.87 0 0 1 2 .68 2.44 2.44 0 0 1 .74 1.87 2.52 2.52 0 0 1-.52 1.64 2.46 2.46 0 0 1-1.42.88l2.48 3.68h-1.2l-2.37-3.6h-1.42v3.6h-1zm2.66 4.23a1.81 1.81 0 0 0 1.28-.44 1.57 1.57 0 0 0 .47-1.23 1.6 1.6 0 0 0-.45-1.21 1.87 1.87 0 0 0-1.3-.43h-1.65v3.3z" class="I J"/><path d="M469.22 283.86v8.75h-1v-7.7l-1.67.52-.24-.88 2.05-.68zm6.33 4.14a2.18 2.18 0 0 1 1 .81 2.27 2.27 0 0 1 .36 1.29 2.48 2.48 0 0 1-.22 1.06 2.46 2.46 0 0 1-.61.84 2.7 2.7 0 0 1-.93.55 3.22 3.22 0 0 1-1.18.21 3.45 3.45 0 0 1-1.14-.19 2.46 2.46 0 0 1-1.47-1.42 3.23 3.23 0 0 1-.23-1.15h1a1.86 1.86 0 0 0 .52 1.31 1.71 1.71 0 0 0 1.28.5 2.45 2.45 0 0 0 .78-.13 1.77 1.77 0 0 0 .6-.34 1.5 1.5 0 0 0 .39-.54 1.65 1.65 0 0 0 .14-.68 1.48 1.48 0 0 0-.51-1.2 2.11 2.11 0 0 0-1.42-.43h-.87v-.9h.86a1.7 1.7 0 0 0 1.2-.38 1.39 1.39 0 0 0 .43-1.09 1.37 1.37 0 0 0-.42-1.06 1.7 1.7 0 0 0-1.17-.38 1.78 1.78 0 0 0-1.21.4 1.41 1.41 0 0 0-.49 1.07h-1a2.28 2.28 0 0 1 .24-1 2.34 2.34 0 0 1 .58-.77 2.7 2.7 0 0 1 .86-.5 3.14 3.14 0 0 1 1.08-.18 3.23 3.23 0 0 1 1.06.17 2.35 2.35 0 0 1 .82.47 2.18 2.18 0 0 1 .53.74 2.35 2.35 0 0 1 .19 1 2.23 2.23 0 0 1-.28 1.15 2.14 2.14 0 0 1-.77.78zm7.2 4.76a4.45 4.45 0 0 1-1.75-.35 4.28 4.28 0 0 1-1.4-1 4.21 4.21 0 0 1-.93-1.43 4.69 4.69 0 0 1-.34-1.8 4.6 4.6 0 0 1 .34-1.79 4.3 4.3 0 0 1 2.33-2.38 4.55 4.55 0 0 1 1.75-.34 4.64 4.64 0 0 1 1.76.34 4.32 4.32 0 0 1 2.32 2.38 4.79 4.79 0 0 1 .33 1.79 4.69 4.69 0 0 1-.34 1.8 4.37 4.37 0 0 1-.93 1.43 4.39 4.39 0 0 1-3.14 1.3zm0-.95a3.12 3.12 0 0 0 1.34-.28 3.32 3.32 0 0 0 1.06-.74 3.47 3.47 0 0 0 .7-1.14 4.19 4.19 0 0 0 0-2.85 3.38 3.38 0 0 0-.7-1.12 3 3 0 0 0-1.07-.74 3.26 3.26 0 0 0-1.33-.27 3.31 3.31 0 0 0-1.34.27 3.12 3.12 0 0 0-1.06.74 3.25 3.25 0 0 0-.71 1.12 4 4 0 0 0 0 2.85 3.47 3.47 0 0 0 .7 1.14 3.25 3.25 0 0 0 1.07.74 3.16 3.16 0 0 0 1.34.28zm6.32-7.95h2.72a2.84 2.84 0 0 1 2 .69 2.4 2.4 0 0 1 .73 1.86 2.62 2.62 0 0 1-.51 1.65 2.48 2.48 0 0 1-1.42.87l2.48 3.68h-1.2l-2.36-3.6h-1.42v3.6h-1zm2.65 4.23a1.82 1.82 0 0 0 1.29-.44 1.6 1.6 0 0 0 .47-1.23 1.57 1.57 0 0 0-.46-1.2 1.81 1.81 0 0 0-1.3-.43h-1.65v3.3z" class="I J"/><path d="M392.08 164.5a4.57 4.57 0 0 1-1.79-.35 4.28 4.28 0 0 1-1.44-.94 4.5 4.5 0 0 1-.94-1.43 4.62 4.62 0 0 1-.35-1.8 4.57 4.57 0 0 1 .35-1.79 4.26 4.26 0 0 1 2.38-2.38 4.64 4.64 0 0 1 1.79-.35 4.82 4.82 0 0 1 1.54.24 3.91 3.91 0 0 1 2.72 3h-1.1a3.08 3.08 0 0 0-.42-1 3.29 3.29 0 0 0-.7-.74 2.94 2.94 0 0 0-.92-.46 3.62 3.62 0 0 0-1.1-.17 3.31 3.31 0 0 0-1.38.28 3.36 3.36 0 0 0-1.1.75 3.46 3.46 0 0 0-.74 1.13 3.82 3.82 0 0 0 0 2.82 3.5 3.5 0 0 0 1.84 1.89 3.47 3.47 0 0 0 1.38.27 3.25 3.25 0 0 0 2-.63 3 3 0 0 0 1.13-1.71h1.1a4.08 4.08 0 0 1-.52 1.35 3.88 3.88 0 0 1-.93 1 4.16 4.16 0 0 1-1.27.67 5.12 5.12 0 0 1-1.53.35zm10.86-2.38H399l-.83 2.23h-1.08l3.34-8.75h1.1l3.33 8.75h-1.07zm-3.6-.9h3.3l-1.66-4.5zm9.36 3.28a3 3 0 0 1-2.12-.73 2.8 2.8 0 0 1-.87-2h1a1.85 1.85 0 0 0 1.95 1.83 2.1 2.1 0 0 0 1.36-.4 1.34 1.34 0 0 0 .51-1.11 1.29 1.29 0 0 0-.29-.87 2.84 2.84 0 0 0-1-.61l-1.26-.48a3.28 3.28 0 0 1-1.47-1 2.29 2.29 0 0 1-.45-1.46 2.12 2.12 0 0 1 .19-.91 2 2 0 0 1 .55-.71 2.59 2.59 0 0 1 .84-.45 3.46 3.46 0 0 1 1.09-.17 2.83 2.83 0 0 1 1.94.64 2.49 2.49 0 0 1 .79 1.77h-1a1.64 1.64 0 0 0-.49-1.11 1.77 1.77 0 0 0-1.22-.4 1.86 1.86 0 0 0-1.19.36 1.14 1.14 0 0 0-.46.95 1.37 1.37 0 0 0 .31.94 2.53 2.53 0 0 0 1 .65l1.3.5a3.4 3.4 0 0 1 1.43.92 2.14 2.14 0 0 1 .44 1.39 2.53 2.53 0 0 1-.2 1 2.21 2.21 0 0 1-.58.77 2.49 2.49 0 0 1-.91.49 4.09 4.09 0 0 1-1.18.21zm4.74-8.9h1v8.75h-1zm9.98 0v8.75h-1.1l-4.38-7.1v7.1h-1v-8.75h1.17l4.3 7v-7zm6.4 8.9a4.56 4.56 0 0 1-1.78-.35 4.29 4.29 0 0 1-2.39-2.39 4.73 4.73 0 0 1 0-3.57 4.24 4.24 0 0 1 .94-1.43 4.41 4.41 0 0 1 1.44-.95 4.75 4.75 0 0 1 3.58 0 4.34 4.34 0 0 1 2.38 2.38 4.73 4.73 0 0 1 0 3.57 4.41 4.41 0 0 1-.95 1.44 4.12 4.12 0 0 1-1.43.95 4.57 4.57 0 0 1-1.79.35zm0-1a3.47 3.47 0 0 0 1.38-.27 3.32 3.32 0 0 0 1.11-.76 3.6 3.6 0 0 0 .73-1.13 4 4 0 0 0 .26-1.43 3.6 3.6 0 0 0-.27-1.4 3.49 3.49 0 0 0-.73-1.13 3.26 3.26 0 0 0-1.1-.75 3.64 3.64 0 0 0-2.75 0 3.26 3.26 0 0 0-1.1.75 3.49 3.49 0 0 0-.73 1.13 3.6 3.6 0 0 0-.27 1.4 4 4 0 0 0 .26 1.43 3.6 3.6 0 0 0 .73 1.13 3.32 3.32 0 0 0 1.11.76 3.45 3.45 0 0 0 1.37.32zm-39.88 8.62h-2.6v-.92h6.27v.92H391V180h-1zm5.38-.92H398a2.82 2.82 0 0 1 2 .68 2.43 2.43 0 0 1 .73 1.87 2.61 2.61 0 0 1-.51 1.64 2.5 2.5 0 0 1-1.42.88l2.48 3.68h-1.2l-2.38-3.6h-1.4V180h-1zm2.65 4.22a1.81 1.81 0 0 0 1.29-.43 1.6 1.6 0 0 0 .47-1.23 1.57 1.57 0 0 0-.46-1.21 1.79 1.79 0 0 0-1.3-.43h-1.65v3.3zm5.03-4.22h1v8.8h-1zm8.6 6.52h-4l-.8 2.28h-1.08l3.34-8.75h1.1l3.32 8.75h-1.06zm-3.62-.9h3.3l-1.65-4.5zm13.7-5.62v8.8h-1.1l-4.38-7.1v7.1h-1v-8.8h1.17l4.3 7v-7zm10.48 4.44V178a4 4 0 0 1-1.64 1.58 4.83 4.83 0 0 1-2.26.53 5.08 5.08 0 0 1-1.89-.35 4.4 4.4 0 0 1-1.49-.94 4.31 4.31 0 0 1-1-1.44 4.72 4.72 0 0 1-.34-1.82 4.53 4.53 0 0 1 .34-1.79 4.24 4.24 0 0 1 1-1.42 4.43 4.43 0 0 1 1.44-.94 4.91 4.91 0 0 1 1.82-.34 5 5 0 0 1 1.37.19 4 4 0 0 1 1.14.55 3.74 3.74 0 0 1 .87.86 4 4 0 0 1 .56 1.15h-1.12a2.84 2.84 0 0 0-1.1-1.33 3.25 3.25 0 0 0-1.75-.47 3.55 3.55 0 0 0-1.39.27 3.47 3.47 0 0 0-1.1.73 3.39 3.39 0 0 0-.73 1.12 3.9 3.9 0 0 0-.26 1.42 3.77 3.77 0 0 0 .27 1.44 3.3 3.3 0 0 0 .74 1.15 3.34 3.34 0 0 0 1.16.74 4 4 0 0 0 1.48.27 4.09 4.09 0 0 0 1.61-.32 3.06 3.06 0 0 0 1.27-1.06v-1.2h-2.95v-.93zm2.2-4.44h1v7.8H439v1h-4.64zm6.2 0h5v.92h-4v2.8h3.9v.92h-3.9V179h4.17v1h-5.18z" class="I J"/><path d="M323.23 402.35v.92h-5.7v-.52a3 3 0 0 1 .22-1.2 4.24 4.24 0 0 1 .58-.94 4.36 4.36 0 0 1 .78-.71 10.26 10.26 0 0 1 .8-.54l1-.6a4.34 4.34 0 0 0 .66-.52 1.58 1.58 0 0 0 .37-.54 1.8 1.8 0 0 0 .05-.69 1.58 1.58 0 0 0-.46-1.26 1.65 1.65 0 0 0-1.13-.42 1.68 1.68 0 0 0-1.26.5 1.81 1.81 0 0 0-.47 1.32h-1a3 3 0 0 1 .2-1.14 2.6 2.6 0 0 1 .56-.88 2.4 2.4 0 0 1 .86-.55 3 3 0 0 1 1.13-.2 3.14 3.14 0 0 1 1.08.18 2.22 2.22 0 0 1 .85.51 2.34 2.34 0 0 1 .54.82 2.85 2.85 0 0 1 .2 1.08 2.5 2.5 0 0 1-.18 1 2.55 2.55 0 0 1-.5.77 4.16 4.16 0 0 1-.77.64l-1 .63-.8.54a4.8 4.8 0 0 0-.62.54 2.79 2.79 0 0 0-.42.57 2.5 2.5 0 0 0-.23.7zm5.67 1.07a4.43 4.43 0 0 1-3.16-1.3 4.53 4.53 0 0 1-.93-1.43 4.88 4.88 0 0 1-.33-1.8 4.79 4.79 0 0 1 .33-1.79 4.65 4.65 0 0 1 .93-1.43 4.39 4.39 0 0 1 1.4-.95 4.7 4.7 0 0 1 3.51 0 4.39 4.39 0 0 1 1.4.95 4.45 4.45 0 0 1 .92 1.43 4.79 4.79 0 0 1 .33 1.79 4.88 4.88 0 0 1-.33 1.8 4.53 4.53 0 0 1-.93 1.43 4.39 4.39 0 0 1-3.14 1.3zm0-.95a3.08 3.08 0 0 0 1.33-.28 3.21 3.21 0 0 0 1.06-.74 3.49 3.49 0 0 0 .71-1.14 4.19 4.19 0 0 0 0-2.85 3.4 3.4 0 0 0-.71-1.12 2.94 2.94 0 0 0-1.06-.74 3.29 3.29 0 0 0-1.33-.27 3.24 3.24 0 0 0-1.34.27 3.07 3.07 0 0 0-1.07.74 3.4 3.4 0 0 0-.71 1.12 4.19 4.19 0 0 0 0 2.85 3.47 3.47 0 0 0 .7 1.14 3.36 3.36 0 0 0 1.07.74 3.17 3.17 0 0 0 1.35.28zm10.15.95a4.45 4.45 0 0 1-1.75-.35 4.28 4.28 0 0 1-1.4-.95 4.37 4.37 0 0 1-.93-1.43 4.69 4.69 0 0 1-.34-1.8 4.6 4.6 0 0 1 .34-1.79 4.47 4.47 0 0 1 .93-1.43 4.28 4.28 0 0 1 1.4-.95 4.55 4.55 0 0 1 1.75-.34 4.64 4.64 0 0 1 1.76.34 4.32 4.32 0 0 1 2.32 2.38 4.79 4.79 0 0 1 .33 1.79 4.69 4.69 0 0 1-.34 1.8 4.21 4.21 0 0 1-.93 1.43 4.39 4.39 0 0 1-3.14 1.3zm0-.95a3.12 3.12 0 0 0 1.34-.28 3.32 3.32 0 0 0 1.06-.74 3.47 3.47 0 0 0 .7-1.14 4 4 0 0 0 0-2.85 3.38 3.38 0 0 0-.7-1.12 3 3 0 0 0-1.07-.74 3.26 3.26 0 0 0-1.33-.27 3.31 3.31 0 0 0-1.34.27 3.12 3.12 0 0 0-1.06.74 3.25 3.25 0 0 0-.71 1.12 4 4 0 0 0 0 2.85 3.47 3.47 0 0 0 .7 1.14 3.25 3.25 0 0 0 1.07.74 3.16 3.16 0 0 0 1.34.28zm6.32-7.95h2.72a2.84 2.84 0 0 1 2 .69 2.4 2.4 0 0 1 .73 1.86 2.62 2.62 0 0 1-.51 1.65 2.48 2.48 0 0 1-1.42.87l2.48 3.68h-1.2l-2.38-3.6h-1.42v3.6h-1zm2.65 4.23a1.82 1.82 0 0 0 1.29-.44 1.6 1.6 0 0 0 .47-1.23 1.57 1.57 0 0 0-.46-1.2 1.81 1.81 0 0 0-1.3-.43h-1.65v3.3z" class="I J"/><g class="I"><path d="M519.2 148.87l-2.37-.44c.36-2 2-4.24 3.47-6.26l1.6-2.32 1.48-2.67a36.15 36.15 0 0 1 4.89-7.44 39.29 39.29 0 0 1 6.73-5.84 112.14 112.14 0 0 1 13-8c3.7-1.9 7.65-3.47 11.46-5l3.08-1.23c1.4-.56 2.8-1.2 4.18-1.85 3.34-1.54 6.8-3.14 10.5-3.7 9-1.33 18.3-1.6 27.32-1.86l10.08-.35c1.72-.07 3.44 0 5.1 0a47.46 47.46 0 0 0 6.09 0 7.32 7.32 0 0 0 2.06-.66 9.85 9.85 0 0 1 2.56-.83c6.24-.85 12.63-1.46 18.8-2l7.1-.68 27.2-2.55 49.34-5a124.6 124.6 0 0 0 13.3-2.64c2.88-.68 5.87-1.4 8.84-1.95 3.4-.64 7.12-3.4 10.7-6.07 4.1-3 8.36-6.2 12.66-6.65l.24 2.4c-3.63.36-7.6 3.32-11.46 6.18s-7.74 5.76-11.7 6.5c-2.9.54-5.87 1.24-8.73 1.92a127.83 127.83 0 0 1-13.55 2.69c-16.43 2-33.2 3.53-49.43 5l-34.3 3.22-18.7 2a8.47 8.47 0 0 0-1.95.66 8.92 8.92 0 0 1-2.78.84 48.71 48.71 0 0 1-6.39 0c-1.63-.06-3.3-.12-4.92 0l-10.12.35c-9 .26-18.2.53-27 1.84-3.36.5-6.5 2-9.84 3.5l-4.3 1.9-3.1 1.23a121.48 121.48 0 0 0-11.28 4.87 108.52 108.52 0 0 0-12.68 7.84 37.07 37.07 0 0 0-6.37 5.49 34.42 34.42 0 0 0-4.56 7l-1.5 2.73c-.43.73-1.06 1.6-1.72 2.52-1.27 1.72-2.8 3.87-3.06 5.3zM858.05 45.5h-2.66v-2.86h8.7v2.86h-2.87v8.13h-3.17zm12.15-2.85v11h-3.1v-8l-1.8.56-.7-2.63 3.08-1zm10.7 85.3h-2.66v-2.86H887v2.86h-2.88v8.13h-3.16zm15.1 5.46v2.66h-8.2v-1.13a3.75 3.75 0 0 1 .8-2.34 9 9 0 0 1 2.21-1.95l1-.65a5.63 5.63 0 0 0 .6-.46 1.16 1.16 0 0 0 .29-.38.93.93 0 0 0 .09-.42 1 1 0 0 0-.92-.96c-.63 0-.95.42-.95 1.25h-3.08A4.14 4.14 0 0 1 889 126a4.89 4.89 0 0 1 6-.17 3.82 3.82 0 0 1 .85 3.81 3.16 3.16 0 0 1-.54 1 5.24 5.24 0 0 1-.9.84l-1.24.86-.94.6a5.46 5.46 0 0 0-.71.53zm-103.9 5.03h-2.66v-2.85h8.7v2.85h-2.87v8.13h-3.17zm13.5 2.5a3 3 0 0 1 1.24 1 2.71 2.71 0 0 1 .43 1.52 3 3 0 0 1-1.16 2.34 4.31 4.31 0 0 1-1.32.67 5.81 5.81 0 0 1-1.67.23 4.19 4.19 0 0 1-3-1 4 4 0 0 1-1.17-2.93h2.95a1.31 1.31 0 0 0 .31.87 1.07 1.07 0 0 0 .79.31 1.2 1.2 0 0 0 .81-.27.9.9 0 0 0 .31-.73.88.88 0 0 0-.29-.69 1.25 1.25 0 0 0-.83-.26h-1.07v-2.2h1c.73 0 1.1-.3 1.1-.9a.85.85 0 0 0-.28-.67 1.12 1.12 0 0 0-.73-.23 1 1 0 0 0-1.11 1.09H799a4.3 4.3 0 0 1 .36-1.56 3.34 3.34 0 0 1 .86-1.19 3.77 3.77 0 0 1 1.29-.76 5.2 5.2 0 0 1 1.68-.26 5.31 5.31 0 0 1 1.59.23 3.56 3.56 0 0 1 1.22.65 2.85 2.85 0 0 1 .79 1 3 3 0 0 1 .27 1.29 2.47 2.47 0 0 1-1.47 2.45zM761 167.66h-2.66v-2.86h8.7v2.86h-2.88v8.13H761zm15 6.46h-1.2v1.67h-3.1v-1.67h-4.88v-2.4l4.6-6.92h3.4v6.76h1.2zm-6.18-2.56H772v-3.46zm-76.25-50.36h-2.67v-2.86h8.7v2.86h-2.87v8.12h-3.16zm12.1.8a3.7 3.7 0 0 1 1.42.27 3.18 3.18 0 0 1 1.11.76 3.37 3.37 0 0 1 .73 1.16 4.18 4.18 0 0 1 .26 1.48 4 4 0 0 1-.3 1.58 3.38 3.38 0 0 1-.87 1.21 3.79 3.79 0 0 1-1.34.78 5.39 5.39 0 0 1-1.77.27 4.21 4.21 0 0 1-2.93-1 3.81 3.81 0 0 1-1.18-2.77h3a1.1 1.1 0 0 0 .37.73 1.07 1.07 0 0 0 .74.27 1.12 1.12 0 0 0 .85-.35 1.33 1.33 0 0 0 .32-.91 1.21 1.21 0 0 0-.33-.87 1.08 1.08 0 0 0-.84-.35 1.2 1.2 0 0 0-.57.14 1.33 1.33 0 0 0-.44.41h-2.84v-6.5h7.55v2.7H704v1.4a3.77 3.77 0 0 1 1.68-.4zM658 193.9h-2.66V191H664v2.86h-2.87V202H658z"/><path d="M669.3 194.33a3.46 3.46 0 0 1 1.27.42 3.86 3.86 0 0 1 1 .83 3.78 3.78 0 0 1 .67 1.15 3.93 3.93 0 0 1 .24 1.38 3.83 3.83 0 0 1-.34 1.62 4 4 0 0 1-.9 1.3 4.2 4.2 0 0 1-1.36.88 4.45 4.45 0 0 1-1.68.32 4.2 4.2 0 0 1-1.66-.33 4.09 4.09 0 0 1-1.33-.89 4 4 0 0 1-.89-1.33A4.12 4.12 0 0 1 664 198a3.38 3.38 0 0 1 .07-.72 3.81 3.81 0 0 1 .21-.72 5.57 5.57 0 0 1 .4-.82l.63-1 2.5-3.74h3.64zm-1.07 5.1a1.19 1.19 0 0 0 .9-.37 1.28 1.28 0 0 0 .35-.92 1.26 1.26 0 0 0-.35-.91 1.22 1.22 0 0 0-.9-.36 1.18 1.18 0 0 0-.89.36 1.22 1.22 0 0 0-.35.91 1.24 1.24 0 0 0 .35.92 1.16 1.16 0 0 0 .89.37zm-83.38-44.5h-2.66v-2.86h8.7v2.86H588v8.13h-3.17zm14.73-2.86v2.6l-4 8.4h-3.38l4.1-8.2h-4.6v-2.8zm-34.9 137.74H562V287h8.7v2.85h-2.87v8.13h-3.17zm14 2.4a2.8 2.8 0 0 1 1.55 2.66 3 3 0 0 1-.3 1.36 2.74 2.74 0 0 1-.85 1 4.15 4.15 0 0 1-1.35.66 6.21 6.21 0 0 1-1.79.23 5 5 0 0 1-3.15-.88 2.9 2.9 0 0 1-1.13-2.41 3.07 3.07 0 0 1 .39-1.59 2.88 2.88 0 0 1 1.14-1.07 2.76 2.76 0 0 1-1-1 2.67 2.67 0 0 1-.34-1.36 2.83 2.83 0 0 1 .28-1.28 3 3 0 0 1 .82-1 3.87 3.87 0 0 1 1.29-.62 5.91 5.91 0 0 1 1.69-.22 5.84 5.84 0 0 1 1.68.22 3.69 3.69 0 0 1 1.29.62 2.76 2.76 0 0 1 1.11 2.26 2.67 2.67 0 0 1-.35 1.36 2.76 2.76 0 0 1-.98 1.06zm-2.74 3.64a1.23 1.23 0 0 0 .85-.31 1.08 1.08 0 0 0 .34-.82 1.12 1.12 0 0 0-1.18-1.17 1.15 1.15 0 0 0-1.21 1.19 1 1 0 0 0 .34.8 1.2 1.2 0 0 0 .86.31zm0-6.78a1.11 1.11 0 0 0-.78.29.93.93 0 0 0-.31.73 1.08 1.08 0 1 0 2.15 0 1 1 0 0 0-.29-.73 1.06 1.06 0 0 0-.71-.29zm-52.48 69.3h-2.66v-2.85h8.7v2.85h-2.87v8.13h-3.17zm9.96 4.83a3.46 3.46 0 0 1-1.27-.42 3.86 3.86 0 0 1-1-.83 3.78 3.78 0 0 1-.67-1.15 3.93 3.93 0 0 1-.24-1.38 3.83 3.83 0 0 1 .34-1.62 4 4 0 0 1 2.26-2.18 4.45 4.45 0 0 1 1.68-.32 4.2 4.2 0 0 1 1.66.33 4.09 4.09 0 0 1 1.33.89 3.94 3.94 0 0 1 .89 1.33 4.12 4.12 0 0 1 .33 1.65 4.2 4.2 0 0 1-.06.72 4.84 4.84 0 0 1-.22.72 6.18 6.18 0 0 1-.4.83l-.63 1-2.5 3.74h-3.64zm1.07-5.1a1.16 1.16 0 0 0-.89.37 1.25 1.25 0 0 0-.36.92 1.23 1.23 0 0 0 .36.91 1.28 1.28 0 0 0 1.78 0 1.22 1.22 0 0 0 .35-.91 1.24 1.24 0 0 0-.35-.92 1.16 1.16 0 0 0-.89-.37zm-119.44-73.92h-2.66v-2.85h8.7v2.85h-2.87v8.13h-3.17zm12.15-2.85v11h-3.1v-8l-1.8.55-.7-2.63 3.08-.94zm7.5 11.2a6.43 6.43 0 0 1-2.36-.42 5.57 5.57 0 0 1-1.86-1.18 5.26 5.26 0 0 1-1.22-1.81 6.34 6.34 0 0 1 0-4.59 5.26 5.26 0 0 1 1.22-1.81 5.55 5.55 0 0 1 1.86-1.17 6.72 6.72 0 0 1 4.73 0 5.55 5.55 0 0 1 1.86 1.17 5.4 5.4 0 0 1 1.22 1.81 6.34 6.34 0 0 1 0 4.59 5.4 5.4 0 0 1-1.22 1.81 5.57 5.57 0 0 1-1.86 1.18 6.49 6.49 0 0 1-2.37.42zm0-2.85a2.58 2.58 0 0 0 1.08-.22 2.61 2.61 0 0 0 .84-.59 2.88 2.88 0 0 0 .55-.91 3.17 3.17 0 0 0 0-2.27 2.68 2.68 0 0 0-.56-.9 2.43 2.43 0 0 0-.85-.6 2.64 2.64 0 0 0-1.06-.21 2.74 2.74 0 0 0-1.08.21 2.53 2.53 0 0 0-.85.6 2.85 2.85 0 0 0-.56.9 3.32 3.32 0 0 0 0 2.27 2.9 2.9 0 0 0 .56.91 2.65 2.65 0 0 0 .85.59 2.58 2.58 0 0 0 1.1.22zM359.6 243h-2.66v-2.86h8.7V243h-2.87v8.13h-3.17zm12.15-2.9v11h-3.1v-8l-1.8.56-.7-2.63 3.08-.95zm6.75 0v11h-3.1v-8l-1.8.56-.7-2.63 3.08-.95zm-20.4 110.4h-2.66v-2.85h8.7v2.85h-2.87v8.13h-3.17zm12.15-2.85v11h-3.1v-8l-1.8.55-.7-2.63 3.08-.94zm9.9 8.35v2.66h-8.2v-1.16a3.75 3.75 0 0 1 .8-2.34 9 9 0 0 1 2.21-2l1-.65a5.63 5.63 0 0 0 .6-.46 1.14 1.14 0 0 0 .29-.37.94.94 0 0 0 .08-.43 1 1 0 0 0-.24-.72.92.92 0 0 0-.67-.24c-.63 0-.95.42-.95 1.26H372a4.1 4.1 0 0 1 1.11-3.06 4.87 4.87 0 0 1 6-.18 3.35 3.35 0 0 1 1 2.62 3.44 3.44 0 0 1-.19 1.2 3.11 3.11 0 0 1-.54.95 5.24 5.24 0 0 1-.9.84l-1.24.86-.94.6a6.55 6.55 0 0 0-.71.53zm-184.28 53h-2.66v-2.9h8.7v2.9H199v8.13h-3.17zm12.14-2.9v11h-3.1v-8l-1.8.55-.7-2.63 3.08-.94zm8.25 5.37a2.88 2.88 0 0 1 1.24 1 2.73 2.73 0 0 1 .42 1.52 3 3 0 0 1-.3 1.34 3.06 3.06 0 0 1-.86 1 4 4 0 0 1-1.31.67 5.53 5.53 0 0 1-1.67.23 4.21 4.21 0 0 1-3-1 4.06 4.06 0 0 1-1.16-2.93h2.95a1.26 1.26 0 0 0 .31.87 1 1 0 0 0 .78.31 1.21 1.21 0 0 0 .82-.27.9.9 0 0 0 .31-.73.88.88 0 0 0-.29-.69 1.26 1.26 0 0 0-.84-.25h-1.06v-2.2h1c.73 0 1.1-.3 1.1-.9a.85.85 0 0 0-.28-.67 1.1 1.1 0 0 0-.77-.25 1.08 1.08 0 0 0-.79.3 1.11 1.11 0 0 0-.32.8h-2.9a4.36 4.36 0 0 1 .36-1.57 3.32 3.32 0 0 1 .85-1.19 3.73 3.73 0 0 1 1.3-.75 4.94 4.94 0 0 1 1.68-.26 5.32 5.32 0 0 1 1.59.22 3.84 3.84 0 0 1 1.22.65 2.8 2.8 0 0 1 .78 1 2.9 2.9 0 0 1 .28 1.29 2.49 2.49 0 0 1-1.44 2.46zm-40.62 98.65H173v-2.86h8.7v2.86h-2.9v8.13h-3.17zm12.14-2.86v11h-3.1v-8l-1.8.56-.7-2.63 3.1-.95zm10.76 9.32h-1.2v1.67h-3.1v-1.67h-4.88v-2.4l4.6-6.92h3.4V514h1.2zm-6.2-2.58h2.2v-3.46zm275.93-210h-2.66v-2.86h8.7V304h-2.87v8.13h-3.17zm12.14-2.82v11h-3.1v-8l-1.8.56-.7-2.63 3.1-.95zm6.87 3.7a3.67 3.67 0 0 1 1.42.27 3.27 3.27 0 0 1 1.12.76 3.68 3.68 0 0 1 .73 1.17 4.14 4.14 0 0 1 .26 1.48 4 4 0 0 1-.3 1.57 3.54 3.54 0 0 1-.87 1.22 3.92 3.92 0 0 1-1.34.77 5.44 5.44 0 0 1-1.77.27 4.22 4.22 0 0 1-2.94-1 3.78 3.78 0 0 1-1.17-2.76h3a1.13 1.13 0 0 0 .36.72 1.08 1.08 0 0 0 .75.27 1.07 1.07 0 0 0 .84-.35 1.37 1.37 0 0 0 0-1.78 1.15 1.15 0 0 0-.84-.35 1.17 1.17 0 0 0-.58.15 1.32 1.32 0 0 0-.44.41h-2.84v-6.52h7.56v2.67h-4.62v1.4a3.71 3.71 0 0 1 1.67-.37zM460.4 168h-2.66v-2.86h8.7V168h-2.87v8.13h-3.17zm12.13-2.83v11h-3.1v-8l-1.8.56-.7-2.63 3.08-1zm6.84 3.3a3.68 3.68 0 0 1 2.28 1.26 3.78 3.78 0 0 1 .67 1.15 3.93 3.93 0 0 1 .24 1.38 4.09 4.09 0 0 1-1.25 2.92 4.13 4.13 0 0 1-1.35.87 4.45 4.45 0 0 1-1.68.32 4.2 4.2 0 0 1-1.66-.33 4.08 4.08 0 0 1-1.34-.89 4.14 4.14 0 0 1-.89-1.33 4.28 4.28 0 0 1-.32-1.64 4.2 4.2 0 0 1 .06-.72 4.94 4.94 0 0 1 .22-.73 4.65 4.65 0 0 1 .4-.81c.16-.3.37-.63.62-1l2.5-3.74h3.64zm-1.08 5.1a1.22 1.22 0 0 0 .9-.36 1.29 1.29 0 0 0 .36-.93 1.23 1.23 0 0 0-1.26-1.27 1.18 1.18 0 0 0-.88.36 1.23 1.23 0 0 0-.36.91 1.29 1.29 0 0 0 .36.93 1.18 1.18 0 0 0 .88.36zm.4-27.27H476v-2.86h8.7v2.86h-2.88v8.13h-3.12zm12.14-2.86v11h-3.1v-8l-1.8.56-.7-2.63 3.1-.95zm9.48 0V146l-4 8.4H493l4.1-8.2h-4.6v-2.8zM518.47 80h-2.66v-2.88h8.7V80h-2.87v8.13h-3.17zm12.13-2.88v11h-3.1v-8l-1.8.56-.72-2.6 3.1-.95zm8.78 5.24a2.81 2.81 0 0 1 1.55 2.64 3 3 0 0 1-.3 1.36 2.75 2.75 0 0 1-.85 1 4.15 4.15 0 0 1-1.35.66 6.23 6.23 0 0 1-1.8.24 5 5 0 0 1-3.14-.88 2.92 2.92 0 0 1-1.13-2.38 3.07 3.07 0 0 1 .39-1.59 2.88 2.88 0 0 1 1.14-1.07 2.68 2.68 0 0 1-1-1 2.65 2.65 0 0 1-.35-1.36 2.79 2.79 0 0 1 .29-1.27 2.75 2.75 0 0 1 .82-1 4.08 4.08 0 0 1 1.29-.63 5.84 5.84 0 0 1 1.68-.22 5.91 5.91 0 0 1 1.69.22 3.88 3.88 0 0 1 1.29.63 2.75 2.75 0 0 1 .82 1 2.79 2.79 0 0 1 .28 1.27 2.64 2.64 0 0 1-.34 1.36 2.76 2.76 0 0 1-.98 1.02zM536.63 86a1.2 1.2 0 0 0 .86-.31 1.08 1.08 0 0 0 .34-.81 1.13 1.13 0 0 0-.33-.85 1.15 1.15 0 0 0-.85-.33 1.18 1.18 0 0 0-.87.33 1.15 1.15 0 0 0-.34.86 1 1 0 0 0 .34.81 1.23 1.23 0 0 0 .85.3zm0-6.77a1.08 1.08 0 0 0-.78.28 1 1 0 0 0-.31.73 1 1 0 0 0 .3.77 1.12 1.12 0 0 0 1.55 0 1 1 0 0 0 .3-.77 1 1 0 0 0-.29-.73 1.06 1.06 0 0 0-.75-.28z"/><path d="M667.96 63.36l-5.88-4.93-3.85.34 5.9 4.93-4.95 5.9 3.85-.34 4.94-5.9z" opacity=".8"/><path d="M674.4 62.72l-5.88-4.93-3.85.34 5.88 4.93-4.94 5.9 3.85-.35 4.94-5.9z" opacity=".9"/><path d="M680.97 62.16l-5.9-4.92-3.84.34 5.88 4.93-4.94 5.9 3.84-.35 4.95-5.9z"/><path d="M656 58.97l-3.85.34 5.9 4.93-4.94 5.9 3.84-.34 4.94-5.9-5.88-4.92z" opacity=".7"/><path d="M649.95 59.5l-3.85.34 5.88 4.93-4.94 5.9 3.84-.34 4.95-5.9-5.88-4.92z" opacity=".6"/></g><path d="M633.12,80.22l-.33-3.84,3.83-.33.34,3.83Z" class="K"/><path d="M637,79.88l-.34-3.83,3.83-.34.33,3.84Z" class="I"/><path d="M640.78,79.55l-.33-3.84,3.84-.33.33,3.84Z" class="K"/><path d="M632.8 76.42l-.34-3.83 3.83-.34.33 3.83zm7.66-.67l-.34-3.83 3.83-.33.34 3.83z" class="I"/><g class="K"><path d="M636.63,76.12l-.34-3.83,3.84-.34.33,3.83Z"/><path d="M632.46,72.62l-.33-3.83,3.83-.33.33,3.83Z"/></g><path d="M636.3 72.3l-.3-3.83 3.83-.34.34 3.83z" class="I"/><path d="M640.13,72l-.34-3.83,3.83-.33.34,3.83Z" class="K"/><path d="M632.13 68.82L631.8 65l3.83-.33.33 3.83zm7.67-.66l-.33-3.84 3.84-.32.33 3.83z" class="I"/><path d="M636 68.52l-.34-3.83 3.83-.33.34 3.83zm-4.33-3.42l-.33-3.83 3.83-.33.33 3.83z" class="K"/><path d="M635.5,64.77l-.33-3.83,3.83-.33.34,3.83Z" class="I"/><path d="M639.34 64.44L639 60.6l3.83-.34.34 3.83z" class="K"/><path d="M408.08 235.9a4.31 4.31 0 0 1-3-1 4 4 0 0 1-1.22-2.83h1.45a2.76 2.76 0 0 0 .83 1.88 2.69 2.69 0 0 0 1.94.72 3 3 0 0 0 1.93-.57 1.91 1.91 0 0 0 .72-1.57 1.82 1.82 0 0 0-.41-1.24 4.05 4.05 0 0 0-1.43-.86l-1.8-.68a4.72 4.72 0 0 1-2.08-1.38 3.24 3.24 0 0 1-.65-2.07 3 3 0 0 1 1-2.3 3.62 3.62 0 0 1 1.2-.64 5 5 0 0 1 1.55-.23 4 4 0 0 1 2.74.9 3.5 3.5 0 0 1 1.14 2.47h-1.46a2.27 2.27 0 0 0-.69-1.57 2.43 2.43 0 0 0-1.72-.57 2.67 2.67 0 0 0-1.7.51 1.63 1.63 0 0 0-.64 1.35 2 2 0 0 0 .43 1.33 3.66 3.66 0 0 0 1.45.92l1.82.7a4.7 4.7 0 0 1 2 1.3 3 3 0 0 1 .62 2 3.53 3.53 0 0 1-.29 1.44 3 3 0 0 1-.82 1.1 3.8 3.8 0 0 1-1.29.69 5.56 5.56 0 0 1-1.63.2zm6.7-12.6h7.16v1.3h-5.72v4h5.53v1.3h-5.53v4.52h5.92v1.3h-7.36zm15.58 12.6a6.48 6.48 0 0 1-2.55-.49 6.17 6.17 0 0 1-2-1.35 6.28 6.28 0 0 1-1.35-2 6.85 6.85 0 0 1 0-5.09 6.33 6.33 0 0 1 1.35-2 6.14 6.14 0 0 1 2-1.34 6.55 6.55 0 0 1 2.55-.49 7 7 0 0 1 2.17.33 5.71 5.71 0 0 1 1.8.94 5.64 5.64 0 0 1 1.32 1.47 5.75 5.75 0 0 1 .74 1.9h-1.55a4.79 4.79 0 0 0-.61-1.36 4.08 4.08 0 0 0-1-1 4.38 4.38 0 0 0-1.31-.67 5.19 5.19 0 0 0-1.55-.23 4.84 4.84 0 0 0-3.52 1.46 5 5 0 0 0-1.05 1.6 5.59 5.59 0 0 0 0 4 5 5 0 0 0 1.05 1.61 4.87 4.87 0 0 0 1.56 1.07 5.07 5.07 0 0 0 2 .38 4.61 4.61 0 0 0 2.85-.89 4.3 4.3 0 0 0 1.61-2.42h1.55a5.89 5.89 0 0 1-.74 1.91 5.68 5.68 0 0 1-1.32 1.48 5.92 5.92 0 0 1-1.8.94 7 7 0 0 1-2.2.24zm10.94-11.3h-3.67v-1.3h8.88v1.3h-3.77v11.1h-1.44zm12.7 11.3a6.41 6.41 0 0 1-2.53-.49 6.48 6.48 0 0 1-2-1.35 6.34 6.34 0 0 1-1.36-2 6.93 6.93 0 0 1 0-5.07 6.33 6.33 0 0 1 1.35-2 6.08 6.08 0 0 1 2-1.34 6.8 6.8 0 0 1 5.07 0 6 6 0 0 1 2 1.34 6.33 6.33 0 0 1 1.35 2 6.8 6.8 0 0 1 0 5.07 6.48 6.48 0 0 1-1.35 2 6.22 6.22 0 0 1-2 1.35 6.41 6.41 0 0 1-2.53.49zm0-1.35a5 5 0 0 0 1.95-.38 4.73 4.73 0 0 0 2.6-2.69 5.32 5.32 0 0 0 .37-2 5.21 5.21 0 0 0-1.41-3.6 4.5 4.5 0 0 0-1.56-1.06 5.19 5.19 0 0 0-3.9 0 4.69 4.69 0 0 0-1.56 1.06 5.21 5.21 0 0 0-1.41 3.6 5.32 5.32 0 0 0 .37 2 4.77 4.77 0 0 0 1 1.62 4.92 4.92 0 0 0 1.57 1.07 5 5 0 0 0 1.98.38zm9.08-11.25h3.85a4 4 0 0 1 2.86 1 3.41 3.41 0 0 1 1 2.64 3.71 3.71 0 0 1-.72 2.34 3.55 3.55 0 0 1-2 1.24l3.52 5.22h-1.7l-3.38-5.1h-2v5.1h-1.43zm3.75 6a2.54 2.54 0 0 0 1.83-.62 2.26 2.26 0 0 0 .66-1.74 2.23 2.23 0 0 0-.64-1.71 2.58 2.58 0 0 0-1.85-.61h-2.34v4.68zm17.6-.15a3.17 3.17 0 0 1 1.45 1.15 3.33 3.33 0 0 1 .5 1.84 3.54 3.54 0 0 1-1.18 2.69 4 4 0 0 1-1.31.78 4.76 4.76 0 0 1-1.67.29 4.67 4.67 0 0 1-1.62-.27 3.46 3.46 0 0 1-1.27-.77 3.58 3.58 0 0 1-.82-1.24 5.13 5.13 0 0 1-.33-1.63h1.46a2.58 2.58 0 0 0 .73 1.86 2.41 2.41 0 0 0 1.81.7 3.5 3.5 0 0 0 1.11-.17 2.63 2.63 0 0 0 .85-.49 2.12 2.12 0 0 0 .56-.76 2.37 2.37 0 0 0 .19-1 2.11 2.11 0 0 0-.72-1.7 3.05 3.05 0 0 0-2-.61h-1.23v-1.3h1.2a2.52 2.52 0 0 0 1.71-.53 2 2 0 0 0 .6-1.55 1.94 1.94 0 0 0-.59-1.5 2.37 2.37 0 0 0-1.66-.55 2.52 2.52 0 0 0-1.72.58 2 2 0 0 0-.7 1.51h-1.43a3.26 3.26 0 0 1 .33-1.38 3.39 3.39 0 0 1 .83-1.08 3.83 3.83 0 0 1 1.21-.71 4.24 4.24 0 0 1 1.53-.26 4.57 4.57 0 0 1 1.52.24 3.4 3.4 0 0 1 1.16.67 2.9 2.9 0 0 1 .74 1.05 3.34 3.34 0 0 1 .27 1.36 3.18 3.18 0 0 1-.4 1.63 3 3 0 0 1-1.12 1.14z" opacity=".5" class="I"/></svg>