<?xml version="1.0" encoding="UTF-8"?>
<!DOCTYPE svg PUBLIC "-//W3C//DTD SVG 1.1//EN" "http://www.w3.org/Graphics/SVG/1.1/DTD/svg11.dtd">
<svg xmlns="http://www.w3.org/2000/svg" version="1.1" width="1600px" height="1200px" style="shape-rendering:geometricPrecision; text-rendering:geometricPrecision; image-rendering:optimizeQuality; fill-rule:evenodd; clip-rule:evenodd" xmlns:xlink="http://www.w3.org/1999/xlink">
<g><path style="opacity:0.894" fill="#fefffe" d="M 1319.5,163.5 C 1327.53,163.169 1335.53,163.502 1343.5,164.5C 1351.71,170.033 1359.04,176.699 1365.5,184.5C 1409.11,244.109 1453.11,303.442 1497.5,362.5C 1508.9,379.951 1518.06,398.284 1525,417.5C 1525.67,522.167 1525.67,626.833 1525,731.5C 1524.63,732.416 1524.13,733.25 1523.5,734C 1524.15,737.249 1524.48,740.582 1524.5,744C 1523.92,755.496 1523.42,766.996 1523,778.5C 1522.83,823.071 1522.33,867.571 1521.5,912C 1522.14,914.914 1522.48,917.914 1522.5,921C 1521.67,938.845 1520.67,956.678 1519.5,974.5C 1518.33,976.842 1517.16,979.176 1516,981.5C 1509.64,986.528 1503.31,991.528 1497,996.5C 1496.67,1004.17 1496.33,1011.83 1496,1019.5C 1492.17,1027.33 1486.34,1033.16 1478.5,1037C 1183.17,1037.67 887.833,1037.67 592.5,1037C 559.082,1032.86 526.748,1025.19 495.5,1014C 467.745,1003.55 440.411,992.217 413.5,980C 364.963,955.811 316.963,930.477 269.5,904C 237.27,883.755 205.603,862.755 174.5,841C 154.172,827.638 133.172,815.638 111.5,805C 99.5188,802.951 88.1854,799.284 77.5,794C 75.5479,791.926 73.7146,789.759 72,787.5C 71.3333,777.833 71.3333,768.167 72,758.5C 72.6667,757.833 73.3333,757.167 74,756.5C 77.2951,740.294 80.9617,724.294 85,708.5C 89.2629,691.768 94.5963,675.435 101,659.5C 111.263,643.237 124.763,630.403 141.5,621C 169.813,606.553 199.146,594.219 229.5,584C 254.867,572.005 278.2,556.671 299.5,538C 304.556,532.051 308.723,525.551 312,518.5C 317.65,501.738 320.983,484.405 322,466.5C 322.168,394.596 322.668,322.763 323.5,251C 322.204,239.053 322.204,227.053 323.5,215C 326.54,201.133 335.207,193.967 349.5,193.5C 373.833,197.907 398.166,202.24 422.5,206.5C 422.34,204.801 422.506,203.134 423,201.5C 428.541,192.195 436.708,186.695 447.5,185C 502.091,179.787 547.758,197.287 584.5,237.5C 599.047,256.852 607.547,278.518 610,302.5C 610.301,344.172 610.801,385.838 611.5,427.5C 822.84,424.049 1034.17,420.215 1245.5,416C 1257.39,415.569 1269.39,414.902 1281.5,414C 1308,410.677 1330.67,399.51 1349.5,380.5C 1353.16,376.012 1355.83,371.012 1357.5,365.5C 1357.22,359.682 1356.72,353.682 1356,347.5C 1351.59,336.68 1346.09,326.347 1339.5,316.5C 1332.17,306.5 1324.83,296.5 1317.5,286.5C 1313.02,278.889 1309.69,270.889 1307.5,262.5C 1306.92,254.264 1305.92,246.098 1304.5,238C 1304.64,237.228 1304.98,236.561 1305.5,236C 1304.43,218.901 1303.93,201.734 1304,184.5C 1304.25,181.21 1305.25,178.21 1307,175.5C 1310.73,170.932 1314.9,166.932 1319.5,163.5 Z M 1338.5,207.5 C 1385.44,270.391 1431.94,333.725 1478,397.5C 1487.72,415.103 1492.56,434.103 1492.5,454.5C 1492.06,472.009 1491.39,489.509 1490.5,507C 1490.52,510.418 1490.85,513.751 1491.5,517C 1489.68,664.767 1487.84,812.6 1486,960.5C 1477.69,965.476 1470.69,971.81 1465,979.5C 1462.75,986.916 1461.91,994.582 1462.5,1002.5C 1214.98,1004.11 967.311,1004.61 719.5,1004C 681.37,1003.11 643.37,1002.44 605.5,1002C 583.65,1000.76 562.317,997.425 541.5,992C 511.85,982.574 482.516,971.907 453.5,960C 437.965,952.483 422.298,945.15 406.5,938C 367.853,917.367 329.187,896.7 290.5,876C 254.042,853.546 218.376,829.879 183.5,805C 165.941,794.085 147.941,784.085 129.5,775C 122.022,772.066 114.355,769.566 106.5,767.5C 110.806,750.824 114.973,734.157 119,717.5C 123.054,702.93 127.887,688.597 133.5,674.5C 139.475,665.514 147.142,658.348 156.5,653C 164.078,648.809 171.744,644.809 179.5,641C 202.134,631.249 225.134,622.249 248.5,614C 276.669,600.203 302.502,582.703 326,561.5C 333.194,552.965 339.194,543.632 344,533.5C 350.477,517.242 354.477,500.242 356,482.5C 357.334,398.362 358.168,314.362 358.5,230.5C 379.106,234.148 399.772,237.982 420.5,242C 436.301,244.835 447.468,239.002 454,224.5C 454.494,222.866 454.66,221.199 454.5,219.5C 495.451,215.552 529.451,228.885 556.5,259.5C 571.069,278.237 577.069,299.403 574.5,323C 576.12,360.812 576.953,398.645 577,436.5C 580.823,449.657 589.323,458.157 602.5,462C 626.336,462.61 650.003,462.276 673.5,461C 701.739,460.829 729.905,460.329 758,459.5C 760.075,460.134 762.241,460.468 764.5,460.5C 770.831,459.975 777.165,459.475 783.5,459C 811.739,458.829 839.905,458.329 868,457.5C 869.738,458.127 871.571,458.46 873.5,458.5C 879.493,457.924 885.493,457.424 891.5,457C 919.739,456.829 947.905,456.329 976,455.5C 977.738,456.127 979.571,456.46 981.5,456.5C 987.493,455.924 993.493,455.424 999.5,455C 1027.07,454.829 1054.57,454.329 1082,453.5C 1083.74,454.127 1085.57,454.46 1087.5,454.5C 1093.49,453.924 1099.49,453.424 1105.5,453C 1132.41,452.829 1159.24,452.329 1186,451.5C 1187.74,452.127 1189.57,452.46 1191.5,452.5C 1219.13,450.852 1246.8,450.018 1274.5,450C 1315.18,447.515 1349.51,431.681 1377.5,402.5C 1392.28,383.509 1396.44,362.176 1390,338.5C 1385.68,325.085 1379.51,312.419 1371.5,300.5C 1361.77,286.944 1352.27,273.278 1343,259.5C 1341,242.012 1339.5,224.679 1338.5,207.5 Z"/></g>
</svg>
