<?xml version="1.0" encoding="UTF-8"?>
<!DOCTYPE svg PUBLIC "-//W3C//DTD SVG 1.1//EN" "http://www.w3.org/Graphics/SVG/1.1/DTD/svg11.dtd">
<svg xmlns="http://www.w3.org/2000/svg" version="1.1" width="800px" height="570px" style="shape-rendering:geometricPrecision; text-rendering:geometricPrecision; image-rendering:optimizeQuality; fill-rule:evenodd; clip-rule:evenodd" xmlns:xlink="http://www.w3.org/1999/xlink">
<g><path style="opacity:0.923" fill="#fefffe" d="M 78.5,-0.5 C 89.1667,-0.5 99.8333,-0.5 110.5,-0.5C 124.356,0.919997 138.356,2.42 152.5,4C 273.34,21.9823 394.674,35.6489 516.5,45C 594.963,54.0513 673.296,64.0513 751.5,75C 762.391,76.2797 771.558,80.7797 779,88.5C 780.931,92.4274 781.764,96.5941 781.5,101C 780.161,111.519 778.995,122.019 778,132.5C 784.261,136.382 790.761,139.882 797.5,143C 798.066,143.995 798.733,144.828 799.5,145.5C 799.5,157.167 799.5,168.833 799.5,180.5C 795.129,203.109 787.629,224.776 777,245.5C 757.92,279.995 738.587,314.329 719,348.5C 691.248,394.334 663.748,440.334 636.5,486.5C 644.899,492.459 653.066,498.793 661,505.5C 664.333,511.167 664.333,516.833 661,522.5C 643.924,542.419 623.757,558.085 600.5,569.5C 598.167,569.5 595.833,569.5 593.5,569.5C 588.042,567.231 583.208,563.897 579,559.5C 576.757,555.121 575.59,550.455 575.5,545.5C 580.145,492.213 585.479,439.046 591.5,386C 589.833,383 587.5,380.667 584.5,379C 569.618,371.132 556.452,360.966 545,348.5C 539.279,339.724 534.612,330.391 531,320.5C 527.359,315.422 522.525,311.922 516.5,310C 489.691,304.551 462.691,300.218 435.5,297C 427.549,294.715 421.715,289.881 418,282.5C 413.942,273.661 410.276,264.661 407,255.5C 405.129,250.919 402.629,246.752 399.5,243C 377.147,230.823 354.48,219.156 331.5,208C 322.083,204.65 312.417,202.316 302.5,201C 240.761,193.037 179.095,184.704 117.5,176C 111.728,173.894 107.562,170.061 105,164.5C 102.688,137.693 99.355,111.026 95,84.5C 84.2954,99.3965 70.7954,102.563 54.5,94C 39.2598,92.5545 24.2598,89.8878 9.5,86C 4.55732,83.8941 1.22399,80.3941 -0.5,75.5C -0.5,71.1667 -0.5,66.8333 -0.5,62.5C 3.44443,44.1172 12.4444,28.6172 26.5,16C 32.6089,11.6122 39.2755,8.2789 46.5,6C 57.1638,3.10098 67.8304,0.934317 78.5,-0.5 Z M 84.5,14.5 C 99.8643,14.7273 115.198,15.5606 130.5,17C 179.165,23.6665 227.832,30.3331 276.5,37C 360.725,46.4558 445.058,54.7891 529.5,62C 594.511,69.918 659.511,77.918 724.5,86C 737.876,87.4744 750.876,90.4744 763.5,95C 765.444,96.722 766.444,98.8887 766.5,101.5C 764.932,110.644 763.599,119.81 762.5,129C 762.268,136.651 765.268,142.651 771.5,147C 775.34,149.421 779.34,151.588 783.5,153.5C 785.663,176.521 781.83,198.521 772,219.5C 750.697,260.777 728.363,301.443 705,341.5C 677.082,387.668 649.415,434.001 622,480.5C 620.068,485.194 620.068,489.861 622,494.5C 629.864,502.182 638.697,508.516 648.5,513.5C 649.521,514.002 649.688,514.668 649,515.5C 633.789,528.379 618.289,540.879 602.5,553C 601.271,553.781 599.938,554.281 598.5,554.5C 596.253,553.594 594.253,552.261 592.5,550.5C 591.336,544.193 591.169,537.859 592,531.5C 597.331,480.864 601.997,430.197 606,379.5C 604.262,375.759 601.762,372.592 598.5,370C 589.004,363.418 579.338,357.085 569.5,351C 562.573,346.075 557.073,339.908 553,332.5C 547.615,310.448 533.781,297.281 511.5,293C 486.525,288.754 461.525,284.754 436.5,281C 433.567,278.736 431.4,275.902 430,272.5C 426.22,261.606 421.886,250.94 417,240.5C 414.861,237.061 412.361,233.894 409.5,231C 385.428,217.297 360.761,204.63 335.5,193C 325.721,189.722 315.721,187.389 305.5,186C 243.789,177.851 182.122,169.517 120.5,161C 117.589,134.141 114.089,107.308 110,80.5C 109.374,66.8481 102.874,62.6814 90.5,68C 84.8333,72.3333 79.8333,77.3333 75.5,83C 74.1268,83.8749 72.6268,84.3749 71,84.5C 67.5176,83.033 64.0176,81.533 60.5,80C 45.5231,77.42 30.5231,75.0867 15.5,73C 14.6433,72.3109 13.9767,71.4776 13.5,70.5C 16.6067,53.7814 24.2734,39.6147 36.5,28C 40.6087,24.6123 45.2754,22.279 50.5,21C 61.7941,17.8434 73.1275,15.6767 84.5,14.5 Z"/></g>
</svg>
