<?xml version="1.0" encoding="UTF-8"?>
<!DOCTYPE svg PUBLIC "-//W3C//DTD SVG 1.1//EN" "http://www.w3.org/Graphics/SVG/1.1/DTD/svg11.dtd">
<svg xmlns="http://www.w3.org/2000/svg" version="1.1" width="700px" height="265px" style="shape-rendering:geometricPrecision; text-rendering:geometricPrecision; image-rendering:optimizeQuality; fill-rule:evenodd; clip-rule:evenodd" xmlns:xlink="http://www.w3.org/1999/xlink">
<g><path style="opacity:0.956" fill="#f9f9f9" d="M 403.5,258.5 C 402.209,258.263 401.209,258.596 400.5,259.5C 387.462,259.742 374.128,259.742 360.5,259.5C 358.735,258.539 356.735,258.205 354.5,258.5C 346.334,257.959 338.334,256.459 330.5,254C 314.949,248.89 299.615,243.223 284.5,237C 274.176,234.32 263.676,232.82 253,232.5C 213.329,234.755 173.663,237.088 134,239.5C 126.147,239.304 118.314,238.804 110.5,238C 92.4865,233.931 74.3199,230.764 56,228.5C 46.5324,230.247 37.0324,231.413 27.5,232C 16.2749,229.778 8.27488,223.445 3.5,213C 2.01365,197.545 7.34699,184.212 19.5,173C 32.5948,162.874 47.4282,157.04 64,155.5C 73.3186,156.495 81.8186,159.661 89.5,165C 95.9505,171.386 102.951,177.053 110.5,182C 119.14,185.286 127.807,185.286 136.5,182C 145.494,175.501 154.827,169.501 164.5,164C 176.353,158.482 188.353,158.148 200.5,163C 235.167,181 269.833,199 304.5,217C 326.836,225.926 349.503,226.592 372.5,219C 383.901,215.222 393.734,209.056 402,200.5C 403,198.167 404,195.833 405,193.5C 405.333,183.167 405.667,172.833 406,162.5C 407.492,156.013 410.659,150.513 415.5,146C 421.904,142.265 427.737,137.765 433,132.5C 433.667,130.833 433.667,129.167 433,127.5C 431.167,125.667 429.333,123.833 427.5,122C 374.833,93.6667 322.167,65.3333 269.5,37C 242.987,24.1263 215.987,23.1263 188.5,34C 178.673,39.0795 169.006,44.4129 159.5,50C 141.498,57 124.165,55.6667 107.5,46C 99.8333,41 92.1667,36 84.5,31C 78.4014,25.2566 76.9014,18.4232 80,10.5C 81.8734,8.29113 84.04,6.4578 86.5,5C 285.833,4.33333 485.167,4.33333 684.5,5C 689.292,7.7482 691.626,11.9149 691.5,17.5C 689.899,27.4065 687.899,37.2399 685.5,47C 686.622,49.5816 688.622,51.2483 691.5,52C 694.36,55.6814 695.193,59.8481 694,64.5C 689.167,74.0115 683.001,82.5115 675.5,90C 672.618,91.6079 669.618,92.9413 666.5,94C 655.067,94.6728 643.733,96.0061 632.5,98C 625.267,106.691 625.933,114.691 634.5,122C 640.822,124.826 646.822,128.159 652.5,132C 664.297,140.962 664.297,149.962 652.5,159C 625.803,174.684 598.47,189.351 570.5,203C 531.042,220.042 491.042,235.708 450.5,250C 435.064,254.188 419.397,257.021 403.5,258.5 Z M 90.5,15.5 C 129.835,15.3333 169.168,15.5 208.5,16C 189.096,19.7965 171.43,27.4632 155.5,39C 141.825,44.2127 128.491,43.5461 115.5,37C 108.167,32.3333 100.833,27.6667 93.5,23C 90.1614,21.2362 89.1614,18.7362 90.5,15.5 Z M 245.5,16.5 C 389.999,15.5004 534.666,15.1671 679.5,15.5C 677.745,26.3575 675.745,37.1908 673.5,48C 674.019,54.0351 677.019,58.3685 682.5,61C 679.333,66.1667 676.167,71.3333 673,76.5C 670.766,78.6998 668.266,80.5331 665.5,82C 655.178,83.0882 644.844,84.0882 634.5,85C 623.741,88.0996 617.575,95.2663 616,106.5C 614.954,117.574 619.121,126.074 628.5,132C 636.003,135.582 643.003,139.915 649.5,145C 648.833,146 648.167,147 647.5,148C 622.634,163.27 596.967,177.27 570.5,190C 530.728,207.385 490.395,223.385 449.5,238C 414.652,248.299 379.319,250.632 343.5,245C 323.773,239.469 304.44,232.803 285.5,225C 280.552,223.744 275.552,222.744 270.5,222C 256.5,221.333 242.5,221.333 228.5,222C 197.015,224.099 165.515,225.932 134,227.5C 114.482,227.108 95.315,224.275 76.5,219C 61.4499,215.895 46.4499,216.395 31.5,220.5C 20.6531,219.987 15.3198,214.321 15.5,203.5C 16.0948,198.549 17.5948,193.882 20,189.5C 31.6938,176.736 46.1938,169.403 63.5,167.5C 68.7142,168.294 73.7142,169.794 78.5,172C 85.6832,177.427 92.6832,183.094 99.5,189C 111.636,196.875 124.636,198.542 138.5,194C 147.101,189.061 155.435,183.728 163.5,178C 172.778,171.845 182.778,170.179 193.5,173C 229.959,191.396 266.292,210.063 302.5,229C 308.643,231.603 314.977,233.603 321.5,235C 352.559,239.569 380.559,232.569 405.5,214C 411.25,208.671 415.084,202.171 417,194.5C 417.066,183.095 417.733,171.762 419,160.5C 420.458,158.04 422.291,155.873 424.5,154C 428.833,151 433.167,148 437.5,145C 448.238,134.388 447.905,124.055 436.5,114C 379.104,81.9672 321.104,50.9672 262.5,21C 257.007,18.7788 251.34,17.2788 245.5,16.5 Z"/></g>
<g><path style="opacity:0.192" fill="#9a9a9a" d="M 354.5,258.5 C 356.735,258.205 358.735,258.539 360.5,259.5C 359.134,259.954 357.634,260.287 356,260.5C 355.283,259.956 354.783,259.289 354.5,258.5 Z"/></g>
<g><path style="opacity:0.027" fill="#1f201f" d="M 403.5,258.5 C 402.828,259.267 401.995,259.934 401,260.5C 400.601,260.272 400.435,259.938 400.5,259.5C 401.209,258.596 402.209,258.263 403.5,258.5 Z"/></g>
</svg>
