<svg xmlns="http://www.w3.org/2000/svg" xmlns:xlink="http://www.w3.org/1999/xlink" viewBox="0 0 1062.67 537.87"><style><![CDATA[.J{fill:#fff}.K{opacity:.3}.L{fill:#010101}]]></style><path d="M148.18 438.4h-1.26c-3.15-.13-4.76-.48-10.44-3.77-3.73-2.17-9.08-6.9-14.26-11.47l-7.3-6.28c-2-1.6-4.27-3.15-6.3-4.52-3.5-2.35-6.5-4.38-8.5-7.1-3-4.08-3.53-6.2-3.56-10.07 0-3.26 1.1-6.74 3.46-10.64a25.28 25.28 0 0 1 4.79-5.36c.82-.75 1.6-1.46 2.18-2.12s1.2-1.3 1.78-1.9a17.14 17.14 0 0 0 3-3.75 9.89 9.89 0 0 0 1-3.21c.25-1.12.6-2.65 1.2-4.87.4-1.47.84-3.24 1.3-5.1a108.75 108.75 0 0 1 5-16.51l1.08-2.53c2.12-5 3.2-7.6 9.12-17 6.66-10.58 22.64-35.16 31.17-46.8 7.26-9.9 10.68-13.94 14.3-18.22l1.93-2.3c3.73-4.43 4.68-5.48 8.2-9.37l3.2-3.54c4.55-5 13.05-12.38 22.06-20.17l12.3-10.73c6-5.37 9-8.3 12-11.12 3.08-3 6-5.8 12-11 11.46-10 33.63-28.48 44.3-35.8l5.5-3.8c4.78-3.35 5.12-3.55 12.24-7 6.18-3 15.56-6.56 23.84-9.73l10.6-4.13 4.27-1.74a62.17 62.17 0 0 0 8.64-3.93c1.3-.74 3.16-2.1 4.95-3.4a50.43 50.43 0 0 1 7.29-4.76c3.8-1.76 6.53-2.34 9.5-2.06a10.71 10.71 0 0 1 7.12 3.38 16.24 16.24 0 0 1 2.91 4.17 31.88 31.88 0 0 0 2.4 3.85l.66.88a54.88 54.88 0 0 0 5.42 6.47c3.12 3.3 36.3 32.3 49.33 43.13 7.34 6.1 12 9.5 16.5 12.82 3.38 2.48 6.88 5.05 11.4 8.66 3.43 2.75 6.88 5.32 10.52 8a227.66 227.66 0 0 1 22 17.91c5.4 5.13 11.22 12 16.85 18.57 6 7.1 11.76 13.8 16.34 17.74 7.3 6.27 8.8 7.16 14.44 10.46l4.5 2.68c3.57 2.14 8.55 4.85 13.8 7.7 8.74 4.75 18.64 10.12 25.1 14.58a132.88 132.88 0 0 1 18.16 15.26l5.47 5.18c3.38 3.13 6.77 6.75 10.35 10.58 5.46 5.83 11.1 11.86 16.65 16 9.53 7.08 19.5 11.16 27.12 13.93 8.26 3 14.9 4.46 21.5 4.72 6.22.25 10.8-1.1 15.87-3.2s9.4-6.2 12.28-9.34a47.64 47.64 0 0 0 8.14-12.7c2-4.28 3.23-9 4.65-14.5l1.07-4.08a72.32 72.32 0 0 0 1.58-8.74c.68-4.75 1.37-9.66 3.36-14.28a63.77 63.77 0 0 1 13.5-19.59c3.8-3.6 8.87-6.53 15.55-9l.58-.2c4-1.5 7.7-2.9 40.33-3.43l12.84-.1c34.1 0 79.64 1.64 87.48 2.82l2.85.43c6.14.9 7.8 1.14 10.77 3.65 2.66 2.23 4.5 5.4 5.67 9.68a21.93 21.93 0 0 1 .17 10.42 30.57 30.57 0 0 1-5.16 12.3 23.69 23.69 0 0 1-6.43 5.33 24.21 24.21 0 0 0-3.41 2.44 40.11 40.11 0 0 0-6.84 7.87 85.51 85.51 0 0 0-5.65 11.17l-1.44 3.17c-1.12 2.43-2.32 5.36-3.48 8.18-1.26 3.08-2.45 6-3.47 8.05a33.66 33.66 0 0 1-3 4.91 9.1 9.1 0 0 0-1.12 1.79c-.57 1.6-.5 1.8-.35 2.4a3.61 3.61 0 0 0 1.51 1.4 2.18 2.18 0 0 0 1.19.3 6.57 6.57 0 0 0 .74-.05c.05 0 .73-.2 2.4-2 .62-.66 1-2.05 1.57-4.87l.4-1.8c1.08-4.7 7.4-25 11.15-31.63 2.82-5 4-6.22 6.18-7.6.26-.17.56-.35.93-.63 2.73-2.06 6-4.26 10.17-4.4h.43c3.5 0 6.1 1.44 8.86 3l1.36.75c3.57 1.9 10.9 7.74 11.74 8.4l.3.26c1.84 1.76 18.13 17.32 21.75 23 2.9 4.6 3.6 5.95 3.52 8.8v.7a15.16 15.16 0 0 1-2.5 8.49c-1.55 2.7-2.58 4-6.42 7.16s-16.07 10-17.46 10.8l-.3.15-91 42.36c-.64.32-18 8.83-26.54 11.63a115.86 115.86 0 0 1-24.64 5.43 188.5 188.5 0 0 1-22 1.12c-3.77 0-7.57-.08-11.3-.24a230.64 230.64 0 0 1-32.9-3.72 184 184 0 0 1-31.53-8.43c-13.64-4.8-34.55-14.45-49.56-21.87-16.43-8.12-29.82-15.14-41.8-23-12.6-8.26-19-13.62-32.35-25-6.73-5.73-18-16.72-28-26.4l-18.34-17.4h-.1a4.74 4.74 0 0 0-.83.33 21.4 21.4 0 0 0-1.83 1.74A14.91 14.91 0 0 1 534 315a8.15 8.15 0 0 1-3.39.88 9.05 9.05 0 0 1-1.41-.13c-.18 0-.4-.07-.68-.1-4.37-.55-14.93-11.66-16.63-14.25a14.47 14.47 0 0 1-2.7-7 7.29 7.29 0 0 0-.18-1.06 20.11 20.11 0 0 1-.47-3.48 9.54 9.54 0 0 0-.2-1.77c-2.34-3-17.95-19.75-31.93-34.47l-78.12-79.8c-2.8-2.43-7.34-6.1-9-6.94a9.77 9.77 0 0 0-5.06-1.47h-.54a77.87 77.87 0 0 0-9.47 1.07c-1.66.42-14.26 3.72-21.2 6.4-7.36 2.84-16.17 7.33-23.85 11.3l-5.55 2.83a91.65 91.65 0 0 0-11 6.11 63.49 63.49 0 0 0-9.66 9.25l-.82.9a26.26 26.26 0 0 0-5 7.47c-1.72 3.5-1.75 6.63-1.78 9.65 0 1.23 0 2.4-.14 3.6-.66 13.46-2.76 17.18-10.68 25.94l-1.68 1.94a74.68 74.68 0 0 1-6.3 6.55c-4.78 4.55-47.13 46.26-49.87 49-2.24 2.6-5.37 5.82-7.84 6.72a9.25 9.25 0 0 1-3.21.66 9 9 0 0 1-2.7-.48l-.85-.25a21.41 21.41 0 0 1-5.18-2.52A27.54 27.54 0 0 0 204 310c-.52-.2-1-.4-1.5-.6a6.07 6.07 0 0 0-2.66-.78c-1 .1-1.5.32-4.36 2.38a43.88 43.88 0 0 0-9.42 9.66c-3.36 4.5-7.45 12.63-10.75 19.16l-1.13 2.2-1.7 3.33a120.63 120.63 0 0 0-7.62 17 143.64 143.64 0 0 0-5.86 25.5c-.75 6.56-.78 11.17-.08 15.44a27.09 27.09 0 0 0 2 6.19 28.77 28.77 0 0 1 1.38 3.68c.17.64.32 1.08.43 1.43a9.5 9.5 0 0 1 .56 4.39 24.33 24.33 0 0 1-2.9 8.77c-1.52 2.92-3.9 6.78-6.5 8.6a8.85 8.85 0 0 1-5.71 2.07zm229.3-317a10.17 10.17 0 0 0-4.34 1.28 51.8 51.8 0 0 0-5.79 3.88c-2.08 1.5-4.05 2.94-5.76 3.93a70.35 70.35 0 0 1-9.73 4.46l-4.24 1.73c-2.83 1.16-6.7 2.65-10.8 4.2-8.12 3.1-17.3 6.62-23.16 9.44-6.66 3.2-6.66 3.2-11 6.22-1.36 1-3.1 2.18-5.57 3.87-10.37 7.1-32.18 25.32-43.5 35.15-5.85 5.1-8.55 7.7-11.67 10.72-2.84 2.76-6.07 5.88-12.25 11.38l-12.4 10.82c-8.8 7.6-17.1 14.77-21.26 19.4l-3.2 3.55c-3.44 3.8-4.36 4.82-8 9.12l-2 2.32c-3.67 4.33-6.84 8.07-13.92 17.72-8.4 11.46-24.2 35.8-30.8 46.28-5.54 8.8-6.4 10.82-8.44 15.7l-1.1 2.6a98.68 98.68 0 0 0-4.56 15.11l-1.38 5.4c-.56 2-.85 3.32-1.1 4.4a18.79 18.79 0 0 1-1.88 5.48 25.66 25.66 0 0 1-4.51 5.77l-1.52 1.62c-.9 1-1.88 1.9-2.82 2.78a18.31 18.31 0 0 0-3.18 3.39c-1.8 3-2.18 4.86-2.17 5.9 0 2.06 0 2.38 1.84 4.86 1.06 1.46 3.47 3.08 6.26 5 2.08 1.4 4.45 3 6.9 4.94 2.2 1.75 4.84 4.1 7.66 6.58 4.62 4.08 9.86 8.7 12.83 10.43 4.26 2.48 4.73 2.5 6.3 2.57h.85l.64-.43a19.55 19.55 0 0 0 3.68-5.39 15.91 15.91 0 0 0 1.91-5.24 3.47 3.47 0 0 0 0-.53c0-.07-.08-.2-.14-.4-.15-.48-.35-1.08-.6-2a22.47 22.47 0 0 0-1-2.46 34.43 34.43 0 0 1-2.64-8.27c-.84-5.14-.84-10.5 0-17.92a151.74 151.74 0 0 1 6.29-27.36 128 128 0 0 1 8.12-18.22l1.68-3.28 1.13-2.24c3.63-7.2 7.74-15.37 11.57-20.5a52.7 52.7 0 0 1 11.35-11.56c3.16-2.3 5.28-3.7 8.76-4a13.78 13.78 0 0 1 7 1.45l1.25.5a30.47 30.47 0 0 1 4.25 2.24 20.72 20.72 0 0 0 2.92 1.56c.45.12.82.24 1.14.33h.08a30.11 30.11 0 0 0 4.35-4.31l.27-.28 50.1-49.2a63.87 63.87 0 0 0 5.66-5.88l1.84-2.1c6.84-7.58 7.86-9.4 8.4-20.5v-.28c.08-.78.1-1.73.1-2.83a29.18 29.18 0 0 1 2.7-13.53 35.3 35.3 0 0 1 6.5-9.65c.22-.23.43-.45.6-.66 1.88-2.16 6.73-7.52 11.3-10.7A96.66 96.66 0 0 1 319.6 179l5.46-2.78c7.9-4.1 17-8.72 24.75-11.72s21.78-6.6 22.36-6.76l.37-.08a86.87 86.87 0 0 1 11.16-1.23c.5 0 1 0 1.36.06a18.13 18.13 0 0 1 8.29 2.39c3.25 1.64 9.7 7.2 11 8.3l.26.24 78.3 80c32.42 34.15 33.22 36 33.6 36.84a14.39 14.39 0 0 1 1 5 11.58 11.58 0 0 0 .22 1.9 17.12 17.12 0 0 1 .37 2.1 5.94 5.94 0 0 0 1.3 3.16c1.76 2.7 8.7 9 10.88 10.35h.08a23.17 23.17 0 0 0 1.71-1.62 16.35 16.35 0 0 1 4.51-3.6 10.31 10.31 0 0 1 4.53-1.12c.46 0 1 0 1.65.1h.24c2.36.18 2.6.2 22.82 19.86 9.86 9.6 21.05 20.47 27.55 26 13 11.08 19.3 16.32 31.45 24.28 11.6 7.6 24.7 14.47 40.85 22.45 14.78 7.3 35.3 16.78 48.56 21.44a172.5 172.5 0 0 0 30.22 8.08 221.54 221.54 0 0 0 31.55 3.63 263.23 263.23 0 0 0 10.91.23 178.75 178.75 0 0 0 21-1.08 108.15 108.15 0 0 0 22.94-5.05c8-2.6 25.28-11.1 25.45-11.2l90.9-42.33c5-2.8 13.63-7.85 16-9.78 3.16-2.63 3.46-3.16 4.36-4.72 1.08-1.88 1.35-2.64 1.3-3.7v-1.23a.81.81 0 0 1 0-.16c-.23-.5-.94-1.7-2.13-3.6-2.27-3.57-13.54-14.82-20.22-21.18a110 110 0 0 0-10.24-7.39l-1.45-.8c-2.2-1.22-3.4-1.85-4.52-1.85-1.7.05-3.4 1.26-5.2 2.6a21.32 21.32 0 0 1-1.58 1.07c-.6.37-1 .6-3.1 4.4-3.12 5.5-9.22 24.9-10.22 29.22l-.38 1.7c-.8 3.7-1.46 6.6-3.8 9.08-1.88 2-4.5 4.37-7.9 4.78a16.35 16.35 0 0 1-1.79.11 11.13 11.13 0 0 1-5.55-1.44c-1.38-.77-4.74-3-5.8-6.85a11.78 11.78 0 0 1 .57-7.84 16.13 16.13 0 0 1 2.22-3.92 24.47 24.47 0 0 0 2.25-3.69c.88-1.8 2-4.56 3.22-7.5l3.64-8.55 1.4-3.1a92.07 92.07 0 0 1 6.36-12.46 48.88 48.88 0 0 1 8.15-9.41 30.51 30.51 0 0 1 4.81-3.53 17 17 0 0 0 4.13-3.21 21.25 21.25 0 0 0 3.47-8.55 13 13 0 0 0 0-6.38c-.67-2.48-1.55-4.12-2.77-5.14-1-.87-1-.87-6.3-1.65l-2.9-.42c-6.8-1-51-2.73-86.14-2.73l-12.7.1c-31.07.5-34.53 1.8-37.3 2.85l-.67.25c-2 .74-8.17 3-12.44 7.05a55.08 55.08 0 0 0-11.44 16.61c-1.5 3.53-2.1 7.64-2.7 12a84.4 84.4 0 0 1-1.8 9.8l-1.05 4c-1.54 5.92-2.86 11-5.22 16.06a55.9 55.9 0 0 1-9.65 15c-3.5 3.8-9 8.9-15.47 11.57a44.16 44.16 0 0 1-19.65 3.83c-7.6-.3-15.06-1.9-24.23-5.25-8.2-3-18.94-7.4-29.4-15.16-6.2-4.6-12.12-10.93-17.85-17-3.47-3.7-6.75-7.22-9.9-10.14l-5.58-5.28A124.53 124.53 0 0 0 593 301c-6.06-4.18-15.74-9.44-24.27-14.07l-14.15-7.9-4.44-2.63c-5.87-3.45-7.84-4.6-15.74-11.4-5.12-4.4-11-11.35-17.33-18.72-5.47-6.43-11.14-13.08-16.2-17.9a219.73 219.73 0 0 0-21.15-17.21l-10.77-8.23c-4.36-3.5-7.62-5.9-11.08-8.43-4.62-3.38-9.4-6.9-16.94-13.15-12.8-10.64-46.43-40-50.1-43.86a63.09 63.09 0 0 1-6.11-7.28l-.64-.87a39.45 39.45 0 0 1-3.06-4.87 14.8 14.8 0 0 0-1.22-2c-1-.9-1-.9-1.8-1a4.87 4.87 0 0 0-.51-.04z" class="J"/><path d="M545.84 191.4a4.29 4.29 0 0 1-3-1 3.92 3.92 0 0 1-1.23-2.83h1.46a2.72 2.72 0 0 0 .83 1.88 2.68 2.68 0 0 0 1.93.72 3 3 0 0 0 1.94-.57 1.9 1.9 0 0 0 .72-1.57 1.73 1.73 0 0 0-.42-1.23 3.74 3.74 0 0 0-1.43-.87l-1.78-.68a4.76 4.76 0 0 1-2.09-1.38 3.22 3.22 0 0 1-.64-2.07 3 3 0 0 1 1.05-2.29 3.46 3.46 0 0 1 1.2-.65 5 5 0 0 1 1.54-.23 4 4 0 0 1 2.75.9 3.56 3.56 0 0 1 1.13 2.51h-1.46a2.29 2.29 0 0 0-.69-1.57 2.46 2.46 0 0 0-1.73-.57 2.64 2.64 0 0 0-1.69.51 1.64 1.64 0 0 0-.65 1.35A2 2 0 0 0 544 183a3.58 3.58 0 0 0 1.44.92l1.83.7a4.76 4.76 0 0 1 2 1.3 3 3 0 0 1 .61 2 3.51 3.51 0 0 1-.28 1.43 3.08 3.08 0 0 1-.82 1.1 3.8 3.8 0 0 1-1.29.69 5.63 5.63 0 0 1-1.65.25zm6.7-12.62h7.15v1.3H554v4h5.53v1.3H554v4.52h5.92v1.3h-7.36zm15.57 12.62a6.48 6.48 0 0 1-2.55-.49 6.25 6.25 0 0 1-2-1.34 6.14 6.14 0 0 1-1.34-2 6.85 6.85 0 0 1 0-5.09 6 6 0 0 1 3.38-3.37 6.53 6.53 0 0 1 2.54-.49 7 7 0 0 1 2.18.33 6 6 0 0 1 1.8.94 5.58 5.58 0 0 1 1.31 1.47 5.32 5.32 0 0 1 .74 1.91h-1.58a4.25 4.25 0 0 0-.61-1.37 4 4 0 0 0-1-1 4.25 4.25 0 0 0-1.31-.66 5 5 0 0 0-1.56-.23 4.82 4.82 0 0 0-4.56 3.06 5.19 5.19 0 0 0-.38 2 5.33 5.33 0 0 0 .38 2 5.08 5.08 0 0 0 1 1.6 5 5 0 0 0 1.57 1.07 4.85 4.85 0 0 0 1.95.39 4.62 4.62 0 0 0 2.86-.9 4.26 4.26 0 0 0 1.6-2.42h1.55a5.4 5.4 0 0 1-.74 1.91 5.47 5.47 0 0 1-1.31 1.48 6 6 0 0 1-1.8.94 7 7 0 0 1-2.12.26zm10.95-11.3h-3.66v-1.3h8.88v1.3h-3.78v11.1h-1.44zm12.67 11.3a6.46 6.46 0 0 1-2.54-.49 6 6 0 0 1-2-1.35 6.34 6.34 0 0 1-1.36-2 6.8 6.8 0 0 1 0-5.07 6.27 6.27 0 0 1 1.35-2 6.14 6.14 0 0 1 2-1.34 6.55 6.55 0 0 1 2.55-.49 6.41 6.41 0 0 1 2.53.49 6.14 6.14 0 0 1 2 1.34 6.25 6.25 0 0 1 1.34 2 6.8 6.8 0 0 1 0 5.07 6.29 6.29 0 0 1-1.34 2 6 6 0 0 1-2 1.35 6.41 6.41 0 0 1-2.53.49zm0-1.34a4.85 4.85 0 0 0 2-.39 4.92 4.92 0 0 0 1.57-1.07 5 5 0 0 0 1-1.61 5.58 5.58 0 0 0 .37-2 5.22 5.22 0 0 0-.38-2 5.16 5.16 0 0 0-1-1.61 4.84 4.84 0 0 0-1.56-1.06 5 5 0 0 0-2-.37 5.1 5.1 0 0 0-2 .37 4.7 4.7 0 0 0-1.55 1.06 5.09 5.09 0 0 0-1.41 3.6 5.57 5.57 0 0 0 .36 2 4.84 4.84 0 0 0 2.6 2.68 4.93 4.93 0 0 0 2 .4zm9.1-11.28h3.85a4.07 4.07 0 0 1 2.87 1 3.46 3.46 0 0 1 1 2.65 3.64 3.64 0 0 1-.73 2.33 3.52 3.52 0 0 1-2 1.24l3.52 5.22h-1.72l-3.37-5.1h-2v5.1h-1.44zm3.76 6a2.59 2.59 0 0 0 1.83-.61 2.63 2.63 0 0 0 0-3.46 2.6 2.6 0 0 0-1.85-.61h-2.34v4.68zm15.08-6v12.4h-1.44v-10.93l-2.36.74-.35-1.26 2.9-1z" opacity=".5" class="J"/><path d="M602.9 436.57a4.24 4.24 0 0 1-3-1 3.91 3.91 0 0 1-1.23-2.83h1.46a2.65 2.65 0 0 0 2.76 2.6 3 3 0 0 0 1.94-.57 1.89 1.89 0 0 0 .72-1.57 1.77 1.77 0 0 0-.42-1.23 3.74 3.74 0 0 0-1.43-.87l-1.8-.68a4.77 4.77 0 0 1-2.08-1.37 3.27 3.27 0 0 1-.64-2.08 3.11 3.11 0 0 1 .27-1.29 3 3 0 0 1 .78-1 3.63 3.63 0 0 1 1.2-.65 5 5 0 0 1 1.54-.23 4 4 0 0 1 2.75.91 3.52 3.52 0 0 1 1.13 2.5h-1.47a2.27 2.27 0 0 0-.69-1.56A2.46 2.46 0 0 0 603 425a2.64 2.64 0 0 0-1.69.5 1.65 1.65 0 0 0-.65 1.36 2 2 0 0 0 .44 1.32 3.58 3.58 0 0 0 1.44.93l1.83.7a4.63 4.63 0 0 1 2 1.3 3 3 0 0 1 .62 2 3.52 3.52 0 0 1-.28 1.44 3 3 0 0 1-.82 1.09 3.63 3.63 0 0 1-1.29.69 5.63 5.63 0 0 1-1.69.24zm6.72-12.57h7.15v1.3h-5.7v4h5.53v1.3h-5.53v4.5H617v1.3h-7.35zm15.58 12.57a6.65 6.65 0 0 1-2.55-.48 6.44 6.44 0 0 1-2-1.35 6.14 6.14 0 0 1-1.34-2 6.83 6.83 0 0 1 0-5.08 6.14 6.14 0 0 1 1.34-2 6.37 6.37 0 0 1 2-1.35 7 7 0 0 1 4.72-.15 5.94 5.94 0 0 1 1.8.94 5.57 5.57 0 0 1 2.05 3.37h-1.55a4.59 4.59 0 0 0-.61-1.37 4.18 4.18 0 0 0-2.29-1.7 5.25 5.25 0 0 0-1.56-.23 4.85 4.85 0 0 0-2 .39 4.61 4.61 0 0 0-1.57 1.07 5 5 0 0 0-1 1.6 5.22 5.22 0 0 0-.38 2 5.29 5.29 0 0 0 .38 2 5 5 0 0 0 1 1.6 4.76 4.76 0 0 0 1.57 1.07 4.85 4.85 0 0 0 2 .39 4.62 4.62 0 0 0 2.86-.9 4.26 4.26 0 0 0 1.6-2.42h1.55a5.52 5.52 0 0 1-.74 1.92 5.28 5.28 0 0 1-1.31 1.47 5.94 5.94 0 0 1-1.8.94 7 7 0 0 1-2.17.27zm10.94-11.3h-3.66V424h8.88v1.3h-3.78v11.1h-1.44zm12.66 11.3a6.64 6.64 0 0 1-2.54-.48 6.28 6.28 0 0 1-3.39-3.4 6.78 6.78 0 0 1 0-5.06 6.17 6.17 0 0 1 1.35-2 6.33 6.33 0 0 1 2-1.35 6.73 6.73 0 0 1 2.55-.49 6.59 6.59 0 0 1 2.53.49 6.33 6.33 0 0 1 2 1.35 6.14 6.14 0 0 1 1.34 2 6.78 6.78 0 0 1 0 5.06 6.16 6.16 0 0 1-3.37 3.4 6.59 6.59 0 0 1-2.47.48zm0-1.34a4.8 4.8 0 0 0 4.55-3.07 5.54 5.54 0 0 0 .37-2 5.26 5.26 0 0 0-.38-2 5.12 5.12 0 0 0-1-1.6 4.55 4.55 0 0 0-1.56-1.06 5.22 5.22 0 0 0-3.91 0 4.55 4.55 0 0 0-1.56 1.06 5.12 5.12 0 0 0-1 1.6 5.26 5.26 0 0 0-.38 2 5.54 5.54 0 0 0 .37 2 4.84 4.84 0 0 0 2.6 2.68 4.9 4.9 0 0 0 1.9.39zm9.1-11.23h3.85a4.06 4.06 0 0 1 2.87 1 3.46 3.46 0 0 1 1 2.65 3.64 3.64 0 0 1-.73 2.33 3.53 3.53 0 0 1-2 1.25l3.53 5.2h-1.72l-3.37-5.1h-2v5.1h-1.44zm3.76 6a2.6 2.6 0 0 0 1.83-.62 2.61 2.61 0 0 0 0-3.46 2.6 2.6 0 0 0-1.84-.6h-2.34V430zm19.54 5.06v1.3h-8.07v-.74a4.19 4.19 0 0 1 .32-1.7 5.4 5.4 0 0 1 .82-1.33 6.56 6.56 0 0 1 1.1-1l1.13-.77 1.38-.86a5.91 5.91 0 0 0 .93-.73 2.3 2.3 0 0 0 .53-.78 2.54 2.54 0 0 0 .16-1 2.27 2.27 0 0 0-.66-1.79 2.53 2.53 0 0 0-3.38.12 2.6 2.6 0 0 0-.67 1.87h-1.48a4.35 4.35 0 0 1 .29-1.61 3.65 3.65 0 0 1 .79-1.25 3.57 3.57 0 0 1 1.23-.79 4.47 4.47 0 0 1 1.6-.28 4.72 4.72 0 0 1 1.53.25 3.22 3.22 0 0 1 2 1.89 4 4 0 0 1 .28 1.53 3.59 3.59 0 0 1-.25 1.41 3.66 3.66 0 0 1-.71 1.09 6.19 6.19 0 0 1-1.09.91l-1.36.9-1.15.77a6.79 6.79 0 0 0-.88.76 3.59 3.59 0 0 0-.6.82 3.23 3.23 0 0 0-.32 1z" opacity=".5" class="J"/><path d="M48.7 450.2a4.24 4.24 0 0 1-3-1 3.92 3.92 0 0 1-1.23-2.83h1.46a2.65 2.65 0 0 0 2.76 2.6 3 3 0 0 0 1.94-.57 1.89 1.89 0 0 0 .72-1.57 1.75 1.75 0 0 0-.42-1.23 3.74 3.74 0 0 0-1.43-.87l-1.8-.74a4.86 4.86 0 0 1-2.08-1.37 3.27 3.27 0 0 1-.64-2.08 3.11 3.11 0 0 1 .27-1.29 3 3 0 0 1 .78-1 3.63 3.63 0 0 1 1.2-.65 5 5 0 0 1 1.54-.23 4 4 0 0 1 2.75.91 3.52 3.52 0 0 1 1.13 2.5H51.2a2.27 2.27 0 0 0-.69-1.56 2.41 2.41 0 0 0-1.73-.58 2.64 2.64 0 0 0-1.69.51 1.65 1.65 0 0 0-.65 1.36 2 2 0 0 0 .44 1.32 3.58 3.58 0 0 0 1.44.92l1.83.7a4.72 4.72 0 0 1 2 1.3 3 3 0 0 1 .62 2 3.48 3.48 0 0 1-.28 1.43 3 3 0 0 1-.82 1.1 3.8 3.8 0 0 1-1.29.69 5.63 5.63 0 0 1-1.67.23zm6.7-12.6h7.15v1.3h-5.7v4h5.53v1.3h-5.53v4.52h5.9V450H55.4zM71 450.2a6.48 6.48 0 0 1-2.55-.49 6.25 6.25 0 0 1-2-1.34 6.14 6.14 0 0 1-1.34-2 6.85 6.85 0 0 1 0-5.09 6.1 6.1 0 0 1 1.34-2 6.21 6.21 0 0 1 2-1.35 6.68 6.68 0 0 1 2.55-.54 7 7 0 0 1 2.18.33 6.17 6.17 0 0 1 1.8.94 5.58 5.58 0 0 1 1.31 1.47 5.4 5.4 0 0 1 .74 1.91h-1.57a4.48 4.48 0 0 0-.61-1.37 4.18 4.18 0 0 0-2.29-1.7 5 5 0 0 0-1.56-.23 5 5 0 0 0-2 .38 4.92 4.92 0 0 0-1.57 1.07 5 5 0 0 0-1 1.61 5.22 5.22 0 0 0-.38 2 5.33 5.33 0 0 0 .38 2 5 5 0 0 0 1 1.6 4.76 4.76 0 0 0 1.57 1.07 4.85 4.85 0 0 0 2 .39 4.62 4.62 0 0 0 2.86-.9 4.26 4.26 0 0 0 1.6-2.42H77a5.52 5.52 0 0 1-.74 1.92 5.43 5.43 0 0 1-1.26 1.47 5.94 5.94 0 0 1-1.8.94 7 7 0 0 1-2.2.33zm10.93-11.3h-3.66v-1.3h8.88v1.3h-3.78V450h-1.44zm12.67 11.3a6.46 6.46 0 0 1-2.54-.49 6 6 0 0 1-2-1.35 6.34 6.34 0 0 1-1.36-2 6.8 6.8 0 0 1 0-5.07 6.2 6.2 0 0 1 3.38-3.37 6.73 6.73 0 0 1 2.55-.49 6.59 6.59 0 0 1 2.53.49 6.17 6.17 0 0 1 2 1.35 6.1 6.1 0 0 1 1.34 2 6.8 6.8 0 0 1 0 5.07 6.29 6.29 0 0 1-1.34 2 6 6 0 0 1-2 1.35 6.41 6.41 0 0 1-2.56.51zm0-1.34a4.8 4.8 0 0 0 4.55-3.07 5.58 5.58 0 0 0 .37-2 5.22 5.22 0 0 0-.38-2 5 5 0 0 0-1-1.6 4.55 4.55 0 0 0-1.56-1.06 5.22 5.22 0 0 0-3.91 0 4.55 4.55 0 0 0-1.56 1.06 5 5 0 0 0-1 1.6 5.22 5.22 0 0 0-.38 2 5.58 5.58 0 0 0 .37 2 4.84 4.84 0 0 0 2.6 2.68 4.9 4.9 0 0 0 1.9.39zm9.1-11.26h3.85a4.07 4.07 0 0 1 2.87 1 3.46 3.46 0 0 1 1 2.65 3.64 3.64 0 0 1-.73 2.33 3.51 3.51 0 0 1-2 1.24l3.53 5.22h-1.72l-3.37-5.1h-2V450h-1.43zm3.76 6a2.6 2.6 0 0 0 1.83-.62 2.61 2.61 0 0 0 0-3.46 2.6 2.6 0 0 0-1.84-.61h-2.34v4.7zm17.54-.13a3 3 0 0 1 1.45 1.15 3.22 3.22 0 0 1 .51 1.83 3.73 3.73 0 0 1-.31 1.5 3.46 3.46 0 0 1-.87 1.19 4 4 0 0 1-1.32.79 4.72 4.72 0 0 1-1.67.28 4.91 4.91 0 0 1-1.62-.26 3.48 3.48 0 0 1-2.08-2 4.68 4.68 0 0 1-.33-1.63h1.45a2.7 2.7 0 0 0 .73 1.86 2.47 2.47 0 0 0 1.82.7 3.21 3.21 0 0 0 1.1-.18 2.51 2.51 0 0 0 .86-.49 2.15 2.15 0 0 0 .55-.75 2.42 2.42 0 0 0 .2-1 2.12 2.12 0 0 0-.72-1.7 3.05 3.05 0 0 0-2-.6h-1.24v-1.3h1.22a2.43 2.43 0 0 0 1.7-.54 2 2 0 0 0 .6-1.55 1.91 1.91 0 0 0-.59-1.5 2.34 2.34 0 0 0-1.65-.54 2.53 2.53 0 0 0-1.72.57 2 2 0 0 0-.7 1.51H119a3.33 3.33 0 0 1 .33-1.37 3.47 3.47 0 0 1 .83-1.09 3.88 3.88 0 0 1 1.22-.71 4.47 4.47 0 0 1 1.53-.26 4.51 4.51 0 0 1 1.51.24 3.47 3.47 0 0 1 1.16.67 3 3 0 0 1 .75 1.06 3.32 3.32 0 0 1 .27 1.35 3.25 3.25 0 0 1-.4 1.63 3.08 3.08 0 0 1-1.2 1.13z" opacity=".5" class="J"/><path d="M387.17 99.7h-2.66v-2.85h8.7v2.85h-2.87v8.13h-3.17zm12.15-2.85v11h-3.1v-8l-1.8.55-.7-2.63 3.08-.94zm150.05 145.7h-2.66v-2.85h8.7v2.85h-2.88v8.13h-3.16zM564.5 248v2.66h-8.2v-1.13a3.75 3.75 0 0 1 .8-2.34 9 9 0 0 1 2.21-1.95l1-.65a5.63 5.63 0 0 0 .6-.46 1.14 1.14 0 0 0 .29-.37.94.94 0 0 0 .09-.43 1 1 0 0 0-.25-.72.92.92 0 0 0-.67-.24c-.63 0-.94.42-.94 1.26h-3.1a4.1 4.1 0 0 1 1.11-3.06 4.87 4.87 0 0 1 6-.18 3.34 3.34 0 0 1 1 2.62 3.44 3.44 0 0 1-.19 1.2 3.11 3.11 0 0 1-.54.95 5.24 5.24 0 0 1-.9.84l-1.24.86-.94.6a6.55 6.55 0 0 0-.71.53zm121.25 91.54h-2.66v-2.85h8.7v2.85h-2.88v8.13h-3.16zm13.48 2.52a2.88 2.88 0 0 1 1.24 1 2.73 2.73 0 0 1 .42 1.52 3 3 0 0 1-.3 1.34 3.06 3.06 0 0 1-.86 1 4 4 0 0 1-1.31.67 5.53 5.53 0 0 1-1.67.23 4.21 4.21 0 0 1-3-1 4.06 4.06 0 0 1-1.16-2.93h2.95a1.26 1.26 0 0 0 .31.87 1 1 0 0 0 .78.31 1.21 1.21 0 0 0 .82-.27.9.9 0 0 0 .31-.73.88.88 0 0 0-.29-.69 1.26 1.26 0 0 0-.84-.25h-1.06V341h1c.73 0 1.1-.3 1.1-.9a.85.85 0 0 0-.28-.67 1.1 1.1 0 0 0-.77-.25 1.08 1.08 0 0 0-.79.3 1.11 1.11 0 0 0-.32.8h-2.9a4.36 4.36 0 0 1 .36-1.57 3.32 3.32 0 0 1 .85-1.19 3.73 3.73 0 0 1 1.3-.75 4.94 4.94 0 0 1 1.68-.26 5.32 5.32 0 0 1 1.59.22 3.84 3.84 0 0 1 1.22.65 2.8 2.8 0 0 1 .78 1 2.9 2.9 0 0 1 .28 1.29 2.49 2.49 0 0 1-1.44 2.38zm43.1-94.2h-2.66V245h8.7v2.86h-2.87V256h-3.17zm15.02 6.46h-1.2V256h-3.1v-1.67h-4.88v-2.4l4.58-6.92h3.4v6.76h1.2zm-6.2-2.56h2.2v-3.46zm195.2 4.88h-2.66v-2.86h8.7v2.86h-2.88v8.13h-3.16zm12.1.83a3.7 3.7 0 0 1 1.42.27 3.37 3.37 0 0 1 1.12.76 3.49 3.49 0 0 1 .72 1.17 3.94 3.94 0 0 1 .26 1.48 4 4 0 0 1-.3 1.57 3.51 3.51 0 0 1-.86 1.22 4.07 4.07 0 0 1-1.35.77 5.37 5.37 0 0 1-1.76.27 4.22 4.22 0 0 1-2.94-1 3.79 3.79 0 0 1-1.18-2.76h3a1.14 1.14 0 0 0 .37.72 1.07 1.07 0 0 0 .74.27 1.09 1.09 0 0 0 .85-.35 1.35 1.35 0 0 0 0-1.78 1.12 1.12 0 0 0-.84-.35 1.1 1.1 0 0 0-.57.15 1.32 1.32 0 0 0-.44.41h-2.84v-6.52h7.56v2.67h-4.62v1.4a3.71 3.71 0 0 1 1.66-.37zM856.7 348.1h-2.66v-2.86h8.7v2.86h-2.87v8.13h-3.17zm11.35.43a3.66 3.66 0 0 1 1.27.42 3.87 3.87 0 0 1 1 .84 3.66 3.66 0 0 1 .67 1.15 3.93 3.93 0 0 1 .24 1.38 4 4 0 0 1-2.6 3.79 4.45 4.45 0 0 1-1.68.32 4.2 4.2 0 0 1-1.66-.33 4.09 4.09 0 0 1-1.33-.89 3.94 3.94 0 0 1-.89-1.33 4.12 4.12 0 0 1-.33-1.65 3.23 3.23 0 0 1 .07-.71 3.9 3.9 0 0 1 .21-.73 4.72 4.72 0 0 1 .4-.82l.63-1 2.5-3.74h3.64zm-1.05 5.1a1.17 1.17 0 0 0 .89-.37 1.25 1.25 0 0 0 .36-.92 1.23 1.23 0 0 0-.36-.91 1.2 1.2 0 0 0-.89-.36 1.18 1.18 0 0 0-.89.36 1.22 1.22 0 0 0-.35.91 1.24 1.24 0 0 0 .35.92 1.16 1.16 0 0 0 .89.37zm84.2-61.53h-2.67v-2.86h8.7v2.86h-2.87v8.13h-3.16zm14.7-2.85v2.6l-4 8.4h-3.37l4.1-8.2H958v-2.8zm30.22 53.1h-2.67v-2.85h8.7v2.85h-2.88v8.13h-3.16zm14 2.4a2.8 2.8 0 0 1 1.55 2.66 3.19 3.19 0 0 1-.29 1.36 2.82 2.82 0 0 1-.85 1 4 4 0 0 1-1.36.67 6.58 6.58 0 0 1-1.79.23 5 5 0 0 1-3.14-.88 2.88 2.88 0 0 1-1.14-2.41 3.14 3.14 0 0 1 .39-1.6 2.82 2.82 0 0 1 1.15-1.06 2.87 2.87 0 0 1-1-1 2.67 2.67 0 0 1-.34-1.36 2.83 2.83 0 0 1 .28-1.28 2.77 2.77 0 0 1 .83-1 4.08 4.08 0 0 1 1.29-.63 6.21 6.21 0 0 1 1.68-.22 6.35 6.35 0 0 1 1.69.22 4.08 4.08 0 0 1 1.29.63 2.79 2.79 0 0 1 1.1 2.26 2.77 2.77 0 0 1-.34 1.36 3 3 0 0 1-1 1.05zm-2.74 3.63a1.17 1.17 0 0 0 .85-.31 1 1 0 0 0 .34-.81 1.15 1.15 0 0 0-.33-.85 1.13 1.13 0 0 0-.85-.33 1.18 1.18 0 0 0-.87.34 1.17 1.17 0 0 0-.33.86 1 1 0 0 0 .33.8 1.23 1.23 0 0 0 .86.3zm0-6.77a1.12 1.12 0 0 0-.78.29.92.92 0 0 0-.31.72 1.08 1.08 0 1 0 2.15 0 .94.94 0 0 0-.29-.72 1.06 1.06 0 0 0-.76-.29zm-236.5 113.93h-2.66v-2.86h8.7v2.86h-2.87v8.13h-3.17zm9.96 4.83a3.56 3.56 0 0 1-2.28-1.26 3.66 3.66 0 0 1-.67-1.15 3.92 3.92 0 0 1-.23-1.38A4 4 0 0 1 778 455a4.12 4.12 0 0 1 2.26-2.18 4.45 4.45 0 0 1 1.68-.32 4.2 4.2 0 0 1 1.66.33 4 4 0 0 1 1.34.89 4.15 4.15 0 0 1 1.21 3 4.08 4.08 0 0 1-.06.71 6.38 6.38 0 0 1-.21.73 6.8 6.8 0 0 1-.4.82l-.63 1-2.5 3.74h-3.65zm1.08-5.1a1.19 1.19 0 0 0-.9.37 1.25 1.25 0 0 0-.36.92 1.23 1.23 0 0 0 1.26 1.27 1.2 1.2 0 0 0 .89-.36 1.26 1.26 0 0 0 .35-.91 1.28 1.28 0 0 0-.35-.92 1.17 1.17 0 0 0-.89-.37zm-264.6-118.54h-2.66v-2.86h8.7v2.86h-2.87v8.13h-3.17zm12.15-2.86v11h-3.1v-8l-1.8.56-.7-2.63 3.08-.95zm7.53 11.2a6.23 6.23 0 0 1-2.36-.43 5.42 5.42 0 0 1-1.86-1.18 5.22 5.22 0 0 1-1.22-1.8 6.37 6.37 0 0 1 0-4.6 5.13 5.13 0 0 1 1.22-1.8 5.74 5.74 0 0 1 1.86-1.18 6.87 6.87 0 0 1 4.73 0 5.74 5.74 0 0 1 1.86 1.18 5.26 5.26 0 0 1 1.22 1.8 6.37 6.37 0 0 1 0 4.6 5.36 5.36 0 0 1-1.22 1.8 5.42 5.42 0 0 1-1.86 1.18 6.29 6.29 0 0 1-2.37.43zm0-2.86a2.74 2.74 0 0 0 1.08-.21 2.49 2.49 0 0 0 .84-.6 2.72 2.72 0 0 0 .55-.9 3 3 0 0 0 .21-1.14 3 3 0 0 0-.21-1.13 2.73 2.73 0 0 0-.56-.91 2.55 2.55 0 0 0-.85-.59 2.64 2.64 0 0 0-1.06-.21 2.74 2.74 0 0 0-1.08.21 2.65 2.65 0 0 0-.85.59 2.9 2.9 0 0 0-.56.91 3.19 3.19 0 0 0-.2 1.13 3.25 3.25 0 0 0 .2 1.14 2.74 2.74 0 0 0 .56.9 2.53 2.53 0 0 0 .85.6 2.74 2.74 0 0 0 1.08.21zm-61.48-41.38h-2.66V298h8.7v2.86h-2.87V309h-3.17zm12.15-2.82v11h-3.1v-8l-1.8.56-.7-2.63 3.08-1zm6.73 0v11h-3.1v-8l-1.8.56-.7-2.63 3.08-1zM369.23 189.52h-2.66v-2.86h8.7v2.86h-2.88v8.13h-3.16zm12.14-2.86v11h-3.1v-8l-1.8.56-.7-2.63 3.1-1zm9.9 8.34v2.66h-8.2v-1.13a3.69 3.69 0 0 1 .8-2.34 8.71 8.71 0 0 1 2.2-2l1-.65a6.53 6.53 0 0 0 .59-.46 1.38 1.38 0 0 0 .3-.38 1.08 1.08 0 0 0 .08-.42 1 1 0 0 0-.25-.73.94.94 0 0 0-.67-.23c-.63 0-.94.42-.94 1.25h-3.1a4.14 4.14 0 0 1 1.11-3.06 4.21 4.21 0 0 1 3.09-1.1 4.16 4.16 0 0 1 2.87.93 3.3 3.3 0 0 1 1 2.61 3.61 3.61 0 0 1-.18 1.2 3.41 3.41 0 0 1-.55 1 5.24 5.24 0 0 1-.9.84l-1.24.86-.94.6a6.24 6.24 0 0 0-.71.53zm-75.43 20h-2.66v-2.86h8.7V215H319v8.13h-3.17zm12.17-2.82v11h-3.1v-8l-1.8.56-.7-2.63 3.08-.95zm8.22 5.37a2.94 2.94 0 0 1 1.24 1 2.74 2.74 0 0 1 .42 1.53 3 3 0 0 1-.3 1.34 2.93 2.93 0 0 1-.86 1 4 4 0 0 1-1.31.67 5.57 5.57 0 0 1-1.67.24 4.2 4.2 0 0 1-3-1 4.13 4.13 0 0 1-1.17-2.93h3a1.26 1.26 0 0 0 .31.87 1 1 0 0 0 .78.31 1.21 1.21 0 0 0 .82-.27 1 1 0 0 0 .31-.73.85.85 0 0 0-.3-.69 1.21 1.21 0 0 0-.83-.26h-1.06v-2.2h1c.73 0 1.1-.3 1.1-.9a.88.88 0 0 0-.28-.67 1.15 1.15 0 0 0-.77-.24 1.1 1.1 0 0 0-.79.29 1.12 1.12 0 0 0-.32.8h-2.9a4.36 4.36 0 0 1 .36-1.57 3.5 3.5 0 0 1 .85-1.19 4.06 4.06 0 0 1 1.3-.75 5.55 5.55 0 0 1 3.26 0 3.77 3.77 0 0 1 1.23.64 2.84 2.84 0 0 1 .78 1 2.9 2.9 0 0 1 .28 1.29 2.49 2.49 0 0 1-1.48 2.42zm-33.32 35.82h-2.66v-2.85h8.7v2.85h-2.87v8.13h-3.17zm12.1-2.85v11h-3.1v-8l-1.8.56-.7-2.63 3.08-.94zm10.8 9.3h-1.2v1.67h-3.1v-1.67h-4.88v-2.4l4.6-6.92h3.4v6.75h1.2zm-6.2-2.56h2.2v-3.46zM237.07 324h-2.66v-2.85h8.7V324h-2.87v8.13h-3.17zm12.13-2.83v11h-3.1v-8l-1.8.55-.7-2.63 3.1-.94zm6.88 3.68a3.67 3.67 0 0 1 1.42.27 3.27 3.27 0 0 1 1.12.76 3.68 3.68 0 0 1 .73 1.17 4.14 4.14 0 0 1 .26 1.48 4 4 0 0 1-.3 1.57 3.45 3.45 0 0 1-.87 1.22 3.73 3.73 0 0 1-1.35.77 5.33 5.33 0 0 1-1.76.27 4.22 4.22 0 0 1-2.94-1 3.74 3.74 0 0 1-1.17-2.76h3a1.11 1.11 0 0 0 .36.72 1.08 1.08 0 0 0 .75.27 1.07 1.07 0 0 0 .84-.35 1.37 1.37 0 0 0 0-1.78 1.15 1.15 0 0 0-.84-.35 1.17 1.17 0 0 0-.58.15 1.32 1.32 0 0 0-.44.41h-2.84v-6.5H259v2.66h-4.6v1.4a3.71 3.71 0 0 1 1.68-.37zm-76.34 60.9h-2.66v-2.86h8.7v2.86h-2.87v8.13h-3.17zm12.14-2.86v11h-3.1v-8l-1.8.56-.7-2.63 3.08-1zm9.5 0v2.6l-4 8.4H194l4.1-8.2h-4.6v-2.8zM176 436.48h-2.66v-2.86h8.7v2.86h-2.84v8.12H176zm12.18-2.86v11h-3.1v-8l-1.8.55-.7-2.62 3.08-.95zm8.76 5.24a2.79 2.79 0 0 1 1.55 2.66 3.19 3.19 0 0 1-.29 1.36 2.85 2.85 0 0 1-.85 1 4.21 4.21 0 0 1-1.36.66 6.2 6.2 0 0 1-1.79.24 5 5 0 0 1-3.14-.88 2.9 2.9 0 0 1-1.14-2.42 3 3 0 0 1 .4-1.59 2.88 2.88 0 0 1 1.14-1.07 2.71 2.71 0 0 1-1-1 2.91 2.91 0 0 1-.05-2.63 2.75 2.75 0 0 1 .82-1 3.88 3.88 0 0 1 1.29-.63 5.84 5.84 0 0 1 1.68-.22 6 6 0 0 1 1.69.22 3.79 3.79 0 0 1 1.29.63 2.82 2.82 0 0 1 .81 1 2.79 2.79 0 0 1 .29 1.27 2.67 2.67 0 0 1-.34 1.36 2.71 2.71 0 0 1-1 1.04zm-2.74 3.64a1.21 1.21 0 0 0 .86-.31 1.08 1.08 0 0 0 .33-.82 1.18 1.18 0 0 0-.32-.85 1.2 1.2 0 0 0-.85-.32 1.22 1.22 0 0 0-.88.33 1.18 1.18 0 0 0-.33.86 1 1 0 0 0 .33.81 1.25 1.25 0 0 0 .86.3zm0-6.77a1.12 1.12 0 0 0-.79.28 1 1 0 0 0-.31.73 1 1 0 0 0 .3.77 1.16 1.16 0 0 0 1.56 0 1 1 0 0 0 .3-.77 1 1 0 0 0-1.04-1.01zM57.85 393.26H55.2v-2.86h8.7v2.86H61v8.13h-3.15zM70 390.4v11h-3.1v-8l-1.8.56-.7-2.63 3.08-1zm4.7 7.7a3.61 3.61 0 0 1-1.26-.42 3.57 3.57 0 0 1-1-.84 3.48 3.48 0 0 1-.67-1.15 4.09 4.09 0 0 1 .09-3 4.33 4.33 0 0 1 .91-1.31 4.13 4.13 0 0 1 1.35-.87 4.54 4.54 0 0 1 1.69-.32 4.16 4.16 0 0 1 1.65.33 4 4 0 0 1 1.34.89 4.21 4.21 0 0 1 1.22 3 4 4 0 0 1-.07.71 3.9 3.9 0 0 1-.21.73 5.57 5.57 0 0 1-.4.82l-.63 1-2.5 3.74h-3.65zm1.08-5.1a1.19 1.19 0 0 0-.9.37 1.25 1.25 0 0 0-.36.92 1.23 1.23 0 0 0 1.26 1.27 1.18 1.18 0 0 0 .89-.36 1.26 1.26 0 0 0 .35-.91 1.28 1.28 0 0 0-.35-.92 1.16 1.16 0 0 0-.89-.37zm124.06-60.26h-2.66v-2.86h8.7v2.86H203v8.12h-3.17zm12.16-2.86v11h-3.1v-8l-1.8.55-.7-2.62 3.08-.95zm6.82 3.3a3.46 3.46 0 0 1 1.27.42 4 4 0 0 1 1 .83 3.78 3.78 0 0 1 .67 1.15A3.93 3.93 0 0 1 222 337a4 4 0 0 1-1.25 2.92 4.32 4.32 0 0 1-1.35.88 4.45 4.45 0 0 1-1.68.32 4.2 4.2 0 0 1-1.66-.33 4.42 4.42 0 0 1-1.34-.89 4.37 4.37 0 0 1-.89-1.33 4.29 4.29 0 0 1-.32-1.65 4.2 4.2 0 0 1 .06-.72 4.5 4.5 0 0 1 .22-.72 4.72 4.72 0 0 1 .4-.82c.16-.3.37-.62.62-1l2.5-3.74h3.7zm-1.08 5.1a1.19 1.19 0 0 0 .9-.37 1.27 1.27 0 0 0-.9-2.19 1.21 1.21 0 0 0-.88.35 1.36 1.36 0 0 0 0 1.84 1.15 1.15 0 0 0 .88.37z" class="J"/><path d="M929.34 368.8c-19.85 10.1-40.2 19.5-60.72 28.67-15.8 7.07-30.46 15-44.82 18.66a159.76 159.76 0 0 1-44.88 4.55 216.83 216.83 0 0 1-53-8.37C708.2 407 693.54 400 673.4 390l-9 18.3c20.25 10 36.22 17.7 55.75 23.54a235.85 235.85 0 0 0 58 9.2 179.6 179.6 0 0 0 50.73-5.17c17.77-4.54 33.32-13.2 48.1-19.8 20.65-9.24 41.33-18.76 61.65-29.1z" fill="#7c808e"/><path d="M785.2 441.53q-3.53 0-7.07-.14a234.26 234.26 0 0 1-58.12-9.22c-19.07-5.7-34.47-13-55.8-23.55l-.3-.14 9.34-18.88.28.14c20.34 10 35 17 52.5 22.25a216.57 216.57 0 0 0 52.9 8.36 158.52 158.52 0 0 0 44.79-4.54c10.7-2.73 21.5-7.8 32.94-13.18l11.83-5.46c16.86-7.54 39-17.6 60.7-28.67l.28-.14 9.52 18.77-.28.15c-22.1 11.25-44.57 21.47-61.67 29.1l-11 5.12c-11.65 5.54-23.7 11.26-37.16 14.7a178.56 178.56 0 0 1-43.7 5.32zM664.77 408.2c21.15 10.44 36.48 17.72 55.4 23.37a234 234 0 0 0 58 9.19 179.68 179.68 0 0 0 50.64-5.16c13.4-3.42 25.4-9.13 37-14.65l11-5.13c17-7.6 39.35-17.77 61.35-29l-9-17.63c-21.63 11-43.65 21-60.45 28.53l-11.8 5.46c-11.48 5.4-22.3 10.48-33.06 13.22a159.42 159.42 0 0 1-45 4.56 217 217 0 0 1-53.07-8.39c-17.48-5.22-32.1-12.16-52.3-22.15z" class="J"/><g class="J K"><path d="M409 121.6a3.05 3.05 0 0 1-2.13-.74 2.77 2.77 0 0 1-.86-2h1a1.86 1.86 0 0 0 1.95 1.83 2.12 2.12 0 0 0 1.36-.4 1.34 1.34 0 0 0 .51-1.11 1.29 1.29 0 0 0-.29-.87 2.84 2.84 0 0 0-1-.61l-1.26-.48a3.28 3.28 0 0 1-1.47-1 2.3 2.3 0 0 1-.46-1.46 2.13 2.13 0 0 1 .2-.91 2.1 2.1 0 0 1 .54-.71 2.56 2.56 0 0 1 .85-.45 3.41 3.41 0 0 1 1.09-.17 2.83 2.83 0 0 1 1.94.64 2.47 2.47 0 0 1 .79 1.77h-1a1.59 1.59 0 0 0-.48-1.11 1.77 1.77 0 0 0-1.22-.4 1.86 1.86 0 0 0-1.19.36 1.14 1.14 0 0 0-.46 1 1.37 1.37 0 0 0 .31.94 2.53 2.53 0 0 0 1 .65l1.28.5a3.38 3.38 0 0 1 1.44.92 2.13 2.13 0 0 1 .44 1.38 2.38 2.38 0 0 1-.21 1 2.07 2.07 0 0 1-.57.77 2.75 2.75 0 0 1-.91.49 4.09 4.09 0 0 1-1.19.18zm9.66-2.38h-4l-.84 2.23h-1.08l3.35-8.75h1.1l3.33 8.75h-1.07zm-3.62-.9h3.3l-1.65-4.5zm7.2-5.62h1v8.75h-1z"/><use xlink:href="#B"/><path d="M436.48 113.62h-2.6v-.92h6.27v.92h-2.67v7.83h-1zm5.38-.92h5.05v.92h-4v2.8h3.9v.93h-3.9v3.18h4.17v.93h-5.2zm10.6 0h2.66a5.86 5.86 0 0 1 2 .31 4.37 4.37 0 0 1 1.5.88 3.93 3.93 0 0 1 1 1.37 4.5 4.5 0 0 1 .35 1.79 4.55 4.55 0 0 1-.35 1.8 4.06 4.06 0 0 1-1 1.38 4.51 4.51 0 0 1-1.52.9 5.78 5.78 0 0 1-1.95.32h-2.66zm2.66 7.82a4.57 4.57 0 0 0 1.52-.24 3.62 3.62 0 0 0 1.19-.71 3.24 3.24 0 0 0 .76-1.1 3.82 3.82 0 0 0 .26-1.42 3.73 3.73 0 0 0-.26-1.41 3.07 3.07 0 0 0-.76-1.08 3.24 3.24 0 0 0-1.17-.69 4.4 4.4 0 0 0-1.54-.25h-1.65v6.9zm6.68-7.82h5.05v.92h-4v2.8h3.9v.93h-3.9v3.18H467v.93h-5.2zm13.63 0l-3.15 8.75h-1.1l-3.13-8.75h1.1l2.6 7.43 2.6-7.43zm5.37 8.9a4.61 4.61 0 0 1-1.79-.35 4.26 4.26 0 0 1-1.43-.95 4.43 4.43 0 0 1-1-1.44 4.86 4.86 0 0 1 0-3.57 4.42 4.42 0 0 1 .95-1.43 4.21 4.21 0 0 1 1.44-.95 4.75 4.75 0 0 1 3.58 0 4.36 4.36 0 0 1 1.43.95 4.42 4.42 0 0 1 1 1.43 4.63 4.63 0 0 1-1 5 4.36 4.36 0 0 1-1.43.95 4.61 4.61 0 0 1-1.75.36zm0-1a3.36 3.36 0 0 0 2.48-1 3.28 3.28 0 0 0 .73-1.13 4 4 0 0 0 .26-1.43 3.6 3.6 0 0 0-.27-1.4 3.47 3.47 0 0 0-.72-1.13 3.36 3.36 0 0 0-1.1-.75 3.66 3.66 0 0 0-2.76 0 3.36 3.36 0 0 0-1.1.75 3.47 3.47 0 0 0-.72 1.13 3.6 3.6 0 0 0-.27 1.4 4 4 0 0 0 .26 1.43 3.28 3.28 0 0 0 .73 1.13 3.36 3.36 0 0 0 2.48 1zm8-6.98h-2.6v-.92h6.27v.92h-2.66v7.83h-1z"/></g><g class="J K"><path d="M777.05 291.16a4.62 4.62 0 0 1-1.8-.35 4.26 4.26 0 0 1-2.38-2.38 4.62 4.62 0 0 1-.34-1.8 4.55 4.55 0 0 1 .34-1.78 4.42 4.42 0 0 1 1-1.43 4.3 4.3 0 0 1 1.44-.95 4.61 4.61 0 0 1 1.79-.35 4.82 4.82 0 0 1 1.54.24 3.88 3.88 0 0 1 1.26.66 3.89 3.89 0 0 1 1.45 2.38h-1.1a3 3 0 0 0-2.05-2.2 3.51 3.51 0 0 0-1.09-.17 3.31 3.31 0 0 0-1.38.28 3.4 3.4 0 0 0-1.11.75 3.6 3.6 0 0 0 1.11 5.84 3.47 3.47 0 0 0 1.38.27 3.25 3.25 0 0 0 2-.63 3 3 0 0 0 1.13-1.71h1.1a4 4 0 0 1-.52 1.35 3.72 3.72 0 0 1-.93 1 3.88 3.88 0 0 1-1.26.66 4.82 4.82 0 0 1-1.58.32zm10.85-2.36H784l-.84 2.23H782l3.35-8.75h1.1l3.33 8.75h-1.07zm-3.62-.9h3.3l-1.65-4.5zm9.4 3.26a3.05 3.05 0 0 1-2.13-.74 2.77 2.77 0 0 1-.86-2h1a1.86 1.86 0 0 0 1.95 1.83 2.12 2.12 0 0 0 1.36-.4 1.34 1.34 0 0 0 .51-1.11 1.29 1.29 0 0 0-.29-.87 2.84 2.84 0 0 0-1-.61l-1.26-.48a3.28 3.28 0 0 1-1.47-1 2.24 2.24 0 0 1-.46-1.46 2.13 2.13 0 0 1 .2-.91 2.1 2.1 0 0 1 .54-.71 2.56 2.56 0 0 1 .85-.45 3.41 3.41 0 0 1 1.09-.17 2.83 2.83 0 0 1 1.94.64 2.47 2.47 0 0 1 .79 1.77h-1a1.59 1.59 0 0 0-.48-1.11 1.77 1.77 0 0 0-1.22-.4 1.86 1.86 0 0 0-1.19.36 1.13 1.13 0 0 0-.46.95 1.37 1.37 0 0 0 .31.94 2.53 2.53 0 0 0 1 .65l1.28.5a3.29 3.29 0 0 1 1.44.92 2.13 2.13 0 0 1 .44 1.38 2.38 2.38 0 0 1-.21 1 2.07 2.07 0 0 1-.57.77 2.75 2.75 0 0 1-.91.49 4.09 4.09 0 0 1-1.19.23zm4.72-8.9h1V291h-1zm9.98 0V291h-1.1l-4.38-7.12V291h-1v-8.75h1.17l4.3 7v-7zm6.42 8.9a4.64 4.64 0 0 1-1.79-.35 4.36 4.36 0 0 1-1.43-.95 4.43 4.43 0 0 1-1-1.44 4.86 4.86 0 0 1 0-3.57 4.42 4.42 0 0 1 .95-1.43 4.21 4.21 0 0 1 1.44-.95 4.75 4.75 0 0 1 3.58 0 4.26 4.26 0 0 1 1.43.95 4.42 4.42 0 0 1 1 1.43 4.63 4.63 0 0 1-1 5 4.26 4.26 0 0 1-1.43.95 4.61 4.61 0 0 1-1.75.36zm0-1a3.47 3.47 0 0 0 1.38-.27 3.71 3.71 0 0 0 1.11-.76A3.35 3.35 0 0 0 818 288a3.66 3.66 0 0 0 .26-1.42 3.79 3.79 0 0 0-.26-1.4 3.49 3.49 0 0 0-.73-1.13 3.36 3.36 0 0 0-1.1-.75 3.47 3.47 0 0 0-1.38-.27 3.54 3.54 0 0 0-1.38.27 3.22 3.22 0 0 0-1.09.75 3.49 3.49 0 0 0-.73 1.13 3.6 3.6 0 0 0-.27 1.4 3.86 3.86 0 0 0 .26 1.42 3.38 3.38 0 0 0 .73 1.14 3.36 3.36 0 0 0 2.48 1zm-39.4 16.6a3 3 0 0 1-2.12-.74 2.81 2.81 0 0 1-.87-2h1a1.91 1.91 0 0 0 .59 1.32 1.88 1.88 0 0 0 1.36.51 2.15 2.15 0 0 0 1.37-.4 1.33 1.33 0 0 0 .5-1.11 1.24 1.24 0 0 0-.29-.87 2.75 2.75 0 0 0-1-.61l-1.26-.48a3.4 3.4 0 0 1-1.47-1 2.29 2.29 0 0 1-.45-1.46 2 2 0 0 1 .74-1.62 2.51 2.51 0 0 1 .84-.45 3.48 3.48 0 0 1 1.1-.17 2.81 2.81 0 0 1 1.93.64 2.48 2.48 0 0 1 .8 1.77h-1a1.6 1.6 0 0 0-.49-1.11 1.75 1.75 0 0 0-1.21-.4 1.87 1.87 0 0 0-1.2.36 1.16 1.16 0 0 0-.45.95 1.41 1.41 0 0 0 .3.94 2.53 2.53 0 0 0 1 .65l1.3.5a3.44 3.44 0 0 1 1.44.92 2.13 2.13 0 0 1 .43 1.38 2.54 2.54 0 0 1-.2 1 2.21 2.21 0 0 1-.58.77 2.56 2.56 0 0 1-.91.49 4 4 0 0 1-1.19.23zm13.6.7v.9l-6-1.74a4.79 4.79 0 0 1-1.39-.64 4.68 4.68 0 0 1-1-1 4.24 4.24 0 0 1-.67-1.26 4.55 4.55 0 0 1-.24-1.48 4.42 4.42 0 0 1 .36-1.78 4.33 4.33 0 0 1 1-1.44 4.51 4.51 0 0 1 1.44-1 4.75 4.75 0 0 1 3.58 0 4.78 4.78 0 0 1 1.44 1 4.35 4.35 0 0 1 1 1.42 4.54 4.54 0 0 1 .35 1.77 4.44 4.44 0 0 1-.24 1.47 4.18 4.18 0 0 1-1.73 2.18 4.36 4.36 0 0 1-1.34.58zm-8.33-5.24a3.86 3.86 0 0 0 .26 1.42 3.56 3.56 0 0 0 .74 1.14 3.48 3.48 0 0 0 1.11.76 3.54 3.54 0 0 0 1.38.27 3.4 3.4 0 0 0 2.49-1 3.77 3.77 0 0 0 .73-1.14 3.67 3.67 0 0 0 .27-1.42 3.6 3.6 0 0 0-.27-1.4 3.49 3.49 0 0 0-.73-1.13 3.43 3.43 0 0 0-1.11-.74 3.31 3.31 0 0 0-1.38-.28 3.37 3.37 0 0 0-1.38.28 3.43 3.43 0 0 0-1.11.74 3.52 3.52 0 0 0-.74 1.13 3.79 3.79 0 0 0-.3 1.37z"/><use xlink:href="#C"/><path d="M804 304.4h-4l-.84 2.23h-1.07l3.34-8.75h1.1l3.33 8.75h-1.07zm-3.62-.9h3.3L802 299zm7.2-5.63h2.7a2.87 2.87 0 0 1 2 .68 2.45 2.45 0 0 1 .73 1.86 2.62 2.62 0 0 1-.51 1.65 2.52 2.52 0 0 1-1.43.88l2.5 3.68h-1.2L810 303h-1.42v3.6h-1zm2.65 4.22a1.85 1.85 0 0 0 1.29-.43 1.86 1.86 0 0 0 0-2.44 1.81 1.81 0 0 0-1.3-.43h-1.65v3.3zm5.07-4.22h5v.92h-4v2.8h3.9v.93h-3.9v3.18h4.17v.93h-5.18z"/></g><path d="M955.58 269.88v8.75h-1v-7.16l-2.77 7.16h-.95l-2.77-7.16v7.16h-1v-8.75h1.44l2.82 7.37 2.8-7.37zm2.42 0h1v8.75h-1zm3.5 0h2.72a2.87 2.87 0 0 1 2 .68 2.43 2.43 0 0 1 .73 1.87 2.59 2.59 0 0 1-.51 1.64 2.5 2.5 0 0 1-1.42.88l2.48 3.68h-1.2l-2.36-3.63h-1.4v3.6h-1zm2.65 4.22a1.81 1.81 0 0 0 1.29-.43 1.6 1.6 0 0 0 .47-1.23 1.57 1.57 0 0 0-.46-1.21 1.83 1.83 0 0 0-1.3-.43h-1.65v3.3zm9.9 2.3h-4l-.83 2.22h-1.08l3.34-8.75h1.1l3.33 8.75h-1.06zm-3.62-.9h3.3l-1.65-4.5zm12-1.56a2.2 2.2 0 0 1 1 .85 2.59 2.59 0 0 1 .36 1.39A2.21 2.21 0 0 1 983 278a3.19 3.19 0 0 1-2.11.65h-3.28v-8.75h3.15a2.92 2.92 0 0 1 1.91.57 2 2 0 0 1 .69 1.59 2.06 2.06 0 0 1-.93 1.88zm-3.77-3.15v2.77h2.05a1.8 1.8 0 0 0 1.22-.37 1.31 1.31 0 0 0 .42-1c0-.9-.53-1.36-1.6-1.36zm2.18 6.93a2.08 2.08 0 0 0 1.42-.43 1.53 1.53 0 0 0 .49-1.22 1.43 1.43 0 0 0-.52-1.18 2.32 2.32 0 0 0-1.47-.42h-2.1v3.25zm4.84-7.84h5v.92h-4v2.8h3.9v.92h-3.9v3.2h4.17v.92h-5.18zm12.12 6.52h-3.95l-.83 2.22h-1.08l3.34-8.75h1.1l3.33 8.75h-1.06zm-3.6-.9h3.3l-1.65-4.5zm9.94 3.27a3.45 3.45 0 0 1-1.35-.25 2.86 2.86 0 0 1-1-.7 3.05 3.05 0 0 1-.66-1.12 4.43 4.43 0 0 1-.23-1.46v-5.36h1v5.4a2.77 2.77 0 0 0 .6 1.88 2.06 2.06 0 0 0 1.65.7 2.1 2.1 0 0 0 1.65-.68 2.79 2.79 0 0 0 .6-1.9v-5.4h1v5.36a4.43 4.43 0 0 1-.23 1.46 3.18 3.18 0 0 1-.65 1.12 2.82 2.82 0 0 1-1 .7 3.51 3.51 0 0 1-1.38.25z" class="J K"/><path d="M989.4 357.2h2.72a2.83 2.83 0 0 1 2 .69 2.4 2.4 0 0 1 .74 1.86 2.85 2.85 0 0 1-.2 1.08 2.27 2.27 0 0 1-1.42 1.35 3.36 3.36 0 0 1-1.14.19h-1.7v3.58h-1zm2.65 4.23a1.82 1.82 0 0 0 1.29-.44 1.6 1.6 0 0 0 .47-1.22 1.55 1.55 0 0 0-.46-1.21 1.79 1.79 0 0 0-1.3-.43h-1.65v3.3zm8.5 4.67a4.56 4.56 0 0 1-1.78-.35 4.35 4.35 0 0 1-2.4-2.39 4.88 4.88 0 0 1 0-3.58 4.53 4.53 0 0 1 .95-1.43 4.43 4.43 0 0 1 1.44-.94 4.75 4.75 0 0 1 3.58 0 4.39 4.39 0 0 1 1.43.94 4.53 4.53 0 0 1 1 1.43 4.88 4.88 0 0 1 0 3.58 4.57 4.57 0 0 1-1 1.44 4.42 4.42 0 0 1-1.43.95 4.61 4.61 0 0 1-1.79.35zm0-.95a3.31 3.31 0 0 0 1.38-.28 3.4 3.4 0 0 0 1.11-.75 3.35 3.35 0 0 0 .72-1.14 3.66 3.66 0 0 0 .26-1.42 3.6 3.6 0 0 0-.26-1.4 3.54 3.54 0 0 0-.75-1.15 3.1 3.1 0 0 0-1.1-.74 3.47 3.47 0 0 0-1.38-.27 3.54 3.54 0 0 0-1.38.27 3.06 3.06 0 0 0-1.09.74 3.54 3.54 0 0 0-.73 1.14 3.6 3.6 0 0 0-.27 1.4 3.86 3.86 0 0 0 .26 1.42 3.54 3.54 0 0 0 .73 1.14 3.46 3.46 0 0 0 2.48 1zm6.46-7.95h2.7a2.83 2.83 0 0 1 2 .69 2.4 2.4 0 0 1 .74 1.86 2.56 2.56 0 0 1-.52 1.65 2.45 2.45 0 0 1-1.42.87l2.48 3.68h-1.2l-2.38-3.58h-1.4v3.58h-1zm2.65 4.23a1.81 1.81 0 0 0 1.28-.44 1.56 1.56 0 0 0 .47-1.22 1.58 1.58 0 0 0-.45-1.21 1.82 1.82 0 0 0-1.3-.43H1008v3.3zm6.5-3.3h-2.6v-.93h6.26v.93h-2.66v7.82h-1zm5.38-.92h1v8.75h-1zm3.46 0h5v.93h-4v2.8h3.9v.93h-3.9V365h4.18v.92H1025zm7 0h2.72a2.83 2.83 0 0 1 2 .69 2.4 2.4 0 0 1 .74 1.86 2.62 2.62 0 0 1-.52 1.65 2.45 2.45 0 0 1-1.42.87l2.48 3.68h-1.2l-2.38-3.58h-1.4v3.58h-1zm2.65 4.23a1.82 1.82 0 0 0 1.35-.42 1.6 1.6 0 0 0 .47-1.22 1.55 1.55 0 0 0-.46-1.21 1.79 1.79 0 0 0-1.3-.43h-1.7v3.3z" class="J K"/><g class="J K"><path d="M753.3 403.1h-2.6v-.92h6.3v.92h-2.67v7.83h-1z"/><use xlink:href="#C" x="-31.84" y="104.31"/><use xlink:href="#B" x="341.78" y="289.48"/><use xlink:href="#B" x="350.68" y="289.48"/><path d="M785.37 402.18h5v.92h-4v2.8h3.9v.93h-3.9V410h4.18v.93h-5.2zm7.03 0h1V410h3.6v.93h-4.6z"/></g><path d="M360.83 211.27h-2.6v-.92h6.27v.92h-2.67v7.83h-1zm9.37 5.6h-3.95l-.84 2.23h-1.08l3.34-8.75h1.1l3.32 8.75H371zm-3.62-.9h3.3l-1.65-4.5zm11.98-1.57a2.28 2.28 0 0 1 1 .86 2.57 2.57 0 0 1 .36 1.39 2.22 2.22 0 0 1-.78 1.8 3.19 3.19 0 0 1-2.11.65h-3.27v-8.75h3.14a2.9 2.9 0 0 1 1.91.57 2 2 0 0 1 .69 1.59 2 2 0 0 1-.94 1.89zm-3.77-3.14V214h2a1.83 1.83 0 0 0 1.22-.37 1.31 1.31 0 0 0 .42-1c0-.9-.53-1.36-1.58-1.36zm2.18 6.93a2.13 2.13 0 0 0 1.42-.43 1.53 1.53 0 0 0 .49-1.22 1.42 1.42 0 0 0-.52-1.18 2.29 2.29 0 0 0-1.46-.42h-2.1v3.25zm9.93-1.32h-3.95l-.83 2.23H381l3.34-8.75h1.1l3.33 8.75h-1.07zm-3.6-.9h3.3l-1.65-4.5zm10.7 3.27a4.62 4.62 0 0 1-1.8-.34 4.42 4.42 0 0 1-1.43-1 4.53 4.53 0 0 1-.95-1.43 4.91 4.91 0 0 1 0-3.59 4.42 4.42 0 0 1 .95-1.43 4.35 4.35 0 0 1 1.44-.95 4.6 4.6 0 0 1 1.79-.34 4.72 4.72 0 0 1 1.53.23 4.37 4.37 0 0 1 1.27.66 4 4 0 0 1 1.45 2.38h-1.05a3.21 3.21 0 0 0-.43-1 2.83 2.83 0 0 0-.69-.73 3.13 3.13 0 0 0-.93-.47 3.57 3.57 0 0 0-1.1-.17 3.46 3.46 0 0 0-1.37.28 3.3 3.3 0 0 0-1.11.75 3.44 3.44 0 0 0-.73 1.13 3.82 3.82 0 0 0 0 2.82 3.34 3.34 0 0 0 .73 1.13 3.18 3.18 0 0 0 1.11.76 3.45 3.45 0 0 0 1.37.27 3.28 3.28 0 0 0 2-.63 3 3 0 0 0 1.15-1.57h1.1a3.8 3.8 0 0 1-.52 1.35 3.72 3.72 0 0 1-.93 1 4.16 4.16 0 0 1-1.27.67 5 5 0 0 1-1.57.22z" class="J K"/><path d="M284.94 268h2.7a2.87 2.87 0 0 1 2 .68 2.44 2.44 0 0 1 .74 1.87 2.85 2.85 0 0 1-.2 1.08 2.24 2.24 0 0 1-.55.82 2.44 2.44 0 0 1-.86.53 3.43 3.43 0 0 1-1.15.18H286v3.6h-1zm2.65 4.23a1.81 1.81 0 0 0 1.28-.44 1.57 1.57 0 0 0 .47-1.23 1.6 1.6 0 0 0-.45-1.21 1.87 1.87 0 0 0-1.3-.43h-1.65v3.3zm4.53-4.23h1v8.75h-1zm5.78 8.92a3 3 0 0 1-2.13-.73 2.77 2.77 0 0 1-.86-2h1a1.93 1.93 0 0 0 .58 1.33 1.9 1.9 0 0 0 1.37.51 2.12 2.12 0 0 0 1.36-.41 1.31 1.31 0 0 0 .51-1.1 1.27 1.27 0 0 0-.29-.87 2.7 2.7 0 0 0-1-.61l-1.26-.48a3.36 3.36 0 0 1-1.47-1 2.28 2.28 0 0 1-.46-1.46 2.09 2.09 0 0 1 .2-.91 2 2 0 0 1 .54-.71 2.57 2.57 0 0 1 .85-.46 3.42 3.42 0 0 1 1.09-.16 2.79 2.79 0 0 1 1.94.64 2.49 2.49 0 0 1 .79 1.76h-1a1.58 1.58 0 0 0-.48-1.1 1.73 1.73 0 0 0-1.22-.4 1.91 1.91 0 0 0-1.19.35 1.15 1.15 0 0 0-.46 1 1.4 1.4 0 0 0 .31.94 2.52 2.52 0 0 0 1 .64l1.28.5a3.29 3.29 0 0 1 1.44.92 2.13 2.13 0 0 1 .43 1.38 2.37 2.37 0 0 1-.2 1 2 2 0 0 1-.57.78 2.94 2.94 0 0 1-.91.49 4.1 4.1 0 0 1-1.19.16zm8.7 0a4.62 4.62 0 0 1-1.8-.34 4.53 4.53 0 0 1-1.43-.95 4.42 4.42 0 0 1-.95-1.43 4.91 4.91 0 0 1 0-3.59 4.53 4.53 0 0 1 .95-1.43 4.46 4.46 0 0 1 1.44-.95 4.6 4.6 0 0 1 1.79-.34 5.12 5.12 0 0 1 1.54.23 4.11 4.11 0 0 1 1.26.67 3.9 3.9 0 0 1 1.45 2.37h-1.1a3.21 3.21 0 0 0-.43-1 3 3 0 0 0-.69-.73 3.25 3.25 0 0 0-.93-.47 3.5 3.5 0 0 0-1.09-.16 3.47 3.47 0 0 0-1.38.27 3.28 3.28 0 0 0-1.11.76 3.49 3.49 0 0 0-.73 1.13 3.6 3.6 0 0 0-.27 1.4 3.7 3.7 0 0 0 .27 1.42 3.6 3.6 0 0 0 .73 1.13 3.4 3.4 0 0 0 1.11.75 3.47 3.47 0 0 0 1.38.28 3.2 3.2 0 0 0 2-.64 3.05 3.05 0 0 0 1.13-1.7h1.1a4 4 0 0 1-1.45 2.35 4.31 4.31 0 0 1-1.26.66 4.82 4.82 0 0 1-1.53.31zm6.15-8.92h1v8.75h-1zm9.98 0v8.75h-1.1l-4.38-7.1v7.1h-1V268h1.17l4.3 7v-7zm2.45 0h5.05v1h-4v2.8h3.9v.92h-3.9v3.2h4.17v.92h-5.2z" class="J K"/><path d="M181.75 411.44h1v7.82h3.63v.93h-4.64zm11.1 6.56h-3.95l-.84 2.23H187l3.34-8.75h1.1l3.33 8.75h-1.07zm-3.62-.9h3.3l-1.65-4.5zm10.77-5.66h2.7a2.85 2.85 0 0 1 2 .68 2.41 2.41 0 0 1 .73 1.86 2.62 2.62 0 0 1-.51 1.65 2.52 2.52 0 0 1-1.43.88l2.5 3.68h-1.2l-2.38-3.6H201v3.6h-1zm2.65 4.22a1.83 1.83 0 0 0 1.29-.43 1.86 1.86 0 0 0 0-2.44 1.81 1.81 0 0 0-1.3-.43H201v3.3zm9.9 2.34h-3.95l-.83 2.23h-1.08l3.34-8.75h1.1l3.33 8.75h-1.07zm-3.6-.9h3.3l-1.65-4.5zm9.36 3.23a3 3 0 0 1-2.12-.74 2.81 2.81 0 0 1-.87-2h1a1.91 1.91 0 0 0 .59 1.32 1.88 1.88 0 0 0 1.36.51 2.15 2.15 0 0 0 1.37-.4 1.36 1.36 0 0 0 .5-1.11 1.24 1.24 0 0 0-.29-.87 2.75 2.75 0 0 0-1-.61l-1.26-.48a3.4 3.4 0 0 1-1.47-1 2.29 2.29 0 0 1-.45-1.46 2 2 0 0 1 .74-1.62 2.51 2.51 0 0 1 .84-.45 3.48 3.48 0 0 1 1.1-.17 2.81 2.81 0 0 1 1.93.64 2.52 2.52 0 0 1 .8 1.77h-1a1.64 1.64 0 0 0-.49-1.11 1.75 1.75 0 0 0-1.21-.4 1.87 1.87 0 0 0-1.2.36 1.15 1.15 0 0 0-.45.95 1.41 1.41 0 0 0 .3.94 2.53 2.53 0 0 0 1 .65l1.3.5a3.25 3.25 0 0 1 1.43.92 2.08 2.08 0 0 1 .44 1.38 2.54 2.54 0 0 1-.2 1 2.21 2.21 0 0 1-.58.77 2.56 2.56 0 0 1-.91.49 4 4 0 0 1-1.19.23zm8.7 0a4.62 4.62 0 0 1-1.8-.35 4.39 4.39 0 0 1-1.43-.94 4.46 4.46 0 0 1-1-1.44 4.62 4.62 0 0 1-.35-1.8 4.56 4.56 0 0 1 .35-1.78 4.42 4.42 0 0 1 1-1.43 4.26 4.26 0 0 1 1.43-.95 4.69 4.69 0 0 1 1.8-.35 4.76 4.76 0 0 1 1.53.24 4 4 0 0 1 2.2 1.69 4.17 4.17 0 0 1 .52 1.35h-1.1a3.23 3.23 0 0 0-.43-1 2.9 2.9 0 0 0-.7-.74 2.94 2.94 0 0 0-.92-.46 3.57 3.57 0 0 0-1.1-.17 3.46 3.46 0 0 0-2.48 1 3.63 3.63 0 0 0-.74 1.13 4 4 0 0 0 0 2.82 3.63 3.63 0 0 0 .74 1.13 3.36 3.36 0 0 0 2.48 1 3.3 3.3 0 0 0 2-.63 3 3 0 0 0 1.13-1.71h1.1a4.17 4.17 0 0 1-.52 1.35 3.72 3.72 0 0 1-.93 1 3.93 3.93 0 0 1-1.27.66 4.76 4.76 0 0 1-1.51.38zm10.85-2.33h-3.95l-.83 2.23H232l3.34-8.75h1.1l3.33 8.75h-1.06zm-3.6-.9h3.3l-1.65-4.5zm9.37 3.23a3 3 0 0 1-2.12-.74 2.81 2.81 0 0 1-.87-2h1a1.91 1.91 0 0 0 .59 1.32 1.88 1.88 0 0 0 1.36.51A2.15 2.15 0 0 0 245 419a1.33 1.33 0 0 0 .5-1.11 1.24 1.24 0 0 0-.29-.87 2.75 2.75 0 0 0-1-.61l-1.26-.48a3.4 3.4 0 0 1-1.47-1 2.29 2.29 0 0 1-.45-1.46 2 2 0 0 1 .74-1.62 2.51 2.51 0 0 1 .84-.45 3.48 3.48 0 0 1 1.1-.17 2.81 2.81 0 0 1 1.93.64 2.48 2.48 0 0 1 .8 1.77h-1a1.6 1.6 0 0 0-.49-1.11 1.75 1.75 0 0 0-1.21-.4 1.87 1.87 0 0 0-1.2.36 1.15 1.15 0 0 0-.45.95 1.41 1.41 0 0 0 .3.94 2.53 2.53 0 0 0 1 .65l1.3.5a3.25 3.25 0 0 1 1.43.92 2.08 2.08 0 0 1 .44 1.38 2.54 2.54 0 0 1-.2 1 2.21 2.21 0 0 1-.58.77 2.56 2.56 0 0 1-.91.49 4 4 0 0 1-1.24.25zm7.05 0a3 3 0 0 1-2.12-.74 2.74 2.74 0 0 1-.87-2h1a1.86 1.86 0 0 0 1.95 1.83A2.1 2.1 0 0 0 252 419a1.34 1.34 0 0 0 .51-1.11 1.29 1.29 0 0 0-.29-.87 2.84 2.84 0 0 0-1-.61L250 416a3.28 3.28 0 0 1-1.47-1 2.3 2.3 0 0 1-.46-1.46 2.13 2.13 0 0 1 .2-.91 2 2 0 0 1 .55-.71 2.41 2.41 0 0 1 .84-.45 3.41 3.41 0 0 1 1.09-.17 2.83 2.83 0 0 1 1.94.64 2.47 2.47 0 0 1 .79 1.77h-1a1.64 1.64 0 0 0-.49-1.11 1.77 1.77 0 0 0-1.22-.4 1.86 1.86 0 0 0-1.19.36 1.13 1.13 0 0 0-.46.95 1.37 1.37 0 0 0 .31.94 2.53 2.53 0 0 0 1 .65l1.3.5a3.31 3.31 0 0 1 1.43.92 2.13 2.13 0 0 1 .44 1.38 2.54 2.54 0 0 1-.2 1 2.21 2.21 0 0 1-.58.77 2.65 2.65 0 0 1-.91.49 4.09 4.09 0 0 1-1.23.18zm4.73-8.9h5v.92h-4v2.8h3.9v.93h-3.9v3.18h4.17v.93h-5.17z" class="J K"/><g class="J K"><path d="M37.34 364.38h-4l-.83 2.23h-1.04l3.34-8.75h1.1l3.32 8.75h-1.06zm-3.62-.9H37l-1.64-4.5z"/><use xlink:href="#B" x="-384.8" y="245.16"/><path d="M51.7 358.78h-2.6v-.92h6.27v.92H52.7v7.83h-1zm5.37-.92h1v3.6h4.46v-3.6h1v8.75h-1v-4.23h-4.45v4.23h-1zm12.93 8.9a4.57 4.57 0 0 1-1.79-.35 4.29 4.29 0 0 1-2.42-2.4 4.73 4.73 0 0 1 0-3.57 4.34 4.34 0 0 1 2.38-2.38 4.66 4.66 0 0 1 1.8-.35 4.56 4.56 0 0 1 1.78.35 4.34 4.34 0 0 1 2.38 2.38 4.73 4.73 0 0 1 0 3.57 4.41 4.41 0 0 1-.95 1.44 4.26 4.26 0 0 1-1.43.95 4.56 4.56 0 0 1-1.75.36zm0-.95a3.4 3.4 0 0 0 2.48-1 3.54 3.54 0 0 0 .73-1.14 3.86 3.86 0 0 0 .26-1.42 3.6 3.6 0 0 0-.27-1.4 3.49 3.49 0 0 0-.73-1.13 3.26 3.26 0 0 0-1.1-.75 3.64 3.64 0 0 0-2.75 0 3.26 3.26 0 0 0-1.1.75 3.49 3.49 0 0 0-.73 1.13 3.6 3.6 0 0 0-.27 1.4 3.86 3.86 0 0 0 .26 1.42 3.54 3.54 0 0 0 .73 1.14 3.4 3.4 0 0 0 2.49 1z"/><use xlink:href="#B" x="-349.32" y="245.16"/><path d="M88.56 362.85v3.76h-1v-3.8l-2.92-5h1.17l2.27 4 2.26-4h1.16z"/><use xlink:href="#B" x="-393.47" y="260.76"/><path d="M45.16 382.35a4.64 4.64 0 0 1-1.79-.35 4.36 4.36 0 0 1-1.43-.95 4.43 4.43 0 0 1-1-1.44A4.86 4.86 0 0 1 41 376a4.42 4.42 0 0 1 1-1.43 4.21 4.21 0 0 1 1.44-.95 4.75 4.75 0 0 1 3.58 0 4.26 4.26 0 0 1 1.43.95 4.42 4.42 0 0 1 .95 1.43 4.63 4.63 0 0 1-.95 5 4.26 4.26 0 0 1-1.45 1 4.61 4.61 0 0 1-1.84.35zm0-1a3.47 3.47 0 0 0 1.38-.27 3.71 3.71 0 0 0 1.11-.76 3.35 3.35 0 0 0 .72-1.14 3.66 3.66 0 0 0 .26-1.42 3.79 3.79 0 0 0-.26-1.4 3.49 3.49 0 0 0-.73-1.13 3.36 3.36 0 0 0-1.1-.75 3.47 3.47 0 0 0-1.38-.27 3.54 3.54 0 0 0-1.38.27 3.22 3.22 0 0 0-1.09.75 3.49 3.49 0 0 0-.73 1.13 3.6 3.6 0 0 0-.27 1.4 3.86 3.86 0 0 0 .26 1.42 3.38 3.38 0 0 0 .73 1.14 3.36 3.36 0 0 0 2.48 1zm14.44-3.45v2.34a4.14 4.14 0 0 1-1.61 1.58 4.86 4.86 0 0 1-2.26.53 5.1 5.1 0 0 1-1.9-.35 4.66 4.66 0 0 1-1.49-.94 4.43 4.43 0 0 1-1-1.44 4.72 4.72 0 0 1-.35-1.82 4.62 4.62 0 0 1 .35-1.8 4.29 4.29 0 0 1 2.4-2.35 4.86 4.86 0 0 1 1.81-.34 5 5 0 0 1 1.37.19 3.86 3.86 0 0 1 2 1.41 4 4 0 0 1 .55 1.15H58.4a2.87 2.87 0 0 0-1.11-1.33 3.19 3.19 0 0 0-1.74-.47 3.54 3.54 0 0 0-2.5 1 3.56 3.56 0 0 0-.73 1.12 3.85 3.85 0 0 0-.25 1.42 3.76 3.76 0 0 0 .26 1.44 3.58 3.58 0 0 0 .75 1.15 3.25 3.25 0 0 0 1.16.74 4.11 4.11 0 0 0 3.08-.06 3 3 0 0 0 1.27-1.07v-1.2h-2.94v-.93zm2.2-4.44h1v3.6h4.46v-3.6h1v8.75h-1V378h-4.44v4.23h-1zm8.95 0h5v.92h-4v2.8h3.9v.93h-3.9v3.18h4.17v.93h-5.17zm9.35 8.9a3 3 0 0 1-2.12-.74 2.77 2.77 0 0 1-.87-2h1a1.86 1.86 0 0 0 2 1.83 2.15 2.15 0 0 0 1.37-.4 1.36 1.36 0 0 0 .5-1.11 1.29 1.29 0 0 0-.29-.87 2.84 2.84 0 0 0-1-.61l-1.3-.45a3.34 3.34 0 0 1-1.47-1 2.29 2.29 0 0 1-.45-1.46 2.12 2.12 0 0 1 .19-.91 2 2 0 0 1 .55-.71 2.41 2.41 0 0 1 .84-.45 3.46 3.46 0 0 1 1.09-.17 2.82 2.82 0 0 1 1.94.64 2.47 2.47 0 0 1 .79 1.77h-1a1.64 1.64 0 0 0-.49-1.11 1.77 1.77 0 0 0-1.22-.4 1.86 1.86 0 0 0-1.19.36 1.16 1.16 0 0 0-.46.95 1.42 1.42 0 0 0 .31.94 2.53 2.53 0 0 0 1 .65l1.3.5a3.31 3.31 0 0 1 1.43.92 2.13 2.13 0 0 1 .46 1.39 2.54 2.54 0 0 1-.2 1 2.21 2.21 0 0 1-.58.77 2.65 2.65 0 0 1-.91.49 4.09 4.09 0 0 1-1.22.19z"/></g><g class="J"><path d="M255.08 159.17l-7.3-.35-2.72 2.47 7.3.35-.35 7.32 2.72-2.46.35-7.33z" opacity=".8"/><path d="M259.6 154.98l-7.3-.35-2.72 2.46 7.3.36-.35 7.32 2.7-2.47.36-7.32z" opacity=".9"/><path d="M264.26 150.8l-7.3-.35-2.72 2.47 7.3.35-.35 7.32 2.72-2.47.35-7.32z"/><path d="M243.5 162.72l-2.72 2.47 7.3.35-.35 7.32 2.72-2.47.35-7.32-7.3-.35z" opacity=".7"/><path d="M239.2 166.6l-2.72 2.48 7.3.35-.35 7.32 2.72-2.47.35-7.32-7.3-.36z" opacity=".6"/></g><path d="M238.35 192l-2.45-2.72 2.7-2.46 2.46 2.72z" class="L"/><path d="M241.07 189.54l-2.46-2.72 2.72-2.45 2.45 2.7z" class="J"/><path d="M243.78 187.08l-2.45-2.7 2.7-2.46 2.46 2.72z" class="L"/><path d="M235.92 189.3l-2.46-2.72 2.72-2.46 2.45 2.72zm5.43-4.9l-2.46-2.7 2.72-2.46 2.45 2.7z" class="J"/><path d="M238.66 186.87l-2.46-2.7 2.72-2.46 2.45 2.72zm-5.16-.27l-2.5-2.7 2.7-2.45 2.46 2.7z" class="L"/><path d="M236.2 184.16l-2.46-2.7 2.72-2.46 2.46 2.7z" class="J"/><path d="M238.92 181.7l-2.46-2.7 2.7-2.46 2.46 2.7z" class="L"/><path d="M231.05 183.92l-2.45-2.7 2.7-2.46 2.46 2.72zm5.43-4.92l-2.48-2.7 2.72-2.46 2.45 2.7z" class="J"/><path d="M233.8 181.5l-2.46-2.7 2.7-2.46 2.46 2.68zm-5.24-.13l-2.45-2.72 2.7-2.45 2.46 2.7z" class="L"/><path d="M231.28 178.9l-2.46-2.7 2.72-2.46 2.45 2.72z" class="J"/><path d="M234 176.46l-2.45-2.72 2.7-2.46 2.46 2.72z" class="L"/><path d="M122.33 416.52c-.22-.5-5.43-12.1-4.6-18.46.55-4.2 3.44-7.8 5.56-10.13a12.48 12.48 0 0 1 3.41-2.49 22.1 22.1 0 0 0 2.9-1.86 20.51 20.51 0 0 1 3.86-2.12 19.82 19.82 0 0 0 7-4.63c1.32-1.47 1.4-3.12 1.43-6.4a45.3 45.3 0 0 1 2.79-16.4c4.93-13.8 12.16-26 18.56-36.4 5.6-9.08 8.23-12.37 15.28-21.14l2.38-3c4.74-5.9 13.2-12.84 21.4-19.53 7.2-5.9 14.66-12 19.36-17.22 4-4.48 7.77-8.26 11.1-11.6 5.16-5.18 9.6-9.65 13.4-15.05 2.7-3.84 5.47-7.12 8.14-10.28 3.54-4.2 6.88-8.16 9.1-12.43l.18-.27a68.48 68.48 0 0 0 8.44-12.71 56.49 56.49 0 0 1 3.36-5.67c.88-1.25 1.58-2.36 2.25-3.44a37.8 37.8 0 0 1 8.11-9.71c5.5-4.9 18.44-15 29.73-21.3 7.7-4.3 17.13-7.85 25.45-11l8.82-3.4a78.26 78.26 0 0 1 16.61-5.1l2.08-.44c12.65-2.26 21 .85 21.3 1l.23.1c5.9 3.6 28.7 21.27 29.67 22l-1.78 2.3c-.23-.18-23.32-18.07-29.27-21.75-1-.35-8.6-2.78-19.6-.8l-2.05.43a75.91 75.91 0 0 0-16.1 5c-2.63 1.07-5.67 2.22-8.9 3.44-8.22 3.1-17.54 6.6-25.06 10.8-11.08 6.18-23.8 16.12-29.2 20.93a34.81 34.81 0 0 0-7.58 9.08c-.7 1.1-1.4 2.25-2.34 3.57a55.87 55.87 0 0 0-3.18 5.38 70.7 70.7 0 0 1-8.7 13.12c-2.36 4.5-5.77 8.54-9.37 12.82-2.63 3.12-5.35 6.34-8 10.08-3.95 5.6-8.48 10.15-13.73 15.43-3.3 3.3-7 7.06-11 11.48-4.85 5.4-12.4 11.57-19.68 17.53-8.07 6.6-16.42 13.42-21 19.1l-2.38 3c-7 8.67-9.57 11.9-15.07 20.84-6.32 10.25-13.46 22.32-18.3 35.84a42.75 42.75 0 0 0-2.63 15.46c0 3.34-.06 6-2.18 8.32a22.48 22.48 0 0 1-7.91 5.33 18.2 18.2 0 0 0-3.31 1.78 24 24 0 0 1-3.25 2.09 9.65 9.65 0 0 0-2.68 1.92c-1.87 2-4.4 5.14-4.83 8.54-.73 5.55 4.32 16.78 4.37 16.9z" class="J"/><defs ><path id="B" d="M432.22 112.7v8.75h-1.1l-4.38-7.12v7.12h-1v-8.75h1.17l4.3 7v-7z"/><path id="C" d="M793.67 306.76a3.42 3.42 0 0 1-1.35-.25 2.76 2.76 0 0 1-1-.71 3 3 0 0 1-.66-1.11 4.45 4.45 0 0 1-.23-1.47v-5.35h1v5.4a2.77 2.77 0 0 0 .6 1.88 2.09 2.09 0 0 0 1.65.7 2.07 2.07 0 0 0 1.65-.69 2.75 2.75 0 0 0 .6-1.89v-5.4h1v5.35a4.45 4.45 0 0 1-.23 1.47 3.13 3.13 0 0 1-.65 1.11 2.72 2.72 0 0 1-1 .71 3.51 3.51 0 0 1-1.38.25z"/></defs></svg>