<svg xmlns="http://www.w3.org/2000/svg" viewBox="0 0 1062.67 537.87"><defs><style>.cls-1,.cls-2{fill:#fff;}.cls-2{font-size:16.32px;font-family:Bull-Heavy1, Bull;font-weight:800;}.cls-3{opacity:0.5;}.cls-4{fill:#010101;}.cls-5{opacity:0.8;}.cls-6{opacity:0.9;}.cls-7{opacity:0.7;}.cls-8{opacity:0.6;}</style></defs><g id="_03" data-name="03"><path class="cls-1" d="M89.33,464.87H86.67V462h8.7v2.86H92.5V473H89.33Z"/><path class="cls-1" d="M101.48,462v11h-3.1v-8l-1.8.56-.7-2.63L99,462Z"/><path class="cls-1" d="M45.35,329H42.69v-2.86h8.7V329H48.52v8.13H45.35Z"/><path class="cls-1" d="M60.48,334.42v2.66H52.29V336a3.75,3.75,0,0,1,.8-2.34,8.89,8.89,0,0,1,2.2-1.95q.62-.39,1-.66a4.63,4.63,0,0,0,.6-.45,1.16,1.16,0,0,0,.29-.38.93.93,0,0,0,.08-.42A1,1,0,0,0,57,329a.93.93,0,0,0-.67-.24c-.63,0-1,.42-1,1.26H52.31A4.12,4.12,0,0,1,53.42,327a4.2,4.2,0,0,1,3.08-1.1,4.15,4.15,0,0,1,2.87.93,3.3,3.3,0,0,1,1.05,2.61,3.36,3.36,0,0,1-.19,1.2,3.31,3.31,0,0,1-.55,1,5.16,5.16,0,0,1-.89.84c-.36.26-.78.55-1.24.85s-.66.44-.94.61a4.86,4.86,0,0,0-.71.54Z"/><path class="cls-1" d="M152.8,339h-2.66v-2.86h8.7V339H156v8.13H152.8Z"/><path class="cls-1" d="M167.81,345.41h-1.2v1.67H163.5v-1.67h-4.88V343l4.59-6.92h3.4v6.76h1.2Zm-6.18-2.56h2.18v-3.46Z"/><path class="cls-1" d="M618.54,327.05h-2.66v-2.86h8.7v2.86h-2.87v8.12h-3.17Z"/><path class="cls-1" d="M630.65,327.88a3.67,3.67,0,0,1,1.42.27,3.13,3.13,0,0,1,1.12.76,3.52,3.52,0,0,1,.73,1.16,4.22,4.22,0,0,1,.26,1.48,4,4,0,0,1-.3,1.58,3.64,3.64,0,0,1-.87,1.21,3.83,3.83,0,0,1-1.35.78,5.37,5.37,0,0,1-1.76.27,4.22,4.22,0,0,1-2.94-1,3.77,3.77,0,0,1-1.17-2.77h3a1.19,1.19,0,0,0,.37.73,1.07,1.07,0,0,0,.74.27,1.12,1.12,0,0,0,.85-.35,1.29,1.29,0,0,0,.33-.91,1.18,1.18,0,0,0-.34-.87,1.08,1.08,0,0,0-.84-.35,1.26,1.26,0,0,0-.57.14,1.43,1.43,0,0,0-.44.41H626v-6.51h7.56v2.66H629v1.4A3.7,3.7,0,0,1,630.65,327.88Z"/><path class="cls-1" d="M450.71,243.31h-2.66v-2.86h8.7v2.86h-2.87v8.13h-3.17Z"/><path class="cls-1" d="M462.06,243.75a3.72,3.72,0,0,1,2.94,2.41,3.93,3.93,0,0,1,.24,1.38,3.81,3.81,0,0,1-.34,1.61,4.14,4.14,0,0,1-.9,1.31,4.07,4.07,0,0,1-1.36.87,4.45,4.45,0,0,1-1.68.32,4.16,4.16,0,0,1-1.65-.33,4,4,0,0,1-1.34-.89,4.21,4.21,0,0,1-1.22-3,3.23,3.23,0,0,1,.07-.71A3.9,3.9,0,0,1,457,246a5.57,5.57,0,0,1,.4-.82c.17-.28.38-.62.63-1l2.49-3.74h3.64ZM461,248.84a1.19,1.19,0,0,0,.9-.37,1.25,1.25,0,0,0,.36-.92,1.23,1.23,0,0,0-1.26-1.27,1.18,1.18,0,0,0-.89.36,1.26,1.26,0,0,0-.35.91,1.28,1.28,0,0,0,.35.92A1.16,1.16,0,0,0,461,248.84Z"/><path class="cls-1" d="M280.52,296h-2.66V293.1h8.7V296h-2.87v8.12h-3.17Z"/><path class="cls-1" d="M295.25,293.1v2.59l-4,8.39h-3.37l4.09-8.19h-4.6V293.1Z"/><path class="cls-1" d="M192.36,168.15H189.7v-2.86h8.69v2.86h-2.87v8.12h-3.16Z"/><path class="cls-1" d="M206.36,170.53a2.8,2.8,0,0,1,1.55,2.66,3.19,3.19,0,0,1-.29,1.36,2.94,2.94,0,0,1-.85,1,4.21,4.21,0,0,1-1.36.66,6.2,6.2,0,0,1-1.79.24,5,5,0,0,1-3.14-.89,2.87,2.87,0,0,1-1.14-2.41,3.07,3.07,0,0,1,.39-1.59,2.91,2.91,0,0,1,1.15-1.07,2.71,2.71,0,0,1-1-1,2.67,2.67,0,0,1-.34-1.36,2.79,2.79,0,0,1,.28-1.27,2.69,2.69,0,0,1,.83-1,3.7,3.7,0,0,1,1.29-.63,5.84,5.84,0,0,1,1.68-.22,6,6,0,0,1,1.69.22,3.7,3.7,0,0,1,1.29.63,2.73,2.73,0,0,1,.81,1,2.79,2.79,0,0,1,.29,1.27,2.66,2.66,0,0,1-1.34,2.35Zm-2.74,3.64a1.22,1.22,0,0,0,.85-.31,1.05,1.05,0,0,0,.34-.82,1.15,1.15,0,0,0-.33-.85,1.2,1.2,0,0,0-2,.87,1,1,0,0,0,.33.81A1.23,1.23,0,0,0,203.62,174.17Zm0-6.78a1.12,1.12,0,0,0-.78.29.93.93,0,0,0-.31.73,1.08,1.08,0,1,0,2.15,0,1,1,0,0,0-.29-.73A1,1,0,0,0,203.63,167.39Z"/><path class="cls-1" d="M508.08,222.52h-2.66v-2.86h8.7v2.86h-2.88v8.13h-3.16Z"/><path class="cls-1" d="M518,227.35a3.62,3.62,0,0,1-1.26-.43,3.38,3.38,0,0,1-1-.83,3.48,3.48,0,0,1-.67-1.15,4.09,4.09,0,0,1,.09-3,4.33,4.33,0,0,1,.91-1.31,4.07,4.07,0,0,1,1.36-.87,4.45,4.45,0,0,1,1.68-.32,4.16,4.16,0,0,1,1.65.33,3.88,3.88,0,0,1,1.34.89A4,4,0,0,1,523,222a4.11,4.11,0,0,1,.33,1.64,3.38,3.38,0,0,1-.07.72,3.9,3.9,0,0,1-.21.73,6.1,6.1,0,0,1-.4.82c-.17.3-.38.63-.63,1l-2.5,3.74h-3.64Zm1.08-5.09a1.22,1.22,0,0,0-.9.36,1.29,1.29,0,0,0-.36.93,1.23,1.23,0,0,0,1.26,1.27,1.18,1.18,0,0,0,.89-.36,1.26,1.26,0,0,0,.35-.91,1.33,1.33,0,0,0-.35-.93A1.18,1.18,0,0,0,519.11,222.26Z"/><text class="cls-2" transform="translate(559.94 84.98)">T10</text><path class="cls-1" d="M692.15,83.38h-2.66V80.53h8.7v2.85h-2.88v8.13h-3.16Z"/><path class="cls-1" d="M704.29,80.53v11h-3.1v-8l-1.8.55-.7-2.63,3.09-.94Z"/><path class="cls-1" d="M711,80.53v11h-3.1v-8l-1.8.55-.7-2.63,3.09-.94Z"/><path class="cls-1" d="M657.87,259.83H655.2V257h8.7v2.86H661V268h-3.16Z"/><path class="cls-1" d="M670,257v11h-3.1v-8l-1.8.56-.7-2.63,3.08-.95Z"/><path class="cls-1" d="M679.9,265.3V268h-8.19v-1.13a3.74,3.74,0,0,1,.79-2.34,9,9,0,0,1,2.21-1.95l1-.65a6.53,6.53,0,0,0,.59-.46,1.16,1.16,0,0,0,.29-.38.93.93,0,0,0,.09-.42,1,1,0,0,0-.25-.73.94.94,0,0,0-.67-.23c-.63,0-.94.41-.94,1.25h-3.09a4.14,4.14,0,0,1,1.11-3.06,4.89,4.89,0,0,1,6-.17,3.33,3.33,0,0,1,1,2.61,3.61,3.61,0,0,1-.18,1.2,3.56,3.56,0,0,1-.55,1,5.24,5.24,0,0,1-.9.84c-.36.26-.77.55-1.24.85l-.94.62a5.46,5.46,0,0,0-.71.53Z"/><path class="cls-1" d="M860.81,318.93h-2.66v-2.85h8.7v2.85H864v8.13h-3.16Z"/><path class="cls-1" d="M873,316.08v11h-3.1v-8l-1.8.55-.7-2.63,3.09-.94Z"/><path class="cls-1" d="M881.19,321.45a2.82,2.82,0,0,1,1.24,1,2.74,2.74,0,0,1,.43,1.52,3,3,0,0,1-.31,1.34,2.94,2.94,0,0,1-.85,1,4.1,4.1,0,0,1-1.32.67,5.48,5.48,0,0,1-1.67.23,4.19,4.19,0,0,1-3-1,4,4,0,0,1-1.17-2.92h3a1.28,1.28,0,0,0,.31.86,1,1,0,0,0,.79.31,1.18,1.18,0,0,0,.81-.27.9.9,0,0,0,.31-.73.88.88,0,0,0-.29-.69,1.23,1.23,0,0,0-.83-.25h-1.06v-2.21h1c.73,0,1.09-.29,1.09-.89a.82.82,0,0,0-.28-.67,1.07,1.07,0,0,0-.76-.25,1,1,0,0,0-1.11,1.1h-2.91a4.36,4.36,0,0,1,.36-1.57,3.34,3.34,0,0,1,.86-1.19,3.59,3.59,0,0,1,1.29-.75,5,5,0,0,1,1.69-.26,5.29,5.29,0,0,1,1.58.22,3.64,3.64,0,0,1,1.22.65,3,3,0,0,1,.79,1,3,3,0,0,1,.27,1.29A2.49,2.49,0,0,1,881.19,321.45Z"/><path class="cls-1" d="M962.93,397.55h-2.66V394.7H969v2.85h-2.88v8.13h-3.16Z"/><path class="cls-1" d="M975.07,394.7v11H972v-8l-1.8.55-.7-2.63,3.09-.94Z"/><path class="cls-1" d="M981.94,398.39a3.67,3.67,0,0,1,1.42.27,3.11,3.11,0,0,1,1.12.75,3.68,3.68,0,0,1,.73,1.17,4.18,4.18,0,0,1,.26,1.48,4,4,0,0,1-.3,1.57,3.45,3.45,0,0,1-.87,1.22,3.75,3.75,0,0,1-1.35.78,5.66,5.66,0,0,1-1.76.26,4.26,4.26,0,0,1-2.94-1,3.77,3.77,0,0,1-1.17-2.77h3a1.16,1.16,0,0,0,.36.73,1.17,1.17,0,0,0,1.59-.09,1.25,1.25,0,0,0,.33-.9A1.21,1.21,0,0,0,982,401a1.13,1.13,0,0,0-.85-.36,1.16,1.16,0,0,0-.57.15,1.43,1.43,0,0,0-.44.41h-2.84V394.7h7.56v2.66h-4.62v1.4A3.7,3.7,0,0,1,981.94,398.39Z"/><path class="cls-1" d="M772.21,125.8h-2.66V123h8.7v2.85h-2.87v8.13h-3.17Z"/><path class="cls-1" d="M784.35,123v11h-3.1v-8l-1.79.55-.7-2.63,3.08-.94Z"/><path class="cls-1" d="M795.11,132.27H793.9v1.66h-3.1v-1.66h-4.88v-2.4l4.59-6.92h3.39v6.76h1.21Zm-6.19-2.56h2.19v-3.46Z"/><path class="cls-1" d="M131.21,196.82h-2.66V194h8.7v2.86h-2.87V205h-3.17Z"/><path class="cls-1" d="M144.69,199.33a2.82,2.82,0,0,1,1.24,1,2.67,2.67,0,0,1,.43,1.53,3,3,0,0,1-.3,1.34,3,3,0,0,1-.86,1,3.91,3.91,0,0,1-1.32.67,5.48,5.48,0,0,1-1.67.24,4.19,4.19,0,0,1-3-1,4,4,0,0,1-1.17-2.93H141a1.26,1.26,0,0,0,.31.86,1,1,0,0,0,.79.31,1.23,1.23,0,0,0,.81-.26.92.92,0,0,0,.31-.73.84.84,0,0,0-.29-.69,1.23,1.23,0,0,0-.83-.26H141v-2.2h1c.73,0,1.09-.3,1.09-.9a.85.85,0,0,0-.28-.67,1.12,1.12,0,0,0-.76-.24,1.1,1.1,0,0,0-.79.29,1.08,1.08,0,0,0-.32.8h-2.91a4.58,4.58,0,0,1,.36-1.57,3.53,3.53,0,0,1,.86-1.19,4,4,0,0,1,1.3-.75,5.2,5.2,0,0,1,1.68-.26,5.29,5.29,0,0,1,1.58.23,3.62,3.62,0,0,1,1.22.64,3,3,0,0,1,.79,1,3,3,0,0,1,.28,1.29A2.49,2.49,0,0,1,144.69,199.33Z"/><g class="cls-3"><path class="cls-1" d="M121.08,384a4.25,4.25,0,0,1-3-1,3.91,3.91,0,0,1-1.23-2.83h1.46a2.65,2.65,0,0,0,2.76,2.6,3,3,0,0,0,1.94-.57,1.88,1.88,0,0,0,.72-1.56,1.77,1.77,0,0,0-.42-1.24,3.74,3.74,0,0,0-1.43-.87l-1.78-.68a4.75,4.75,0,0,1-2.09-1.37,3.27,3.27,0,0,1-.64-2.08,3.11,3.11,0,0,1,.27-1.29,3,3,0,0,1,.78-1,3.44,3.44,0,0,1,1.2-.64,4.71,4.71,0,0,1,1.55-.24,4,4,0,0,1,2.74.91,3.54,3.54,0,0,1,1.13,2.51h-1.46a2.27,2.27,0,0,0-.69-1.57,2.45,2.45,0,0,0-1.72-.57,2.73,2.73,0,0,0-1.7.5,1.65,1.65,0,0,0-.65,1.36,2,2,0,0,0,.44,1.33,3.69,3.69,0,0,0,1.44.92l1.83.7a4.67,4.67,0,0,1,2,1.3,3,3,0,0,1,.61,2,3.52,3.52,0,0,1-.28,1.44,3,3,0,0,1-.82,1.09,3.65,3.65,0,0,1-1.29.7A5.63,5.63,0,0,1,121.08,384Z"/><path class="cls-1" d="M127.79,371.42h7.15v1.31h-5.71v4h5.53V378h-5.53v4.51h5.92v1.31h-7.36Z"/><path class="cls-1" d="M143.37,384a6.67,6.67,0,0,1-2.56-.49,6.28,6.28,0,0,1-2-1.35,6.17,6.17,0,0,1-1.35-2,6.83,6.83,0,0,1,0-5.08,6.17,6.17,0,0,1,1.35-2,6.33,6.33,0,0,1,2-1.35,6.73,6.73,0,0,1,2.55-.49,7,7,0,0,1,2.17.34,5.71,5.71,0,0,1,1.8.94,5.45,5.45,0,0,1,2,3.37h-1.55a4.4,4.4,0,0,0-.6-1.36,4.12,4.12,0,0,0-1-1.05,4.48,4.48,0,0,0-1.31-.66,5.2,5.2,0,0,0-1.56-.23,4.88,4.88,0,0,0-3.52,1.46,5,5,0,0,0-1,1.6,5.45,5.45,0,0,0,0,4,5,5,0,0,0,1,1.6,4.88,4.88,0,0,0,3.52,1.46,4.68,4.68,0,0,0,2.86-.89,4.31,4.31,0,0,0,1.6-2.43h1.55a5.71,5.71,0,0,1-.73,1.92,5.48,5.48,0,0,1-1.32,1.47,5.71,5.71,0,0,1-1.8.94A7,7,0,0,1,143.37,384Z"/><path class="cls-1" d="M154.31,372.73h-3.66v-1.31h8.88v1.31h-3.78v11.09h-1.44Z"/><path class="cls-1" d="M167,384a6.64,6.64,0,0,1-2.54-.49,6.19,6.19,0,0,1-2-1.36,6.3,6.3,0,0,1-1.36-2,6.8,6.8,0,0,1,0-5.07,6.18,6.18,0,0,1,3.38-3.38,6.73,6.73,0,0,1,2.55-.49,6.59,6.59,0,0,1,2.53.49,6.33,6.33,0,0,1,2,1.35,6.14,6.14,0,0,1,1.34,2,6.8,6.8,0,0,1,0,5.07,6.18,6.18,0,0,1-3.37,3.39A6.59,6.59,0,0,1,167,384Zm0-1.35a4.85,4.85,0,0,0,2-.39,4.76,4.76,0,0,0,1.57-1.07,4.88,4.88,0,0,0,1-1.61,5.34,5.34,0,0,0,.37-2,5.26,5.26,0,0,0-.38-2,5.12,5.12,0,0,0-1-1.6,4.55,4.55,0,0,0-1.56-1.06,5.22,5.22,0,0,0-3.91,0,4.41,4.41,0,0,0-1.55,1.06,5.14,5.14,0,0,0-1,1.6,5.26,5.26,0,0,0-.37,2,5.54,5.54,0,0,0,.36,2,4.84,4.84,0,0,0,2.6,2.68A4.9,4.9,0,0,0,167,382.68Z"/><path class="cls-1" d="M176.08,371.42h3.85a4.06,4.06,0,0,1,2.87,1,3.46,3.46,0,0,1,1,2.65,3.64,3.64,0,0,1-.73,2.33,3.5,3.5,0,0,1-2,1.25l3.52,5.21H182.9l-3.37-5.08h-2v5.08h-1.44Zm3.76,6a2.6,2.6,0,0,0,1.83-.62,2.63,2.63,0,0,0,0-3.46,2.62,2.62,0,0,0-1.85-.6H177.5v4.68Z"/><path class="cls-1" d="M194.92,371.42v12.4h-1.44V372.89l-2.36.74-.35-1.25,2.91-1Z"/></g><g class="cls-3"><path class="cls-1" d="M714.42,251.64a4.31,4.31,0,0,1-3-1,4,4,0,0,1-1.22-2.83h1.45a2.76,2.76,0,0,0,.83,1.88,2.71,2.71,0,0,0,1.94.72,3,3,0,0,0,1.93-.57,1.9,1.9,0,0,0,.72-1.57,1.82,1.82,0,0,0-.41-1.24,4.05,4.05,0,0,0-1.43-.86l-1.79-.68a4.72,4.72,0,0,1-2.08-1.38,3.24,3.24,0,0,1-.65-2.07,2.9,2.9,0,0,1,.28-1.29,2.8,2.8,0,0,1,.77-1,3.55,3.55,0,0,1,1.2-.65,5,5,0,0,1,1.55-.23,4,4,0,0,1,2.75.9,3.54,3.54,0,0,1,1.12,2.51H716.9a2.29,2.29,0,0,0-.69-1.57,2.43,2.43,0,0,0-1.72-.57,2.67,2.67,0,0,0-1.7.51,1.63,1.63,0,0,0-.64,1.35,2,2,0,0,0,.43,1.33,3.66,3.66,0,0,0,1.45.92l1.82.7a4.7,4.7,0,0,1,2,1.3,3,3,0,0,1,.62,2,3.53,3.53,0,0,1-.29,1.44,3,3,0,0,1-.82,1.1,3.71,3.71,0,0,1-1.29.69A5.56,5.56,0,0,1,714.42,251.64Z"/><path class="cls-1" d="M721.12,239h7.16v1.31h-5.72v4h5.53v1.31h-5.53v4.52h5.92v1.31h-7.36Z"/><path class="cls-1" d="M736.7,251.64a6.48,6.48,0,0,1-2.55-.49,6.14,6.14,0,0,1-2-1.34,6.44,6.44,0,0,1-1.35-2,7,7,0,0,1,0-5.09,6.33,6.33,0,0,1,1.35-2,6.08,6.08,0,0,1,2-1.34,6.46,6.46,0,0,1,2.54-.49,7,7,0,0,1,2.17.33,5.92,5.92,0,0,1,1.8.94,5.8,5.8,0,0,1,1.32,1.47,5.54,5.54,0,0,1,.74,1.9h-1.55a4.79,4.79,0,0,0-.61-1.36,4.08,4.08,0,0,0-1-1,4.2,4.2,0,0,0-1.3-.66,5,5,0,0,0-1.56-.24,4.93,4.93,0,0,0-2,.39,4.86,4.86,0,0,0-2.6,2.67,5.45,5.45,0,0,0,0,4,4.84,4.84,0,0,0,2.6,2.68,4.93,4.93,0,0,0,2,.38,4.59,4.59,0,0,0,2.85-.89,4.3,4.3,0,0,0,1.61-2.42h1.55a5.59,5.59,0,0,1-.74,1.91,5.68,5.68,0,0,1-1.32,1.48,5.92,5.92,0,0,1-1.8.94A7,7,0,0,1,736.7,251.64Z"/><path class="cls-1" d="M747.65,240.34H744V239h8.88v1.31h-3.77v11.1h-1.44Z"/><path class="cls-1" d="M760.31,251.64a6.41,6.41,0,0,1-2.53-.49,6.32,6.32,0,0,1-2-1.35,6.16,6.16,0,0,1-1.35-2,6.8,6.8,0,0,1,0-5.07,6,6,0,0,1,3.38-3.37,6.83,6.83,0,0,1,5.08,0,6.1,6.1,0,0,1,2,1.34,6.33,6.33,0,0,1,1.35,2,6.8,6.8,0,0,1,0,5.07,6.48,6.48,0,0,1-1.35,2,6.12,6.12,0,0,1-2,1.35A6.46,6.46,0,0,1,760.31,251.64Zm0-1.35a4.93,4.93,0,0,0,2-.38,4.87,4.87,0,0,0,1.56-1.07,4.77,4.77,0,0,0,1-1.62,5.32,5.32,0,0,0,.37-2,5.21,5.21,0,0,0-1.41-3.6,4.55,4.55,0,0,0-1.55-1.06,5.11,5.11,0,0,0-2-.38,5,5,0,0,0-1.95.38,4.69,4.69,0,0,0-1.56,1.06,5,5,0,0,0-1,1.61,5.19,5.19,0,0,0-.38,2,5.32,5.32,0,0,0,.37,2,4.77,4.77,0,0,0,1,1.62,4.92,4.92,0,0,0,1.57,1.07A4.85,4.85,0,0,0,760.31,250.29Z"/><path class="cls-1" d="M769.42,239h3.85a4,4,0,0,1,2.86,1,3.41,3.41,0,0,1,1,2.64,3.71,3.71,0,0,1-.73,2.34,3.55,3.55,0,0,1-2,1.24l3.52,5.22h-1.71l-3.38-5.09h-2v5.09h-1.43Zm3.76,6a2.53,2.53,0,0,0,1.82-.62,2.26,2.26,0,0,0,.66-1.74A2.23,2.23,0,0,0,775,241a2.57,2.57,0,0,0-1.84-.61h-2.35V245Z"/><path class="cls-1" d="M790.76,244.89a3.17,3.17,0,0,1,1.45,1.15,3.36,3.36,0,0,1,.5,1.84,3.54,3.54,0,0,1-1.18,2.69,4,4,0,0,1-1.31.78,4.76,4.76,0,0,1-1.67.29,4.67,4.67,0,0,1-1.62-.27,3.46,3.46,0,0,1-1.27-.77,3.58,3.58,0,0,1-.82-1.24,5.13,5.13,0,0,1-.33-1.63H786a2.62,2.62,0,0,0,.73,1.86,2.41,2.41,0,0,0,1.81.7,3.23,3.23,0,0,0,1.11-.17,2.53,2.53,0,0,0,.85-.49,2.12,2.12,0,0,0,.56-.76,2.37,2.37,0,0,0,.19-1,2.11,2.11,0,0,0-.72-1.7,3.05,3.05,0,0,0-2-.61h-1.23V244.3h1.21a2.47,2.47,0,0,0,1.71-.53,2,2,0,0,0,.6-1.55,1.94,1.94,0,0,0-.59-1.5,2.37,2.37,0,0,0-1.66-.55,2.53,2.53,0,0,0-1.71.58,2,2,0,0,0-.7,1.51h-1.44a3.26,3.26,0,0,1,.33-1.38,3.54,3.54,0,0,1,.83-1.08,3.77,3.77,0,0,1,1.22-.71,4.37,4.37,0,0,1,1.52-.26,4.57,4.57,0,0,1,1.52.24,3.4,3.4,0,0,1,1.16.67,2.9,2.9,0,0,1,.74,1,3.37,3.37,0,0,1,.27,1.36,3.28,3.28,0,0,1-.39,1.63A3.06,3.06,0,0,1,790.76,244.89Z"/></g><g class="cls-3"><path class="cls-1" d="M411.27,176.63a4.25,4.25,0,0,1-3-1,3.91,3.91,0,0,1-1.23-2.83h1.46a2.65,2.65,0,0,0,2.76,2.6,3,3,0,0,0,1.94-.57,1.89,1.89,0,0,0,.72-1.57,1.77,1.77,0,0,0-.42-1.23,3.74,3.74,0,0,0-1.43-.87l-1.78-.68a4.75,4.75,0,0,1-2.09-1.37,3.27,3.27,0,0,1-.64-2.08,3,3,0,0,1,.28-1.29,2.89,2.89,0,0,1,.77-1,3.63,3.63,0,0,1,1.2-.65,5,5,0,0,1,1.55-.23,4,4,0,0,1,2.74.91,3.54,3.54,0,0,1,1.13,2.5h-1.46a2.27,2.27,0,0,0-.69-1.56,2.45,2.45,0,0,0-1.72-.57,2.67,2.67,0,0,0-1.7.5A1.65,1.65,0,0,0,409,167a2,2,0,0,0,.44,1.33,3.66,3.66,0,0,0,1.45.92l1.82.7a4.61,4.61,0,0,1,2,1.3,3,3,0,0,1,.61,2,3.52,3.52,0,0,1-.28,1.44,3,3,0,0,1-.82,1.09,3.48,3.48,0,0,1-1.29.69A5.62,5.62,0,0,1,411.27,176.63Z"/><path class="cls-1" d="M418,164h7.15v1.31h-5.71v4H425v1.31h-5.53v4.51h5.92v1.31H418Z"/><path class="cls-1" d="M433.56,176.63a6.67,6.67,0,0,1-2.56-.49,6.28,6.28,0,0,1-2-1.35,6.17,6.17,0,0,1-1.35-2,6.83,6.83,0,0,1,0-5.08,6.17,6.17,0,0,1,1.35-2,6.33,6.33,0,0,1,2-1.35,7,7,0,0,1,4.72-.15,5.71,5.71,0,0,1,1.8.94,5.45,5.45,0,0,1,2.05,3.37H438a4.67,4.67,0,0,0-.61-1.36,4.12,4.12,0,0,0-1-1,4.48,4.48,0,0,0-1.31-.66,5.19,5.19,0,0,0-1.55-.23,4.86,4.86,0,0,0-2,.39,4.71,4.71,0,0,0-1.57,1.07,5,5,0,0,0-1,1.6,5.45,5.45,0,0,0,0,4,5,5,0,0,0,1,1.6,4.88,4.88,0,0,0,3.53,1.46,4.62,4.62,0,0,0,2.85-.9A4.32,4.32,0,0,0,438,172h1.54a5.71,5.71,0,0,1-.73,1.92,5.48,5.48,0,0,1-1.32,1.47,5.71,5.71,0,0,1-1.8.94A7,7,0,0,1,433.56,176.63Z"/><path class="cls-1" d="M444.51,165.33h-3.67V164h8.88v1.31h-3.78v11.09h-1.43Z"/><path class="cls-1" d="M457.17,176.63a6.64,6.64,0,0,1-2.54-.49,6.19,6.19,0,0,1-2-1.36,6.3,6.3,0,0,1-1.36-2,6.68,6.68,0,0,1-.49-2.54,6.59,6.59,0,0,1,.49-2.53,6.18,6.18,0,0,1,3.38-3.38,6.73,6.73,0,0,1,2.55-.49,6.59,6.59,0,0,1,2.53.49,6.18,6.18,0,0,1,3.38,3.38,6.59,6.59,0,0,1,.48,2.53,6.68,6.68,0,0,1-.48,2.54,6.44,6.44,0,0,1-1.35,2,6.19,6.19,0,0,1-2,1.36A6.59,6.59,0,0,1,457.17,176.63Zm0-1.35a4.85,4.85,0,0,0,1.95-.39,4.76,4.76,0,0,0,1.57-1.07,4.88,4.88,0,0,0,1-1.61,5.34,5.34,0,0,0,.37-2,5.26,5.26,0,0,0-.38-2,4.94,4.94,0,0,0-1-1.6,4.55,4.55,0,0,0-1.56-1.06,5,5,0,0,0-1.95-.38,5.11,5.11,0,0,0-2,.38,4.41,4.41,0,0,0-1.55,1.06,5.14,5.14,0,0,0-1,1.6,5.26,5.26,0,0,0-.37,2,5.34,5.34,0,0,0,.37,2,4.78,4.78,0,0,0,2.59,2.68A4.93,4.93,0,0,0,457.17,175.28Z"/><path class="cls-1" d="M466.27,164h3.86a4.05,4.05,0,0,1,2.86,1,3.43,3.43,0,0,1,1,2.65,3.7,3.7,0,0,1-.72,2.33,3.56,3.56,0,0,1-2,1.25l3.52,5.21h-1.72l-3.37-5.09h-2v5.09h-1.44Zm3.76,6a2.58,2.58,0,0,0,1.83-.62,2.63,2.63,0,0,0,0-3.46,2.62,2.62,0,0,0-1.85-.6h-2.34V170Z"/><path class="cls-1" d="M489.55,175.11v1.31h-8.07v-.74a4.37,4.37,0,0,1,.32-1.7,5.4,5.4,0,0,1,.82-1.33,6.56,6.56,0,0,1,1.1-1c.4-.29.78-.55,1.13-.77l1.38-.86a5.6,5.6,0,0,0,.94-.73,2.42,2.42,0,0,0,.52-.78,2.53,2.53,0,0,0,.17-1,2.28,2.28,0,0,0-.67-1.79,2.33,2.33,0,0,0-1.6-.59,2.35,2.35,0,0,0-1.78.71,2.6,2.6,0,0,0-.67,1.87h-1.48a4.35,4.35,0,0,1,.29-1.61,3.65,3.65,0,0,1,.79-1.25,3.57,3.57,0,0,1,1.23-.79,4.51,4.51,0,0,1,1.6-.28,4.72,4.72,0,0,1,1.53.25,3.22,3.22,0,0,1,2,1.89,4,4,0,0,1,.28,1.53,3.59,3.59,0,0,1-.25,1.41,3.66,3.66,0,0,1-.71,1.09,6.19,6.19,0,0,1-1.09.91c-.41.28-.87.58-1.36.89s-.82.53-1.15.77a6.79,6.79,0,0,0-.88.76,3.92,3.92,0,0,0-.6.82,3.23,3.23,0,0,0-.32,1Z"/></g><path class="cls-4" d="M565.73,465v5.2h-5.2V465Z"/><path class="cls-1" d="M560.53,465v5.2h-5.19V465Z"/><path class="cls-4" d="M555.34,465v5.2h-5.2V465Z"/><path class="cls-1" d="M565.73,470.18v5.2h-5.2v-5.2Z"/><path class="cls-1" d="M555.33,470.19v5.19h-5.2v-5.2Z"/><path class="cls-4" d="M560.54,470.14v5.2h-5.2v-5.2Z"/><path class="cls-4" d="M565.74,475.33v5.2h-5.19v-5.19Z"/><path class="cls-1" d="M560.54,475.34v5.19h-5.21v-5.2Z"/><path class="cls-4" d="M555.34,475.34v5.2h-5.19v-5.19Z"/><path class="cls-1" d="M565.74,480.49v5.2h-5.19v-5.2Z"/><path class="cls-1" d="M555.34,480.49v5.21h-5.2v-5.2Z"/><path class="cls-4" d="M560.54,480.44v5.2h-5.2v-5.2Z"/><path class="cls-4" d="M565.93,485.55v5.2h-5.2v-5.2Z"/><path class="cls-1" d="M560.73,485.55v5.2h-5.19v-5.2Z"/><path class="cls-4" d="M555.53,485.55v5.2h-5.2v-5.2Z"/><g class="cls-5"><polygon class="cls-1" points="513.19 477.76 521.47 486.06 527.37 486.07 519.09 477.77 527.42 469.46 521.52 469.45 513.19 477.76"/></g><g class="cls-6"><polygon class="cls-1" points="503.29 477.85 511.56 486.15 517.46 486.16 509.19 477.86 517.52 469.55 511.62 469.54 503.29 477.85"/></g><polygon class="cls-1" points="493.24 477.79 501.52 486.09 507.41 486.1 499.14 477.8 507.47 469.49 501.57 469.48 493.24 477.79"/><g class="cls-7"><polygon class="cls-1" points="530.77 486.08 536.67 486.08 528.39 477.79 536.73 469.48 530.83 469.47 522.5 477.78 530.77 486.08"/></g><g class="cls-8"><polygon class="cls-1" points="540.07 486.09 545.97 486.1 537.7 477.8 546.03 469.49 540.13 469.48 531.8 477.79 540.07 486.09"/></g><polygon class="cls-1" points="848.14 451.65 718.97 434.75 286.22 434.75 184.99 447.49 184.58 443.76 286.12 430.99 719.39 430.99 848.96 447.99 848.14 451.65"/><path class="cls-1" d="M952.36,312.54c-4.55-22.1-13.53-36.36-13.89-36.93-2.05-3.29-50.46-80.68-70.55-105.79-21.62-27-39.45-37.8-76.92-21.74-11.29,4.84-18.37,12.13-21,21.65-5,17.8,8.08,36.37,8.66,37.17.39.55,39.82,54.79,49.58,74.31,9.56,19.12,8.87,22.19,5,29.92-2.09,4.16-13,3.23-17.92,2.13l-.3-.1c-3.71-1.6-37.49-16.12-79.49-34.78-40.81-18.14-41.66-53.35-41.67-54.82V118.31c0-21.57-7.82-28.21-13.69-31.34-8.46-4.49-20-4.49-32.16-4.49a116.85,116.85,0,0,0-47.67,10.63l-1,.48-.73.8c-.49.55-50.49,55.5-85,90-12.68,12.69-28.91,19.12-48.22,19.12a91.62,91.62,0,0,1-30.71-5.35l-.91-.29c-5.52-1.22-135.73-30.14-175.89-35.16-13.67-1.71-23.91,1.16-30.44,8.53-10.88,12.28-6.47,31.51-5.93,33.66l.15.61.28.57c.42.82,10.32,20.56,30.43,50.72,21.8,32.71,54.47,27.76,55.88,27.53,2.48-.41,61.32-10.14,104.86-15,22.57-2.51,33.1-2.43,38-1.92l.22,0L455.6,269c3.88,1.43,95.34,35.18,124.67,49.85,6.72,3.36,9,5.85,9.76,7l.65,1-.71,1c-1.27,1.73-4.86,3.81-7.75,5l-.33.13h-.35c-51.19-.84-309.37-5-364.43-5-19.7,0-33.32-5.87-41.64-17.94-7.47-10.82-10.21-25.47-13.12-41-1.39-7.38-2.82-15-4.83-22.06-3.64-12.75-9.36-19.82-17-21-11.82-1.86-21.53,11.58-23.36,14.29l-.38.64c-.73,1.35-18,33.22-37.25,62.08-16.89,25.33-10.86,42.1-.86,69.89,3.11,8.62,6.62,18.4,10.15,30.16,8.66,28.87,17.08,44.72,25.72,48.45a9.55,9.55,0,0,0,5.41.78l.15,0,735.65,5h.88c7.78,0,48.3-2.92,81.89-60.49A117.73,117.73,0,0,0,952.36,312.54ZM602,327.73c.75-10.55-12.25-17.05-16.52-19.18-28.51-14.26-114.49-46.16-124.2-49.75l-.29-.11-.23-.19c-2.75-2.3-10.81-4.86-48.84-.63-45,5-104.89,15-105.5,15.07-9.9,1.5-30.38-1.56-44.38-22.56a544.3,544.3,0,0,1-29.29-48.67l-.11-.22-.05-.23c-.12-.62-3-15.06,3.59-22.43,3.86-4.32,10.7-5.9,20.35-4.7,38.35,4.79,168.74,33.63,174.27,34.86l.24.07c5.52,2.07,55,19.24,90.8-16.53,31.81-31.81,75.84-79.94,84.34-89.26l.25-.27.33-.15C611.38,100.78,628.14,94,648,94c11.31,0,21.08,0,26.68,3.06,2.28,1.24,7.64,4.17,7.64,21.24V223.52c0,1.79.55,44.07,48.51,65.39,44.08,19.59,79.89,35,80.24,35.1l.87.3c2.52.62,24.74,5.7,31.6-8,5.76-11.52,5.82-18.57-5-40.23-10.12-20.25-50.14-75.34-50.52-75.86-3.62-5.13-9.72-17.46-6.91-27.4,1.71-6.06,6.45-10.67,14.47-14.11,15.66-6.72,26.35-8.27,35.74-5.2,9.88,3.23,18.19,11.75,27.63,23.54,19.6,24.51,69.28,103.91,69.78,104.71a111.46,111.46,0,0,1,12.48,33.7c5.34,26.62,1.1,52-12.6,75.53-13.46,23.08-29.41,39.29-47.38,48.16-12.43,6.14-21.86,6.61-24.45,6.61h-.67l-736.64-5h-.72l-.49-.4c-2.46-2-9.19-10.06-18.35-40.59-3.61-12.05-7.18-22-10.34-30.75-10-27.64-14.07-39.09-.4-59.58,18.78-28.18,35.61-59,37.63-62.69l.17-.27c2.29-3.26,8.13-9.68,11.86-9.06,1,.16,4.42,1.54,7.64,12.78,1.86,6.52,3.18,13.57,4.58,21,3,16,6.11,32.63,15.19,45.76,10.51,15.19,27.16,22.57,50.9,22.57,59.21,0,362.65,5,365.65,5h1l.93-.31C587.43,343.31,601.2,338.2,602,327.73Z"/><g class="cls-3"><path class="cls-1" d="M118.83,465.68h2.86a3,3,0,0,1,2.14.72,2.57,2.57,0,0,1,.77,2,3.08,3.08,0,0,1-.2,1.13,2.67,2.67,0,0,1-.59.88,2.52,2.52,0,0,1-.91.55,3.53,3.53,0,0,1-1.21.19H119.9v3.79h-1.07Zm2.79,4.46a1.94,1.94,0,0,0,1.36-.46,1.94,1.94,0,0,0,0-2.58,1.94,1.94,0,0,0-1.38-.45h-1.74v3.49Z"/><path class="cls-1" d="M125.73,465.68h2.86a3,3,0,0,1,2.14.72,2.57,2.57,0,0,1,.77,2,2.73,2.73,0,0,1-.54,1.73,2.65,2.65,0,0,1-1.5.93l2.62,3.88H130.8l-2.51-3.79H126.8v3.79h-1.07Zm2.79,4.46a1.94,1.94,0,0,0,1.36-.46,1.94,1.94,0,0,0,0-2.58,1.94,1.94,0,0,0-1.38-.45h-1.74v3.49Z"/><path class="cls-1" d="M133.17,465.68h1.07v9.23h-1.07Z"/><path class="cls-1" d="M145.13,465.68v9.23h-1.07v-7.56l-2.92,7.56h-1l-2.92-7.56v7.56h-1.06v-9.23h1.52l3,7.77,2.95-7.77Z"/><path class="cls-1" d="M147,465.68h5.32v1h-4.25v3h4.11v1h-4.11v3.36h4.4v1H147Z"/><path class="cls-1" d="M153.77,465.68h1.07v9.23h-1.07Z"/><path class="cls-1" d="M156.75,465.68h2.87a3,3,0,0,1,2.13.72,2.53,2.53,0,0,1,.77,2,2.73,2.73,0,0,1-.54,1.73,2.65,2.65,0,0,1-1.5.93l2.62,3.88h-1.28l-2.51-3.79h-1.49v3.79h-1.07Zm2.8,4.46a1.92,1.92,0,0,0,1.35-.46,1.94,1.94,0,0,0,0-2.58,1.93,1.93,0,0,0-1.37-.45h-1.74v3.49Z"/><path class="cls-1" d="M169.3,472.56h-4.17l-.88,2.35h-1.14l3.53-9.23h1.15l3.51,9.23h-1.12Zm-3.81-.94H169l-1.75-4.75Z"/><path class="cls-1" d="M165.32,221.3h1.07v8.26h3.83v1h-4.9Z"/><path class="cls-1" d="M176.35,228.19h-4.17l-.88,2.34h-1.14l3.53-9.23h1.15l3.51,9.23h-1.13Zm-3.82-.95H176l-1.74-4.74Z"/><path class="cls-1" d="M187.5,226v2.47a4.33,4.33,0,0,1-1.73,1.67,5.1,5.1,0,0,1-2.39.55,5.38,5.38,0,0,1-2-.36,4.64,4.64,0,0,1-1.57-1,4.49,4.49,0,0,1-1-1.52,5,5,0,0,1-.36-1.92,4.89,4.89,0,0,1,.36-1.89,4.55,4.55,0,0,1,2.54-2.48,5,5,0,0,1,1.92-.36,5.17,5.17,0,0,1,1.44.2,4,4,0,0,1,1.2.58,3.62,3.62,0,0,1,.92.91,4.13,4.13,0,0,1,.59,1.21h-1.18a2.92,2.92,0,0,0-1.16-1.4,3.4,3.4,0,0,0-1.84-.5,3.74,3.74,0,0,0-1.47.29,3.45,3.45,0,0,0-1.17.77,3.53,3.53,0,0,0-.76,1.18,3.87,3.87,0,0,0-.28,1.49,4.25,4.25,0,0,0,.28,1.53,3.53,3.53,0,0,0,.79,1.2,3.47,3.47,0,0,0,1.22.79,4.45,4.45,0,0,0,3.26-.06,3.23,3.23,0,0,0,1.34-1.11V227h-3.1v-1Z"/><path class="cls-1" d="M193.3,230.68a4.89,4.89,0,0,1-1.89-.36,4.67,4.67,0,0,1-2.52-2.52,5.12,5.12,0,0,1,0-3.77,4.63,4.63,0,0,1,1-1.51,4.52,4.52,0,0,1,1.52-1,5,5,0,0,1,3.78,0,4.57,4.57,0,0,1,2.5,2.51,5,5,0,0,1,0,3.77,4.58,4.58,0,0,1-1,1.51,4.46,4.46,0,0,1-1.5,1A4.93,4.93,0,0,1,193.3,230.68Zm0-1a3.56,3.56,0,0,0,2.62-1.08,3.74,3.74,0,0,0,.77-1.2,4.08,4.08,0,0,0,.27-1.5,3.79,3.79,0,0,0-.28-1.48,3.74,3.74,0,0,0-.77-1.2,3.34,3.34,0,0,0-1.16-.78,3.77,3.77,0,0,0-2.9,0,3.34,3.34,0,0,0-1.16.78,3.74,3.74,0,0,0-.77,1.2,3.79,3.79,0,0,0-.28,1.48,4.08,4.08,0,0,0,.27,1.5,3.58,3.58,0,0,0,.77,1.2,3.69,3.69,0,0,0,1.17.8A3.64,3.64,0,0,0,193.3,229.68Z"/><path class="cls-1" d="M201.83,230.68a3.16,3.16,0,0,1-2.24-.77,2.89,2.89,0,0,1-.91-2.11h1.08a2,2,0,0,0,2.06,1.94,2.23,2.23,0,0,0,1.44-.43,1.41,1.41,0,0,0,.53-1.16,1.3,1.3,0,0,0-.31-.92,2.93,2.93,0,0,0-1.06-.65l-1.33-.5a3.59,3.59,0,0,1-1.55-1,2.4,2.4,0,0,1-.48-1.54,2.18,2.18,0,0,1,.21-1,2.08,2.08,0,0,1,.57-.75,2.91,2.91,0,0,1,.89-.48,3.8,3.8,0,0,1,1.15-.17,3,3,0,0,1,2.05.68,2.58,2.58,0,0,1,.83,1.86h-1.08a1.76,1.76,0,0,0-.51-1.17,1.86,1.86,0,0,0-1.29-.42,1.93,1.93,0,0,0-1.26.38,1.2,1.2,0,0,0-.48,1,1.49,1.49,0,0,0,.32,1,2.72,2.72,0,0,0,1.08.69l1.36.52a3.5,3.5,0,0,1,1.52,1,2.27,2.27,0,0,1,.45,1.46,2.65,2.65,0,0,1-.21,1.07,2.12,2.12,0,0,1-.61.81,2.61,2.61,0,0,1-1,.52A4.09,4.09,0,0,1,201.83,230.68Z"/><path class="cls-1" d="M569.14,363h-2.73v-1H573v1h-2.81v8.25h-1.07Z"/><path class="cls-1" d="M577.88,371.37A4.9,4.9,0,0,1,576,371a4.67,4.67,0,0,1-2.52-2.52,5,5,0,0,1,0-3.77,4.48,4.48,0,0,1,1-1.51,4.42,4.42,0,0,1,1.52-1,5,5,0,0,1,3.77,0,4.55,4.55,0,0,1,2.51,2.51,5,5,0,0,1,0,3.77,4.58,4.58,0,0,1-1,1.51,4.5,4.5,0,0,1-1.51,1A4.89,4.89,0,0,1,577.88,371.37Zm0-1a3.56,3.56,0,0,0,2.62-1.08,3.74,3.74,0,0,0,.77-1.2,4.08,4.08,0,0,0,.27-1.5,3.79,3.79,0,0,0-.28-1.48,3.92,3.92,0,0,0-.77-1.2,3.34,3.34,0,0,0-1.16-.78,3.68,3.68,0,0,0-1.45-.29,3.73,3.73,0,0,0-1.46.29,3.54,3.54,0,0,0-1.16.78,3.72,3.72,0,0,0-.76,1.2,3.79,3.79,0,0,0-.28,1.48,4.08,4.08,0,0,0,.27,1.5,3.58,3.58,0,0,0,.77,1.2,3.52,3.52,0,0,0,2.62,1.08Z"/><path class="cls-1" d="M584,362h2.86a3,3,0,0,1,2.14.72,2.58,2.58,0,0,1,.77,2,2.74,2.74,0,0,1-.54,1.74,2.59,2.59,0,0,1-1.5.92l2.62,3.88H589l-2.51-3.78H585v3.78H584Zm2.79,4.46a1.9,1.9,0,0,0,1.36-.46,1.93,1.93,0,0,0,0-2.57,1.94,1.94,0,0,0-1.38-.45H585v3.48Z"/><path class="cls-1" d="M591.41,362h2.87a3,3,0,0,1,2.13.72,2.55,2.55,0,0,1,.78,2,2.74,2.74,0,0,1-.54,1.74,2.58,2.58,0,0,1-1.51.92l2.62,3.88h-1.27L594,367.43h-1.5v3.78h-1.07Zm2.8,4.46a1.9,1.9,0,0,0,1.36-.46,1.94,1.94,0,0,0,0-2.57,1.92,1.92,0,0,0-1.37-.45h-1.74v3.48Z"/><path class="cls-1" d="M598.86,362h5.32v1h-4.25v3h4.12v1h-4.12v3.36h4.4v1h-5.47Z"/><path class="cls-1" d="M615.62,362l-3.32,9.23h-1.15l-3.3-9.23H609l2.73,7.85,2.73-7.85Z"/><path class="cls-1" d="M616.72,362h1.07v9.23h-1.07Z"/><path class="cls-1" d="M619.69,362h2.87a3,3,0,0,1,2.13.72,2.55,2.55,0,0,1,.78,2,3,3,0,0,1-.21,1.14,2.38,2.38,0,0,1-.58.87,2.63,2.63,0,0,1-.91.56,3.53,3.53,0,0,1-1.21.19h-1.8v3.78h-1.07Zm2.8,4.46a1.9,1.9,0,0,0,1.36-.46,1.94,1.94,0,0,0,0-2.57,1.92,1.92,0,0,0-1.37-.45h-1.74v3.48Z"/><path class="cls-1" d="M819.28,134.08a3.14,3.14,0,0,1-2.24-.77,2.94,2.94,0,0,1-.92-2.11h1.09a2,2,0,0,0,2,1.94,2.19,2.19,0,0,0,1.44-.43,1.39,1.39,0,0,0,.54-1.16,1.3,1.3,0,0,0-.31-.92,2.89,2.89,0,0,0-1.06-.65l-1.33-.5a3.53,3.53,0,0,1-1.55-1,2.4,2.4,0,0,1-.48-1.54,2.32,2.32,0,0,1,.2-1,2.23,2.23,0,0,1,.58-.75,2.91,2.91,0,0,1,.89-.48,3.8,3.8,0,0,1,1.15-.17,3,3,0,0,1,2,.67,2.62,2.62,0,0,1,.83,1.87h-1.08a1.7,1.7,0,0,0-.52-1.17,1.81,1.81,0,0,0-1.28-.42,1.93,1.93,0,0,0-1.26.38,1.2,1.2,0,0,0-.48,1,1.51,1.51,0,0,0,.32,1,2.72,2.72,0,0,0,1.08.69l1.36.52a3.48,3.48,0,0,1,1.51,1,2.24,2.24,0,0,1,.46,1.46,2.7,2.7,0,0,1-.21,1.08,2.31,2.31,0,0,1-.61.81,2.78,2.78,0,0,1-1,.52A4.52,4.52,0,0,1,819.28,134.08Z"/><path class="cls-1" d="M828.82,131.59h-4.17l-.87,2.34h-1.14l3.52-9.23h1.16l3.51,9.23H829.7Zm-3.81-1h3.47l-1.74-4.74Z"/><path class="cls-1" d="M840,129.39v2.47a4.25,4.25,0,0,1-1.72,1.67,5.13,5.13,0,0,1-2.39.55,5.43,5.43,0,0,1-2-.36,4.9,4.9,0,0,1-1.57-1,4.42,4.42,0,0,1-1-1.52,5,5,0,0,1-.36-1.92,4.89,4.89,0,0,1,.36-1.89,4.42,4.42,0,0,1,1-1.49,4.59,4.59,0,0,1,1.52-1,5,5,0,0,1,1.92-.36,5.17,5.17,0,0,1,1.44.2,4.11,4.11,0,0,1,1.21.58,3.79,3.79,0,0,1,.92.91,4.26,4.26,0,0,1,.59,1.21H838.7a3,3,0,0,0-1.17-1.4,3.34,3.34,0,0,0-1.83-.5,3.93,3.93,0,0,0-1.47.28,3.63,3.63,0,0,0-1.17.78,3.55,3.55,0,0,0-.77,1.18,4.28,4.28,0,0,0,0,3,3.63,3.63,0,0,0,.79,1.2,3.52,3.52,0,0,0,1.22.79,4.45,4.45,0,0,0,3.26-.06,3.21,3.21,0,0,0,1.33-1.11v-1.26h-3.1v-1Z"/><path class="cls-1" d="M841.61,124.7h2.86a3,3,0,0,1,2.13.72,2.55,2.55,0,0,1,.78,2,2.78,2.78,0,0,1-.54,1.74,2.59,2.59,0,0,1-1.5.92l2.62,3.88h-1.28l-2.51-3.78h-1.49v3.78h-1.07Zm2.79,4.46a1.9,1.9,0,0,0,1.36-.46,2,2,0,0,0,0-2.57,1.94,1.94,0,0,0-1.38-.45h-1.74v3.48Z"/><path class="cls-1" d="M849.05,124.7h5.32v1h-4.25v2.95h4.12v1h-4.12V133h4.41v1h-5.48Z"/><path class="cls-1" d="M858.23,134.08a3.16,3.16,0,0,1-2.24-.77,2.94,2.94,0,0,1-.92-2.11h1.09a2,2,0,0,0,2.05,1.94,2.24,2.24,0,0,0,1.45-.43,1.41,1.41,0,0,0,.53-1.16,1.3,1.3,0,0,0-.31-.92,2.8,2.8,0,0,0-1.06-.65l-1.33-.5a3.53,3.53,0,0,1-1.55-1,2.4,2.4,0,0,1-.48-1.54,2.32,2.32,0,0,1,.2-1,2.23,2.23,0,0,1,.58-.75,2.91,2.91,0,0,1,.89-.48,3.8,3.8,0,0,1,1.15-.17,3,3,0,0,1,2.05.67,2.62,2.62,0,0,1,.83,1.87h-1.08a1.74,1.74,0,0,0-.51-1.17,1.86,1.86,0,0,0-1.29-.42,1.93,1.93,0,0,0-1.26.38,1.2,1.2,0,0,0-.48,1,1.51,1.51,0,0,0,.32,1,2.72,2.72,0,0,0,1.08.69l1.36.52a3.48,3.48,0,0,1,1.51,1,2.24,2.24,0,0,1,.46,1.46,2.7,2.7,0,0,1-.21,1.08,2.2,2.2,0,0,1-.61.81,2.61,2.61,0,0,1-1,.52A4.41,4.41,0,0,1,858.23,134.08Z"/><path class="cls-1" d="M950,429.7v2.47a4.4,4.4,0,0,1-1.73,1.67,5.13,5.13,0,0,1-2.39.55,5.34,5.34,0,0,1-2-.36,4.69,4.69,0,0,1-1.57-1,4.59,4.59,0,0,1-1-1.52,5,5,0,0,1-.36-1.92,4.86,4.86,0,0,1,.36-1.89,4.49,4.49,0,0,1,2.53-2.48,5.29,5.29,0,0,1,3.36-.16,4.09,4.09,0,0,1,1.21.57,4,4,0,0,1,.92.92,4,4,0,0,1,.59,1.2h-1.18a3,3,0,0,0-1.17-1.4,3.34,3.34,0,0,0-1.83-.49,3.74,3.74,0,0,0-1.47.28,3.63,3.63,0,0,0-1.17.78,3.38,3.38,0,0,0-.76,1.18,3.8,3.8,0,0,0-.28,1.49,4.15,4.15,0,0,0,.28,1.52,3.58,3.58,0,0,0,.79,1.21,3.62,3.62,0,0,0,1.22.79,4.45,4.45,0,0,0,3.26-.06,3.3,3.3,0,0,0,1.34-1.11v-1.27h-3.1v-1Z"/><path class="cls-1" d="M956.61,431.89h-4.17l-.88,2.35h-1.14L954,425h1.15l3.51,9.23h-1.12ZM952.8,431h3.47l-1.75-4.75Z"/><path class="cls-1" d="M959.71,425h1.07v8.26h3.83v1h-4.9Z"/><path class="cls-1" d="M965.55,425h2.87a3,3,0,0,1,2.13.72,2.55,2.55,0,0,1,.78,2,3,3,0,0,1-.21,1.14,2.71,2.71,0,0,1-.58.87,2.57,2.57,0,0,1-.92.55,3.43,3.43,0,0,1-1.2.2h-1.8v3.78h-1.07Zm2.8,4.46a1.94,1.94,0,0,0,1.36-.46,1.69,1.69,0,0,0,.49-1.3,1.65,1.65,0,0,0-.48-1.27,1.89,1.89,0,0,0-1.37-.46h-1.74v3.49Z"/><path class="cls-1" d="M229.69,154.15a3.21,3.21,0,0,1-2.24-.77,2.93,2.93,0,0,1-.91-2.11h1.08a2,2,0,0,0,.62,1.4,2,2,0,0,0,1.44.53,2.28,2.28,0,0,0,1.44-.42,1.42,1.42,0,0,0,.53-1.17,1.31,1.31,0,0,0-.31-.92,2.94,2.94,0,0,0-1.06-.64l-1.33-.51a3.49,3.49,0,0,1-1.55-1,2.42,2.42,0,0,1-.48-1.54,2.18,2.18,0,0,1,.21-1,2.08,2.08,0,0,1,.57-.75,2.63,2.63,0,0,1,.89-.48,3.82,3.82,0,0,1,1.16-.17,3,3,0,0,1,2,.67,2.62,2.62,0,0,1,.83,1.87h-1.08A1.72,1.72,0,0,0,231,146a1.85,1.85,0,0,0-1.28-.42,2,2,0,0,0-1.27.37,1.22,1.22,0,0,0-.48,1,1.48,1.48,0,0,0,.33,1,2.7,2.7,0,0,0,1.07.68l1.36.52a3.6,3.6,0,0,1,1.52,1,2.29,2.29,0,0,1,.45,1.46,2.62,2.62,0,0,1-.21,1.07,2.23,2.23,0,0,1-.61.82,2.75,2.75,0,0,1-1,.51A4.08,4.08,0,0,1,229.69,154.15Z"/><path class="cls-1" d="M239.24,151.65h-4.17l-.88,2.35h-1.14l3.53-9.23h1.15l3.51,9.23h-1.13Zm-3.82-.94h3.47L237.15,146Z"/><path class="cls-1" d="M251.32,144.77V154h-1.07v-7.56L247.33,154h-1l-2.92-7.56V154h-1.06v-9.23h1.52l3,7.78,2.95-7.78Z"/><path class="cls-1" d="M255.67,154.15a3.23,3.23,0,0,1-2.25-.77,3,3,0,0,1-.91-2.11h1.09a1.95,1.95,0,0,0,2.05,1.93,2.24,2.24,0,0,0,1.44-.42,1.4,1.4,0,0,0,.54-1.17,1.36,1.36,0,0,0-.31-.92,3,3,0,0,0-1.06-.64l-1.33-.51a3.43,3.43,0,0,1-1.55-1,2.42,2.42,0,0,1-.48-1.54,2.17,2.17,0,0,1,.2-1,2.23,2.23,0,0,1,.58-.75,2.45,2.45,0,0,1,.89-.48,3.8,3.8,0,0,1,1.15-.17,3,3,0,0,1,2,.67,2.62,2.62,0,0,1,.83,1.87h-1.08A1.68,1.68,0,0,0,257,146a1.81,1.81,0,0,0-1.28-.42,2,2,0,0,0-1.26.37,1.22,1.22,0,0,0-.48,1,1.53,1.53,0,0,0,.32,1,2.83,2.83,0,0,0,1.08.68l1.36.52a3.49,3.49,0,0,1,1.51,1,2.24,2.24,0,0,1,.46,1.46,2.62,2.62,0,0,1-.21,1.07,2.35,2.35,0,0,1-.61.82,2.94,2.94,0,0,1-1,.51A4.17,4.17,0,0,1,255.67,154.15Z"/><path class="cls-1" d="M263.29,154.15a3.82,3.82,0,0,1-1.42-.26,3,3,0,0,1-1.09-.75,3.24,3.24,0,0,1-.69-1.17,4.67,4.67,0,0,1-.24-1.55v-5.65h1.07v5.69a2.89,2.89,0,0,0,.64,2,2.17,2.17,0,0,0,1.73.74,2.19,2.19,0,0,0,1.74-.72,3,3,0,0,0,.64-2v-5.69h1.06v5.65a5,5,0,0,1-.23,1.55,3.39,3.39,0,0,1-.69,1.17,2.92,2.92,0,0,1-1.08.75A3.89,3.89,0,0,1,263.29,154.15Z"/><path class="cls-1" d="M275.4,144.77V154h-1.16l-4.63-7.5V154h-1.07v-9.23h1.24l4.54,7.35v-7.35Z"/><path class="cls-1" d="M285.77,149.46v2.47A4.33,4.33,0,0,1,284,153.6a5.09,5.09,0,0,1-2.38.55,5.39,5.39,0,0,1-2-.36,5,5,0,0,1-1.57-1,4.42,4.42,0,0,1-1-1.52,5,5,0,0,1-.36-1.92,4.86,4.86,0,0,1,.36-1.89A4.49,4.49,0,0,1,279.6,145a5,5,0,0,1,1.92-.36,5.17,5.17,0,0,1,1.44.2,4.09,4.09,0,0,1,1.21.57,4,4,0,0,1,1.51,2.12H284.5a3,3,0,0,0-1.17-1.4,3.35,3.35,0,0,0-1.84-.49,3.61,3.61,0,0,0-2.63,1.06,3.31,3.31,0,0,0-.77,1.18,4.26,4.26,0,0,0,0,3,3.58,3.58,0,0,0,.79,1.21,3.43,3.43,0,0,0,1.22.79,4.42,4.42,0,0,0,3.25-.06,3.17,3.17,0,0,0,1.34-1.11v-1.27h-3.1v-1Z"/><path class="cls-1" d="M425.11,232.26a4.91,4.91,0,0,1-1.9-.36,4.74,4.74,0,0,1-1.51-1,4.58,4.58,0,0,1-1-1.51,5,5,0,0,1-.36-1.9,4.89,4.89,0,0,1,.36-1.89,4.58,4.58,0,0,1,1-1.51,4.84,4.84,0,0,1,1.52-1,4.89,4.89,0,0,1,1.89-.36,5,5,0,0,1,1.62.25,4.22,4.22,0,0,1,1.33.7,4.13,4.13,0,0,1,1,1.09,4.19,4.19,0,0,1,.54,1.42h-1.15a3.37,3.37,0,0,0-.45-1,3.15,3.15,0,0,0-.73-.77,3.36,3.36,0,0,0-1-.5,4,4,0,0,0-1.16-.17,3.67,3.67,0,0,0-2.62,1.08,3.74,3.74,0,0,0-.77,1.2,4.08,4.08,0,0,0,0,3,3.74,3.74,0,0,0,.77,1.2,3.74,3.74,0,0,0,4.75.42,3.24,3.24,0,0,0,1.19-1.81h1.15a4.07,4.07,0,0,1-1.53,2.53,4.43,4.43,0,0,1-1.33.7A5.33,5.33,0,0,1,425.11,232.26Z"/><path class="cls-1" d="M430.92,222.88h2.87a3,3,0,0,1,2.13.72,2.55,2.55,0,0,1,.78,2,2.73,2.73,0,0,1-.54,1.73,2.66,2.66,0,0,1-1.51.93l2.62,3.88H436l-2.51-3.78H432v3.78h-1.07Zm2.8,4.46a1.9,1.9,0,0,0,1.36-.46,1.69,1.69,0,0,0,.49-1.3,1.65,1.65,0,0,0-.48-1.27,1.92,1.92,0,0,0-1.37-.46H432v3.49Z"/><path class="cls-1" d="M443.47,229.77H439.3l-.87,2.34h-1.14l3.52-9.23H442l3.51,9.23h-1.13Zm-3.81-1h3.47l-1.74-4.75Z"/><path class="cls-1" d="M446.57,222.88h1.07v9.23h-1.07Z"/><path class="cls-1" d="M458,227.57V230a4.27,4.27,0,0,1-1.73,1.67,5.06,5.06,0,0,1-2.38.55,5.43,5.43,0,0,1-2-.36,4.79,4.79,0,0,1-1.57-1,4.42,4.42,0,0,1-1-1.52,5,5,0,0,1-.36-1.92,4.89,4.89,0,0,1,.36-1.89,4.56,4.56,0,0,1,1-1.5,4.47,4.47,0,0,1,1.52-1,5,5,0,0,1,1.92-.36,5.17,5.17,0,0,1,1.44.2,4.09,4.09,0,0,1,1.21.57,4.23,4.23,0,0,1,.92.92,4.33,4.33,0,0,1,.59,1.2h-1.18a3,3,0,0,0-1.17-1.4,3.44,3.44,0,0,0-1.84-.49,3.84,3.84,0,0,0-1.46.28,3.63,3.63,0,0,0-1.17.78,3.4,3.4,0,0,0-.77,1.18,4.26,4.26,0,0,0,0,3,3.58,3.58,0,0,0,.79,1.21,3.52,3.52,0,0,0,1.22.79,4.13,4.13,0,0,0,1.56.28,4.23,4.23,0,0,0,1.7-.34,3.21,3.21,0,0,0,1.33-1.11v-1.27h-3.1v-1Z"/><path class="cls-1" d="M461.63,231.14h.92c.93,0,1.4-.43,1.4-1.29v-7H465v7.05a2.12,2.12,0,0,1-.6,1.63,2.42,2.42,0,0,1-1.72.55h-1.07Z"/><path class="cls-1" d="M471.1,232.26a4.89,4.89,0,0,1-1.89-.36,4.5,4.5,0,0,1-1.51-1,4.6,4.6,0,0,1-1-1.51,5,5,0,0,1,0-3.78,4.58,4.58,0,0,1,1-1.51,4.79,4.79,0,0,1,1.51-1,5,5,0,0,1,1.9-.36,4.88,4.88,0,0,1,1.88.36,4.79,4.79,0,0,1,1.51,1,4.58,4.58,0,0,1,1,1.51,5,5,0,0,1,0,3.78,4.58,4.58,0,0,1-1,1.51,4.5,4.5,0,0,1-1.51,1A4.88,4.88,0,0,1,471.1,232.26Zm0-1a3.67,3.67,0,0,0,2.62-1.08,3.72,3.72,0,0,0,.76-1.2,4.13,4.13,0,0,0,0-3,4,4,0,0,0-.77-1.19,3.46,3.46,0,0,0-1.16-.79,3.86,3.86,0,0,0-1.45-.28,3.91,3.91,0,0,0-1.46.28,3.46,3.46,0,0,0-1.16.79,3.78,3.78,0,0,0-.76,1.19,3.88,3.88,0,0,0-.29,1.49,4.08,4.08,0,0,0,.28,1.5,3.58,3.58,0,0,0,.77,1.2,3.46,3.46,0,0,0,1.16.79A3.56,3.56,0,0,0,471.1,231.26Z"/><path class="cls-1" d="M484,222.88v9.23h-1.16l-4.62-7.5v7.5h-1.07v-9.23h1.23l4.54,7.35v-7.35Z"/><path class="cls-1" d="M486,222.88h5.32v1H487v3h4.11v1H487v3.36h4.4v1H486Z"/><path class="cls-1" d="M495.12,232.26a3.22,3.22,0,0,1-2.24-.77,3,3,0,0,1-.91-2.11h1.08a2.07,2.07,0,0,0,.62,1.4,2,2,0,0,0,1.44.54,2.27,2.27,0,0,0,1.44-.43,1.4,1.4,0,0,0,.54-1.17,1.32,1.32,0,0,0-.31-.91,2.86,2.86,0,0,0-1.07-.65l-1.33-.51a3.49,3.49,0,0,1-1.55-1,2.4,2.4,0,0,1-.48-1.54,2.18,2.18,0,0,1,.21-1,2.23,2.23,0,0,1,.58-.75,2.8,2.8,0,0,1,.89-.48,3.8,3.8,0,0,1,1.15-.17,2.93,2.93,0,0,1,2,.67,2.63,2.63,0,0,1,.84,1.87H497a1.68,1.68,0,0,0-.52-1.17,1.81,1.81,0,0,0-1.28-.42,2,2,0,0,0-1.26.37,1.22,1.22,0,0,0-.48,1,1.53,1.53,0,0,0,.32,1,2.76,2.76,0,0,0,1.08.69l1.36.52a3.45,3.45,0,0,1,1.51,1,2.24,2.24,0,0,1,.46,1.46,2.62,2.62,0,0,1-.21,1.07,2.26,2.26,0,0,1-.61.82,2.94,2.94,0,0,1-1,.51A4.19,4.19,0,0,1,495.12,232.26Z"/><path class="cls-1" d="M604.29,63.27h2.87a3,3,0,0,1,2.13.72,2.58,2.58,0,0,1,.77,2,2.88,2.88,0,0,1-.2,1.13,2.45,2.45,0,0,1-1.5,1.43,3.47,3.47,0,0,1-1.2.19h-1.8V72.5h-1.07Zm2.8,4.46a2,2,0,0,0,1.36-.46,1.73,1.73,0,0,0,.49-1.3,1.65,1.65,0,0,0-.48-1.27,1.89,1.89,0,0,0-1.37-.46h-1.74v3.49Z"/><path class="cls-1" d="M615.36,72.65a4.89,4.89,0,0,1-1.89-.36,4.76,4.76,0,0,1-1.51-1,4.65,4.65,0,0,1-1-1.52A5,5,0,0,1,611,66a4.58,4.58,0,0,1,1-1.51,4.63,4.63,0,0,1,1.51-1,5,5,0,0,1,1.9-.36,4.88,4.88,0,0,1,1.88.36,4.63,4.63,0,0,1,1.51,1,4.58,4.58,0,0,1,1,1.51,5,5,0,0,1,0,3.77,4.58,4.58,0,0,1-2.51,2.53A4.88,4.88,0,0,1,615.36,72.65Zm0-1A3.67,3.67,0,0,0,618,70.57a3.74,3.74,0,0,0,.77-1.2,4.17,4.17,0,0,0,.27-1.51,3.82,3.82,0,0,0-.28-1.48,3.87,3.87,0,0,0-.77-1.19,3.37,3.37,0,0,0-1.16-.79,3.67,3.67,0,0,0-1.45-.28,3.72,3.72,0,0,0-1.46.28,3.57,3.57,0,0,0-1.16.79,3.67,3.67,0,0,0-.76,1.19,3.82,3.82,0,0,0-.28,1.48,4.17,4.17,0,0,0,.27,1.51,3.58,3.58,0,0,0,.77,1.2,3.62,3.62,0,0,0,2.62,1.08Z"/><path class="cls-1" d="M621.45,63.27h2.86a3,3,0,0,1,2.14.72,2.58,2.58,0,0,1,.77,2,2.73,2.73,0,0,1-.54,1.73,2.65,2.65,0,0,1-1.5.93l2.62,3.88h-1.28L624,68.71h-1.49V72.5h-1.07Zm2.79,4.46a1.94,1.94,0,0,0,1.36-.46,1.69,1.69,0,0,0,.5-1.3,1.65,1.65,0,0,0-.48-1.27,1.9,1.9,0,0,0-1.38-.46H622.5v3.49Z"/><path class="cls-1" d="M630.46,64.24h-2.73v-1h6.61v1h-2.81V72.5h-1.07Z"/><path class="cls-1" d="M635.45,63.27h1.07V72.5h-1.07Z"/><path class="cls-1" d="M647.41,63.27V72.5h-1.07V64.94l-2.92,7.56h-1l-2.92-7.56V72.5h-1.06V63.27H640l3,7.77,3-7.77Z"/><path class="cls-1" d="M654.68,70.15h-4.17l-.88,2.35h-1.14L652,63.27h1.15l3.51,9.23h-1.12Zm-1.11-7.76a1.63,1.63,0,0,1-.5-.07,2.16,2.16,0,0,1-.54-.26,3.22,3.22,0,0,0-.53-.25,1,1,0,0,0-.35-.06,1.25,1.25,0,0,0-.52.11,2.78,2.78,0,0,0-.62.34v-.93a2.58,2.58,0,0,1,.57-.35,1.81,1.81,0,0,1,.57-.12,1.47,1.47,0,0,1,.46.07,2.92,2.92,0,0,1,.58.26l.56.25a.8.8,0,0,0,.3.06,2.14,2.14,0,0,0,1.14-.43v.91a2.58,2.58,0,0,1-.57.35A1.69,1.69,0,0,1,653.57,62.39Zm-2.7,6.82h3.47l-1.75-4.75Z"/><path class="cls-1" d="M661.54,72.65a4.89,4.89,0,0,1-1.89-.36,4.76,4.76,0,0,1-1.51-1,4.65,4.65,0,0,1-1-1.52,5,5,0,0,1,0-3.77,4.58,4.58,0,0,1,1-1.51,4.63,4.63,0,0,1,1.51-1,5,5,0,0,1,1.9-.36,4.88,4.88,0,0,1,1.88.36,4.63,4.63,0,0,1,1.51,1,4.58,4.58,0,0,1,1,1.51,5,5,0,0,1,0,3.77,4.58,4.58,0,0,1-2.51,2.53A4.88,4.88,0,0,1,661.54,72.65Zm0-1a3.67,3.67,0,0,0,2.62-1.08,3.56,3.56,0,0,0,.76-1.2,4,4,0,0,0,.28-1.51,3.82,3.82,0,0,0-.28-1.48,3.87,3.87,0,0,0-.77-1.19A3.37,3.37,0,0,0,663,64.4a3.67,3.67,0,0,0-1.45-.28,3.72,3.72,0,0,0-1.46.28,3.46,3.46,0,0,0-1.16.79,3.67,3.67,0,0,0-.76,1.19,3.82,3.82,0,0,0-.28,1.48,4.17,4.17,0,0,0,.27,1.51,3.54,3.54,0,0,0,1.93,2A3.73,3.73,0,0,0,661.54,71.65Z"/></g></g></svg>