<svg xmlns="http://www.w3.org/2000/svg" xmlns:xlink="http://www.w3.org/1999/xlink" viewBox="0 0 1062.7 537.9" xmlns:v="https://vecta.io/nano"><path d="M836.5 449.9l-7-9.8c-4.7-6.5-9.7-13.3-14.1-20.2L733 292.2c-1.2-1.9-2.1-4.6-2.3-7-.7-8.9 2.4-17.1 9.5-25.2l7-7.9 11.3-12.9 21-24.7 39.6-46.4c7.9-9.1 8.3-26.3 3.3-35l-13.1-23.4-24.7-43.6c-5.6-9.6-15-15.2-26.3-15.5-12.3-.4-24.9-.3-37-.3h-8.6-4.6c-5.2-.1-10.5-.2-15.7.9-15.6 3.2-26.8 11-33.3 23.1-3 5.6-5.6 10.6-7.8 15.9l-4.8 11.9-29.2 72.9c-9.9 25.6-27.2 47.8-52.8 68-16 12.6-34.5 19.6-50.5 24.7-8.5 2.7-15.7 3.7-22.7 3.2-7.4-.6-12-4-14.7-10.5-2-5-1.1-10 .2-14.6l4-14.2 15-52.2c3-10.1 1.5-19.3-4.7-28.1-5.6-8-12.9-15.2-22-22.1-15.6-11.6-26.4-28.4-34-52.9-1.1-3.7-1.8-7.6-2.5-11.4-.6-3.7-1.3-7.6-2.4-11.3-4.4-15-14.2-24-29.1-26.8-13.6-2.6-25.4 2.6-34.9 15.4-2.3 3.1-4 7.5-4.7 11.9l-5.2 38-3.9 29.3-7.8 54.9-3.6 24.8c-.3 2.3-2.3 4.7-5.1 6.1-2.6 1.4-5.3 1.6-7.2.7-5.7-2.9-9.5-7.1-11.4-12.5-1.1-3.2-2.1-6.5-3.1-9.7-.9-3-1.9-6-2.9-9l-5.6-17-18.6-55.5C283.3 93 275.5 84.7 264 79.6c-7.1-3.2-13.8-3.7-20.1-1.7l-3.7 1.2c-11.6 3.8-23.7 7.8-35.4 12.2-19.4 7.2-27.7 24.6-21.1 44.1l52.9 156.7c3.6 10.6 10.5 18.7 20.5 24.1l48.8 26.3L320 350c9.7 5.2 14.7 12.9 14.8 23 .1 10.4-4.6 18.3-14.1 23.4l-12.2 6.5-60.1 32.4c-3.2 1.8-7.7 4.7-10.9 8.9-8.6 11.4-9.6 24.6-3.1 38.2 6.7 13.9 19.3 21.3 36.3 21.5l158 1.5 55.6.5h.5 13l41.7-.3 99.8-.7 166.4-1.4c3.6 0 8.3-.2 12.7-1.4 10.1-2.8 18-10.3 21.7-20.6 4.2-10.9 2.7-22.6-3.6-31.6zm-520.3 45.2l-46.1-.6c-15.3-.3-26.8-9.6-29.4-23.8-2.2-11.7 2.7-22.3 12.7-27.5l60.1-32.2 12.5-6.8c12.3-6.7 18.7-17.5 18.5-31.5-.2-13.5-6.9-24.2-19.5-30.9l-28-14.9-21.3-11.3c-4.7-2.5-9.3-5.2-13.3-7.4-8.4-4.8-13.9-11.3-16.8-19.8l-16.2-47.8-36.6-108.3c-4.9-14.5.7-26.5 14.8-32 12.1-4.7 25.3-9.2 40.5-13.8 5.8-1.8 11.7-.1 19 5.3 5.7 4.2 9.6 9.6 11.8 16l22 66.5 5.2 15.6 2.2 6.9c2.2 7.4 6.9 13.3 15 18.8 4.2 2.9 10.3 3 16.2.3 6.2-2.8 10.6-7.9 11.2-12.9 1.4-11.5 3.1-23.2 4.8-34.5l2.4-16.1.5-3.5 6.4-45.5 1-6.9 5.2-39.8c.9-8 6.1-12.8 11.5-16.8 5.8-4.2 13.7-5.2 21.3-2.6 8.7 3 15.1 9.8 17.7 18.7.9 3.3 1.6 6.7 2.2 10.1.6 3.2 1.2 6.5 2 9.7 7.4 27.5 19.5 46.9 38 61 8.9 6.8 15.4 13.3 20.4 20.4 4.3 6.1 5.3 12.3 3.2 19.6l-15 52.3-4.3 15.3c-1.8 6.4-2 11.7-.7 16.7 3.1 11.6 11.6 18.6 23.8 19.5 8 .6 16.2-.5 25.3-3.3 15.8-5 34-11.7 49.7-23.2 29.1-21.4 48.7-45.9 60.1-75.1l23.6-58.9 10.3-25.5c2.9-7.3 6.3-15 11.7-21.1 7.3-8.3 16.9-12.9 27.7-13.1 17.7-.4 36.4-.4 58.9 0 8 .2 14.6 4.1 18.7 11.1l25.5 45.3 11.6 20.8c4.4 7.9 3.4 18.6-2.5 25.4l-27.8 32.7-32.2 37.9c-3.2 3.8-6.6 7.6-9.8 11.2l-8.6 9.8c-8.8 10.2-12.6 20.8-11.5 32.2.4 3.9 1.7 7.8 3.6 10.8l83.1 128.9c4.2 6.4 8.8 12.7 13.2 18.8 2.6 3.5 5.2 7.1 7.7 10.8 4.6 6.6 5.6 15.1 2.6 22.8-2.9 7.5-8.9 12.8-16.5 14.6-3.3.8-41.9 1.1-54.6 1.2h-4.7l-260 2.4-116.2-.7-52-.7.2-.1-12-.5z" fill="#fff"/><g opacity=".5" fill="#fff"><use xlink:href="#B"/><path d="M204.9 385.7h6v1.1h-4.8v3.3h4.7v1.1h-4.7v3.8h5v1.1h-6.2v-10.4zm7.7 5.2c0-3.1 2.3-5.4 5.4-5.4 2.6 0 4.6 1.6 5.1 3.9h-1.3c-.4-1.7-1.9-2.8-3.8-2.8-2.3 0-4.2 1.9-4.2 4.3s1.8 4.3 4.2 4.3c1.9 0 3.3-1.1 3.8-2.8h1.3c-.5 2.4-2.5 3.9-5.1 3.9-3.1 0-5.4-2.3-5.4-5.4zm14.7-4.1h-3.1v-1.1h7.5v1.1h-3.2v9.4h-1.2v-9.4zm5.2 4.1c0-3.1 2.3-5.4 5.4-5.4s5.4 2.3 5.4 5.4-2.3 5.4-5.4 5.4c-3 0-5.4-2.3-5.4-5.4zm9.6 0c0-2.4-1.8-4.2-4.2-4.2s-4.2 1.8-4.2 4.2c0 2.5 1.8 4.3 4.2 4.3s4.2-1.9 4.2-4.3zm3.5-5.2h3.3c2 0 3.3 1.2 3.3 3 0 1.6-.9 2.7-2.3 3l3 4.4h-1.4l-2.8-4.3H247v4.3h-1.2v-10.4zm3.2 5c1.3 0 2.1-.7 2.1-2 0-1.2-.8-2-2.1-2h-2v4h2zm12.7-5v10.5h-1.2V387l-2 .6-.3-1.1 2.5-.8h1z"/></g><path d="M470.8 106.1h1.2c.1 1.3 1 2.2 2.3 2.2 1.4 0 2.2-.7 2.2-1.8 0-.9-.4-1.3-1.6-1.8l-1.5-.6c-1.6-.6-2.3-1.5-2.3-2.9 0-1.6 1.3-2.7 3.2-2.7s3.1 1.1 3.3 2.9h-1.2c-.1-1.1-.8-1.8-2-1.8s-2 .6-2 1.6c0 .9.5 1.4 1.6 1.9l1.5.6c1.6.6 2.2 1.4 2.2 2.8 0 1.8-1.4 2.9-3.5 2.9s-3.3-1.3-3.4-3.3zm9.2-7.4h6v1.1h-4.8v3.3h4.7v1.1h-4.7v3.8h5v1.1H480V98.7zm7.8 5.2c0-3.1 2.3-5.4 5.4-5.4 2.6 0 4.6 1.6 5.1 3.9H497c-.4-1.7-1.9-2.8-3.8-2.8-2.3 0-4.2 1.9-4.2 4.3s1.8 4.3 4.2 4.3c1.9 0 3.3-1.1 3.8-2.8h1.3c-.5 2.4-2.5 3.9-5.1 3.9-3.1 0-5.4-2.3-5.4-5.4zm14.6-4.1h-3.1v-1.1h7.5v1.1h-3.2v9.4h-1.2v-9.4zm5.3 4.1c0-3.1 2.3-5.4 5.4-5.4s5.4 2.3 5.4 5.4-2.3 5.4-5.4 5.4c-3 0-5.4-2.3-5.4-5.4zm9.6 0c0-2.4-1.8-4.2-4.2-4.2s-4.2 1.8-4.2 4.2c0 2.5 1.8 4.3 4.2 4.3s4.2-1.8 4.2-4.3zm3.5-5.2h3.3c2 0 3.3 1.2 3.3 3 0 1.6-.9 2.7-2.3 3l3 4.4h-1.4l-2.8-4.3H522v4.3h-1.2V98.7zm3.2 5.1c1.3 0 2.1-.7 2.1-2 0-1.2-.8-2-2.1-2h-2v4h2zm16.4 4.3v1.1h-6.8v-.6c0-2.1 1.6-3.3 2.8-4.1 1.8-1.1 2.5-1.6 2.5-2.8 0-1.4-.9-2-1.9-2-1.2 0-2.1.9-2.1 2.2h-1.2c0-2 1.3-3.3 3.3-3.3 1.9 0 3.2 1.2 3.2 3.1 0 1.8-1.2 2.6-2.9 3.6-1.4.9-2.3 1.6-2.5 2.8h5.6z" opacity=".5" fill="#fff"/><g opacity=".5" fill="#fff"><use xlink:href="#B" x="591.9" y="-122"/><path d="M796.7 263.7h6v1.1h-4.8v3.3h4.7v1.1h-4.7v3.8h5v1.1h-6.2v-10.4zm7.7 5.2c0-3.1 2.3-5.4 5.4-5.4 2.6 0 4.6 1.6 5.1 3.9h-1.3c-.4-1.7-1.9-2.8-3.8-2.8-2.3 0-4.2 1.9-4.2 4.3s1.8 4.3 4.2 4.3c1.9 0 3.3-1.1 3.8-2.8h1.3c-.5 2.4-2.5 3.9-5.1 3.9-3 0-5.4-2.3-5.4-5.4zm14.7-4.1H816v-1.1h7.5v1.1h-3.2v9.4h-1.2v-9.4zm5.3 4.1c0-3.1 2.3-5.4 5.4-5.4s5.4 2.3 5.4 5.4-2.3 5.4-5.4 5.4-5.4-2.3-5.4-5.4zm9.5 0c0-2.4-1.8-4.2-4.2-4.2s-4.2 1.8-4.2 4.2c0 2.5 1.8 4.3 4.2 4.3 2.5 0 4.2-1.9 4.2-4.3zm3.6-5.2h3.3c2 0 3.3 1.2 3.3 3 0 1.6-.9 2.7-2.3 3l3 4.4h-1.4l-2.8-4.3h-1.7v4.3h-1.2v-10.4zm3.1 5c1.3 0 2.1-.7 2.1-2 0-1.2-.8-2-2.1-2h-2v4h2zm16.5 2.4c0 1.8-1.5 3.2-3.5 3.2s-3.3-1.3-3.4-3.3h1.2c0 1.3.9 2.2 2.1 2.2 1.4 0 2.3-.8 2.3-2s-.9-1.9-2.3-1.9h-1v-1.1h1c1.2 0 1.9-.6 1.9-1.8 0-1.1-.7-1.7-1.9-1.7s-2 .7-2 1.8h-1.2c.1-1.7 1.4-2.9 3.3-2.9s3.1 1.1 3.1 2.8c0 1-.5 1.9-1.3 2.3 1.1.4 1.7 1.2 1.7 2.4z"/></g><path d="M800.5 497s-42.9-7.9-55.6-7.4c4.1 1.3-257 2.2-257 2.2l-144.4 6.7" fill="none" stroke="#fff" stroke-width="2.835" stroke-miterlimit="10"/><g fill="#fff"><path d="M490.3 514.7l5.8 5.9h4.2l-5.9-5.9 6-5.9h-4.2z" opacity=".8"/><path d="M483.2 514.8l5.9 5.9h4.2l-5.9-5.9 5.9-5.9h-4.1z" opacity=".9"/><path d="M476.1 514.7l5.9 5.9h4.2l-5.9-5.9 5.9-5.9H482z"/><path d="M502.7 520.6h4.2l-5.9-5.9 6-5.8-4.2-.1-5.9 5.9z" opacity=".7"/><path d="M509.3 520.6h4.2l-5.9-5.8 5.9-5.9h-4.1l-5.9 5.8z" opacity=".6"/></g><use xlink:href="#C" fill="#12110e"/><use xlink:href="#C" x="-1.9" fill="#fff"/><use xlink:href="#C" x="-3.8" fill="#12110e"/><g fill="#fff"><use xlink:href="#C" y="1.9"/><use xlink:href="#C" x="-3.8" y="1.9"/></g><g fill="#12110e"><use xlink:href="#C" x="-1.9" y="1.9"/><use xlink:href="#C" y="3.8"/></g><use xlink:href="#C" x="-1.9" y="3.8" fill="#fff"/><use xlink:href="#C" x="-3.8" y="3.8" fill="#12110e"/><path d="M510.1 502v1.9h-1.9V502h1.9zm-3.8 0v1.9h-1.9V502h1.9z" fill="#fff"/><g fill="#12110e"><path d="M508.2 502v1.9h-1.9V502h1.9z"/><use xlink:href="#C" x="0.1" y="7.6"/></g><use xlink:href="#C" x="-1.9" y="7.6" fill="#fff"/><use xlink:href="#C" x="-3.8" y="7.6" fill="#12110e"/><g fill="#fff"><path d="M210.6 472.2H208v-1.9h7.3v1.9h-2.7v7.8h-2v-7.8z"/><use xlink:href="#D"/><use xlink:href="#E"/><path d="M367 366.3v1.8h-6.8v-.8c0-1.7 1.3-2.9 2.6-3.8 1.6-1 2-1.3 2-2.1 0-.9-.5-1.3-1.2-1.3-.8 0-1.3.6-1.3 1.5h-2c0-2.1 1.3-3.4 3.4-3.4 2 0 3.2 1.1 3.2 3 0 1.6-1 2.4-2.6 3.4-1 .6-1.7 1.1-2 1.7h4.7z"/><use xlink:href="#E" x="-131.3" y="-51.8"/><use xlink:href="#F"/><use xlink:href="#E" x="-190.2" y="-254"/><path d="M176.5 112.6h-1.2v1.6h-2v-1.6h-4.4V111l4.2-6.5h2.2v6.4h1.2v1.7zm-5.6-1.8h2.6v-4.1l-2.6 4.1zm100.4-40.6h-2.6v-1.9h7.3v1.9h-2.7V78h-2v-7.8zm13.1 4.7c0 2-1.4 3.3-3.5 3.3-2 0-3.3-1.2-3.4-3.1h2c.1.7.7 1.3 1.4 1.3.9 0 1.5-.7 1.5-1.6s-.6-1.5-1.5-1.5c-.5 0-1 .3-1.4.7h-1.8v-5.6h6.2v1.8h-4.2v2c.5-.3 1.1-.5 1.7-.5 1.6-.1 3 1.3 3 3.2zM329 226.1h-2.6v-1.9h7.3v1.9H331v7.8h-2v-7.8zm8.9 1.3c1.8 0 3.2 1.5 3.2 3.3 0 1.9-1.6 3.4-3.6 3.4s-3.5-1.5-3.5-3.5c0-.9.3-1.6 1.2-2.9l2.3-3.5h2.4l-2 3.2h0zm1.2 3.3a1.6 1.6 0 1 0-3.2 0 1.58 1.58 0 0 0 1.6 1.6c1 0 1.6-.7 1.6-1.6zM390 13.1h-2.6v-1.9h7.3v1.9H392V21h-2v-7.9zm12.1-1.8V13l-3.7 8h-2.2l3.8-7.9h-4.5v-1.8h6.6z"/><use xlink:href="#E" x="73.4" y="-240.6"/><path d="M440.6 124.9c0 1.7-1.4 2.8-3.5 2.8s-3.5-1.1-3.5-2.8c0-1.1.5-1.9 1.5-2.4a2.33 2.33 0 0 1-1.3-2.1c0-1.6 1.3-2.7 3.3-2.7s3.3 1.1 3.3 2.7c0 .9-.4 1.7-1.2 2.1.9.4 1.4 1.3 1.4 2.4zm-2-.1c0-.8-.6-1.4-1.5-1.4s-1.5.6-1.5 1.4.6 1.3 1.5 1.3c.9.1 1.5-.5 1.5-1.3zm-2.8-4.3c0 .7.5 1.3 1.3 1.3s1.3-.5 1.3-1.3c0-.7-.5-1.2-1.3-1.2s-1.3.5-1.3 1.2zm71.7 45.7H505v-1.9h7.3v1.9h-2.7v7.8h-2v-7.8zm8.9 4.7c-1.8 0-3.2-1.5-3.2-3.3 0-1.9 1.6-3.4 3.6-3.4s3.5 1.5 3.5 3.5c0 .9-.3 1.6-1.2 2.9l-2.3 3.5h-2.4l2-3.2h0zm-1.2-3.3a1.6 1.6 0 1 0 3.2 0 1.58 1.58 0 0 0-1.6-1.6c-1 0-1.6.7-1.6 1.6zm-45.3 117.3h-2.6V283h7.3v1.9H472v7.8h-2v-7.8zm9.6-1.9v9.7h-2V285l-1.7.5-.5-1.7 2.5-.8h1.7zm1.8 4.9c0-2.9 2.1-5 5-5s5 2.1 5 5-2.1 5-5 5-5-2.1-5-5zm8 0c0-1.8-1.3-3.1-3-3.1s-3 1.3-3 3.1 1.3 3.2 3 3.2c1.7-.1 3-1.4 3-3.2zm120.2-58.1H607v-1.9h7.3v1.9h-2.7v7.8h-2v-7.8z"/><use xlink:href="#D" x="398.9" y="-242.5"/><use xlink:href="#D" x="404.4" y="-242.5"/><path d="M647.6 49.7H645v-1.9h7.3v1.9h-2.7v7.8h-2v-7.8z"/><use xlink:href="#D" x="437" y="-422.6"/><path d="M665.8 55.8v1.8H659v-.8c0-1.7 1.3-2.9 2.6-3.8 1.6-1 2-1.3 2-2.1 0-.9-.5-1.3-1.2-1.3-.8 0-1.3.6-1.3 1.5h-2c0-2.1 1.3-3.4 3.4-3.4 2 0 3.2 1.1 3.2 3 0 1.6-1 2.4-2.6 3.4-1 .6-1.7 1.1-2 1.7h4.7zm126.5-1.5h-2.6v-1.9h7.3v1.9h-2.7v7.8h-2v-7.8z"/><use xlink:href="#D" x="581.7" y="-418"/><use xlink:href="#F" x="574.8" y="-254.2"/><use xlink:href="#E" x="481.9" y="-217.7"/><use xlink:href="#D" x="625.7" y="-329.6"/><path d="M855.2 148.8H854v1.6h-2v-1.6h-4.4v-1.6l4.2-6.5h2.2v6.4h1.2v1.7zm-5.7-1.7h2.6V143l-2.6 4.1z"/><use xlink:href="#E" x="345.5" y="-81.2"/><use xlink:href="#D" x="489.2" y="-193.2"/><path d="M718.5 283.7c0 2-1.4 3.3-3.5 3.3-2 0-3.3-1.2-3.4-3.1h2c.1.7.7 1.3 1.4 1.3.9 0 1.5-.7 1.5-1.6s-.6-1.5-1.5-1.5c-.5 0-1 .3-1.4.7h-1.8v-5.6h6.2v1.8h-4.2v2c.5-.3 1.1-.5 1.7-.5 1.7 0 3 1.4 3 3.2z"/><use xlink:href="#E" x="498.5" y="123.4"/><use xlink:href="#D" x="642.3" y="11.4"/><path d="M868 485c1.8 0 3.2 1.5 3.2 3.3 0 1.9-1.6 3.4-3.6 3.4s-3.5-1.5-3.5-3.5c0-.9.3-1.6 1.2-2.9l2.3-3.5h2.4l-2 3.2h0zm1.3 3.3a1.58 1.58 0 1 0-3.2 0 1.58 1.58 0 1 0 3.2 0z"/></g><defs ><path id="B" d="M195.6 393h1.2c.1 1.3 1 2.2 2.3 2.2 1.4 0 2.2-.7 2.2-1.8 0-.9-.4-1.3-1.6-1.8l-1.5-.6c-1.6-.6-2.3-1.5-2.3-2.9 0-1.6 1.3-2.7 3.2-2.7s3.1 1.1 3.3 2.9h-1.2c-.1-1.1-.8-1.8-2-1.8s-2 .6-2 1.6c0 .9.5 1.4 1.6 1.9l1.5.6c1.6.6 2.2 1.4 2.2 2.8 0 1.8-1.4 2.9-3.5 2.9-1.9 0-3.3-1.2-3.4-3.3z"/><path id="C" d="M510.1 496.3v1.9h-1.9v-1.9h1.9z"/><path id="D" d="M220.2 470.4v9.7h-2v-7.7l-1.7.5-.5-1.7 2.5-.8h1.7z"/><path id="E" d="M354.4 360.3h-2.6v-1.9h7.3v1.9h-2.7v7.8h-2v-7.8z"/><path id="F" d="M235.7 313.6c0 1.7-1.4 2.9-3.5 2.9s-3.4-1.2-3.4-3.3h2c0 .9.6 1.5 1.4 1.5.9 0 1.5-.5 1.5-1.3s-.5-1.3-1.5-1.3h-1v-1.6h.9c.9 0 1.3-.4 1.3-1.2 0-.7-.5-1.1-1.3-1.1s-1.3.5-1.4 1.3h-1.9c.1-1.8 1.4-3 3.4-3 1.9 0 3.2 1.1 3.2 2.7 0 1-.4 1.7-1.2 2.1 1 .4 1.5 1.2 1.5 2.3z"/></defs></svg>