<svg xmlns="http://www.w3.org/2000/svg" viewBox="0 0 1062.67 537.87"><g fill="#fff"><path d="M274.6 503.43c-3.53 0-7.2-1.82-11.2-5.56A83.19 83.19 0 0 1 254 487a125.84 125.84 0 0 0-9.09-10.9c-6.68-7-14.9-14-28.34-24.12-4.53-3.4-15.3-12.12-17.62-19.4-.83-2.64-1.67-6.95-2.63-11.94-1.37-7-3.23-16.67-5-19.8-2.7-4.67-11.94-11.6-18.06-16.2a95.25 95.25 0 0 1-7.54-6c-.8-.77-1.7-1.54-2.56-2.28-3.1-2.64-6.3-5.38-6.45-9.4-.1-2.3-1.23-17.24-1.22-19s0-1.9 17.45-33.18l50.2-92.46c22.5-43.9 32.78-57.28 44-57.28 7 0 12.7 5.55 19.9 12.58l4.1 4 41.3 39.8c1.7 1.68 4.84 4.83 7.13 4.83 1.77 0 3.46-2.55 4.3-4.07 2.53-4.54 5.62-10.78 8.9-17.4 4.9-9.87 10.44-21.07 16.17-30.85 3-5.07 5.36-9.46 7.46-13.34 6.66-12.27 10.68-19.68 19.37-19.68 6.9 0 15.47 5.1 31.3 14.9 6.08 3.9 28.86 17 53 30.8l71.13 41.47c10.14 6.37 49.25 7 72.62 7.3l18 .4c5.16.2 13.33.8 22.8 1.45 21.9 1.54 52.5 3.7 74.32 3.36 19-.28 30.35-3.57 35.8-10.36 4.33-5.37 5.32-13.45 3-24.7-1.77-8.75-12.06-39.28-20.33-63.82l-10.72-32.5c-3.25-11.12-.3-25.94 2.32-39 .8-4 1.57-7.84 2.06-11.13.78-5.34 3.18-21.6 16.36-22.62h.73c8.52 0 17.7 12.24 23.92 22.5 2.08 3.43 10 4.33 16.88 5.12 7.64.87 15.53 1.77 20.5 5.95 6.88 5.77 11.5 34.48 19.22 96.64l1.45 11.57c4.84 38.37 20.18 143.64 21.8 153.1.9 5.22 2 11.7-1.52 19.23-3.86 8.15-24.58 28.5-24.8 28.7-6.55 6.4-9.66 8.64-18.76 8.64-3.06 0-6.8-.23-12-.55l-2.53-.15-31.7-2.38-66.83-4.52c-34.54-1.1-38.4-2.82-41.44-18.22-.28-1.4-.58-2.92-1-4.6l-.13-.55c-3.55-15.37-3.7-16-13.27-16.77l-27.3-2-3.74-.24h-.83c-2.24 0-2.74.37-7.37 13.45l-3 8.4-2.52 7.32c-3.46 10.47-5.34 14.72-17.27 14.72-3.07 0-7-.23-12-.53-6.5-.4-15.4-.92-27.1-1.2l-11.8.06c-39.84 0-43.57-2.8-48.73-20.27-.9-3-1.9-6.44-3.45-10.44-.62-1.6-1.15-3.14-1.66-4.63-3.3-9.53-5.1-14.77-25.13-16.32l-3.5-.24c-11-.7-19-1.23-39.23-16.4-12.9-9.67-52.1-42.37-67.17-57.45-5.4-5.4-8.87-6.2-10.47-6.2-3.38 0-5 3.84-5.66 6.12-1.37 4.78-4.2 13.48-7.78 24.5-8.48 26.1-21.3 65.55-24.3 82.74l-4.38 24c-5.43 29.35-13.65 73.7-15.34 93.6-.48 6-2.05 24.28-13.67 24.28zM165.1 366.57c.35.77 2.26 2.4 3.53 3.5.95.8 1.93 1.66 2.9 2.6 1.2 1.15 3.9 3.18 6.77 5.33 7.46 5.6 16.74 12.54 20.3 18.7 2.32 4 3.95 11.82 6 22.4.87 4.54 1.7 8.83 2.4 11 .84 2.65 5.8 8.55 14.66 15.23C235.5 455.74 244 463 251 470.35a136.86 136.86 0 0 1 9.67 11.57 76.91 76.91 0 0 0 8.43 9.81c3.3 3.07 5 3.3 5.5 3.3 1.35 0 4.22-3.47 5.35-16.62 1.73-20.32 9.66-63.14 15.45-94.42l4.36-23.9c3.1-17.77 15.5-56 24.58-83.9l7.7-24.22c2.2-7.63 7.33-12.2 13.72-12.2 5.15 0 10.67 2.9 16.4 8.66 14.83 14.85 53.54 47.1 66.27 56.67 18.22 13.68 24.44 14.08 34.73 14.75l3.6.24c23.8 1.84 28.1 9.52 32.4 21.95l1.56 4.34c1.67 4.32 2.78 8.08 3.67 11.1 3.73 12.63 4.2 14.25 40.68 14.25l11.92-.07c11.87.3 20.88.82 27.46 1.2 4.83.3 8.65.52 11.47.52 6.34 0 6.34 0 9.3-9l2.6-7.56 3-8.32c4.62-13.1 6.73-19.06 15.28-19.06.43 0 .9 0 1.38.05l3.74.25 27.46 2c15.68 1.3 17.17 7.74 20.75 23.25l.13.55c.4 1.78.73 3.4 1 4.88 1.2 6.15 1.63 7.33 4.15 8.44 4.24 1.87 14 2.52 29.33 3 17.27.55 45 2.75 67.23 4.53l31.54 2.37 2.54.15c5 .3 8.65.53 11.45.53 6.14 0 7.22-.7 12.9-6.25 6.67-6.5 20.74-21.4 23.06-26.3 2.42-5.1 1.65-9.53.84-14.2-1.64-9.5-17-115-21.87-153.5l-1.45-11.6c-3.73-30-10.67-85.8-16.3-91.27-3-2.53-9.64-3.28-16-4-9.3-1.06-18.9-2.15-23.12-9.12-8.2-13.54-14.5-18.46-16.74-18.46-1.68.13-6.58.5-8.8 15.5-.52 3.5-1.3 7.4-2.13 11.54-2.3 11.52-5.17 25.86-2.5 35 1.53 5.25 5.74 17.73 10.6 32.18 8.78 26 18.74 55.57 20.6 64.84 2.8 13.86 1.25 24.2-4.73 31.64-7.25 9-20.27 13.15-42.23 13.48-22.15.34-53-1.83-75-3.38l-22.54-1.43c-4.7-.2-10.77-.28-17.78-.4-35.47-.52-65.74-1.52-77-8.58s-42.95-25.28-70.84-41.3l-53.25-31c-13.67-8.44-22.34-13.6-26.84-13.6-3.55 0-6.1 4.4-12 15.28l-7.6 13.58c-5.58 9.53-11.06 20.6-15.9 30.34l-9.1 17.76c-3.1 5.56-7 8.37-11.64 8.37-5.76 0-10.33-4.56-13.06-7.28L326 227l-40.7-39.22q-2.2-2.1-4.17-4c-5.82-5.7-10.42-10.18-14-10.18-8.3 0-22.45 25.33-36.5 52.7-15.45 30-35.64 66.2-50.37 92.62l-16.3 29.7c.13.53 1.08 16.44 1.12 17.95z"/><path d="M795.83 380.36l-.15-2.93c15.16-.76 21.48-3.42 37.08-20.73 3.13-3.82 5.65-6.55 7.67-8.74 5.72-6.2 6.6-7.15 5.68-16.18-1.2-11.82-29.93-217.35-34.66-243.64-2-11.14-12.6-20.14-24.66-20.87l.18-2.93c13.36.82 25.12 10.83 27.36 23.28 4.74 26.32 33.5 232 34.7 243.87 1 10-.26 11.76-6.44 18.46-2 2.16-4.48 4.86-7.6 8.67-16.23 18-23.3 20.95-39.15 21.74z"/><path d="M879 235.1l-5.6 7.52.67 4.68 5.62-7.53 7.55 5.64-.67-4.67-7.56-5.64z" opacity=".8"/><path d="M877.77 227.28l-5.62 7.5.68 4.68 5.62-7.52 7.55 5.64-.68-4.68-7.55-5.63z" opacity=".9"/><path d="M876.65 219.3l-5.6 7.52.68 4.67 5.6-7.52 7.55 5.64-.68-4.68-7.55-5.63z"/><path d="M874.45 250l.68 4.67 5.6-7.52 7.55 5.63-.67-4.67-7.55-5.63-5.62 7.52z" opacity=".7"/><path d="M875.52 257.38l.68 4.68 5.62-7.53 7.54 5.64-.68-4.68-7.55-5.63-5.6 7.52z" opacity=".6"/></g><path d="M892.2 277l-4.66.66-.67-4.65 4.66-.67z" fill="#010101"/><path d="M891.54 272.3l-4.66.67-.67-4.66 4.66-.66z" fill="#fff"/><path d="M890.87,267.64l-4.66.66-.67-4.66,4.66-.67Z" fill="#010101"/><path d="M887.6 277.6l-4.66.67-.67-4.66 4.66-.67zm-1.34-9.3l-4.67.67-.66-4.66 4.65-.66z" fill="#fff"/><path d="M887 273l-4.65.66-.68-4.66 4.67-.66zm-4 5.27l-4.65.67-.67-4.65 4.66-.68z" fill="#010101"/><path d="M882.3 273.6l-4.66.68-.67-4.67 4.65-.67z" fill="#fff"/><path d="M881.63,269l-4.65.67-.67-4.65,4.66-.67Z" fill="#010101"/><path d="M878.36 278.93l-4.66.67-.67-4.66 4.66-.66zm-1.36-9.3l-4.66.67-.67-4.66 4.66-.67z" fill="#fff"/><path d="M877.73 274.27l-4.66.67-.67-4.66 4.66-.66zm-3.9 5.48l-4.65.66-.67-4.65 4.66-.67z" fill="#010101"/><path d="M873.18 275.1l-4.66.67-.67-4.66 4.66-.67z" fill="#fff"/><path d="M872.5 270.43l-4.66.67-.67-4.65 4.66-.68z" fill="#010101"/><g fill="#fff"><path d="M838.2 51.62h-2.66v-2.85h8.7v2.85h-2.88v8.13h-3.16zm12.15-2.85v11h-3.1v-8l-1.8.55-.7-2.63 3.1-.94zm-75.1 34.53h-2.66v-2.85h8.7v2.85h-2.87v8.13h-3.17zm15.14 5.46v2.66h-8.2V90.3a3.8 3.8 0 0 1 .8-2.3 8.89 8.89 0 0 1 2.2-2l1-.65a5.36 5.36 0 0 0 .6-.46 1.3 1.3 0 0 0 .29-.37 1.1 1.1 0 0 0 .08-.43 1 1 0 0 0-.24-.72.93.93 0 0 0-.67-.24c-.63 0-1 .42-1 1.26h-3.08a4.07 4.07 0 0 1 1.11-3.06 4.88 4.88 0 0 1 5.95-.17 3.3 3.3 0 0 1 1.05 2.61 3.68 3.68 0 0 1-.19 1.2 3.36 3.36 0 0 1-.55 1 4.79 4.79 0 0 1-.89.84l-1.25.86-.93.6a5.69 5.69 0 0 0-.71.53zm-38.12-72.23h-2.67v-2.86h8.7v2.86h-2.87v8.13h-3.16zM765.76 19a2.94 2.94 0 0 1 1.24 1 2.74 2.74 0 0 1 .42 1.53 2.88 2.88 0 0 1-1.16 2.47 4 4 0 0 1-1.31.67 5.57 5.57 0 0 1-1.67.24 4.2 4.2 0 0 1-3-1 4.13 4.13 0 0 1-1.17-2.93h3a1.22 1.22 0 0 0 .31.86 1 1 0 0 0 .78.31 1.26 1.26 0 0 0 .82-.26 1 1 0 0 0 .31-.73.87.87 0 0 0-.3-.7 1.26 1.26 0 0 0-.83-.25h-1.1V18h1c.73 0 1.1-.3 1.1-.9a.87.87 0 0 0-.28-.67 1.15 1.15 0 0 0-.77-.24 1.06 1.06 0 0 0-.79.29 1.12 1.12 0 0 0-.32.8h-2.9a4.36 4.36 0 0 1 .36-1.57 3.5 3.5 0 0 1 .85-1.19 4.06 4.06 0 0 1 1.3-.75 5.55 5.55 0 0 1 3.26 0 3.77 3.77 0 0 1 1.23.64 2.84 2.84 0 0 1 .78 1 2.9 2.9 0 0 1 .28 1.29 2.49 2.49 0 0 1-1.44 2.3zm-50.2 84h-2.66v-2.86h8.7V103h-2.87v8.13h-3.17zm15.02 6.47h-1.2v1.67h-3.1v-1.67h-4.88v-2.4l4.58-6.92h3.4v6.76h1.2zm-6.2-2.56h2.2v-3.46zm20.45 107.6h-2.66v-2.86h8.7v2.86H748v8.13h-3.17zm12.1.83a3.67 3.67 0 0 1 1.42.27 3.13 3.13 0 0 1 1.12.76 3.68 3.68 0 0 1 .73 1.17 4.13 4.13 0 0 1 .26 1.47 4 4 0 0 1-.3 1.58 3.41 3.41 0 0 1-.87 1.22 3.92 3.92 0 0 1-1.34.77 5.44 5.44 0 0 1-1.77.27 4.17 4.17 0 0 1-2.93-1 3.77 3.77 0 0 1-1.18-2.76h3a1.13 1.13 0 0 0 .36.72 1.08 1.08 0 0 0 .75.27 1.07 1.07 0 0 0 .84-.35 1.37 1.37 0 0 0 0-1.78 1.15 1.15 0 0 0-.84-.35 1.17 1.17 0 0 0-.58.15 1.32 1.32 0 0 0-.44.41h-2.84v-6.52h7.56v2.66h-4.62v1.4a3.71 3.71 0 0 1 1.67-.37zM561 207.72h-2.66v-2.86H567v2.86h-2.87v8.12H561zm11.3.44a3.46 3.46 0 0 1 1.27.42 4 4 0 0 1 1 .83 3.86 3.86 0 0 1 .91 2.53 4.09 4.09 0 0 1-1.25 2.93 4.13 4.13 0 0 1-1.35.87 4.45 4.45 0 0 1-1.68.32 4.26 4.26 0 0 1-3-1.22 4.15 4.15 0 0 1-1.21-3 4.2 4.2 0 0 1 .06-.72 4.84 4.84 0 0 1 .22-.72 4.72 4.72 0 0 1 .4-.82c.16-.3.37-.62.62-1l2.5-3.74h3.64zm-1.08 5.1a1.19 1.19 0 0 0 .9-.37 1.25 1.25 0 0 0 .36-.92 1.23 1.23 0 0 0-1.26-1.27 1.18 1.18 0 0 0-.88.36 1.23 1.23 0 0 0-.36.91 1.25 1.25 0 0 0 .36.92 1.15 1.15 0 0 0 .88.37zM386.27 118.9h-2.66V116h8.7v2.85h-2.88V127h-3.16zM401 116v2.6l-4 8.4h-3.38l4.1-8.2h-4.6V116zm-74.23 73.73h-2.66v-2.85h8.7v2.85h-2.87v8.13h-3.17zm14 2.4a2.79 2.79 0 0 1 1.55 2.66 3 3 0 0 1-.29 1.36 2.94 2.94 0 0 1-.85 1 4.25 4.25 0 0 1-1.35.66 6.33 6.33 0 0 1-1.8.23 5 5 0 0 1-3.14-.88 2.87 2.87 0 0 1-1.14-2.41 3.07 3.07 0 0 1 .4-1.59 2.88 2.88 0 0 1 1.14-1.07 2.71 2.71 0 0 1-1-1 2.77 2.77 0 0 1-.34-1.36 2.76 2.76 0 0 1 1.11-2.26 3.87 3.87 0 0 1 1.29-.62 5.84 5.84 0 0 1 1.68-.22 6 6 0 0 1 1.69.22 3.69 3.69 0 0 1 1.29.62 3 3 0 0 1 .82 1 2.83 2.83 0 0 1 .28 1.28 2.67 2.67 0 0 1-.34 1.36 2.71 2.71 0 0 1-1 1.02zm-2.77 3.64a1.24 1.24 0 0 0 .86-.31 1.08 1.08 0 0 0 .33-.82 1.18 1.18 0 0 0-.32-.85 1.14 1.14 0 0 0-.85-.32 1.22 1.22 0 0 0-.88.33 1.17 1.17 0 0 0-.33.86 1 1 0 0 0 .33.8 1.21 1.21 0 0 0 .86.31zm0-6.78a1.13 1.13 0 0 0-.79.29 1 1 0 0 0-.31.73 1 1 0 0 0 1.08 1.07 1.07 1.07 0 0 0 .78-.3 1 1 0 0 0 .3-.77 1 1 0 0 0-1.01-1zm-82.92-47.2h-2.66v-2.86h8.7v2.86h-2.87v8.13h-3.17zm9.92 4.82a3.46 3.46 0 0 1-1.27-.42 3.87 3.87 0 0 1-1-.84 3.66 3.66 0 0 1-.67-1.15 3.91 3.91 0 0 1-.24-1.37 4 4 0 0 1 .34-1.62 4.14 4.14 0 0 1 .9-1.31 4.28 4.28 0 0 1 1.36-.87 4.45 4.45 0 0 1 1.68-.32 4.2 4.2 0 0 1 1.66.33 4.09 4.09 0 0 1 1.33.89 3.94 3.94 0 0 1 .89 1.33 4.12 4.12 0 0 1 .33 1.65 4 4 0 0 1-.06.71 4.61 4.61 0 0 1-.22.73 5.17 5.17 0 0 1-.4.83c-.16.3-.37.62-.62 1l-2.5 3.74h-3.6zm1.07-5.1a1.17 1.17 0 0 0-.89.37 1.25 1.25 0 0 0-.36.92 1.23 1.23 0 0 0 .36.91 1.2 1.2 0 0 0 .89.36 1.18 1.18 0 0 0 .89-.36 1.22 1.22 0 0 0 .35-.91 1.24 1.24 0 0 0-.35-.92 1.16 1.16 0 0 0-.85-.37zM116.6 342.54H114v-2.86h8.7v2.86h-2.88v8.12h-3.16zm12.15-2.86v11h-3.1v-8l-1.8.55-.7-2.62 3.1-.95zm7.5 11.2a6.49 6.49 0 0 1-2.37-.43 5.57 5.57 0 0 1-1.86-1.18 5.24 5.24 0 0 1-1.21-1.81 6.21 6.21 0 0 1 0-4.59 5.1 5.1 0 0 1 1.21-1.8 5.57 5.57 0 0 1 1.86-1.18 6.49 6.49 0 0 1 2.37-.42 6.39 6.39 0 0 1 2.36.42 5.72 5.72 0 0 1 1.87 1.18 5.24 5.24 0 0 1 1.21 1.8 6.34 6.34 0 0 1 0 4.59 5.38 5.38 0 0 1-1.21 1.81 5.72 5.72 0 0 1-1.87 1.18 6.4 6.4 0 0 1-2.36.43zm0-2.86a2.67 2.67 0 0 0 1.08-.21 2.31 2.31 0 0 0 .84-.6 2.85 2.85 0 0 0 .56-.9 3.27 3.27 0 0 0 .2-1.15 3.14 3.14 0 0 0-.2-1.12 2.92 2.92 0 0 0-.57-.91 2.37 2.37 0 0 0-.84-.59 2.53 2.53 0 0 0-1.07-.22 2.5 2.5 0 0 0-1.07.22 2.41 2.41 0 0 0-.85.59 2.73 2.73 0 0 0-.56.91 2.94 2.94 0 0 0-.21 1.12 3.06 3.06 0 0 0 .21 1.15 2.68 2.68 0 0 0 .56.9 2.43 2.43 0 0 0 .85.6 2.65 2.65 0 0 0 1.08.19zm5.22 54.43h-2.66v-2.86h8.7v2.86h-2.87v8.13h-3.17zm12.14-2.85v11h-3.1v-8l-1.8.56-.7-2.63 3.08-1zm6.75 0v11h-3.1v-8l-1.8.56-.7-2.63 3.08-1zm58.03 12.52h-2.66v-2.85h8.7v2.85h-2.88v8.13h-3.16zm12.13-2.85v11h-3.1v-8l-1.8.55-.7-2.63 3.1-.94zm9.9 8.33v2.66h-8.2v-1.12a3.7 3.7 0 0 1 .8-2.35 8.71 8.71 0 0 1 2.2-1.95l1-.65a5.11 5.11 0 0 0 .59-.46 1.19 1.19 0 0 0 .3-.37 1.1 1.1 0 0 0 .08-.43.93.93 0 0 0-.25-.72.89.89 0 0 0-.66-.24c-.64 0-.95.42-.95 1.26h-3.1a4.1 4.1 0 0 1 1.11-3.06 4.89 4.89 0 0 1 6-.17 3.3 3.3 0 0 1 1.05 2.61 3.68 3.68 0 0 1-.19 1.2 3.36 3.36 0 0 1-.55.95 4.88 4.88 0 0 1-.9.84l-1.24.86-.94.6a7.71 7.71 0 0 0-.71.53zM292 509h-2.66v-2.86h8.7V509h-2.84v8.12H292zm12.18-2.87v11h-3.1v-8l-1.8.55-.7-2.62 3.08-.95zm8.24 5.37a2.88 2.88 0 0 1 1.24 1 2.74 2.74 0 0 1 .42 1.53 2.92 2.92 0 0 1-.3 1.33 3 3 0 0 1-.86 1 4 4 0 0 1-1.31.67 5.52 5.52 0 0 1-1.67.24 4.23 4.23 0 0 1-3-1 4.08 4.08 0 0 1-1.16-2.93h3a1.23 1.23 0 0 0 .31.86 1 1 0 0 0 .78.31 1.21 1.21 0 0 0 .82-.27 1 1 0 0 0 0-1.42 1.26 1.26 0 0 0-.84-.25h-1.06v-2.2h1c.73 0 1.1-.3 1.1-.9a.82.82 0 0 0-.28-.67 1.13 1.13 0 0 0-.77-.25 1.08 1.08 0 0 0-.79.3 1.11 1.11 0 0 0-.32.8h-2.9a4.36 4.36 0 0 1 .36-1.57 3.41 3.41 0 0 1 .85-1.19 3.73 3.73 0 0 1 1.3-.75 4.94 4.94 0 0 1 1.68-.26 5 5 0 0 1 1.59.23 3.54 3.54 0 0 1 1.22.64 2.8 2.8 0 0 1 .78 1 3 3 0 0 1 .28 1.29 2.48 2.48 0 0 1-1.47 2.46zM292 253.48h-2.67v-2.86h8.7v2.86h-2.84v8.13H292zm12.18-2.86v11h-3.1v-8l-1.8.56-.7-2.63 3.1-.95z"/><path d="M314.93 259.94h-1.2v1.67h-3.1v-1.67h-4.87v-2.4l4.58-6.93h3.4v6.76h1.2zm-6.18-2.56h2.2v-3.46zM445.9 291.7h-2.67v-2.85h8.7v2.85h-2.87v8.13h-3.16zm12.1-2.84v11h-3.1v-8l-1.8.55-.7-2.63 3.08-.94zm6.9 3.7a3.9 3.9 0 0 1 1.42.26 3.37 3.37 0 0 1 1.12.76 3.49 3.49 0 0 1 .72 1.17 3.94 3.94 0 0 1 .26 1.48 4 4 0 0 1-.3 1.57 3.42 3.42 0 0 1-.86 1.22 3.9 3.9 0 0 1-1.35.77 5.37 5.37 0 0 1-1.76.27 4.26 4.26 0 0 1-2.94-1 3.81 3.81 0 0 1-1.22-2.75h3a1.22 1.22 0 0 0 .37.73 1.06 1.06 0 0 0 .74.26 1.09 1.09 0 0 0 .85-.35 1.25 1.25 0 0 0 .33-.9 1.21 1.21 0 0 0-.34-.88 1.12 1.12 0 0 0-.84-.35 1.16 1.16 0 0 0-.57.15 1.43 1.43 0 0 0-.44.41h-2.84v-6.5h7.56v2.66h-4.62v1.4a3.7 3.7 0 0 1 1.71-.37zm36 15.95h-2.66v-2.86H507v2.86h-2.87v8.13h-3.17zm12.16-2.86v11H510v-8l-1.8.56-.7-2.63 3.08-.95zm6.84 3.3a3.66 3.66 0 0 1 1.27.42 3.71 3.71 0 0 1 1 .84 3.66 3.66 0 0 1 .67 1.15 3.91 3.91 0 0 1 .24 1.37 3.83 3.83 0 0 1-.34 1.62 4 4 0 0 1-2.26 2.18 4.45 4.45 0 0 1-1.68.32 4.2 4.2 0 0 1-1.66-.33 4.09 4.09 0 0 1-1.33-.89 3.94 3.94 0 0 1-.89-1.33 4.12 4.12 0 0 1-.33-1.65 3.23 3.23 0 0 1 .07-.71 3.69 3.69 0 0 1 .21-.73 5.57 5.57 0 0 1 .4-.82l.63-1 2.5-3.74h3.6zm-1.07 5.06a1.19 1.19 0 0 0 .9-.37 1.24 1.24 0 0 0 .35-.92 1.22 1.22 0 0 0-1.25-1.27 1.18 1.18 0 0 0-.89.36 1.22 1.22 0 0 0-.35.91 1.24 1.24 0 0 0 .35.92 1.16 1.16 0 0 0 .89.37zm-40.3 81.22h-2.66v-2.86h8.7v2.86h-2.87v8.13h-3.17zm12.15-2.86v11h-3.1v-8l-1.8.56-.7-2.63 3.08-.95zm9.48 0V395l-4 8.4h-3.36l4.1-8.2h-4.6v-2.8zm101.46 7.52H599V397h8.7v2.85h-2.87V408h-3.17zm12.15-2.88v11h-3.1v-8l-1.8.55-.7-2.63 3.08-.94zm8.76 5.27a2.8 2.8 0 0 1 1.55 2.66 3.19 3.19 0 0 1-.29 1.36 2.82 2.82 0 0 1-.85 1 4 4 0 0 1-1.36.67 6.58 6.58 0 0 1-1.79.23 5 5 0 0 1-3.14-.88 2.88 2.88 0 0 1-1.14-2.41 3.11 3.11 0 0 1 .39-1.6 2.82 2.82 0 0 1 1.15-1.06 2.87 2.87 0 0 1-1-1 2.68 2.68 0 0 1-.34-1.37 2.82 2.82 0 0 1 .28-1.27 2.77 2.77 0 0 1 .83-1 4.08 4.08 0 0 1 1.29-.63 6.21 6.21 0 0 1 1.68-.22 6.35 6.35 0 0 1 1.69.22 4.08 4.08 0 0 1 1.29.63 2.79 2.79 0 0 1 1.1 2.25 2.78 2.78 0 0 1-.34 1.37 3 3 0 0 1-1 1.05zm-2.74 3.63a1.17 1.17 0 0 0 .85-.31 1 1 0 0 0 .34-.81 1.15 1.15 0 0 0-.33-.85 1.13 1.13 0 0 0-.85-.33 1.2 1.2 0 0 0-.87.34 1.16 1.16 0 0 0-.33.85 1 1 0 0 0 .33.81 1.23 1.23 0 0 0 .86.3zm0-6.77a1.12 1.12 0 0 0-.78.29.92.92 0 0 0-.31.72 1.08 1.08 0 1 0 2.16 0 1 1 0 0 0-.3-.72 1.06 1.06 0 0 0-.76-.29zm-23.56-94.75h-2.66v-2.86h8.7v2.86h-2.88v8.12h-3.16zm12.14-2.86v11h-3.1v-8l-1.8.55-.7-2.62 3.1-1zm4.73 7.68a3.68 3.68 0 0 1-2.28-1.26 3.78 3.78 0 0 1-.67-1.15 4 4 0 0 1 1-4.31 4.39 4.39 0 0 1 3-1.19 4.38 4.38 0 0 1 1.66.32 4.25 4.25 0 0 1 1.33.89 4 4 0 0 1 .89 1.33 4.31 4.31 0 0 1 .27 2.37 4.94 4.94 0 0 1-.22.73 5.1 5.1 0 0 1-.4.82l-.63 1-2.5 3.73H611zm1.07-5.1a1.2 1.2 0 0 0-.89.36 1.27 1.27 0 0 0-.36.92 1.25 1.25 0 0 0 .36.92 1.2 1.2 0 0 0 .89.36 1.18 1.18 0 0 0 .89-.36 1.24 1.24 0 0 0 .35-.92 1.26 1.26 0 0 0-.35-.92 1.18 1.18 0 0 0-.89-.36zm59.83 9.06h-2.7v-2.86h8.7v2.86h-2.87v8.13H674zm15.1 5.47v2.66h-8.2v-1.13a3.75 3.75 0 0 1 .8-2.34 8.89 8.89 0 0 1 2.2-1.95l1-.65a6.9 6.9 0 0 0 .6-.46 1.25 1.25 0 0 0 .29-.37 1.14 1.14 0 0 0 .08-.43 1 1 0 0 0-.87-.96c-.63 0-1 .42-1 1.25h-3.08a4.14 4.14 0 0 1 1.11-3.06 4.88 4.88 0 0 1 6-.17 3.3 3.3 0 0 1 1 2.61 3.36 3.36 0 0 1-.19 1.2 3.19 3.19 0 0 1-.55 1 5.55 5.55 0 0 1-.89.84l-1.24.86-.94.6a4.85 4.85 0 0 0-.71.53zm6.9 2.87a6.49 6.49 0 0 1-2.37-.42 5.6 5.6 0 0 1-1.86-1.19 5.26 5.26 0 0 1-1.22-1.8 6.34 6.34 0 0 1 0-4.59 5.21 5.21 0 0 1 1.22-1.81 5.55 5.55 0 0 1 1.86-1.17 6.29 6.29 0 0 1 2.37-.43 6.2 6.2 0 0 1 2.36.43 5.55 5.55 0 0 1 1.86 1.17 5.08 5.08 0 0 1 1.22 1.81 6.34 6.34 0 0 1 0 4.59 5.13 5.13 0 0 1-1.22 1.8 5.6 5.6 0 0 1-1.86 1.19 6.39 6.39 0 0 1-2.36.42zm0-2.86a2.7 2.7 0 0 0 1.08-.21 2.41 2.41 0 0 0 .84-.59 2.9 2.9 0 0 0 .56-.91 3.32 3.32 0 0 0 0-2.27 2.77 2.77 0 0 0-.57-.9 2.49 2.49 0 0 0-.84-.6A2.72 2.72 0 0 0 696 313a2.65 2.65 0 0 0-1.07.21 2.43 2.43 0 0 0-.85.6 2.59 2.59 0 0 0-.56.9 3.17 3.17 0 0 0 0 2.27 2.73 2.73 0 0 0 .56.91 2.55 2.55 0 0 0 .85.59 2.65 2.65 0 0 0 1.07.16zm-29.73 86.2h-2.66V402h8.7v2.86h-2.87V413h-3.17zm15.13 5.46v2.7h-8.2v-1.13a3.75 3.75 0 0 1 .8-2.34 8.89 8.89 0 0 1 2.2-1.95l1-.65a5.63 5.63 0 0 0 .6-.46 1.16 1.16 0 0 0 .29-.38.93.93 0 0 0 .08-.42 1 1 0 0 0-.24-.73.93.93 0 0 0-.67-.23c-.63 0-1 .42-1 1.25h-3.08a4.14 4.14 0 0 1 1.11-3.06 4.2 4.2 0 0 1 3.08-1.1 4.15 4.15 0 0 1 2.87.93 3.3 3.3 0 0 1 1.05 2.61 3.36 3.36 0 0 1-.19 1.2 3.31 3.31 0 0 1-.55 1 4.82 4.82 0 0 1-.89.84l-1.24.85-.94.62a4.85 4.85 0 0 0-.71.53zm6.25-8.3v11h-3.1v-8l-1.8.56-.7-2.63 3.08-.95zm138.5 8.6h-2.66v-2.86h8.7v2.86h-2.87v8.12h-3.17zm15.14 5.47v2.66h-8.2v-1.12a3.75 3.75 0 0 1 .8-2.34 8.71 8.71 0 0 1 2.2-2l1-.65a4.2 4.2 0 0 0 .59-.46 1.19 1.19 0 0 0 .3-.37 1.08 1.08 0 0 0 .08-.42 1 1 0 0 0-.24-.73.93.93 0 0 0-.67-.24c-.64 0-.95.42-.95 1.26h-3.08a4.1 4.1 0 0 1 1.1-3.06 4.89 4.89 0 0 1 6-.17 3.3 3.3 0 0 1 1.05 2.61 3.6 3.6 0 0 1-.19 1.2 3.36 3.36 0 0 1-.55 1 4.56 4.56 0 0 1-.9.84c-.35.27-.77.56-1.24.86l-.93.6a5.69 5.69 0 0 0-.71.53zm9.23 0v2.66h-8.2v-1.12a3.69 3.69 0 0 1 .8-2.34 8.54 8.54 0 0 1 2.2-2l1-.65a4.2 4.2 0 0 0 .59-.46 1.35 1.35 0 0 0 .3-.37 1.08 1.08 0 0 0 .08-.42 1 1 0 0 0-.25-.73.9.9 0 0 0-.67-.24c-.63 0-.94.42-.94 1.26h-3.1a4.1 4.1 0 0 1 1.11-3.06 4.89 4.89 0 0 1 6-.17 3.3 3.3 0 0 1 1 2.61 3.61 3.61 0 0 1-.18 1.2 3.36 3.36 0 0 1-.55 1 4.56 4.56 0 0 1-.9.84l-1.24.86-.94.6a6.55 6.55 0 0 0-.71.53zm33.83-65.14h-2.66v-2.86h8.7v2.86h-2.87v8.12h-3.17zm15.14 5.47v2.66h-8.2v-1.12a3.74 3.74 0 0 1 .8-2.35 8.71 8.71 0 0 1 2.2-1.95l1-.65a4.2 4.2 0 0 0 .59-.46 1.35 1.35 0 0 0 .3-.37 1.1 1.1 0 0 0 .08-.43.94.94 0 0 0-.27-.72.9.9 0 0 0-.67-.24c-.63 0-.94.42-.94 1.26h-3.1a4.1 4.1 0 0 1 1.11-3.06 4.89 4.89 0 0 1 6-.17 3.3 3.3 0 0 1 1 2.61 3.61 3.61 0 0 1-.18 1.2 3.36 3.36 0 0 1-.55.95 4.56 4.56 0 0 1-.9.84l-1.24.86-.94.6a7.71 7.71 0 0 0-.71.53zm7.58-2.96a2.88 2.88 0 0 1 1.24 1 2.73 2.73 0 0 1 .42 1.52 3 3 0 0 1-.3 1.34 2.86 2.86 0 0 1-.86 1 4 4 0 0 1-1.31.67 5.52 5.52 0 0 1-1.67.24 4.19 4.19 0 0 1-3-1 4 4 0 0 1-1.16-2.92h2.95a1.23 1.23 0 0 0 .31.86 1 1 0 0 0 .78.31 1.21 1.21 0 0 0 .82-.27.9.9 0 0 0 .31-.73.88.88 0 0 0-.29-.69 1.26 1.26 0 0 0-.84-.25h-1.06v-2.2h1c.73 0 1.1-.3 1.1-.9a.82.82 0 0 0-.28-.67 1.13 1.13 0 0 0-.77-.25 1.08 1.08 0 0 0-.79.3 1.11 1.11 0 0 0-.32.8h-2.9a4.36 4.36 0 0 1 .36-1.57 3.32 3.32 0 0 1 .85-1.19 3.73 3.73 0 0 1 1.3-.75 4.94 4.94 0 0 1 1.68-.26 5 5 0 0 1 1.59.23 3.54 3.54 0 0 1 1.22.64 2.8 2.8 0 0 1 .78 1 3 3 0 0 1 .28 1.29 2.49 2.49 0 0 1-1.44 2.45z"/></g><path d="M588.3 144.44a4.29 4.29 0 0 1-3-1 3.94 3.94 0 0 1-1.23-2.83h1.46a2.72 2.72 0 0 0 .83 1.88 2.67 2.67 0 0 0 1.93.72 3 3 0 0 0 1.94-.57 1.91 1.91 0 0 0 .72-1.57 1.77 1.77 0 0 0-.42-1.24 4 4 0 0 0-1.43-.86l-1.8-.68a4.78 4.78 0 0 1-2.08-1.38 3.24 3.24 0 0 1-.64-2.07 3 3 0 0 1 .27-1.29 3.08 3.08 0 0 1 .78-1 3.62 3.62 0 0 1 1.2-.64 4.7 4.7 0 0 1 1.54-.23 4 4 0 0 1 2.75.9 3.5 3.5 0 0 1 1.12 2.51h-1.45a2.27 2.27 0 0 0-.69-1.57 2.47 2.47 0 0 0-1.73-.57 2.64 2.64 0 0 0-1.69.51 1.63 1.63 0 0 0-.65 1.35 2 2 0 0 0 .44 1.33 3.61 3.61 0 0 0 1.44.92l1.83.7a4.72 4.72 0 0 1 2 1.3 3 3 0 0 1 .62 2 3.52 3.52 0 0 1-.28 1.44 3.08 3.08 0 0 1-.82 1.1 3.8 3.8 0 0 1-1.29.69 5.63 5.63 0 0 1-1.68.15zm6.7-12.6h7.15v1.3h-5.7v4H602v1.3h-5.53v4.52h5.9v1.3H595zm15.57 12.6A6.48 6.48 0 0 1 608 144a6.17 6.17 0 0 1-2-1.35 6.1 6.1 0 0 1-1.34-2 6.85 6.85 0 0 1 0-5.09 6 6 0 0 1 3.38-3.37 6.5 6.5 0 0 1 2.54-.49 7 7 0 0 1 2.18.33 5.77 5.77 0 0 1 1.79.94 5.3 5.3 0 0 1 1.32 1.47 5.54 5.54 0 0 1 .74 1.9h-1.55a4.42 4.42 0 0 0-.61-1.36 4.22 4.22 0 0 0-1-1 4.63 4.63 0 0 0-1.31-.67 5.3 5.3 0 0 0-1.56-.23 4.85 4.85 0 0 0-2 .39 4.92 4.92 0 0 0-1.57 1.07 5 5 0 0 0-1 1.6 5.45 5.45 0 0 0 0 4 5 5 0 0 0 1 1.61 4.92 4.92 0 0 0 1.57 1.07 5 5 0 0 0 2 .38 4.62 4.62 0 0 0 2.86-.89 4.29 4.29 0 0 0 1.6-2.42h1.55a5.67 5.67 0 0 1-.74 1.91 5.34 5.34 0 0 1-1.32 1.48 6 6 0 0 1-1.79.94 7 7 0 0 1-2.17.22zm10.95-11.3h-3.67v-1.3h8.9v1.3H623v11.1h-1.44zm12.68 11.3a6.43 6.43 0 0 1-4.58-1.84 6.32 6.32 0 0 1-1.35-2 6.8 6.8 0 0 1 0-5.07 6 6 0 0 1 1.35-2 6.14 6.14 0 0 1 2-1.34 6.55 6.55 0 0 1 2.55-.49 6.45 6.45 0 0 1 2.53.49 6.06 6.06 0 0 1 3.37 3.37 6.8 6.8 0 0 1 0 5.07 6.1 6.1 0 0 1-3.37 3.39 6.45 6.45 0 0 1-2.5.42zm0-1.35a4.77 4.77 0 0 0 4.55-3.07 5.52 5.52 0 0 0 .37-2 5.21 5.21 0 0 0-1.41-3.6 4.69 4.69 0 0 0-1.56-1.06 5.22 5.22 0 0 0-3.91 0 4.69 4.69 0 0 0-1.56 1.06 5.21 5.21 0 0 0-1.41 3.6 5.52 5.52 0 0 0 .37 2 4.82 4.82 0 0 0 2.6 2.69 5.07 5.07 0 0 0 1.96.38zm9.1-11.26h3.85a4 4 0 0 1 2.87 1 3.44 3.44 0 0 1 1 2.64 3.65 3.65 0 0 1-.73 2.34 3.51 3.51 0 0 1-2 1.24l3.52 5.22h-1.7l-3.37-5.1h-2v5.1h-1.44zm3.76 6a2.53 2.53 0 0 0 1.82-.62 2.58 2.58 0 0 0 0-3.45 2.56 2.56 0 0 0-1.84-.61h-2.34v4.68zm15.07-6v12.4h-1.44V133.3l-2.36.73-.35-1.25 2.9-1z" opacity=".5" fill="#fff"/><path d="M190.8 350.86a4.22 4.22 0 0 1-3-1 3.91 3.91 0 0 1-1.23-2.83H188a2.63 2.63 0 0 0 2.76 2.6 3 3 0 0 0 1.94-.57 1.91 1.91 0 0 0 .71-1.57 1.76 1.76 0 0 0-.41-1.23 3.83 3.83 0 0 0-1.43-.87l-1.8-.68a4.71 4.71 0 0 1-2.08-1.37 3.27 3.27 0 0 1-.64-2.08 3.11 3.11 0 0 1 .27-1.29 2.92 2.92 0 0 1 .78-1 3.68 3.68 0 0 1 1.19-.65 5.09 5.09 0 0 1 1.55-.23 4 4 0 0 1 2.75.91 3.51 3.51 0 0 1 1.12 2.5h-1.45a2.27 2.27 0 0 0-.69-1.56 2.47 2.47 0 0 0-1.73-.57 2.64 2.64 0 0 0-1.69.5 1.65 1.65 0 0 0-.65 1.36 2 2 0 0 0 .43 1.32 3.63 3.63 0 0 0 1.45.93l1.83.7a4.63 4.63 0 0 1 2 1.3 3 3 0 0 1 .62 2 3.53 3.53 0 0 1-.29 1.44 2.94 2.94 0 0 1-.82 1.09 3.47 3.47 0 0 1-1.29.69 5.56 5.56 0 0 1-1.64.16zm6.7-12.6h7.15v1.3H199v4h5.53v1.3H199v4.5h5.9v1.3h-7.35zm15.58 12.6a6.65 6.65 0 0 1-2.55-.48 6.33 6.33 0 0 1-2-1.35 6.14 6.14 0 0 1-1.34-2 6.83 6.83 0 0 1 0-5.08 6.14 6.14 0 0 1 1.34-2 6.26 6.26 0 0 1 2-1.35 6.64 6.64 0 0 1 2.54-.49 6.73 6.73 0 0 1 2.18.34 5.77 5.77 0 0 1 1.79.94 5.26 5.26 0 0 1 1.32 1.46 5.59 5.59 0 0 1 .74 1.91h-1.55a4.59 4.59 0 0 0-.61-1.37 4.18 4.18 0 0 0-2.29-1.7 5.3 5.3 0 0 0-1.56-.23 4.85 4.85 0 0 0-1.95.39 4.52 4.52 0 0 0-1.57 1.07 5 5 0 0 0-1 1.6 5.22 5.22 0 0 0-.38 2 5.29 5.29 0 0 0 .38 2 5 5 0 0 0 1 1.6 4.66 4.66 0 0 0 1.57 1.07 4.85 4.85 0 0 0 1.95.39 4.62 4.62 0 0 0 2.86-.9 4.26 4.26 0 0 0 1.6-2.42h1.55a5.73 5.73 0 0 1-.74 1.92 5.17 5.17 0 0 1-1.32 1.47 5.77 5.77 0 0 1-1.79.94 7 7 0 0 1-2.17.27zm10.92-11.3h-3.67v-1.3h8.9v1.3h-3.78v11.1H224zm12.7 11.3a6.63 6.63 0 0 1-2.53-.48 6.34 6.34 0 0 1-2-1.36 6.06 6.06 0 0 1-1.35-2 6.78 6.78 0 0 1 0-5.06 6.14 6.14 0 0 1 1.34-2 6.37 6.37 0 0 1 2-1.35 6.72 6.72 0 0 1 2.54-.49 6.64 6.64 0 0 1 2.54.49 6.44 6.44 0 0 1 2 1.35 6.14 6.14 0 0 1 1.34 2 6.78 6.78 0 0 1 0 5.06 6.18 6.18 0 0 1-1.34 2 6.3 6.3 0 0 1-2 1.36 6.64 6.64 0 0 1-2.54.48zm0-1.34a4.9 4.9 0 0 0 2-.39 4.84 4.84 0 0 0 2.6-2.68 5.54 5.54 0 0 0 .37-2 5.26 5.26 0 0 0-.38-2 5.12 5.12 0 0 0-1-1.6 4.55 4.55 0 0 0-1.56-1.06 5.22 5.22 0 0 0-3.91 0 4.55 4.55 0 0 0-1.56 1.06 5.12 5.12 0 0 0-1 1.6 5.26 5.26 0 0 0-.38 2 5.54 5.54 0 0 0 .37 2 4.84 4.84 0 0 0 4.55 3.07zm9.1-11.26h3.85a4.08 4.08 0 0 1 2.87 1 3.46 3.46 0 0 1 1 2.65 3.64 3.64 0 0 1-.73 2.33 3.56 3.56 0 0 1-2 1.25l3.52 5.2h-1.7l-3.37-5.1h-2v5.1h-1.43zm3.76 6a2.57 2.57 0 0 0 1.82-.62 2.23 2.23 0 0 0 .67-1.74 2.26 2.26 0 0 0-.65-1.72 2.6 2.6 0 0 0-1.84-.6h-2.34v4.68zm19.52 5.1v1.3H261v-.74a4.19 4.19 0 0 1 .33-1.7 5.12 5.12 0 0 1 .82-1.33 6.56 6.56 0 0 1 1.1-1l1.13-.77 1.38-.86a5.91 5.91 0 0 0 .93-.73 2.3 2.3 0 0 0 .53-.78 2.54 2.54 0 0 0 .16-1 2.27 2.27 0 0 0-.66-1.79 2.53 2.53 0 0 0-3.38.12 2.6 2.6 0 0 0-.68 1.87h-1.47a4.16 4.16 0 0 1 .29-1.61 3.65 3.65 0 0 1 .79-1.25 3.52 3.52 0 0 1 1.22-.79 4.57 4.57 0 0 1 1.61-.28 4.72 4.72 0 0 1 1.53.25 3.49 3.49 0 0 1 1.2.73 3.32 3.32 0 0 1 .77 1.16 4.17 4.17 0 0 1 .28 1.53 3.78 3.78 0 0 1-.25 1.41 3.86 3.86 0 0 1-.71 1.09 6.19 6.19 0 0 1-1.09.91l-1.36.9-1.16.77a6.67 6.67 0 0 0-.87.76 3.32 3.32 0 0 0-.6.82 3.23 3.23 0 0 0-.32 1z" opacity=".5" fill="#fff"/><path d="M694 433.1a4.24 4.24 0 0 1-3-1 3.92 3.92 0 0 1-1.23-2.83h1.46a2.7 2.7 0 0 0 .83 1.88 2.67 2.67 0 0 0 1.93.72 3 3 0 0 0 1.94-.57 1.89 1.89 0 0 0 .72-1.57 1.77 1.77 0 0 0-.42-1.23 3.83 3.83 0 0 0-1.43-.87l-1.8-.68a4.86 4.86 0 0 1-2.08-1.37 3.27 3.27 0 0 1-.64-2.08 3.11 3.11 0 0 1 .27-1.29 2.92 2.92 0 0 1 .78-1 3.63 3.63 0 0 1 1.2-.65 5 5 0 0 1 1.54-.23 4 4 0 0 1 2.75.91 3.51 3.51 0 0 1 1.12 2.5h-1.45a2.27 2.27 0 0 0-.69-1.56 2.47 2.47 0 0 0-1.73-.57 2.64 2.64 0 0 0-1.69.5 1.65 1.65 0 0 0-.65 1.36 2 2 0 0 0 .44 1.32 3.51 3.51 0 0 0 1.44.93l1.83.7a4.63 4.63 0 0 1 2 1.3 3 3 0 0 1 .62 2 3.52 3.52 0 0 1-.28 1.44 3.17 3.17 0 0 1-.82 1.09 3.8 3.8 0 0 1-1.29.69 5.63 5.63 0 0 1-1.68.16zm6.68-12.6h7.15v1.3h-5.7v4h5.53v1.3h-5.53v4.5H708v1.3h-7.35zm15.57 12.6a6.65 6.65 0 0 1-2.55-.48 6.33 6.33 0 0 1-2-1.35 6.14 6.14 0 0 1-1.34-2 6.85 6.85 0 0 1 0-5.09 6.1 6.1 0 0 1 1.34-2 6.26 6.26 0 0 1 2-1.35 7 7 0 0 1 4.72-.15 5.77 5.77 0 0 1 1.79.94 5.26 5.26 0 0 1 1.32 1.46 5.59 5.59 0 0 1 .74 1.91h-1.55a4.48 4.48 0 0 0-.61-1.37 4.18 4.18 0 0 0-2.29-1.7 5.3 5.3 0 0 0-1.56-.23 4.85 4.85 0 0 0-1.95.39 4.52 4.52 0 0 0-1.57 1.07 4.86 4.86 0 0 0-1 1.6 5.22 5.22 0 0 0-.38 2 5.33 5.33 0 0 0 .38 2 5 5 0 0 0 1 1.6 4.66 4.66 0 0 0 1.57 1.07 4.85 4.85 0 0 0 1.95.39 4.62 4.62 0 0 0 2.86-.9 4.26 4.26 0 0 0 1.6-2.42h1.55a5.73 5.73 0 0 1-.74 1.92 5.17 5.17 0 0 1-1.32 1.47 5.77 5.77 0 0 1-1.79.94 7 7 0 0 1-2.17.28zm10.95-11.3h-3.67v-1.3h8.9v1.3h-3.78v11.1h-1.44zm12.67 11.3a6.64 6.64 0 0 1-2.54-.48 6.19 6.19 0 0 1-3.39-3.4 6.41 6.41 0 0 1-.49-2.53 6.5 6.5 0 0 1 .49-2.54 6 6 0 0 1 1.35-2 6.33 6.33 0 0 1 2-1.35 6.73 6.73 0 0 1 2.55-.49 6.63 6.63 0 0 1 2.53.49 6.33 6.33 0 0 1 2 1.35 6.1 6.1 0 0 1 1.34 2 6.5 6.5 0 0 1 .49 2.54 6.41 6.41 0 0 1-.49 2.53 6.29 6.29 0 0 1-1.34 2 6.19 6.19 0 0 1-2 1.36 6.63 6.63 0 0 1-2.5.52zm0-1.34a4.8 4.8 0 0 0 4.55-3.07 5.54 5.54 0 0 0 .37-2 5.26 5.26 0 0 0-.38-2 5.12 5.12 0 0 0-1-1.6 4.55 4.55 0 0 0-1.56-1.06 5.22 5.22 0 0 0-3.91 0 4.55 4.55 0 0 0-1.56 1.06 5.12 5.12 0 0 0-1 1.6 5.26 5.26 0 0 0-.38 2 5.54 5.54 0 0 0 .37 2 4.84 4.84 0 0 0 4.56 3.07zM749 420.5h3.85a4.08 4.08 0 0 1 2.87 1 3.46 3.46 0 0 1 1 2.65 3.64 3.64 0 0 1-.73 2.33 3.46 3.46 0 0 1-2 1.24l3.52 5.22h-1.7l-3.37-5.1h-2v5.1H749zm3.76 6a2.57 2.57 0 0 0 1.82-.62 2.23 2.23 0 0 0 .67-1.74 2.26 2.26 0 0 0-.65-1.72 2.6 2.6 0 0 0-1.84-.61h-2.34v4.7zm17.54-.13a3.1 3.1 0 0 1 1.45 1.15 3.22 3.22 0 0 1 .51 1.83 3.65 3.65 0 0 1-.32 1.51 3.36 3.36 0 0 1-.86 1.18 4 4 0 0 1-1.32.79 4.76 4.76 0 0 1-1.67.28 4.91 4.91 0 0 1-1.62-.26 3.48 3.48 0 0 1-2.08-2 4.68 4.68 0 0 1-.33-1.63h1.45a2.7 2.7 0 0 0 .73 1.86 2.43 2.43 0 0 0 1.82.7 3.21 3.21 0 0 0 1.1-.18 2.51 2.51 0 0 0 .86-.49 2.06 2.06 0 0 0 .55-.75 2.41 2.41 0 0 0 .19-1 2.08 2.08 0 0 0-.71-1.69 3 3 0 0 0-2-.61h-1.24v-1.3h1.2a2.44 2.44 0 0 0 1.7-.54 2.25 2.25 0 0 0 0-3.05 2.35 2.35 0 0 0-1.66-.54 2.52 2.52 0 0 0-1.71.57 2 2 0 0 0-.7 1.51h-1.44a3.18 3.18 0 0 1 .33-1.37 3.47 3.47 0 0 1 .83-1.09 3.88 3.88 0 0 1 1.22-.71 4.47 4.47 0 0 1 1.53-.26 4.51 4.51 0 0 1 1.51.24 3.42 3.42 0 0 1 1.16.68 2.88 2.88 0 0 1 .75 1 3.32 3.32 0 0 1 .27 1.35 3.25 3.25 0 0 1-.4 1.63 3 3 0 0 1-1.08 1.18z" opacity=".5" fill="#fff"/><path d="M864.44 78.08a3 3 0 0 1-2.12-.73 2.76 2.76 0 0 1-.87-2h1a1.93 1.93 0 0 0 .58 1.33 1.9 1.9 0 0 0 1.37.51 2.1 2.1 0 0 0 1.36-.41 1.32 1.32 0 0 0 .51-1.1 1.25 1.25 0 0 0-.29-.87 2.7 2.7 0 0 0-1-.61l-1.26-.5a3.35 3.35 0 0 1-1.47-1 2.35 2.35 0 0 1-.46-1.47 2.13 2.13 0 0 1 .2-.91 2 2 0 0 1 .55-.7 2.43 2.43 0 0 1 .84-.46 3.42 3.42 0 0 1 1.09-.16 2.83 2.83 0 0 1 1.94.63 2.49 2.49 0 0 1 .79 1.77h-1a1.61 1.61 0 0 0-.49-1.1 1.73 1.73 0 0 0-1.22-.41 1.86 1.86 0 0 0-1.19.36 1.15 1.15 0 0 0-.46 1 1.36 1.36 0 0 0 .31.93 2.43 2.43 0 0 0 1 .65l1.3.5a3.3 3.3 0 0 1 1.43.91 2.16 2.16 0 0 1 .44 1.39 2.37 2.37 0 0 1-.21 1 2.1 2.1 0 0 1-.57.78 2.73 2.73 0 0 1-.91.48 3.78 3.78 0 0 1-1.18.18zm4.73-8.88h1v3.6h4.46v-3.6h1v8.75h-1V73.7h-4.46v4.23h-1zm8.95 0h5v.92h-4v2.8H883v.92h-3.9V77h4.17v.92h-5.18zm12.1 6.52h-4l-.83 2.22h-1.08l3.34-8.75h1.1l3.33 8.75H891zm-3.6-.9h3.3l-1.65-4.5zm7.2-5.62h2.72a2.89 2.89 0 0 1 2 .68 2.43 2.43 0 0 1 .73 1.87 2.57 2.57 0 0 1-.51 1.64 2.5 2.5 0 0 1-1.42.88l2.48 3.68h-1.2l-2.38-3.6h-1.42v3.6h-1zm2.65 4.23a1.82 1.82 0 0 0 1.29-.44 1.6 1.6 0 0 0 .47-1.23 1.57 1.57 0 0 0-.46-1.21 1.83 1.83 0 0 0-1.3-.43h-1.65v3.3zm5.06-4.23h5v.92h-4v2.8h3.9v.92h-3.9V77h4.18v.92h-5.2zm9.35 8.88a3 3 0 0 1-2.13-.73 2.79 2.79 0 0 1-.86-2h1a1.94 1.94 0 0 0 .59 1.33 1.88 1.88 0 0 0 1.36.51 2.13 2.13 0 0 0 1.37-.41 1.32 1.32 0 0 0 .51-1.1 1.21 1.21 0 0 0-.3-.87 2.65 2.65 0 0 0-1-.61l-1.27-.5a3.37 3.37 0 0 1-1.46-1 2.29 2.29 0 0 1-.46-1.47 2.13 2.13 0 0 1 .2-.91 2.06 2.06 0 0 1 .54-.7 2.57 2.57 0 0 1 .85-.46 3.42 3.42 0 0 1 1.09-.16 2.85 2.85 0 0 1 1.94.63 2.53 2.53 0 0 1 .79 1.77h-1a1.57 1.57 0 0 0-.49-1.1 1.7 1.7 0 0 0-1.21-.41 1.88 1.88 0 0 0-1.2.36 1.17 1.17 0 0 0-.45 1 1.4 1.4 0 0 0 .3.93 2.56 2.56 0 0 0 1 .65l1.3.5a3.28 3.28 0 0 1 1.44.91 2.16 2.16 0 0 1 .43 1.39 2.37 2.37 0 0 1-.2 1 2.13 2.13 0 0 1-.58.78 2.55 2.55 0 0 1-.91.48 3.68 3.68 0 0 1-1.18.18z" opacity=".3" fill="#fff"/><g opacity=".3" fill="#fff"><path d="M85.25 288.93a3 3 0 0 1-2.12-.74 2.81 2.81 0 0 1-.87-2h1a1.93 1.93 0 0 0 .59 1.32 1.88 1.88 0 0 0 1.36.51 2.21 2.21 0 0 0 1.37-.4 1.36 1.36 0 0 0 .5-1.11 1.24 1.24 0 0 0-.29-.87 2.62 2.62 0 0 0-1-.61l-1.26-.48a3.4 3.4 0 0 1-1.47-1 2.31 2.31 0 0 1-.45-1.46 2.09 2.09 0 0 1 .19-.91 1.92 1.92 0 0 1 .55-.71 2.43 2.43 0 0 1 .84-.46 3.79 3.79 0 0 1 1.1-.16 2.76 2.76 0 0 1 1.93.64 2.5 2.5 0 0 1 .8 1.77H87a1.64 1.64 0 0 0-.49-1.11 1.7 1.7 0 0 0-1.21-.4 1.87 1.87 0 0 0-1.2.36 1.14 1.14 0 0 0-.45 1 1.45 1.45 0 0 0 .3.94 2.53 2.53 0 0 0 1 .65l1.3.5a3.25 3.25 0 0 1 1.43.92 2.08 2.08 0 0 1 .44 1.38 2.61 2.61 0 0 1-.2 1 2.21 2.21 0 0 1-.58.77 2.73 2.73 0 0 1-.91.49 4 4 0 0 1-1.17.18zM90 280h1v8.75h-1zm10 0v8.75h-1.15l-4.38-7.1v7.1h-1V280h1.17l4.3 7v-7zm10.43 4.48v2.34a4.05 4.05 0 0 1-1.63 1.58 4.86 4.86 0 0 1-2.26.53 5.1 5.1 0 0 1-1.9-.35 4.52 4.52 0 0 1-1.49-.95 4.29 4.29 0 0 1-1-1.43 4.72 4.72 0 0 1-.35-1.82 4.62 4.62 0 0 1 .35-1.8 4.32 4.32 0 0 1 1-1.42 4.52 4.52 0 0 1 1.44-.93 4.75 4.75 0 0 1 1.82-.34 4.68 4.68 0 0 1 1.37.19 3.89 3.89 0 0 1 1.14.55 3.59 3.59 0 0 1 .88.86 4 4 0 0 1 .55 1.14h-1.1a2.89 2.89 0 0 0-1.11-1.32 3.19 3.19 0 0 0-1.74-.47 3.52 3.52 0 0 0-1.39.27 3.25 3.25 0 0 0-1.11.73 3.45 3.45 0 0 0-.73 1.12 3.82 3.82 0 0 0-.26 1.42 3.77 3.77 0 0 0 .27 1.44 3.33 3.33 0 0 0 1.91 1.89 4.11 4.11 0 0 0 3.08-.06 3 3 0 0 0 1.27-1v-1.2h-2.94v-.92zm6.9 2.08h-4l-.83 2.22h-1.08l3.38-8.78h1.1l3.33 8.75h-1.06zm-3.62-.9h3.3l-1.65-4.5zm7.2-5.66h2.72a2.83 2.83 0 0 1 2 .69 2.4 2.4 0 0 1 .74 1.86 2.85 2.85 0 0 1-.2 1.08 2.27 2.27 0 0 1-1.42 1.35 3.36 3.36 0 0 1-1.14.19h-1.7v3.58h-1zm2.65 4.23a1.82 1.82 0 0 0 1.29-.44 1.6 1.6 0 0 0 .47-1.22 1.55 1.55 0 0 0-.46-1.21 1.79 1.79 0 0 0-1.3-.43h-1.65v3.3zm8.5 4.7a4.56 4.56 0 0 1-1.78-.35 4.35 4.35 0 0 1-2.4-2.39 4.88 4.88 0 0 1 0-3.58 4.53 4.53 0 0 1 .95-1.43 4.43 4.43 0 0 1 1.44-.94 4.75 4.75 0 0 1 3.58 0 4.39 4.39 0 0 1 1.43.94 4.53 4.53 0 0 1 .95 1.43 4.64 4.64 0 0 1-.95 5 4.42 4.42 0 0 1-1.43.95 4.61 4.61 0 0 1-1.79.37zm0-.95a3.31 3.31 0 0 0 1.38-.28 3.4 3.4 0 0 0 1.11-.75 3.35 3.35 0 0 0 .72-1.14 3.7 3.7 0 0 0 .26-1.42 3.6 3.6 0 0 0-.26-1.4 3.54 3.54 0 0 0-.73-1.14 3.1 3.1 0 0 0-1.1-.74 3.47 3.47 0 0 0-1.38-.27 3.54 3.54 0 0 0-1.38.27 3.06 3.06 0 0 0-1.09.74 3.54 3.54 0 0 0-.73 1.14 3.6 3.6 0 0 0-.27 1.4 3.9 3.9 0 0 0 .26 1.42 3.54 3.54 0 0 0 .73 1.14 3.46 3.46 0 0 0 2.48 1zm6.43-7.98h2.7a2.83 2.83 0 0 1 2 .69 2.4 2.4 0 0 1 .74 1.86 2.56 2.56 0 0 1-.52 1.65 2.45 2.45 0 0 1-1.42.87l2.48 3.68h-1.2l-2.38-3.58h-1.42v3.58h-1zm2.65 4.23a1.81 1.81 0 0 0 1.28-.44 1.56 1.56 0 0 0 .47-1.22 1.58 1.58 0 0 0-.45-1.21 1.82 1.82 0 0 0-1.3-.43h-1.65v3.3z"/><path d="M146.18 280h5v1h-4v2.8h3.9v.93h-3.9v3.18h4.17v.92h-5.2zm-60.93 24.53a3 3 0 0 1-2.12-.74 2.81 2.81 0 0 1-.87-2h1a1.93 1.93 0 0 0 .59 1.32 1.88 1.88 0 0 0 1.36.51 2.21 2.21 0 0 0 1.37-.4 1.36 1.36 0 0 0 .5-1.11 1.24 1.24 0 0 0-.29-.87 2.62 2.62 0 0 0-1-.61l-1.26-.48a3.4 3.4 0 0 1-1.47-1 2.31 2.31 0 0 1-.45-1.46 2.09 2.09 0 0 1 .19-.91 1.92 1.92 0 0 1 .55-.71 2.43 2.43 0 0 1 .84-.46 3.79 3.79 0 0 1 1.1-.16 2.76 2.76 0 0 1 1.93.64 2.5 2.5 0 0 1 .8 1.77H87a1.64 1.64 0 0 0-.49-1.11 1.7 1.7 0 0 0-1.21-.4 1.87 1.87 0 0 0-1.2.36 1.14 1.14 0 0 0-.45.95 1.45 1.45 0 0 0 .3.94 2.53 2.53 0 0 0 1 .65l1.3.5a3.25 3.25 0 0 1 1.43.92 2.08 2.08 0 0 1 .44 1.38 2.61 2.61 0 0 1-.2 1 2.21 2.21 0 0 1-.58.77 2.73 2.73 0 0 1-.91.49 4 4 0 0 1-1.17.23zm4.75-8.9h1v7.83h3.63v.92H90zm6.17 0h1v8.75h-1zm9.98 0v8.75H105l-4.38-7.1v7.1h-1v-8.75h1.17l4.3 7v-7zm10.47 4.45v2.34A4.05 4.05 0 0 1 115 304a4.87 4.87 0 0 1-2.27.53 5.08 5.08 0 0 1-1.89-.35 4.42 4.42 0 0 1-1.49-.95 4.31 4.31 0 0 1-1-1.43 4.72 4.72 0 0 1-.35-1.8 4.62 4.62 0 0 1 .34-1.8 4.2 4.2 0 0 1 1-1.41 4.38 4.38 0 0 1 1.44-.94 5 5 0 0 1 3.19-.15 4 4 0 0 1 1.14.55 3.39 3.39 0 0 1 .87.86 3.79 3.79 0 0 1 .56 1.14h-1.12a2.81 2.81 0 0 0-1.1-1.32 3.21 3.21 0 0 0-1.74-.47 3.48 3.48 0 0 0-1.39.27 3.25 3.25 0 0 0-1.11.73 3.45 3.45 0 0 0-.73 1.12 3.82 3.82 0 0 0-.26 1.42 3.77 3.77 0 0 0 .27 1.44 3.43 3.43 0 0 0 .75 1.14 3.37 3.37 0 0 0 1.15.75 4 4 0 0 0 1.49.27 3.92 3.92 0 0 0 1.6-.33 3 3 0 0 0 1.27-1.05V301h-2.94v-.92z"/></g><path d="M424 111.74v8.75h-1v-7.17l-2.77 7.17h-.95l-2.77-7.17v7.17h-1v-8.75h1.44l2.82 7.37 2.8-7.37zm2.43 0h5.05v.92h-4v2.8h3.9v.93h-3.9v3.18h4.17v.93h-5.2zm15.57 0v8.75h-1v-7.17l-2.77 7.17h-.95l-2.77-7.17v7.17h-1v-8.75h1.44l2.82 7.37 2.8-7.37zm6.4 8.9a4.61 4.61 0 0 1-1.79-.35 4.26 4.26 0 0 1-1.43-1 4.43 4.43 0 0 1-1-1.44 4.86 4.86 0 0 1 0-3.57 4.42 4.42 0 0 1 1-1.43 4.26 4.26 0 0 1 1.43-1 4.69 4.69 0 0 1 1.8-.35 4.61 4.61 0 0 1 1.79.35 4.36 4.36 0 0 1 1.43 1 4.42 4.42 0 0 1 .95 1.43 4.63 4.63 0 0 1-.95 5 4.36 4.36 0 0 1-1.43 1 4.61 4.61 0 0 1-1.8.36zm0-.95a3.36 3.36 0 0 0 2.48-1 3.44 3.44 0 0 0 .73-1.13 4 4 0 0 0 .26-1.43 3.6 3.6 0 0 0-.27-1.4 3.47 3.47 0 0 0-.72-1.13 3.36 3.36 0 0 0-1.1-.75 3.66 3.66 0 0 0-2.76 0 3.36 3.36 0 0 0-1.1.75 3.49 3.49 0 0 0-.73 1.13 3.79 3.79 0 0 0-.26 1.4 3.75 3.75 0 0 0 .26 1.43 3.28 3.28 0 0 0 .73 1.13 3.36 3.36 0 0 0 2.48 1zm6.4-7.94h2.72a2.82 2.82 0 0 1 2 .68 2.41 2.41 0 0 1 .73 1.86 2.62 2.62 0 0 1-.51 1.65 2.5 2.5 0 0 1-1.42.88l2.48 3.68h-1.2l-2.38-3.6h-1.4v3.6h-1zm2.65 4.22a1.81 1.81 0 0 0 1.29-.43 1.6 1.6 0 0 0 .47-1.23 1.55 1.55 0 0 0-.46-1.21 1.79 1.79 0 0 0-1.3-.43h-1.65V116zm5.07-4.22h1v8.75h-1zm8.55 6.52h-3.95l-.83 2.23h-1.08l3.34-8.75h1.1l3.33 8.75h-1.06zm-3.6-.9h3.3l-1.65-4.5zm7.2-5.62h1v7.82h3.62v.93h-4.64z" opacity=".3" fill="#fff"/></svg>