<svg xmlns="http://www.w3.org/2000/svg" viewBox="0 0 1062.67 537.87"><style><![CDATA[.K{mix-blend-mode:multiply}.O{fill:#fff}.P{opacity:.3}.Q{fill:#010101}.R{clip-path:url(#A)}]]></style><defs><clipPath id="A"><path d="M478.72 188.23h29.68v29.7h-29.68z" fill="none"/></clipPath><clipPath id="B"><path d="M465.5 176.47h56.14v42.9H465.5z" fill="none"/></clipPath></defs><g class="O"><path d="M401.68 401.35c-57.35 0-105.06-.52-150.14-1.64-33.37-.82-37-21.2-36.82-36.46.28-24-5.77-34.12-25.88-43.37-8-3.7-16.7-6.95-25.1-10.1-10.25-3.85-20.85-7.83-30.6-12.7-11-5.48-18.55-16.27-22.1-22.2-4.93-8.25-9.5-16.6-11.34-28a78.9 78.9 0 0 1 1.69-32.56c3.86-13.8 10.78-26.74 19-35.47 10.62-11.3 22.83-20.14 39.56-28.66 12-6.1 31.88-12.5 46.7-12.94 29.56-.87 60.36-1.3 94.18-1.3l69.6.5c8.58.1 17.44 4.5 24.3 12.06 5.25 5.78 10.37 16.67 11.42 24.3 1.43 10.37-2.95 21.46-4.9 25.75-4.58 10.1-11.12 17.1-19.53 24.5-7.76 6.84-21.94 14.2-32.24 14.64-30.57 1.36-57 2-83.35 2-14 0-28.05-.18-42.87-.54-5.05-.14-9.87 1.58-12.6 4.38-3.2 3.3-5.73 11.16-4.83 15 1.3 5.62 6.48 12.24 12.9 16.5 25.67 16.94 51.56 32.25 81.46 48.18 11.16 5.94 28 13.9 45.54 14.43 7.7.23 14.72.6 21.5 1 10 .53 19.4 1 29.86 1 6.2 0 12.24-.18 18.47-.54a17.2 17.2 0 0 0 12.67-6.54c5.62-6.8 7.88-18.06 6.2-30.9-1.37-10.38 1.88-22.6 8.68-32.66l20.53-31.16c15.46-23.8 28.8-44.37 49.4-69.65 7.45-9.14 19.67-14.9 27.88-17a71 71 0 0 1 17.23-1.94 80 80 0 0 1 10.27.64c11.8 1.57 24.56 6.65 39.06 15.54l25.3 15.5 223.4 134.53A11.62 11.62 0 0 0 862 317a8.7 8.7 0 0 0 7.22-3.38c1.4-2 1.58-4.55.55-7.46L860.15 278l-11.23-32.43c-1.5-4.06-4.8-5.32-14.93-8.72l-.55-.18c-10.43-3.5-24.7-8.28-32.6-22.32-3.36-6-6.2-15.33-4.95-22.82a57.35 57.35 0 0 1 11.84-26.3c5.38-6.44 15.3-12.14 24.12-13.87 6.1-1.2 13.42-.2 22.7 3.17l29.85 10.42c14.5 5 28.23 9.65 43.1 15.48l3.63 1.34c8.7 3.14 21.85 7.87 21 21.1-.94 15.18-2.67 30.4-4.35 45.1l-2.62 24.1c-.1 1.1-.1 2.53.52 3.22.47.53 2.27 1.77 8.6 1.82h.14c8.8.33 18.94 7.68 18.82 16.67l-2 47c-.58 12.22-6.26 26.92-13.8 35.74-6.2 7.25-23.36 24.12-48.6 24.15h-17.05c-46.54 0-89.1-.13-134.17-.27l-96.68-.2-259.24 1.17zM300.8 145.84l-93.9 1.28c-13.2.4-31.74 6.4-42.47 11.86-15.67 8-27 16.2-36.83 26.62-7.15 7.6-13.2 19-16.65 31.33a68.7 68.7 0 0 0-1.46 28.3c1.42 8.82 4.63 15.42 10.06 24.52 5.1 8.52 11.65 15.23 18 18.4 9.3 4.65 19.65 8.54 29.66 12.3 8.56 3.2 17.4 6.54 25.77 10.38 23.7 10.9 32 24.64 31.67 52.52-.27 23.74 13.25 26.06 27.1 26.4l149.9 1.63 259.23-1.18h19.7l77 .22 151.2.27c21.1 0 35.74-14.45 41-20.66 6.14-7.18 11-19.7 11.44-29.75l2-46.8c0-2.4-4.78-6.28-9.18-6.47-5.3 0-11.86-.7-15.84-5.12-2.45-2.72-3.47-6.37-3-10.84l2.65-24.27c1.66-14.57 3.38-29.65 4.3-44.57.3-4.95-4.23-7.43-14.48-11.13l-3.9-1.44c-14.66-5.75-28.27-10.4-42.68-15.32l-30-10.5c-7.44-2.7-13.15-3.6-17.38-2.76-6.68 1.3-14.42 5.73-18.4 10.5a46.85 46.85 0 0 0-9.65 21.55c-.8 4.8 1.36 12 3.8 16.3 5.58 9.92 15.16 13.77 27.1 17.77l.55.2c10.75 3.6 17.85 6 21.1 14.67 4.07 10.9 7.6 21.52 11.35 32.76l9.55 28c2.14 6 1.5 11.87-1.8 16.53a18.65 18.65 0 0 1-15.35 7.59 21.58 21.58 0 0 1-10.8-2.95c-77.1-44.8-148.26-88.45-223.6-134.66l-25.28-15.5c-13.32-8.14-24.82-12.8-35.2-14.15a68.6 68.6 0 0 0-9-.56 60.64 60.64 0 0 0-14.72 1.62c-7.28 1.9-17.12 6.88-22.68 13.7-20.22 24.86-33.43 45.2-48.72 68.78l-20.63 31.3c-5.48 8.1-8.12 17.75-7.06 25.8 2.08 15.8-.9 29.48-8.4 38.54A27.17 27.17 0 0 1 416.14 349c-6.42.37-12.65.55-19 .55-10.72 0-20.27-.5-30.38-1l-21.3-1c-19.6-.6-37.87-9.2-49.92-15.6-30.18-16.08-56.32-31.54-82.26-48.66-8.68-5.72-15.24-14.36-17.13-22.55-1.65-7.13 1.8-18.44 7.4-24.2 4.66-4.8 12.2-7.6 20-7.4l42.62.54c26.15 0 52.5-.63 82.9-2 7.75-.34 19.76-6.57 26.1-12.17 7.45-6.56 13.2-12.67 17.05-21.15 3.32-7.3 4.85-14.87 4.1-20.27-.85-6.16-5.4-15.1-8.93-18.95-4.94-5.45-11.32-8.74-17.07-8.8l-69.52-.5z"/><path d="M362.83 392.48h-.24v-1.9c6 0 13.1-2.1 19.92-4.2 6.12-1.88 12.45-3.82 18.07-4.14l49.56-2.42 24.1-1.23c17.7-1 36-1.95 54-2.1 61.2-.53 123.38.3 183.5 1.12l43.72.57 85.77-.66 52.92-.65c6.62-.2 13.46-.42 19.63-2.17 3.76-1.06 7.95-3.1 13.2-6.47a63.31 63.31 0 0 0 10.87-9c3.9-4 8.76-9.23 11.6-15.05 2.5-5.13 3.72-11.1 4.9-16.86l.7-3.34.9-4.15c2.42-11.16 4.7-21.7 5-33.1l1.9.05c-.33 11.58-2.74 22.7-5.07 33.47l-.9 4.14-.7 3.32c-1.2 5.9-2.43 12-5 17.32-3 6.07-8 11.5-12 15.56a65.06 65.06 0 0 1-11.2 9.23c-5.4 3.46-9.77 5.58-13.7 6.7-6.4 1.8-13.35 2-20.1 2.24h-.83c-15.07.48-31.65.7-52.14.66l-85.78.66q-21.88-.27-43.75-.58l-183.46-1.1c-18 .16-36.28 1.15-54 2.1l-24.13 1.24-4.34.2-45.2 2.22c-5.4.3-11.6 2.22-17.62 4.06-6.74 2.14-13.84 4.3-20.14 4.3zm-170.5 2.44h-2.66v-2.86h8.7v2.86h-2.87v8.13h-3.17zm12.16-2.86v11h-3.1v-8l-1.8.56-.7-2.63 3.08-.95zm-29.23-50.76h-2.66v-2.86h8.7v2.86h-2.87v8.13h-3.17zm15.13 5.47v2.66h-8.2v-1.13a3.75 3.75 0 0 1 .79-2.3 8.89 8.89 0 0 1 2.2-1.95l1-.65a5.63 5.63 0 0 0 .6-.46 1.16 1.16 0 0 0 .29-.38.93.93 0 0 0 .08-.42 1 1 0 0 0-.91-.96c-.63 0-.95.42-.95 1.25h-3.08a4.14 4.14 0 0 1 1.11-3.06 4.2 4.2 0 0 1 3.08-1.1 4.15 4.15 0 0 1 2.87.93 3.3 3.3 0 0 1 1.05 2.61 3.36 3.36 0 0 1-.19 1.2 3.19 3.19 0 0 1-.55 1 4.82 4.82 0 0 1-.89.84l-1.24.85-.94.62a4.85 4.85 0 0 0-.71.53zM65 225.86h-2.62V223h8.7v2.86H68.2V234H65zm13.53 2.5a2.94 2.94 0 0 1 1.24 1 2.74 2.74 0 0 1 .42 1.53 2.88 2.88 0 0 1-1.19 2.39 4.15 4.15 0 0 1-1.31.67 5.57 5.57 0 0 1-1.67.24 4.2 4.2 0 0 1-3-1 4.13 4.13 0 0 1-1.17-2.93h3a1.22 1.22 0 0 0 .31.86 1 1 0 0 0 .78.31 1.21 1.21 0 0 0 .82-.27.93.93 0 0 0 .31-.72.87.87 0 0 0-.3-.7 1.21 1.21 0 0 0-.83-.25h-1.07v-2.2h1c.73 0 1.1-.3 1.1-.9a.87.87 0 0 0-.28-.67 1.15 1.15 0 0 0-.77-.24 1.06 1.06 0 0 0-.79.29 1.11 1.11 0 0 0-.32.8h-2.9a4.57 4.57 0 0 1 .35-1.57 3.57 3.57 0 0 1 .86-1.19 3.73 3.73 0 0 1 1.3-.75 5.2 5.2 0 0 1 1.68-.26 5 5 0 0 1 1.58.23 3.59 3.59 0 0 1 1.23.64A2.95 2.95 0 0 1 80 226a2.5 2.5 0 0 1-1.47 2.37zm339.8-77.5h-2.66V148h8.7v2.85h-2.87V159h-3.17zm15.02 6.47h-1.2V159H429v-1.66h-4.88V155l4.6-6.92h3.4v6.75h1.2zm-6.2-2.57h2.2v-3.46zm-216.3 52.32h-2.66v-2.86h8.7v2.86H214v8.13h-3.17zm12.14.84a3.7 3.7 0 0 1 1.42.27 3.13 3.13 0 0 1 1.12.76 3.39 3.39 0 0 1 .72 1.17 3.92 3.92 0 0 1 .27 1.47 3.84 3.84 0 0 1-.31 1.58 3.38 3.38 0 0 1-.86 1.21 3.92 3.92 0 0 1-1.35.78 5.37 5.37 0 0 1-1.76.27 4.22 4.22 0 0 1-2.94-1 3.77 3.77 0 0 1-1.17-2.77h3a1.19 1.19 0 0 0 .37.73 1.07 1.07 0 0 0 .74.27 1.12 1.12 0 0 0 .85-.35 1.27 1.27 0 0 0 .33-.91 1.19 1.19 0 0 0-.34-.87 1.12 1.12 0 0 0-.84-.35 1.16 1.16 0 0 0-.57.15 1.29 1.29 0 0 0-.44.4h-2.84v-6.5h7.56v2.66h-4.62v1.4a3.71 3.71 0 0 1 1.66-.37zm102.82 100.2h-2.66v-2.85h8.7v2.85H329v8.13h-3.17zm11.34.44a3.67 3.67 0 0 1 1.27.43 3.83 3.83 0 0 1 1 .83 3.78 3.78 0 0 1 .67 1.15 3.93 3.93 0 0 1 .24 1.38A4 4 0 0 1 340 314a4.09 4.09 0 0 1-.9 1.3 4.39 4.39 0 0 1-3 1.19 4.19 4.19 0 0 1-3-1.21 4.29 4.29 0 0 1-1.15-3.7 4.94 4.94 0 0 1 .22-.73 5 5 0 0 1 .4-.81c.16-.3.37-.62.62-1l2.5-3.73h3.64zm-1.07 5.1a1.22 1.22 0 0 0 .89-.37 1.27 1.27 0 0 0 .36-.92 1.25 1.25 0 0 0-.36-.92 1.21 1.21 0 0 0-.89-.36 1.18 1.18 0 0 0-.89.36 1.24 1.24 0 0 0-.35.92 1.26 1.26 0 0 0 .35.92 1.19 1.19 0 0 0 .89.37zM449.32 351h-2.66v-2.86h8.7V351h-2.88v8.13h-3.16zm14.68-2.9v2.6l-4 8.4h-3.38l4.1-8.2h-4.6v-2.8zm-57.15-71.6h-2.66v-2.86h8.7v2.86H410v8.12h-3.17zm14 2.4a2.8 2.8 0 0 1 1.55 2.66 3.19 3.19 0 0 1-.29 1.36 2.94 2.94 0 0 1-.85 1 4.21 4.21 0 0 1-1.36.66 6.2 6.2 0 0 1-1.79.24A5 5 0 0 1 415 284a2.87 2.87 0 0 1-1.14-2.41 3.07 3.07 0 0 1 .39-1.59 2.84 2.84 0 0 1 1.15-1.07 2.71 2.71 0 0 1-1-1 2.67 2.67 0 0 1-.34-1.36 2.79 2.79 0 0 1 .28-1.27 2.69 2.69 0 0 1 .83-1 3.7 3.7 0 0 1 1.29-.63 5.84 5.84 0 0 1 1.68-.22 6 6 0 0 1 1.69.22 3.7 3.7 0 0 1 1.29.63 2.73 2.73 0 0 1 .81 1 2.79 2.79 0 0 1 .29 1.27 2.66 2.66 0 0 1-1.34 2.35zm-2.74 3.64a1.22 1.22 0 0 0 .85-.31 1.05 1.05 0 0 0 .34-.82 1.15 1.15 0 0 0-.33-.85 1.2 1.2 0 0 0-2.05.87 1 1 0 0 0 .33.81 1.23 1.23 0 0 0 .86.3zm0-6.78a1.12 1.12 0 0 0-.78.29.93.93 0 0 0-.31.73 1.08 1.08 0 1 0 2.15 0 1 1 0 0 0-.29-.73 1.06 1.06 0 0 0-.76-.29zM531.17 127h-2.66v-2.86h8.7V127h-2.87v8.13h-3.17zm9.96 4.87a3.56 3.56 0 0 1-2.28-1.26 3.66 3.66 0 0 1-.67-1.15 3.92 3.92 0 0 1-.23-1.38 4 4 0 0 1 1.24-2.92 4.13 4.13 0 0 1 1.35-.87 4.45 4.45 0 0 1 1.68-.32 4.2 4.2 0 0 1 1.66.33 4.08 4.08 0 0 1 1.34.89 4.15 4.15 0 0 1 1.21 3 4.08 4.08 0 0 1-.06.71 4.94 4.94 0 0 1-.22.73 4.72 4.72 0 0 1-.4.82 11.6 11.6 0 0 1-.62 1l-2.5 3.74H539zm1.08-5.1a1.19 1.19 0 0 0-.9.37 1.25 1.25 0 0 0-.36.92 1.23 1.23 0 0 0 1.26 1.27 1.18 1.18 0 0 0 .88-.36 1.23 1.23 0 0 0 .36-.91 1.25 1.25 0 0 0-.36-.92 1.15 1.15 0 0 0-.88-.37zM880.44 341.1h-2.66v-2.86h8.7v2.86h-2.87v8.13h-3.17zm12.14-2.87v11h-3.1v-8l-1.8.56-.7-2.63 3.08-.95zm7.52 11.2a6.29 6.29 0 0 1-2.37-.43 5.62 5.62 0 0 1-1.86-1.18 5.44 5.44 0 0 1-1.21-1.8 6.23 6.23 0 0 1 0-4.6 5.24 5.24 0 0 1 1.21-1.8 6 6 0 0 1 1.86-1.18 6.9 6.9 0 0 1 4.74 0 5.85 5.85 0 0 1 1.86 1.18 5.1 5.1 0 0 1 1.21 1.8 6.23 6.23 0 0 1 0 4.6 5.29 5.29 0 0 1-1.21 1.8 5.52 5.52 0 0 1-1.86 1.18 6.29 6.29 0 0 1-2.37.43zm0-2.86a2.65 2.65 0 0 0 1.07-.21 2.31 2.31 0 0 0 .84-.6 2.74 2.74 0 0 0 .56-.9 3 3 0 0 0 .2-1.14 3 3 0 0 0-.2-1.13 2.9 2.9 0 0 0-.56-.91 2.59 2.59 0 0 0-1.91-.8 2.7 2.7 0 0 0-1.08.21 2.55 2.55 0 0 0-.85.59 2.73 2.73 0 0 0-.56.91 3 3 0 0 0-.21 1.13 3 3 0 0 0 .21 1.14 2.59 2.59 0 0 0 .56.9 2.43 2.43 0 0 0 .85.6 2.7 2.7 0 0 0 1.1.21zm-32.98-126.4h-2.66v-2.85h8.7v2.85h-2.88v8.13h-3.16zm12.14-2.86v11h-3.1v-8l-1.8.55-.7-2.63 3.1-.94zm6.74 0v11h-3.1v-8l-1.8.55-.7-2.63 3.1-.94zm-123.2-48.38h-2.66v-2.85h8.7v2.85H766v8.13h-3.17zm12.14-2.85v11h-3.1v-8l-1.8.55-.7-2.63 3.08-.94zm9.9 8.33v2.66h-8.2v-1.12a3.77 3.77 0 0 1 .8-2.35 9 9 0 0 1 2.21-2l1-.65a4.56 4.56 0 0 0 .6-.46 1.14 1.14 0 0 0 .29-.37.94.94 0 0 0 .08-.43 1 1 0 0 0-.24-.72.92.92 0 0 0-.67-.24c-.63 0-.95.42-.95 1.26h-3.08a4.1 4.1 0 0 1 1.11-3.06 4.89 4.89 0 0 1 6-.17 3.33 3.33 0 0 1 1 2.61 3.44 3.44 0 0 1-.19 1.2 3.11 3.11 0 0 1-.54 1 4.56 4.56 0 0 1-.9.84l-1.24.86-.94.6a6.55 6.55 0 0 0-.71.53zm182.4 7.7h-2.67v-2.86h8.7v2.86h-2.87v8.13h-3.16zm12.14-2.85v11h-3.1v-8l-1.8.56-.7-2.63 3.08-.95zm8.24 5.37a2.88 2.88 0 0 1 1.24 1 2.75 2.75 0 0 1 .43 1.53 3 3 0 0 1-1.16 2.34 4.09 4.09 0 0 1-1.32.66 5.48 5.48 0 0 1-1.67.24 4.23 4.23 0 0 1-3-1 4.08 4.08 0 0 1-1.12-2.89h2.95a1.31 1.31 0 0 0 .31.87 1.06 1.06 0 0 0 .78.31 1.21 1.21 0 0 0 .82-.27.9.9 0 0 0 .31-.73.88.88 0 0 0-.29-.69 1.26 1.26 0 0 0-.84-.26h-1.06v-2.2h1c.73 0 1.1-.3 1.1-.9a.85.85 0 0 0-.28-.67 1.12 1.12 0 0 0-1.87.85H981a4.3 4.3 0 0 1 .36-1.56 3.47 3.47 0 0 1 .86-1.2 3.91 3.91 0 0 1 1.29-.75 5.2 5.2 0 0 1 1.68-.26 5.31 5.31 0 0 1 1.59.23 3.56 3.56 0 0 1 1.22.65 2.85 2.85 0 0 1 .79 1 3 3 0 0 1 .27 1.29 2.47 2.47 0 0 1-1.46 2.41zm-86.5 99.84h-2.66v-2.85h8.7v2.85h-2.87v8.13h-3.17zm12.15-2.86v11h-3.1v-8l-1.8.56-.7-2.63 3.08-.94zm10.75 9.32h-1.2v1.67h-3.1v-1.67h-4.88v-2.4l4.6-6.92h3.4v6.75h1.2zm-6.18-2.56H920v-3.46zm71.03-5.6h-2.66v-2.86h8.7v2.86H992v8.13h-3.16zm12.15-2.85v11h-3.1v-8l-1.8.56-.7-2.63 3.1-.95zm6.86 3.68a3.7 3.7 0 0 1 1.42.27 3.22 3.22 0 0 1 1.12.76 3.49 3.49 0 0 1 .72 1.17 3.94 3.94 0 0 1 .27 1.48 3.83 3.83 0 0 1-.31 1.57 3.51 3.51 0 0 1-.86 1.22 4.07 4.07 0 0 1-1.35.77 5.37 5.37 0 0 1-1.76.27 4.22 4.22 0 0 1-2.94-1 3.76 3.76 0 0 1-1.17-2.76h3a1.19 1.19 0 0 0 .37.72 1.07 1.07 0 0 0 .74.27 1.09 1.09 0 0 0 .85-.35 1.25 1.25 0 0 0 .33-.9 1.21 1.21 0 0 0-.34-.88 1.12 1.12 0 0 0-.84-.35 1.16 1.16 0 0 0-.57.15 1.32 1.32 0 0 0-.44.41h-2.84v-6.52h7.56v2.66h-4.62V284a3.71 3.71 0 0 1 1.66-.42zm-38.2 106.22H967v-2.86h8.7v2.86h-2.87v8.13h-3.17zm12.15-2.87v11h-3.1v-8l-1.8.56-.7-2.63 3.08-.95zm6.83 3.3a3.66 3.66 0 0 1 1.27.42 3.71 3.71 0 0 1 1 .84 3.66 3.66 0 0 1 .67 1.15 3.93 3.93 0 0 1 .24 1.38 3.81 3.81 0 0 1-.34 1.61 4.14 4.14 0 0 1-.9 1.31 4.07 4.07 0 0 1-1.36.87 4.45 4.45 0 0 1-1.68.32 4.2 4.2 0 0 1-1.66-.33 4.18 4.18 0 0 1-2.55-3.87 3.23 3.23 0 0 1 .07-.71 3.9 3.9 0 0 1 .21-.73 5.57 5.57 0 0 1 .4-.82l.63-1 2.5-3.74h3.64zm-1.07 5.1a1.19 1.19 0 0 0 .9-.37 1.24 1.24 0 0 0 .35-.92 1.22 1.22 0 0 0-1.25-1.27 1.18 1.18 0 0 0-.89.36 1.22 1.22 0 0 0-.35.91 1.24 1.24 0 0 0 .35.92 1.16 1.16 0 0 0 .89.37z"/><path d="M716.47 420.16l6.1 6.24 4.38.05-6.08-6.23 6.26-6.1-4.4-.06-6.26 6.1z" opacity=".8"/><path d="M709.1 420.15l6.1 6.24 4.38.05-6.1-6.24 6.26-6.1-4.38-.06-6.26 6.1z" opacity=".9"/><path d="M701.64 420.03l6.1 6.23 4.38.05-6.08-6.23 6.25-6.1-4.38-.05-6.26 6.1z"/><path d="M729.48 426.48l4.38.05-6.1-6.23 6.26-6.1-4.38-.06-6.26 6.12 6.1 6.23z" opacity=".7"/><path d="M736.4 426.56l4.38.06-6.08-6.24 6.26-6.1-4.4-.05-6.25 6.1 6.08 6.23z" opacity=".6"/></g><path d="M757.76 405.1l-.06 4.36-4.37-.06.06-4.37z" class="Q"/><path d="M753.4 405l-.06 4.37-4.37-.06.04-4.3z" class="O"/><path d="M749,405l-.07,4.36-4.36-.06.06-4.37Z" class="Q"/><path d="M757.7 409.4l-.06 4.37-4.37-.06.06-4.37zm-8.7-.1l-.06 4.37-4.36-.06.06-4.36z" class="O"/><g class="Q"><path d="M753.33,409.32l-.06,4.36-4.37-.06.07-4.37Z"/><path d="M757.64 413.74l-.06 4.37-4.36-.06v-4.37z"/></g><path d="M753.27 413.68v4.37l-4.37-.06v-4.37z" class="O"/><path d="M748.9 413.62V418l-4.37-.06.06-4.37z" class="Q"/><path d="M757.58 418.07l-.06 4.37-4.37-.06.07-4.37zm-8.73-.07l-.06 4.37-4.37-.06.06-4.37z" class="O"/><path d="M753.2 418l-.05 4.37-4.37-.06.06-4.37zm4.48 4.33l-.06 4.36-4.37-.05.06-4.37z" class="Q"/><path d="M753.3 422.27l-.06 4.37-4.37-.07.06-4.37z" class="O"/><path d="M748.94,422.2l-.06,4.37-4.36-.05.05-4.37Z" class="Q"/><path d="M157.82 373h-2.58v-.92h6.26v.92h-2.66v7.83h-1zm8.94 7.94a4.57 4.57 0 0 1-1.79-.34 4.43 4.43 0 0 1-1.44-1 4.3 4.3 0 0 1-.95-1.44 4.56 4.56 0 0 1-.35-1.78 4.61 4.61 0 0 1 .35-1.79 4.26 4.26 0 0 1 .95-1.43 4.42 4.42 0 0 1 1.43-.95 4.65 4.65 0 0 1 1.8-.34 4.55 4.55 0 0 1 1.78.34 4.42 4.42 0 0 1 1.43.95 4.26 4.26 0 0 1 .95 1.43 4.61 4.61 0 0 1 .35 1.79 4.56 4.56 0 0 1-.35 1.78 4.38 4.38 0 0 1-2.38 2.4 4.55 4.55 0 0 1-1.78.38zm0-.95a3.45 3.45 0 0 0 1.37-.27 3.3 3.3 0 0 0 1.11-.75 3.54 3.54 0 0 0 .73-1.14 3.91 3.91 0 0 0 .26-1.43 3.64 3.64 0 0 0-1-2.53 3.26 3.26 0 0 0-1.1-.75 3.77 3.77 0 0 0-2.75 0 3.26 3.26 0 0 0-1.1.75 3.64 3.64 0 0 0-1 2.53 3.91 3.91 0 0 0 .26 1.43 3.54 3.54 0 0 0 .73 1.14 3.3 3.3 0 0 0 1.11.75 3.47 3.47 0 0 0 1.38.28zm7.98-7h-2.6v-.92h6.27v.92h-2.67v7.83h-1zm9.36 5.58h-3.95l-.84 2.22h-1.08l3.35-8.75h1.1l3.33 8.75h-1.07zm-3.62-.9h3.3l-1.65-4.5zm7.22-5.63h1v7.83h3.63v.92h-4.64z" class="O P"/><path d="M96 327.5h-4l-.83 2.23H90.1l3.34-8.73h1.1l3.33 8.75H96.8zm-3.6-.9h3.3l-1.7-4.5zm11.94-1.6a2.21 2.21 0 0 1 1 .86 2.56 2.56 0 0 1 .35 1.39 2.19 2.19 0 0 1-.77 1.79 3.14 3.14 0 0 1-2.11.66h-3.26V321h3.15a2.92 2.92 0 0 1 1.91.57 1.94 1.94 0 0 1 .69 1.58 2.05 2.05 0 0 1-.96 1.85zm-3.77-3.14v2.76h2.05a1.8 1.8 0 0 0 1.22-.37 1.29 1.29 0 0 0 .42-1c0-.9-.53-1.36-1.6-1.36zm2.18 6.93a2.13 2.13 0 0 0 1.42-.43 1.55 1.55 0 0 0 .49-1.23 1.39 1.39 0 0 0-.53-1.17 2.27 2.27 0 0 0-1.46-.42h-2.1v3.25zm8.8 1.08a4.61 4.61 0 0 1-1.79-.35 4.41 4.41 0 0 1-1.44-.95 4.68 4.68 0 0 1-1-5 4.42 4.42 0 0 1 1-1.43 4.26 4.26 0 0 1 1.43-.95 4.69 4.69 0 0 1 1.8-.35 4.61 4.61 0 0 1 1.79.35 4.36 4.36 0 0 1 1.43.95 4.42 4.42 0 0 1 .95 1.43 4.86 4.86 0 0 1 0 3.57 4.57 4.57 0 0 1-.95 1.44 4.36 4.36 0 0 1-1.43.95 4.61 4.61 0 0 1-1.79.34zm0-.95a3.36 3.36 0 0 0 2.48-1 3.38 3.38 0 0 0 .73-1.14 3.86 3.86 0 0 0 .26-1.42 3.6 3.6 0 0 0-.27-1.4 3.47 3.47 0 0 0-.72-1.13 3.36 3.36 0 0 0-1.1-.75 3.54 3.54 0 0 0-1.38-.27 3.47 3.47 0 0 0-1.38.27 3.36 3.36 0 0 0-1.1.75 3.49 3.49 0 0 0-.73 1.13 3.79 3.79 0 0 0-.26 1.4 3.66 3.66 0 0 0 .26 1.42 3.23 3.23 0 0 0 .73 1.14 3.55 3.55 0 0 0 1.1.76 3.47 3.47 0 0 0 1.38.24zM118 321h1v7.82h3.63v.93H118zm11.06 6.5h-4l-.83 2.23h-1.03l3.34-8.75h1.1l3.33 8.75h-1.07zm-3.6-.9h3.3l-1.65-4.5zm7.2-5.6h5v.92h-4v3h3.85v.92h-3.85v3.88h-1zm6.67 0h1v8.75h-1zm7.42 8.87a4.61 4.61 0 0 1-1.79-.35 4.36 4.36 0 0 1-1.43-.95 4.43 4.43 0 0 1-1-1.44 4.86 4.86 0 0 1 0-3.57 4.42 4.42 0 0 1 .95-1.43 4.21 4.21 0 0 1 1.44-.95 4.75 4.75 0 0 1 3.58 0 4.26 4.26 0 0 1 1.43.95 4.42 4.42 0 0 1 .95 1.43 4.63 4.63 0 0 1-.95 5 4.26 4.26 0 0 1-1.43.95 4.61 4.61 0 0 1-1.75.36zm0-.95a3.47 3.47 0 0 0 1.38-.27 3.71 3.71 0 0 0 1.11-.76 3.35 3.35 0 0 0 .72-1.14 3.66 3.66 0 0 0 .26-1.42 3.79 3.79 0 0 0-.26-1.4 3.49 3.49 0 0 0-.73-1.13 3.36 3.36 0 0 0-1.1-.75 3.47 3.47 0 0 0-1.38-.27 3.54 3.54 0 0 0-1.38.27 3.22 3.22 0 0 0-1.09.75 3.49 3.49 0 0 0-.73 1.13 3.6 3.6 0 0 0-.27 1.4 3.86 3.86 0 0 0 .26 1.42 3.38 3.38 0 0 0 .73 1.14 3.36 3.36 0 0 0 2.48 1z" class="O P"/><path d="M26.18 194.6h2.72a2.89 2.89 0 0 1 2 .68 2.43 2.43 0 0 1 .73 1.87 2.59 2.59 0 0 1-.51 1.64 2.52 2.52 0 0 1-1.43.88l2.5 3.68H31l-2.38-3.6H27.2v3.6h-1zm2.65 4.22a1.83 1.83 0 0 0 1.29-.43 1.86 1.86 0 0 0 0-2.44 1.85 1.85 0 0 0-1.3-.43h-1.64v3.3zm5.07-4.22h5v.92h-4v2.8h3.9v.92h-3.9v3.2h4.17v.92H33.9zm13.52 0v8.75h-1.1l-4.38-7.1v7.1h-1v-8.75h1.17l4.3 7v-7zm7.58 6.53h-4l-.83 2.22H49.1l3.34-8.75h1.1l3.33 8.75H55.8zm-3.6-.9h3.28l-1.67-4.5zm9.9 3.27a3.4 3.4 0 0 1-1.34-.25 2.89 2.89 0 0 1-1-.7 3.18 3.18 0 0 1-.65-1.12A4.43 4.43 0 0 1 58 200v-5.4h1v5.4a2.78 2.78 0 0 0 .61 1.88 2 2 0 0 0 1.64.7 2.07 2.07 0 0 0 1.65-.68 2.79 2.79 0 0 0 .6-1.9v-5.4h1v5.4a4.43 4.43 0 0 1-.23 1.46 3.18 3.18 0 0 1-.65 1.12 2.86 2.86 0 0 1-1 .7 3.44 3.44 0 0 1-1.32.21zm5.63-8.9h1v7.83h3.62v.92h-4.62zm7.07.92h-2.62v-.92h6.26v.92H75v7.83h-1z" class="O P"/><path d="M409.63 122.76h2.72a2.87 2.87 0 0 1 2 .68 2.44 2.44 0 0 1 .74 1.87 2.54 2.54 0 0 1-.52 1.64 2.46 2.46 0 0 1-1.42.88l2.48 3.68h-1.2l-2.37-3.6h-1.42v3.6h-1zm2.66 4.23a1.81 1.81 0 0 0 1.28-.44 1.57 1.57 0 0 0 .47-1.23 1.6 1.6 0 0 0-.45-1.21 1.87 1.87 0 0 0-1.3-.43h-1.65V127zm5.05-4.23h5.05v.92h-4v2.8h3.9v.92h-3.9v3.2h4.17v.92h-5.2zm7.04 0h2.7a2.87 2.87 0 0 1 2 .68 2.44 2.44 0 0 1 .74 1.87 2.85 2.85 0 0 1-.2 1.08 2.32 2.32 0 0 1-.55.82 2.44 2.44 0 0 1-.86.53 3.43 3.43 0 0 1-1.15.18h-1.7v3.6h-1zM427 127a1.81 1.81 0 0 0 1.28-.44 1.57 1.57 0 0 0 .47-1.23 1.6 1.6 0 0 0-.45-1.21 1.87 1.87 0 0 0-1.3-.43h-1.65v3.3zm6.88 4.65a3 3 0 0 1-2.13-.73 2.79 2.79 0 0 1-.86-2h1a1.86 1.86 0 0 0 1.95 1.84 2.12 2.12 0 0 0 1.36-.41 1.32 1.32 0 0 0 .51-1.1 1.21 1.21 0 0 0-.3-.87 2.78 2.78 0 0 0-1-.62l-1.26-.48a3.35 3.35 0 0 1-1.47-1 2.29 2.29 0 0 1-.46-1.47 2.13 2.13 0 0 1 .2-.91 2.2 2.2 0 0 1 .54-.71 2.75 2.75 0 0 1 .85-.45 3.42 3.42 0 0 1 1.09-.16 2.83 2.83 0 0 1 1.94.63 2.53 2.53 0 0 1 .79 1.77h-1a1.56 1.56 0 0 0-.48-1.1 1.73 1.73 0 0 0-1.22-.41 1.9 1.9 0 0 0-1.2.36 1.17 1.17 0 0 0-.45 1 1.4 1.4 0 0 0 .3.93 2.54 2.54 0 0 0 1 .65l1.28.5a3.28 3.28 0 0 1 1.44.91 2.14 2.14 0 0 1 .43 1.39 2.37 2.37 0 0 1-.2 1 2 2 0 0 1-.58.78 2.55 2.55 0 0 1-.91.48 3.68 3.68 0 0 1-1.16.18zm8.68 0a4.64 4.64 0 0 1-1.79-.34 4.46 4.46 0 0 1-2.39-2.39 4.88 4.88 0 0 1 0-3.58 4.42 4.42 0 0 1 .95-1.43 4.35 4.35 0 0 1 1.44-1 4.88 4.88 0 0 1 3.58 0 4.34 4.34 0 0 1 2.38 2.38 4.88 4.88 0 0 1 0 3.58 4.53 4.53 0 0 1-1 1.43 4.29 4.29 0 0 1-1.43 1 4.6 4.6 0 0 1-1.74.35zm0-1a3.47 3.47 0 0 0 1.38-.27 3.36 3.36 0 0 0 1.1-.75 3.23 3.23 0 0 0 .73-1.14 3.71 3.71 0 0 0 .26-1.43 3.79 3.79 0 0 0-.26-1.4 3.6 3.6 0 0 0-.73-1.13 3.36 3.36 0 0 0-1.1-.75 3.46 3.46 0 0 0-1.38-.26 3.53 3.53 0 0 0-1.38.26 3.22 3.22 0 0 0-1.09.75 3.64 3.64 0 0 0-1 2.53 3.91 3.91 0 0 0 .26 1.43 3.36 3.36 0 0 0 1.83 1.89 3.54 3.54 0 0 0 1.38.32zm6.44-7.9h1v7.83h3.62v.92H449z" class="O P"/><path d="M160.93 230.33a3 3 0 0 1-2.13-.74 2.77 2.77 0 0 1-.86-2h1a1.91 1.91 0 0 0 .59 1.32 1.88 1.88 0 0 0 1.36.51 2.15 2.15 0 0 0 1.37-.4 1.33 1.33 0 0 0 .5-1.11 1.24 1.24 0 0 0-.29-.87 2.75 2.75 0 0 0-1-.61l-1.26-.48a3.4 3.4 0 0 1-1.47-1 2.29 2.29 0 0 1-.45-1.46 2 2 0 0 1 .74-1.62 2.46 2.46 0 0 1 .85-.45 3.37 3.37 0 0 1 1.09-.17 2.81 2.81 0 0 1 1.93.64 2.48 2.48 0 0 1 .8 1.77h-1a1.6 1.6 0 0 0-.49-1.11 1.75 1.75 0 0 0-1.21-.4 1.87 1.87 0 0 0-1.2.36 1.16 1.16 0 0 0-.45.95 1.41 1.41 0 0 0 .3.94 2.68 2.68 0 0 0 1 .65l1.3.5a3.38 3.38 0 0 1 1.44.92 2.13 2.13 0 0 1 .43 1.38 2.54 2.54 0 0 1-.2 1 2.09 2.09 0 0 1-.58.77 2.56 2.56 0 0 1-.91.49 4 4 0 0 1-1.19.23zm4.73-8.9h5v.92h-4v2.8h3.9v.93h-3.9v3.18h4.17v.93h-5.18zm12.1 6.56h-4l-.83 2.23h-1.08l3.34-8.75h1.1l3.33 8.75h-1.02zm-3.6-.9h3.3l-1.65-4.5zm7.9-4.74h-2.58v-.92h6.26v.92h-2.66v7.83h-1z" class="O P"/><path d="M465.1 305.46h-2.6v-.92h6.27v.92h-2.67v7.83h-1zm11.9-.92l-3.15 8.75h-1.1l-3.13-8.75h1.1l2.6 7.43 2.6-7.43zm5.42 4.13a2.09 2.09 0 0 1 1 .81 2.28 2.28 0 0 1 .36 1.3 2.48 2.48 0 0 1-.83 1.89 2.89 2.89 0 0 1-.93.56 3.44 3.44 0 0 1-1.18.2 3.25 3.25 0 0 1-1.14-.19 2.52 2.52 0 0 1-.89-.55 2.33 2.33 0 0 1-.58-.87 3.18 3.18 0 0 1-.23-1.15h1a1.88 1.88 0 0 0 .52 1.32 1.7 1.7 0 0 0 1.28.49 2.45 2.45 0 0 0 .78-.12 2 2 0 0 0 .6-.35 1.46 1.46 0 0 0 .39-.53 1.74 1.74 0 0 0 .14-.69 1.49 1.49 0 0 0-.51-1.2 2.16 2.16 0 0 0-1.41-.43h-.8v-.9h.86a1.74 1.74 0 0 0 1.2-.37 1.57 1.57 0 0 0 0-2.15 1.65 1.65 0 0 0-1.17-.39 1.79 1.79 0 0 0-1.21.41 1.4 1.4 0 0 0-.49 1.06h-1a2.31 2.31 0 0 1 .24-1 2.44 2.44 0 0 1 .58-.76 2.63 2.63 0 0 1 .86-.5 2.92 2.92 0 0 1 1.08-.19 3.29 3.29 0 0 1 1.07.17 2.47 2.47 0 0 1 .82.48 2.07 2.07 0 0 1 .52.74 2.3 2.3 0 0 1 .19 1 2.2 2.2 0 0 1-.28 1.15 2.14 2.14 0 0 1-.85.77z" class="O P"/><path d="M537.36 191.38a4.62 4.62 0 0 1-1.8-.35 4.28 4.28 0 0 1-2.37-2.38 4.62 4.62 0 0 1-.35-1.8 4.56 4.56 0 0 1 .35-1.78 4.26 4.26 0 0 1 2.38-2.38 4.61 4.61 0 0 1 1.79-.35 4.82 4.82 0 0 1 1.54.24 3.93 3.93 0 0 1 1.27.66 4.37 4.37 0 0 1 .93 1 4.17 4.17 0 0 1 .52 1.35h-1.1a2.8 2.8 0 0 0-.43-1 3 3 0 0 0-.69-.74 3.2 3.2 0 0 0-.92-.47 4 4 0 0 0-1.1-.16 3.31 3.31 0 0 0-1.38.28 3.51 3.51 0 0 0-1.11.75 3.7 3.7 0 0 0 0 5.08 3.71 3.71 0 0 0 1.11.76 3.47 3.47 0 0 0 1.38.27 3.25 3.25 0 0 0 2-.63 3 3 0 0 0 1.13-1.71h1.1a4.17 4.17 0 0 1-.52 1.35 4.23 4.23 0 0 1-.93 1 3.93 3.93 0 0 1-1.27.66 4.82 4.82 0 0 1-1.53.35zm10.86-2.38h-4l-.83 2.23h-1.08l3.34-8.75h1.1l3.33 8.75H549zm-3.6-.9h3.28l-1.65-4.5zm15.7-5.6v8.75h-1v-7.17l-2.77 7.17h-.95l-2.77-7.17v7.17h-1v-8.75h1.44l2.82 7.37 2.8-7.37zm2.46 0h2.72a2.84 2.84 0 0 1 2 .68 2.41 2.41 0 0 1 .73 1.86 2.85 2.85 0 0 1-.19 1.08 2.51 2.51 0 0 1-.55.83 2.54 2.54 0 0 1-.87.53 3.41 3.41 0 0 1-1.14.18h-1.7v3.6h-1zm2.65 4.22a1.81 1.81 0 0 0 1.29-.43 1.6 1.6 0 0 0 .47-1.23 1.55 1.55 0 0 0-.46-1.21 1.79 1.79 0 0 0-1.3-.43h-1.65v3.3zm6.85 4.66a3 3 0 0 1-2.12-.74 2.77 2.77 0 0 1-.87-2h1a1.86 1.86 0 0 0 1.95 1.83 2.1 2.1 0 0 0 1.36-.4 1.34 1.34 0 0 0 .51-1.11 1.29 1.29 0 0 0-.29-.87 2.84 2.84 0 0 0-1-.61l-1.26-.48a3.34 3.34 0 0 1-1.47-1 2.29 2.29 0 0 1-.45-1.46 2.12 2.12 0 0 1 .19-.91 2 2 0 0 1 .55-.71 2.41 2.41 0 0 1 .84-.45 3.46 3.46 0 0 1 1.09-.17 2.83 2.83 0 0 1 1.94.64 2.45 2.45 0 0 1 .79 1.77h-1a1.64 1.64 0 0 0-.49-1.11 1.73 1.73 0 0 0-1.22-.4 1.86 1.86 0 0 0-1.19.36 1.13 1.13 0 0 0-.46 1 1.44 1.44 0 0 0 .31.94 2.53 2.53 0 0 0 1 .65l1.3.5a3.31 3.31 0 0 1 1.43.92 2.13 2.13 0 0 1 .44 1.38 2.58 2.58 0 0 1-.2 1 2.21 2.21 0 0 1-.58.77 2.65 2.65 0 0 1-.91.49 4.09 4.09 0 0 1-1.18.18zM582 189h-4l-.83 2.23h-1.08l3.34-8.75h1.1l3.33 8.75h-1.07zm-3.6-.9h3.3l-1.68-4.48z" class="O P"/><path d="M787 342.62h1v7.82h3.63v.93H787zm11.13 6.52h-4l-.83 2.23h-1.08l3.34-8.75h1.1l3.33 8.75h-1zm-3.6-.9h3.3l-1.65-4.5zm14.7 3.26a4.62 4.62 0 0 1-1.8-.35 4.34 4.34 0 0 1-1.43-.94 4.53 4.53 0 0 1-1-1.43 4.65 4.65 0 0 1-.34-1.8 4.57 4.57 0 0 1 .34-1.79 4.42 4.42 0 0 1 1-1.43 4.3 4.3 0 0 1 1.44-.95 4.61 4.61 0 0 1 1.79-.35 4.82 4.82 0 0 1 1.54.24 4 4 0 0 1 1.27.66 4.12 4.12 0 0 1 .92 1 4 4 0 0 1 .53 1.35h-1.1a3 3 0 0 0-1.12-1.74 2.94 2.94 0 0 0-.92-.46 3.62 3.62 0 0 0-1.1-.17 3.31 3.31 0 0 0-1.38.28 3.4 3.4 0 0 0-1.11.75 3.76 3.76 0 0 0-.73 3.95 3.49 3.49 0 0 0 .73 1.13 3.43 3.43 0 0 0 1.11.76 3.47 3.47 0 0 0 1.38.27 3.25 3.25 0 0 0 2-.63 3 3 0 0 0 1.13-1.71h1.1a4 4 0 0 1-.53 1.35 3.84 3.84 0 0 1-.92 1 4.28 4.28 0 0 1-1.27.67 5.12 5.12 0 0 1-1.53.34zm10.87-2.36h-4l-.84 2.23h-1.07l3.34-8.75h1.1l3.33 8.75h-1.07zm-3.62-.9h3.3l-1.65-4.5zm7.2-5.62h1v8.75h-1zm8.62 8.75l-2.38-3.75-2.38 3.75h-1.18l2.92-4.5-2.74-4.24h1.17l2.2 3.45 2.18-3.45h1.2l-2.73 4.24 2.92 4.5zm7.95-2.23h-4l-.83 2.23h-1.08l3.34-8.75h1.1l3.33 8.75h-1.07zm-3.6-.9h3.3l-1.65-4.5z" class="O P"/><path d="M736.42 131.14a2.21 2.21 0 0 1 1 .86 2.66 2.66 0 0 1 .35 1.39 2.23 2.23 0 0 1-.77 1.8 3.21 3.21 0 0 1-2.11.65h-3.28v-8.75h3.15a2.92 2.92 0 0 1 1.91.57 2 2 0 0 1 .69 1.59 2 2 0 0 1-.94 1.89zm-3.77-3.14v2.77h2.05a1.85 1.85 0 0 0 1.22-.37 1.33 1.33 0 0 0 .42-1c0-.9-.53-1.36-1.6-1.36zm2.18 6.93a2.15 2.15 0 0 0 1.42-.43 1.54 1.54 0 0 0 .49-1.22 1.4 1.4 0 0 0-.53-1.18 2.27 2.27 0 0 0-1.46-.42h-2.1v3.25zm9.92-1.33h-4l-.84 2.23h-1.07l3.34-8.75h1.1l3.33 8.75h-1.07zm-3.62-.9h3.3l-1.65-4.5zm13.7-5.6v8.75h-1.1l-4.38-7.1v7.1h-1v-8.75h1.17l4.3 7v-7zm2.46 0h5.05v.9h-4v2.8h3.9v.92h-3.9v3.18h4.17v.93h-5.2zM734 151.58a3 3 0 0 1-2.13-.74 2.75 2.75 0 0 1-.86-2h1a1.88 1.88 0 0 0 1.95 1.83 2.15 2.15 0 0 0 1.37-.4 1.33 1.33 0 0 0 .5-1.11 1.24 1.24 0 0 0-.29-.87 2.75 2.75 0 0 0-1-.61l-1.26-.48a3.4 3.4 0 0 1-1.47-1 2.29 2.29 0 0 1-.45-1.46 2 2 0 0 1 .74-1.62 2.64 2.64 0 0 1 .85-.45 3.37 3.37 0 0 1 1.09-.17 2.81 2.81 0 0 1 1.93.64 2.48 2.48 0 0 1 .8 1.77h-1a1.6 1.6 0 0 0-.49-1.11 1.75 1.75 0 0 0-1.21-.4 1.87 1.87 0 0 0-1.2.36 1.16 1.16 0 0 0-.45.95 1.41 1.41 0 0 0 .3.94 2.68 2.68 0 0 0 1 .65l1.3.5a3.38 3.38 0 0 1 1.44.92 2.14 2.14 0 0 1 .43 1.39 2.53 2.53 0 0 1-.2 1 2.09 2.09 0 0 1-.58.77 2.56 2.56 0 0 1-.91.49 4 4 0 0 1-1.19.22zm9.64-2.38h-3.95l-.83 2.23h-1.08l3.34-8.75h1.1l3.33 8.75h-1.06zm-3.6-.9h3.3l-1.65-4.5zm11.96-1.56a2.19 2.19 0 0 1 1 .86 2.66 2.66 0 0 1 .35 1.39 2.24 2.24 0 0 1-.77 1.8 3.21 3.21 0 0 1-2.11.65h-3.28v-8.75h3.15a2.92 2.92 0 0 1 1.91.57 2 2 0 0 1 .69 1.59 2 2 0 0 1-.94 1.89zm-3.76-3.14v2.77h2a1.8 1.8 0 0 0 1.21-.37 1.3 1.3 0 0 0 .43-1c0-.9-.53-1.36-1.6-1.36zm2.18 6.93a2.15 2.15 0 0 0 1.42-.43 1.54 1.54 0 0 0 .49-1.22 1.4 1.4 0 0 0-.53-1.18 2.29 2.29 0 0 0-1.46-.42h-2.1v3.25zm9.93-1.33h-4l-.84 2.23h-1.07l3.34-8.75h1.1l3.33 8.75h-1.07zm-3.62-.9H760l-1.65-4.5zm7.2-5.6h2.66a5.8 5.8 0 0 1 2 .31 4.33 4.33 0 0 1 1.51.88 3.93 3.93 0 0 1 1 1.37 4.5 4.5 0 0 1 .34 1.79 4.55 4.55 0 0 1-.34 1.8 4 4 0 0 1-1 1.38 4.35 4.35 0 0 1-1.52.9 5.78 5.78 0 0 1-1.95.32h-2.66zm2.66 7.82a4.57 4.57 0 0 0 1.52-.24 3.32 3.32 0 0 0 1.18-.71 3.27 3.27 0 0 0 .77-1.1 3.82 3.82 0 0 0 .26-1.42 3.73 3.73 0 0 0-.26-1.41 3.07 3.07 0 0 0-.76-1.08 3.29 3.29 0 0 0-1.18-.69 4.35 4.35 0 0 0-1.53-.25H765v6.9zm6.68-7.82h5.05v.92h-4v2.8h3.9v.92h-3.9v3.18h4.17v.93h-5.2zm7.04 0h1v7.82H785v.93h-4.64zm6.18 0h1v7.82h3.62v.93h-4.62z" class="O P"/><path d="M968.8 204.12h5.05v.93h-4v2.8h3.9v.92h-3.9V212H974v.92h-5.2zM979 213a3.59 3.59 0 0 1-1.34-.24 2.92 2.92 0 0 1-1-.71A3.22 3.22 0 0 1 976 211a4.28 4.28 0 0 1-.23-1.47v-5.36h1v5.4a2.8 2.8 0 0 0 .61 1.88 2.07 2.07 0 0 0 1.64.69 2.1 2.1 0 0 0 1.65-.68 2.78 2.78 0 0 0 .6-1.89v-5.4h1v5.36A4.53 4.53 0 0 1 982 211a3.22 3.22 0 0 1-.65 1.11 2.88 2.88 0 0 1-1 .71 3.62 3.62 0 0 1-1.35.18zm5.6-8.88h2.72a2.83 2.83 0 0 1 2 .69 2.4 2.4 0 0 1 .73 1.86 2.62 2.62 0 0 1-.51 1.65 2.48 2.48 0 0 1-1.42.87l2.48 3.68h-1.2l-2.4-3.6h-1.42v3.6h-1zm2.65 4.23a1.82 1.82 0 0 0 1.29-.44 1.6 1.6 0 0 0 .47-1.23 1.57 1.57 0 0 0-.46-1.21 1.83 1.83 0 0 0-1.3-.42h-1.65v3.3zm8.9 4.65a4.64 4.64 0 0 1-1.79-.34 4.39 4.39 0 0 1-1.43-1 4.29 4.29 0 0 1-1-1.43 4.88 4.88 0 0 1 0-3.58 4.53 4.53 0 0 1 .95-1.43 4.35 4.35 0 0 1 1.44-1 4.88 4.88 0 0 1 3.58 0 4.42 4.42 0 0 1 1.43 1 4.53 4.53 0 0 1 .95 1.43 4.88 4.88 0 0 1 0 3.58 4.42 4.42 0 0 1-.95 1.43 4.29 4.29 0 0 1-1.43 1 4.6 4.6 0 0 1-1.75.34zm0-.94a3.47 3.47 0 0 0 1.38-.28 3.36 3.36 0 0 0 1.1-.75 3.23 3.23 0 0 0 .73-1.14 3.7 3.7 0 0 0 .26-1.42 3.88 3.88 0 0 0-.26-1.41 3.6 3.6 0 0 0-.73-1.13 3.19 3.19 0 0 0-1.1-.74 3.47 3.47 0 0 0-1.38-.27 3.54 3.54 0 0 0-1.38.27 3.06 3.06 0 0 0-1.09.74 3.6 3.6 0 0 0-.73 1.13 3.69 3.69 0 0 0-.27 1.41 3.9 3.9 0 0 0 .26 1.42 3.36 3.36 0 0 0 1.83 1.89 3.54 3.54 0 0 0 1.38.29zm6.42-7.94h2.72a2.83 2.83 0 0 1 2 .69 2.4 2.4 0 0 1 .74 1.86 2.85 2.85 0 0 1-.2 1.08 2.36 2.36 0 0 1-.55.83 2.52 2.52 0 0 1-.87.52 3.33 3.33 0 0 1-1.14.18h-1.7v3.6h-1zm2.66 4.23a1.81 1.81 0 0 0 1.28-.44 1.57 1.57 0 0 0 .47-1.23 1.6 1.6 0 0 0-.45-1.21 1.86 1.86 0 0 0-1.3-.42h-1.65v3.3zm4.53-4.23h5v.93h-4v2.8h3.9v.92h-3.9V212h4.17v.92h-5.2zm12.12 6.53h-4l-.84 2.22H1016l3.34-8.75h1.1l3.33 8.75h-1.07zm-3.62-.9h3.3l-1.65-4.5zm7.2-5.63h2.7a2.85 2.85 0 0 1 2 .69 2.43 2.43 0 0 1 .73 1.86 2.62 2.62 0 0 1-.51 1.65 2.51 2.51 0 0 1-1.43.87l2.5 3.68h-1.2l-2.38-3.6h-1.42v3.6h-1zm2.65 4.23a1.85 1.85 0 0 0 1.29-.44 1.86 1.86 0 0 0 0-2.44 1.85 1.85 0 0 0-1.3-.42h-1.65v3.3z" class="O P"/><path d="M966.64 406.32h-2.6v-.92h6.27v.92h-2.66v7.83h-1zm8.53 7.98a3.45 3.45 0 0 1-1.35-.25 2.84 2.84 0 0 1-1-.71 3.15 3.15 0 0 1-.66-1.11 4.45 4.45 0 0 1-.22-1.47v-5.35h1v5.4a2.77 2.77 0 0 0 .6 1.88 2.1 2.1 0 0 0 1.65.69 2.07 2.07 0 0 0 1.65-.68 2.75 2.75 0 0 0 .6-1.89v-5.4h1v5.35a4.2 4.2 0 0 1-.23 1.47 3 3 0 0 1-.65 1.11 2.72 2.72 0 0 1-1 .71 3.51 3.51 0 0 1-1.39.25zm5.63-8.9h2.72a2.84 2.84 0 0 1 2 .68 2.41 2.41 0 0 1 .73 1.86 2.62 2.62 0 0 1-.51 1.65 2.49 2.49 0 0 1-1.43.88l2.5 3.68h-1.2l-2.38-3.6h-1.42v3.6h-1zm2.65 4.22a1.81 1.81 0 0 0 1.29-.43 1.83 1.83 0 0 0 0-2.44 1.81 1.81 0 0 0-1.3-.43h-1.64v3.3zm5.05-4.22h1v8.75h-1zm5.8 8.9a3 3 0 0 1-2.12-.74 2.77 2.77 0 0 1-.87-2h1a1.86 1.86 0 0 0 1.95 1.83 2.1 2.1 0 0 0 1.36-.4 1.34 1.34 0 0 0 .51-1.11 1.29 1.29 0 0 0-.29-.87 2.84 2.84 0 0 0-1-.61l-1.26-.48a3.28 3.28 0 0 1-1.47-1 2.29 2.29 0 0 1-.45-1.46 2.12 2.12 0 0 1 .19-.91 2 2 0 0 1 .55-.71 2.41 2.41 0 0 1 .84-.45 3.46 3.46 0 0 1 1.09-.17 2.83 2.83 0 0 1 1.94.64 2.47 2.47 0 0 1 .79 1.77h-1a1.64 1.64 0 0 0-.49-1.11 1.73 1.73 0 0 0-1.22-.4 1.86 1.86 0 0 0-1.19.36 1.14 1.14 0 0 0-.46.95 1.38 1.38 0 0 0 .31.94 2.53 2.53 0 0 0 1 .65l1.3.5a3.31 3.31 0 0 1 1.43.92 2.13 2.13 0 0 1 .44 1.38 2.54 2.54 0 0 1-.2 1 2.21 2.21 0 0 1-.58.77 2.65 2.65 0 0 1-.91.49 4.09 4.09 0 0 1-1.18.23zm13.24-8.9v8.75h-1V407l-2.77 7.17h-1L1000 407v7.17h-1v-8.75h1.45l2.82 7.37 2.8-7.37zm2.46 0h5v.92h-4v2.8h3.9v.9h-3.9v3.18h4.17v.93H1010z" class="O P"/><g class="R"><g class="R"><g class="K" opacity=".75"><g clip-path="url(#B)"><path d="M493.57 217.9a14.84 14.84 0 1 0-14.85-14.84 14.85 14.85 0 0 0 14.85 14.84" fill="#001a30"/></g></g><path d="M493.74,210.76a7.69,7.69,0,1,0-7.69-7.69,7.69,7.69,0,0,0,7.69,7.69" fill="#001a30"/><path d="M493.74 211.07a8 8 0 1 1 8-8 8 8 0 0 1-8 8zm0-15.38a7.38 7.38 0 1 0 7.38 7.38 7.39 7.39 0 0 0-7.38-7.38z" class="O"/></g><path d="M490.4,198.65h3.32a4.49,4.49,0,1,1,0,9H490.4Zm2.34,7h.52a2.52,2.52,0,1,0,0-5h-.55Z" class="O"/></g><path d="M62.67 375.08a4.24 4.24 0 0 1-3-1 3.91 3.91 0 0 1-1.23-2.83h1.46a2.65 2.65 0 0 0 2.76 2.6 3 3 0 0 0 1.94-.57 1.89 1.89 0 0 0 .72-1.57 1.77 1.77 0 0 0-.42-1.23 3.74 3.74 0 0 0-1.43-.87l-1.78-.68a4.75 4.75 0 0 1-2.09-1.37 3.27 3.27 0 0 1-.64-2.08 3 3 0 0 1 .28-1.29 2.89 2.89 0 0 1 .77-1 3.63 3.63 0 0 1 1.2-.65 5 5 0 0 1 1.55-.23 3.93 3.93 0 0 1 2.74.91 3.52 3.52 0 0 1 1.13 2.5h-1.47a2.27 2.27 0 0 0-.69-1.56 2.45 2.45 0 0 0-1.72-.57 2.67 2.67 0 0 0-1.7.5 1.65 1.65 0 0 0-.65 1.36 2 2 0 0 0 .44 1.33 3.66 3.66 0 0 0 1.45.92l1.82.7a4.67 4.67 0 0 1 2 1.3 3 3 0 0 1 .61 2 3.52 3.52 0 0 1-.28 1.44 3 3 0 0 1-.82 1.09 3.63 3.63 0 0 1-1.29.69 5.63 5.63 0 0 1-1.66.16zm6.7-12.6h7.15v1.3h-5.7v4h5.53v1.3h-5.53v4.5h5.92v1.3H69.4zM85 375.08a6.67 6.67 0 0 1-2.56-.48 6.28 6.28 0 0 1-2-1.35 6.17 6.17 0 0 1-1.35-2 6.83 6.83 0 0 1 0-5.08 6.17 6.17 0 0 1 1.35-2 6.33 6.33 0 0 1 2-1.35 7 7 0 0 1 4.72-.15 5.71 5.71 0 0 1 1.8.94 5.45 5.45 0 0 1 2 3.37h-1.52a4.67 4.67 0 0 0-.61-1.36 4.12 4.12 0 0 0-1-1.05 4.48 4.48 0 0 0-1.31-.66 5.2 5.2 0 0 0-1.56-.23 4.85 4.85 0 0 0-2 .39 4.71 4.71 0 0 0-1.57 1.07 5 5 0 0 0-1 1.6 5.45 5.45 0 0 0 0 4 5 5 0 0 0 1 1.6 4.88 4.88 0 0 0 3.61 1.4 4.62 4.62 0 0 0 2.86-.9 4.32 4.32 0 0 0 1.61-2.42H91a5.71 5.71 0 0 1-.73 1.92 5.48 5.48 0 0 1-1.32 1.47 5.71 5.71 0 0 1-1.8.94 7 7 0 0 1-2.15.33zm10.9-11.28h-3.66v-1.3h8.88v1.3h-3.78v11.1H95.9zm12.67 11.28a6.64 6.64 0 0 1-2.54-.48 6.28 6.28 0 0 1-3.39-3.4 6.78 6.78 0 0 1 0-5.06 6.18 6.18 0 0 1 3.38-3.38 6.73 6.73 0 0 1 2.55-.49 6.59 6.59 0 0 1 2.53.49 6.33 6.33 0 0 1 2 1.35 6.14 6.14 0 0 1 1.34 2 6.78 6.78 0 0 1 0 5.06 6.16 6.16 0 0 1-3.37 3.4 6.59 6.59 0 0 1-2.5.51zm0-1.34a4.85 4.85 0 0 0 2-.39 4.76 4.76 0 0 0 1.57-1.07 4.88 4.88 0 0 0 1-1.61 5.34 5.34 0 0 0 .37-2 5.26 5.26 0 0 0-.38-2 5.12 5.12 0 0 0-1-1.6 4.55 4.55 0 0 0-1.56-1.06 5 5 0 0 0-2-.38 5.11 5.11 0 0 0-2 .38 4.41 4.41 0 0 0-1.55 1.06 5.14 5.14 0 0 0-1 1.6 5.26 5.26 0 0 0-.37 2 5.54 5.54 0 0 0 .36 2 4.84 4.84 0 0 0 2.6 2.68 4.93 4.93 0 0 0 1.96.39zm9.1-11.26h3.85a4.06 4.06 0 0 1 2.87 1 3.46 3.46 0 0 1 1 2.65 3.64 3.64 0 0 1-.73 2.33 3.5 3.5 0 0 1-2 1.25l3.52 5.2h-1.72l-3.37-5.1h-2v5.1h-1.44zm3.76 6a2.6 2.6 0 0 0 1.83-.62 2.63 2.63 0 0 0 0-3.46 2.62 2.62 0 0 0-1.85-.6h-2.34v4.68zm15.07-6v12.4h-1.44V364l-2.36.74-.35-1.25 2.9-1z" opacity=".5" class="O"/><path d="M363.9 258.23a4.26 4.26 0 0 1-3-1.05 3.94 3.94 0 0 1-1.23-2.82h1.46a2.76 2.76 0 0 0 .83 1.88 2.73 2.73 0 0 0 1.94.71 3 3 0 0 0 1.93-.57 1.88 1.88 0 0 0 .72-1.56 1.82 1.82 0 0 0-.41-1.24 4.05 4.05 0 0 0-1.43-.87l-1.8-.7a4.71 4.71 0 0 1-2.08-1.37 3.26 3.26 0 0 1-.65-2.07 2.9 2.9 0 0 1 .28-1.29 2.84 2.84 0 0 1 .77-1 3.44 3.44 0 0 1 1.2-.64 4.76 4.76 0 0 1 1.55-.23 4 4 0 0 1 2.74.9 3.5 3.5 0 0 1 1.13 2.5h-1.46a2.27 2.27 0 0 0-.69-1.56 2.43 2.43 0 0 0-1.72-.57 2.73 2.73 0 0 0-1.7.5 1.64 1.64 0 0 0-.64 1.36 2 2 0 0 0 .43 1.33 3.66 3.66 0 0 0 1.45.92l1.82.7a4.61 4.61 0 0 1 2 1.3 3 3 0 0 1 .62 2 3.53 3.53 0 0 1-.29 1.44 2.94 2.94 0 0 1-.82 1.09 3.65 3.65 0 0 1-1.29.7 5.58 5.58 0 0 1-1.66.22zm6.7-12.6h7.15v1.3H372v4h5.53v1.3H372v4.5h6V258h-7.4zm15.58 12.6a6.66 6.66 0 0 1-2.55-.49 6.22 6.22 0 0 1-2-1.35 6.33 6.33 0 0 1-1.35-2 6.83 6.83 0 0 1 0-5.08 6.18 6.18 0 0 1 3.38-3.38 6.73 6.73 0 0 1 2.55-.48 7 7 0 0 1 2.17.33 5.71 5.71 0 0 1 1.8.94 5.59 5.59 0 0 1 1.32 1.46 5.8 5.8 0 0 1 .74 1.91h-1.55a4.67 4.67 0 0 0-.61-1.36 4.12 4.12 0 0 0-1-1 4.61 4.61 0 0 0-1.31-.66 5.19 5.19 0 0 0-1.55-.23 4.9 4.9 0 0 0-2 .39 4.72 4.72 0 0 0-1.56 1.07 5 5 0 0 0-1.05 1.6 5.59 5.59 0 0 0 0 4 4.89 4.89 0 0 0 1.05 1.6 4.57 4.57 0 0 0 1.56 1.07 4.9 4.9 0 0 0 2 .39 4.67 4.67 0 0 0 2.85-.89 4.33 4.33 0 0 0 1.61-2.43h1.55a6 6 0 0 1-.74 1.92 5.48 5.48 0 0 1-1.32 1.47 5.71 5.71 0 0 1-1.8.94 7 7 0 0 1-2.19.26zm10.95-11.3h-3.67v-1.3h8.88v1.3h-3.78V258h-1.43zm12.67 11.3a6.68 6.68 0 0 1-2.54-.49 6.3 6.3 0 0 1-2-1.36 6.19 6.19 0 0 1-1.36-2 6.93 6.93 0 0 1 0-5.07 6.33 6.33 0 0 1 1.35-2 6.26 6.26 0 0 1 2-1.35 6.93 6.93 0 0 1 5.07 0 6.18 6.18 0 0 1 3.38 3.38 6.8 6.8 0 0 1 0 5.07 6.33 6.33 0 0 1-1.35 2 6.19 6.19 0 0 1-2 1.36 6.59 6.59 0 0 1-2.55.46zm0-1.35a4.85 4.85 0 0 0 1.95-.39 4.52 4.52 0 0 0 1.57-1.07 4.73 4.73 0 0 0 1-1.61 5.34 5.34 0 0 0 .37-2 5.26 5.26 0 0 0-.38-2 4.94 4.94 0 0 0-1-1.6 4.45 4.45 0 0 0-1.56-1.06 5.19 5.19 0 0 0-3.9 0 4.36 4.36 0 0 0-1.56 1.06 4.94 4.94 0 0 0-1 1.6 5.08 5.08 0 0 0-.38 2 5.34 5.34 0 0 0 .37 2 4.73 4.73 0 0 0 1 1.61 4.52 4.52 0 0 0 1.57 1.07 4.85 4.85 0 0 0 1.95.39zm9.1-11.26h3.86a4 4 0 0 1 2.86 1 3.39 3.39 0 0 1 1 2.64 3.7 3.7 0 0 1-.72 2.33 3.56 3.56 0 0 1-2 1.25l3.52 5.2h-1.72l-3.37-5.08h-2V258h-1.44zm3.76 6a2.58 2.58 0 0 0 1.83-.62 2.63 2.63 0 0 0 0-3.46 2.62 2.62 0 0 0-1.85-.6h-2.34v4.68zm19.5 5.08v1.3h-8.07v-.73a4.38 4.38 0 0 1 .32-1.71 5.4 5.4 0 0 1 .82-1.33 6.56 6.56 0 0 1 1.1-1l1.13-.76 1.4-.87a5.91 5.91 0 0 0 .93-.73 2.33 2.33 0 0 0 .52-.77 2.63 2.63 0 0 0 .17-1 2.25 2.25 0 0 0-.67-1.79 2.33 2.33 0 0 0-1.6-.59 2.35 2.35 0 0 0-1.78.71 2.6 2.6 0 0 0-.67 1.87h-1.48a4.35 4.35 0 0 1 .29-1.61 3.65 3.65 0 0 1 .79-1.25 3.57 3.57 0 0 1 1.23-.79 4.51 4.51 0 0 1 1.6-.27 4.68 4.68 0 0 1 1.53.24 3.22 3.22 0 0 1 2 1.89 4 4 0 0 1 .28 1.53 3.59 3.59 0 0 1-.25 1.41 3.36 3.36 0 0 1-.71 1.09 5.85 5.85 0 0 1-1.09.91l-1.36.9-1.15.77a6.79 6.79 0 0 0-.88.76 4.2 4.2 0 0 0-.6.82 3.32 3.32 0 0 0-.32 1z" opacity=".5" class="O"/><path d="M974.13 260.82a4.26 4.26 0 0 1-3-1 4 4 0 0 1-1.23-2.83h1.46a2.74 2.74 0 0 0 .83 1.88 2.69 2.69 0 0 0 1.94.72 3 3 0 0 0 1.93-.57 1.89 1.89 0 0 0 .72-1.57 1.77 1.77 0 0 0-.42-1.23 3.77 3.77 0 0 0-1.42-.87l-1.8-.68a4.71 4.71 0 0 1-2.08-1.37 3.21 3.21 0 0 1-.65-2.08 3 3 0 0 1 .28-1.29 2.89 2.89 0 0 1 .77-1 3.63 3.63 0 0 1 1.2-.65 5 5 0 0 1 1.55-.23 4 4 0 0 1 2.74.91 3.54 3.54 0 0 1 1.13 2.5h-1.46a2.27 2.27 0 0 0-.69-1.56 2.45 2.45 0 0 0-1.72-.57 2.67 2.67 0 0 0-1.7.5 1.64 1.64 0 0 0-.64 1.36 2 2 0 0 0 .43 1.32 3.56 3.56 0 0 0 1.45.93l1.82.7a4.61 4.61 0 0 1 2 1.3 3 3 0 0 1 .62 2 3.53 3.53 0 0 1-.29 1.44 2.94 2.94 0 0 1-.82 1.09 3.63 3.63 0 0 1-1.29.69 5.58 5.58 0 0 1-1.67.16zm6.7-12.6H988v1.3h-5.7v4h5.53v1.3h-5.53v4.5h5.92v1.3h-7.36zm15.58 12.6a6.71 6.71 0 0 1-2.56-.48 6.28 6.28 0 0 1-2-1.35 6.17 6.17 0 0 1-1.35-2 6.83 6.83 0 0 1 0-5.08 6.17 6.17 0 0 1 1.35-2 6.33 6.33 0 0 1 2-1.35 7 7 0 0 1 4.72-.15 5.71 5.71 0 0 1 1.8.94 5.45 5.45 0 0 1 2.05 3.37h-1.54a4.73 4.73 0 0 0-.61-1.37 4.25 4.25 0 0 0-2.3-1.7 5.19 5.19 0 0 0-1.55-.23 4.86 4.86 0 0 0-2 .39 4.57 4.57 0 0 0-1.56 1.07 4.84 4.84 0 0 0-1 1.6 5.22 5.22 0 0 0-.37 2 5.29 5.29 0 0 0 .37 2 4.84 4.84 0 0 0 1 1.6 4.72 4.72 0 0 0 1.56 1.07 4.86 4.86 0 0 0 2 .39 4.62 4.62 0 0 0 2.85-.9 4.32 4.32 0 0 0 1.61-2.42h1.54a5.71 5.71 0 0 1-.73 1.92 5.48 5.48 0 0 1-1.32 1.47 5.71 5.71 0 0 1-1.8.94 7 7 0 0 1-2.16.27zm10.95-11.3h-3.67v-1.3h8.88v1.3h-3.78v11.1h-1.43zm12.63 11.3a6.59 6.59 0 0 1-2.53-.48 6.25 6.25 0 0 1-3.4-3.4 6.91 6.91 0 0 1 0-5.06 6.33 6.33 0 0 1 1.35-2 6.26 6.26 0 0 1 2-1.35 6.8 6.8 0 0 1 5.07 0 6.18 6.18 0 0 1 3.38 3.38 6.91 6.91 0 0 1 0 5.06 6.37 6.37 0 0 1-1.35 2 6.19 6.19 0 0 1-2 1.36 6.59 6.59 0 0 1-2.52.49zm0-1.34a4.85 4.85 0 0 0 2-.39 4.76 4.76 0 0 0 2.6-2.68 5.34 5.34 0 0 0 .37-2 5.26 5.26 0 0 0-.38-2 4.94 4.94 0 0 0-1-1.6 4.55 4.55 0 0 0-1.56-1.06 5.19 5.19 0 0 0-3.9 0 4.36 4.36 0 0 0-1.56 1.06 4.94 4.94 0 0 0-1 1.6 5.08 5.08 0 0 0-.38 2 5.34 5.34 0 0 0 .37 2 4.73 4.73 0 0 0 1 1.61 4.66 4.66 0 0 0 1.57 1.07 4.85 4.85 0 0 0 1.87.39zm9.13-11.26h3.87a4.05 4.05 0 0 1 2.86 1 3.43 3.43 0 0 1 1 2.65 3.7 3.7 0 0 1-.72 2.33 3.5 3.5 0 0 1-2 1.24l3.52 5.22H1036l-3.37-5.1h-2v5.1h-1.44zm3.76 6a2.58 2.58 0 0 0 1.83-.62 2.63 2.63 0 0 0 0-3.46 2.62 2.62 0 0 0-1.85-.6h-2.34v4.68zm17.6-.14a3.08 3.08 0 0 1 1.44 1.15 3.22 3.22 0 0 1 .51 1.83 3.58 3.58 0 0 1-.31 1.51 3.66 3.66 0 0 1-.87 1.19 4.12 4.12 0 0 1-1.32.78 4.7 4.7 0 0 1-1.66.28 4.76 4.76 0 0 1-1.63-.26 3.53 3.53 0 0 1-1.26-.78 3.63 3.63 0 0 1-.82-1.23 4.68 4.68 0 0 1-.33-1.63h1.46a2.65 2.65 0 0 0 .72 1.86 2.45 2.45 0 0 0 1.82.7 3.21 3.21 0 0 0 1.1-.18 2.56 2.56 0 0 0 .86-.48 2.21 2.21 0 0 0 .56-.76 2.59 2.59 0 0 0 .19-1 2.09 2.09 0 0 0-.72-1.69 3 3 0 0 0-2-.61H1047v-1.3h1.2a2.47 2.47 0 0 0 1.71-.54 2 2 0 0 0 .6-1.54 2 2 0 0 0-.59-1.51 2.39 2.39 0 0 0-1.66-.54 2.57 2.57 0 0 0-1.72.57 2 2 0 0 0-.7 1.51h-1.43a3.18 3.18 0 0 1 .33-1.37 3.43 3.43 0 0 1 .83-1.09 3.83 3.83 0 0 1 1.21-.71 4.75 4.75 0 0 1 3 0 3.37 3.37 0 0 1 1.17.68 3.17 3.17 0 0 1 .74 1 3.32 3.32 0 0 1 .27 1.35 3.15 3.15 0 0 1-.4 1.63 3 3 0 0 1-1.09 1.17z" opacity=".5" class="O"/></svg>