<svg xmlns="http://www.w3.org/2000/svg" viewBox="0 0 1062.67 537.87"><defs><style>.cls-1{fill:#fff;}.cls-2{opacity:0.5;}.cls-3{fill:#010101;}.cls-4{opacity:0.8;}.cls-5{opacity:0.9;}.cls-6{opacity:0.7;}.cls-7{opacity:0.6;}</style></defs><g id="_03" data-name="03"><path class="cls-1" d="M522.54,495h-2.66v-2.86h8.7V495H525.7v8.13h-3.16Z"/><path class="cls-1" d="M534.68,492.15v11h-3.1v-8l-1.8.56-.7-2.63,3.09-1Z"/><path class="cls-1" d="M535.64,340.07H533v-2.85h8.7v2.85h-2.87v8.13h-3.17Z"/><path class="cls-1" d="M550.77,345.54v2.66h-8.19v-1.13a3.75,3.75,0,0,1,.8-2.34,8.89,8.89,0,0,1,2.2-2l1-.65a5.35,5.35,0,0,0,.59-.46,1.19,1.19,0,0,0,.3-.37,1.14,1.14,0,0,0,.08-.43,1,1,0,0,0-.24-.72.93.93,0,0,0-.67-.24c-.64,0-1,.42-1,1.26H542.6a4.1,4.1,0,0,1,1.1-3.06,4.19,4.19,0,0,1,3.09-1.11,4.15,4.15,0,0,1,2.87.93,3.31,3.31,0,0,1,1.05,2.62,3.58,3.58,0,0,1-.19,1.19,3.28,3.28,0,0,1-.55,1,5.55,5.55,0,0,1-.89.84c-.36.27-.78.55-1.25.86l-.93.61a5.69,5.69,0,0,0-.71.53Z"/><path class="cls-1" d="M757.65,391.23H755v-2.86h8.7v2.86h-2.87v8.13h-3.17Z"/><path class="cls-1" d="M771.13,393.74a2.82,2.82,0,0,1,1.24,1,2.67,2.67,0,0,1,.43,1.53,3,3,0,0,1-.3,1.34,2.93,2.93,0,0,1-.86,1,4,4,0,0,1-1.31.67,5.59,5.59,0,0,1-1.68.24,4.19,4.19,0,0,1-3-1,4.08,4.08,0,0,1-1.17-2.93h3a1.26,1.26,0,0,0,.31.87,1,1,0,0,0,.78.31,1.21,1.21,0,0,0,.82-.27.94.94,0,0,0,.31-.73.86.86,0,0,0-.3-.69,1.21,1.21,0,0,0-.83-.26h-1.06v-2.2h1c.73,0,1.09-.3,1.09-.9a.87.87,0,0,0-.27-.67,1.15,1.15,0,0,0-.77-.24,1.1,1.1,0,0,0-.79.29,1.12,1.12,0,0,0-.32.8h-2.91a4.76,4.76,0,0,1,.36-1.56,3.61,3.61,0,0,1,.86-1.2,4,4,0,0,1,1.3-.75,5.55,5.55,0,0,1,3.26,0,3.77,3.77,0,0,1,1.23.64,3.08,3.08,0,0,1,.78,1,3,3,0,0,1,.28,1.29A2.48,2.48,0,0,1,771.13,393.74Z"/><path class="cls-1" d="M739.61,277.6H737v-2.86h8.7v2.86h-2.87v8.13h-3.17Z"/><path class="cls-1" d="M754.63,284.06h-1.21v1.67h-3.1v-1.67h-4.88v-2.4l4.59-6.92h3.39v6.76h1.21Zm-6.19-2.56h2.19V278Z"/><path class="cls-1" d="M852.08,326.5h-2.66v-2.86h8.7v2.86h-2.87v8.13h-3.17Z"/><path class="cls-1" d="M864.19,327.33a3.67,3.67,0,0,1,1.42.27,3.13,3.13,0,0,1,1.12.76,3.68,3.68,0,0,1,.73,1.17,4.13,4.13,0,0,1,.26,1.47,4,4,0,0,1-.3,1.58,3.41,3.41,0,0,1-.87,1.21,3.75,3.75,0,0,1-1.35.78,5.37,5.37,0,0,1-1.76.27,4.22,4.22,0,0,1-2.94-1,3.77,3.77,0,0,1-1.17-2.77h3a1.13,1.13,0,0,0,.36.73,1.07,1.07,0,0,0,.74.27,1.11,1.11,0,0,0,.85-.35,1.27,1.27,0,0,0,.33-.91,1.22,1.22,0,0,0-.33-.87,1.19,1.19,0,0,0-1.42-.2,1.22,1.22,0,0,0-.44.41h-2.84v-6.52h7.56v2.66h-4.62v1.41A3.71,3.71,0,0,1,864.19,327.33Z"/><path class="cls-1" d="M856.06,248.38H853.4v-2.85h8.7v2.85h-2.87v8.13h-3.17Z"/><path class="cls-1" d="M867.41,248.82a3.69,3.69,0,0,1,1.26.43,3.38,3.38,0,0,1,1,.83,3.58,3.58,0,0,1,.67,1.15,3.93,3.93,0,0,1,.24,1.38,3.78,3.78,0,0,1-.34,1.61,4,4,0,0,1-.9,1.31,4.07,4.07,0,0,1-1.36.87,4.26,4.26,0,0,1-1.68.32,4.33,4.33,0,0,1-1.65-.32,4.17,4.17,0,0,1-2.56-3.87,3.38,3.38,0,0,1,.07-.72,3.9,3.9,0,0,1,.21-.73,6,6,0,0,1,.4-.81c.17-.29.38-.63.63-1l2.5-3.73h3.63Zm-1.08,5.09a1.22,1.22,0,0,0,.9-.36,1.29,1.29,0,0,0,.36-.93,1.24,1.24,0,0,0-.36-.91,1.22,1.22,0,0,0-.9-.36,1.18,1.18,0,0,0-.89.36,1.28,1.28,0,0,0-.35.91,1.33,1.33,0,0,0,.35.93A1.18,1.18,0,0,0,866.33,253.91Z"/><path class="cls-1" d="M641.71,101.44h-2.66V98.58h8.7v2.86h-2.87v8.13h-3.17Z"/><path class="cls-1" d="M656.43,98.58v2.6l-4,8.39h-3.38l4.1-8.2h-4.6V98.58Z"/><path class="cls-1" d="M924.05,66h-2.67V63.16h8.7V66h-2.87v8.13h-3.16Z"/><path class="cls-1" d="M938.05,68.4a2.8,2.8,0,0,1,1.55,2.66,3.15,3.15,0,0,1-.29,1.36,2.85,2.85,0,0,1-.85,1,4.21,4.21,0,0,1-1.36.66,6.2,6.2,0,0,1-1.79.24,5,5,0,0,1-3.14-.88A2.9,2.9,0,0,1,931,71.06a3.07,3.07,0,0,1,.39-1.59,2.84,2.84,0,0,1,1.15-1.07,2.71,2.71,0,0,1-1-1,2.64,2.64,0,0,1-.34-1.36,2.69,2.69,0,0,1,1.11-2.25,4.08,4.08,0,0,1,1.29-.63,5.84,5.84,0,0,1,1.68-.22,6,6,0,0,1,1.69.22,4.08,4.08,0,0,1,1.29.63,2.82,2.82,0,0,1,.81,1,2.79,2.79,0,0,1,.29,1.27,2.65,2.65,0,0,1-.35,1.36A2.68,2.68,0,0,1,938.05,68.4ZM935.31,72a1.17,1.17,0,0,0,.85-.31,1.05,1.05,0,0,0,.34-.82,1.12,1.12,0,0,0-.33-.84,1.15,1.15,0,0,0-.85-.33,1.13,1.13,0,0,0-1.2,1.19,1,1,0,0,0,.33.81A1.23,1.23,0,0,0,935.31,72Zm0-6.77a1.12,1.12,0,0,0-.78.28.93.93,0,0,0-.31.73,1,1,0,0,0,.3.77,1.12,1.12,0,0,0,1.55,0,1,1,0,0,0,.3-.77,1,1,0,0,0-.29-.73A1.06,1.06,0,0,0,935.32,65.27Z"/><path class="cls-1" d="M569.78,46.42h-2.66V43.57h8.7v2.85H573v8.13h-3.17Z"/><path class="cls-1" d="M579.74,51.25a3.46,3.46,0,0,1-1.27-.42,4,4,0,0,1-1-.83,3.78,3.78,0,0,1-.67-1.15,3.93,3.93,0,0,1-.24-1.38,4,4,0,0,1,.34-1.62,4.14,4.14,0,0,1,.9-1.31,4.28,4.28,0,0,1,1.36-.87,4.45,4.45,0,0,1,1.68-.32,4.26,4.26,0,0,1,3,1.22,4.06,4.06,0,0,1,.88,1.33,4.12,4.12,0,0,1,.33,1.65,4.2,4.2,0,0,1-.06.72,4.84,4.84,0,0,1-.22.72,5.17,5.17,0,0,1-.4.83c-.16.29-.37.62-.62,1l-2.5,3.74H577.6Zm1.07-5.09a1.17,1.17,0,0,0-.89.37,1.25,1.25,0,0,0-.36.92,1.23,1.23,0,0,0,.36.91,1.2,1.2,0,0,0,.89.36,1.18,1.18,0,0,0,.89-.36,1.22,1.22,0,0,0,.35-.91,1.24,1.24,0,0,0-.35-.92A1.16,1.16,0,0,0,580.81,46.16Z"/><path class="cls-1" d="M631.52,81.19h-2.66V78.33h8.7v2.86h-2.87v8.13h-3.17Z"/><path class="cls-1" d="M643.67,78.33v11h-3.1v-8l-1.8.56-.7-2.63,3.08-1Z"/><path class="cls-1" d="M651.17,89.53a6.43,6.43,0,0,1-2.36-.42A5.6,5.6,0,0,1,647,87.92a5.13,5.13,0,0,1-1.22-1.8,5.93,5.93,0,0,1-.43-2.3,6,6,0,0,1,.43-2.3,5.13,5.13,0,0,1,1.22-1.8,5.55,5.55,0,0,1,1.86-1.17,6.72,6.72,0,0,1,4.73,0,5.55,5.55,0,0,1,1.86,1.17,5.26,5.26,0,0,1,1.22,1.8,6,6,0,0,1,.43,2.3,5.93,5.93,0,0,1-.43,2.3,5.26,5.26,0,0,1-1.22,1.8,5.6,5.6,0,0,1-1.86,1.19A6.49,6.49,0,0,1,651.17,89.53Zm0-2.86a2.74,2.74,0,0,0,1.08-.21,2.61,2.61,0,0,0,.84-.59,2.88,2.88,0,0,0,.55-.91,3.17,3.17,0,0,0,0-2.27,2.59,2.59,0,0,0-.56-.9,2.43,2.43,0,0,0-.85-.6,2.64,2.64,0,0,0-1.06-.21,2.74,2.74,0,0,0-1.08.21,2.53,2.53,0,0,0-.85.6,2.92,2.92,0,0,0-.56.9,3.32,3.32,0,0,0,0,2.27,3.1,3.1,0,0,0,.56.91,2.65,2.65,0,0,0,.85.59A2.74,2.74,0,0,0,651.19,86.67Z"/><path class="cls-1" d="M458.49,274.25h-2.66v-2.86h8.7v2.86h-2.87v8.12h-3.17Z"/><path class="cls-1" d="M470.63,271.39v11h-3.1v-8l-1.79.55-.7-2.62,3.08-.95Z"/><path class="cls-1" d="M477.37,271.39v11h-3.1v-8l-1.79.55-.7-2.62,3.08-.95Z"/><path class="cls-1" d="M125.73,398.92h-2.66v-2.86h8.7v2.86h-2.88v8.13h-3.16Z"/><path class="cls-1" d="M137.87,396.06v11h-3.1v-8l-1.8.56-.7-2.63,3.09-.95Z"/><path class="cls-1" d="M147.76,404.39v2.66h-8.19v-1.13a3.69,3.69,0,0,1,.8-2.34,8.89,8.89,0,0,1,2.2-1.95l1-.65a6.53,6.53,0,0,0,.59-.46,1.21,1.21,0,0,0,.3-.38,1,1,0,0,0,.08-.42,1,1,0,0,0-.25-.73.93.93,0,0,0-.66-.23c-.64,0-1,.42-1,1.25h-3.09a4.14,4.14,0,0,1,1.11-3.06,4.21,4.21,0,0,1,3.09-1.1,4.16,4.16,0,0,1,2.87.93,3.3,3.3,0,0,1,1,2.61,3.6,3.6,0,0,1-.19,1.2,3.41,3.41,0,0,1-.55,1,5.24,5.24,0,0,1-.9.84c-.36.27-.77.55-1.24.86l-.94.61a6.24,6.24,0,0,0-.71.53Z"/><path class="cls-1" d="M225.76,429.87H223.1V427h8.7v2.86h-2.87V438h-3.17Z"/><path class="cls-1" d="M237.91,427v11h-3.1v-8l-1.8.55-.7-2.62,3.08-.95Z"/><path class="cls-1" d="M246.15,432.38a2.88,2.88,0,0,1,1.24,1,2.74,2.74,0,0,1,.42,1.53,2.95,2.95,0,0,1-1.15,2.37,4.21,4.21,0,0,1-1.32.67,5.52,5.52,0,0,1-1.67.24,4.23,4.23,0,0,1-3-1,4.08,4.08,0,0,1-1.16-2.93h3a1.26,1.26,0,0,0,.31.86,1,1,0,0,0,.78.31,1.21,1.21,0,0,0,.82-.27,1,1,0,0,0,0-1.42,1.31,1.31,0,0,0-.84-.25h-1.06v-2.2h1c.73,0,1.1-.3,1.1-.9a.83.83,0,0,0-.28-.67,1.13,1.13,0,0,0-.77-.24,1.07,1.07,0,0,0-.79.29,1.11,1.11,0,0,0-.32.8h-2.9a4.36,4.36,0,0,1,.36-1.57,3.41,3.41,0,0,1,.85-1.19,3.73,3.73,0,0,1,1.3-.75,5.2,5.2,0,0,1,1.68-.26,5,5,0,0,1,1.59.23,3.54,3.54,0,0,1,1.22.64,2.75,2.75,0,0,1,.78,1,2.89,2.89,0,0,1,.28,1.28A2.48,2.48,0,0,1,246.15,432.38Z"/><path class="cls-1" d="M146.87,494.39h-2.66v-2.86h8.7v2.86H150v8.13h-3.16Z"/><path class="cls-1" d="M159,491.53v11h-3.1v-8l-1.8.56-.7-2.63,3.09-1Z"/><path class="cls-1" d="M169.77,500.85h-1.21v1.67h-3.1v-1.67h-4.88v-2.4l4.58-6.92h3.4v6.76h1.21Zm-6.19-2.56h2.19v-3.46Z"/><g class="cls-2"><path class="cls-1" d="M593.63,407.25a4.29,4.29,0,0,1-3-1,3.92,3.92,0,0,1-1.23-2.83h1.46a2.7,2.7,0,0,0,.83,1.88,2.67,2.67,0,0,0,1.93.72,3,3,0,0,0,1.94-.57,1.9,1.9,0,0,0,.72-1.57,1.75,1.75,0,0,0-.42-1.23,3.83,3.83,0,0,0-1.43-.87l-1.79-.68a4.86,4.86,0,0,1-2.08-1.37,3.27,3.27,0,0,1-.64-2.08,3,3,0,0,1,.27-1.29,2.83,2.83,0,0,1,.78-1,3.63,3.63,0,0,1,1.2-.65,5,5,0,0,1,1.54-.23,4,4,0,0,1,2.75.9,3.55,3.55,0,0,1,1.12,2.51h-1.45a2.32,2.32,0,0,0-.69-1.57,2.47,2.47,0,0,0-1.73-.57,2.64,2.64,0,0,0-1.69.51,1.65,1.65,0,0,0-.65,1.36,2,2,0,0,0,.44,1.32,3.51,3.51,0,0,0,1.44.92l1.83.7a4.72,4.72,0,0,1,2,1.3,3,3,0,0,1,.62,2,3.51,3.51,0,0,1-.28,1.43,3.21,3.21,0,0,1-.82,1.1,3.8,3.8,0,0,1-1.29.69A5.63,5.63,0,0,1,593.63,407.25Z"/><path class="cls-1" d="M600.34,394.64h7.15V396h-5.71v4h5.53v1.3h-5.53v4.52h5.91v1.31h-7.35Z"/><path class="cls-1" d="M615.91,407.25a6.48,6.48,0,0,1-2.55-.49,6.06,6.06,0,0,1-3.37-3.37,6.85,6.85,0,0,1,0-5.09,6.12,6.12,0,0,1,3.38-3.37,6.5,6.5,0,0,1,2.54-.49,7,7,0,0,1,2.18.33,6,6,0,0,1,1.79.94,5.45,5.45,0,0,1,1.32,1.47,5.59,5.59,0,0,1,.74,1.91h-1.55a4.48,4.48,0,0,0-.61-1.37,4.18,4.18,0,0,0-2.29-1.7,5.28,5.28,0,0,0-3.51.15,4.81,4.81,0,0,0-1.57,1.07,5,5,0,0,0-1,1.61,5.19,5.19,0,0,0-.38,2,5.33,5.33,0,0,0,.38,2,5.08,5.08,0,0,0,1,1.6,4.88,4.88,0,0,0,3.52,1.46,4.62,4.62,0,0,0,2.86-.9,4.26,4.26,0,0,0,1.6-2.42h1.55a5.59,5.59,0,0,1-.74,1.91,5.34,5.34,0,0,1-1.32,1.48,5.77,5.77,0,0,1-1.79.94A7,7,0,0,1,615.91,407.25Z"/><path class="cls-1" d="M626.86,396h-3.67v-1.31h8.89V396H628.3v11.1h-1.44Z"/><path class="cls-1" d="M639.53,407.25a6.46,6.46,0,0,1-2.54-.49,6.16,6.16,0,0,1-2-1.35,6.32,6.32,0,0,1-1.35-2,6.8,6.8,0,0,1,0-5.07,6,6,0,0,1,1.35-2,6.17,6.17,0,0,1,2-1.35,6.55,6.55,0,0,1,2.55-.49,6.45,6.45,0,0,1,2.53.49,6.17,6.17,0,0,1,2,1.35,6.1,6.1,0,0,1,1.34,2,6.8,6.8,0,0,1,0,5.07,6.29,6.29,0,0,1-1.34,2,6,6,0,0,1-2,1.35A6.45,6.45,0,0,1,639.53,407.25Zm0-1.34a4.85,4.85,0,0,0,2-.39,4.76,4.76,0,0,0,2.6-2.68,5.58,5.58,0,0,0,.37-2,5.22,5.22,0,0,0-.38-2,5.16,5.16,0,0,0-1-1.61,4.84,4.84,0,0,0-1.56-1.06,5.35,5.35,0,0,0-3.91,0,4.84,4.84,0,0,0-1.56,1.06,5.16,5.16,0,0,0-1,1.61,5.22,5.22,0,0,0-.38,2,5.58,5.58,0,0,0,.37,2,4.76,4.76,0,0,0,2.6,2.68A4.9,4.9,0,0,0,639.53,405.91Z"/><path class="cls-1" d="M648.63,394.64h3.85a4.08,4.08,0,0,1,2.87,1,3.46,3.46,0,0,1,1,2.65,3.64,3.64,0,0,1-.73,2.33,3.51,3.51,0,0,1-2,1.24l3.52,5.22h-1.71L652.08,402h-2v5.09h-1.44Zm3.76,6a2.57,2.57,0,0,0,1.82-.61,2.6,2.6,0,0,0,0-3.46,2.6,2.6,0,0,0-1.84-.61h-2.34v4.68Z"/><path class="cls-1" d="M667.47,394.64v12.41H666V396.12l-2.36.74-.35-1.26,2.91-1Z"/><path class="cls-1" d="M745.9,89.52a4.3,4.3,0,0,1-3-1,4,4,0,0,1-1.23-2.83h1.46a2.76,2.76,0,0,0,.83,1.88,2.69,2.69,0,0,0,1.94.72,3,3,0,0,0,1.93-.57,1.9,1.9,0,0,0,.72-1.57,1.73,1.73,0,0,0-.42-1.23A3.77,3.77,0,0,0,746.7,84l-1.79-.68A4.72,4.72,0,0,1,742.83,82a3.22,3.22,0,0,1-.65-2.07,2.9,2.9,0,0,1,.28-1.29,2.8,2.8,0,0,1,.77-1,3.46,3.46,0,0,1,1.2-.65,5,5,0,0,1,1.55-.23,4,4,0,0,1,2.74.9,3.56,3.56,0,0,1,1.13,2.51h-1.46a2.32,2.32,0,0,0-.69-1.57A2.45,2.45,0,0,0,746,78a2.67,2.67,0,0,0-1.7.51,1.63,1.63,0,0,0-.64,1.35,2,2,0,0,0,.43,1.33,3.55,3.55,0,0,0,1.45.92l1.82.7a4.7,4.7,0,0,1,2,1.3,3.05,3.05,0,0,1,.62,2,3.51,3.51,0,0,1-.29,1.43,3,3,0,0,1-.82,1.1,3.8,3.8,0,0,1-1.29.69A5.58,5.58,0,0,1,745.9,89.52Z"/><path class="cls-1" d="M752.61,76.91h7.15v1.31h-5.71v4h5.53v1.3h-5.53V88H760v1.31h-7.36Z"/><path class="cls-1" d="M768.19,89.52a6.52,6.52,0,0,1-2.56-.49,6.1,6.1,0,0,1-2-1.34,6.17,6.17,0,0,1-1.35-2,6.85,6.85,0,0,1,0-5.09,6.12,6.12,0,0,1,3.38-3.37,6.55,6.55,0,0,1,2.55-.49,7,7,0,0,1,2.17.33,5.92,5.92,0,0,1,1.8.94,5.8,5.8,0,0,1,1.32,1.47,5.58,5.58,0,0,1,.73,1.91h-1.54a4.73,4.73,0,0,0-.61-1.37,4.25,4.25,0,0,0-2.3-1.7,4.89,4.89,0,0,0-1.55-.23,5,5,0,0,0-2,.38,4.87,4.87,0,0,0-1.56,1.07,5,5,0,0,0-1.05,1.61,5.18,5.18,0,0,0-.37,2,5.32,5.32,0,0,0,.37,2,5.11,5.11,0,0,0,1.05,1.6,4.84,4.84,0,0,0,3.52,1.46,4.62,4.62,0,0,0,2.85-.9,4.27,4.27,0,0,0,1.61-2.42h1.54a5.58,5.58,0,0,1-.73,1.91,5.59,5.59,0,0,1-3.12,2.42A7,7,0,0,1,768.19,89.52Z"/><path class="cls-1" d="M779.14,78.22h-3.67V76.91h8.88v1.31h-3.78v11.1h-1.43Z"/><path class="cls-1" d="M791.8,89.52a6.41,6.41,0,0,1-2.53-.49,6.06,6.06,0,0,1-2-1.35,6.34,6.34,0,0,1-1.36-2,6.93,6.93,0,0,1,0-5.07,6.44,6.44,0,0,1,1.35-2,6.24,6.24,0,0,1,2-1.34,6.8,6.8,0,0,1,5.07,0,6.3,6.3,0,0,1,2,1.34,6.44,6.44,0,0,1,1.35,2,6.8,6.8,0,0,1,0,5.07,6.48,6.48,0,0,1-1.35,2,6,6,0,0,1-2,1.35A6.41,6.41,0,0,1,791.8,89.52Zm0-1.34a4.8,4.8,0,0,0,4.55-3.07,5.37,5.37,0,0,0,.37-2,5.22,5.22,0,0,0-.38-2,5,5,0,0,0-1-1.61,4.74,4.74,0,0,0-1.56-1.06,5.32,5.32,0,0,0-3.9,0,4.64,4.64,0,0,0-1.56,1.06,5,5,0,0,0-1,1.61,5,5,0,0,0-.38,2,5.37,5.37,0,0,0,.37,2,4.84,4.84,0,0,0,4.55,3.07Z"/><path class="cls-1" d="M800.9,76.91h3.86a4.06,4.06,0,0,1,2.86,1,3.43,3.43,0,0,1,1,2.65,3.7,3.7,0,0,1-.72,2.33,3.55,3.55,0,0,1-2,1.24l3.52,5.22h-1.72l-3.37-5.09h-2v5.09H800.9Zm3.76,6a2.58,2.58,0,0,0,1.83-.61,2.3,2.3,0,0,0,.66-1.75,2.25,2.25,0,0,0-.64-1.71,2.58,2.58,0,0,0-1.85-.61h-2.34V82.9Z"/><path class="cls-1" d="M824.18,88v1.31h-8.07v-.74a4.3,4.3,0,0,1,.32-1.7,5.4,5.4,0,0,1,.82-1.33,6.23,6.23,0,0,1,1.1-1c.4-.28.78-.54,1.13-.76.54-.33,1-.62,1.39-.87a5.37,5.37,0,0,0,.93-.72,2.27,2.27,0,0,0,.52-.78,2.63,2.63,0,0,0,.17-1,2.24,2.24,0,0,0-.67-1.78,2.28,2.28,0,0,0-1.6-.59,2.31,2.31,0,0,0-1.78.71,2.58,2.58,0,0,0-.67,1.87h-1.48a4.45,4.45,0,0,1,.29-1.62,3.61,3.61,0,0,1,.79-1.24A3.43,3.43,0,0,1,818.6,77a4.3,4.3,0,0,1,1.6-.28,4.39,4.39,0,0,1,1.53.25,3.31,3.31,0,0,1,1.2.73,3.23,3.23,0,0,1,.77,1.16,3.9,3.9,0,0,1,.28,1.53,3.59,3.59,0,0,1-.25,1.41,3.47,3.47,0,0,1-.71,1.09,6.56,6.56,0,0,1-1.08.91c-.42.28-.88.58-1.37.88s-.81.53-1.15.78a6.75,6.75,0,0,0-.88.75,4.52,4.52,0,0,0-.6.82,3.29,3.29,0,0,0-.32,1Z"/><path class="cls-1" d="M315.79,308.7a4.25,4.25,0,0,1-3-1.05,3.91,3.91,0,0,1-1.23-2.83H313a2.65,2.65,0,0,0,2.76,2.6,3,3,0,0,0,1.94-.57,1.89,1.89,0,0,0,.72-1.57,1.77,1.77,0,0,0-.42-1.23,3.74,3.74,0,0,0-1.43-.87l-1.78-.68a4.75,4.75,0,0,1-2.09-1.37,3.27,3.27,0,0,1-.64-2.08,3,3,0,0,1,.28-1.29,2.89,2.89,0,0,1,.77-1,3.44,3.44,0,0,1,1.2-.64,4.71,4.71,0,0,1,1.55-.24,4,4,0,0,1,2.74.91,3.54,3.54,0,0,1,1.13,2.5h-1.46a2.27,2.27,0,0,0-.69-1.56,2.45,2.45,0,0,0-1.72-.57,2.73,2.73,0,0,0-1.7.5,1.64,1.64,0,0,0-.64,1.36,2,2,0,0,0,.43,1.33,3.66,3.66,0,0,0,1.45.92l1.82.7a4.61,4.61,0,0,1,2,1.3,3,3,0,0,1,.61,2,3.52,3.52,0,0,1-.28,1.44,3,3,0,0,1-.82,1.09,3.48,3.48,0,0,1-1.29.69A5.33,5.33,0,0,1,315.79,308.7Z"/><path class="cls-1" d="M322.5,296.09h7.15v1.31h-5.71v4h5.53v1.31h-5.53v4.51h5.92v1.31H322.5Z"/><path class="cls-1" d="M338.08,308.7a6.67,6.67,0,0,1-2.56-.49,6.28,6.28,0,0,1-2-1.35,6.17,6.17,0,0,1-1.35-2,6.83,6.83,0,0,1,0-5.08,6.17,6.17,0,0,1,1.35-2,6.33,6.33,0,0,1,2-1.35,7,7,0,0,1,4.72-.15,5.71,5.71,0,0,1,1.8.94,5.45,5.45,0,0,1,2.05,3.37h-1.55a4.4,4.4,0,0,0-.6-1.36,4.12,4.12,0,0,0-1-1.05,4.48,4.48,0,0,0-1.31-.66,5.2,5.2,0,0,0-1.56-.23,4.85,4.85,0,0,0-1.95.39,4.71,4.71,0,0,0-1.57,1.07,5,5,0,0,0-1,1.6,5.45,5.45,0,0,0,0,4,5,5,0,0,0,1,1.6,4.88,4.88,0,0,0,3.52,1.46,4.62,4.62,0,0,0,2.86-.9,4.26,4.26,0,0,0,1.6-2.42h1.55a5.71,5.71,0,0,1-.73,1.92,5.48,5.48,0,0,1-1.32,1.47,5.71,5.71,0,0,1-1.8.94A7,7,0,0,1,338.08,308.7Z"/><path class="cls-1" d="M349,297.4h-3.67v-1.31h8.88v1.31h-3.78v11.09H349Z"/><path class="cls-1" d="M361.69,308.7a6.64,6.64,0,0,1-2.54-.49,6.19,6.19,0,0,1-2-1.36,6.3,6.3,0,0,1-1.36-2,6.68,6.68,0,0,1-.49-2.54,6.59,6.59,0,0,1,.49-2.53,6.18,6.18,0,0,1,3.38-3.38,6.73,6.73,0,0,1,2.55-.49,6.59,6.59,0,0,1,2.53.49,6.18,6.18,0,0,1,3.38,3.38,6.59,6.59,0,0,1,.48,2.53,6.68,6.68,0,0,1-.48,2.54,6.44,6.44,0,0,1-1.35,2,6.19,6.19,0,0,1-2,1.36A6.59,6.59,0,0,1,361.69,308.7Zm0-1.35a4.85,4.85,0,0,0,1.95-.39,4.76,4.76,0,0,0,1.57-1.07,4.88,4.88,0,0,0,1-1.61,5.34,5.34,0,0,0,.37-2,5.26,5.26,0,0,0-.38-2,4.94,4.94,0,0,0-1-1.6,4.55,4.55,0,0,0-1.56-1.06,5,5,0,0,0-1.95-.38,5.11,5.11,0,0,0-2,.38,4.41,4.41,0,0,0-1.55,1.06,5.14,5.14,0,0,0-1,1.6,5.26,5.26,0,0,0-.37,2,5.34,5.34,0,0,0,.37,2,4.78,4.78,0,0,0,2.59,2.68A4.93,4.93,0,0,0,361.69,307.35Z"/><path class="cls-1" d="M370.79,296.09h3.86a4.05,4.05,0,0,1,2.86,1,3.46,3.46,0,0,1,1,2.65,3.7,3.7,0,0,1-.72,2.33,3.56,3.56,0,0,1-2,1.25l3.52,5.21h-1.72l-3.37-5.08h-2v5.08h-1.44Zm3.76,6a2.58,2.58,0,0,0,1.83-.62,2.63,2.63,0,0,0,0-3.46,2.62,2.62,0,0,0-1.85-.6h-2.34v4.68Z"/><path class="cls-1" d="M392.14,302a3.08,3.08,0,0,1,1.44,1.15,3.22,3.22,0,0,1,.51,1.83,3.58,3.58,0,0,1-.31,1.51,3.66,3.66,0,0,1-.87,1.19,4.12,4.12,0,0,1-1.32.78,5,5,0,0,1-3.29,0,3.48,3.48,0,0,1-2.08-2,4.68,4.68,0,0,1-.33-1.63h1.45a2.7,2.7,0,0,0,.73,1.86,2.43,2.43,0,0,0,1.82.7,3.21,3.21,0,0,0,1.1-.18,2.56,2.56,0,0,0,.86-.48,2.06,2.06,0,0,0,.55-.76,2.42,2.42,0,0,0,.2-1,2.09,2.09,0,0,0-.72-1.69,3,3,0,0,0-2-.61h-1.24v-1.29h1.22a2.47,2.47,0,0,0,1.71-.54,2,2,0,0,0,.6-1.54,2,2,0,0,0-.59-1.51,2.39,2.39,0,0,0-1.66-.54,2.55,2.55,0,0,0-1.72.57,2,2,0,0,0-.7,1.51h-1.44a3.34,3.34,0,0,1,.34-1.37,3.43,3.43,0,0,1,.83-1.09,3.9,3.9,0,0,1,1.21-.71,4.75,4.75,0,0,1,3,0,3.24,3.24,0,0,1,1.16.68,3.06,3.06,0,0,1,.75,1.05,3.32,3.32,0,0,1,.27,1.35,3.15,3.15,0,0,1-.4,1.63A3,3,0,0,1,392.14,302Z"/></g><path class="cls-1" d="M397.31,492.3c-71.61,0-165.64-.18-202.75-.25h-2.95a14.91,14.91,0,0,1-12.9-6.53,14.76,14.76,0,0,1-1.23-14.41l13.08-29c.06-.12.1-.23.15-.32.52-1.09,1.28-3.56.51-5.19-.52-1.1-1.93-1.91-4.19-2.43l-1-.22c-9.91-2.25-16.46-4-20.57-6.46a14.82,14.82,0,0,1-7.14-10.74c-.11-.81-.3-1.68-.47-2.45-.12-.55-.32-1.46-.45-2.21a14.94,14.94,0,0,1,5.94-14.6,42.52,42.52,0,0,1,11.44-5.4c19-6.34,273.78-83,285.57-86.55h0c19.54-9.17,28.68-16.17,30.05-18.13,3.29-4.93,10-16.17,15.13-25l90-162.87c.14-.27.29-.52.45-.77a26.86,26.86,0,0,0,1.81-24.08c-3.52-8.64-4.37-12.4-4.56-15.38a14.86,14.86,0,0,1,7.84-14c3.67-2,9-3.26,16.19-4,20.37-2,172.11-19.26,218.13-24.49l1.63-.18a14.7,14.7,0,0,1,1.88-.09c3.34,0,33.12.85,44,16.25,9,12.65,22.69,39,26.83,47l.15.26c1.69,2.87,9.75,18.59-2.09,37.27-4.41,7-7.73,12.47-9.93,16.11-3.31,5.48-3.82,6.32-5.13,7.46-3.55,3.1-9.15,5.8-16.62,8-15.61,4.62-28.63,7.61-29.18,7.74l-3.16.72a14.85,14.85,0,0,1-5.79.16c-5.61-.95-13.41-3.74-23.18-8.3-26.56-12.39-89.83-39.66-90.43-39.92l-.12-.06-.28-.12c-.87-.4-22.93-10.19-43.76,4.26-.53.42-5,4.09-4.85,9.64.21,6.63,6.75,14.19,18.92,21.87.65.4,141.9,110,142.56,110.59,4.12,3.83,11,13.37,11,34.16,0,9.48-1,16-3,20.42A14.9,14.9,0,0,1,833,318.55c-2.76.31-5.93,0-11.69-1-10.56-1.92-35.82-8.64-37.62-9.43-2.68-1.17-8.05-2.64-11.16-.65s-3.72,7.71-3.63,12.11l0,1.54c.6,26.87.92,41.67-16.68,51.83-17.81,10.28-23.45,8.51-54.7-1.33-28.61-9-90.41-14.07-138.25,2.89-20,7.09-34.33,17.53-42.62,31-6.46,10.51-9.23,22.74-8.26,36.35,1.49,20.95,2.14,26.55,2.3,27.76.08.34.15.7.2,1.05a16.62,16.62,0,0,1-3,12.5c-4.3,5.65-12.1,8.61-23.24,8.86C477,492.21,447.63,492.3,397.31,492.3ZM194.36,475.05h.24c37.1.07,131.12.25,202.71.25,50.19,0,79.45-.09,87-.26,6.49-.14,9-1.42,9.81-1.93h0q-.08-.3-.12-.6c-.28-1.79-1-8-2.5-29.42-1.23-17.22,2.38-32.85,10.73-46.45,10.37-16.91,27.68-29.75,51.43-38.17,51.53-18.27,118.17-12.8,149-3.08,29.75,9.36,29.76,9.36,41.1,2.81,7.89-4.55,8.81-8.67,8.19-36.72l0-1.55c-.34-15.87,6.05-23.33,11.47-26.8,10.28-6.59,22.4-2.58,26.62-.83,3.54,1,24.5,6.72,34.36,8.51,2.76.5,4.45.73,5.49.82.44-1.69,1-5.24,1-12,0-15-4.4-20.44-5.45-21.54-7.25-5.68-134.07-104-140.57-109-17.18-10.94-26.09-22.87-26.49-35.49-.47-14.46,10.57-23,11.83-23.92l.16-.11c28.63-20,59.12-6.58,60.73-5.85s64.33,27.74,90.9,40.14c10.39,4.85,15.9,6.38,18.43,6.87l2.73-.62c.52-.12,13-3,28.13-7.47h0c5.67-1.68,8.43-3.21,9.63-4,.56-.89,1.49-2.43,2.4-3.94,2.24-3.7,5.61-9.29,10.12-16.41,6.7-10.56,2.26-18.76,1.74-19.66l-.29-.51a2.68,2.68,0,0,1-.18-.33c-3.91-7.6-17.3-33.32-25.67-45.14-3.83-5.41-18.66-8.91-30.26-9.08l-1.49.17c-46,5.23-197.89,22.46-218.35,24.51a43.69,43.69,0,0,0-8.49,1.51,72.4,72.4,0,0,0,3.07,8.58c8.1,19.89-1.14,36.31-3.17,39.54l-90,162.9-.09.18c-5.33,9.14-12.22,20.73-15.73,26-5.91,8.87-28,19.86-37.16,24.17l-.37.17-.59.24c-.26.1-.52.2-.79.28-31.26,9.39-267.94,80.67-285.49,86.52a36.32,36.32,0,0,0-5.71,2.35v.06c.16.73.36,1.64.54,2.66,3.4,1.5,11.55,3.34,14.8,4.08l1,.23c9.5,2.16,13.83,7.57,15.79,11.74,4.1,8.65.65,17.27-.53,19.76Zm-3.44,0h0Zm303.25-1.64h0Zm296.1-181,.26.12Zm48.38-259Z"/><path class="cls-3" d="M260.07,521.42v-3.63h3.64v3.64Z"/><path class="cls-1" d="M263.71,521.42v-3.64h3.63v3.64Z"/><path class="cls-3" d="M267.34,521.42v-3.64H271v3.63Z"/><path class="cls-1" d="M260.07,517.82v-3.64h3.64v3.64Z"/><path class="cls-1" d="M267.34,517.81v-3.63H271v3.63Z"/><path class="cls-3" d="M263.71,517.85v-3.64h3.64v3.64Z"/><path class="cls-3" d="M260.07,514.21v-3.63h3.63v3.63Z"/><path class="cls-1" d="M263.7,514.21v-3.63h3.64v3.63Z"/><path class="cls-3" d="M267.34,514.21v-3.63H271v3.64Z"/><path class="cls-1" d="M260.07,510.61V507h3.64v3.64Z"/><path class="cls-1" d="M267.34,510.61V507H271v3.63Z"/><path class="cls-3" d="M263.7,510.64V507h3.63v3.64Z"/><path class="cls-3" d="M259.94,507.07v-3.63h3.64v3.64Z"/><path class="cls-1" d="M263.57,507.07v-3.64h3.63v3.64Z"/><path class="cls-3" d="M267.21,507.07v-3.64h3.64v3.64Z"/><g class="cls-4"><polygon class="cls-1" points="296.81 512.52 291.02 506.71 286.9 506.71 292.69 512.51 286.86 518.32 290.98 518.33 296.81 512.52"/></g><g class="cls-5"><polygon class="cls-1" points="303.73 512.45 297.95 506.65 293.82 506.64 299.61 512.45 293.78 518.26 297.91 518.26 303.73 512.45"/></g><polygon class="cls-1" points="310.76 512.5 304.97 506.69 300.85 506.69 306.64 512.49 300.81 518.3 304.93 518.31 310.76 512.5"/><g class="cls-6"><polygon class="cls-1" points="284.52 506.7 280.39 506.7 286.18 512.5 280.35 518.31 284.48 518.32 290.3 512.51 284.52 506.7"/></g><g class="cls-7"><polygon class="cls-1" points="278.01 506.69 273.89 506.69 279.68 512.49 273.85 518.3 277.97 518.31 283.8 512.5 278.01 506.69"/></g></g></svg>