<svg id="_01" data-name="01" xmlns="http://www.w3.org/2000/svg" viewBox="0 0 1062.67 537.87"><defs><style>.cls-1{fill:#fff;}.cls-2{fill:#010101;}.cls-3{opacity:0.8;}.cls-4{opacity:0.9;}.cls-5{opacity:0.7;}.cls-6{opacity:0.6;}.cls-7{opacity:0.5;}.cls-8{opacity:0.3;}</style></defs><path class="cls-1" d="M446.41,281.3c-5.05,0-7.49-1.79-8.67-3.51-2-3-1.3-6.88.23-9.92-9.84-3.23-87.12-8.81-138.64-11.89l.18-2.89c.34,0,34.92,2.09,69.35,4.68,70.42,5.3,71.53,7.42,72.26,8.82a1.69,1.69,0,0,1-.05,1.67c-1.38,2.26-2.45,5.68-.94,7.89s5.36,2.78,10.93,1.78l.17,0,153.07-8.53h.05l247.48,4.82-.05,2.9-247.43-4.81L451.48,280.8A28.53,28.53,0,0,1,446.41,281.3Z"/><path class="cls-1" d="M889.83,400.45C891,393,891.66,385.37,892.3,378l.4-4.49c1.12-12.4,7-19.64,18.14-22.12,9.41-2.11,19-4.32,28.22-6.45l.1,0,17.37-4c14.2-3.25,30.43-7.67,43.14-19.25,10.89-9.92,14.54-21.95,10.83-35.78h0c-4.16-15.51-13.42-24.66-27.52-27.18a142.49,142.49,0,0,0-30.57-2c-20.3.77-40.69,1.92-64.29,3.26-10.09.58-20.77,1.18-32.34,1.81h-.29l-.3,0c-6.76-.43-14.37-.82-22.44-1.24h-.13c-20.9-1.08-44.59-2.3-68.55-4.9C693.81,248,636.28,244.47,583,244.47c-102,0-209-.65-318-1.92a230.45,230.45,0,0,1-54.7-7.49c-17.58-4.54-28.82-17.13-30.82-34.55C178.1,188.23,182.25,177,191.2,169c10.08-9.07,24.31-12.39,39.05-9.1,64.72,14.45,135.29,30.4,222.06,50.2,13.33,3,25.1,1.92,36-3.43l2.13-1.05c7.85-3.89,16-7.9,24.47-10.3A50.21,50.21,0,0,1,537.46,194c8.62,1.72,17.25,4,25.59,6.26s17.16,4.58,25.82,6.3c12,2.38,23,3.12,32.61,2.21,18.78-1.78,32.69-12.57,39.16-30.39,5.43-14.94,1.27-30-12-43.65C638,123.83,623.77,120,604,122.82c-61.41,8.65-121.54,17.1-182.07,25.42-16.58,2.28-27.31-3.61-34.79-19.08l-.87-1.8c-3.51-7.25-7.13-14.75-10.09-22.39-7.84-20.26-23.83-28.24-46.24-23.11C268.59,95.93,221.36,107,176.79,117.75c-28.89,7-45.83,23.85-50.37,50.18-5.09,29.56-6.27,53.62-3.72,75.71,2.6,22.52,11.32,40.8,25.2,52.87s32.95,18,55.2,17.09c21.8-.85,43.92-2.92,65.32-4.91l.68-.07q8.83-.83,17.67-1.62c2.84-.26,5.6-.38,8.25-.38,25.94,0,43.13,12.11,53.74,37.64l2.26,5.42c3.28,7.85,6.67,15.95,9.7,24,6.61,17.56,18.46,28.23,36.23,32.6,10.2,2.52,20.44,5.49,30.33,8.36l.41.12c4.74,1.37,9.64,2.79,14.45,4.14l36.33,10.11c25.06,7,51,14.16,76.59,21.44a51.72,51.72,0,0,0,14.15,2.11c12.41,0,23.48-5.47,32.9-16.26,1.71-1.95,3.56-3.94,5.19-5.7a114.91,114.91,0,0,0,10.54-12.49c6.6-9.55,15.58-12.75,29.14-10.37,33.89,6,68.35,12,101.68,17.79l5.62,1q10.47,1.81,20.93,3.67l1.6.28c18.91,3.34,38.46,6.79,58,10,14,2.3,26.62-.28,36.52-7.46S887.63,414.56,889.83,400.45Zm-26.22,22.16c-7.22,5.18-16.57,6.85-27.78,5h0c-16.81-2.82-33.88-5.82-50.38-8.72l-.52-.09q-10.7-1.89-21.4-3.75l-33.59-5.87-.37-.06c-26.72-4.68-54.36-9.51-81.54-14.18-17.72-3.05-30.3,1.55-39.59,14.47A111.58,111.58,0,0,1,599.39,420c-2.15,2.33-4.34,4.7-6.33,7.14-6.81,8.3-14.86,12.41-24.42,12.41a41.52,41.52,0,0,1-11.31-1.7c-31.21-8.91-62.76-17.72-93.28-26.25l-2.88-.81-34.89-9.76q-4.5-1.26-9-2.57l-.25-.07c-6.31-1.82-12.75-3.68-19.14-5.3-11.63-3-19.6-10.23-24.36-22.23-2.91-7.33-6-14.76-8.9-21.95l-.25-.61L361,340.08c-12.54-30.75-34.77-46.34-66.1-46.34-3.05,0-6.24.14-9.48.44-5.26.47-10.52,1-15.77,1.44-22,2.05-44.8,4.16-67.26,5.09-37.95,1.57-62.33-19.61-66.84-58.18-3.17-27.11.33-53.45,3.73-73.36,3.25-19,15.45-31.86,35.3-37.22,18.4-5,37.23-9.34,55.43-13.57l.19,0q8.58-2,17.17-4c32.63-7.71,59.08-13.87,83.25-19.39,6.94-1.58,14.24-2.7,20.6-.13,6,2.44,10.44,7.8,13.82,16.88,2.47,6.61,5.62,13.13,8.68,19.43l.26.54c.54,1.11,1.08,2.23,1.61,3.34,9.74,20.27,25.61,29.06,47.21,26.13,29.75-4.05,59.8-8.25,88.86-12.32,30.53-4.27,62.1-8.69,93.23-12.91a59.43,59.43,0,0,1,21.34.68c13.59,3.2,23.7,16.43,23.54,30.77-.13,10.94-10.55,25.23-23.78,27.27a104.06,104.06,0,0,1-34-.51c-12.58-2.29-25.12-5.77-37.25-9.14-4.15-1.15-8.85-2.46-13.41-3.66-11.36-3-21.53-2.5-31.09,1.57-1.83.79-3.67,1.56-5.51,2.33-7.1,3-14.43,6.07-21.39,9.56-8.61,4.31-17.5,5.2-28,2.82-82.19-18.64-151.4-34.31-222-50.16-27.89-6.25-51.84,5-62.51,29.48-8.58,19.67-5.48,37.32,9.49,54,10.14,11.27,23.42,18.17,39.46,20.51,14.47,2.1,30,4.07,45.72,4.2,109.57,1,208.37,1.77,307.84,1.77h6.75c54.92,0,112.88,3.52,182.4,11.09,24.47,2.66,48.61,3.91,69.91,5,8.24.42,16,.82,22.91,1.26,11.67-.62,22.43-1.22,32.55-1.78,24.19-1.35,45-2.51,65.62-3.34a140.85,140.85,0,0,1,27.3,1.82c8.86,1.39,14.73,7.64,17.46,18.56,2.14,8.56-.32,16-7.32,22.23-10.58,9.36-23.84,13-35.44,15.69-5.47,1.27-11.22,2.51-16.28,3.6-10.19,2.19-20.68,4.45-30.82,7.24C889.2,344,881.7,353.2,879.73,373.9q-.29,3.06-.54,6.14c-.52,6-1,12.06-2,18C875.38,409.17,870.81,417.44,863.61,422.61Z"/><path class="cls-2" d="M548.79,265.69l.05-6,6,0,0,6Z"/><path class="cls-1" d="M554.78,265.73l0-6,6,0,0,6Z"/><path class="cls-2" d="M560.75,265.77l0-6,6,0,0,6Z"/><path class="cls-1" d="M548.83,259.77l0-6,6,0,0,6Z"/><path class="cls-1" d="M560.8,259.84l0-6,6,0,0,6Z"/><path class="cls-2" d="M554.81,259.86l0-6,6,0,0,6Z"/><path class="cls-2" d="M548.88,253.84l0-6,6,0,0,6Z"/><path class="cls-1" d="M554.85,253.88l0-6,6,0,0,6Z"/><path class="cls-2" d="M560.83,253.92l0-6,6,0,0,6Z"/><path class="cls-1" d="M548.91,247.91l0-6,6,0,0,6Z"/><path class="cls-1" d="M560.87,248l0-6,6,0,0,6Z"/><path class="cls-2" d="M554.89,248l0-6,6,0,0,6Z"/><path class="cls-2" d="M548.74,242.09l0-6,6,0,0,6Z"/><path class="cls-1" d="M554.72,242.13l0-6,6,0,0,6Z"/><path class="cls-2" d="M560.7,242.17l0-6,6,0,0,6Z"/><path class="cls-1" d="M1036.82,285.59h-2.66v-2.85h8.7v2.85H1040v8.13h-3.16Z"/><path class="cls-1" d="M1049,282.74v11h-3.1v-8l-1.8.55-.7-2.63,3.09-.94Z"/><path class="cls-1" d="M850.51,341.54h-2.66v-2.86h8.7v2.86h-2.88v8.12h-3.16Z"/><path class="cls-1" d="M865.64,347v2.66h-8.2v-1.12a3.75,3.75,0,0,1,.8-2.34,9,9,0,0,1,2.21-1.95c.4-.26.73-.48,1-.66a4.63,4.63,0,0,0,.6-.45,1.16,1.16,0,0,0,.29-.38.93.93,0,0,0,.08-.42,1,1,0,0,0-.24-.73.92.92,0,0,0-.67-.24c-.63,0-1,.42-1,1.26h-3.08a4.1,4.1,0,0,1,1.11-3.06,4.89,4.89,0,0,1,6-.17,3.82,3.82,0,0,1,.85,3.81,3.11,3.11,0,0,1-.54,1,4.56,4.56,0,0,1-.9.84c-.36.27-.77.56-1.24.86l-.94.61a6.55,6.55,0,0,0-.71.53Z"/><path class="cls-1" d="M859,467.87h-2.67V465h8.71v2.85h-2.88V476H859Z"/><path class="cls-1" d="M872.51,470.39a2.94,2.94,0,0,1,1.24,1,2.71,2.71,0,0,1,.42,1.52,3,3,0,0,1-.3,1.34,3.06,3.06,0,0,1-.86,1,4.26,4.26,0,0,1-1.31.67,5.86,5.86,0,0,1-1.67.23,4.2,4.2,0,0,1-3-1,4.13,4.13,0,0,1-1.17-2.93h3a1.26,1.26,0,0,0,.31.87,1,1,0,0,0,.78.31,1.21,1.21,0,0,0,.82-.27.9.9,0,0,0,.31-.73.86.86,0,0,0-.3-.69,1.21,1.21,0,0,0-.83-.26h-1.06v-2.2h1c.73,0,1.1-.3,1.1-.9a.88.88,0,0,0-.28-.67,1.15,1.15,0,0,0-.77-.24,1.11,1.11,0,0,0-.79.29,1.14,1.14,0,0,0-.32.8h-2.9a4.3,4.3,0,0,1,.36-1.56,3.32,3.32,0,0,1,.85-1.19,3.91,3.91,0,0,1,1.3-.76,5.55,5.55,0,0,1,3.26,0,3.61,3.61,0,0,1,1.23.65,2.72,2.72,0,0,1,.78,1A2.9,2.9,0,0,1,874,468,2.49,2.49,0,0,1,872.51,470.39Z"/><path class="cls-1" d="M571.16,476.76H568.5v-2.85h8.7v2.85h-2.87v8.13h-3.17Z"/><path class="cls-1" d="M583.27,477.6a3.67,3.67,0,0,1,1.42.27,3.11,3.11,0,0,1,1.12.75,3.68,3.68,0,0,1,.73,1.17,4.18,4.18,0,0,1,.26,1.48,4,4,0,0,1-.3,1.57,3.45,3.45,0,0,1-.87,1.22,3.59,3.59,0,0,1-1.35.77,5.37,5.37,0,0,1-1.76.27,4.26,4.26,0,0,1-2.94-1,3.77,3.77,0,0,1-1.17-2.77h3a1.16,1.16,0,0,0,.36.73,1.17,1.17,0,0,0,1.59-.09,1.25,1.25,0,0,0,.33-.9,1.21,1.21,0,0,0-.33-.87,1.13,1.13,0,0,0-.85-.36,1.16,1.16,0,0,0-.57.15,1.32,1.32,0,0,0-.44.41h-2.84v-6.51h7.56v2.66h-4.62V478A3.7,3.7,0,0,1,583.27,477.6Z"/><path class="cls-1" d="M611.17,371.55h-2.66v-2.86h8.7v2.86h-2.87v8.12h-3.17Z"/><path class="cls-1" d="M626.19,378H625v1.66h-3.1V378H617v-2.4l4.59-6.92H625v6.76h1.21ZM620,375.45h2.19V372Z"/><path class="cls-1" d="M342.94,407.85h-2.66V405H349v2.85h-2.87V416h-3.17Z"/><path class="cls-1" d="M354.29,408.29a3.62,3.62,0,0,1,1.26.43,3.62,3.62,0,0,1,1.68,2,3.93,3.93,0,0,1,.24,1.38,4,4,0,0,1-.33,1.62,4.29,4.29,0,0,1-.91,1.3,4.13,4.13,0,0,1-1.35.87,4.52,4.52,0,0,1-3.34,0,4.09,4.09,0,0,1-2.23-2.22A4.12,4.12,0,0,1,349,412a4.18,4.18,0,0,1,.07-.72,3.9,3.9,0,0,1,.21-.73,6,6,0,0,1,.4-.81c.17-.29.38-.62.63-1l2.5-3.73h3.64Zm-1.08,5.1a1.23,1.23,0,0,0,.9-.37,1.27,1.27,0,0,0,.36-.92,1.25,1.25,0,0,0-.36-.92,1.22,1.22,0,0,0-.9-.36,1.2,1.2,0,0,0-.89.36,1.28,1.28,0,0,0-.35.92,1.3,1.3,0,0,0,.35.92A1.21,1.21,0,0,0,353.21,413.39Z"/><path class="cls-1" d="M342.94,286.33h-2.66v-2.85H349v2.85h-2.87v8.13h-3.17Z"/><path class="cls-1" d="M357.67,283.48v2.59l-4,8.39h-3.37l4.09-8.19h-4.6v-2.79Z"/><path class="cls-1" d="M124.36,321.16H121.7V318.3h8.7v2.86h-2.87v8.13h-3.17Z"/><path class="cls-1" d="M138.37,323.54a2.82,2.82,0,0,1,1.55,2.66,3.09,3.09,0,0,1-.3,1.37,2.72,2.72,0,0,1-.85,1,3.87,3.87,0,0,1-1.35.66,6.23,6.23,0,0,1-1.8.24,5,5,0,0,1-3.14-.88,2.91,2.91,0,0,1-1.13-2.42,3.07,3.07,0,0,1,.39-1.59,3,3,0,0,1,1.14-1.07,2.63,2.63,0,0,1-1.34-2.35,2.82,2.82,0,0,1,.29-1.27,2.75,2.75,0,0,1,.82-1,4.08,4.08,0,0,1,1.29-.63,6.21,6.21,0,0,1,1.68-.22,6.29,6.29,0,0,1,1.69.22,3.88,3.88,0,0,1,1.29.63,2.75,2.75,0,0,1,.82,1,2.82,2.82,0,0,1,.28,1.27,2.7,2.7,0,0,1-.34,1.37A2.82,2.82,0,0,1,138.37,323.54Zm-2.75,3.64a1.2,1.2,0,0,0,.86-.31,1.06,1.06,0,0,0,.34-.81,1.21,1.21,0,0,0-2-.84,1.13,1.13,0,0,0-.34.85,1,1,0,0,0,.34.81A1.21,1.21,0,0,0,135.62,327.18Zm0-6.77a1.09,1.09,0,0,0-.78.29.92.92,0,0,0-.31.72,1.08,1.08,0,1,0,2.15,0,1,1,0,0,0-.29-.72A1.06,1.06,0,0,0,135.64,320.41Z"/><path class="cls-1" d="M111.77,112.21H109.1v-2.86h8.7v2.86h-2.87v8.13h-3.16Z"/><path class="cls-1" d="M121.72,117a3.54,3.54,0,0,1-1.26-.42,3.76,3.76,0,0,1-1-.84,3.86,3.86,0,0,1-.67-1.15,4.16,4.16,0,0,1-.23-1.38,4,4,0,0,1,.33-1.61,4.33,4.33,0,0,1,.91-1.31,4.13,4.13,0,0,1,1.35-.87,4.54,4.54,0,0,1,1.69-.32,4.19,4.19,0,0,1,1.65.33,4.13,4.13,0,0,1,1.34.89,4.13,4.13,0,0,1,1.15,3.69,3.69,3.69,0,0,1-.21.73,5.57,5.57,0,0,1-.4.82c-.17.3-.38.63-.63,1l-2.5,3.74h-3.64ZM122.8,112a1.19,1.19,0,0,0-.9.37,1.25,1.25,0,0,0-.36.92,1.23,1.23,0,0,0,1.26,1.27,1.2,1.2,0,0,0,.89-.36,1.26,1.26,0,0,0,.35-.91,1.28,1.28,0,0,0-.35-.92A1.17,1.17,0,0,0,122.8,112Z"/><path class="cls-1" d="M371.1,66.27h-2.66V63.41h8.7v2.86h-2.87V74.4H371.1Z"/><path class="cls-1" d="M383.24,63.41v11h-3.1v-8l-1.79.56-.7-2.63,3.08-1Z"/><path class="cls-1" d="M390.75,74.61a6.49,6.49,0,0,1-2.37-.42A5.81,5.81,0,0,1,386.52,73a5.34,5.34,0,0,1-1.21-1.8,5.93,5.93,0,0,1-.43-2.3,6,6,0,0,1,.43-2.3,5.24,5.24,0,0,1,1.21-1.8,6,6,0,0,1,1.86-1.18,6.9,6.9,0,0,1,4.74,0A5.74,5.74,0,0,1,395,64.8a5.1,5.1,0,0,1,1.21,1.8,6,6,0,0,1,.44,2.3,5.93,5.93,0,0,1-.44,2.3A5.19,5.19,0,0,1,395,73a5.6,5.6,0,0,1-1.86,1.19A6.49,6.49,0,0,1,390.75,74.61Zm0-2.86a2.65,2.65,0,0,0,1.07-.21,2.55,2.55,0,0,0,.85-.59,3.07,3.07,0,0,0,.55-.91,3,3,0,0,0,.2-1.14,3,3,0,0,0-.2-1.13,2.74,2.74,0,0,0-.56-.9,2.53,2.53,0,0,0-.85-.6,2.67,2.67,0,0,0-1.06-.21,2.74,2.74,0,0,0-1.08.21,2.43,2.43,0,0,0-.85.6,2.59,2.59,0,0,0-.56.9,3,3,0,0,0-.21,1.13,3,3,0,0,0,.21,1.14,2.73,2.73,0,0,0,.56.91,2.55,2.55,0,0,0,.85.59A2.74,2.74,0,0,0,390.77,71.75Z"/><path class="cls-1" d="M199.94,195.2h-2.66v-2.86H206v2.86h-2.87v8.12h-3.17Z"/><path class="cls-1" d="M212.08,192.34v11H209v-8l-1.79.55-.71-2.62,3.09-.95Z"/><path class="cls-1" d="M219,196a3.67,3.67,0,0,1,1.42.27,3.13,3.13,0,0,1,1.12.76,3.52,3.52,0,0,1,.73,1.16,4.22,4.22,0,0,1,.26,1.48,4,4,0,0,1-.3,1.58,3.29,3.29,0,0,1-.87,1.21,3.79,3.79,0,0,1-1.34.78,5.44,5.44,0,0,1-1.77.27,4.17,4.17,0,0,1-2.93-1,3.77,3.77,0,0,1-1.18-2.77h3a1.13,1.13,0,0,0,.36.73,1.18,1.18,0,0,0,1.59-.08,1.29,1.29,0,0,0,.33-.91,1.21,1.21,0,0,0-.33-.87,1.11,1.11,0,0,0-.84-.35,1.17,1.17,0,0,0-.58.15,1.29,1.29,0,0,0-.44.4h-2.84v-6.51h7.56V195h-4.62v1.41A3.58,3.58,0,0,1,219,196Z"/><path class="cls-1" d="M685.27,159.63h-2.66v-2.86h8.7v2.86h-2.87v8.13h-3.17Z"/><path class="cls-1" d="M697.41,156.77v11h-3.1v-8l-1.79.56-.7-2.63,3.08-.95Z"/><path class="cls-1" d="M707.3,165.1v2.66h-8.19v-1.13a3.75,3.75,0,0,1,.8-2.34,8.89,8.89,0,0,1,2.2-1.95l1-.65a6.9,6.9,0,0,0,.6-.46,1.16,1.16,0,0,0,.29-.38,1.08,1.08,0,0,0,.08-.42,1,1,0,0,0-.24-.73,1,1,0,0,0-.67-.23c-.63,0-.95.42-.95,1.25h-3.08a4.14,4.14,0,0,1,1.11-3.06,4.88,4.88,0,0,1,6-.17,3.3,3.3,0,0,1,1,2.61,3.36,3.36,0,0,1-.19,1.2,3.19,3.19,0,0,1-.55,1,5.55,5.55,0,0,1-.89.84c-.36.27-.78.55-1.25.85l-.93.62a4.85,4.85,0,0,0-.71.53Z"/><path class="cls-1" d="M407.41,122.58h-2.66v-2.85h8.7v2.85h-2.88v8.13h-3.16Z"/><path class="cls-1" d="M419.55,119.73v11h-3.1v-8l-1.8.55-.7-2.63,3.09-.94Z"/><path class="cls-1" d="M426.29,119.73v11h-3.1v-8l-1.79.55-.71-2.63,3.09-.94Z"/><path class="cls-1" d="M514.11,216.69h-2.66v-2.86h8.7v2.86h-2.88v8.12h-3.16Z"/><path class="cls-1" d="M526.25,213.83v11h-3.1v-8l-1.8.55-.7-2.62,3.09-.95Z"/><path class="cls-1" d="M534.49,219.2a2.82,2.82,0,0,1,1.24,1,2.66,2.66,0,0,1,.43,1.52,3,3,0,0,1-.3,1.34,3.08,3.08,0,0,1-.86,1,4.1,4.1,0,0,1-1.32.67A5.48,5.48,0,0,1,532,225a4.19,4.19,0,0,1-3-1,4.06,4.06,0,0,1-1.17-2.93h2.95a1.33,1.33,0,0,0,.31.86,1,1,0,0,0,.79.31,1.18,1.18,0,0,0,.81-.27.9.9,0,0,0,.31-.72.86.86,0,0,0-.29-.7,1.23,1.23,0,0,0-.83-.25h-1.06v-2.2h1c.73,0,1.09-.3,1.09-.9a.82.82,0,0,0-.28-.67,1.12,1.12,0,0,0-1.87.85h-2.91a4.36,4.36,0,0,1,.36-1.57,3.34,3.34,0,0,1,.86-1.19,3.64,3.64,0,0,1,1.3-.75,4.94,4.94,0,0,1,1.68-.26,5,5,0,0,1,1.58.23,3.45,3.45,0,0,1,1.22.64,3,3,0,0,1,.79,1,3.11,3.11,0,0,1,.27,1.29A2.49,2.49,0,0,1,534.49,219.2Z"/><path class="cls-1" d="M452.61,175.93H450v-2.85h8.7v2.85h-2.88v8.13h-3.16Z"/><path class="cls-1" d="M464.75,173.08v11h-3.1v-8l-1.8.55-.7-2.63,3.09-.94Z"/><path class="cls-1" d="M475.51,182.4H474.3v1.66h-3.1V182.4h-4.88V180l4.58-6.92h3.4v6.75h1.21Zm-6.19-2.57h2.19v-3.46Z"/><g class="cls-3"><polygon class="cls-1" points="683.49 226.92 673.96 216.15 666.73 215.71 676.27 226.48 665.46 236.05 672.68 236.49 683.49 226.92"/></g><g class="cls-4"><polygon class="cls-1" points="695.62 227.53 686.09 216.76 678.87 216.32 688.4 227.09 677.59 236.66 684.81 237.1 695.62 227.53"/></g><polygon class="cls-1" points="707.92 228.34 698.39 217.57 691.17 217.13 700.71 227.9 689.89 237.47 697.12 237.91 707.92 228.34"/><g class="cls-5"><polygon class="cls-1" points="662.57 215.46 655.34 215.02 664.88 225.79 654.07 235.36 661.29 235.8 672.1 226.23 662.57 215.46"/></g><g class="cls-6"><polygon class="cls-1" points="651.17 214.77 643.95 214.33 653.48 225.1 642.67 234.67 649.89 235.11 660.71 225.53 651.17 214.77"/></g><g class="cls-7"><path class="cls-1" d="M697.08,496.08a4.27,4.27,0,0,1-3-1,3.94,3.94,0,0,1-1.23-2.83h1.46a2.63,2.63,0,0,0,2.76,2.6,3,3,0,0,0,1.94-.57,1.93,1.93,0,0,0,.71-1.57,1.77,1.77,0,0,0-.41-1.24,4,4,0,0,0-1.43-.86l-1.79-.68a4.72,4.72,0,0,1-2.08-1.38,3.24,3.24,0,0,1-.64-2.07,3,3,0,0,1,.27-1.29,3,3,0,0,1,.78-1,3.67,3.67,0,0,1,1.19-.64,5.09,5.09,0,0,1,1.55-.23,4,4,0,0,1,2.75.9,3.54,3.54,0,0,1,1.12,2.51h-1.45a2.27,2.27,0,0,0-.69-1.57,2.47,2.47,0,0,0-1.73-.57,2.64,2.64,0,0,0-1.69.51,1.64,1.64,0,0,0-.65,1.35,2.06,2.06,0,0,0,.43,1.33,3.74,3.74,0,0,0,1.45.92l1.83.7a4.72,4.72,0,0,1,2,1.3,3,3,0,0,1,.62,2,3.53,3.53,0,0,1-.29,1.44,3,3,0,0,1-.82,1.1,3.62,3.62,0,0,1-1.29.69A5.56,5.56,0,0,1,697.08,496.08Z"/><path class="cls-1" d="M703.79,483.47h7.15v1.31h-5.71v4h5.53v1.31h-5.53v4.52h5.91v1.31h-7.35Z"/><path class="cls-1" d="M719.36,496.08a6.48,6.48,0,0,1-2.55-.49,6.17,6.17,0,0,1-2-1.35,6.1,6.1,0,0,1-1.34-2,6.49,6.49,0,0,1-.49-2.56,6.41,6.41,0,0,1,.49-2.53,6,6,0,0,1,3.38-3.37,6.46,6.46,0,0,1,2.54-.49,7,7,0,0,1,2.18.33,5.77,5.77,0,0,1,1.79.94,5.3,5.3,0,0,1,1.32,1.47,5.54,5.54,0,0,1,.74,1.9h-1.55a4.42,4.42,0,0,0-.61-1.36,4.22,4.22,0,0,0-1-1,4.63,4.63,0,0,0-1.31-.67,5.3,5.3,0,0,0-1.56-.23,4.88,4.88,0,0,0-3.52,1.46,5.08,5.08,0,0,0-1,1.6,5.45,5.45,0,0,0,0,4,5,5,0,0,0,1,1.61,4.81,4.81,0,0,0,1.57,1.07,5,5,0,0,0,2,.38,4.62,4.62,0,0,0,2.86-.89,4.28,4.28,0,0,0,1.6-2.43h1.55a5.65,5.65,0,0,1-.74,1.92,5.34,5.34,0,0,1-1.32,1.48,6,6,0,0,1-1.79.94A7,7,0,0,1,719.36,496.08Z"/><path class="cls-1" d="M730.31,484.78h-3.67v-1.31h8.89v1.31h-3.78v11.1h-1.44Z"/><path class="cls-1" d="M743,496.08a6.43,6.43,0,0,1-4.57-1.84,6.16,6.16,0,0,1-1.35-2,6.8,6.8,0,0,1,0-5.07,6,6,0,0,1,3.38-3.37,6.53,6.53,0,0,1,2.54-.49,6.46,6.46,0,0,1,2.54.49,6.25,6.25,0,0,1,2,1.34,6.14,6.14,0,0,1,1.34,2,6.8,6.8,0,0,1,0,5.07,6.29,6.29,0,0,1-1.34,2,6.38,6.38,0,0,1-4.57,1.84Zm0-1.35a5.07,5.07,0,0,0,2-.38,4.82,4.82,0,0,0,2.6-2.69,5.52,5.52,0,0,0,.37-2,5.19,5.19,0,0,0-.38-2,5,5,0,0,0-1-1.61,4.55,4.55,0,0,0-1.55-1.06,5.22,5.22,0,0,0-3.91,0,4.69,4.69,0,0,0-1.56,1.06,5.21,5.21,0,0,0-1.41,3.6,5.52,5.52,0,0,0,.37,2,4.79,4.79,0,0,0,4.55,3.07Z"/><path class="cls-1" d="M752.08,483.47h3.85a4,4,0,0,1,2.87,1,3.44,3.44,0,0,1,1,2.64,3.67,3.67,0,0,1-.73,2.34,3.55,3.55,0,0,1-2,1.24l3.52,5.22H758.9l-3.37-5.09h-2v5.09h-1.44Zm3.76,6a2.53,2.53,0,0,0,1.82-.62,2.58,2.58,0,0,0,0-3.45,2.56,2.56,0,0,0-1.84-.61H753.5v4.68Z"/><path class="cls-1" d="M770.92,483.47v12.41h-1.44V485l-2.36.73-.35-1.25,2.91-1Z"/></g><g class="cls-7"><path class="cls-1" d="M11.69,223.4a4.27,4.27,0,0,1-3-1,3.94,3.94,0,0,1-1.22-2.83H8.9a2.74,2.74,0,0,0,.83,1.88,2.71,2.71,0,0,0,1.94.72,3,3,0,0,0,1.94-.57,1.91,1.91,0,0,0,.71-1.57,1.76,1.76,0,0,0-.41-1.23,3.83,3.83,0,0,0-1.43-.87l-1.79-.68a4.8,4.8,0,0,1-2.08-1.37A3.27,3.27,0,0,1,8,213.76a3.11,3.11,0,0,1,.28-1.29,2.92,2.92,0,0,1,.78-1,3.68,3.68,0,0,1,1.19-.65,5.09,5.09,0,0,1,1.55-.23,4,4,0,0,1,2.75.91,3.51,3.51,0,0,1,1.12,2.5H14.18a2.24,2.24,0,0,0-.7-1.56,2.43,2.43,0,0,0-1.72-.57,2.64,2.64,0,0,0-1.69.5,1.65,1.65,0,0,0-.65,1.36,2,2,0,0,0,.43,1.32,3.56,3.56,0,0,0,1.45.93l1.83.7a4.63,4.63,0,0,1,2,1.3,3,3,0,0,1,.62,2,3.53,3.53,0,0,1-.29,1.44,2.94,2.94,0,0,1-.82,1.09,3.62,3.62,0,0,1-1.29.69A5.56,5.56,0,0,1,11.69,223.4Z"/><path class="cls-1" d="M18.4,210.8h7.15v1.31H19.83v4h5.53v1.31H19.83v4.51h5.92v1.31H18.4Z"/><path class="cls-1" d="M34,223.4a6.48,6.48,0,0,1-2.55-.49,6.06,6.06,0,0,1-3.37-3.37,6.85,6.85,0,0,1,0-5.09,6.1,6.1,0,0,1,1.34-2,6.26,6.26,0,0,1,2-1.35,6.64,6.64,0,0,1,2.54-.49,6.73,6.73,0,0,1,2.18.34,5.77,5.77,0,0,1,1.79.94,5.42,5.42,0,0,1,1.32,1.46,5.59,5.59,0,0,1,.74,1.91H38.45a4.59,4.59,0,0,0-.61-1.37,4.18,4.18,0,0,0-2.29-1.7,5.3,5.3,0,0,0-1.56-.23,4.85,4.85,0,0,0-2,.39,4.52,4.52,0,0,0-1.57,1.07,4.86,4.86,0,0,0-1,1.6,5.22,5.22,0,0,0-.38,2,5.33,5.33,0,0,0,.38,2,5,5,0,0,0,1,1.6A4.66,4.66,0,0,0,32,221.67a4.85,4.85,0,0,0,2,.39,4.62,4.62,0,0,0,2.86-.9,4.26,4.26,0,0,0,1.6-2.42H40a5.73,5.73,0,0,1-.74,1.92,5.32,5.32,0,0,1-1.32,1.47,5.77,5.77,0,0,1-1.79.94A7,7,0,0,1,34,223.4Z"/><path class="cls-1" d="M44.92,212.11H41.25V210.8h8.89v1.31H46.36V223.2H44.92Z"/><path class="cls-1" d="M57.58,223.4a6.41,6.41,0,0,1-2.53-.49,6.13,6.13,0,0,1-3.39-3.39,6.41,6.41,0,0,1-.49-2.53,6.5,6.5,0,0,1,.49-2.54,6.1,6.1,0,0,1,1.34-2,6.26,6.26,0,0,1,2-1.35,6.83,6.83,0,0,1,5.08,0,6.44,6.44,0,0,1,2,1.35,6.1,6.1,0,0,1,1.34,2A6.5,6.5,0,0,1,64,217a6.41,6.41,0,0,1-.49,2.53,6.29,6.29,0,0,1-1.34,2,6.11,6.11,0,0,1-2,1.35A6.46,6.46,0,0,1,57.58,223.4Zm0-1.34a4.9,4.9,0,0,0,2-.39,4.84,4.84,0,0,0,2.6-2.68,5.54,5.54,0,0,0,.36-2,5.22,5.22,0,0,0-.37-2,5.14,5.14,0,0,0-1-1.6,4.41,4.41,0,0,0-1.55-1.06,5.22,5.22,0,0,0-3.91,0,4.55,4.55,0,0,0-1.56,1.06,5.12,5.12,0,0,0-1,1.6,5.22,5.22,0,0,0-.38,2,5.34,5.34,0,0,0,.37,2,4.84,4.84,0,0,0,4.55,3.07Z"/><path class="cls-1" d="M66.69,210.8h3.85a4.08,4.08,0,0,1,2.87,1,3.46,3.46,0,0,1,1,2.65,3.64,3.64,0,0,1-.73,2.33,3.56,3.56,0,0,1-2,1.25l3.52,5.21H73.51l-3.37-5.09h-2v5.09H66.69Zm3.76,6a2.57,2.57,0,0,0,1.82-.62,2.23,2.23,0,0,0,.67-1.74,2.26,2.26,0,0,0-.65-1.72,2.6,2.6,0,0,0-1.84-.6H68.11v4.68Z"/><path class="cls-1" d="M90,221.89v1.31H81.89v-.74a4.16,4.16,0,0,1,.33-1.7,5.12,5.12,0,0,1,.82-1.33,6.11,6.11,0,0,1,1.09-1c.4-.29.78-.55,1.14-.77l1.38-.86a5.91,5.91,0,0,0,.93-.73,2.3,2.3,0,0,0,.53-.78,2.54,2.54,0,0,0,.16-1,2.27,2.27,0,0,0-.66-1.79,2.35,2.35,0,0,0-1.61-.59,2.33,2.33,0,0,0-1.77.71,2.59,2.59,0,0,0-.68,1.87H82.08a4.35,4.35,0,0,1,.28-1.61,3.83,3.83,0,0,1,.8-1.25,3.3,3.3,0,0,1,1.22-.79,4.57,4.57,0,0,1,1.61-.28,4.72,4.72,0,0,1,1.53.25,3.28,3.28,0,0,1,2,1.89,4.17,4.17,0,0,1,.28,1.53,3.78,3.78,0,0,1-.25,1.41,3.86,3.86,0,0,1-.71,1.09,6.65,6.65,0,0,1-1.09.91c-.42.28-.87.58-1.36.89s-.82.52-1.16.77a6.07,6.07,0,0,0-.87.76,3.32,3.32,0,0,0-.6.82,3,3,0,0,0-.32,1Z"/></g><g class="cls-7"><path class="cls-1" d="M756.36,149.31a4.31,4.31,0,0,1-3-1,4,4,0,0,1-1.22-2.83h1.45a2.76,2.76,0,0,0,.83,1.88,2.71,2.71,0,0,0,1.94.72,3,3,0,0,0,1.93-.58,1.88,1.88,0,0,0,.72-1.56,1.82,1.82,0,0,0-.41-1.24,4.05,4.05,0,0,0-1.43-.86l-1.79-.68a4.72,4.72,0,0,1-2.08-1.38,3.24,3.24,0,0,1-.65-2.07,3,3,0,0,1,.28-1.29,2.93,2.93,0,0,1,.77-1,3.72,3.72,0,0,1,1.2-.64,4.76,4.76,0,0,1,1.55-.23,4,4,0,0,1,2.75.9,3.54,3.54,0,0,1,1.12,2.51h-1.45a2.24,2.24,0,0,0-.7-1.57,2.43,2.43,0,0,0-1.72-.57,2.67,2.67,0,0,0-1.7.51,1.63,1.63,0,0,0-.64,1.35,2,2,0,0,0,.43,1.33,3.66,3.66,0,0,0,1.45.92l1.82.7a4.7,4.7,0,0,1,2,1.3,3,3,0,0,1,.62,2,3.53,3.53,0,0,1-.29,1.44,3,3,0,0,1-.82,1.1,3.62,3.62,0,0,1-1.29.69A5.56,5.56,0,0,1,756.36,149.31Z"/><path class="cls-1" d="M763.07,136.7h7.15V138H764.5v4H770v1.31H764.5v4.52h5.92v1.31h-7.35Z"/><path class="cls-1" d="M778.64,149.31a6.48,6.48,0,0,1-2.55-.49,6.17,6.17,0,0,1-2-1.35,6.28,6.28,0,0,1-1.35-2,6.67,6.67,0,0,1-.48-2.56,6.59,6.59,0,0,1,.48-2.53,6.33,6.33,0,0,1,1.35-2,6.08,6.08,0,0,1,2-1.34,6.46,6.46,0,0,1,2.54-.49,7.06,7.06,0,0,1,2.18.33,5.77,5.77,0,0,1,1.79.94,5.64,5.64,0,0,1,1.32,1.47,5.54,5.54,0,0,1,.74,1.9h-1.55a4.67,4.67,0,0,0-.61-1.36,4.08,4.08,0,0,0-1-1,4.45,4.45,0,0,0-1.3-.67,5.3,5.3,0,0,0-1.56-.23,4.93,4.93,0,0,0-2,.39,4.87,4.87,0,0,0-1.56,1.07,5,5,0,0,0-1,1.6,5.45,5.45,0,0,0,0,4,5,5,0,0,0,1,1.61,4.69,4.69,0,0,0,1.56,1.06,4.93,4.93,0,0,0,2,.39,4.7,4.7,0,0,0,2.86-.89,4.36,4.36,0,0,0,1.6-2.43h1.55a5.64,5.64,0,0,1-2.06,3.4,6.23,6.23,0,0,1-1.79.94A7.06,7.06,0,0,1,778.64,149.31Z"/><path class="cls-1" d="M789.59,138h-3.67V136.7h8.89V138H791v11.1h-1.44Z"/><path class="cls-1" d="M802.25,149.31a6.41,6.41,0,0,1-2.53-.49,6.34,6.34,0,0,1-2-1.36,6,6,0,0,1-1.35-2,6.8,6.8,0,0,1,0-5.07,6,6,0,0,1,3.38-3.37,6.83,6.83,0,0,1,5.08,0,6.1,6.1,0,0,1,2,1.34,6.17,6.17,0,0,1,1.35,2,6.8,6.8,0,0,1,0,5.07,6.27,6.27,0,0,1-3.37,3.39A6.46,6.46,0,0,1,802.25,149.31Zm0-1.35a4.93,4.93,0,0,0,2-.39,4.69,4.69,0,0,0,1.56-1.06,4.9,4.9,0,0,0,1-1.62,5.54,5.54,0,0,0,.36-2,5,5,0,0,0-1.41-3.59,4.55,4.55,0,0,0-1.55-1.06,5.11,5.11,0,0,0-2-.38,5,5,0,0,0-2,.38,4.69,4.69,0,0,0-1.56,1.06,5.16,5.16,0,0,0-1.41,3.59,5.34,5.34,0,0,0,.37,2,4.87,4.87,0,0,0,1,1.62,4.73,4.73,0,0,0,1.57,1.06A4.85,4.85,0,0,0,802.25,148Z"/><path class="cls-1" d="M811.36,136.7h3.85a4,4,0,0,1,2.87,1,3.44,3.44,0,0,1,1,2.64,3.73,3.73,0,0,1-.73,2.34,3.55,3.55,0,0,1-2,1.24l3.52,5.22h-1.71L814.8,144h-2v5.09h-1.43Zm3.76,6a2.53,2.53,0,0,0,1.82-.62,2.27,2.27,0,0,0,.67-1.74,2.22,2.22,0,0,0-.65-1.71,2.56,2.56,0,0,0-1.84-.61h-2.34v4.68Z"/><path class="cls-1" d="M832.7,142.56a3.1,3.1,0,0,1,1.45,1.15,3.25,3.25,0,0,1,.5,1.84,3.57,3.57,0,0,1-.31,1.5,3.67,3.67,0,0,1-.86,1.19,4.12,4.12,0,0,1-1.32.78,4.76,4.76,0,0,1-1.67.29,4.67,4.67,0,0,1-1.62-.27,3.56,3.56,0,0,1-1.26-.77,3.47,3.47,0,0,1-.83-1.24,5.13,5.13,0,0,1-.33-1.63h1.46a2.64,2.64,0,0,0,.73,1.86,2.41,2.41,0,0,0,1.81.7,3.5,3.5,0,0,0,1.11-.17,2.68,2.68,0,0,0,.86-.49,2.22,2.22,0,0,0,.55-.76,2.37,2.37,0,0,0,.19-1,2.11,2.11,0,0,0-.72-1.7,3,3,0,0,0-2-.61H829.2V142h1.22a2.51,2.51,0,0,0,1.7-.53,2,2,0,0,0,.6-1.55,1.94,1.94,0,0,0-.59-1.5,2.37,2.37,0,0,0-1.66-.55,2.52,2.52,0,0,0-1.71.57,2,2,0,0,0-.7,1.52h-1.44a3.22,3.22,0,0,1,.33-1.38,3.54,3.54,0,0,1,.83-1.08,3.6,3.6,0,0,1,1.22-.71,4.17,4.17,0,0,1,1.53-.26,4.55,4.55,0,0,1,1.51.24,3.4,3.4,0,0,1,1.16.67,2.9,2.9,0,0,1,.74,1.05,3.34,3.34,0,0,1,.27,1.36,3.28,3.28,0,0,1-.39,1.63A3.06,3.06,0,0,1,832.7,142.56Z"/></g><g class="cls-8"><path class="cls-1" d="M886.86,305.05a3.05,3.05,0,0,1-2.13-.74,2.77,2.77,0,0,1-.86-2h1a1.86,1.86,0,0,0,2,1.83,2.12,2.12,0,0,0,1.36-.4,1.34,1.34,0,0,0,.51-1.11,1.29,1.29,0,0,0-.29-.87,2.7,2.7,0,0,0-1-.61l-1.26-.48a3.28,3.28,0,0,1-1.47-1,2.26,2.26,0,0,1-.46-1.46,2.13,2.13,0,0,1,.2-.91,2,2,0,0,1,.54-.71,2.57,2.57,0,0,1,.85-.46,3.72,3.72,0,0,1,1.09-.16,2.79,2.79,0,0,1,1.94.64,2.49,2.49,0,0,1,.79,1.77h-1a1.59,1.59,0,0,0-.48-1.11,1.73,1.73,0,0,0-1.22-.4,1.86,1.86,0,0,0-1.19.36,1.12,1.12,0,0,0-.46,1,1.38,1.38,0,0,0,.31.94,2.53,2.53,0,0,0,1,.65l1.28.49a3.29,3.29,0,0,1,1.44.92,2.13,2.13,0,0,1,.43,1.38,2.41,2.41,0,0,1-.2,1,2.07,2.07,0,0,1-.57.77,2.75,2.75,0,0,1-.91.49A4.09,4.09,0,0,1,886.86,305.05Z"/><path class="cls-1" d="M896.56,302.68h-3.95l-.84,2.22h-1.08l3.34-8.74h1.1l3.32,8.74h-1.06Zm-3.62-.9h3.29l-1.65-4.49Z"/><path class="cls-1" d="M906.65,296.16v8.74h-1.11l-4.38-7.11v7.11h-1v-8.74h1.17l4.3,7v-7Z"/><path class="cls-1" d="M912.66,296.16h2.67a5.8,5.8,0,0,1,2,.31,4.42,4.42,0,0,1,1.51.88,3.93,3.93,0,0,1,1,1.37,4.88,4.88,0,0,1,0,3.58,4,4,0,0,1-1,1.39,4.63,4.63,0,0,1-1.51.9,5.78,5.78,0,0,1-1.95.31h-2.67Zm2.67,7.82a4.37,4.37,0,0,0,1.52-.25A3.39,3.39,0,0,0,918,303a3.11,3.11,0,0,0,.76-1.1,3.63,3.63,0,0,0,.27-1.42,3.55,3.55,0,0,0-.27-1.41A3,3,0,0,0,918,298a3.55,3.55,0,0,0-1.18-.7,4.63,4.63,0,0,0-1.53-.24h-1.65V304Z"/><path class="cls-1" d="M926,305.05a4.56,4.56,0,0,1-1.78-.35,4.35,4.35,0,0,1-2.4-2.39,4.6,4.6,0,0,1-.34-1.79,4.55,4.55,0,0,1,.34-1.78,4.42,4.42,0,0,1,1-1.43,4.3,4.3,0,0,1,1.44-.95,4.75,4.75,0,0,1,3.58,0,4.26,4.26,0,0,1,1.43.95,4.42,4.42,0,0,1,1,1.43,4.55,4.55,0,0,1,.34,1.78,4.51,4.51,0,0,1-1.29,3.23,4.42,4.42,0,0,1-1.43.95A4.61,4.61,0,0,1,926,305.05Zm0-.95a3.31,3.31,0,0,0,1.38-.28,3.4,3.4,0,0,0,1.11-.75,3.35,3.35,0,0,0,.72-1.14,3.66,3.66,0,0,0,.26-1.42,3.6,3.6,0,0,0-.26-1.4,3.49,3.49,0,0,0-.73-1.13,3.12,3.12,0,0,0-1.1-.75A3.47,3.47,0,0,0,926,297a3.54,3.54,0,0,0-1.38.27,3.08,3.08,0,0,0-1.09.75,3.49,3.49,0,0,0-.73,1.13,3.6,3.6,0,0,0-.27,1.4,3.86,3.86,0,0,0,.26,1.42,3.54,3.54,0,0,0,.73,1.14,3.46,3.46,0,0,0,2.48,1Z"/><path class="cls-1" d="M938.89,296.16v8.74h-1.11l-4.38-7.11v7.11h-1v-8.74h1.17l4.3,7v-7Z"/><path class="cls-1" d="M946.43,302.68h-4l-.83,2.22h-1.08l3.34-8.74H945l3.33,8.74h-1.06Zm-3.62-.9h3.29l-1.65-4.49Z"/><path class="cls-1" d="M950.71,297.08h-2.58v-.92h6.26v.92h-2.66v7.82h-1Z"/><path class="cls-1" d="M959.65,305.05a4.58,4.58,0,0,1-3.23-1.3,4.41,4.41,0,0,1-.95-1.44,4.61,4.61,0,0,1-.35-1.79,4.56,4.56,0,0,1,.35-1.78,4.26,4.26,0,0,1,2.38-2.38,4.66,4.66,0,0,1,1.8-.35,4.56,4.56,0,0,1,1.78.35,4.34,4.34,0,0,1,2.38,2.38,4.56,4.56,0,0,1,.35,1.78,4.61,4.61,0,0,1-.35,1.79,4.32,4.32,0,0,1-2.38,2.39A4.56,4.56,0,0,1,959.65,305.05Zm0-.95a3.51,3.51,0,0,0,2.48-1,3.54,3.54,0,0,0,.73-1.14,3.86,3.86,0,0,0,.26-1.42,3.6,3.6,0,0,0-.27-1.4,3.49,3.49,0,0,0-.73-1.13,3.12,3.12,0,0,0-1.1-.75,3.64,3.64,0,0,0-2.75,0,3.12,3.12,0,0,0-1.1.75,3.49,3.49,0,0,0-.73,1.13,3.6,3.6,0,0,0-.27,1.4,3.86,3.86,0,0,0,.26,1.42,3.54,3.54,0,0,0,.73,1.14,3.51,3.51,0,0,0,2.49,1Z"/></g><g class="cls-8"><path class="cls-1" d="M916.41,373.22h1V381h3.63V382h-4.64Z"/><path class="cls-1" d="M925.61,382.11a3.4,3.4,0,0,1-1.34-.25,2.8,2.8,0,0,1-1-.71,3,3,0,0,1-.65-1.11,4.2,4.2,0,0,1-.23-1.47v-5.35h1v5.39a2.73,2.73,0,0,0,.61,1.88,2.29,2.29,0,0,0,3.29,0,2.75,2.75,0,0,0,.6-1.89v-5.39h1v5.35a4.45,4.45,0,0,1-.22,1.47,3.19,3.19,0,0,1-.65,1.11,2.84,2.84,0,0,1-1,.71A3.47,3.47,0,0,1,925.61,382.11Z"/><path class="cls-1" d="M935.19,382.11a4.62,4.62,0,0,1-1.8-.35,4.39,4.39,0,0,1-1.43-.94,4.53,4.53,0,0,1-1-1.43,4.7,4.7,0,0,1-.34-1.81,4.55,4.55,0,0,1,.34-1.78,4.42,4.42,0,0,1,1-1.43,4.21,4.21,0,0,1,1.44-.95,4.61,4.61,0,0,1,1.79-.35,4.82,4.82,0,0,1,1.54.24A3.88,3.88,0,0,1,938,374a3.89,3.89,0,0,1,1.45,2.38h-1.09a3,3,0,0,0-.43-1,3,3,0,0,0-.69-.74,3,3,0,0,0-.93-.46,3.51,3.51,0,0,0-1.09-.17,3.51,3.51,0,0,0-2.49,1A3.76,3.76,0,0,0,932,379a3.41,3.41,0,0,0,3.22,2.16,3.25,3.25,0,0,0,2-.63,3,3,0,0,0,1.13-1.71h1.09a4,4,0,0,1-.52,1.35,3.72,3.72,0,0,1-.93,1,3.88,3.88,0,0,1-1.26.66A4.82,4.82,0,0,1,935.19,382.11Z"/><path class="cls-1" d="M945.31,382.11a4.61,4.61,0,0,1-1.79-.35,4.41,4.41,0,0,1-1.44-.95,4.68,4.68,0,0,1-1-5,4.34,4.34,0,0,1,2.38-2.38,4.69,4.69,0,0,1,1.8-.35,4.56,4.56,0,0,1,1.78.35,4.34,4.34,0,0,1,2.38,2.38,4.73,4.73,0,0,1,0,3.57,4.41,4.41,0,0,1-1,1.44,4.26,4.26,0,0,1-1.43.95A4.56,4.56,0,0,1,945.31,382.11Zm0-.95a3.39,3.39,0,0,0,3.21-2.17,3.86,3.86,0,0,0,.26-1.42,3.6,3.6,0,0,0-.27-1.4,3.49,3.49,0,0,0-.73-1.13,3.22,3.22,0,0,0-1.09-.75,3.54,3.54,0,0,0-1.38-.27,3.47,3.47,0,0,0-1.38.27,3.26,3.26,0,0,0-1.1.75,3.49,3.49,0,0,0-.73,1.13,3.6,3.6,0,0,0-.26,1.4,3.66,3.66,0,0,0,.26,1.42,3.35,3.35,0,0,0,.72,1.14,3.59,3.59,0,0,0,1.11.76A3.47,3.47,0,0,0,945.31,381.16Z"/></g><g class="cls-8"><path class="cls-1" d="M894.18,446.57h2.72a2.89,2.89,0,0,1,2,.68,2.43,2.43,0,0,1,.73,1.87,2.85,2.85,0,0,1-.19,1.08,2.35,2.35,0,0,1-.56.82,2.27,2.27,0,0,1-.86.53,3.41,3.41,0,0,1-1.14.18h-1.71v3.59h-1Zm2.65,4.22a1.81,1.81,0,0,0,1.29-.43,1.83,1.83,0,0,0,0-2.44,1.85,1.85,0,0,0-1.3-.43h-1.65v3.3Z"/><path class="cls-1" d="M905.32,455.46a4.6,4.6,0,0,1-1.79-.34,4.29,4.29,0,0,1-1.43-1,4.39,4.39,0,0,1-1-1.43,4.88,4.88,0,0,1,0-3.58,4.34,4.34,0,0,1,2.38-2.38,4.69,4.69,0,0,1,1.8-.34,4.6,4.6,0,0,1,1.79.34,4.53,4.53,0,0,1,1.43,1,4.42,4.42,0,0,1,1,1.43,4.88,4.88,0,0,1,0,3.58,4.53,4.53,0,0,1-1,1.43,4.39,4.39,0,0,1-1.43,1A4.6,4.6,0,0,1,905.32,455.46Zm0-.95a3.54,3.54,0,0,0,1.38-.27,3.36,3.36,0,0,0,1.83-1.89,3.9,3.9,0,0,0,.26-1.42,3.62,3.62,0,0,0-.27-1.41,3.58,3.58,0,0,0-.72-1.13,3.36,3.36,0,0,0-1.1-.75,3.79,3.79,0,0,0-2.76,0,3.36,3.36,0,0,0-1.1.75,3.6,3.6,0,0,0-.73,1.13,3.8,3.8,0,0,0-.26,1.41,3.9,3.9,0,0,0,.26,1.42,3.23,3.23,0,0,0,.73,1.14,3.36,3.36,0,0,0,1.1.75A3.54,3.54,0,0,0,905.32,454.51Z"/><path class="cls-1" d="M919.76,451v2.34a4.08,4.08,0,0,1-1.64,1.58,4.82,4.82,0,0,1-2.26.52,5.08,5.08,0,0,1-1.89-.34,4.58,4.58,0,0,1-1.49-.95,4.25,4.25,0,0,1-1-1.44,4.68,4.68,0,0,1-.34-1.82,4.53,4.53,0,0,1,.34-1.79,4.24,4.24,0,0,1,1-1.42,4.35,4.35,0,0,1,1.44-.93,5,5,0,0,1,3.19-.15,3.74,3.74,0,0,1,1.14.54,3.59,3.59,0,0,1,.87.87,3.68,3.68,0,0,1,.56,1.14h-1.12a2.89,2.89,0,0,0-1.1-1.33,3.23,3.23,0,0,0-1.74-.46,3.48,3.48,0,0,0-1.39.26,3.34,3.34,0,0,0-1.84,1.85,3.9,3.9,0,0,0-.26,1.42,3.86,3.86,0,0,0,.27,1.45,3.43,3.43,0,0,0,.75,1.14,3.37,3.37,0,0,0,1.15.75,4.2,4.2,0,0,0,1.49.26,3.91,3.91,0,0,0,1.6-.32,3.11,3.11,0,0,0,1.27-1.05v-1.2h-2.94V451Z"/><path class="cls-1" d="M930,451v2.34a4.14,4.14,0,0,1-1.64,1.58,4.82,4.82,0,0,1-2.26.52,5.08,5.08,0,0,1-1.89-.34,4.58,4.58,0,0,1-1.49-.95,4.11,4.11,0,0,1-1-1.44,4.68,4.68,0,0,1-.34-1.82,4.53,4.53,0,0,1,.34-1.79,4.28,4.28,0,0,1,2.4-2.35,5,5,0,0,1,3.19-.15,3.74,3.74,0,0,1,1.14.54,3.59,3.59,0,0,1,.87.87,3.91,3.91,0,0,1,.56,1.14h-1.12a2.89,2.89,0,0,0-1.1-1.33,3.24,3.24,0,0,0-1.75-.46,3.55,3.55,0,0,0-1.39.26,3.49,3.49,0,0,0-1.1.74,3.25,3.25,0,0,0-.73,1.11,3.9,3.9,0,0,0-.26,1.42,3.86,3.86,0,0,0,.27,1.45,3.26,3.26,0,0,0,.74,1.14,3.41,3.41,0,0,0,1.16.75,4.18,4.18,0,0,0,1.48.26,3.92,3.92,0,0,0,1.61-.32,3.11,3.11,0,0,0,1.27-1.05v-1.2H926V451Z"/><path class="cls-1" d="M932.18,446.57h1v8.75h-1Z"/><path class="cls-1" d="M939.6,455.46a4.6,4.6,0,0,1-1.79-.34,4.29,4.29,0,0,1-1.43-1,4.39,4.39,0,0,1-1-1.43,4.88,4.88,0,0,1,0-3.58,4.42,4.42,0,0,1,1-1.43,4.35,4.35,0,0,1,1.44-1,4.88,4.88,0,0,1,3.58,0,4.34,4.34,0,0,1,2.38,2.38,4.88,4.88,0,0,1,0,3.58,4.53,4.53,0,0,1-.95,1.43,4.29,4.29,0,0,1-1.43,1A4.6,4.6,0,0,1,939.6,455.46Zm0-.95a3.54,3.54,0,0,0,1.38-.27,3.36,3.36,0,0,0,1.1-.75,3.23,3.23,0,0,0,.73-1.14,3.9,3.9,0,0,0,.26-1.42,3.57,3.57,0,0,0-1-2.54,3.36,3.36,0,0,0-1.1-.75,3.79,3.79,0,0,0-2.76,0,3.36,3.36,0,0,0-1.1.75,3.58,3.58,0,0,0-.72,1.13,3.62,3.62,0,0,0-.27,1.41,3.9,3.9,0,0,0,.26,1.42,3.36,3.36,0,0,0,1.83,1.89A3.54,3.54,0,0,0,939.6,454.51Z"/><path class="cls-1" d="M951.9,455.46a3,3,0,0,1-2.13-.73,2.79,2.79,0,0,1-.86-2h1a1.86,1.86,0,0,0,1.95,1.84,2.12,2.12,0,0,0,1.36-.41,1.32,1.32,0,0,0,.51-1.1,1.21,1.21,0,0,0-.3-.87,2.78,2.78,0,0,0-1-.62l-1.26-.48a3.35,3.35,0,0,1-1.47-1,2.29,2.29,0,0,1-.46-1.47,2.13,2.13,0,0,1,.2-.91A2.2,2.2,0,0,1,950,447a2.75,2.75,0,0,1,.85-.45,3.42,3.42,0,0,1,1.09-.16,2.83,2.83,0,0,1,1.94.63,2.53,2.53,0,0,1,.79,1.77h-1a1.56,1.56,0,0,0-.48-1.1,1.73,1.73,0,0,0-1.22-.41,1.9,1.9,0,0,0-1.2.36,1.17,1.17,0,0,0-.45,1,1.36,1.36,0,0,0,.31.93,2.43,2.43,0,0,0,1,.65l1.28.5a3.28,3.28,0,0,1,1.44.91,2.14,2.14,0,0,1,.43,1.39,2.37,2.37,0,0,1-.2,1,2,2,0,0,1-.58.78,2.55,2.55,0,0,1-.91.48A3.68,3.68,0,0,1,951.9,455.46Z"/><path class="cls-1" d="M956.63,446.57h5v.92h-4v2.8h3.9v.92h-3.9v3.19h4.18v.92h-5.19Z"/><path class="cls-1" d="M967.61,455.46a4.57,4.57,0,0,1-1.79-.34,4.46,4.46,0,0,1-1.44-.95,4.39,4.39,0,0,1-.94-1.43,4.78,4.78,0,0,1,0-3.59,4.39,4.39,0,0,1,.94-1.43,4.57,4.57,0,0,1,1.44-1,4.64,4.64,0,0,1,1.79-.34,4.82,4.82,0,0,1,1.54.23,4.37,4.37,0,0,1,1.27.66,4,4,0,0,1,1.45,2.38h-1.1a3.19,3.19,0,0,0-.42-1,3,3,0,0,0-.7-.73,3,3,0,0,0-.92-.47,3.61,3.61,0,0,0-1.1-.16,3.47,3.47,0,0,0-1.38.27,3.36,3.36,0,0,0-1.1.75,3.46,3.46,0,0,0-.74,1.13,3.84,3.84,0,0,0,0,2.83,3.46,3.46,0,0,0,.74,1.13,3.36,3.36,0,0,0,1.1.75,3.47,3.47,0,0,0,1.38.27,3.25,3.25,0,0,0,2-.63,3,3,0,0,0,1.13-1.71h1.1a4.13,4.13,0,0,1-.52,1.36,4.21,4.21,0,0,1-.93,1,4.37,4.37,0,0,1-1.27.66A5.12,5.12,0,0,1,967.61,455.46Z"/><path class="cls-1" d="M977.73,455.46a4.62,4.62,0,0,1-1.8-.34,4.34,4.34,0,0,1-2.38-2.38,4.78,4.78,0,0,1,0-3.59,4.34,4.34,0,0,1,2.38-2.38,4.69,4.69,0,0,1,1.8-.34,4.76,4.76,0,0,1,1.53.23,4.37,4.37,0,0,1,1.27.66,3.86,3.86,0,0,1,.93,1,4,4,0,0,1,.52,1.34h-1.09a3.48,3.48,0,0,0-.43-1,2.7,2.7,0,0,0-.7-.73,3,3,0,0,0-.92-.47,3.75,3.75,0,0,0-2.48.11,3.36,3.36,0,0,0-1.1.75,3.63,3.63,0,0,0-.74,1.13,4,4,0,0,0,0,2.83,3.63,3.63,0,0,0,.74,1.13,3.36,3.36,0,0,0,1.1.75,3.54,3.54,0,0,0,1.38.27,3.3,3.3,0,0,0,2-.63,3,3,0,0,0,1.13-1.71H982a4.13,4.13,0,0,1-.52,1.36,4,4,0,0,1-.93,1,4.37,4.37,0,0,1-1.27.66A5.05,5.05,0,0,1,977.73,455.46Z"/><path class="cls-1" d="M987.84,455.46a4.55,4.55,0,0,1-1.78-.34,4.33,4.33,0,0,1-1.44-1,4.39,4.39,0,0,1-1-1.43,4.88,4.88,0,0,1,0-3.58,4.42,4.42,0,0,1,1-1.43,4.46,4.46,0,0,1,1.44-1,4.88,4.88,0,0,1,3.58,0,4.34,4.34,0,0,1,2.38,2.38,4.88,4.88,0,0,1,0,3.58,4.53,4.53,0,0,1-1,1.43,4.29,4.29,0,0,1-1.43,1A4.6,4.6,0,0,1,987.84,455.46Zm0-.95a3.47,3.47,0,0,0,1.38-.27,3.4,3.4,0,0,0,1.11-.75,3.35,3.35,0,0,0,.72-1.14,3.7,3.7,0,0,0,.26-1.42,3.57,3.57,0,0,0-1-2.54,3.26,3.26,0,0,0-1.1-.75,3.46,3.46,0,0,0-1.38-.26,3.53,3.53,0,0,0-1.38.26,3.22,3.22,0,0,0-1.09.75,3.64,3.64,0,0,0-1,2.54,3.9,3.9,0,0,0,.26,1.42,3.54,3.54,0,0,0,.73,1.14,3.36,3.36,0,0,0,1.1.75A3.54,3.54,0,0,0,987.84,454.51Z"/></g><g class="cls-8"><path class="cls-1" d="M660.77,369.11v8.75h-1v-7.17L657,377.86h-1l-2.76-7.17v7.17h-1l0-8.75h1.44l2.83,7.37,2.79-7.37Z"/><path class="cls-1" d="M668.31,375.63h-3.95l-.84,2.23h-1.08l3.34-8.75h1.1l3.32,8.75h-1.06Zm-3.62-.89H668l-1.65-4.5Z"/><path class="cls-1" d="M672.6,370H670v-.92h6.27V370h-2.67v7.83h-1Z"/><path class="cls-1" d="M678,369.11h5V370h-4v2.79h3.9v.93H679v3.18h4.18v.93H678Z"/><path class="cls-1" d="M685,369.11h2.72a2.82,2.82,0,0,1,2,.68,2.42,2.42,0,0,1,.73,1.87,2.61,2.61,0,0,1-.51,1.64,2.5,2.5,0,0,1-1.42.88l2.48,3.68h-1.21l-2.38-3.59H686v3.59h-1Zm2.65,4.22a1.81,1.81,0,0,0,1.29-.43,1.6,1.6,0,0,0,.47-1.23,1.55,1.55,0,0,0-.46-1.21,1.79,1.79,0,0,0-1.3-.43H686v3.3Z"/><path class="cls-1" d="M697.56,375.63h-3.95l-.84,2.23h-1.08l3.34-8.75h1.1l3.32,8.75h-1.06Zm-3.62-.89h3.29l-1.65-4.5Z"/><path class="cls-1" d="M703.33,378a3,3,0,0,1-2.13-.74,2.75,2.75,0,0,1-.86-2h1a1.85,1.85,0,0,0,2,1.83,2.12,2.12,0,0,0,1.36-.4,1.34,1.34,0,0,0,.51-1.11,1.29,1.29,0,0,0-.29-.87,2.93,2.93,0,0,0-1-.61l-1.26-.48a3.28,3.28,0,0,1-1.47-1,2.24,2.24,0,0,1-.46-1.46,2.13,2.13,0,0,1,.2-.91,2.1,2.1,0,0,1,.54-.71,2.75,2.75,0,0,1,.85-.45,3.41,3.41,0,0,1,1.09-.17,2.83,2.83,0,0,1,1.94.64,2.53,2.53,0,0,1,.79,1.77h-1a1.59,1.59,0,0,0-.48-1.11,1.77,1.77,0,0,0-1.22-.4,1.86,1.86,0,0,0-1.19.36,1.14,1.14,0,0,0-.46.95,1.37,1.37,0,0,0,.31.94,2.53,2.53,0,0,0,1,.65l1.28.49a3.38,3.38,0,0,1,1.44.92,2.14,2.14,0,0,1,.43,1.39,2.37,2.37,0,0,1-.2,1,2.07,2.07,0,0,1-.57.77,2.54,2.54,0,0,1-.92.49A4,4,0,0,1,703.33,378Z"/><path class="cls-1" d="M710.37,378a3,3,0,0,1-2.12-.74,2.8,2.8,0,0,1-.87-2h1a1.94,1.94,0,0,0,.59,1.33,1.92,1.92,0,0,0,1.36.5,2.15,2.15,0,0,0,1.37-.4,1.33,1.33,0,0,0,.5-1.11,1.24,1.24,0,0,0-.29-.87,2.75,2.75,0,0,0-1-.61l-1.26-.48a3.4,3.4,0,0,1-1.47-1,2.29,2.29,0,0,1-.45-1.46,2,2,0,0,1,.74-1.62,2.7,2.7,0,0,1,.84-.45,3.48,3.48,0,0,1,1.1-.17,2.81,2.81,0,0,1,1.93.64,2.5,2.5,0,0,1,.8,1.77h-1a1.6,1.6,0,0,0-.49-1.11,1.75,1.75,0,0,0-1.21-.4,1.87,1.87,0,0,0-1.2.36,1.16,1.16,0,0,0-.45.95,1.41,1.41,0,0,0,.3.94,2.53,2.53,0,0,0,1,.65l1.29.49a3.34,3.34,0,0,1,1.43.92,2.09,2.09,0,0,1,.44,1.39,2.53,2.53,0,0,1-.2,1,2.21,2.21,0,0,1-.58.77,2.42,2.42,0,0,1-.91.49A4,4,0,0,1,710.37,378Z"/><path class="cls-1" d="M715.11,369.11h1v8.75h-1Z"/></g><g class="cls-8"><path class="cls-1" d="M491.06,499.13a2.16,2.16,0,0,1,1,.86,2.54,2.54,0,0,1,.36,1.39,2.2,2.2,0,0,1-.78,1.79,3.19,3.19,0,0,1-2.11.65h-3.27v-8.75h3.14a2.9,2.9,0,0,1,1.91.57,2,2,0,0,1,.69,1.59A2.06,2.06,0,0,1,491.06,499.13ZM487.29,496v2.77h2a1.78,1.78,0,0,0,1.22-.37,1.31,1.31,0,0,0,.42-1c0-.91-.53-1.37-1.58-1.37Zm2.18,6.93a2.08,2.08,0,0,0,1.42-.43,1.52,1.52,0,0,0,.5-1.22,1.44,1.44,0,0,0-.53-1.18,2.29,2.29,0,0,0-1.46-.42h-2.11v3.25Z"/><path class="cls-1" d="M498.26,504a4.55,4.55,0,0,1-1.78-.34,4.44,4.44,0,0,1-2.4-2.39,4.88,4.88,0,0,1,0-3.58,4.42,4.42,0,0,1,.95-1.43,4.46,4.46,0,0,1,1.44-1,4.88,4.88,0,0,1,3.58,0,4.34,4.34,0,0,1,2.38,2.38,4.88,4.88,0,0,1,0,3.58,4.42,4.42,0,0,1-.95,1.43,4.29,4.29,0,0,1-1.43,1A4.6,4.6,0,0,1,498.26,504Zm0-.95a3.47,3.47,0,0,0,1.38-.27,3.4,3.4,0,0,0,1.11-.75,3.35,3.35,0,0,0,.72-1.14,3.7,3.7,0,0,0,.26-1.42,3.65,3.65,0,0,0-.26-1.41,3.6,3.6,0,0,0-.73-1.13,3.26,3.26,0,0,0-1.1-.75,3.65,3.65,0,0,0-1.38-.26,3.72,3.72,0,0,0-1.38.26,3.22,3.22,0,0,0-1.09.75,3.6,3.6,0,0,0-.73,1.13,3.65,3.65,0,0,0-.27,1.41,3.9,3.9,0,0,0,.26,1.42,3.54,3.54,0,0,0,.73,1.14,3.36,3.36,0,0,0,1.1.75A3.54,3.54,0,0,0,498.26,503Z"/><path class="cls-1" d="M504.69,495.07h2.71a2.87,2.87,0,0,1,2,.68,2.44,2.44,0,0,1,.74,1.87,2.52,2.52,0,0,1-.52,1.64,2.46,2.46,0,0,1-1.42.88l2.48,3.68h-1.21l-2.37-3.59H505.7v3.59h-1Zm2.65,4.23a1.81,1.81,0,0,0,1.28-.44,1.57,1.57,0,0,0,.47-1.23,1.6,1.6,0,0,0-.45-1.21,1.87,1.87,0,0,0-1.3-.43h-1.65v3.31Z"/><path class="cls-1" d="M520.28,499.52v2.34a4.05,4.05,0,0,1-1.63,1.58,4.86,4.86,0,0,1-2.27.52,5.08,5.08,0,0,1-1.89-.34,4.69,4.69,0,0,1-1.49-.95,4.23,4.23,0,0,1-1-1.44,4.69,4.69,0,0,1-.35-1.82,4.54,4.54,0,0,1,.35-1.79,4.22,4.22,0,0,1,1-1.42,4.35,4.35,0,0,1,1.44-.93,4.75,4.75,0,0,1,1.82-.34,4.68,4.68,0,0,1,1.37.19,3.64,3.64,0,0,1,1.14.54,3.59,3.59,0,0,1,.87.87,3.79,3.79,0,0,1,.56,1.14h-1.12a2.81,2.81,0,0,0-1.1-1.32,3.11,3.11,0,0,0-1.74-.47,3.7,3.7,0,0,0-1.39.26,3.43,3.43,0,0,0-1.11.74A3.34,3.34,0,0,0,513,498a3.8,3.8,0,0,0-.26,1.41,3.86,3.86,0,0,0,.27,1.45,3.43,3.43,0,0,0,.75,1.14,3.37,3.37,0,0,0,1.15.75,4,4,0,0,0,1.49.26,3.91,3.91,0,0,0,1.6-.32,3.11,3.11,0,0,0,1.27-1.05v-1.2h-2.94v-.92Z"/><path class="cls-1" d="M526.43,504a4.55,4.55,0,0,1-1.78-.34,4.43,4.43,0,0,1-1.44-1,4.29,4.29,0,0,1-1-1.43,4.88,4.88,0,0,1,0-3.58,4.42,4.42,0,0,1,1-1.43,4.46,4.46,0,0,1,1.44-1,4.88,4.88,0,0,1,3.58,0,4.34,4.34,0,0,1,2.38,2.38,4.88,4.88,0,0,1,0,3.58,4.42,4.42,0,0,1-1,1.43,4.29,4.29,0,0,1-1.43,1A4.6,4.6,0,0,1,526.43,504Zm0-.95a3.47,3.47,0,0,0,1.38-.27,3.3,3.3,0,0,0,1.11-.75,3.54,3.54,0,0,0,.73-1.14,3.89,3.89,0,0,0,.25-1.42,3.65,3.65,0,0,0-.26-1.41,3.6,3.6,0,0,0-.73-1.13,3.26,3.26,0,0,0-1.1-.75,3.77,3.77,0,0,0-2.75,0,3.16,3.16,0,0,0-1.1.75,3.6,3.6,0,0,0-.73,1.13,3.65,3.65,0,0,0-.27,1.41,3.9,3.9,0,0,0,.26,1.42A3.54,3.54,0,0,0,524,502a3.3,3.3,0,0,0,1.11.75A3.45,3.45,0,0,0,526.43,503Z"/><path class="cls-1" d="M538.73,504a3,3,0,0,1-2.12-.73,2.76,2.76,0,0,1-.87-2h1a1.93,1.93,0,0,0,.58,1.33,1.9,1.9,0,0,0,1.37.51,2.1,2.1,0,0,0,1.36-.41,1.32,1.32,0,0,0,.51-1.1,1.25,1.25,0,0,0-.29-.87,2.7,2.7,0,0,0-1-.61L538,499.6a3.45,3.45,0,0,1-1.47-1,2.34,2.34,0,0,1-.45-1.47,2.12,2.12,0,0,1,.19-.91,2,2,0,0,1,.55-.7,2.43,2.43,0,0,1,.84-.46,3.42,3.42,0,0,1,1.09-.16,2.79,2.79,0,0,1,1.94.64,2.45,2.45,0,0,1,.79,1.76h-1a1.64,1.64,0,0,0-.49-1.1,1.73,1.73,0,0,0-1.22-.41,1.86,1.86,0,0,0-1.19.36,1.15,1.15,0,0,0-.46,1,1.36,1.36,0,0,0,.31.93,2.43,2.43,0,0,0,1,.65l1.29.5a3.39,3.39,0,0,1,1.43.91,2.16,2.16,0,0,1,.44,1.39,2.53,2.53,0,0,1-.2,1,2.24,2.24,0,0,1-.58.78,2.63,2.63,0,0,1-.91.48A3.78,3.78,0,0,1,538.73,504Z"/><path class="cls-1" d="M548.43,501.6h-3.95l-.83,2.22h-1.08l3.34-8.75H547l3.33,8.75h-1.07Zm-3.61-.9h3.28l-1.65-4.5Z"/><path class="cls-1" d="M558.52,495.07v8.75h-1.11L553,496.71v7.11h-1v-8.75h1.17l4.3,7v-7Z"/><path class="cls-1" d="M564.54,495.07h1v7.83h3.63v.92h-4.64Z"/><path class="cls-1" d="M574.31,504a4.6,4.6,0,0,1-1.79-.34,4.46,4.46,0,0,1-2.39-2.39,4.88,4.88,0,0,1,0-3.58,4.42,4.42,0,0,1,1-1.43,4.35,4.35,0,0,1,1.44-1,4.88,4.88,0,0,1,3.58,0,4.34,4.34,0,0,1,2.38,2.38,4.88,4.88,0,0,1,0,3.58,4.42,4.42,0,0,1-1,1.43,4.29,4.29,0,0,1-1.43,1A4.6,4.6,0,0,1,574.31,504Zm0-.95a3.47,3.47,0,0,0,1.38-.27,3.36,3.36,0,0,0,1.1-.75,3.23,3.23,0,0,0,.73-1.14,3.7,3.7,0,0,0,.26-1.42,3.84,3.84,0,0,0-.26-1.41,3.6,3.6,0,0,0-.73-1.13,3.36,3.36,0,0,0-1.1-.75,3.65,3.65,0,0,0-1.38-.26,3.72,3.72,0,0,0-1.38.26,3.22,3.22,0,0,0-1.09.75,3.44,3.44,0,0,0-.73,1.13,3.65,3.65,0,0,0-.27,1.41,3.9,3.9,0,0,0,.26,1.42,3.36,3.36,0,0,0,1.83,1.89A3.54,3.54,0,0,0,574.31,503Z"/><path class="cls-1" d="M580.73,495.07h2.72a2.87,2.87,0,0,1,2,.68,2.44,2.44,0,0,1,.74,1.87,2.52,2.52,0,0,1-.52,1.64,2.46,2.46,0,0,1-1.42.88l2.48,3.68h-1.21l-2.38-3.59h-1.41v3.59h-1Zm2.66,4.23a1.81,1.81,0,0,0,1.28-.44,1.85,1.85,0,0,0,0-2.44,1.87,1.87,0,0,0-1.3-.43h-1.66v3.31Z"/><path class="cls-1" d="M588.44,495.07h5V496h-4v2.8h3.9v.92h-3.9v3.19h4.17v.92h-5.19Z"/><path class="cls-1" d="M602,495.07v8.75h-1.11l-4.38-7.11v7.11h-1v-8.75h1.17l4.3,7v-7Z"/><path class="cls-1" d="M610,502.9v.92h-6.16v-.88l4.9-6.95h-4.64v-.92H610v.9L605,502.9Z"/><path class="cls-1" d="M615.53,504a4.55,4.55,0,0,1-1.78-.34,4.43,4.43,0,0,1-1.44-1,4.12,4.12,0,0,1-.95-1.43,4.75,4.75,0,0,1,0-3.58,4.24,4.24,0,0,1,.94-1.43,4.75,4.75,0,0,1,5-1,4.34,4.34,0,0,1,2.38,2.38,4.75,4.75,0,0,1,0,3.58,4.42,4.42,0,0,1-1,1.43,4.29,4.29,0,0,1-1.43,1A4.57,4.57,0,0,1,615.53,504Zm0-.95a3.47,3.47,0,0,0,1.38-.27A3.3,3.3,0,0,0,618,502a3.54,3.54,0,0,0,.73-1.14,3.9,3.9,0,0,0,.26-1.42,3.65,3.65,0,0,0-.27-1.41,3.6,3.6,0,0,0-.73-1.13,3.26,3.26,0,0,0-1.1-.75,3.77,3.77,0,0,0-2.75,0,3.16,3.16,0,0,0-1.1.75,3.6,3.6,0,0,0-.73,1.13,3.65,3.65,0,0,0-.27,1.41,3.9,3.9,0,0,0,.26,1.42,3.54,3.54,0,0,0,.73,1.14,3.3,3.3,0,0,0,1.11.75A3.45,3.45,0,0,0,615.53,503Z"/></g><g class="cls-8"><path class="cls-1" d="M400.57,373.55a4.62,4.62,0,0,1-1.8-.34,4.34,4.34,0,0,1-2.38-2.38,4.91,4.91,0,0,1,0-3.59,4.53,4.53,0,0,1,.95-1.43,4.35,4.35,0,0,1,1.44-.95,4.6,4.6,0,0,1,1.79-.34,5.12,5.12,0,0,1,1.54.23,4.11,4.11,0,0,1,1.26.67,3.9,3.9,0,0,1,1.45,2.37h-1.09a3.21,3.21,0,0,0-.43-1,3,3,0,0,0-.69-.73,3.25,3.25,0,0,0-.93-.47,3.5,3.5,0,0,0-1.09-.16,3.47,3.47,0,0,0-1.38.27,3.3,3.3,0,0,0-1.11.75,3.65,3.65,0,0,0-.73,1.14,3.6,3.6,0,0,0-.27,1.4,3.7,3.7,0,0,0,.27,1.42,3.6,3.6,0,0,0,.73,1.13,3.3,3.3,0,0,0,1.11.75,3.47,3.47,0,0,0,1.38.28,3.2,3.2,0,0,0,2-.64,3,3,0,0,0,1.13-1.71h1.09a3.92,3.92,0,0,1-.52,1.36,4,4,0,0,1-.93,1,4.31,4.31,0,0,1-1.26.66A4.82,4.82,0,0,1,400.57,373.55Z"/><path class="cls-1" d="M411.43,371.19h-3.95l-.84,2.22h-1.08l3.34-8.75H410l3.32,8.75h-1.06Zm-3.62-.9h3.29l-1.65-4.5Z"/><path class="cls-1" d="M417.2,373.55a3,3,0,0,1-2.13-.73,2.79,2.79,0,0,1-.86-2h1a1.93,1.93,0,0,0,.58,1.33,1.9,1.9,0,0,0,1.37.51,2.12,2.12,0,0,0,1.36-.41,1.31,1.31,0,0,0,.51-1.1,1.25,1.25,0,0,0-.29-.87,2.79,2.79,0,0,0-1-.61l-1.26-.48a3.36,3.36,0,0,1-1.47-1,2.29,2.29,0,0,1-.46-1.47,2.16,2.16,0,0,1,.2-.91,2.06,2.06,0,0,1,.54-.7,2.57,2.57,0,0,1,.85-.46,3.42,3.42,0,0,1,1.09-.16,2.79,2.79,0,0,1,1.94.64,2.49,2.49,0,0,1,.79,1.76h-1a1.58,1.58,0,0,0-.48-1.1,1.73,1.73,0,0,0-1.22-.4,1.85,1.85,0,0,0-1.19.35,1.15,1.15,0,0,0-.46,1,1.36,1.36,0,0,0,.31.93,2.53,2.53,0,0,0,1,.66l1.28.49a3.29,3.29,0,0,1,1.44.92,2.11,2.11,0,0,1,.43,1.38,2.37,2.37,0,0,1-.2,1,2,2,0,0,1-.57.78,2.73,2.73,0,0,1-.91.48A3.78,3.78,0,0,1,417.2,373.55Z"/><path class="cls-1" d="M426.9,371.19H423l-.84,2.22H421l3.35-8.75h1.09l3.33,8.75h-1.07Zm-3.62-.9h3.29l-1.65-4.5Z"/><path class="cls-1" d="M437,364.66v8.75h-1.11l-4.38-7.11v7.11h-1v-8.75h1.17l4.3,7v-7Z"/><path class="cls-1" d="M443.39,373.55a4.55,4.55,0,0,1-1.78-.34,4.43,4.43,0,0,1-1.44-1,4.12,4.12,0,0,1-.95-1.43,4.75,4.75,0,0,1,0-3.58,4.34,4.34,0,0,1,.94-1.43,4.75,4.75,0,0,1,5-.95,4.42,4.42,0,0,1,1.43.95,4.36,4.36,0,0,1,.95,1.43,4.75,4.75,0,0,1,0,3.58,4.4,4.4,0,0,1-2.38,2.39A4.57,4.57,0,0,1,443.39,373.55Zm0-.94a3.47,3.47,0,0,0,1.38-.28,3.3,3.3,0,0,0,1.11-.75,3.54,3.54,0,0,0,.73-1.14,3.9,3.9,0,0,0,.26-1.42,3.65,3.65,0,0,0-.27-1.41,3.6,3.6,0,0,0-.73-1.13,3.26,3.26,0,0,0-1.1-.75,3.77,3.77,0,0,0-2.75,0,3.26,3.26,0,0,0-1.1.75,3.6,3.6,0,0,0-.73,1.13,3.65,3.65,0,0,0-.27,1.41,3.9,3.9,0,0,0,.26,1.42,3.54,3.54,0,0,0,.73,1.14,3.3,3.3,0,0,0,1.11.75A3.46,3.46,0,0,0,443.39,372.61Z"/><path class="cls-1" d="M456.15,364.66,453,373.41h-1.09l-3.13-8.75h1.1l2.59,7.44,2.59-7.44Z"/><path class="cls-1" d="M462,371.19h-4l-.83,2.22h-1.08l3.34-8.75h1.1l3.32,8.75h-1.06Zm-3.62-.9h3.29l-1.65-4.5Z"/></g><g class="cls-8"><path class="cls-1" d="M273.71,341a3,3,0,0,1-2.12-.73,2.76,2.76,0,0,1-.87-2h1a1.93,1.93,0,0,0,.58,1.33,1.9,1.9,0,0,0,1.37.51,2.1,2.1,0,0,0,1.36-.41,1.32,1.32,0,0,0,.51-1.1,1.25,1.25,0,0,0-.29-.87,2.7,2.7,0,0,0-1-.61l-1.26-.49a3.35,3.35,0,0,1-1.47-1,2.35,2.35,0,0,1-.46-1.47,2.13,2.13,0,0,1,.2-.91,2.1,2.1,0,0,1,.55-.71,2.59,2.59,0,0,1,.84-.45,3.42,3.42,0,0,1,1.09-.16,2.83,2.83,0,0,1,1.94.63,2.49,2.49,0,0,1,.79,1.77h-1a1.61,1.61,0,0,0-.49-1.1,1.73,1.73,0,0,0-1.22-.41,1.86,1.86,0,0,0-1.19.36,1.15,1.15,0,0,0-.46,1,1.36,1.36,0,0,0,.31.93,2.43,2.43,0,0,0,1,.65l1.29.5a3.3,3.3,0,0,1,1.43.91,2.16,2.16,0,0,1,.44,1.39,2.53,2.53,0,0,1-.2,1,2.24,2.24,0,0,1-.58.78,2.63,2.63,0,0,1-.91.48A3.78,3.78,0,0,1,273.71,341Z"/><path class="cls-1" d="M283.41,338.59h-4l-.84,2.22h-1.07l3.34-8.75H282l3.33,8.75h-1.07Zm-3.62-.9h3.29l-1.65-4.5Z"/><path class="cls-1" d="M292.61,332.06l-3.14,8.75h-1.1l-3.13-8.75h1.11l2.58,7.44,2.59-7.44Z"/><path class="cls-1" d="M294.3,332.06h5.05V333h-4v2.8h3.9v.92h-3.9v3.19h4.17v.92H294.3Z"/><path class="cls-1" d="M301.34,332.06h1v7.83H306v.92h-4.64Z"/><path class="cls-1" d="M307.52,332.06h1v7.83h3.62v.92h-4.64Z"/><path class="cls-1" d="M313.71,332.06h1v8.75h-1Z"/></g><g class="cls-8"><path class="cls-1" d="M49,302.28h-4l-.83,2.22H43.14l3.34-8.75h1.09l3.33,8.75H49.84Zm-3.61-.9h3.29L47,296.88Z"/><path class="cls-1" d="M52.59,295.75h2.72a2.83,2.83,0,0,1,2,.69,2.4,2.4,0,0,1,.74,1.86,2.62,2.62,0,0,1-.52,1.65,2.48,2.48,0,0,1-1.42.87l2.48,3.68H57.4L55,300.91H53.61v3.59h-1ZM55.24,300a1.82,1.82,0,0,0,1.29-.44,1.6,1.6,0,0,0,.47-1.23,1.57,1.57,0,0,0-.46-1.21,1.83,1.83,0,0,0-1.3-.42H53.59V300Z"/><path class="cls-1" d="M60.3,295.75H63a2.83,2.83,0,0,1,2,.69,2.4,2.4,0,0,1,.73,1.86,2.62,2.62,0,0,1-.51,1.65,2.48,2.48,0,0,1-1.42.87l2.48,3.68H65.11l-2.38-3.59H61.32v3.59h-1ZM63,300a1.82,1.82,0,0,0,1.29-.44,1.6,1.6,0,0,0,.47-1.23,1.57,1.57,0,0,0-.46-1.21,1.83,1.83,0,0,0-1.3-.42H61.3V300Z"/><path class="cls-1" d="M72.85,302.28h-4l-.83,2.22H67l3.34-8.75h1.1l3.32,8.75H73.68Zm-3.62-.9h3.29l-1.65-4.5Z"/><path class="cls-1" d="M81.22,299.81a2.21,2.21,0,0,1,1,.86,2.54,2.54,0,0,1,.36,1.39,2.2,2.2,0,0,1-.78,1.79,3.19,3.19,0,0,1-2.11.65H76.43v-8.75h3.15a2.92,2.92,0,0,1,1.91.57,2,2,0,0,1,.69,1.59A2.05,2.05,0,0,1,81.22,299.81Zm-3.77-3.15v2.77h2a1.78,1.78,0,0,0,1.22-.37,1.31,1.31,0,0,0,.42-1c0-.91-.53-1.37-1.59-1.37Zm2.18,6.93a2.08,2.08,0,0,0,1.42-.43,1.51,1.51,0,0,0,.49-1.22,1.44,1.44,0,0,0-.52-1.18,2.3,2.3,0,0,0-1.47-.42h-2.1v3.25Z"/><path class="cls-1" d="M89.25,299.81a2.21,2.21,0,0,1,1,.86,2.54,2.54,0,0,1,.36,1.39,2.22,2.22,0,0,1-.77,1.79,3.22,3.22,0,0,1-2.12.65H84.47v-8.75h3.14a2.88,2.88,0,0,1,1.91.57,2,2,0,0,1,.69,1.59A2.05,2.05,0,0,1,89.25,299.81Zm-3.77-3.15v2.77h2.06a1.77,1.77,0,0,0,1.21-.37,1.31,1.31,0,0,0,.42-1c0-.91-.52-1.37-1.58-1.37Zm2.19,6.93a2.07,2.07,0,0,0,1.41-.43,1.52,1.52,0,0,0,.5-1.22,1.45,1.45,0,0,0-.53-1.18,2.29,2.29,0,0,0-1.46-.42H85.48v3.25Z"/><path class="cls-1" d="M92.5,295.75h1v8.75h-1Z"/><path class="cls-1" d="M101.06,302.28h-4l-.83,2.22H95.19l3.34-8.75h1.1L103,304.5h-1.06Zm-3.62-.9h3.29l-1.65-4.5Z"/><path class="cls-1" d="M105.35,296.68h-2.59v-.93H109v.93h-2.66v7.82h-1Z"/><path class="cls-1" d="M114.71,302.28h-4l-.83,2.22h-1.08l3.34-8.75h1.09l3.33,8.75h-1.06Zm-3.62-.9h3.29l-1.65-4.5Z"/></g><g class="cls-8"><path class="cls-1" d="M105.32,88.88h-3.95l-.84,2.22H99.45l3.35-8.74h1.09l3.33,8.74h-1.07ZM101.7,88H105l-1.65-4.49Z"/><path class="cls-1" d="M108.91,82.36h2.71a2.82,2.82,0,0,1,2,.68,2.42,2.42,0,0,1,.74,1.86,2.56,2.56,0,0,1-.52,1.65,2.46,2.46,0,0,1-1.42.88l2.48,3.67h-1.2l-2.38-3.58h-1.42V91.1h-1Zm2.65,4.22a1.76,1.76,0,0,0,1.28-.44,1.55,1.55,0,0,0,.47-1.22,1.58,1.58,0,0,0-.45-1.21,1.82,1.82,0,0,0-1.3-.43h-1.65v3.3Z"/><path class="cls-1" d="M116.61,82.36h2.72a2.82,2.82,0,0,1,2,.68,2.42,2.42,0,0,1,.74,1.86,2.56,2.56,0,0,1-.52,1.65,2.46,2.46,0,0,1-1.42.88l2.48,3.67h-1.21l-2.37-3.58h-1.42V91.1h-1Zm2.66,4.22a1.76,1.76,0,0,0,1.28-.44,1.55,1.55,0,0,0,.47-1.22,1.58,1.58,0,0,0-.45-1.21,1.82,1.82,0,0,0-1.3-.43h-1.65v3.3Z"/><path class="cls-1" d="M129.16,88.88h-4l-.83,2.22H123.3l3.34-8.74h1.09l3.33,8.74H130Zm-3.61-.9h3.28l-1.65-4.49Z"/><path class="cls-1" d="M137.53,86.41a2.21,2.21,0,0,1,1,.86,2.54,2.54,0,0,1,.36,1.39,2.22,2.22,0,0,1-.77,1.79,3.16,3.16,0,0,1-2.12.65h-3.27V82.36h3.14a2.88,2.88,0,0,1,1.91.57,1.94,1.94,0,0,1,.69,1.58A2.05,2.05,0,0,1,137.53,86.41Zm-3.77-3.14V86h2.06a1.77,1.77,0,0,0,1.21-.37,1.29,1.29,0,0,0,.42-1c0-.91-.53-1.36-1.58-1.36Zm2.18,6.92a2.13,2.13,0,0,0,1.42-.42,1.55,1.55,0,0,0,.5-1.23,1.42,1.42,0,0,0-.53-1.17,2.29,2.29,0,0,0-1.46-.43h-2.11v3.25Z"/><path class="cls-1" d="M145.57,86.41a2.21,2.21,0,0,1,1,.86,2.63,2.63,0,0,1,.35,1.39,2.19,2.19,0,0,1-.77,1.79,3.15,3.15,0,0,1-2.11.65h-3.28V82.36h3.15a2.92,2.92,0,0,1,1.91.57,1.94,1.94,0,0,1,.69,1.58A2.05,2.05,0,0,1,145.57,86.41Zm-3.77-3.14V86h2a1.8,1.8,0,0,0,1.22-.37,1.29,1.29,0,0,0,.42-1c0-.91-.53-1.36-1.59-1.36ZM144,90.19a2.15,2.15,0,0,0,1.42-.42,1.55,1.55,0,0,0,.49-1.23,1.39,1.39,0,0,0-.53-1.17,2.29,2.29,0,0,0-1.46-.43h-2.1v3.25Z"/><path class="cls-1" d="M148.82,82.36h1V91.1h-1Z"/><path class="cls-1" d="M157.37,88.88h-4l-.83,2.22h-1.08l3.34-8.74h1.09l3.33,8.74H158.2Zm-3.61-.9H157l-1.65-4.49Z"/><path class="cls-1" d="M161.66,83.28h-2.59v-.92h6.27v.92h-2.67V91.1h-1Z"/><path class="cls-1" d="M171,88.88h-4l-.84,2.22h-1.07l3.34-8.74h1.09l3.33,8.74h-1.07ZM167.4,88h3.29L169,83.49Z"/><path class="cls-1" d="M183.32,90.18v.92h-5.7v-.52a3,3,0,0,1,.23-1.2,3.4,3.4,0,0,1,.58-.93,4,4,0,0,1,.77-.72c.28-.2.55-.38.8-.54l1-.61a3.68,3.68,0,0,0,.65-.51,1.49,1.49,0,0,0,.37-.55,1.76,1.76,0,0,0,.12-.68,1.57,1.57,0,0,0-.47-1.26,1.77,1.77,0,0,0-2.38.08,1.85,1.85,0,0,0-.48,1.32h-1a3.25,3.25,0,0,1,.2-1.14,2.61,2.61,0,0,1,.56-.87,2.33,2.33,0,0,1,.87-.56,3.31,3.31,0,0,1,2.21,0,2.23,2.23,0,0,1,.84.51,2.32,2.32,0,0,1,.55.82,2.85,2.85,0,0,1,.19,1.08,2.5,2.5,0,0,1-.17,1,2.62,2.62,0,0,1-.5.77,4.51,4.51,0,0,1-.77.64l-1,.63c-.3.19-.58.37-.81.54a4.9,4.9,0,0,0-.62.54,2.31,2.31,0,0,0-.42.58,2.08,2.08,0,0,0-.23.69Z"/></g><g class="cls-7"><path class="cls-1" d="M293.72,60.87a3,3,0,0,1-2.13-.74,2.77,2.77,0,0,1-.86-2h1a1.91,1.91,0,0,0,.59,1.32,1.88,1.88,0,0,0,1.36.51,2.13,2.13,0,0,0,1.37-.4,1.34,1.34,0,0,0,.51-1.11,1.24,1.24,0,0,0-.3-.87,2.78,2.78,0,0,0-1-.61L293,56.5a3.28,3.28,0,0,1-1.47-1,2.24,2.24,0,0,1-.46-1.46,2.13,2.13,0,0,1,.2-.91,2.1,2.1,0,0,1,.54-.71,2.56,2.56,0,0,1,.85-.45,3.41,3.41,0,0,1,1.09-.17,2.85,2.85,0,0,1,1.94.64,2.51,2.51,0,0,1,.79,1.77h-1a1.6,1.6,0,0,0-.49-1.11,1.75,1.75,0,0,0-1.21-.4,1.9,1.9,0,0,0-1.2.36,1.16,1.16,0,0,0-.45.95,1.43,1.43,0,0,0,.3.94,2.68,2.68,0,0,0,1,.65l1.29.49a3.29,3.29,0,0,1,1.44.92,2.13,2.13,0,0,1,.43,1.38,2.38,2.38,0,0,1-.2,1,2.09,2.09,0,0,1-.58.77,2.56,2.56,0,0,1-.91.49A4,4,0,0,1,293.72,60.87Z"/><path class="cls-1" d="M302.4,60.87a4.62,4.62,0,0,1-1.8-.35,4.26,4.26,0,0,1-1.43-1,4.37,4.37,0,0,1-.95-1.42,4.7,4.7,0,0,1-.34-1.81,4.55,4.55,0,0,1,.34-1.78,4.42,4.42,0,0,1,.95-1.43,4.21,4.21,0,0,1,1.44-1,4.61,4.61,0,0,1,1.79-.35,4.82,4.82,0,0,1,1.54.24,3.92,3.92,0,0,1,2.71,3h-1.09a3,3,0,0,0-.43-1,3,3,0,0,0-.69-.74,3,3,0,0,0-.93-.46,3.57,3.57,0,0,0-1.1-.17,3.51,3.51,0,0,0-2.48,1,3.44,3.44,0,0,0-.73,1.13,3.82,3.82,0,0,0,0,2.82,3.34,3.34,0,0,0,.73,1.13,3.4,3.4,0,0,0,2.48,1,3.28,3.28,0,0,0,2-.63,3,3,0,0,0,1.13-1.71h1.09a4,4,0,0,1-.52,1.35,3.72,3.72,0,0,1-.93,1,4,4,0,0,1-1.26.66A4.82,4.82,0,0,1,302.4,60.87Z"/><path class="cls-1" d="M313.26,58.5h-4l-.83,2.23h-1.08L310.73,52h1.1l3.32,8.75h-1.06Zm-3.62-.89h3.29l-1.65-4.5Z"/><path class="cls-1" d="M316.84,52h2.72a2.82,2.82,0,0,1,2,.68,2.42,2.42,0,0,1,.74,1.86,2.56,2.56,0,0,1-.52,1.65,2.46,2.46,0,0,1-1.42.88l2.48,3.68h-1.21l-2.38-3.59h-1.41v3.59h-1Zm2.66,4.22a1.8,1.8,0,0,0,1.28-.43,1.85,1.85,0,0,0,0-2.44,1.82,1.82,0,0,0-1.3-.43h-1.65v3.3Z"/><path class="cls-1" d="M324.55,52h2.72a2.82,2.82,0,0,1,2,.68,2.42,2.42,0,0,1,.74,1.86,2.85,2.85,0,0,1-.2,1.08,2.36,2.36,0,0,1-.55.83,2.54,2.54,0,0,1-.87.53,3.37,3.37,0,0,1-1.14.18h-1.7v3.59h-1Zm2.65,4.22a1.81,1.81,0,0,0,1.29-.43,1.6,1.6,0,0,0,.47-1.23,1.55,1.55,0,0,0-.46-1.21,1.79,1.79,0,0,0-1.3-.43h-1.65v3.3Z"/><path class="cls-1" d="M331.74,52h5.05v.92h-4v2.79h3.9v.93h-3.9V59.8h4.17v.93h-5.19Z"/><path class="cls-1" d="M338.77,52h2.67a5.8,5.8,0,0,1,2,.31,4.42,4.42,0,0,1,1.51.88,3.93,3.93,0,0,1,1,1.37,4.5,4.5,0,0,1,.34,1.79,4.55,4.55,0,0,1-.34,1.8,4.09,4.09,0,0,1-1,1.38,4.46,4.46,0,0,1-1.51.9,5.78,5.78,0,0,1-1.95.32h-2.67Zm2.67,7.82a4.61,4.61,0,0,0,1.52-.24,3.41,3.41,0,0,0,1.18-.71,3.11,3.11,0,0,0,.76-1.1,3.63,3.63,0,0,0,.27-1.42,3.55,3.55,0,0,0-.27-1.41,2.92,2.92,0,0,0-.75-1.08,3.37,3.37,0,0,0-1.18-.69,4.39,4.39,0,0,0-1.53-.25h-1.65v6.9Z"/><path class="cls-1" d="M348.12,52h1v8.75h-1Z"/><path class="cls-1" d="M356.68,58.5h-4l-.83,2.23h-1.08L354.15,52h1.1l3.32,8.75h-1.06Zm-3.62-.89h3.29l-1.65-4.5Z"/></g><g class="cls-8"><path class="cls-1" d="M446.27,112.74H449a2.82,2.82,0,0,1,2,.68,2.4,2.4,0,0,1,.74,1.86,2.85,2.85,0,0,1-.2,1.08,2.36,2.36,0,0,1-.55.83,2.42,2.42,0,0,1-.86.52,3.19,3.19,0,0,1-1.15.19h-1.7v3.58h-1Zm2.65,4.22a1.76,1.76,0,0,0,1.28-.44,1.56,1.56,0,0,0,.47-1.22,1.58,1.58,0,0,0-.45-1.21,1.82,1.82,0,0,0-1.3-.43h-1.65V117Z"/><path class="cls-1" d="M457.52,119.26h-3.95l-.83,2.22h-1.08l3.34-8.74h1.09l3.33,8.74h-1.06Zm-3.61-.9h3.29l-1.65-4.49Z"/><path class="cls-1" d="M461.11,112.74h1v7.82h3.63v.92h-4.64Z"/><path class="cls-1" d="M472.21,119.26h-3.95l-.83,2.22h-1.08l3.34-8.74h1.09l3.33,8.74h-1.06Zm-3.61-.9h3.29l-1.65-4.49Z"/><path class="cls-1" d="M483.43,117.18v2.34a4,4,0,0,1-1.64,1.58,4.83,4.83,0,0,1-2.26.53,5.08,5.08,0,0,1-1.89-.35,4.42,4.42,0,0,1-1.49-1,4.31,4.31,0,0,1-1-1.43,4.72,4.72,0,0,1-.34-1.82,4.62,4.62,0,0,1,.34-1.8,4.2,4.2,0,0,1,1-1.41,4.54,4.54,0,0,1,1.44-.94,4.72,4.72,0,0,1,1.82-.34,5,5,0,0,1,1.37.19,4,4,0,0,1,1.14.55,3.55,3.55,0,0,1,.87.86,4,4,0,0,1,.56,1.14h-1.12a2.81,2.81,0,0,0-1.1-1.32,3.24,3.24,0,0,0-1.74-.47,3.57,3.57,0,0,0-1.4.27,3.28,3.28,0,0,0-1.83,1.85,3.86,3.86,0,0,0-.26,1.42,3.77,3.77,0,0,0,.27,1.44,3.43,3.43,0,0,0,.75,1.14,3.23,3.23,0,0,0,1.15.75,4,4,0,0,0,1.49.27,3.92,3.92,0,0,0,1.6-.33,3,3,0,0,0,1.27-1v-1.2h-2.94v-.92Z"/><path class="cls-1" d="M485.63,112.74h1v8.74h-1Z"/><path class="cls-1" d="M493.05,121.63a4.64,4.64,0,0,1-1.79-.35,4.38,4.38,0,0,1-2.39-2.39,4.6,4.6,0,0,1-.34-1.79,4.55,4.55,0,0,1,.34-1.78,4.42,4.42,0,0,1,.95-1.43,4.21,4.21,0,0,1,1.44-1,4.75,4.75,0,0,1,3.58,0,4.26,4.26,0,0,1,1.43,1,4.42,4.42,0,0,1,1,1.43,4.55,4.55,0,0,1,.34,1.78,4.51,4.51,0,0,1-1.29,3.23,4.42,4.42,0,0,1-1.43,1A4.61,4.61,0,0,1,493.05,121.63Zm0-.95a3.47,3.47,0,0,0,1.38-.27,3.55,3.55,0,0,0,1.1-.76,3.23,3.23,0,0,0,.73-1.14,3.66,3.66,0,0,0,.26-1.42,3.79,3.79,0,0,0-.26-1.4,3.49,3.49,0,0,0-.73-1.13,3.21,3.21,0,0,0-1.1-.75,3.47,3.47,0,0,0-1.38-.27,3.54,3.54,0,0,0-1.38.27,3.08,3.08,0,0,0-1.09.75,3.34,3.34,0,0,0-.73,1.13,3.6,3.6,0,0,0-.27,1.4,3.86,3.86,0,0,0,.26,1.42,3.38,3.38,0,0,0,.73,1.14,3.36,3.36,0,0,0,2.48,1Z"/></g><g class="cls-8"><path class="cls-1" d="M679.91,192a4.62,4.62,0,0,1-1.8-.35,4.34,4.34,0,0,1-1.43-.94,4.53,4.53,0,0,1-.95-1.43,4.7,4.7,0,0,1-.34-1.81,4.55,4.55,0,0,1,.34-1.78,4.32,4.32,0,0,1,2.39-2.38,4.61,4.61,0,0,1,1.79-.35,4.82,4.82,0,0,1,1.54.24,4,4,0,0,1,1.27.66,4.37,4.37,0,0,1,.93,1,4.17,4.17,0,0,1,.52,1.35h-1.1a3,3,0,0,0-.43-1,3,3,0,0,0-.69-.74,2.94,2.94,0,0,0-.92-.46,3.62,3.62,0,0,0-1.1-.17,3.31,3.31,0,0,0-1.38.28,3.4,3.4,0,0,0-1.11.75,3.76,3.76,0,0,0-.73,3.95,3.49,3.49,0,0,0,.73,1.13,3.43,3.43,0,0,0,1.11.76,3.47,3.47,0,0,0,1.38.27,3.25,3.25,0,0,0,2-.63,3,3,0,0,0,1.13-1.71h1.1a4.17,4.17,0,0,1-.52,1.35,3.93,3.93,0,0,1-2.2,1.7A4.82,4.82,0,0,1,679.91,192Z"/><path class="cls-1" d="M690,192a4.61,4.61,0,0,1-1.79-.35,4.25,4.25,0,0,1-1.44-.95,4.68,4.68,0,0,1-.95-5,4.42,4.42,0,0,1,.95-1.43,4.26,4.26,0,0,1,1.43-.95A4.69,4.69,0,0,1,690,183a4.61,4.61,0,0,1,1.79.35,4.36,4.36,0,0,1,1.43.95,4.24,4.24,0,0,1,.94,1.43,4.73,4.73,0,0,1,0,3.57,4.38,4.38,0,0,1-.94,1.44,4.21,4.21,0,0,1-1.43.95A4.61,4.61,0,0,1,690,192Zm0-1a3.54,3.54,0,0,0,1.38-.27,3.39,3.39,0,0,0,1.1-.76,3.44,3.44,0,0,0,.73-1.13,4,4,0,0,0,.26-1.43,3.6,3.6,0,0,0-.27-1.4,3.34,3.34,0,0,0-.73-1.13,3.22,3.22,0,0,0-1.09-.75,3.54,3.54,0,0,0-1.38-.27,3.47,3.47,0,0,0-1.38.27,3.36,3.36,0,0,0-1.1.75,3.49,3.49,0,0,0-.73,1.13,3.79,3.79,0,0,0-.26,1.4,3.75,3.75,0,0,0,.26,1.43,3.28,3.28,0,0,0,.73,1.13,3.39,3.39,0,0,0,1.1.76A3.47,3.47,0,0,0,690,191.07Z"/><path class="cls-1" d="M696.45,183.13h2.72a2.84,2.84,0,0,1,2,.68,2.41,2.41,0,0,1,.73,1.86,2.62,2.62,0,0,1-.51,1.65,2.5,2.5,0,0,1-1.42.88l2.48,3.68h-1.21l-2.38-3.59h-1.42v3.59h-1Zm2.65,4.22a1.81,1.81,0,0,0,1.29-.43,1.6,1.6,0,0,0,.47-1.23,1.55,1.55,0,0,0-.46-1.21,1.79,1.79,0,0,0-1.3-.43h-1.65v3.3Z"/><path class="cls-1" d="M704.16,183.13h2.72a2.84,2.84,0,0,1,2,.68,2.41,2.41,0,0,1,.73,1.86,2.62,2.62,0,0,1-.51,1.65,2.52,2.52,0,0,1-1.43.88l2.49,3.68H709l-2.38-3.59h-1.42v3.59h-1Zm2.65,4.22a1.81,1.81,0,0,0,1.29-.43,1.83,1.83,0,0,0,0-2.44,1.81,1.81,0,0,0-1.3-.43h-1.65v3.3Z"/><path class="cls-1" d="M711.87,183.13h5v.92h-4v2.79h3.9v.93h-3.9V191h4.17v.93h-5.18Z"/><path class="cls-1" d="M725.4,183.13v8.75h-1.1l-4.39-7.12v7.12h-1v-8.75h1.17l4.3,7v-7Z"/><path class="cls-1" d="M729.66,184.05h-2.58v-.92h6.26v.92h-2.66v7.83h-1Z"/><path class="cls-1" d="M739,189.65h-3.95l-.83,2.23h-1.08l3.34-8.75h1.09l3.33,8.75h-1.06Zm-3.61-.89h3.29l-1.65-4.5Z"/><path class="cls-1" d="M742.61,183.13h1v8.75h-1Z"/><path class="cls-1" d="M750,192a4.56,4.56,0,0,1-1.78-.35,4.25,4.25,0,0,1-1.44-.95,4.41,4.41,0,0,1-.95-1.44,4.73,4.73,0,0,1,0-3.57,4.26,4.26,0,0,1,2.38-2.38A4.64,4.64,0,0,1,750,183a4.57,4.57,0,0,1,1.79.35,4.34,4.34,0,0,1,2.38,2.38,4.73,4.73,0,0,1,0,3.57,4.41,4.41,0,0,1-1,1.44,4.12,4.12,0,0,1-1.43.95A4.57,4.57,0,0,1,750,192Zm0-1a3.47,3.47,0,0,0,1.38-.27,3.32,3.32,0,0,0,1.11-.76,3.6,3.6,0,0,0,.73-1.13,4,4,0,0,0,.26-1.43,3.6,3.6,0,0,0-.27-1.4,3.49,3.49,0,0,0-.73-1.13,3.26,3.26,0,0,0-1.1-.75,3.64,3.64,0,0,0-2.75,0,3.26,3.26,0,0,0-1.1.75,3.49,3.49,0,0,0-.73,1.13,3.6,3.6,0,0,0-.27,1.4,4,4,0,0,0,.26,1.43,3.6,3.6,0,0,0,.73,1.13,3.32,3.32,0,0,0,1.11.76A3.45,3.45,0,0,0,750,191.07Z"/></g><g class="cls-8"><path class="cls-1" d="M224.19,218.85a2.19,2.19,0,0,1,1,.86,2.63,2.63,0,0,1,.35,1.39,2.19,2.19,0,0,1-.77,1.79,3.15,3.15,0,0,1-2.11.65h-3.28v-8.75h3.15a2.92,2.92,0,0,1,1.91.58,1.94,1.94,0,0,1,.69,1.58A2,2,0,0,1,224.19,218.85Zm-3.76-3.15v2.77h2a1.75,1.75,0,0,0,1.21-.37,1.27,1.27,0,0,0,.43-1c0-.91-.53-1.37-1.59-1.37Zm2.18,6.93a2.1,2.1,0,0,0,1.42-.43,1.51,1.51,0,0,0,.49-1.22,1.39,1.39,0,0,0-.53-1.17,2.29,2.29,0,0,0-1.46-.43h-2.1v3.25Z"/><path class="cls-1" d="M230.59,223.69a3.59,3.59,0,0,1-1.34-.25,2.8,2.8,0,0,1-1-.71,3.22,3.22,0,0,1-.65-1.11,4.2,4.2,0,0,1-.23-1.47v-5.36h1v5.4a2.74,2.74,0,0,0,.61,1.88,2.32,2.32,0,0,0,3.29,0,2.75,2.75,0,0,0,.6-1.89v-5.4h1v5.36a4.45,4.45,0,0,1-.22,1.47,3.22,3.22,0,0,1-.65,1.11,2.84,2.84,0,0,1-1,.71A3.66,3.66,0,0,1,230.59,223.69Z"/><path class="cls-1" d="M240.17,223.69a4.62,4.62,0,0,1-1.8-.35,4.26,4.26,0,0,1-1.43-1A4.42,4.42,0,0,1,236,221a4.91,4.91,0,0,1,0-3.59,4.37,4.37,0,0,1,.95-1.42,4.21,4.21,0,0,1,1.44-.95,4.61,4.61,0,0,1,1.79-.35,4.82,4.82,0,0,1,1.54.24,3.88,3.88,0,0,1,1.26.66,3.82,3.82,0,0,1,.93,1,3.87,3.87,0,0,1,.52,1.35h-1.09a3,3,0,0,0-.43-1,3,3,0,0,0-.69-.74,3.25,3.25,0,0,0-.93-.47,3.88,3.88,0,0,0-1.09-.16,3.41,3.41,0,0,0-3.22,2.16,3.6,3.6,0,0,0-.27,1.4,3.67,3.67,0,0,0,.27,1.42,3.6,3.6,0,0,0,.73,1.13,3.51,3.51,0,0,0,2.49,1,3.25,3.25,0,0,0,2-.63,3,3,0,0,0,1.13-1.71h1.09a4,4,0,0,1-.52,1.35,3.95,3.95,0,0,1-2.19,1.7A4.82,4.82,0,0,1,240.17,223.69Z"/><path class="cls-1" d="M246.33,214.79h1v8.75h-1Z"/><path class="cls-1" d="M256.31,214.79v8.75H255.2l-4.38-7.11v7.11h-1v-8.75H251l4.3,7v-7Z"/><path class="cls-1" d="M258.76,214.79h5.05v.93h-4v2.79h3.9v.93h-3.9v3.18H264v.92h-5.19Z"/></g><g class="cls-8"><path class="cls-1" d="M556.89,227.37a2.21,2.21,0,0,1,1,.86,2.57,2.57,0,0,1,.36,1.39,2.23,2.23,0,0,1-.78,1.8,3.19,3.19,0,0,1-2.11.65H552.1v-8.75h3.15a2.92,2.92,0,0,1,1.91.57,2,2,0,0,1,.69,1.59A2,2,0,0,1,556.89,227.37Zm-3.77-3.14V227h2a1.85,1.85,0,0,0,1.22-.37,1.33,1.33,0,0,0,.42-1c0-.91-.53-1.36-1.59-1.36Zm2.18,6.93a2.13,2.13,0,0,0,1.42-.43,1.54,1.54,0,0,0,.49-1.22,1.42,1.42,0,0,0-.52-1.18,2.32,2.32,0,0,0-1.47-.42h-2.1v3.25Z"/><path class="cls-1" d="M560.14,223.32h1v8.75h-1Z"/><path class="cls-1" d="M567.56,232.21a4.79,4.79,0,0,1-1.79-.34,4.29,4.29,0,0,1-1.43-1,4.43,4.43,0,0,1-1-1.44,4.86,4.86,0,0,1,0-3.57,4.42,4.42,0,0,1,1-1.43,4.21,4.21,0,0,1,1.44-.95,4.75,4.75,0,0,1,3.58,0,4.36,4.36,0,0,1,1.43.95,4.42,4.42,0,0,1,1,1.43,4.63,4.63,0,0,1-1,5,4.39,4.39,0,0,1-1.43,1A4.79,4.79,0,0,1,567.56,232.21Zm0-1a3.54,3.54,0,0,0,1.38-.27,3.39,3.39,0,0,0,1.1-.76,3.28,3.28,0,0,0,.73-1.13,4,4,0,0,0,.26-1.43,3.6,3.6,0,0,0-.27-1.4,3.47,3.47,0,0,0-.72-1.13,3.36,3.36,0,0,0-1.1-.75,3.66,3.66,0,0,0-2.76,0,3.36,3.36,0,0,0-1.1.75,3.31,3.31,0,0,0-.72,1.13,3.6,3.6,0,0,0-.27,1.4,4,4,0,0,0,.26,1.43,3.28,3.28,0,0,0,.73,1.13,3.39,3.39,0,0,0,1.1.76A3.54,3.54,0,0,0,567.56,231.26Z"/><path class="cls-1" d="M574,223.32h2.67a5.8,5.8,0,0,1,2,.31,4.42,4.42,0,0,1,1.51.88,4.06,4.06,0,0,1,1,1.37,4.5,4.5,0,0,1,.34,1.79,4.55,4.55,0,0,1-.34,1.8,4,4,0,0,1-1,1.38,4.46,4.46,0,0,1-1.51.9,5.78,5.78,0,0,1-2,.32H574Zm2.67,7.82a4.61,4.61,0,0,0,1.52-.24,3.41,3.41,0,0,0,1.18-.71,3.24,3.24,0,0,0,.76-1.1,3.63,3.63,0,0,0,.27-1.42,3.55,3.55,0,0,0-.27-1.41,3.18,3.18,0,0,0-.75-1.08,3.37,3.37,0,0,0-1.18-.69,4.39,4.39,0,0,0-1.53-.25H575v6.9Z"/><path class="cls-1" d="M583.33,223.32h5v.92h-4V227h3.9V228h-3.9v3.18h4.18v.93h-5.19Z"/><path class="cls-1" d="M592.17,224.24h-2.59v-.92h6.27v.92h-2.67v7.83h-1Z"/><path class="cls-1" d="M599.15,224.24h-2.59v-.92h6.27v.92h-2.67v7.83h-1Z"/><path class="cls-1" d="M604.53,223.32h1v8.75h-1Z"/><path class="cls-1" d="M613.58,223.32v8.75h-1v-7.71l-1.67.52-.25-.89,2.06-.67Z"/></g><g class="cls-8"><path class="cls-1" d="M495.33,168.25a2.16,2.16,0,0,1,1.13.71,2.56,2.56,0,0,1,.55,1.32,2.21,2.21,0,0,1-.51,1.89,3.22,3.22,0,0,1-2,.94l-3.25.46L490,164.91l3.11-.45a2.93,2.93,0,0,1,2,.3,2,2,0,0,1,.91,1.48A2.05,2.05,0,0,1,495.33,168.25Zm-4.17-2.59.39,2.75,2-.29a1.78,1.78,0,0,0,1.15-.54,1.28,1.28,0,0,0,.27-1.08c-.12-.9-.71-1.28-1.76-1.13Zm3.13,6.56a2.14,2.14,0,0,0,1.34-.62,1.5,1.5,0,0,0,.32-1.28,1.41,1.41,0,0,0-.68-1.09,2.27,2.27,0,0,0-1.51-.22l-2.09.3.46,3.22Z"/><path class="cls-1" d="M498,163.78l1-.14,1.23,8.66-1,.14Z"/><path class="cls-1" d="M506.58,171.54a4.6,4.6,0,0,1-1.82-.09,4.5,4.5,0,0,1-1.56-.74,4.42,4.42,0,0,1-1.14-1.29,4.52,4.52,0,0,1-.6-1.72,4.6,4.6,0,0,1,.09-1.82,4.45,4.45,0,0,1,.74-1.55,4.52,4.52,0,0,1,3-1.73,4.61,4.61,0,0,1,1.82.09,4.28,4.28,0,0,1,1.55.74,4.54,4.54,0,0,1,1.14,1.28,4.68,4.68,0,0,1,.59,1.72,4.6,4.6,0,0,1-.09,1.82,4.5,4.5,0,0,1-.74,1.56A4.39,4.39,0,0,1,508.3,171,4.51,4.51,0,0,1,506.58,171.54Zm-.14-.94a3.51,3.51,0,0,0,1.33-.46,3.42,3.42,0,0,0,1-.9,3.45,3.45,0,0,0,.56-1.23,3.91,3.91,0,0,0-.4-2.8,3.77,3.77,0,0,0-.88-1,3.19,3.19,0,0,0-1.2-.58,3.44,3.44,0,0,0-1.4-.07,3.56,3.56,0,0,0-1.32.45,3.3,3.3,0,0,0-1,.9,3.68,3.68,0,0,0-.56,1.22,3.78,3.78,0,0,0-.07,1.43,4.11,4.11,0,0,0,.46,1.37,3.35,3.35,0,0,0,.88,1,3.31,3.31,0,0,0,1.2.6A3.45,3.45,0,0,0,506.44,170.6Z"/><path class="cls-1" d="M511.69,161.84l2.64-.38a6,6,0,0,1,2,0,4.21,4.21,0,0,1,1.61.66,3.94,3.94,0,0,1,1.15,1.22,4.67,4.67,0,0,1,.6,1.73,4.39,4.39,0,0,1-.1,1.82,3.87,3.87,0,0,1-.77,1.51,4.55,4.55,0,0,1-1.37,1.1,5.74,5.74,0,0,1-1.89.59l-2.63.37Zm3.73,7.37a4.57,4.57,0,0,0,1.48-.45,3.41,3.41,0,0,0,1.07-.87,3.23,3.23,0,0,0,.6-1.2,3.81,3.81,0,0,0,.06-1.44,3.53,3.53,0,0,0-.46-1.36,3,3,0,0,0-.9-1,3.39,3.39,0,0,0-1.26-.52,4.45,4.45,0,0,0-1.55,0l-1.64.23,1,6.84Z"/><path class="cls-1" d="M520.94,160.53l5-.71.13.91-4,.57.39,2.77,3.86-.55.13.91-3.86.55.44,3.15,4.14-.58.13.91-5.14.73Z"/><path class="cls-1" d="M529.82,160.2l-2.56.37-.13-.92,6.21-.88.13.92-2.64.37,1.1,7.75-1,.14Z"/><path class="cls-1" d="M536.74,159.22l-2.56.37-.13-.92,6.2-.88.13.92-2.64.37,1.1,7.75-1,.14Z"/><path class="cls-1" d="M541.94,157.55l1-.14,1.23,8.67-1,.14Z"/><path class="cls-1" d="M555.09,163.6l.13.91-5.63.8-.08-.52a3.07,3.07,0,0,1,.06-1.22,3.82,3.82,0,0,1,.44-1,4.38,4.38,0,0,1,.67-.81c.25-.24.49-.46.71-.65s.64-.53.88-.74a4,4,0,0,0,.58-.6,1.67,1.67,0,0,0,.29-.6,1.74,1.74,0,0,0,0-.69,1.52,1.52,0,0,0-1.82-1.43,1.63,1.63,0,0,0-1.17.67,1.8,1.8,0,0,0-.28,1.37l-1,.15a3,3,0,0,1,0-1.16,2.38,2.38,0,0,1,.43-.94,2.41,2.41,0,0,1,.77-.68,3.09,3.09,0,0,1,1.1-.35,3.3,3.3,0,0,1,1.09,0,2.24,2.24,0,0,1,1.56,1.13,2.72,2.72,0,0,1,.35,1,2.59,2.59,0,0,1,0,1,2.49,2.49,0,0,1-.38.83,5.67,5.67,0,0,1-.67.74l-.87.75c-.27.24-.51.45-.73.66a4.12,4.12,0,0,0-.53.61,2.78,2.78,0,0,0-.34.63,2.36,2.36,0,0,0-.13.72Z"/></g></svg>