<svg xmlns="http://www.w3.org/2000/svg" viewBox="0 0 1062.67 537.87"><g fill="#fff"><path d="M408.7 77.4a11.89 11.89 0 0 1 1.29.08 14 14 0 0 1 2.73.54L539.4 95.54l128.36 15.5 84 4.1c16.78-.3 34 .14 50.7.57 17.74.46 36.1.93 53.92.5l69.76-2.2a4.34 4.34 0 0 1 .72 0c3.48.46 11.4-.38 19.75-1.26 23.95-2.53 40-3.63 45.32 3.77a5.07 5.07 0 0 1 .4.72c6.42 14.2-16.46 28.36-20 30.43-36.32 26.44-119.85 87-129.3 91.12h0c-9.92 4-27.3 3-61.9 1.16l-34.68-1.77c-4.43-.12-23.6-10.7-38.9-19.6-6.92-3.58-13-6-22.27-2.4l-.3.1c-4 1.23-8.76 4.4-13.77 7.74-8.7 5.8-17.68 11.8-27.1 10.87-4.4-.36-10-5-12.17-7l-28.7-25.6-.2-.18c-10.44-10.57-17.78-10.58-30.9-9.65-14 1.18-25.2 8.1-37.3 23.15-2.07 2.58-3.43 6.4-4.87 10.42-.74 2.06-1.5 4.2-2.4 6.3-3 7.08-7.44 13.18-12.35 17.18-2.84 2.3-9.1 5.7-30.5 8.54-1.7.22-3.37.4-5 .57-5.25.55-10.2 1.06-14.3 3-2.6 1.28-4.7 6.3-6.75 11.18-2.4 5.73-5.1 12.23-10 16.28-13.2 10.93-24.42 13.7-40 17.55-6.27 1.55-13.37 3.3-21.82 5.86l-17.57 5.1c-16.2 4.58-31.52 8.9-42.9 14.54-3.44 1.7-9.22 6.7-9.1 14.63.13 10.1 2.7 42.13 5.06 67.62.3 3.17.7 6.48 1.1 9.68 2 16.15 4 32.84-8.76 36.3-10.9 2.95-16.88-5.06-24.46-15.2-2-2.68-4.28-5.73-6.87-8.9C274 425 181.8 305.74 123 225.63c-8.58-11.7-16.75-22-24-31C80.28 171 70 158 75.66 149.5a3.73 3.73 0 0 1 .39-.5c5.16-5.65 20.27-8.22 48.76-12.64l33.64-5.57 6.43-1.2c21.68-4.1 44.1-8.32 55.2-2.87 6.07 3 12.53 15.36 25.4 40.87l.08.16c3.23 6.63 9.83 21.07 18.65 41.7l3.6 8.72c4.3 10.6 8.38 20.62 14.26 26.7 6.16 4.66 19.12 12.5 29.86 13.14 5.28.33 13.74-2 18.87-4.35a95.31 95.31 0 0 0 23.89-17.26c7.92-8.1 13.3-22.93 13.84-26.08-.25-2-1.48-8.5-2.9-16-14.3-75.84-12.93-84-6.06-85.44 7.58-1.63 10.7-1.86 18.44 1.54 8.24 3.63 16.3 10.56 20.5 17.65l.56.94c2.4 4 5.4 9 5.18 16.68-.17 5.7-1.67 12.27-3 18.08a66.62 66.62 0 0 0-1.81 9.7 14.66 14.66 0 0 0 3 8.34c2.42 3.22 8.4 6 16.8 7.8.8.17 1.8.43 2.94.74 3.53.93 11.8 3.13 14.15 1.1a7.54 7.54 0 0 0 2.75-6.66c-1.1-9.2-6.74-24.44-12.2-39.18l-4-11c-6.88-19.06-15.32-38.27-19.74-48-1.48-3.26-.68-5.46.24-6.73a6.2 6.2 0 0 1 5.3-2.47zm343 46.2h-.2l-84.54-4.12-128.63-15.57-126-17.43c4.7 10.54 12.2 27.92 18.45 45.2l4 10.95c5.88 15.9 11.43 30.9 12.65 41.1a16.05 16.05 0 0 1-5.61 14.06c-5.74 4.95-15.43 2.38-21.84.67l-2.54-.64c-10.7-2.3-18-6-21.77-11a23 23 0 0 1-4.66-13.6c.06-2.8 1-6.8 2-11.4 1.24-5.43 2.64-11.6 2.78-16.45.15-5.24-1.76-8.4-4-12.08l-.6-1c-3.33-5.6-10-11.32-16.65-14.24-5.32-2.34-6.76-2.37-11.54-1.4-1.62 9.82 7.38 57.55 10.86 76l3 17.17c.3 3.4-6.2 22.14-16.24 32.4a103.57 103.57 0 0 1-26.37 19c-5 2.3-15.2 5.58-22.94 5.12-15.9-1-32.83-13.6-34.7-15.05a4 4 0 0 1-.44-.38c-7.18-7.26-11.6-18.14-16.28-29.67l-3.54-8.57c-8.65-20.42-15.18-34.7-18.35-41.26-8.36-16.56-17.82-35.3-21.6-37.15-8.58-4.2-31.5.12-49.93 3.6l-6.46 1.2c-11.92 2.2-23.6 4-33.9 5.6-19.33 3-39.3 6.1-43.5 9.7-.16.63-.2 3 4 9.7 4.1 6.5 11 15.18 19 25.23l24.16 31.3c58.73 80 150.8 199.06 160.05 210.44 2.7 3.32 5 6.44 7.08 9.2 7.53 10.07 10.38 13.48 15.5 12.1 5.73-1.55 4.13-14.56 2.6-27.13l-1.12-9.94c-2.44-26.5-5-57.9-5.1-68.28-.16-11.34 7.34-19.1 13.8-22.3 12.1-6 27.77-10.42 44.36-15.1l17.42-5c8.66-2.63 15.88-4.4 22.25-6 15.53-3.84 24.9-6.16 36.6-15.86 3.28-2.72 5.47-8 7.6-13 2.76-6.6 5.37-12.84 10.84-15.5s11.37-3.27 17.12-3.87l4.8-.54c18.7-2.47 24.5-5.27 26.28-6.72 3.87-3.15 7.4-8.1 9.92-14 .8-1.85 1.52-3.86 2.2-5.8 1.62-4.52 3.3-9.18 6.25-12.87 13.5-16.8 26.85-24.9 43.23-26.28 14.86-1 24.77-.75 37.46 12l28.62 25.5c2.65 2.38 6.1 4.7 7.25 4.87 6.5.66 14.23-4.5 21.7-9.48 5.5-3.67 10.68-7.14 15.85-8.75 12.5-4.8 21.25-1.2 29.14 2.9l.18.1c14.5 8.4 32 17.83 35.26 18.53l34.64 1.76c32.32 1.75 50.13 2.7 58.32-.57l.3-.1c6.67-3 79.7-55.46 127.34-90.14a2.92 2.92 0 0 1 .37-.24c6.18-3.6 18.7-13.28 16.9-19.28-.7-.54-3.34-1.93-12.16-1.93h-.17c-7.5 0-16.8 1-25 1.86-9 1-16.82 1.78-21.36 1.28l-69.5 2.2c-18.1.44-36.56 0-54.4-.5l-50.47-.57z"/><path d="M253.94 388.43l-4.3-14.24c-2.9-11.54-18-37.06-18.83-38.48l-117.26-153c-7.8-9.36-14-17.4-10.28-21.1 2.8-2.8 18.4-6 37-9.53l3.78-.73c12.86-2.5 28.14-16.64 28.3-16.8l1.7 1.83c-.65.6-15.95 14.8-29.53 17.4l-3.78.73c-11.6 2.23-33.2 6.37-35.7 8.85s6.6 13.13 10.43 17.73c6.42 7.7 112.85 147.25 117.37 153.2a.76.76 0 0 1 .08.11c.66 1.1 16.1 27.05 19.13 39.17l4.3 14.17z"/><path d="M147.1 291.53l1.3-8.74-2.64-3.57-1.3 8.74-8.77-1.3 2.65 3.57 8.77 1.3z" opacity=".8"/><path d="M151.6 297.47l1.3-8.73-2.65-3.57-1.3 8.74-8.77-1.3 2.65 3.57 8.77 1.3z" opacity=".9"/><path d="M156.1 303.58l1.3-8.74-2.65-3.57-1.3 8.74-8.77-1.3 2.64 3.57 8.78 1.3z"/><path d="M144.22 277.16l-2.65-3.57-1.3 8.74-8.77-1.3 2.65 3.57 8.77 1.3 1.3-8.74z" opacity=".7"/><path d="M140.04 271.53l-2.65-3.57-1.3 8.74-8.77-1.3 2.65 3.57 8.78 1.3 1.3-8.74z" opacity=".6"/></g><path d="M117.9 262.84l3.56-2.62 2.64 3.55-3.57 2.64z" fill="#010101"/><path d="M120.52 266.4l3.57-2.64 2.63 3.56-3.56 2.67z" fill="#fff"/><path d="M123.16,270l3.56-2.63,2.63,3.56-3.56,2.64Z" fill="#010101"/><path d="M121.42 260.24l3.56-2.63 2.64 3.55-3.57 2.63zm5.28 7.12l3.56-2.64 2.63 3.56-3.56 2.63z" fill="#fff"/><path d="M124 263.82l3.56-2.64 2.64 3.57-3.57 2.63zm1-6.2l3.56-2.64 2.63 3.56-3.56 2.63z" fill="#010101"/><path d="M127.58,261.18l3.56-2.63,2.64,3.56-3.56,2.64Z" fill="#fff"/><path d="M130.22,264.75l3.56-2.64,2.63,3.56-3.56,2.63Z" fill="#010101"/><path d="M128.48 255l3.56-2.63 2.63 3.57-3.56 2.63zm5.26 7.13l3.57-2.63 2.63 3.56-3.56 2.63z" fill="#fff"/><path d="M131.08 258.6l3.56-2.64 2.63 3.56-3.56 2.64zm.77-6.28l3.56-2.63 2.64 3.56-3.56 2.64z" fill="#010101"/><path d="M134.5 255.9l3.56-2.64 2.63 3.56-3.56 2.64z" fill="#fff"/><path d="M137.12 259.45l3.56-2.64 2.63 3.56-3.56 2.63z" fill="#010101"/><g fill="#fff"><path d="M305.1 476.76h-2.67v-2.86h8.7v2.86h-2.87v8.13h-3.16zm12.15-2.86v11h-3.1v-8l-1.8.56-.7-2.63 3.08-1zM281 324.9h-2.66v-2.86H287v2.86h-2.88v8.1H281zm15.08 5.48V333h-8.2v-1.13a3.75 3.75 0 0 1 .8-2.34 9 9 0 0 1 2.21-1.95l1-.65a5.63 5.63 0 0 0 .6-.46 1.16 1.16 0 0 0 .29-.38.93.93 0 0 0 .09-.42 1 1 0 0 0-.25-.73.91.91 0 0 0-.67-.23c-.63 0-.94.42-.94 1.25h-3.1a4.14 4.14 0 0 1 1.11-3.06 4.89 4.89 0 0 1 6-.17 3.33 3.33 0 0 1 1 2.61 3.61 3.61 0 0 1-.18 1.2 3.56 3.56 0 0 1-.55 1 5.24 5.24 0 0 1-.9.84l-1.24.85-.94.62a5.46 5.46 0 0 0-.71.53zm158.15-27.94h-2.66v-2.86h8.7v2.86h-2.87v8.13h-3.17zM467.7 305a2.82 2.82 0 0 1 1.24 1 2.67 2.67 0 0 1 .43 1.53 3 3 0 0 1-.3 1.34 3.14 3.14 0 0 1-.86 1 4.1 4.1 0 0 1-1.32.67 5.48 5.48 0 0 1-1.67.24 4.19 4.19 0 0 1-3-1 4 4 0 0 1-1.17-2.93H464a1.31 1.31 0 0 0 .31.86 1 1 0 0 0 .79.31 1.17 1.17 0 0 0 .81-.27.9.9 0 0 0 .31-.72.86.86 0 0 0-.29-.7 1.28 1.28 0 0 0-.83-.25h-1.06v-2.2h1c.73 0 1.1-.3 1.1-.9a.83.83 0 0 0-.28-.67 1.12 1.12 0 0 0-.76-.24 1.06 1.06 0 0 0-.79.29 1.08 1.08 0 0 0-.32.8h-2.88a4.36 4.36 0 0 1 .36-1.57 3.53 3.53 0 0 1 .86-1.19 3.64 3.64 0 0 1 1.3-.75 5.2 5.2 0 0 1 1.68-.26 5.29 5.29 0 0 1 1.58.23 3.62 3.62 0 0 1 1.22.64 2.89 2.89 0 0 1 .79 1 3 3 0 0 1 .28 1.29 2.49 2.49 0 0 1-1.46 2.45zm-31.45-68.1h-2.66v-2.85h8.7v2.85h-2.87v8.1h-3.17zm15.02 6.47h-1.2V245H447v-1.66h-4.88V241l4.58-6.92h3.4v6.76h1.2zm-6.2-2.56h2.2v-3.47zM529 258h-2.66v-2.85H535V258h-2.87v8.13H529zm12.1.88a3.67 3.67 0 0 1 1.42.27 3.11 3.11 0 0 1 1.12.75 3.68 3.68 0 0 1 .73 1.17 4.18 4.18 0 0 1 .26 1.48 3.79 3.79 0 0 1-.31 1.57 3.42 3.42 0 0 1-.86 1.22 3.81 3.81 0 0 1-1.35.77 5.37 5.37 0 0 1-1.76.27 4.26 4.26 0 0 1-2.94-1 3.77 3.77 0 0 1-1.17-2.77h3a1.22 1.22 0 0 0 .37.73 1.07 1.07 0 0 0 .74.27 1.1 1.1 0 0 0 .85-.36 1.25 1.25 0 0 0 .33-.9 1.18 1.18 0 0 0-.34-.87 1.09 1.09 0 0 0-.84-.36 1.16 1.16 0 0 0-.57.15 1.43 1.43 0 0 0-.44.41h-2.84v-6.5h7.56v2.66h-4.62v1.4a3.7 3.7 0 0 1 1.66-.35zm25-98.83h-2.66v-2.86h8.7v2.86h-2.87v8.13h-3.17zm11.34.45a3.66 3.66 0 0 1 1.27.42 3.87 3.87 0 0 1 1 .84 3.66 3.66 0 0 1 .67 1.15 3.93 3.93 0 0 1 .24 1.38 4 4 0 0 1-.34 1.61 4.14 4.14 0 0 1-.9 1.31 4.28 4.28 0 0 1-1.36.87 4.45 4.45 0 0 1-1.68.32 4.2 4.2 0 0 1-1.66-.33 4.09 4.09 0 0 1-1.33-.89 3.94 3.94 0 0 1-.89-1.33 4.12 4.12 0 0 1-.33-1.65 3.23 3.23 0 0 1 .07-.71 3.9 3.9 0 0 1 .21-.73 4.72 4.72 0 0 1 .4-.82l.63-1 2.5-3.74h3.64zm-1.07 5.1a1.17 1.17 0 0 0 .89-.37 1.25 1.25 0 0 0 .36-.92 1.23 1.23 0 0 0-.36-.91 1.2 1.2 0 0 0-.89-.36 1.18 1.18 0 0 0-.89.36 1.22 1.22 0 0 0-.35.91 1.24 1.24 0 0 0 .35.92 1.16 1.16 0 0 0 .89.37zm63 84.68h-2.67v-2.86h8.7v2.86h-2.88v8.13h-3.16zm14.72-2.86V250l-4 8.4h-3.38l4.1-8.2h-4.6v-2.8zm37.97-67.9h-2.66v-2.86h8.7v2.86h-2.88v8.13h-3.16zm14 2.37a2.81 2.81 0 0 1 1.55 2.66 3.23 3.23 0 0 1-.29 1.37 2.9 2.9 0 0 1-.85 1 3.84 3.84 0 0 1-1.36.66 6.2 6.2 0 0 1-1.79.24 5 5 0 0 1-3.14-.88 2.89 2.89 0 0 1-1.14-2.42 3 3 0 0 1 1.54-2.66 2.77 2.77 0 0 1-1-1 2.93 2.93 0 0 1-.05-2.64 2.75 2.75 0 0 1 .82-1 4.08 4.08 0 0 1 1.29-.63 6.21 6.21 0 0 1 1.68-.22 6.35 6.35 0 0 1 1.69.22 3.88 3.88 0 0 1 1.29.63 2.79 2.79 0 0 1 1.1 2.25 2.7 2.7 0 0 1-.34 1.37 2.77 2.77 0 0 1-1 1.05zm-2.74 3.64a1.21 1.21 0 0 0 .86-.31 1.06 1.06 0 0 0 .33-.81 1.18 1.18 0 0 0-.32-.85 1.16 1.16 0 0 0-.85-.33 1.18 1.18 0 0 0-.88.34 1.16 1.16 0 0 0-.33.85 1 1 0 0 0 .33.81 1.25 1.25 0 0 0 .86.3zm0-6.77a1.13 1.13 0 0 0-.79.29 1 1 0 0 0-.31.72 1.06 1.06 0 0 0 .3.78 1.16 1.16 0 0 0 1.56 0 1.06 1.06 0 0 0 .3-.78 1 1 0 0 0-1.04-1.01zm34.04 75.4h-2.67v-2.86h8.7v2.86h-2.87v8.13h-3.16zm9.95 4.84a3.35 3.35 0 0 1-1.26-.42 3.91 3.91 0 0 1-1-.83 4 4 0 0 1-.67-1.16 4.15 4.15 0 0 1-.23-1.37 4 4 0 0 1 .33-1.62 4.33 4.33 0 0 1 .91-1.31 4.13 4.13 0 0 1 1.35-.87 4.54 4.54 0 0 1 1.69-.32 4.19 4.19 0 0 1 1.65.33 4.13 4.13 0 0 1 1.34.89 4.21 4.21 0 0 1 1.22 3 4.18 4.18 0 0 1-.07.72 3.81 3.81 0 0 1-.21.72 6.18 6.18 0 0 1-.4.83q-.26.44-.63 1l-2.5 3.74h-3.64zm1.08-5.1a1.19 1.19 0 0 0-.9.37 1.25 1.25 0 0 0-.36.92 1.23 1.23 0 0 0 1.26 1.27 1.2 1.2 0 0 0 .89-.36 1.26 1.26 0 0 0 .35-.91 1.28 1.28 0 0 0-.35-.92 1.17 1.17 0 0 0-.89-.38zm92.36 2.85h-2.66v-2.86h8.7v2.86h-2.87v8.13h-3.17zm12.14-2.85v11h-3.1v-8l-1.8.56-.7-2.63 3.08-1zm7.5 11.2a6.39 6.39 0 0 1-2.36-.42 5.6 5.6 0 0 1-1.86-1.19 5.13 5.13 0 0 1-1.22-1.8 5.93 5.93 0 0 1-.43-2.3 6 6 0 0 1 .43-2.3 5.13 5.13 0 0 1 1.22-1.8 5.55 5.55 0 0 1 1.86-1.17 6.2 6.2 0 0 1 2.36-.43 6.29 6.29 0 0 1 2.37.43 5.55 5.55 0 0 1 1.86 1.17 5.26 5.26 0 0 1 1.22 1.8 6.19 6.19 0 0 1 .43 2.3 6.12 6.12 0 0 1-.43 2.3 5.26 5.26 0 0 1-1.22 1.8 5.6 5.6 0 0 1-1.86 1.19 6.49 6.49 0 0 1-2.37.42zm0-2.86a2.74 2.74 0 0 0 1.08-.21 2.61 2.61 0 0 0 .84-.59 2.88 2.88 0 0 0 .55-.91 3 3 0 0 0 .21-1.14 3 3 0 0 0-.21-1.13 2.59 2.59 0 0 0-.56-.9 2.43 2.43 0 0 0-.85-.6 2.67 2.67 0 0 0-1.06-.21 2.74 2.74 0 0 0-1.08.21 2.53 2.53 0 0 0-.85.6 2.74 2.74 0 0 0-.56.9 3 3 0 0 0-.2 1.13 3 3 0 0 0 .2 1.14 2.9 2.9 0 0 0 .56.91 2.65 2.65 0 0 0 .85.59 2.74 2.74 0 0 0 1.1.21zm145.15-156.48h-2.66v-2.85h8.7v2.85h-2.87v8.13h-3.17zm12.15-2.86v11h-3.1v-8l-1.8.56-.7-2.63 3.08-.94zm6.74 0v11h-3.1v-8l-1.8.56-.7-2.63 3.08-.94zM368 59.17h-2.66v-2.85H374v2.85h-2.87v8.13H368zm12.1-2.85v11H377v-8l-1.8.55-.7-2.63 3.08-.94zm9.9 8.32v2.66h-8.2v-1.13a3.75 3.75 0 0 1 .8-2.34 9 9 0 0 1 2.21-1.95l1-.65a5.63 5.63 0 0 0 .6-.46 1.14 1.14 0 0 0 .29-.37.94.94 0 0 0 .09-.43 1 1 0 0 0-.25-.72.92.92 0 0 0-.67-.24c-.63 0-.95.42-.95 1.26h-3.08a4.1 4.1 0 0 1 1.11-3.06 4.87 4.87 0 0 1 6-.18 3.35 3.35 0 0 1 1 2.62 3.44 3.44 0 0 1-.19 1.2 3.11 3.11 0 0 1-.54.95 5.24 5.24 0 0 1-.9.84l-1.24.86-.94.6a6.55 6.55 0 0 0-.71.53zm64.23 136.86h-2.66v-2.85h8.7v2.85h-2.87v8.13h-3.17zm12.14-2.86v11h-3.1v-8l-1.8.55-.7-2.63 3.08-.94zm8.25 5.36a2.94 2.94 0 0 1 1.24 1 2.73 2.73 0 0 1 .42 1.52 3 3 0 0 1-.3 1.34 3.06 3.06 0 0 1-.86 1 4 4 0 0 1-1.31.67 5.53 5.53 0 0 1-1.67.23 4.2 4.2 0 0 1-3-1 4.11 4.11 0 0 1-1.17-2.93h3a1.26 1.26 0 0 0 .31.87 1 1 0 0 0 .78.31 1.21 1.21 0 0 0 .82-.27.94.94 0 0 0 .31-.73.86.86 0 0 0-.3-.69 1.21 1.21 0 0 0-.83-.25H471v-2.2h1c.73 0 1.1-.3 1.1-.9a.85.85 0 0 0-.28-.67 1.1 1.1 0 0 0-.77-.25 1.08 1.08 0 0 0-.79.3 1.11 1.11 0 0 0-.32.8H468a4.36 4.36 0 0 1 .36-1.57 3.32 3.32 0 0 1 .85-1.19 3.73 3.73 0 0 1 1.3-.75 4.94 4.94 0 0 1 1.68-.26 5.2 5.2 0 0 1 1.58.22 3.79 3.79 0 0 1 1.23.65 2.8 2.8 0 0 1 .78 1 2.9 2.9 0 0 1 .28 1.29 2.51 2.51 0 0 1-1.44 2.46zm-84.8 5.4h-2.67v-2.86h8.7v2.86H393v8.12h-3.16zm12.17-2.87v11h-3.1v-8l-1.8.55-.7-2.62 3.08-.95z"/><path d="M412.72 215.85h-1.2v1.66h-3.1v-1.66h-4.88v-2.4l4.6-6.92h3.4v6.76h1.2zm-6.18-2.56h2.18v-3.46zM350.7 84.2H348v-2.86h8.7v2.86h-2.88v8.12h-3.12zm12.14-2.86v11h-3.1v-8l-1.8.55-.7-2.62 3.1-1zM369.7 85a3.67 3.67 0 0 1 1.42.27 3.13 3.13 0 0 1 1.12.76 3.52 3.52 0 0 1 .73 1.16 4.22 4.22 0 0 1 .26 1.48 4 4 0 0 1-.3 1.58 3.5 3.5 0 0 1-.87 1.21 3.75 3.75 0 0 1-1.35.78 5.37 5.37 0 0 1-1.76.27 4.22 4.22 0 0 1-2.94-1 3.77 3.77 0 0 1-1.17-2.77h3a1.19 1.19 0 0 0 .37.73 1.07 1.07 0 0 0 .74.27 1.11 1.11 0 0 0 .85-.35 1.29 1.29 0 0 0 .33-.91 1.21 1.21 0 0 0-.33-.87 1.12 1.12 0 0 0-.85-.35 1.26 1.26 0 0 0-.57.14 1.43 1.43 0 0 0-.44.41h-2.84v-6.47h7.56V84H368v1.4a3.7 3.7 0 0 1 1.71-.4zm-42.3 122.57h-2.66v-2.85h8.7v2.85h-2.87v8.13h-3.17zm12.14-2.85v11h-3.1v-8l-1.8.55-.7-2.63 3.08-.94zm6.84 3.28a3.67 3.67 0 0 1 1.27.43 3.83 3.83 0 0 1 1 .83 3.78 3.78 0 0 1 .67 1.15 3.93 3.93 0 0 1 .24 1.38 4 4 0 0 1-.34 1.62 4.09 4.09 0 0 1-.9 1.3 4.27 4.27 0 0 1-3 1.19 4.19 4.19 0 0 1-3-1.21 4.17 4.17 0 0 1-.88-1.33 4.12 4.12 0 0 1-.33-1.65 4.2 4.2 0 0 1 .06-.72 4.94 4.94 0 0 1 .22-.73 5 5 0 0 1 .4-.81c.16-.3.37-.62.62-1l2.5-3.73h3.64zm-1.07 5.1a1.21 1.21 0 0 0 .89-.37 1.27 1.27 0 0 0 .36-.92 1.25 1.25 0 0 0-.36-.92 1.2 1.2 0 0 0-.89-.36 1.18 1.18 0 0 0-.89.36 1.24 1.24 0 0 0-.35.92 1.26 1.26 0 0 0 .35.92 1.19 1.19 0 0 0 .89.38zm-41.26 66.1h-2.67v-2.86h8.7v2.86h-2.87v8.12h-3.16zm12.15-2.87v11h-3.1v-8l-1.8.55-.7-2.62 3.08-.95zm9.47 0v2.6l-4 8.4h-3.38l4.1-8.2h-4.6v-2.8zm-88-25.63H235v-2.85h8.7v2.85h-2.87v8.13h-3.17zm12.13-2.84v11h-3.1v-8l-1.8.55-.7-2.63 3.08-.94zm8.78 5.24a2.8 2.8 0 0 1 1.55 2.66 3.19 3.19 0 0 1-.29 1.36 2.94 2.94 0 0 1-.85 1 4.21 4.21 0 0 1-1.36.66 6.58 6.58 0 0 1-1.79.23 5 5 0 0 1-3.14-.88 2.88 2.88 0 0 1-1.14-2.41 3.07 3.07 0 0 1 .39-1.59 2.81 2.81 0 0 1 1.14-1.07 2.76 2.76 0 0 1-1-1 2.67 2.67 0 0 1-.34-1.36 2.83 2.83 0 0 1 .28-1.28 2.86 2.86 0 0 1 .83-1 3.87 3.87 0 0 1 1.29-.62 5.84 5.84 0 0 1 1.68-.22 6 6 0 0 1 1.69.22 3.87 3.87 0 0 1 1.29.62 2.92 2.92 0 0 1 .81 1 2.83 2.83 0 0 1 .29 1.28 2.66 2.66 0 0 1-1.34 2.35zm-2.74 3.64a1.23 1.23 0 0 0 .85-.31 1.05 1.05 0 0 0 .34-.82 1.13 1.13 0 0 0-1.18-1.18 1.18 1.18 0 0 0-.87.34 1.17 1.17 0 0 0-.33.86 1 1 0 0 0 .33.8 1.2 1.2 0 0 0 .86.31zm0-6.78a1.12 1.12 0 0 0-.78.29.92.92 0 0 0-.31.72 1.08 1.08 0 1 0 2.15 0 .94.94 0 0 0-.29-.72 1.06 1.06 0 0 0-.76-.25zm-37.14-144.2H216v-2.85h8.7v2.85h-2.87v8.13h-3.17zm12.13-2.86v11h-3.1v-8l-1.8.56-.7-2.63 3.08-.94zm4.72 7.7a3.35 3.35 0 0 1-1.26-.42 3.91 3.91 0 0 1-1-.83 3.75 3.75 0 0 1-.66-1.15 3.93 3.93 0 0 1-.24-1.38 4 4 0 0 1 .33-1.62 4.46 4.46 0 0 1 .91-1.31A4.13 4.13 0 0 1 235 103a4.54 4.54 0 0 1 1.69-.32 4.26 4.26 0 0 1 3 1.22 4.21 4.21 0 0 1 1.22 3 4.18 4.18 0 0 1-.07.72 3.81 3.81 0 0 1-.21.72 6.18 6.18 0 0 1-.4.83q-.26.44-.63 1l-2.5 3.74h-3.64zm1.08-5.1a1.19 1.19 0 0 0-.9.37 1.25 1.25 0 0 0-.36.92 1.23 1.23 0 0 0 1.26 1.27 1.2 1.2 0 0 0 .89-.36 1.26 1.26 0 0 0 .35-.91 1.28 1.28 0 0 0-.35-.92 1.17 1.17 0 0 0-.89-.37zM34.05 143.73H31.4v-2.86h8.7v2.86h-2.87v8.13h-3.17zm15.13 5.47v2.66H41v-1.13a3.75 3.75 0 0 1 .8-2.34 8.89 8.89 0 0 1 2.2-1.95l1-.65a5.63 5.63 0 0 0 .6-.46 1.16 1.16 0 0 0 .29-.38.93.93 0 0 0 .08-.42 1 1 0 0 0-.24-.73.93.93 0 0 0-.67-.23c-.63 0-.95.42-.95 1.25H41a4.14 4.14 0 0 1 1.11-3.06 4.2 4.2 0 0 1 3.08-1.1 4.15 4.15 0 0 1 2.87.93 3.3 3.3 0 0 1 1 2.61 3.36 3.36 0 0 1-.19 1.2 3.31 3.31 0 0 1-.55 1 4.82 4.82 0 0 1-.89.84l-1.24.85-.94.62a4.85 4.85 0 0 0-.71.53zm6.82 2.87a6.29 6.29 0 0 1-2.37-.43 5.42 5.42 0 0 1-1.86-1.18 5.19 5.19 0 0 1-1.21-1.8 6.23 6.23 0 0 1 0-4.6 5.1 5.1 0 0 1 1.21-1.8 5.55 5.55 0 0 1 1.86-1.17 6.75 6.75 0 0 1 4.74 0 5.76 5.76 0 0 1 1.86 1.17 5.24 5.24 0 0 1 1.21 1.8 6.37 6.37 0 0 1 0 4.6 5.34 5.34 0 0 1-1.21 1.8 5.62 5.62 0 0 1-1.86 1.18 6.29 6.29 0 0 1-2.37.43zm0-2.86a2.67 2.67 0 0 0 1.08-.21 2.31 2.31 0 0 0 .84-.6 2.74 2.74 0 0 0 .56-.9 3.25 3.25 0 0 0 .2-1.14 3.19 3.19 0 0 0-.2-1.13 2.92 2.92 0 0 0-.57-.91 2.5 2.5 0 0 0-.84-.59 2.69 2.69 0 0 0-1.07-.21 2.65 2.65 0 0 0-1.07.21 2.55 2.55 0 0 0-.85.59 2.73 2.73 0 0 0-.56.91 3 3 0 0 0-.21 1.13 3 3 0 0 0 .21 1.14 2.59 2.59 0 0 0 .56.9 2.43 2.43 0 0 0 .85.6 2.65 2.65 0 0 0 1.12.21z"/></g><path d="M340 394.47a4.27 4.27 0 0 1-3-1.05 3.93 3.93 0 0 1-1.22-2.82h1.45a2.76 2.76 0 0 0 .83 1.88 2.73 2.73 0 0 0 1.94.71 3 3 0 0 0 1.93-.57 1.88 1.88 0 0 0 .72-1.56 1.82 1.82 0 0 0-.41-1.24 4.05 4.05 0 0 0-1.43-.87l-1.8-.68a4.71 4.71 0 0 1-2.08-1.37 3.26 3.26 0 0 1-.65-2.07 2.9 2.9 0 0 1 .28-1.29 2.84 2.84 0 0 1 .77-1 3.62 3.62 0 0 1 1.2-.64 4.76 4.76 0 0 1 1.55-.23 4 4 0 0 1 2.74.9 3.5 3.5 0 0 1 1.13 2.51h-1.46a2.27 2.27 0 0 0-.69-1.57 2.43 2.43 0 0 0-1.72-.57 2.73 2.73 0 0 0-1.7.5 1.64 1.64 0 0 0-.64 1.36 2 2 0 0 0 .43 1.33 3.66 3.66 0 0 0 1.45.92l1.82.7a4.61 4.61 0 0 1 2 1.3 3 3 0 0 1 .62 2 3.53 3.53 0 0 1-.29 1.44 3.06 3.06 0 0 1-.82 1.1 3.8 3.8 0 0 1-1.29.69 5.56 5.56 0 0 1-1.67.19zm6.66-12.6h7.16v1.3h-5.72v4h5.53v1.3h-5.53V393h5.9v1.3h-7.36zm15.58 12.6a6.66 6.66 0 0 1-2.55-.49 6.18 6.18 0 0 1-3.38-3.38 6.83 6.83 0 0 1 0-5.08 6.18 6.18 0 0 1 3.38-3.38 6.73 6.73 0 0 1 2.55-.48 7 7 0 0 1 2.17.33 5.71 5.71 0 0 1 1.8.94 5.59 5.59 0 0 1 1.32 1.46 5.8 5.8 0 0 1 .74 1.91h-1.55a4.67 4.67 0 0 0-.61-1.36 3.93 3.93 0 0 0-1-1 4.38 4.38 0 0 0-1.31-.67 5.19 5.19 0 0 0-1.55-.23 4.9 4.9 0 0 0-2 .39 4.72 4.72 0 0 0-1.56 1.07 5 5 0 0 0-1.05 1.6 5.59 5.59 0 0 0 0 4 4.89 4.89 0 0 0 1.05 1.6 4.57 4.57 0 0 0 1.56 1.07 4.9 4.9 0 0 0 2 .39 4.67 4.67 0 0 0 2.85-.89 4.33 4.33 0 0 0 1.61-2.43h1.55a6 6 0 0 1-.74 1.92 5.48 5.48 0 0 1-1.32 1.47 5.71 5.71 0 0 1-1.8.94 6.67 6.67 0 0 1-2.16.3zm10.96-11.3h-3.67v-1.3h8.88v1.3h-3.78v11.1h-1.43zm12.65 11.3a6.59 6.59 0 0 1-2.53-.49 6.34 6.34 0 0 1-2-1.36 6.19 6.19 0 0 1-1.36-2 6.93 6.93 0 0 1 0-5.07 6.33 6.33 0 0 1 1.35-2 6.26 6.26 0 0 1 2-1.35 6.93 6.93 0 0 1 5.07 0 6.22 6.22 0 0 1 2 1.35 6.33 6.33 0 0 1 1.35 2 6.8 6.8 0 0 1 0 5.07 6.33 6.33 0 0 1-1.35 2 6.09 6.09 0 0 1-2 1.36 6.59 6.59 0 0 1-2.53.49zm0-1.35a4.85 4.85 0 0 0 1.95-.39 4.52 4.52 0 0 0 1.57-1.07 4.73 4.73 0 0 0 1-1.61 5.34 5.34 0 0 0 .37-2 5.08 5.08 0 0 0-.38-2 4.94 4.94 0 0 0-1-1.6 4.36 4.36 0 0 0-1.56-1.06 5.19 5.19 0 0 0-3.9 0 4.45 4.45 0 0 0-1.56 1.06 4.94 4.94 0 0 0-1 1.6 5.08 5.08 0 0 0-.38 2 5.34 5.34 0 0 0 .37 2 4.73 4.73 0 0 0 1 1.61 4.52 4.52 0 0 0 1.57 1.07 4.85 4.85 0 0 0 1.95.39zm9.15-11.26h3.85a4 4 0 0 1 2.86 1 3.39 3.39 0 0 1 1 2.64 3.68 3.68 0 0 1-.72 2.33 3.56 3.56 0 0 1-2 1.25l3.52 5.2h-1.7l-3.38-5.08h-2v5.08H395zm3.75 6a2.58 2.58 0 0 0 1.83-.62 2.26 2.26 0 0 0 .66-1.74 2.22 2.22 0 0 0-.64-1.71 2.58 2.58 0 0 0-1.85-.61h-2.34v4.68zm15.05-6v12.4h-1.44v-10.93l-2.35.74-.35-1.25 2.9-1z" opacity=".5" fill="#fff"/><path d="M824.18 165.4a4.31 4.31 0 0 1-3-1 4 4 0 0 1-1.22-2.83h1.45a2.76 2.76 0 0 0 .83 1.88 2.71 2.71 0 0 0 1.94.72 3 3 0 0 0 1.93-.57 1.91 1.91 0 0 0 .72-1.57 1.82 1.82 0 0 0-.41-1.24 4.05 4.05 0 0 0-1.43-.86l-1.8-.68a4.72 4.72 0 0 1-2.08-1.38 3.24 3.24 0 0 1-.65-2.07 3 3 0 0 1 1-2.3 3.72 3.72 0 0 1 1.2-.64 4.76 4.76 0 0 1 1.55-.23 4 4 0 0 1 2.75.9 3.54 3.54 0 0 1 1.12 2.51h-1.45a2.28 2.28 0 0 0-.7-1.57 2.43 2.43 0 0 0-1.72-.57 2.67 2.67 0 0 0-1.7.51 1.62 1.62 0 0 0-.64 1.35 2 2 0 0 0 .43 1.33 3.66 3.66 0 0 0 1.45.92l1.82.7a4.7 4.7 0 0 1 2 1.3 3 3 0 0 1 .62 2 3.53 3.53 0 0 1-.29 1.44 3 3 0 0 1-.82 1.1 3.62 3.62 0 0 1-1.29.69 5.56 5.56 0 0 1-1.62.16zm6.72-12.6h7.1v1.3h-5.72v4h5.53v1.3h-5.53v4.52h5.92v1.3h-7.35zm15.56 12.6a6.48 6.48 0 0 1-2.55-.49 6.17 6.17 0 0 1-2-1.35 6.28 6.28 0 0 1-1.35-2 7 7 0 0 1 0-5.09 6.33 6.33 0 0 1 1.35-2 6.08 6.08 0 0 1 2-1.34 6.46 6.46 0 0 1 2.54-.49 7 7 0 0 1 2.17.33 5.71 5.71 0 0 1 1.8.94 5.64 5.64 0 0 1 1.32 1.47 5.54 5.54 0 0 1 .74 1.9h-1.55a4.67 4.67 0 0 0-.61-1.36 4.08 4.08 0 0 0-1-1 4.45 4.45 0 0 0-1.3-.67 5.3 5.3 0 0 0-1.56-.23 4.93 4.93 0 0 0-2 .39 4.87 4.87 0 0 0-1.46.98 5 5 0 0 0-1 1.6 5.45 5.45 0 0 0 0 4 5 5 0 0 0 1 1.61 4.87 4.87 0 0 0 1.56 1.07 5.11 5.11 0 0 0 2 .38 4.59 4.59 0 0 0 2.85-.89 4.3 4.3 0 0 0 1.61-2.42h1.55a5.65 5.65 0 0 1-2.06 3.39 5.92 5.92 0 0 1-1.8.94 7 7 0 0 1-2.25.33zm10.94-11.3h-3.67v-1.3h8.88v1.3h-3.77v11.1h-1.44zm12.67 11.3a6.41 6.41 0 0 1-2.53-.49 6.48 6.48 0 0 1-2-1.35 6.16 6.16 0 0 1-1.35-2 6.8 6.8 0 0 1 0-5.07 6 6 0 0 1 3.38-3.37 6.83 6.83 0 0 1 5.08 0 6.1 6.1 0 0 1 2 1.34 6.17 6.17 0 0 1 1.35 2 6.8 6.8 0 0 1 0 5.07 6.18 6.18 0 0 1-3.37 3.39 6.46 6.46 0 0 1-2.56.48zm0-1.35a5.11 5.11 0 0 0 2-.38 4.87 4.87 0 0 0 1.56-1.07 4.72 4.72 0 0 0 1-1.62 5.32 5.32 0 0 0 .37-2 5.09 5.09 0 0 0-1.41-3.6 4.55 4.55 0 0 0-1.55-1.06 5.11 5.11 0 0 0-2-.38 5 5 0 0 0-2 .38 4.69 4.69 0 0 0-1.56 1.06 5 5 0 0 0-1 1.61 5.19 5.19 0 0 0-.38 2 5.32 5.32 0 0 0 .37 2 4.73 4.73 0 0 0 2.6 2.69 5 5 0 0 0 2 .37zm9.1-11.25H883a4 4 0 0 1 2.87 1 3.44 3.44 0 0 1 1 2.64 3.71 3.71 0 0 1-.73 2.34 3.55 3.55 0 0 1-2 1.24l3.52 5.22H886l-3.38-5.1h-2v5.1h-1.43zm3.76 6a2.53 2.53 0 0 0 1.82-.62 2.26 2.26 0 0 0 .66-1.74 2.22 2.22 0 0 0-.64-1.71 2.56 2.56 0 0 0-1.84-.61h-2.34v4.68zm19.52 5.1v1.3h-8.08v-.74a4.21 4.21 0 0 1 .33-1.71 4.81 4.81 0 0 1 .82-1.32 6.17 6.17 0 0 1 1.09-1l1.14-.76q.8-.5 1.38-.87a5.38 5.38 0 0 0 .93-.73 2.23 2.23 0 0 0 .52-.77 2.44 2.44 0 0 0 .17-1 2.29 2.29 0 0 0-.66-1.79 2.54 2.54 0 0 0-3.39.12 2.66 2.66 0 0 0-.67 1.87h-1.47a4.39 4.39 0 0 1 .28-1.61 3.63 3.63 0 0 1 .8-1.24 3.32 3.32 0 0 1 1.22-.8 4.51 4.51 0 0 1 1.6-.27 4.39 4.39 0 0 1 1.53.25 3.27 3.27 0 0 1 2 1.89 4.09 4.09 0 0 1 .27 1.53 3.59 3.59 0 0 1-.25 1.41 3.32 3.32 0 0 1-.71 1.08 6.6 6.6 0 0 1-1.08.92l-1.37.88-1.15.78a5.47 5.47 0 0 0-.87.75 3.51 3.51 0 0 0-.6.82 3.3 3.3 0 0 0-.33 1z" opacity=".5" fill="#fff"/><path d="M268.9 146.26a4.27 4.27 0 0 1-3-1 4 4 0 0 1-1.22-2.83h1.45a2.74 2.74 0 0 0 .83 1.88 2.71 2.71 0 0 0 1.94.72 3 3 0 0 0 1.93-.57 1.89 1.89 0 0 0 .72-1.57 1.81 1.81 0 0 0-.41-1.23 3.91 3.91 0 0 0-1.43-.87l-1.8-.68a4.8 4.8 0 0 1-2.08-1.37 3.27 3.27 0 0 1-.65-2.08 3 3 0 0 1 .28-1.29 2.89 2.89 0 0 1 .77-1 3.74 3.74 0 0 1 1.2-.65 5 5 0 0 1 1.55-.23 4 4 0 0 1 2.75.91 3.51 3.51 0 0 1 1.12 2.5h-1.46a2.23 2.23 0 0 0-.69-1.56 2.43 2.43 0 0 0-1.72-.57 2.67 2.67 0 0 0-1.7.5 1.64 1.64 0 0 0-.64 1.36 2 2 0 0 0 .43 1.32 3.56 3.56 0 0 0 1.45.93l1.82.7a4.61 4.61 0 0 1 2 1.3 3 3 0 0 1 .62 2 3.53 3.53 0 0 1-.29 1.44 2.94 2.94 0 0 1-.82 1.09 3.62 3.62 0 0 1-1.29.69 5.56 5.56 0 0 1-1.67.16zm6.7-12.6h7.15V135H277v4h5.53v1.3H277v4.5h6v1.3h-7.4zm15.57 12.6a6.65 6.65 0 0 1-2.55-.48 6.18 6.18 0 0 1-3.38-3.38 7 7 0 0 1 0-5.09 6.18 6.18 0 0 1 3.39-3.37 6.64 6.64 0 0 1 2.54-.49 7 7 0 0 1 2.17.33 6 6 0 0 1 1.8.95 5.53 5.53 0 0 1 2.06 3.37h-1.55a4.73 4.73 0 0 0-.61-1.37 4.25 4.25 0 0 0-1-1 4.2 4.2 0 0 0-1.3-.66 5.3 5.3 0 0 0-1.56-.23 4.93 4.93 0 0 0-2 .39 4.57 4.57 0 0 0-1.56 1.07 4.86 4.86 0 0 0-1 1.6 5 5 0 0 0-.38 2 5.14 5.14 0 0 0 .38 2 5 5 0 0 0 1 1.6 4.72 4.72 0 0 0 1.56 1.07 4.93 4.93 0 0 0 2 .39A4.6 4.6 0 0 0 294 144a4.27 4.27 0 0 0 1.61-2.42h1.55a5.73 5.73 0 0 1-.74 1.92 5.64 5.64 0 0 1-1.32 1.47 5.71 5.71 0 0 1-1.8.94 7 7 0 0 1-2.13.35zM302.12 135h-3.67v-1.3h8.88v1.3h-3.77v11.1h-1.44zm12.66 11.26a6.59 6.59 0 0 1-2.53-.48 6.34 6.34 0 0 1-2-1.36 6.16 6.16 0 0 1-1.35-2 6.41 6.41 0 0 1-.49-2.53 6.5 6.5 0 0 1 .49-2.54 6.1 6.1 0 0 1 1.34-2 6.26 6.26 0 0 1 2-1.35 6.83 6.83 0 0 1 5.08 0 6.28 6.28 0 0 1 2 1.35 6.12 6.12 0 0 1 1.35 2 6.68 6.68 0 0 1 .49 2.54 6.59 6.59 0 0 1-.49 2.53 6.32 6.32 0 0 1-1.35 2 6.15 6.15 0 0 1-2 1.36 6.64 6.64 0 0 1-2.54.48zm0-1.34a4.93 4.93 0 0 0 2-.39 4.72 4.72 0 0 0 1.56-1.07 4.58 4.58 0 0 0 1-1.61 5.34 5.34 0 0 0 .37-2 5.22 5.22 0 0 0-.37-2 5.14 5.14 0 0 0-1-1.6 4.41 4.41 0 0 0-1.55-1.06 4.93 4.93 0 0 0-2-.38 4.85 4.85 0 0 0-1.95.38 4.55 4.55 0 0 0-1.56 1.06 4.94 4.94 0 0 0-1 1.6 5.22 5.22 0 0 0-.38 2 5.34 5.34 0 0 0 .37 2 4.76 4.76 0 0 0 2.6 2.68 4.85 4.85 0 0 0 1.91.39zm9.12-11.26h3.85a4.08 4.08 0 0 1 2.87 1 3.46 3.46 0 0 1 1 2.65 3.7 3.7 0 0 1-.73 2.33 3.5 3.5 0 0 1-2 1.24l3.52 5.22h-1.7l-3.36-5.1h-2v5.1h-1.43zm3.76 6a2.57 2.57 0 0 0 1.82-.62 2.63 2.63 0 0 0 0-3.46 2.6 2.6 0 0 0-1.84-.61h-2.34v4.7zm17.57-.14a3.1 3.1 0 0 1 1.45 1.15 3.22 3.22 0 0 1 .5 1.83 3.64 3.64 0 0 1-.31 1.51 3.52 3.52 0 0 1-.87 1.18 3.82 3.82 0 0 1-1.31.79 4.76 4.76 0 0 1-1.67.28 4.91 4.91 0 0 1-1.62-.26 3.57 3.57 0 0 1-1.27-.78 3.63 3.63 0 0 1-.82-1.23 5.19 5.19 0 0 1-.33-1.63h1.46a2.66 2.66 0 0 0 .73 1.86 2.45 2.45 0 0 0 1.81.7 3.23 3.23 0 0 0 1.11-.18 2.51 2.51 0 0 0 .86-.49 2.18 2.18 0 0 0 .55-.75 2.41 2.41 0 0 0 .19-1 2.09 2.09 0 0 0-.72-1.69 3 3 0 0 0-2-.61h-1.23v-1.3H343a2.46 2.46 0 0 0 1.7-.54 2.25 2.25 0 0 0 0-3 2.37 2.37 0 0 0-1.66-.54 2.52 2.52 0 0 0-1.71.57 2 2 0 0 0-.7 1.51h-1.44a3.18 3.18 0 0 1 .33-1.37 3.47 3.47 0 0 1 .83-1.09 3.77 3.77 0 0 1 1.22-.71 4.38 4.38 0 0 1 1.53-.26 4.55 4.55 0 0 1 1.51.24 3.42 3.42 0 0 1 1.16.68 2.74 2.74 0 0 1 .74 1 3.32 3.32 0 0 1 .27 1.35 3.25 3.25 0 0 1-.39 1.63 3.08 3.08 0 0 1-1.16 1.14z" opacity=".5" fill="#fff"/></svg>